G04 #@! TF.GenerationSoftware,KiCad,Pcbnew,(5.1.9-0-10_14)*
G04 #@! TF.CreationDate,2021-04-14T19:06:18-04:00*
G04 #@! TF.ProjectId,delux pet on a chip,64656c75-7820-4706-9574-206f6e206120,rev?*
G04 #@! TF.SameCoordinates,Original*
G04 #@! TF.FileFunction,Paste,Top*
G04 #@! TF.FilePolarity,Positive*
%FSLAX46Y46*%
G04 Gerber Fmt 4.6, Leading zero omitted, Abs format (unit mm)*
G04 Created by KiCad (PCBNEW (5.1.9-0-10_14)) date 2021-04-14 19:06:18*
%MOMM*%
%LPD*%
G01*
G04 APERTURE LIST*
%ADD10R,3.800000X2.000000*%
%ADD11R,1.500000X2.000000*%
%ADD12R,0.650000X1.060000*%
%ADD13C,0.350000*%
%ADD14R,1.100000X1.300000*%
%ADD15R,1.300000X1.100000*%
G04 APERTURE END LIST*
G36*
G01*
X128291000Y-129169000D02*
X127741000Y-129169000D01*
G75*
G02*
X127541000Y-128969000I0J200000D01*
G01*
X127541000Y-128569000D01*
G75*
G02*
X127741000Y-128369000I200000J0D01*
G01*
X128291000Y-128369000D01*
G75*
G02*
X128491000Y-128569000I0J-200000D01*
G01*
X128491000Y-128969000D01*
G75*
G02*
X128291000Y-129169000I-200000J0D01*
G01*
G37*
G36*
G01*
X128291000Y-130819000D02*
X127741000Y-130819000D01*
G75*
G02*
X127541000Y-130619000I0J200000D01*
G01*
X127541000Y-130219000D01*
G75*
G02*
X127741000Y-130019000I200000J0D01*
G01*
X128291000Y-130019000D01*
G75*
G02*
X128491000Y-130219000I0J-200000D01*
G01*
X128491000Y-130619000D01*
G75*
G02*
X128291000Y-130819000I-200000J0D01*
G01*
G37*
G36*
G01*
X128291000Y-133179000D02*
X127741000Y-133179000D01*
G75*
G02*
X127541000Y-132979000I0J200000D01*
G01*
X127541000Y-132579000D01*
G75*
G02*
X127741000Y-132379000I200000J0D01*
G01*
X128291000Y-132379000D01*
G75*
G02*
X128491000Y-132579000I0J-200000D01*
G01*
X128491000Y-132979000D01*
G75*
G02*
X128291000Y-133179000I-200000J0D01*
G01*
G37*
G36*
G01*
X128291000Y-134829000D02*
X127741000Y-134829000D01*
G75*
G02*
X127541000Y-134629000I0J200000D01*
G01*
X127541000Y-134229000D01*
G75*
G02*
X127741000Y-134029000I200000J0D01*
G01*
X128291000Y-134029000D01*
G75*
G02*
X128491000Y-134229000I0J-200000D01*
G01*
X128491000Y-134629000D01*
G75*
G02*
X128291000Y-134829000I-200000J0D01*
G01*
G37*
G36*
G01*
X107484000Y-99634000D02*
X106384000Y-99634000D01*
G75*
G02*
X106134000Y-99384000I0J250000D01*
G01*
X106134000Y-96384000D01*
G75*
G02*
X106384000Y-96134000I250000J0D01*
G01*
X107484000Y-96134000D01*
G75*
G02*
X107734000Y-96384000I0J-250000D01*
G01*
X107734000Y-99384000D01*
G75*
G02*
X107484000Y-99634000I-250000J0D01*
G01*
G37*
G36*
G01*
X107484000Y-105034000D02*
X106384000Y-105034000D01*
G75*
G02*
X106134000Y-104784000I0J250000D01*
G01*
X106134000Y-101784000D01*
G75*
G02*
X106384000Y-101534000I250000J0D01*
G01*
X107484000Y-101534000D01*
G75*
G02*
X107734000Y-101784000I0J-250000D01*
G01*
X107734000Y-104784000D01*
G75*
G02*
X107484000Y-105034000I-250000J0D01*
G01*
G37*
G36*
G01*
X100332250Y-134016000D02*
X99819750Y-134016000D01*
G75*
G02*
X99601000Y-133797250I0J218750D01*
G01*
X99601000Y-133359750D01*
G75*
G02*
X99819750Y-133141000I218750J0D01*
G01*
X100332250Y-133141000D01*
G75*
G02*
X100551000Y-133359750I0J-218750D01*
G01*
X100551000Y-133797250D01*
G75*
G02*
X100332250Y-134016000I-218750J0D01*
G01*
G37*
G36*
G01*
X100332250Y-135591000D02*
X99819750Y-135591000D01*
G75*
G02*
X99601000Y-135372250I0J218750D01*
G01*
X99601000Y-134934750D01*
G75*
G02*
X99819750Y-134716000I218750J0D01*
G01*
X100332250Y-134716000D01*
G75*
G02*
X100551000Y-134934750I0J-218750D01*
G01*
X100551000Y-135372250D01*
G75*
G02*
X100332250Y-135591000I-218750J0D01*
G01*
G37*
G36*
G01*
X121668250Y-134829000D02*
X121155750Y-134829000D01*
G75*
G02*
X120937000Y-134610250I0J218750D01*
G01*
X120937000Y-134172750D01*
G75*
G02*
X121155750Y-133954000I218750J0D01*
G01*
X121668250Y-133954000D01*
G75*
G02*
X121887000Y-134172750I0J-218750D01*
G01*
X121887000Y-134610250D01*
G75*
G02*
X121668250Y-134829000I-218750J0D01*
G01*
G37*
G36*
G01*
X121668250Y-133254000D02*
X121155750Y-133254000D01*
G75*
G02*
X120937000Y-133035250I0J218750D01*
G01*
X120937000Y-132597750D01*
G75*
G02*
X121155750Y-132379000I218750J0D01*
G01*
X121668250Y-132379000D01*
G75*
G02*
X121887000Y-132597750I0J-218750D01*
G01*
X121887000Y-133035250D01*
G75*
G02*
X121668250Y-133254000I-218750J0D01*
G01*
G37*
G36*
G01*
X115670000Y-139819000D02*
X115670000Y-139969000D01*
G75*
G02*
X115595000Y-140044000I-75000J0D01*
G01*
X114195000Y-140044000D01*
G75*
G02*
X114120000Y-139969000I0J75000D01*
G01*
X114120000Y-139819000D01*
G75*
G02*
X114195000Y-139744000I75000J0D01*
G01*
X115595000Y-139744000D01*
G75*
G02*
X115670000Y-139819000I0J-75000D01*
G01*
G37*
G36*
G01*
X115670000Y-139319000D02*
X115670000Y-139469000D01*
G75*
G02*
X115595000Y-139544000I-75000J0D01*
G01*
X114195000Y-139544000D01*
G75*
G02*
X114120000Y-139469000I0J75000D01*
G01*
X114120000Y-139319000D01*
G75*
G02*
X114195000Y-139244000I75000J0D01*
G01*
X115595000Y-139244000D01*
G75*
G02*
X115670000Y-139319000I0J-75000D01*
G01*
G37*
G36*
G01*
X115670000Y-138819000D02*
X115670000Y-138969000D01*
G75*
G02*
X115595000Y-139044000I-75000J0D01*
G01*
X114195000Y-139044000D01*
G75*
G02*
X114120000Y-138969000I0J75000D01*
G01*
X114120000Y-138819000D01*
G75*
G02*
X114195000Y-138744000I75000J0D01*
G01*
X115595000Y-138744000D01*
G75*
G02*
X115670000Y-138819000I0J-75000D01*
G01*
G37*
G36*
G01*
X115670000Y-138319000D02*
X115670000Y-138469000D01*
G75*
G02*
X115595000Y-138544000I-75000J0D01*
G01*
X114195000Y-138544000D01*
G75*
G02*
X114120000Y-138469000I0J75000D01*
G01*
X114120000Y-138319000D01*
G75*
G02*
X114195000Y-138244000I75000J0D01*
G01*
X115595000Y-138244000D01*
G75*
G02*
X115670000Y-138319000I0J-75000D01*
G01*
G37*
G36*
G01*
X115670000Y-137819000D02*
X115670000Y-137969000D01*
G75*
G02*
X115595000Y-138044000I-75000J0D01*
G01*
X114195000Y-138044000D01*
G75*
G02*
X114120000Y-137969000I0J75000D01*
G01*
X114120000Y-137819000D01*
G75*
G02*
X114195000Y-137744000I75000J0D01*
G01*
X115595000Y-137744000D01*
G75*
G02*
X115670000Y-137819000I0J-75000D01*
G01*
G37*
G36*
G01*
X115670000Y-137319000D02*
X115670000Y-137469000D01*
G75*
G02*
X115595000Y-137544000I-75000J0D01*
G01*
X114195000Y-137544000D01*
G75*
G02*
X114120000Y-137469000I0J75000D01*
G01*
X114120000Y-137319000D01*
G75*
G02*
X114195000Y-137244000I75000J0D01*
G01*
X115595000Y-137244000D01*
G75*
G02*
X115670000Y-137319000I0J-75000D01*
G01*
G37*
G36*
G01*
X115670000Y-136819000D02*
X115670000Y-136969000D01*
G75*
G02*
X115595000Y-137044000I-75000J0D01*
G01*
X114195000Y-137044000D01*
G75*
G02*
X114120000Y-136969000I0J75000D01*
G01*
X114120000Y-136819000D01*
G75*
G02*
X114195000Y-136744000I75000J0D01*
G01*
X115595000Y-136744000D01*
G75*
G02*
X115670000Y-136819000I0J-75000D01*
G01*
G37*
G36*
G01*
X115670000Y-136319000D02*
X115670000Y-136469000D01*
G75*
G02*
X115595000Y-136544000I-75000J0D01*
G01*
X114195000Y-136544000D01*
G75*
G02*
X114120000Y-136469000I0J75000D01*
G01*
X114120000Y-136319000D01*
G75*
G02*
X114195000Y-136244000I75000J0D01*
G01*
X115595000Y-136244000D01*
G75*
G02*
X115670000Y-136319000I0J-75000D01*
G01*
G37*
G36*
G01*
X115670000Y-135819000D02*
X115670000Y-135969000D01*
G75*
G02*
X115595000Y-136044000I-75000J0D01*
G01*
X114195000Y-136044000D01*
G75*
G02*
X114120000Y-135969000I0J75000D01*
G01*
X114120000Y-135819000D01*
G75*
G02*
X114195000Y-135744000I75000J0D01*
G01*
X115595000Y-135744000D01*
G75*
G02*
X115670000Y-135819000I0J-75000D01*
G01*
G37*
G36*
G01*
X115670000Y-135319000D02*
X115670000Y-135469000D01*
G75*
G02*
X115595000Y-135544000I-75000J0D01*
G01*
X114195000Y-135544000D01*
G75*
G02*
X114120000Y-135469000I0J75000D01*
G01*
X114120000Y-135319000D01*
G75*
G02*
X114195000Y-135244000I75000J0D01*
G01*
X115595000Y-135244000D01*
G75*
G02*
X115670000Y-135319000I0J-75000D01*
G01*
G37*
G36*
G01*
X115670000Y-134819000D02*
X115670000Y-134969000D01*
G75*
G02*
X115595000Y-135044000I-75000J0D01*
G01*
X114195000Y-135044000D01*
G75*
G02*
X114120000Y-134969000I0J75000D01*
G01*
X114120000Y-134819000D01*
G75*
G02*
X114195000Y-134744000I75000J0D01*
G01*
X115595000Y-134744000D01*
G75*
G02*
X115670000Y-134819000I0J-75000D01*
G01*
G37*
G36*
G01*
X115670000Y-134319000D02*
X115670000Y-134469000D01*
G75*
G02*
X115595000Y-134544000I-75000J0D01*
G01*
X114195000Y-134544000D01*
G75*
G02*
X114120000Y-134469000I0J75000D01*
G01*
X114120000Y-134319000D01*
G75*
G02*
X114195000Y-134244000I75000J0D01*
G01*
X115595000Y-134244000D01*
G75*
G02*
X115670000Y-134319000I0J-75000D01*
G01*
G37*
G36*
G01*
X115670000Y-133819000D02*
X115670000Y-133969000D01*
G75*
G02*
X115595000Y-134044000I-75000J0D01*
G01*
X114195000Y-134044000D01*
G75*
G02*
X114120000Y-133969000I0J75000D01*
G01*
X114120000Y-133819000D01*
G75*
G02*
X114195000Y-133744000I75000J0D01*
G01*
X115595000Y-133744000D01*
G75*
G02*
X115670000Y-133819000I0J-75000D01*
G01*
G37*
G36*
G01*
X115670000Y-133319000D02*
X115670000Y-133469000D01*
G75*
G02*
X115595000Y-133544000I-75000J0D01*
G01*
X114195000Y-133544000D01*
G75*
G02*
X114120000Y-133469000I0J75000D01*
G01*
X114120000Y-133319000D01*
G75*
G02*
X114195000Y-133244000I75000J0D01*
G01*
X115595000Y-133244000D01*
G75*
G02*
X115670000Y-133319000I0J-75000D01*
G01*
G37*
G36*
G01*
X115670000Y-132819000D02*
X115670000Y-132969000D01*
G75*
G02*
X115595000Y-133044000I-75000J0D01*
G01*
X114195000Y-133044000D01*
G75*
G02*
X114120000Y-132969000I0J75000D01*
G01*
X114120000Y-132819000D01*
G75*
G02*
X114195000Y-132744000I75000J0D01*
G01*
X115595000Y-132744000D01*
G75*
G02*
X115670000Y-132819000I0J-75000D01*
G01*
G37*
G36*
G01*
X115670000Y-132319000D02*
X115670000Y-132469000D01*
G75*
G02*
X115595000Y-132544000I-75000J0D01*
G01*
X114195000Y-132544000D01*
G75*
G02*
X114120000Y-132469000I0J75000D01*
G01*
X114120000Y-132319000D01*
G75*
G02*
X114195000Y-132244000I75000J0D01*
G01*
X115595000Y-132244000D01*
G75*
G02*
X115670000Y-132319000I0J-75000D01*
G01*
G37*
G36*
G01*
X113120000Y-129769000D02*
X113120000Y-131169000D01*
G75*
G02*
X113045000Y-131244000I-75000J0D01*
G01*
X112895000Y-131244000D01*
G75*
G02*
X112820000Y-131169000I0J75000D01*
G01*
X112820000Y-129769000D01*
G75*
G02*
X112895000Y-129694000I75000J0D01*
G01*
X113045000Y-129694000D01*
G75*
G02*
X113120000Y-129769000I0J-75000D01*
G01*
G37*
G36*
G01*
X112620000Y-129769000D02*
X112620000Y-131169000D01*
G75*
G02*
X112545000Y-131244000I-75000J0D01*
G01*
X112395000Y-131244000D01*
G75*
G02*
X112320000Y-131169000I0J75000D01*
G01*
X112320000Y-129769000D01*
G75*
G02*
X112395000Y-129694000I75000J0D01*
G01*
X112545000Y-129694000D01*
G75*
G02*
X112620000Y-129769000I0J-75000D01*
G01*
G37*
G36*
G01*
X112120000Y-129769000D02*
X112120000Y-131169000D01*
G75*
G02*
X112045000Y-131244000I-75000J0D01*
G01*
X111895000Y-131244000D01*
G75*
G02*
X111820000Y-131169000I0J75000D01*
G01*
X111820000Y-129769000D01*
G75*
G02*
X111895000Y-129694000I75000J0D01*
G01*
X112045000Y-129694000D01*
G75*
G02*
X112120000Y-129769000I0J-75000D01*
G01*
G37*
G36*
G01*
X111620000Y-129769000D02*
X111620000Y-131169000D01*
G75*
G02*
X111545000Y-131244000I-75000J0D01*
G01*
X111395000Y-131244000D01*
G75*
G02*
X111320000Y-131169000I0J75000D01*
G01*
X111320000Y-129769000D01*
G75*
G02*
X111395000Y-129694000I75000J0D01*
G01*
X111545000Y-129694000D01*
G75*
G02*
X111620000Y-129769000I0J-75000D01*
G01*
G37*
G36*
G01*
X111120000Y-129769000D02*
X111120000Y-131169000D01*
G75*
G02*
X111045000Y-131244000I-75000J0D01*
G01*
X110895000Y-131244000D01*
G75*
G02*
X110820000Y-131169000I0J75000D01*
G01*
X110820000Y-129769000D01*
G75*
G02*
X110895000Y-129694000I75000J0D01*
G01*
X111045000Y-129694000D01*
G75*
G02*
X111120000Y-129769000I0J-75000D01*
G01*
G37*
G36*
G01*
X110620000Y-129769000D02*
X110620000Y-131169000D01*
G75*
G02*
X110545000Y-131244000I-75000J0D01*
G01*
X110395000Y-131244000D01*
G75*
G02*
X110320000Y-131169000I0J75000D01*
G01*
X110320000Y-129769000D01*
G75*
G02*
X110395000Y-129694000I75000J0D01*
G01*
X110545000Y-129694000D01*
G75*
G02*
X110620000Y-129769000I0J-75000D01*
G01*
G37*
G36*
G01*
X110120000Y-129769000D02*
X110120000Y-131169000D01*
G75*
G02*
X110045000Y-131244000I-75000J0D01*
G01*
X109895000Y-131244000D01*
G75*
G02*
X109820000Y-131169000I0J75000D01*
G01*
X109820000Y-129769000D01*
G75*
G02*
X109895000Y-129694000I75000J0D01*
G01*
X110045000Y-129694000D01*
G75*
G02*
X110120000Y-129769000I0J-75000D01*
G01*
G37*
G36*
G01*
X109620000Y-129769000D02*
X109620000Y-131169000D01*
G75*
G02*
X109545000Y-131244000I-75000J0D01*
G01*
X109395000Y-131244000D01*
G75*
G02*
X109320000Y-131169000I0J75000D01*
G01*
X109320000Y-129769000D01*
G75*
G02*
X109395000Y-129694000I75000J0D01*
G01*
X109545000Y-129694000D01*
G75*
G02*
X109620000Y-129769000I0J-75000D01*
G01*
G37*
G36*
G01*
X109120000Y-129769000D02*
X109120000Y-131169000D01*
G75*
G02*
X109045000Y-131244000I-75000J0D01*
G01*
X108895000Y-131244000D01*
G75*
G02*
X108820000Y-131169000I0J75000D01*
G01*
X108820000Y-129769000D01*
G75*
G02*
X108895000Y-129694000I75000J0D01*
G01*
X109045000Y-129694000D01*
G75*
G02*
X109120000Y-129769000I0J-75000D01*
G01*
G37*
G36*
G01*
X108620000Y-129769000D02*
X108620000Y-131169000D01*
G75*
G02*
X108545000Y-131244000I-75000J0D01*
G01*
X108395000Y-131244000D01*
G75*
G02*
X108320000Y-131169000I0J75000D01*
G01*
X108320000Y-129769000D01*
G75*
G02*
X108395000Y-129694000I75000J0D01*
G01*
X108545000Y-129694000D01*
G75*
G02*
X108620000Y-129769000I0J-75000D01*
G01*
G37*
G36*
G01*
X108120000Y-129769000D02*
X108120000Y-131169000D01*
G75*
G02*
X108045000Y-131244000I-75000J0D01*
G01*
X107895000Y-131244000D01*
G75*
G02*
X107820000Y-131169000I0J75000D01*
G01*
X107820000Y-129769000D01*
G75*
G02*
X107895000Y-129694000I75000J0D01*
G01*
X108045000Y-129694000D01*
G75*
G02*
X108120000Y-129769000I0J-75000D01*
G01*
G37*
G36*
G01*
X107620000Y-129769000D02*
X107620000Y-131169000D01*
G75*
G02*
X107545000Y-131244000I-75000J0D01*
G01*
X107395000Y-131244000D01*
G75*
G02*
X107320000Y-131169000I0J75000D01*
G01*
X107320000Y-129769000D01*
G75*
G02*
X107395000Y-129694000I75000J0D01*
G01*
X107545000Y-129694000D01*
G75*
G02*
X107620000Y-129769000I0J-75000D01*
G01*
G37*
G36*
G01*
X107120000Y-129769000D02*
X107120000Y-131169000D01*
G75*
G02*
X107045000Y-131244000I-75000J0D01*
G01*
X106895000Y-131244000D01*
G75*
G02*
X106820000Y-131169000I0J75000D01*
G01*
X106820000Y-129769000D01*
G75*
G02*
X106895000Y-129694000I75000J0D01*
G01*
X107045000Y-129694000D01*
G75*
G02*
X107120000Y-129769000I0J-75000D01*
G01*
G37*
G36*
G01*
X106620000Y-129769000D02*
X106620000Y-131169000D01*
G75*
G02*
X106545000Y-131244000I-75000J0D01*
G01*
X106395000Y-131244000D01*
G75*
G02*
X106320000Y-131169000I0J75000D01*
G01*
X106320000Y-129769000D01*
G75*
G02*
X106395000Y-129694000I75000J0D01*
G01*
X106545000Y-129694000D01*
G75*
G02*
X106620000Y-129769000I0J-75000D01*
G01*
G37*
G36*
G01*
X106120000Y-129769000D02*
X106120000Y-131169000D01*
G75*
G02*
X106045000Y-131244000I-75000J0D01*
G01*
X105895000Y-131244000D01*
G75*
G02*
X105820000Y-131169000I0J75000D01*
G01*
X105820000Y-129769000D01*
G75*
G02*
X105895000Y-129694000I75000J0D01*
G01*
X106045000Y-129694000D01*
G75*
G02*
X106120000Y-129769000I0J-75000D01*
G01*
G37*
G36*
G01*
X105620000Y-129769000D02*
X105620000Y-131169000D01*
G75*
G02*
X105545000Y-131244000I-75000J0D01*
G01*
X105395000Y-131244000D01*
G75*
G02*
X105320000Y-131169000I0J75000D01*
G01*
X105320000Y-129769000D01*
G75*
G02*
X105395000Y-129694000I75000J0D01*
G01*
X105545000Y-129694000D01*
G75*
G02*
X105620000Y-129769000I0J-75000D01*
G01*
G37*
G36*
G01*
X104320000Y-132319000D02*
X104320000Y-132469000D01*
G75*
G02*
X104245000Y-132544000I-75000J0D01*
G01*
X102845000Y-132544000D01*
G75*
G02*
X102770000Y-132469000I0J75000D01*
G01*
X102770000Y-132319000D01*
G75*
G02*
X102845000Y-132244000I75000J0D01*
G01*
X104245000Y-132244000D01*
G75*
G02*
X104320000Y-132319000I0J-75000D01*
G01*
G37*
G36*
G01*
X104320000Y-132819000D02*
X104320000Y-132969000D01*
G75*
G02*
X104245000Y-133044000I-75000J0D01*
G01*
X102845000Y-133044000D01*
G75*
G02*
X102770000Y-132969000I0J75000D01*
G01*
X102770000Y-132819000D01*
G75*
G02*
X102845000Y-132744000I75000J0D01*
G01*
X104245000Y-132744000D01*
G75*
G02*
X104320000Y-132819000I0J-75000D01*
G01*
G37*
G36*
G01*
X104320000Y-133319000D02*
X104320000Y-133469000D01*
G75*
G02*
X104245000Y-133544000I-75000J0D01*
G01*
X102845000Y-133544000D01*
G75*
G02*
X102770000Y-133469000I0J75000D01*
G01*
X102770000Y-133319000D01*
G75*
G02*
X102845000Y-133244000I75000J0D01*
G01*
X104245000Y-133244000D01*
G75*
G02*
X104320000Y-133319000I0J-75000D01*
G01*
G37*
G36*
G01*
X104320000Y-133819000D02*
X104320000Y-133969000D01*
G75*
G02*
X104245000Y-134044000I-75000J0D01*
G01*
X102845000Y-134044000D01*
G75*
G02*
X102770000Y-133969000I0J75000D01*
G01*
X102770000Y-133819000D01*
G75*
G02*
X102845000Y-133744000I75000J0D01*
G01*
X104245000Y-133744000D01*
G75*
G02*
X104320000Y-133819000I0J-75000D01*
G01*
G37*
G36*
G01*
X104320000Y-134319000D02*
X104320000Y-134469000D01*
G75*
G02*
X104245000Y-134544000I-75000J0D01*
G01*
X102845000Y-134544000D01*
G75*
G02*
X102770000Y-134469000I0J75000D01*
G01*
X102770000Y-134319000D01*
G75*
G02*
X102845000Y-134244000I75000J0D01*
G01*
X104245000Y-134244000D01*
G75*
G02*
X104320000Y-134319000I0J-75000D01*
G01*
G37*
G36*
G01*
X104320000Y-134819000D02*
X104320000Y-134969000D01*
G75*
G02*
X104245000Y-135044000I-75000J0D01*
G01*
X102845000Y-135044000D01*
G75*
G02*
X102770000Y-134969000I0J75000D01*
G01*
X102770000Y-134819000D01*
G75*
G02*
X102845000Y-134744000I75000J0D01*
G01*
X104245000Y-134744000D01*
G75*
G02*
X104320000Y-134819000I0J-75000D01*
G01*
G37*
G36*
G01*
X104320000Y-135319000D02*
X104320000Y-135469000D01*
G75*
G02*
X104245000Y-135544000I-75000J0D01*
G01*
X102845000Y-135544000D01*
G75*
G02*
X102770000Y-135469000I0J75000D01*
G01*
X102770000Y-135319000D01*
G75*
G02*
X102845000Y-135244000I75000J0D01*
G01*
X104245000Y-135244000D01*
G75*
G02*
X104320000Y-135319000I0J-75000D01*
G01*
G37*
G36*
G01*
X104320000Y-135819000D02*
X104320000Y-135969000D01*
G75*
G02*
X104245000Y-136044000I-75000J0D01*
G01*
X102845000Y-136044000D01*
G75*
G02*
X102770000Y-135969000I0J75000D01*
G01*
X102770000Y-135819000D01*
G75*
G02*
X102845000Y-135744000I75000J0D01*
G01*
X104245000Y-135744000D01*
G75*
G02*
X104320000Y-135819000I0J-75000D01*
G01*
G37*
G36*
G01*
X104320000Y-136319000D02*
X104320000Y-136469000D01*
G75*
G02*
X104245000Y-136544000I-75000J0D01*
G01*
X102845000Y-136544000D01*
G75*
G02*
X102770000Y-136469000I0J75000D01*
G01*
X102770000Y-136319000D01*
G75*
G02*
X102845000Y-136244000I75000J0D01*
G01*
X104245000Y-136244000D01*
G75*
G02*
X104320000Y-136319000I0J-75000D01*
G01*
G37*
G36*
G01*
X104320000Y-136819000D02*
X104320000Y-136969000D01*
G75*
G02*
X104245000Y-137044000I-75000J0D01*
G01*
X102845000Y-137044000D01*
G75*
G02*
X102770000Y-136969000I0J75000D01*
G01*
X102770000Y-136819000D01*
G75*
G02*
X102845000Y-136744000I75000J0D01*
G01*
X104245000Y-136744000D01*
G75*
G02*
X104320000Y-136819000I0J-75000D01*
G01*
G37*
G36*
G01*
X104320000Y-137319000D02*
X104320000Y-137469000D01*
G75*
G02*
X104245000Y-137544000I-75000J0D01*
G01*
X102845000Y-137544000D01*
G75*
G02*
X102770000Y-137469000I0J75000D01*
G01*
X102770000Y-137319000D01*
G75*
G02*
X102845000Y-137244000I75000J0D01*
G01*
X104245000Y-137244000D01*
G75*
G02*
X104320000Y-137319000I0J-75000D01*
G01*
G37*
G36*
G01*
X104320000Y-137819000D02*
X104320000Y-137969000D01*
G75*
G02*
X104245000Y-138044000I-75000J0D01*
G01*
X102845000Y-138044000D01*
G75*
G02*
X102770000Y-137969000I0J75000D01*
G01*
X102770000Y-137819000D01*
G75*
G02*
X102845000Y-137744000I75000J0D01*
G01*
X104245000Y-137744000D01*
G75*
G02*
X104320000Y-137819000I0J-75000D01*
G01*
G37*
G36*
G01*
X104320000Y-138319000D02*
X104320000Y-138469000D01*
G75*
G02*
X104245000Y-138544000I-75000J0D01*
G01*
X102845000Y-138544000D01*
G75*
G02*
X102770000Y-138469000I0J75000D01*
G01*
X102770000Y-138319000D01*
G75*
G02*
X102845000Y-138244000I75000J0D01*
G01*
X104245000Y-138244000D01*
G75*
G02*
X104320000Y-138319000I0J-75000D01*
G01*
G37*
G36*
G01*
X104320000Y-138819000D02*
X104320000Y-138969000D01*
G75*
G02*
X104245000Y-139044000I-75000J0D01*
G01*
X102845000Y-139044000D01*
G75*
G02*
X102770000Y-138969000I0J75000D01*
G01*
X102770000Y-138819000D01*
G75*
G02*
X102845000Y-138744000I75000J0D01*
G01*
X104245000Y-138744000D01*
G75*
G02*
X104320000Y-138819000I0J-75000D01*
G01*
G37*
G36*
G01*
X104320000Y-139319000D02*
X104320000Y-139469000D01*
G75*
G02*
X104245000Y-139544000I-75000J0D01*
G01*
X102845000Y-139544000D01*
G75*
G02*
X102770000Y-139469000I0J75000D01*
G01*
X102770000Y-139319000D01*
G75*
G02*
X102845000Y-139244000I75000J0D01*
G01*
X104245000Y-139244000D01*
G75*
G02*
X104320000Y-139319000I0J-75000D01*
G01*
G37*
G36*
G01*
X104320000Y-139819000D02*
X104320000Y-139969000D01*
G75*
G02*
X104245000Y-140044000I-75000J0D01*
G01*
X102845000Y-140044000D01*
G75*
G02*
X102770000Y-139969000I0J75000D01*
G01*
X102770000Y-139819000D01*
G75*
G02*
X102845000Y-139744000I75000J0D01*
G01*
X104245000Y-139744000D01*
G75*
G02*
X104320000Y-139819000I0J-75000D01*
G01*
G37*
G36*
G01*
X105620000Y-141119000D02*
X105620000Y-142519000D01*
G75*
G02*
X105545000Y-142594000I-75000J0D01*
G01*
X105395000Y-142594000D01*
G75*
G02*
X105320000Y-142519000I0J75000D01*
G01*
X105320000Y-141119000D01*
G75*
G02*
X105395000Y-141044000I75000J0D01*
G01*
X105545000Y-141044000D01*
G75*
G02*
X105620000Y-141119000I0J-75000D01*
G01*
G37*
G36*
G01*
X106120000Y-141119000D02*
X106120000Y-142519000D01*
G75*
G02*
X106045000Y-142594000I-75000J0D01*
G01*
X105895000Y-142594000D01*
G75*
G02*
X105820000Y-142519000I0J75000D01*
G01*
X105820000Y-141119000D01*
G75*
G02*
X105895000Y-141044000I75000J0D01*
G01*
X106045000Y-141044000D01*
G75*
G02*
X106120000Y-141119000I0J-75000D01*
G01*
G37*
G36*
G01*
X106620000Y-141119000D02*
X106620000Y-142519000D01*
G75*
G02*
X106545000Y-142594000I-75000J0D01*
G01*
X106395000Y-142594000D01*
G75*
G02*
X106320000Y-142519000I0J75000D01*
G01*
X106320000Y-141119000D01*
G75*
G02*
X106395000Y-141044000I75000J0D01*
G01*
X106545000Y-141044000D01*
G75*
G02*
X106620000Y-141119000I0J-75000D01*
G01*
G37*
G36*
G01*
X107120000Y-141119000D02*
X107120000Y-142519000D01*
G75*
G02*
X107045000Y-142594000I-75000J0D01*
G01*
X106895000Y-142594000D01*
G75*
G02*
X106820000Y-142519000I0J75000D01*
G01*
X106820000Y-141119000D01*
G75*
G02*
X106895000Y-141044000I75000J0D01*
G01*
X107045000Y-141044000D01*
G75*
G02*
X107120000Y-141119000I0J-75000D01*
G01*
G37*
G36*
G01*
X107620000Y-141119000D02*
X107620000Y-142519000D01*
G75*
G02*
X107545000Y-142594000I-75000J0D01*
G01*
X107395000Y-142594000D01*
G75*
G02*
X107320000Y-142519000I0J75000D01*
G01*
X107320000Y-141119000D01*
G75*
G02*
X107395000Y-141044000I75000J0D01*
G01*
X107545000Y-141044000D01*
G75*
G02*
X107620000Y-141119000I0J-75000D01*
G01*
G37*
G36*
G01*
X108120000Y-141119000D02*
X108120000Y-142519000D01*
G75*
G02*
X108045000Y-142594000I-75000J0D01*
G01*
X107895000Y-142594000D01*
G75*
G02*
X107820000Y-142519000I0J75000D01*
G01*
X107820000Y-141119000D01*
G75*
G02*
X107895000Y-141044000I75000J0D01*
G01*
X108045000Y-141044000D01*
G75*
G02*
X108120000Y-141119000I0J-75000D01*
G01*
G37*
G36*
G01*
X108620000Y-141119000D02*
X108620000Y-142519000D01*
G75*
G02*
X108545000Y-142594000I-75000J0D01*
G01*
X108395000Y-142594000D01*
G75*
G02*
X108320000Y-142519000I0J75000D01*
G01*
X108320000Y-141119000D01*
G75*
G02*
X108395000Y-141044000I75000J0D01*
G01*
X108545000Y-141044000D01*
G75*
G02*
X108620000Y-141119000I0J-75000D01*
G01*
G37*
G36*
G01*
X109120000Y-141119000D02*
X109120000Y-142519000D01*
G75*
G02*
X109045000Y-142594000I-75000J0D01*
G01*
X108895000Y-142594000D01*
G75*
G02*
X108820000Y-142519000I0J75000D01*
G01*
X108820000Y-141119000D01*
G75*
G02*
X108895000Y-141044000I75000J0D01*
G01*
X109045000Y-141044000D01*
G75*
G02*
X109120000Y-141119000I0J-75000D01*
G01*
G37*
G36*
G01*
X109620000Y-141119000D02*
X109620000Y-142519000D01*
G75*
G02*
X109545000Y-142594000I-75000J0D01*
G01*
X109395000Y-142594000D01*
G75*
G02*
X109320000Y-142519000I0J75000D01*
G01*
X109320000Y-141119000D01*
G75*
G02*
X109395000Y-141044000I75000J0D01*
G01*
X109545000Y-141044000D01*
G75*
G02*
X109620000Y-141119000I0J-75000D01*
G01*
G37*
G36*
G01*
X110120000Y-141119000D02*
X110120000Y-142519000D01*
G75*
G02*
X110045000Y-142594000I-75000J0D01*
G01*
X109895000Y-142594000D01*
G75*
G02*
X109820000Y-142519000I0J75000D01*
G01*
X109820000Y-141119000D01*
G75*
G02*
X109895000Y-141044000I75000J0D01*
G01*
X110045000Y-141044000D01*
G75*
G02*
X110120000Y-141119000I0J-75000D01*
G01*
G37*
G36*
G01*
X110620000Y-141119000D02*
X110620000Y-142519000D01*
G75*
G02*
X110545000Y-142594000I-75000J0D01*
G01*
X110395000Y-142594000D01*
G75*
G02*
X110320000Y-142519000I0J75000D01*
G01*
X110320000Y-141119000D01*
G75*
G02*
X110395000Y-141044000I75000J0D01*
G01*
X110545000Y-141044000D01*
G75*
G02*
X110620000Y-141119000I0J-75000D01*
G01*
G37*
G36*
G01*
X111120000Y-141119000D02*
X111120000Y-142519000D01*
G75*
G02*
X111045000Y-142594000I-75000J0D01*
G01*
X110895000Y-142594000D01*
G75*
G02*
X110820000Y-142519000I0J75000D01*
G01*
X110820000Y-141119000D01*
G75*
G02*
X110895000Y-141044000I75000J0D01*
G01*
X111045000Y-141044000D01*
G75*
G02*
X111120000Y-141119000I0J-75000D01*
G01*
G37*
G36*
G01*
X111620000Y-141119000D02*
X111620000Y-142519000D01*
G75*
G02*
X111545000Y-142594000I-75000J0D01*
G01*
X111395000Y-142594000D01*
G75*
G02*
X111320000Y-142519000I0J75000D01*
G01*
X111320000Y-141119000D01*
G75*
G02*
X111395000Y-141044000I75000J0D01*
G01*
X111545000Y-141044000D01*
G75*
G02*
X111620000Y-141119000I0J-75000D01*
G01*
G37*
G36*
G01*
X112120000Y-141119000D02*
X112120000Y-142519000D01*
G75*
G02*
X112045000Y-142594000I-75000J0D01*
G01*
X111895000Y-142594000D01*
G75*
G02*
X111820000Y-142519000I0J75000D01*
G01*
X111820000Y-141119000D01*
G75*
G02*
X111895000Y-141044000I75000J0D01*
G01*
X112045000Y-141044000D01*
G75*
G02*
X112120000Y-141119000I0J-75000D01*
G01*
G37*
G36*
G01*
X112620000Y-141119000D02*
X112620000Y-142519000D01*
G75*
G02*
X112545000Y-142594000I-75000J0D01*
G01*
X112395000Y-142594000D01*
G75*
G02*
X112320000Y-142519000I0J75000D01*
G01*
X112320000Y-141119000D01*
G75*
G02*
X112395000Y-141044000I75000J0D01*
G01*
X112545000Y-141044000D01*
G75*
G02*
X112620000Y-141119000I0J-75000D01*
G01*
G37*
G36*
G01*
X113120000Y-141119000D02*
X113120000Y-142519000D01*
G75*
G02*
X113045000Y-142594000I-75000J0D01*
G01*
X112895000Y-142594000D01*
G75*
G02*
X112820000Y-142519000I0J75000D01*
G01*
X112820000Y-141119000D01*
G75*
G02*
X112895000Y-141044000I75000J0D01*
G01*
X113045000Y-141044000D01*
G75*
G02*
X113120000Y-141119000I0J-75000D01*
G01*
G37*
D10*
X99314000Y-102464000D03*
D11*
X99314000Y-96164000D03*
X97014000Y-96164000D03*
X101614000Y-96164000D03*
D12*
X109916000Y-91948000D03*
X108966000Y-91948000D03*
X108016000Y-91948000D03*
X108016000Y-94148000D03*
X109916000Y-94148000D03*
G36*
G01*
X122913000Y-120502000D02*
X123213000Y-120502000D01*
G75*
G02*
X123363000Y-120652000I0J-150000D01*
G01*
X123363000Y-122002000D01*
G75*
G02*
X123213000Y-122152000I-150000J0D01*
G01*
X122913000Y-122152000D01*
G75*
G02*
X122763000Y-122002000I0J150000D01*
G01*
X122763000Y-120652000D01*
G75*
G02*
X122913000Y-120502000I150000J0D01*
G01*
G37*
G36*
G01*
X121643000Y-120502000D02*
X121943000Y-120502000D01*
G75*
G02*
X122093000Y-120652000I0J-150000D01*
G01*
X122093000Y-122002000D01*
G75*
G02*
X121943000Y-122152000I-150000J0D01*
G01*
X121643000Y-122152000D01*
G75*
G02*
X121493000Y-122002000I0J150000D01*
G01*
X121493000Y-120652000D01*
G75*
G02*
X121643000Y-120502000I150000J0D01*
G01*
G37*
G36*
G01*
X120373000Y-120502000D02*
X120673000Y-120502000D01*
G75*
G02*
X120823000Y-120652000I0J-150000D01*
G01*
X120823000Y-122002000D01*
G75*
G02*
X120673000Y-122152000I-150000J0D01*
G01*
X120373000Y-122152000D01*
G75*
G02*
X120223000Y-122002000I0J150000D01*
G01*
X120223000Y-120652000D01*
G75*
G02*
X120373000Y-120502000I150000J0D01*
G01*
G37*
G36*
G01*
X119103000Y-120502000D02*
X119403000Y-120502000D01*
G75*
G02*
X119553000Y-120652000I0J-150000D01*
G01*
X119553000Y-122002000D01*
G75*
G02*
X119403000Y-122152000I-150000J0D01*
G01*
X119103000Y-122152000D01*
G75*
G02*
X118953000Y-122002000I0J150000D01*
G01*
X118953000Y-120652000D01*
G75*
G02*
X119103000Y-120502000I150000J0D01*
G01*
G37*
G36*
G01*
X119103000Y-125752000D02*
X119403000Y-125752000D01*
G75*
G02*
X119553000Y-125902000I0J-150000D01*
G01*
X119553000Y-127252000D01*
G75*
G02*
X119403000Y-127402000I-150000J0D01*
G01*
X119103000Y-127402000D01*
G75*
G02*
X118953000Y-127252000I0J150000D01*
G01*
X118953000Y-125902000D01*
G75*
G02*
X119103000Y-125752000I150000J0D01*
G01*
G37*
G36*
G01*
X120373000Y-125752000D02*
X120673000Y-125752000D01*
G75*
G02*
X120823000Y-125902000I0J-150000D01*
G01*
X120823000Y-127252000D01*
G75*
G02*
X120673000Y-127402000I-150000J0D01*
G01*
X120373000Y-127402000D01*
G75*
G02*
X120223000Y-127252000I0J150000D01*
G01*
X120223000Y-125902000D01*
G75*
G02*
X120373000Y-125752000I150000J0D01*
G01*
G37*
G36*
G01*
X121643000Y-125752000D02*
X121943000Y-125752000D01*
G75*
G02*
X122093000Y-125902000I0J-150000D01*
G01*
X122093000Y-127252000D01*
G75*
G02*
X121943000Y-127402000I-150000J0D01*
G01*
X121643000Y-127402000D01*
G75*
G02*
X121493000Y-127252000I0J150000D01*
G01*
X121493000Y-125902000D01*
G75*
G02*
X121643000Y-125752000I150000J0D01*
G01*
G37*
G36*
G01*
X122913000Y-125752000D02*
X123213000Y-125752000D01*
G75*
G02*
X123363000Y-125902000I0J-150000D01*
G01*
X123363000Y-127252000D01*
G75*
G02*
X123213000Y-127402000I-150000J0D01*
G01*
X122913000Y-127402000D01*
G75*
G02*
X122763000Y-127252000I0J150000D01*
G01*
X122763000Y-125902000D01*
G75*
G02*
X122913000Y-125752000I150000J0D01*
G01*
G37*
D13*
X105220000Y-109284000D03*
X105220000Y-110084000D03*
X105220000Y-110884000D03*
X105220000Y-111684000D03*
X105220000Y-112484000D03*
X105220000Y-113284000D03*
X105220000Y-114084000D03*
X105220000Y-114884000D03*
X105220000Y-115684000D03*
X105220000Y-116484000D03*
X105220000Y-117284000D03*
X106020000Y-109284000D03*
X106020000Y-110084000D03*
X106020000Y-110884000D03*
X106020000Y-111684000D03*
X106020000Y-112484000D03*
X106020000Y-113284000D03*
X106020000Y-114084000D03*
X106020000Y-114884000D03*
X106020000Y-115684000D03*
X106020000Y-116484000D03*
X106020000Y-117284000D03*
X106820000Y-109284000D03*
X106820000Y-110084000D03*
X106820000Y-110884000D03*
X106820000Y-111684000D03*
X106820000Y-112484000D03*
X106820000Y-113284000D03*
X106820000Y-114084000D03*
X106820000Y-114884000D03*
X106820000Y-115684000D03*
X106820000Y-116484000D03*
X106820000Y-117284000D03*
X107620000Y-109284000D03*
X107620000Y-110084000D03*
X107620000Y-110884000D03*
X107620000Y-111684000D03*
X107620000Y-112484000D03*
X107620000Y-113284000D03*
X107620000Y-114084000D03*
X107620000Y-114884000D03*
X107620000Y-115684000D03*
X107620000Y-116484000D03*
X107620000Y-117284000D03*
X108420000Y-109284000D03*
X108420000Y-110084000D03*
X108420000Y-110884000D03*
X108420000Y-111684000D03*
X108420000Y-112484000D03*
X108420000Y-113284000D03*
X108420000Y-114084000D03*
X108420000Y-114884000D03*
X108420000Y-115684000D03*
X108420000Y-116484000D03*
X108420000Y-117284000D03*
X109220000Y-109284000D03*
X109220000Y-110084000D03*
X109220000Y-110884000D03*
X109220000Y-111684000D03*
X109220000Y-112484000D03*
X109220000Y-113284000D03*
X109220000Y-114084000D03*
X109220000Y-114884000D03*
X109220000Y-115684000D03*
X109220000Y-116484000D03*
X109220000Y-117284000D03*
X110020000Y-109284000D03*
X110020000Y-110084000D03*
X110020000Y-110884000D03*
X110020000Y-111684000D03*
X110020000Y-112484000D03*
X110020000Y-113284000D03*
X110020000Y-114084000D03*
X110020000Y-114884000D03*
X110020000Y-115684000D03*
X110020000Y-116484000D03*
X110020000Y-117284000D03*
X110820000Y-109284000D03*
X110820000Y-110084000D03*
X110820000Y-110884000D03*
X110820000Y-111684000D03*
X110820000Y-112484000D03*
X110820000Y-113284000D03*
X110820000Y-114084000D03*
X110820000Y-114884000D03*
X110820000Y-115684000D03*
X110820000Y-116484000D03*
X110820000Y-117284000D03*
X111620000Y-109284000D03*
X111620000Y-110084000D03*
X111620000Y-110884000D03*
X111620000Y-111684000D03*
X111620000Y-112484000D03*
X111620000Y-113284000D03*
X111620000Y-114084000D03*
X111620000Y-114884000D03*
X111620000Y-115684000D03*
X111620000Y-116484000D03*
X111620000Y-117284000D03*
X112420000Y-109284000D03*
X112420000Y-110084000D03*
X112420000Y-110884000D03*
X112420000Y-111684000D03*
X112420000Y-112484000D03*
X112420000Y-113284000D03*
X112420000Y-114084000D03*
X112420000Y-114884000D03*
X112420000Y-115684000D03*
X112420000Y-116484000D03*
X112420000Y-117284000D03*
X113220000Y-109284000D03*
X113220000Y-110084000D03*
X113220000Y-110884000D03*
X113220000Y-111684000D03*
X113220000Y-112484000D03*
X113220000Y-113284000D03*
X113220000Y-114084000D03*
X113220000Y-114884000D03*
X113220000Y-115684000D03*
X113220000Y-116484000D03*
X113220000Y-117284000D03*
D14*
X108330000Y-125036000D03*
X108330000Y-122936000D03*
X106680000Y-122936000D03*
X106680000Y-125036000D03*
D15*
X112742000Y-145225000D03*
X114842000Y-145225000D03*
X114842000Y-146875000D03*
X112742000Y-146875000D03*
G36*
G01*
X99819750Y-138526000D02*
X100332250Y-138526000D01*
G75*
G02*
X100551000Y-138744750I0J-218750D01*
G01*
X100551000Y-139182250D01*
G75*
G02*
X100332250Y-139401000I-218750J0D01*
G01*
X99819750Y-139401000D01*
G75*
G02*
X99601000Y-139182250I0J218750D01*
G01*
X99601000Y-138744750D01*
G75*
G02*
X99819750Y-138526000I218750J0D01*
G01*
G37*
G36*
G01*
X99819750Y-136951000D02*
X100332250Y-136951000D01*
G75*
G02*
X100551000Y-137169750I0J-218750D01*
G01*
X100551000Y-137607250D01*
G75*
G02*
X100332250Y-137826000I-218750J0D01*
G01*
X99819750Y-137826000D01*
G75*
G02*
X99601000Y-137607250I0J218750D01*
G01*
X99601000Y-137169750D01*
G75*
G02*
X99819750Y-136951000I218750J0D01*
G01*
G37*
G36*
G01*
X107030000Y-128018250D02*
X107030000Y-127505750D01*
G75*
G02*
X107248750Y-127287000I218750J0D01*
G01*
X107686250Y-127287000D01*
G75*
G02*
X107905000Y-127505750I0J-218750D01*
G01*
X107905000Y-128018250D01*
G75*
G02*
X107686250Y-128237000I-218750J0D01*
G01*
X107248750Y-128237000D01*
G75*
G02*
X107030000Y-128018250I0J218750D01*
G01*
G37*
G36*
G01*
X105455000Y-128018250D02*
X105455000Y-127505750D01*
G75*
G02*
X105673750Y-127287000I218750J0D01*
G01*
X106111250Y-127287000D01*
G75*
G02*
X106330000Y-127505750I0J-218750D01*
G01*
X106330000Y-128018250D01*
G75*
G02*
X106111250Y-128237000I-218750J0D01*
G01*
X105673750Y-128237000D01*
G75*
G02*
X105455000Y-128018250I0J218750D01*
G01*
G37*
G36*
G01*
X105201000Y-144274250D02*
X105201000Y-143761750D01*
G75*
G02*
X105419750Y-143543000I218750J0D01*
G01*
X105857250Y-143543000D01*
G75*
G02*
X106076000Y-143761750I0J-218750D01*
G01*
X106076000Y-144274250D01*
G75*
G02*
X105857250Y-144493000I-218750J0D01*
G01*
X105419750Y-144493000D01*
G75*
G02*
X105201000Y-144274250I0J218750D01*
G01*
G37*
G36*
G01*
X106776000Y-144274250D02*
X106776000Y-143761750D01*
G75*
G02*
X106994750Y-143543000I218750J0D01*
G01*
X107432250Y-143543000D01*
G75*
G02*
X107651000Y-143761750I0J-218750D01*
G01*
X107651000Y-144274250D01*
G75*
G02*
X107432250Y-144493000I-218750J0D01*
G01*
X106994750Y-144493000D01*
G75*
G02*
X106776000Y-144274250I0J218750D01*
G01*
G37*
G36*
G01*
X97948000Y-142999750D02*
X97948000Y-143512250D01*
G75*
G02*
X97729250Y-143731000I-218750J0D01*
G01*
X97291750Y-143731000D01*
G75*
G02*
X97073000Y-143512250I0J218750D01*
G01*
X97073000Y-142999750D01*
G75*
G02*
X97291750Y-142781000I218750J0D01*
G01*
X97729250Y-142781000D01*
G75*
G02*
X97948000Y-142999750I0J-218750D01*
G01*
G37*
G36*
G01*
X99523000Y-142999750D02*
X99523000Y-143512250D01*
G75*
G02*
X99304250Y-143731000I-218750J0D01*
G01*
X98866750Y-143731000D01*
G75*
G02*
X98648000Y-143512250I0J218750D01*
G01*
X98648000Y-142999750D01*
G75*
G02*
X98866750Y-142781000I218750J0D01*
G01*
X99304250Y-142781000D01*
G75*
G02*
X99523000Y-142999750I0J-218750D01*
G01*
G37*
G36*
G01*
X118366250Y-150323000D02*
X117853750Y-150323000D01*
G75*
G02*
X117635000Y-150104250I0J218750D01*
G01*
X117635000Y-149666750D01*
G75*
G02*
X117853750Y-149448000I218750J0D01*
G01*
X118366250Y-149448000D01*
G75*
G02*
X118585000Y-149666750I0J-218750D01*
G01*
X118585000Y-150104250D01*
G75*
G02*
X118366250Y-150323000I-218750J0D01*
G01*
G37*
G36*
G01*
X118366250Y-148748000D02*
X117853750Y-148748000D01*
G75*
G02*
X117635000Y-148529250I0J218750D01*
G01*
X117635000Y-148091750D01*
G75*
G02*
X117853750Y-147873000I218750J0D01*
G01*
X118366250Y-147873000D01*
G75*
G02*
X118585000Y-148091750I0J-218750D01*
G01*
X118585000Y-148529250D01*
G75*
G02*
X118366250Y-148748000I-218750J0D01*
G01*
G37*
G36*
G01*
X124970250Y-133254000D02*
X124457750Y-133254000D01*
G75*
G02*
X124239000Y-133035250I0J218750D01*
G01*
X124239000Y-132597750D01*
G75*
G02*
X124457750Y-132379000I218750J0D01*
G01*
X124970250Y-132379000D01*
G75*
G02*
X125189000Y-132597750I0J-218750D01*
G01*
X125189000Y-133035250D01*
G75*
G02*
X124970250Y-133254000I-218750J0D01*
G01*
G37*
G36*
G01*
X124970250Y-134829000D02*
X124457750Y-134829000D01*
G75*
G02*
X124239000Y-134610250I0J218750D01*
G01*
X124239000Y-134172750D01*
G75*
G02*
X124457750Y-133954000I218750J0D01*
G01*
X124970250Y-133954000D01*
G75*
G02*
X125189000Y-134172750I0J-218750D01*
G01*
X125189000Y-134610250D01*
G75*
G02*
X124970250Y-134829000I-218750J0D01*
G01*
G37*
G36*
G01*
X100332250Y-131781000D02*
X99819750Y-131781000D01*
G75*
G02*
X99601000Y-131562250I0J218750D01*
G01*
X99601000Y-131124750D01*
G75*
G02*
X99819750Y-130906000I218750J0D01*
G01*
X100332250Y-130906000D01*
G75*
G02*
X100551000Y-131124750I0J-218750D01*
G01*
X100551000Y-131562250D01*
G75*
G02*
X100332250Y-131781000I-218750J0D01*
G01*
G37*
G36*
G01*
X100332250Y-130206000D02*
X99819750Y-130206000D01*
G75*
G02*
X99601000Y-129987250I0J218750D01*
G01*
X99601000Y-129549750D01*
G75*
G02*
X99819750Y-129331000I218750J0D01*
G01*
X100332250Y-129331000D01*
G75*
G02*
X100551000Y-129549750I0J-218750D01*
G01*
X100551000Y-129987250D01*
G75*
G02*
X100332250Y-130206000I-218750J0D01*
G01*
G37*
G36*
G01*
X117853750Y-145384000D02*
X118366250Y-145384000D01*
G75*
G02*
X118585000Y-145602750I0J-218750D01*
G01*
X118585000Y-146040250D01*
G75*
G02*
X118366250Y-146259000I-218750J0D01*
G01*
X117853750Y-146259000D01*
G75*
G02*
X117635000Y-146040250I0J218750D01*
G01*
X117635000Y-145602750D01*
G75*
G02*
X117853750Y-145384000I218750J0D01*
G01*
G37*
G36*
G01*
X117853750Y-143809000D02*
X118366250Y-143809000D01*
G75*
G02*
X118585000Y-144027750I0J-218750D01*
G01*
X118585000Y-144465250D01*
G75*
G02*
X118366250Y-144684000I-218750J0D01*
G01*
X117853750Y-144684000D01*
G75*
G02*
X117635000Y-144465250I0J218750D01*
G01*
X117635000Y-144027750D01*
G75*
G02*
X117853750Y-143809000I218750J0D01*
G01*
G37*
G36*
G01*
X118366250Y-142449000D02*
X117853750Y-142449000D01*
G75*
G02*
X117635000Y-142230250I0J218750D01*
G01*
X117635000Y-141792750D01*
G75*
G02*
X117853750Y-141574000I218750J0D01*
G01*
X118366250Y-141574000D01*
G75*
G02*
X118585000Y-141792750I0J-218750D01*
G01*
X118585000Y-142230250D01*
G75*
G02*
X118366250Y-142449000I-218750J0D01*
G01*
G37*
G36*
G01*
X118366250Y-140874000D02*
X117853750Y-140874000D01*
G75*
G02*
X117635000Y-140655250I0J218750D01*
G01*
X117635000Y-140217750D01*
G75*
G02*
X117853750Y-139999000I218750J0D01*
G01*
X118366250Y-139999000D01*
G75*
G02*
X118585000Y-140217750I0J-218750D01*
G01*
X118585000Y-140655250D01*
G75*
G02*
X118366250Y-140874000I-218750J0D01*
G01*
G37*
G36*
G01*
X125219750Y-124302000D02*
X125732250Y-124302000D01*
G75*
G02*
X125951000Y-124520750I0J-218750D01*
G01*
X125951000Y-124958250D01*
G75*
G02*
X125732250Y-125177000I-218750J0D01*
G01*
X125219750Y-125177000D01*
G75*
G02*
X125001000Y-124958250I0J218750D01*
G01*
X125001000Y-124520750D01*
G75*
G02*
X125219750Y-124302000I218750J0D01*
G01*
G37*
G36*
G01*
X125219750Y-122727000D02*
X125732250Y-122727000D01*
G75*
G02*
X125951000Y-122945750I0J-218750D01*
G01*
X125951000Y-123383250D01*
G75*
G02*
X125732250Y-123602000I-218750J0D01*
G01*
X125219750Y-123602000D01*
G75*
G02*
X125001000Y-123383250I0J218750D01*
G01*
X125001000Y-122945750D01*
G75*
G02*
X125219750Y-122727000I218750J0D01*
G01*
G37*
G36*
G01*
X118776000Y-113027750D02*
X118776000Y-113540250D01*
G75*
G02*
X118557250Y-113759000I-218750J0D01*
G01*
X118119750Y-113759000D01*
G75*
G02*
X117901000Y-113540250I0J218750D01*
G01*
X117901000Y-113027750D01*
G75*
G02*
X118119750Y-112809000I218750J0D01*
G01*
X118557250Y-112809000D01*
G75*
G02*
X118776000Y-113027750I0J-218750D01*
G01*
G37*
G36*
G01*
X120351000Y-113027750D02*
X120351000Y-113540250D01*
G75*
G02*
X120132250Y-113759000I-218750J0D01*
G01*
X119694750Y-113759000D01*
G75*
G02*
X119476000Y-113540250I0J218750D01*
G01*
X119476000Y-113027750D01*
G75*
G02*
X119694750Y-112809000I218750J0D01*
G01*
X120132250Y-112809000D01*
G75*
G02*
X120351000Y-113027750I0J-218750D01*
G01*
G37*
G36*
G01*
X118366250Y-133254000D02*
X117853750Y-133254000D01*
G75*
G02*
X117635000Y-133035250I0J218750D01*
G01*
X117635000Y-132597750D01*
G75*
G02*
X117853750Y-132379000I218750J0D01*
G01*
X118366250Y-132379000D01*
G75*
G02*
X118585000Y-132597750I0J-218750D01*
G01*
X118585000Y-133035250D01*
G75*
G02*
X118366250Y-133254000I-218750J0D01*
G01*
G37*
G36*
G01*
X118366250Y-134829000D02*
X117853750Y-134829000D01*
G75*
G02*
X117635000Y-134610250I0J218750D01*
G01*
X117635000Y-134172750D01*
G75*
G02*
X117853750Y-133954000I218750J0D01*
G01*
X118366250Y-133954000D01*
G75*
G02*
X118585000Y-134172750I0J-218750D01*
G01*
X118585000Y-134610250D01*
G75*
G02*
X118366250Y-134829000I-218750J0D01*
G01*
G37*
G36*
G01*
X117853750Y-136189000D02*
X118366250Y-136189000D01*
G75*
G02*
X118585000Y-136407750I0J-218750D01*
G01*
X118585000Y-136845250D01*
G75*
G02*
X118366250Y-137064000I-218750J0D01*
G01*
X117853750Y-137064000D01*
G75*
G02*
X117635000Y-136845250I0J218750D01*
G01*
X117635000Y-136407750D01*
G75*
G02*
X117853750Y-136189000I218750J0D01*
G01*
G37*
G36*
G01*
X117853750Y-137764000D02*
X118366250Y-137764000D01*
G75*
G02*
X118585000Y-137982750I0J-218750D01*
G01*
X118585000Y-138420250D01*
G75*
G02*
X118366250Y-138639000I-218750J0D01*
G01*
X117853750Y-138639000D01*
G75*
G02*
X117635000Y-138420250I0J218750D01*
G01*
X117635000Y-137982750D01*
G75*
G02*
X117853750Y-137764000I218750J0D01*
G01*
G37*
G36*
G01*
X97284250Y-92385500D02*
X96771750Y-92385500D01*
G75*
G02*
X96553000Y-92166750I0J218750D01*
G01*
X96553000Y-91729250D01*
G75*
G02*
X96771750Y-91510500I218750J0D01*
G01*
X97284250Y-91510500D01*
G75*
G02*
X97503000Y-91729250I0J-218750D01*
G01*
X97503000Y-92166750D01*
G75*
G02*
X97284250Y-92385500I-218750J0D01*
G01*
G37*
G36*
G01*
X97284250Y-93960500D02*
X96771750Y-93960500D01*
G75*
G02*
X96553000Y-93741750I0J218750D01*
G01*
X96553000Y-93304250D01*
G75*
G02*
X96771750Y-93085500I218750J0D01*
G01*
X97284250Y-93085500D01*
G75*
G02*
X97503000Y-93304250I0J-218750D01*
G01*
X97503000Y-93741750D01*
G75*
G02*
X97284250Y-93960500I-218750J0D01*
G01*
G37*
G36*
G01*
X104899750Y-91510500D02*
X105412250Y-91510500D01*
G75*
G02*
X105631000Y-91729250I0J-218750D01*
G01*
X105631000Y-92166750D01*
G75*
G02*
X105412250Y-92385500I-218750J0D01*
G01*
X104899750Y-92385500D01*
G75*
G02*
X104681000Y-92166750I0J218750D01*
G01*
X104681000Y-91729250D01*
G75*
G02*
X104899750Y-91510500I218750J0D01*
G01*
G37*
G36*
G01*
X104899750Y-93085500D02*
X105412250Y-93085500D01*
G75*
G02*
X105631000Y-93304250I0J-218750D01*
G01*
X105631000Y-93741750D01*
G75*
G02*
X105412250Y-93960500I-218750J0D01*
G01*
X104899750Y-93960500D01*
G75*
G02*
X104681000Y-93741750I0J218750D01*
G01*
X104681000Y-93304250D01*
G75*
G02*
X104899750Y-93085500I218750J0D01*
G01*
G37*
G36*
G01*
X101343750Y-91510500D02*
X101856250Y-91510500D01*
G75*
G02*
X102075000Y-91729250I0J-218750D01*
G01*
X102075000Y-92166750D01*
G75*
G02*
X101856250Y-92385500I-218750J0D01*
G01*
X101343750Y-92385500D01*
G75*
G02*
X101125000Y-92166750I0J218750D01*
G01*
X101125000Y-91729250D01*
G75*
G02*
X101343750Y-91510500I218750J0D01*
G01*
G37*
G36*
G01*
X101343750Y-93085500D02*
X101856250Y-93085500D01*
G75*
G02*
X102075000Y-93304250I0J-218750D01*
G01*
X102075000Y-93741750D01*
G75*
G02*
X101856250Y-93960500I-218750J0D01*
G01*
X101343750Y-93960500D01*
G75*
G02*
X101125000Y-93741750I0J218750D01*
G01*
X101125000Y-93304250D01*
G75*
G02*
X101343750Y-93085500I218750J0D01*
G01*
G37*
G36*
G01*
X113032250Y-93960500D02*
X112519750Y-93960500D01*
G75*
G02*
X112301000Y-93741750I0J218750D01*
G01*
X112301000Y-93304250D01*
G75*
G02*
X112519750Y-93085500I218750J0D01*
G01*
X113032250Y-93085500D01*
G75*
G02*
X113251000Y-93304250I0J-218750D01*
G01*
X113251000Y-93741750D01*
G75*
G02*
X113032250Y-93960500I-218750J0D01*
G01*
G37*
G36*
G01*
X113032250Y-92385500D02*
X112519750Y-92385500D01*
G75*
G02*
X112301000Y-92166750I0J218750D01*
G01*
X112301000Y-91729250D01*
G75*
G02*
X112519750Y-91510500I218750J0D01*
G01*
X113032250Y-91510500D01*
G75*
G02*
X113251000Y-91729250I0J-218750D01*
G01*
X113251000Y-92166750D01*
G75*
G02*
X113032250Y-92385500I-218750J0D01*
G01*
G37*
G36*
G01*
X99664000Y-125478250D02*
X99664000Y-124965750D01*
G75*
G02*
X99882750Y-124747000I218750J0D01*
G01*
X100320250Y-124747000D01*
G75*
G02*
X100539000Y-124965750I0J-218750D01*
G01*
X100539000Y-125478250D01*
G75*
G02*
X100320250Y-125697000I-218750J0D01*
G01*
X99882750Y-125697000D01*
G75*
G02*
X99664000Y-125478250I0J218750D01*
G01*
G37*
G36*
G01*
X98089000Y-125478250D02*
X98089000Y-124965750D01*
G75*
G02*
X98307750Y-124747000I218750J0D01*
G01*
X98745250Y-124747000D01*
G75*
G02*
X98964000Y-124965750I0J-218750D01*
G01*
X98964000Y-125478250D01*
G75*
G02*
X98745250Y-125697000I-218750J0D01*
G01*
X98307750Y-125697000D01*
G75*
G02*
X98089000Y-125478250I0J218750D01*
G01*
G37*
G36*
G01*
X113747000Y-96009750D02*
X113747000Y-96522250D01*
G75*
G02*
X113528250Y-96741000I-218750J0D01*
G01*
X113090750Y-96741000D01*
G75*
G02*
X112872000Y-96522250I0J218750D01*
G01*
X112872000Y-96009750D01*
G75*
G02*
X113090750Y-95791000I218750J0D01*
G01*
X113528250Y-95791000D01*
G75*
G02*
X113747000Y-96009750I0J-218750D01*
G01*
G37*
G36*
G01*
X112172000Y-96009750D02*
X112172000Y-96522250D01*
G75*
G02*
X111953250Y-96741000I-218750J0D01*
G01*
X111515750Y-96741000D01*
G75*
G02*
X111297000Y-96522250I0J218750D01*
G01*
X111297000Y-96009750D01*
G75*
G02*
X111515750Y-95791000I218750J0D01*
G01*
X111953250Y-95791000D01*
G75*
G02*
X112172000Y-96009750I0J-218750D01*
G01*
G37*
G36*
G01*
X99664000Y-122938250D02*
X99664000Y-122425750D01*
G75*
G02*
X99882750Y-122207000I218750J0D01*
G01*
X100320250Y-122207000D01*
G75*
G02*
X100539000Y-122425750I0J-218750D01*
G01*
X100539000Y-122938250D01*
G75*
G02*
X100320250Y-123157000I-218750J0D01*
G01*
X99882750Y-123157000D01*
G75*
G02*
X99664000Y-122938250I0J218750D01*
G01*
G37*
G36*
G01*
X98089000Y-122938250D02*
X98089000Y-122425750D01*
G75*
G02*
X98307750Y-122207000I218750J0D01*
G01*
X98745250Y-122207000D01*
G75*
G02*
X98964000Y-122425750I0J-218750D01*
G01*
X98964000Y-122938250D01*
G75*
G02*
X98745250Y-123157000I-218750J0D01*
G01*
X98307750Y-123157000D01*
G75*
G02*
X98089000Y-122938250I0J218750D01*
G01*
G37*
G36*
G01*
X113747000Y-98295750D02*
X113747000Y-98808250D01*
G75*
G02*
X113528250Y-99027000I-218750J0D01*
G01*
X113090750Y-99027000D01*
G75*
G02*
X112872000Y-98808250I0J218750D01*
G01*
X112872000Y-98295750D01*
G75*
G02*
X113090750Y-98077000I218750J0D01*
G01*
X113528250Y-98077000D01*
G75*
G02*
X113747000Y-98295750I0J-218750D01*
G01*
G37*
G36*
G01*
X112172000Y-98295750D02*
X112172000Y-98808250D01*
G75*
G02*
X111953250Y-99027000I-218750J0D01*
G01*
X111515750Y-99027000D01*
G75*
G02*
X111297000Y-98808250I0J218750D01*
G01*
X111297000Y-98295750D01*
G75*
G02*
X111515750Y-98077000I218750J0D01*
G01*
X111953250Y-98077000D01*
G75*
G02*
X112172000Y-98295750I0J-218750D01*
G01*
G37*
G36*
G01*
X103888250Y-107117500D02*
X103375750Y-107117500D01*
G75*
G02*
X103157000Y-106898750I0J218750D01*
G01*
X103157000Y-106461250D01*
G75*
G02*
X103375750Y-106242500I218750J0D01*
G01*
X103888250Y-106242500D01*
G75*
G02*
X104107000Y-106461250I0J-218750D01*
G01*
X104107000Y-106898750D01*
G75*
G02*
X103888250Y-107117500I-218750J0D01*
G01*
G37*
G36*
G01*
X103888250Y-105542500D02*
X103375750Y-105542500D01*
G75*
G02*
X103157000Y-105323750I0J218750D01*
G01*
X103157000Y-104886250D01*
G75*
G02*
X103375750Y-104667500I218750J0D01*
G01*
X103888250Y-104667500D01*
G75*
G02*
X104107000Y-104886250I0J-218750D01*
G01*
X104107000Y-105323750D01*
G75*
G02*
X103888250Y-105542500I-218750J0D01*
G01*
G37*
G36*
G01*
X115318250Y-104374500D02*
X114805750Y-104374500D01*
G75*
G02*
X114587000Y-104155750I0J218750D01*
G01*
X114587000Y-103718250D01*
G75*
G02*
X114805750Y-103499500I218750J0D01*
G01*
X115318250Y-103499500D01*
G75*
G02*
X115537000Y-103718250I0J-218750D01*
G01*
X115537000Y-104155750D01*
G75*
G02*
X115318250Y-104374500I-218750J0D01*
G01*
G37*
G36*
G01*
X115318250Y-102799500D02*
X114805750Y-102799500D01*
G75*
G02*
X114587000Y-102580750I0J218750D01*
G01*
X114587000Y-102143250D01*
G75*
G02*
X114805750Y-101924500I218750J0D01*
G01*
X115318250Y-101924500D01*
G75*
G02*
X115537000Y-102143250I0J-218750D01*
G01*
X115537000Y-102580750D01*
G75*
G02*
X115318250Y-102799500I-218750J0D01*
G01*
G37*
G36*
G01*
X99057750Y-106268000D02*
X99570250Y-106268000D01*
G75*
G02*
X99789000Y-106486750I0J-218750D01*
G01*
X99789000Y-106924250D01*
G75*
G02*
X99570250Y-107143000I-218750J0D01*
G01*
X99057750Y-107143000D01*
G75*
G02*
X98839000Y-106924250I0J218750D01*
G01*
X98839000Y-106486750D01*
G75*
G02*
X99057750Y-106268000I218750J0D01*
G01*
G37*
G36*
G01*
X99057750Y-104693000D02*
X99570250Y-104693000D01*
G75*
G02*
X99789000Y-104911750I0J-218750D01*
G01*
X99789000Y-105349250D01*
G75*
G02*
X99570250Y-105568000I-218750J0D01*
G01*
X99057750Y-105568000D01*
G75*
G02*
X98839000Y-105349250I0J218750D01*
G01*
X98839000Y-104911750D01*
G75*
G02*
X99057750Y-104693000I218750J0D01*
G01*
G37*
G36*
G01*
X98089000Y-113540250D02*
X98089000Y-113027750D01*
G75*
G02*
X98307750Y-112809000I218750J0D01*
G01*
X98745250Y-112809000D01*
G75*
G02*
X98964000Y-113027750I0J-218750D01*
G01*
X98964000Y-113540250D01*
G75*
G02*
X98745250Y-113759000I-218750J0D01*
G01*
X98307750Y-113759000D01*
G75*
G02*
X98089000Y-113540250I0J218750D01*
G01*
G37*
G36*
G01*
X99664000Y-113540250D02*
X99664000Y-113027750D01*
G75*
G02*
X99882750Y-112809000I218750J0D01*
G01*
X100320250Y-112809000D01*
G75*
G02*
X100539000Y-113027750I0J-218750D01*
G01*
X100539000Y-113540250D01*
G75*
G02*
X100320250Y-113759000I-218750J0D01*
G01*
X99882750Y-113759000D01*
G75*
G02*
X99664000Y-113540250I0J218750D01*
G01*
G37*
G36*
G01*
X107995000Y-146306250D02*
X107995000Y-145793750D01*
G75*
G02*
X108213750Y-145575000I218750J0D01*
G01*
X108651250Y-145575000D01*
G75*
G02*
X108870000Y-145793750I0J-218750D01*
G01*
X108870000Y-146306250D01*
G75*
G02*
X108651250Y-146525000I-218750J0D01*
G01*
X108213750Y-146525000D01*
G75*
G02*
X107995000Y-146306250I0J218750D01*
G01*
G37*
G36*
G01*
X109570000Y-146306250D02*
X109570000Y-145793750D01*
G75*
G02*
X109788750Y-145575000I218750J0D01*
G01*
X110226250Y-145575000D01*
G75*
G02*
X110445000Y-145793750I0J-218750D01*
G01*
X110445000Y-146306250D01*
G75*
G02*
X110226250Y-146525000I-218750J0D01*
G01*
X109788750Y-146525000D01*
G75*
G02*
X109570000Y-146306250I0J218750D01*
G01*
G37*
G36*
G01*
X108714250Y-149510000D02*
X108201750Y-149510000D01*
G75*
G02*
X107983000Y-149291250I0J218750D01*
G01*
X107983000Y-148853750D01*
G75*
G02*
X108201750Y-148635000I218750J0D01*
G01*
X108714250Y-148635000D01*
G75*
G02*
X108933000Y-148853750I0J-218750D01*
G01*
X108933000Y-149291250D01*
G75*
G02*
X108714250Y-149510000I-218750J0D01*
G01*
G37*
G36*
G01*
X108714250Y-151085000D02*
X108201750Y-151085000D01*
G75*
G02*
X107983000Y-150866250I0J218750D01*
G01*
X107983000Y-150428750D01*
G75*
G02*
X108201750Y-150210000I218750J0D01*
G01*
X108714250Y-150210000D01*
G75*
G02*
X108933000Y-150428750I0J-218750D01*
G01*
X108933000Y-150866250D01*
G75*
G02*
X108714250Y-151085000I-218750J0D01*
G01*
G37*
G36*
G01*
X116123000Y-130304250D02*
X116123000Y-129791750D01*
G75*
G02*
X116341750Y-129573000I218750J0D01*
G01*
X116779250Y-129573000D01*
G75*
G02*
X116998000Y-129791750I0J-218750D01*
G01*
X116998000Y-130304250D01*
G75*
G02*
X116779250Y-130523000I-218750J0D01*
G01*
X116341750Y-130523000D01*
G75*
G02*
X116123000Y-130304250I0J218750D01*
G01*
G37*
G36*
G01*
X117698000Y-130304250D02*
X117698000Y-129791750D01*
G75*
G02*
X117916750Y-129573000I218750J0D01*
G01*
X118354250Y-129573000D01*
G75*
G02*
X118573000Y-129791750I0J-218750D01*
G01*
X118573000Y-130304250D01*
G75*
G02*
X118354250Y-130523000I-218750J0D01*
G01*
X117916750Y-130523000D01*
G75*
G02*
X117698000Y-130304250I0J218750D01*
G01*
G37*
G36*
G01*
X103333000Y-142999750D02*
X103333000Y-143512250D01*
G75*
G02*
X103114250Y-143731000I-218750J0D01*
G01*
X102676750Y-143731000D01*
G75*
G02*
X102458000Y-143512250I0J218750D01*
G01*
X102458000Y-142999750D01*
G75*
G02*
X102676750Y-142781000I218750J0D01*
G01*
X103114250Y-142781000D01*
G75*
G02*
X103333000Y-142999750I0J-218750D01*
G01*
G37*
G36*
G01*
X101758000Y-142999750D02*
X101758000Y-143512250D01*
G75*
G02*
X101539250Y-143731000I-218750J0D01*
G01*
X101101750Y-143731000D01*
G75*
G02*
X100883000Y-143512250I0J218750D01*
G01*
X100883000Y-142999750D01*
G75*
G02*
X101101750Y-142781000I218750J0D01*
G01*
X101539250Y-142781000D01*
G75*
G02*
X101758000Y-142999750I0J-218750D01*
G01*
G37*
G36*
G01*
X113634000Y-150624250D02*
X113634000Y-150111750D01*
G75*
G02*
X113852750Y-149893000I218750J0D01*
G01*
X114290250Y-149893000D01*
G75*
G02*
X114509000Y-150111750I0J-218750D01*
G01*
X114509000Y-150624250D01*
G75*
G02*
X114290250Y-150843000I-218750J0D01*
G01*
X113852750Y-150843000D01*
G75*
G02*
X113634000Y-150624250I0J218750D01*
G01*
G37*
G36*
G01*
X112059000Y-150624250D02*
X112059000Y-150111750D01*
G75*
G02*
X112277750Y-149893000I218750J0D01*
G01*
X112715250Y-149893000D01*
G75*
G02*
X112934000Y-150111750I0J-218750D01*
G01*
X112934000Y-150624250D01*
G75*
G02*
X112715250Y-150843000I-218750J0D01*
G01*
X112277750Y-150843000D01*
G75*
G02*
X112059000Y-150624250I0J218750D01*
G01*
G37*
G36*
G01*
X115064250Y-126650000D02*
X114551750Y-126650000D01*
G75*
G02*
X114333000Y-126431250I0J218750D01*
G01*
X114333000Y-125993750D01*
G75*
G02*
X114551750Y-125775000I218750J0D01*
G01*
X115064250Y-125775000D01*
G75*
G02*
X115283000Y-125993750I0J-218750D01*
G01*
X115283000Y-126431250D01*
G75*
G02*
X115064250Y-126650000I-218750J0D01*
G01*
G37*
G36*
G01*
X115064250Y-128225000D02*
X114551750Y-128225000D01*
G75*
G02*
X114333000Y-128006250I0J218750D01*
G01*
X114333000Y-127568750D01*
G75*
G02*
X114551750Y-127350000I218750J0D01*
G01*
X115064250Y-127350000D01*
G75*
G02*
X115283000Y-127568750I0J-218750D01*
G01*
X115283000Y-128006250D01*
G75*
G02*
X115064250Y-128225000I-218750J0D01*
G01*
G37*
G36*
G01*
X87627750Y-125089500D02*
X88140250Y-125089500D01*
G75*
G02*
X88359000Y-125308250I0J-218750D01*
G01*
X88359000Y-125745750D01*
G75*
G02*
X88140250Y-125964500I-218750J0D01*
G01*
X87627750Y-125964500D01*
G75*
G02*
X87409000Y-125745750I0J218750D01*
G01*
X87409000Y-125308250D01*
G75*
G02*
X87627750Y-125089500I218750J0D01*
G01*
G37*
G36*
G01*
X87627750Y-123514500D02*
X88140250Y-123514500D01*
G75*
G02*
X88359000Y-123733250I0J-218750D01*
G01*
X88359000Y-124170750D01*
G75*
G02*
X88140250Y-124389500I-218750J0D01*
G01*
X87627750Y-124389500D01*
G75*
G02*
X87409000Y-124170750I0J218750D01*
G01*
X87409000Y-123733250D01*
G75*
G02*
X87627750Y-123514500I218750J0D01*
G01*
G37*
G36*
G01*
X90167750Y-123514500D02*
X90680250Y-123514500D01*
G75*
G02*
X90899000Y-123733250I0J-218750D01*
G01*
X90899000Y-124170750D01*
G75*
G02*
X90680250Y-124389500I-218750J0D01*
G01*
X90167750Y-124389500D01*
G75*
G02*
X89949000Y-124170750I0J218750D01*
G01*
X89949000Y-123733250D01*
G75*
G02*
X90167750Y-123514500I218750J0D01*
G01*
G37*
G36*
G01*
X90167750Y-125089500D02*
X90680250Y-125089500D01*
G75*
G02*
X90899000Y-125308250I0J-218750D01*
G01*
X90899000Y-125745750D01*
G75*
G02*
X90680250Y-125964500I-218750J0D01*
G01*
X90167750Y-125964500D01*
G75*
G02*
X89949000Y-125745750I0J218750D01*
G01*
X89949000Y-125308250D01*
G75*
G02*
X90167750Y-125089500I218750J0D01*
G01*
G37*
G36*
G01*
X123032000Y-130304250D02*
X123032000Y-129791750D01*
G75*
G02*
X123250750Y-129573000I218750J0D01*
G01*
X123688250Y-129573000D01*
G75*
G02*
X123907000Y-129791750I0J-218750D01*
G01*
X123907000Y-130304250D01*
G75*
G02*
X123688250Y-130523000I-218750J0D01*
G01*
X123250750Y-130523000D01*
G75*
G02*
X123032000Y-130304250I0J218750D01*
G01*
G37*
G36*
G01*
X121457000Y-130304250D02*
X121457000Y-129791750D01*
G75*
G02*
X121675750Y-129573000I218750J0D01*
G01*
X122113250Y-129573000D01*
G75*
G02*
X122332000Y-129791750I0J-218750D01*
G01*
X122332000Y-130304250D01*
G75*
G02*
X122113250Y-130523000I-218750J0D01*
G01*
X121675750Y-130523000D01*
G75*
G02*
X121457000Y-130304250I0J218750D01*
G01*
G37*
G36*
G01*
X120187000Y-118620250D02*
X120187000Y-118107750D01*
G75*
G02*
X120405750Y-117889000I218750J0D01*
G01*
X120843250Y-117889000D01*
G75*
G02*
X121062000Y-118107750I0J-218750D01*
G01*
X121062000Y-118620250D01*
G75*
G02*
X120843250Y-118839000I-218750J0D01*
G01*
X120405750Y-118839000D01*
G75*
G02*
X120187000Y-118620250I0J218750D01*
G01*
G37*
G36*
G01*
X121762000Y-118620250D02*
X121762000Y-118107750D01*
G75*
G02*
X121980750Y-117889000I218750J0D01*
G01*
X122418250Y-117889000D01*
G75*
G02*
X122637000Y-118107750I0J-218750D01*
G01*
X122637000Y-118620250D01*
G75*
G02*
X122418250Y-118839000I-218750J0D01*
G01*
X121980750Y-118839000D01*
G75*
G02*
X121762000Y-118620250I0J218750D01*
G01*
G37*
G36*
G01*
X125732250Y-120351000D02*
X125219750Y-120351000D01*
G75*
G02*
X125001000Y-120132250I0J218750D01*
G01*
X125001000Y-119694750D01*
G75*
G02*
X125219750Y-119476000I218750J0D01*
G01*
X125732250Y-119476000D01*
G75*
G02*
X125951000Y-119694750I0J-218750D01*
G01*
X125951000Y-120132250D01*
G75*
G02*
X125732250Y-120351000I-218750J0D01*
G01*
G37*
G36*
G01*
X125732250Y-118776000D02*
X125219750Y-118776000D01*
G75*
G02*
X125001000Y-118557250I0J218750D01*
G01*
X125001000Y-118119750D01*
G75*
G02*
X125219750Y-117901000I218750J0D01*
G01*
X125732250Y-117901000D01*
G75*
G02*
X125951000Y-118119750I0J-218750D01*
G01*
X125951000Y-118557250D01*
G75*
G02*
X125732250Y-118776000I-218750J0D01*
G01*
G37*
G36*
G01*
X98089000Y-120652250D02*
X98089000Y-120139750D01*
G75*
G02*
X98307750Y-119921000I218750J0D01*
G01*
X98745250Y-119921000D01*
G75*
G02*
X98964000Y-120139750I0J-218750D01*
G01*
X98964000Y-120652250D01*
G75*
G02*
X98745250Y-120871000I-218750J0D01*
G01*
X98307750Y-120871000D01*
G75*
G02*
X98089000Y-120652250I0J218750D01*
G01*
G37*
G36*
G01*
X99664000Y-120652250D02*
X99664000Y-120139750D01*
G75*
G02*
X99882750Y-119921000I218750J0D01*
G01*
X100320250Y-119921000D01*
G75*
G02*
X100539000Y-120139750I0J-218750D01*
G01*
X100539000Y-120652250D01*
G75*
G02*
X100320250Y-120871000I-218750J0D01*
G01*
X99882750Y-120871000D01*
G75*
G02*
X99664000Y-120652250I0J218750D01*
G01*
G37*
G36*
G01*
X112872000Y-101094250D02*
X112872000Y-100581750D01*
G75*
G02*
X113090750Y-100363000I218750J0D01*
G01*
X113528250Y-100363000D01*
G75*
G02*
X113747000Y-100581750I0J-218750D01*
G01*
X113747000Y-101094250D01*
G75*
G02*
X113528250Y-101313000I-218750J0D01*
G01*
X113090750Y-101313000D01*
G75*
G02*
X112872000Y-101094250I0J218750D01*
G01*
G37*
G36*
G01*
X111297000Y-101094250D02*
X111297000Y-100581750D01*
G75*
G02*
X111515750Y-100363000I218750J0D01*
G01*
X111953250Y-100363000D01*
G75*
G02*
X112172000Y-100581750I0J-218750D01*
G01*
X112172000Y-101094250D01*
G75*
G02*
X111953250Y-101313000I-218750J0D01*
G01*
X111515750Y-101313000D01*
G75*
G02*
X111297000Y-101094250I0J218750D01*
G01*
G37*
G36*
G01*
X115064250Y-122586000D02*
X114551750Y-122586000D01*
G75*
G02*
X114333000Y-122367250I0J218750D01*
G01*
X114333000Y-121929750D01*
G75*
G02*
X114551750Y-121711000I218750J0D01*
G01*
X115064250Y-121711000D01*
G75*
G02*
X115283000Y-121929750I0J-218750D01*
G01*
X115283000Y-122367250D01*
G75*
G02*
X115064250Y-122586000I-218750J0D01*
G01*
G37*
G36*
G01*
X115064250Y-124161000D02*
X114551750Y-124161000D01*
G75*
G02*
X114333000Y-123942250I0J218750D01*
G01*
X114333000Y-123504750D01*
G75*
G02*
X114551750Y-123286000I218750J0D01*
G01*
X115064250Y-123286000D01*
G75*
G02*
X115283000Y-123504750I0J-218750D01*
G01*
X115283000Y-123942250D01*
G75*
G02*
X115064250Y-124161000I-218750J0D01*
G01*
G37*
G36*
G01*
X111762250Y-124161000D02*
X111249750Y-124161000D01*
G75*
G02*
X111031000Y-123942250I0J218750D01*
G01*
X111031000Y-123504750D01*
G75*
G02*
X111249750Y-123286000I218750J0D01*
G01*
X111762250Y-123286000D01*
G75*
G02*
X111981000Y-123504750I0J-218750D01*
G01*
X111981000Y-123942250D01*
G75*
G02*
X111762250Y-124161000I-218750J0D01*
G01*
G37*
G36*
G01*
X111762250Y-122586000D02*
X111249750Y-122586000D01*
G75*
G02*
X111031000Y-122367250I0J218750D01*
G01*
X111031000Y-121929750D01*
G75*
G02*
X111249750Y-121711000I218750J0D01*
G01*
X111762250Y-121711000D01*
G75*
G02*
X111981000Y-121929750I0J-218750D01*
G01*
X111981000Y-122367250D01*
G75*
G02*
X111762250Y-122586000I-218750J0D01*
G01*
G37*
G36*
G01*
X141226250Y-131222000D02*
X140713750Y-131222000D01*
G75*
G02*
X140495000Y-131003250I0J218750D01*
G01*
X140495000Y-130565750D01*
G75*
G02*
X140713750Y-130347000I218750J0D01*
G01*
X141226250Y-130347000D01*
G75*
G02*
X141445000Y-130565750I0J-218750D01*
G01*
X141445000Y-131003250D01*
G75*
G02*
X141226250Y-131222000I-218750J0D01*
G01*
G37*
G36*
G01*
X141226250Y-132797000D02*
X140713750Y-132797000D01*
G75*
G02*
X140495000Y-132578250I0J218750D01*
G01*
X140495000Y-132140750D01*
G75*
G02*
X140713750Y-131922000I218750J0D01*
G01*
X141226250Y-131922000D01*
G75*
G02*
X141445000Y-132140750I0J-218750D01*
G01*
X141445000Y-132578250D01*
G75*
G02*
X141226250Y-132797000I-218750J0D01*
G01*
G37*
G36*
G01*
X138940250Y-132797000D02*
X138427750Y-132797000D01*
G75*
G02*
X138209000Y-132578250I0J218750D01*
G01*
X138209000Y-132140750D01*
G75*
G02*
X138427750Y-131922000I218750J0D01*
G01*
X138940250Y-131922000D01*
G75*
G02*
X139159000Y-132140750I0J-218750D01*
G01*
X139159000Y-132578250D01*
G75*
G02*
X138940250Y-132797000I-218750J0D01*
G01*
G37*
G36*
G01*
X138940250Y-131222000D02*
X138427750Y-131222000D01*
G75*
G02*
X138209000Y-131003250I0J218750D01*
G01*
X138209000Y-130565750D01*
G75*
G02*
X138427750Y-130347000I218750J0D01*
G01*
X138940250Y-130347000D01*
G75*
G02*
X139159000Y-130565750I0J-218750D01*
G01*
X139159000Y-131003250D01*
G75*
G02*
X138940250Y-131222000I-218750J0D01*
G01*
G37*
G36*
G01*
X136654250Y-131222000D02*
X136141750Y-131222000D01*
G75*
G02*
X135923000Y-131003250I0J218750D01*
G01*
X135923000Y-130565750D01*
G75*
G02*
X136141750Y-130347000I218750J0D01*
G01*
X136654250Y-130347000D01*
G75*
G02*
X136873000Y-130565750I0J-218750D01*
G01*
X136873000Y-131003250D01*
G75*
G02*
X136654250Y-131222000I-218750J0D01*
G01*
G37*
G36*
G01*
X136654250Y-132797000D02*
X136141750Y-132797000D01*
G75*
G02*
X135923000Y-132578250I0J218750D01*
G01*
X135923000Y-132140750D01*
G75*
G02*
X136141750Y-131922000I218750J0D01*
G01*
X136654250Y-131922000D01*
G75*
G02*
X136873000Y-132140750I0J-218750D01*
G01*
X136873000Y-132578250D01*
G75*
G02*
X136654250Y-132797000I-218750J0D01*
G01*
G37*
G36*
G01*
X90680250Y-132517500D02*
X90167750Y-132517500D01*
G75*
G02*
X89949000Y-132298750I0J218750D01*
G01*
X89949000Y-131861250D01*
G75*
G02*
X90167750Y-131642500I218750J0D01*
G01*
X90680250Y-131642500D01*
G75*
G02*
X90899000Y-131861250I0J-218750D01*
G01*
X90899000Y-132298750D01*
G75*
G02*
X90680250Y-132517500I-218750J0D01*
G01*
G37*
G36*
G01*
X90680250Y-134092500D02*
X90167750Y-134092500D01*
G75*
G02*
X89949000Y-133873750I0J218750D01*
G01*
X89949000Y-133436250D01*
G75*
G02*
X90167750Y-133217500I218750J0D01*
G01*
X90680250Y-133217500D01*
G75*
G02*
X90899000Y-133436250I0J-218750D01*
G01*
X90899000Y-133873750D01*
G75*
G02*
X90680250Y-134092500I-218750J0D01*
G01*
G37*
G36*
G01*
X88140250Y-134092500D02*
X87627750Y-134092500D01*
G75*
G02*
X87409000Y-133873750I0J218750D01*
G01*
X87409000Y-133436250D01*
G75*
G02*
X87627750Y-133217500I218750J0D01*
G01*
X88140250Y-133217500D01*
G75*
G02*
X88359000Y-133436250I0J-218750D01*
G01*
X88359000Y-133873750D01*
G75*
G02*
X88140250Y-134092500I-218750J0D01*
G01*
G37*
G36*
G01*
X88140250Y-132517500D02*
X87627750Y-132517500D01*
G75*
G02*
X87409000Y-132298750I0J218750D01*
G01*
X87409000Y-131861250D01*
G75*
G02*
X87627750Y-131642500I218750J0D01*
G01*
X88140250Y-131642500D01*
G75*
G02*
X88359000Y-131861250I0J-218750D01*
G01*
X88359000Y-132298750D01*
G75*
G02*
X88140250Y-132517500I-218750J0D01*
G01*
G37*
G36*
G01*
X93220250Y-132517500D02*
X92707750Y-132517500D01*
G75*
G02*
X92489000Y-132298750I0J218750D01*
G01*
X92489000Y-131861250D01*
G75*
G02*
X92707750Y-131642500I218750J0D01*
G01*
X93220250Y-131642500D01*
G75*
G02*
X93439000Y-131861250I0J-218750D01*
G01*
X93439000Y-132298750D01*
G75*
G02*
X93220250Y-132517500I-218750J0D01*
G01*
G37*
G36*
G01*
X93220250Y-134092500D02*
X92707750Y-134092500D01*
G75*
G02*
X92489000Y-133873750I0J218750D01*
G01*
X92489000Y-133436250D01*
G75*
G02*
X92707750Y-133217500I218750J0D01*
G01*
X93220250Y-133217500D01*
G75*
G02*
X93439000Y-133436250I0J-218750D01*
G01*
X93439000Y-133873750D01*
G75*
G02*
X93220250Y-134092500I-218750J0D01*
G01*
G37*
G36*
G01*
X92707750Y-123514500D02*
X93220250Y-123514500D01*
G75*
G02*
X93439000Y-123733250I0J-218750D01*
G01*
X93439000Y-124170750D01*
G75*
G02*
X93220250Y-124389500I-218750J0D01*
G01*
X92707750Y-124389500D01*
G75*
G02*
X92489000Y-124170750I0J218750D01*
G01*
X92489000Y-123733250D01*
G75*
G02*
X92707750Y-123514500I218750J0D01*
G01*
G37*
G36*
G01*
X92707750Y-125089500D02*
X93220250Y-125089500D01*
G75*
G02*
X93439000Y-125308250I0J-218750D01*
G01*
X93439000Y-125745750D01*
G75*
G02*
X93220250Y-125964500I-218750J0D01*
G01*
X92707750Y-125964500D01*
G75*
G02*
X92489000Y-125745750I0J218750D01*
G01*
X92489000Y-125308250D01*
G75*
G02*
X92707750Y-125089500I218750J0D01*
G01*
G37*
G36*
G01*
X105050000Y-150091000D02*
X105050000Y-150391000D01*
G75*
G02*
X104900000Y-150541000I-150000J0D01*
G01*
X103250000Y-150541000D01*
G75*
G02*
X103100000Y-150391000I0J150000D01*
G01*
X103100000Y-150091000D01*
G75*
G02*
X103250000Y-149941000I150000J0D01*
G01*
X104900000Y-149941000D01*
G75*
G02*
X105050000Y-150091000I0J-150000D01*
G01*
G37*
G36*
G01*
X105050000Y-148821000D02*
X105050000Y-149121000D01*
G75*
G02*
X104900000Y-149271000I-150000J0D01*
G01*
X103250000Y-149271000D01*
G75*
G02*
X103100000Y-149121000I0J150000D01*
G01*
X103100000Y-148821000D01*
G75*
G02*
X103250000Y-148671000I150000J0D01*
G01*
X104900000Y-148671000D01*
G75*
G02*
X105050000Y-148821000I0J-150000D01*
G01*
G37*
G36*
G01*
X105050000Y-147551000D02*
X105050000Y-147851000D01*
G75*
G02*
X104900000Y-148001000I-150000J0D01*
G01*
X103250000Y-148001000D01*
G75*
G02*
X103100000Y-147851000I0J150000D01*
G01*
X103100000Y-147551000D01*
G75*
G02*
X103250000Y-147401000I150000J0D01*
G01*
X104900000Y-147401000D01*
G75*
G02*
X105050000Y-147551000I0J-150000D01*
G01*
G37*
G36*
G01*
X105050000Y-146281000D02*
X105050000Y-146581000D01*
G75*
G02*
X104900000Y-146731000I-150000J0D01*
G01*
X103250000Y-146731000D01*
G75*
G02*
X103100000Y-146581000I0J150000D01*
G01*
X103100000Y-146281000D01*
G75*
G02*
X103250000Y-146131000I150000J0D01*
G01*
X104900000Y-146131000D01*
G75*
G02*
X105050000Y-146281000I0J-150000D01*
G01*
G37*
G36*
G01*
X100100000Y-146281000D02*
X100100000Y-146581000D01*
G75*
G02*
X99950000Y-146731000I-150000J0D01*
G01*
X98300000Y-146731000D01*
G75*
G02*
X98150000Y-146581000I0J150000D01*
G01*
X98150000Y-146281000D01*
G75*
G02*
X98300000Y-146131000I150000J0D01*
G01*
X99950000Y-146131000D01*
G75*
G02*
X100100000Y-146281000I0J-150000D01*
G01*
G37*
G36*
G01*
X100100000Y-147551000D02*
X100100000Y-147851000D01*
G75*
G02*
X99950000Y-148001000I-150000J0D01*
G01*
X98300000Y-148001000D01*
G75*
G02*
X98150000Y-147851000I0J150000D01*
G01*
X98150000Y-147551000D01*
G75*
G02*
X98300000Y-147401000I150000J0D01*
G01*
X99950000Y-147401000D01*
G75*
G02*
X100100000Y-147551000I0J-150000D01*
G01*
G37*
G36*
G01*
X100100000Y-148821000D02*
X100100000Y-149121000D01*
G75*
G02*
X99950000Y-149271000I-150000J0D01*
G01*
X98300000Y-149271000D01*
G75*
G02*
X98150000Y-149121000I0J150000D01*
G01*
X98150000Y-148821000D01*
G75*
G02*
X98300000Y-148671000I150000J0D01*
G01*
X99950000Y-148671000D01*
G75*
G02*
X100100000Y-148821000I0J-150000D01*
G01*
G37*
G36*
G01*
X100100000Y-150091000D02*
X100100000Y-150391000D01*
G75*
G02*
X99950000Y-150541000I-150000J0D01*
G01*
X98300000Y-150541000D01*
G75*
G02*
X98150000Y-150391000I0J150000D01*
G01*
X98150000Y-150091000D01*
G75*
G02*
X98300000Y-149941000I150000J0D01*
G01*
X99950000Y-149941000D01*
G75*
G02*
X100100000Y-150091000I0J-150000D01*
G01*
G37*
M02*
