G04 #@! TF.GenerationSoftware,KiCad,Pcbnew,(5.1.9-0-10_14)*
G04 #@! TF.CreationDate,2021-04-14T19:06:18-04:00*
G04 #@! TF.ProjectId,delux pet on a chip,64656c75-7820-4706-9574-206f6e206120,rev?*
G04 #@! TF.SameCoordinates,Original*
G04 #@! TF.FileFunction,Copper,L1,Top*
G04 #@! TF.FilePolarity,Positive*
%FSLAX46Y46*%
G04 Gerber Fmt 4.6, Leading zero omitted, Abs format (unit mm)*
G04 Created by KiCad (PCBNEW (5.1.9-0-10_14)) date 2021-04-14 19:06:18*
%MOMM*%
%LPD*%
G01*
G04 APERTURE LIST*
G04 #@! TA.AperFunction,ComponentPad*
%ADD10R,1.700000X1.700000*%
G04 #@! TD*
G04 #@! TA.AperFunction,ComponentPad*
%ADD11O,1.700000X1.700000*%
G04 #@! TD*
G04 #@! TA.AperFunction,ComponentPad*
%ADD12C,3.500000*%
G04 #@! TD*
G04 #@! TA.AperFunction,ComponentPad*
%ADD13C,1.700000*%
G04 #@! TD*
G04 #@! TA.AperFunction,ComponentPad*
%ADD14C,2.000000*%
G04 #@! TD*
G04 #@! TA.AperFunction,SMDPad,CuDef*
%ADD15R,3.800000X2.000000*%
G04 #@! TD*
G04 #@! TA.AperFunction,SMDPad,CuDef*
%ADD16R,1.500000X2.000000*%
G04 #@! TD*
G04 #@! TA.AperFunction,SMDPad,CuDef*
%ADD17R,0.650000X1.060000*%
G04 #@! TD*
G04 #@! TA.AperFunction,SMDPad,CuDef*
%ADD18C,0.350000*%
G04 #@! TD*
G04 #@! TA.AperFunction,SMDPad,CuDef*
%ADD19R,1.100000X1.300000*%
G04 #@! TD*
G04 #@! TA.AperFunction,SMDPad,CuDef*
%ADD20R,1.300000X1.100000*%
G04 #@! TD*
G04 #@! TA.AperFunction,ComponentPad*
%ADD21R,2.400000X2.400000*%
G04 #@! TD*
G04 #@! TA.AperFunction,ComponentPad*
%ADD22C,2.400000*%
G04 #@! TD*
G04 #@! TA.AperFunction,ComponentPad*
%ADD23C,4.065999*%
G04 #@! TD*
G04 #@! TA.AperFunction,ComponentPad*
%ADD24C,1.785000*%
G04 #@! TD*
G04 #@! TA.AperFunction,ComponentPad*
%ADD25R,1.785000X1.785000*%
G04 #@! TD*
G04 #@! TA.AperFunction,ViaPad*
%ADD26C,0.508000*%
G04 #@! TD*
G04 #@! TA.AperFunction,ViaPad*
%ADD27C,1.143000*%
G04 #@! TD*
G04 #@! TA.AperFunction,ViaPad*
%ADD28C,0.762000*%
G04 #@! TD*
G04 #@! TA.AperFunction,Conductor*
%ADD29C,0.254000*%
G04 #@! TD*
G04 #@! TA.AperFunction,Conductor*
%ADD30C,0.127000*%
G04 #@! TD*
G04 #@! TA.AperFunction,Conductor*
%ADD31C,1.016000*%
G04 #@! TD*
G04 #@! TA.AperFunction,Conductor*
%ADD32C,0.508000*%
G04 #@! TD*
G04 APERTURE END LIST*
G04 #@! TA.AperFunction,SMDPad,CuDef*
G36*
G01*
X128291000Y-129169000D02*
X127741000Y-129169000D01*
G75*
G02*
X127541000Y-128969000I0J200000D01*
G01*
X127541000Y-128569000D01*
G75*
G02*
X127741000Y-128369000I200000J0D01*
G01*
X128291000Y-128369000D01*
G75*
G02*
X128491000Y-128569000I0J-200000D01*
G01*
X128491000Y-128969000D01*
G75*
G02*
X128291000Y-129169000I-200000J0D01*
G01*
G37*
G04 #@! TD.AperFunction*
G04 #@! TA.AperFunction,SMDPad,CuDef*
G36*
G01*
X128291000Y-130819000D02*
X127741000Y-130819000D01*
G75*
G02*
X127541000Y-130619000I0J200000D01*
G01*
X127541000Y-130219000D01*
G75*
G02*
X127741000Y-130019000I200000J0D01*
G01*
X128291000Y-130019000D01*
G75*
G02*
X128491000Y-130219000I0J-200000D01*
G01*
X128491000Y-130619000D01*
G75*
G02*
X128291000Y-130819000I-200000J0D01*
G01*
G37*
G04 #@! TD.AperFunction*
G04 #@! TA.AperFunction,SMDPad,CuDef*
G36*
G01*
X128291000Y-133179000D02*
X127741000Y-133179000D01*
G75*
G02*
X127541000Y-132979000I0J200000D01*
G01*
X127541000Y-132579000D01*
G75*
G02*
X127741000Y-132379000I200000J0D01*
G01*
X128291000Y-132379000D01*
G75*
G02*
X128491000Y-132579000I0J-200000D01*
G01*
X128491000Y-132979000D01*
G75*
G02*
X128291000Y-133179000I-200000J0D01*
G01*
G37*
G04 #@! TD.AperFunction*
G04 #@! TA.AperFunction,SMDPad,CuDef*
G36*
G01*
X128291000Y-134829000D02*
X127741000Y-134829000D01*
G75*
G02*
X127541000Y-134629000I0J200000D01*
G01*
X127541000Y-134229000D01*
G75*
G02*
X127741000Y-134029000I200000J0D01*
G01*
X128291000Y-134029000D01*
G75*
G02*
X128491000Y-134229000I0J-200000D01*
G01*
X128491000Y-134629000D01*
G75*
G02*
X128291000Y-134829000I-200000J0D01*
G01*
G37*
G04 #@! TD.AperFunction*
D10*
X151130000Y-125730000D03*
D11*
X148590000Y-125730000D03*
X151130000Y-123190000D03*
X148590000Y-123190000D03*
X151130000Y-120650000D03*
X148590000Y-120650000D03*
X151130000Y-118110000D03*
X148590000Y-118110000D03*
X151130000Y-115570000D03*
X148590000Y-115570000D03*
X151130000Y-113030000D03*
X148590000Y-113030000D03*
X151130000Y-110490000D03*
X148590000Y-110490000D03*
X151130000Y-107950000D03*
X148590000Y-107950000D03*
X151130000Y-105410000D03*
X148590000Y-105410000D03*
X151130000Y-102870000D03*
X148590000Y-102870000D03*
X151130000Y-100330000D03*
X148590000Y-100330000D03*
X151130000Y-97790000D03*
X148590000Y-97790000D03*
X151130000Y-95250000D03*
X148590000Y-95250000D03*
X151130000Y-92710000D03*
X148590000Y-92710000D03*
X151130000Y-90170000D03*
X148590000Y-90170000D03*
X77470000Y-90170000D03*
X80010000Y-90170000D03*
X77470000Y-92710000D03*
X80010000Y-92710000D03*
X77470000Y-95250000D03*
X80010000Y-95250000D03*
X77470000Y-97790000D03*
X80010000Y-97790000D03*
X77470000Y-100330000D03*
X80010000Y-100330000D03*
X77470000Y-102870000D03*
X80010000Y-102870000D03*
X77470000Y-105410000D03*
X80010000Y-105410000D03*
X77470000Y-107950000D03*
X80010000Y-107950000D03*
X77470000Y-110490000D03*
X80010000Y-110490000D03*
X77470000Y-113030000D03*
X80010000Y-113030000D03*
X77470000Y-115570000D03*
X80010000Y-115570000D03*
X77470000Y-118110000D03*
X80010000Y-118110000D03*
X77470000Y-120650000D03*
X80010000Y-120650000D03*
X77470000Y-123190000D03*
X80010000Y-123190000D03*
X77470000Y-125730000D03*
D10*
X80010000Y-125730000D03*
G04 #@! TA.AperFunction,SMDPad,CuDef*
G36*
G01*
X107484000Y-99634000D02*
X106384000Y-99634000D01*
G75*
G02*
X106134000Y-99384000I0J250000D01*
G01*
X106134000Y-96384000D01*
G75*
G02*
X106384000Y-96134000I250000J0D01*
G01*
X107484000Y-96134000D01*
G75*
G02*
X107734000Y-96384000I0J-250000D01*
G01*
X107734000Y-99384000D01*
G75*
G02*
X107484000Y-99634000I-250000J0D01*
G01*
G37*
G04 #@! TD.AperFunction*
G04 #@! TA.AperFunction,SMDPad,CuDef*
G36*
G01*
X107484000Y-105034000D02*
X106384000Y-105034000D01*
G75*
G02*
X106134000Y-104784000I0J250000D01*
G01*
X106134000Y-101784000D01*
G75*
G02*
X106384000Y-101534000I250000J0D01*
G01*
X107484000Y-101534000D01*
G75*
G02*
X107734000Y-101784000I0J-250000D01*
G01*
X107734000Y-104784000D01*
G75*
G02*
X107484000Y-105034000I-250000J0D01*
G01*
G37*
G04 #@! TD.AperFunction*
G04 #@! TA.AperFunction,SMDPad,CuDef*
G36*
G01*
X100332250Y-134016000D02*
X99819750Y-134016000D01*
G75*
G02*
X99601000Y-133797250I0J218750D01*
G01*
X99601000Y-133359750D01*
G75*
G02*
X99819750Y-133141000I218750J0D01*
G01*
X100332250Y-133141000D01*
G75*
G02*
X100551000Y-133359750I0J-218750D01*
G01*
X100551000Y-133797250D01*
G75*
G02*
X100332250Y-134016000I-218750J0D01*
G01*
G37*
G04 #@! TD.AperFunction*
G04 #@! TA.AperFunction,SMDPad,CuDef*
G36*
G01*
X100332250Y-135591000D02*
X99819750Y-135591000D01*
G75*
G02*
X99601000Y-135372250I0J218750D01*
G01*
X99601000Y-134934750D01*
G75*
G02*
X99819750Y-134716000I218750J0D01*
G01*
X100332250Y-134716000D01*
G75*
G02*
X100551000Y-134934750I0J-218750D01*
G01*
X100551000Y-135372250D01*
G75*
G02*
X100332250Y-135591000I-218750J0D01*
G01*
G37*
G04 #@! TD.AperFunction*
G04 #@! TA.AperFunction,SMDPad,CuDef*
G36*
G01*
X121668250Y-134829000D02*
X121155750Y-134829000D01*
G75*
G02*
X120937000Y-134610250I0J218750D01*
G01*
X120937000Y-134172750D01*
G75*
G02*
X121155750Y-133954000I218750J0D01*
G01*
X121668250Y-133954000D01*
G75*
G02*
X121887000Y-134172750I0J-218750D01*
G01*
X121887000Y-134610250D01*
G75*
G02*
X121668250Y-134829000I-218750J0D01*
G01*
G37*
G04 #@! TD.AperFunction*
G04 #@! TA.AperFunction,SMDPad,CuDef*
G36*
G01*
X121668250Y-133254000D02*
X121155750Y-133254000D01*
G75*
G02*
X120937000Y-133035250I0J218750D01*
G01*
X120937000Y-132597750D01*
G75*
G02*
X121155750Y-132379000I218750J0D01*
G01*
X121668250Y-132379000D01*
G75*
G02*
X121887000Y-132597750I0J-218750D01*
G01*
X121887000Y-133035250D01*
G75*
G02*
X121668250Y-133254000I-218750J0D01*
G01*
G37*
G04 #@! TD.AperFunction*
D12*
X80995000Y-147864400D03*
X93035000Y-147864400D03*
D13*
X88265000Y-145154400D03*
X85765000Y-145154400D03*
X85765000Y-143154400D03*
D10*
X88265000Y-143154400D03*
D14*
X123372000Y-98552000D03*
X118872000Y-98552000D03*
X123372000Y-92052000D03*
X118872000Y-92052000D03*
G04 #@! TA.AperFunction,SMDPad,CuDef*
G36*
G01*
X115670000Y-139819000D02*
X115670000Y-139969000D01*
G75*
G02*
X115595000Y-140044000I-75000J0D01*
G01*
X114195000Y-140044000D01*
G75*
G02*
X114120000Y-139969000I0J75000D01*
G01*
X114120000Y-139819000D01*
G75*
G02*
X114195000Y-139744000I75000J0D01*
G01*
X115595000Y-139744000D01*
G75*
G02*
X115670000Y-139819000I0J-75000D01*
G01*
G37*
G04 #@! TD.AperFunction*
G04 #@! TA.AperFunction,SMDPad,CuDef*
G36*
G01*
X115670000Y-139319000D02*
X115670000Y-139469000D01*
G75*
G02*
X115595000Y-139544000I-75000J0D01*
G01*
X114195000Y-139544000D01*
G75*
G02*
X114120000Y-139469000I0J75000D01*
G01*
X114120000Y-139319000D01*
G75*
G02*
X114195000Y-139244000I75000J0D01*
G01*
X115595000Y-139244000D01*
G75*
G02*
X115670000Y-139319000I0J-75000D01*
G01*
G37*
G04 #@! TD.AperFunction*
G04 #@! TA.AperFunction,SMDPad,CuDef*
G36*
G01*
X115670000Y-138819000D02*
X115670000Y-138969000D01*
G75*
G02*
X115595000Y-139044000I-75000J0D01*
G01*
X114195000Y-139044000D01*
G75*
G02*
X114120000Y-138969000I0J75000D01*
G01*
X114120000Y-138819000D01*
G75*
G02*
X114195000Y-138744000I75000J0D01*
G01*
X115595000Y-138744000D01*
G75*
G02*
X115670000Y-138819000I0J-75000D01*
G01*
G37*
G04 #@! TD.AperFunction*
G04 #@! TA.AperFunction,SMDPad,CuDef*
G36*
G01*
X115670000Y-138319000D02*
X115670000Y-138469000D01*
G75*
G02*
X115595000Y-138544000I-75000J0D01*
G01*
X114195000Y-138544000D01*
G75*
G02*
X114120000Y-138469000I0J75000D01*
G01*
X114120000Y-138319000D01*
G75*
G02*
X114195000Y-138244000I75000J0D01*
G01*
X115595000Y-138244000D01*
G75*
G02*
X115670000Y-138319000I0J-75000D01*
G01*
G37*
G04 #@! TD.AperFunction*
G04 #@! TA.AperFunction,SMDPad,CuDef*
G36*
G01*
X115670000Y-137819000D02*
X115670000Y-137969000D01*
G75*
G02*
X115595000Y-138044000I-75000J0D01*
G01*
X114195000Y-138044000D01*
G75*
G02*
X114120000Y-137969000I0J75000D01*
G01*
X114120000Y-137819000D01*
G75*
G02*
X114195000Y-137744000I75000J0D01*
G01*
X115595000Y-137744000D01*
G75*
G02*
X115670000Y-137819000I0J-75000D01*
G01*
G37*
G04 #@! TD.AperFunction*
G04 #@! TA.AperFunction,SMDPad,CuDef*
G36*
G01*
X115670000Y-137319000D02*
X115670000Y-137469000D01*
G75*
G02*
X115595000Y-137544000I-75000J0D01*
G01*
X114195000Y-137544000D01*
G75*
G02*
X114120000Y-137469000I0J75000D01*
G01*
X114120000Y-137319000D01*
G75*
G02*
X114195000Y-137244000I75000J0D01*
G01*
X115595000Y-137244000D01*
G75*
G02*
X115670000Y-137319000I0J-75000D01*
G01*
G37*
G04 #@! TD.AperFunction*
G04 #@! TA.AperFunction,SMDPad,CuDef*
G36*
G01*
X115670000Y-136819000D02*
X115670000Y-136969000D01*
G75*
G02*
X115595000Y-137044000I-75000J0D01*
G01*
X114195000Y-137044000D01*
G75*
G02*
X114120000Y-136969000I0J75000D01*
G01*
X114120000Y-136819000D01*
G75*
G02*
X114195000Y-136744000I75000J0D01*
G01*
X115595000Y-136744000D01*
G75*
G02*
X115670000Y-136819000I0J-75000D01*
G01*
G37*
G04 #@! TD.AperFunction*
G04 #@! TA.AperFunction,SMDPad,CuDef*
G36*
G01*
X115670000Y-136319000D02*
X115670000Y-136469000D01*
G75*
G02*
X115595000Y-136544000I-75000J0D01*
G01*
X114195000Y-136544000D01*
G75*
G02*
X114120000Y-136469000I0J75000D01*
G01*
X114120000Y-136319000D01*
G75*
G02*
X114195000Y-136244000I75000J0D01*
G01*
X115595000Y-136244000D01*
G75*
G02*
X115670000Y-136319000I0J-75000D01*
G01*
G37*
G04 #@! TD.AperFunction*
G04 #@! TA.AperFunction,SMDPad,CuDef*
G36*
G01*
X115670000Y-135819000D02*
X115670000Y-135969000D01*
G75*
G02*
X115595000Y-136044000I-75000J0D01*
G01*
X114195000Y-136044000D01*
G75*
G02*
X114120000Y-135969000I0J75000D01*
G01*
X114120000Y-135819000D01*
G75*
G02*
X114195000Y-135744000I75000J0D01*
G01*
X115595000Y-135744000D01*
G75*
G02*
X115670000Y-135819000I0J-75000D01*
G01*
G37*
G04 #@! TD.AperFunction*
G04 #@! TA.AperFunction,SMDPad,CuDef*
G36*
G01*
X115670000Y-135319000D02*
X115670000Y-135469000D01*
G75*
G02*
X115595000Y-135544000I-75000J0D01*
G01*
X114195000Y-135544000D01*
G75*
G02*
X114120000Y-135469000I0J75000D01*
G01*
X114120000Y-135319000D01*
G75*
G02*
X114195000Y-135244000I75000J0D01*
G01*
X115595000Y-135244000D01*
G75*
G02*
X115670000Y-135319000I0J-75000D01*
G01*
G37*
G04 #@! TD.AperFunction*
G04 #@! TA.AperFunction,SMDPad,CuDef*
G36*
G01*
X115670000Y-134819000D02*
X115670000Y-134969000D01*
G75*
G02*
X115595000Y-135044000I-75000J0D01*
G01*
X114195000Y-135044000D01*
G75*
G02*
X114120000Y-134969000I0J75000D01*
G01*
X114120000Y-134819000D01*
G75*
G02*
X114195000Y-134744000I75000J0D01*
G01*
X115595000Y-134744000D01*
G75*
G02*
X115670000Y-134819000I0J-75000D01*
G01*
G37*
G04 #@! TD.AperFunction*
G04 #@! TA.AperFunction,SMDPad,CuDef*
G36*
G01*
X115670000Y-134319000D02*
X115670000Y-134469000D01*
G75*
G02*
X115595000Y-134544000I-75000J0D01*
G01*
X114195000Y-134544000D01*
G75*
G02*
X114120000Y-134469000I0J75000D01*
G01*
X114120000Y-134319000D01*
G75*
G02*
X114195000Y-134244000I75000J0D01*
G01*
X115595000Y-134244000D01*
G75*
G02*
X115670000Y-134319000I0J-75000D01*
G01*
G37*
G04 #@! TD.AperFunction*
G04 #@! TA.AperFunction,SMDPad,CuDef*
G36*
G01*
X115670000Y-133819000D02*
X115670000Y-133969000D01*
G75*
G02*
X115595000Y-134044000I-75000J0D01*
G01*
X114195000Y-134044000D01*
G75*
G02*
X114120000Y-133969000I0J75000D01*
G01*
X114120000Y-133819000D01*
G75*
G02*
X114195000Y-133744000I75000J0D01*
G01*
X115595000Y-133744000D01*
G75*
G02*
X115670000Y-133819000I0J-75000D01*
G01*
G37*
G04 #@! TD.AperFunction*
G04 #@! TA.AperFunction,SMDPad,CuDef*
G36*
G01*
X115670000Y-133319000D02*
X115670000Y-133469000D01*
G75*
G02*
X115595000Y-133544000I-75000J0D01*
G01*
X114195000Y-133544000D01*
G75*
G02*
X114120000Y-133469000I0J75000D01*
G01*
X114120000Y-133319000D01*
G75*
G02*
X114195000Y-133244000I75000J0D01*
G01*
X115595000Y-133244000D01*
G75*
G02*
X115670000Y-133319000I0J-75000D01*
G01*
G37*
G04 #@! TD.AperFunction*
G04 #@! TA.AperFunction,SMDPad,CuDef*
G36*
G01*
X115670000Y-132819000D02*
X115670000Y-132969000D01*
G75*
G02*
X115595000Y-133044000I-75000J0D01*
G01*
X114195000Y-133044000D01*
G75*
G02*
X114120000Y-132969000I0J75000D01*
G01*
X114120000Y-132819000D01*
G75*
G02*
X114195000Y-132744000I75000J0D01*
G01*
X115595000Y-132744000D01*
G75*
G02*
X115670000Y-132819000I0J-75000D01*
G01*
G37*
G04 #@! TD.AperFunction*
G04 #@! TA.AperFunction,SMDPad,CuDef*
G36*
G01*
X115670000Y-132319000D02*
X115670000Y-132469000D01*
G75*
G02*
X115595000Y-132544000I-75000J0D01*
G01*
X114195000Y-132544000D01*
G75*
G02*
X114120000Y-132469000I0J75000D01*
G01*
X114120000Y-132319000D01*
G75*
G02*
X114195000Y-132244000I75000J0D01*
G01*
X115595000Y-132244000D01*
G75*
G02*
X115670000Y-132319000I0J-75000D01*
G01*
G37*
G04 #@! TD.AperFunction*
G04 #@! TA.AperFunction,SMDPad,CuDef*
G36*
G01*
X113120000Y-129769000D02*
X113120000Y-131169000D01*
G75*
G02*
X113045000Y-131244000I-75000J0D01*
G01*
X112895000Y-131244000D01*
G75*
G02*
X112820000Y-131169000I0J75000D01*
G01*
X112820000Y-129769000D01*
G75*
G02*
X112895000Y-129694000I75000J0D01*
G01*
X113045000Y-129694000D01*
G75*
G02*
X113120000Y-129769000I0J-75000D01*
G01*
G37*
G04 #@! TD.AperFunction*
G04 #@! TA.AperFunction,SMDPad,CuDef*
G36*
G01*
X112620000Y-129769000D02*
X112620000Y-131169000D01*
G75*
G02*
X112545000Y-131244000I-75000J0D01*
G01*
X112395000Y-131244000D01*
G75*
G02*
X112320000Y-131169000I0J75000D01*
G01*
X112320000Y-129769000D01*
G75*
G02*
X112395000Y-129694000I75000J0D01*
G01*
X112545000Y-129694000D01*
G75*
G02*
X112620000Y-129769000I0J-75000D01*
G01*
G37*
G04 #@! TD.AperFunction*
G04 #@! TA.AperFunction,SMDPad,CuDef*
G36*
G01*
X112120000Y-129769000D02*
X112120000Y-131169000D01*
G75*
G02*
X112045000Y-131244000I-75000J0D01*
G01*
X111895000Y-131244000D01*
G75*
G02*
X111820000Y-131169000I0J75000D01*
G01*
X111820000Y-129769000D01*
G75*
G02*
X111895000Y-129694000I75000J0D01*
G01*
X112045000Y-129694000D01*
G75*
G02*
X112120000Y-129769000I0J-75000D01*
G01*
G37*
G04 #@! TD.AperFunction*
G04 #@! TA.AperFunction,SMDPad,CuDef*
G36*
G01*
X111620000Y-129769000D02*
X111620000Y-131169000D01*
G75*
G02*
X111545000Y-131244000I-75000J0D01*
G01*
X111395000Y-131244000D01*
G75*
G02*
X111320000Y-131169000I0J75000D01*
G01*
X111320000Y-129769000D01*
G75*
G02*
X111395000Y-129694000I75000J0D01*
G01*
X111545000Y-129694000D01*
G75*
G02*
X111620000Y-129769000I0J-75000D01*
G01*
G37*
G04 #@! TD.AperFunction*
G04 #@! TA.AperFunction,SMDPad,CuDef*
G36*
G01*
X111120000Y-129769000D02*
X111120000Y-131169000D01*
G75*
G02*
X111045000Y-131244000I-75000J0D01*
G01*
X110895000Y-131244000D01*
G75*
G02*
X110820000Y-131169000I0J75000D01*
G01*
X110820000Y-129769000D01*
G75*
G02*
X110895000Y-129694000I75000J0D01*
G01*
X111045000Y-129694000D01*
G75*
G02*
X111120000Y-129769000I0J-75000D01*
G01*
G37*
G04 #@! TD.AperFunction*
G04 #@! TA.AperFunction,SMDPad,CuDef*
G36*
G01*
X110620000Y-129769000D02*
X110620000Y-131169000D01*
G75*
G02*
X110545000Y-131244000I-75000J0D01*
G01*
X110395000Y-131244000D01*
G75*
G02*
X110320000Y-131169000I0J75000D01*
G01*
X110320000Y-129769000D01*
G75*
G02*
X110395000Y-129694000I75000J0D01*
G01*
X110545000Y-129694000D01*
G75*
G02*
X110620000Y-129769000I0J-75000D01*
G01*
G37*
G04 #@! TD.AperFunction*
G04 #@! TA.AperFunction,SMDPad,CuDef*
G36*
G01*
X110120000Y-129769000D02*
X110120000Y-131169000D01*
G75*
G02*
X110045000Y-131244000I-75000J0D01*
G01*
X109895000Y-131244000D01*
G75*
G02*
X109820000Y-131169000I0J75000D01*
G01*
X109820000Y-129769000D01*
G75*
G02*
X109895000Y-129694000I75000J0D01*
G01*
X110045000Y-129694000D01*
G75*
G02*
X110120000Y-129769000I0J-75000D01*
G01*
G37*
G04 #@! TD.AperFunction*
G04 #@! TA.AperFunction,SMDPad,CuDef*
G36*
G01*
X109620000Y-129769000D02*
X109620000Y-131169000D01*
G75*
G02*
X109545000Y-131244000I-75000J0D01*
G01*
X109395000Y-131244000D01*
G75*
G02*
X109320000Y-131169000I0J75000D01*
G01*
X109320000Y-129769000D01*
G75*
G02*
X109395000Y-129694000I75000J0D01*
G01*
X109545000Y-129694000D01*
G75*
G02*
X109620000Y-129769000I0J-75000D01*
G01*
G37*
G04 #@! TD.AperFunction*
G04 #@! TA.AperFunction,SMDPad,CuDef*
G36*
G01*
X109120000Y-129769000D02*
X109120000Y-131169000D01*
G75*
G02*
X109045000Y-131244000I-75000J0D01*
G01*
X108895000Y-131244000D01*
G75*
G02*
X108820000Y-131169000I0J75000D01*
G01*
X108820000Y-129769000D01*
G75*
G02*
X108895000Y-129694000I75000J0D01*
G01*
X109045000Y-129694000D01*
G75*
G02*
X109120000Y-129769000I0J-75000D01*
G01*
G37*
G04 #@! TD.AperFunction*
G04 #@! TA.AperFunction,SMDPad,CuDef*
G36*
G01*
X108620000Y-129769000D02*
X108620000Y-131169000D01*
G75*
G02*
X108545000Y-131244000I-75000J0D01*
G01*
X108395000Y-131244000D01*
G75*
G02*
X108320000Y-131169000I0J75000D01*
G01*
X108320000Y-129769000D01*
G75*
G02*
X108395000Y-129694000I75000J0D01*
G01*
X108545000Y-129694000D01*
G75*
G02*
X108620000Y-129769000I0J-75000D01*
G01*
G37*
G04 #@! TD.AperFunction*
G04 #@! TA.AperFunction,SMDPad,CuDef*
G36*
G01*
X108120000Y-129769000D02*
X108120000Y-131169000D01*
G75*
G02*
X108045000Y-131244000I-75000J0D01*
G01*
X107895000Y-131244000D01*
G75*
G02*
X107820000Y-131169000I0J75000D01*
G01*
X107820000Y-129769000D01*
G75*
G02*
X107895000Y-129694000I75000J0D01*
G01*
X108045000Y-129694000D01*
G75*
G02*
X108120000Y-129769000I0J-75000D01*
G01*
G37*
G04 #@! TD.AperFunction*
G04 #@! TA.AperFunction,SMDPad,CuDef*
G36*
G01*
X107620000Y-129769000D02*
X107620000Y-131169000D01*
G75*
G02*
X107545000Y-131244000I-75000J0D01*
G01*
X107395000Y-131244000D01*
G75*
G02*
X107320000Y-131169000I0J75000D01*
G01*
X107320000Y-129769000D01*
G75*
G02*
X107395000Y-129694000I75000J0D01*
G01*
X107545000Y-129694000D01*
G75*
G02*
X107620000Y-129769000I0J-75000D01*
G01*
G37*
G04 #@! TD.AperFunction*
G04 #@! TA.AperFunction,SMDPad,CuDef*
G36*
G01*
X107120000Y-129769000D02*
X107120000Y-131169000D01*
G75*
G02*
X107045000Y-131244000I-75000J0D01*
G01*
X106895000Y-131244000D01*
G75*
G02*
X106820000Y-131169000I0J75000D01*
G01*
X106820000Y-129769000D01*
G75*
G02*
X106895000Y-129694000I75000J0D01*
G01*
X107045000Y-129694000D01*
G75*
G02*
X107120000Y-129769000I0J-75000D01*
G01*
G37*
G04 #@! TD.AperFunction*
G04 #@! TA.AperFunction,SMDPad,CuDef*
G36*
G01*
X106620000Y-129769000D02*
X106620000Y-131169000D01*
G75*
G02*
X106545000Y-131244000I-75000J0D01*
G01*
X106395000Y-131244000D01*
G75*
G02*
X106320000Y-131169000I0J75000D01*
G01*
X106320000Y-129769000D01*
G75*
G02*
X106395000Y-129694000I75000J0D01*
G01*
X106545000Y-129694000D01*
G75*
G02*
X106620000Y-129769000I0J-75000D01*
G01*
G37*
G04 #@! TD.AperFunction*
G04 #@! TA.AperFunction,SMDPad,CuDef*
G36*
G01*
X106120000Y-129769000D02*
X106120000Y-131169000D01*
G75*
G02*
X106045000Y-131244000I-75000J0D01*
G01*
X105895000Y-131244000D01*
G75*
G02*
X105820000Y-131169000I0J75000D01*
G01*
X105820000Y-129769000D01*
G75*
G02*
X105895000Y-129694000I75000J0D01*
G01*
X106045000Y-129694000D01*
G75*
G02*
X106120000Y-129769000I0J-75000D01*
G01*
G37*
G04 #@! TD.AperFunction*
G04 #@! TA.AperFunction,SMDPad,CuDef*
G36*
G01*
X105620000Y-129769000D02*
X105620000Y-131169000D01*
G75*
G02*
X105545000Y-131244000I-75000J0D01*
G01*
X105395000Y-131244000D01*
G75*
G02*
X105320000Y-131169000I0J75000D01*
G01*
X105320000Y-129769000D01*
G75*
G02*
X105395000Y-129694000I75000J0D01*
G01*
X105545000Y-129694000D01*
G75*
G02*
X105620000Y-129769000I0J-75000D01*
G01*
G37*
G04 #@! TD.AperFunction*
G04 #@! TA.AperFunction,SMDPad,CuDef*
G36*
G01*
X104320000Y-132319000D02*
X104320000Y-132469000D01*
G75*
G02*
X104245000Y-132544000I-75000J0D01*
G01*
X102845000Y-132544000D01*
G75*
G02*
X102770000Y-132469000I0J75000D01*
G01*
X102770000Y-132319000D01*
G75*
G02*
X102845000Y-132244000I75000J0D01*
G01*
X104245000Y-132244000D01*
G75*
G02*
X104320000Y-132319000I0J-75000D01*
G01*
G37*
G04 #@! TD.AperFunction*
G04 #@! TA.AperFunction,SMDPad,CuDef*
G36*
G01*
X104320000Y-132819000D02*
X104320000Y-132969000D01*
G75*
G02*
X104245000Y-133044000I-75000J0D01*
G01*
X102845000Y-133044000D01*
G75*
G02*
X102770000Y-132969000I0J75000D01*
G01*
X102770000Y-132819000D01*
G75*
G02*
X102845000Y-132744000I75000J0D01*
G01*
X104245000Y-132744000D01*
G75*
G02*
X104320000Y-132819000I0J-75000D01*
G01*
G37*
G04 #@! TD.AperFunction*
G04 #@! TA.AperFunction,SMDPad,CuDef*
G36*
G01*
X104320000Y-133319000D02*
X104320000Y-133469000D01*
G75*
G02*
X104245000Y-133544000I-75000J0D01*
G01*
X102845000Y-133544000D01*
G75*
G02*
X102770000Y-133469000I0J75000D01*
G01*
X102770000Y-133319000D01*
G75*
G02*
X102845000Y-133244000I75000J0D01*
G01*
X104245000Y-133244000D01*
G75*
G02*
X104320000Y-133319000I0J-75000D01*
G01*
G37*
G04 #@! TD.AperFunction*
G04 #@! TA.AperFunction,SMDPad,CuDef*
G36*
G01*
X104320000Y-133819000D02*
X104320000Y-133969000D01*
G75*
G02*
X104245000Y-134044000I-75000J0D01*
G01*
X102845000Y-134044000D01*
G75*
G02*
X102770000Y-133969000I0J75000D01*
G01*
X102770000Y-133819000D01*
G75*
G02*
X102845000Y-133744000I75000J0D01*
G01*
X104245000Y-133744000D01*
G75*
G02*
X104320000Y-133819000I0J-75000D01*
G01*
G37*
G04 #@! TD.AperFunction*
G04 #@! TA.AperFunction,SMDPad,CuDef*
G36*
G01*
X104320000Y-134319000D02*
X104320000Y-134469000D01*
G75*
G02*
X104245000Y-134544000I-75000J0D01*
G01*
X102845000Y-134544000D01*
G75*
G02*
X102770000Y-134469000I0J75000D01*
G01*
X102770000Y-134319000D01*
G75*
G02*
X102845000Y-134244000I75000J0D01*
G01*
X104245000Y-134244000D01*
G75*
G02*
X104320000Y-134319000I0J-75000D01*
G01*
G37*
G04 #@! TD.AperFunction*
G04 #@! TA.AperFunction,SMDPad,CuDef*
G36*
G01*
X104320000Y-134819000D02*
X104320000Y-134969000D01*
G75*
G02*
X104245000Y-135044000I-75000J0D01*
G01*
X102845000Y-135044000D01*
G75*
G02*
X102770000Y-134969000I0J75000D01*
G01*
X102770000Y-134819000D01*
G75*
G02*
X102845000Y-134744000I75000J0D01*
G01*
X104245000Y-134744000D01*
G75*
G02*
X104320000Y-134819000I0J-75000D01*
G01*
G37*
G04 #@! TD.AperFunction*
G04 #@! TA.AperFunction,SMDPad,CuDef*
G36*
G01*
X104320000Y-135319000D02*
X104320000Y-135469000D01*
G75*
G02*
X104245000Y-135544000I-75000J0D01*
G01*
X102845000Y-135544000D01*
G75*
G02*
X102770000Y-135469000I0J75000D01*
G01*
X102770000Y-135319000D01*
G75*
G02*
X102845000Y-135244000I75000J0D01*
G01*
X104245000Y-135244000D01*
G75*
G02*
X104320000Y-135319000I0J-75000D01*
G01*
G37*
G04 #@! TD.AperFunction*
G04 #@! TA.AperFunction,SMDPad,CuDef*
G36*
G01*
X104320000Y-135819000D02*
X104320000Y-135969000D01*
G75*
G02*
X104245000Y-136044000I-75000J0D01*
G01*
X102845000Y-136044000D01*
G75*
G02*
X102770000Y-135969000I0J75000D01*
G01*
X102770000Y-135819000D01*
G75*
G02*
X102845000Y-135744000I75000J0D01*
G01*
X104245000Y-135744000D01*
G75*
G02*
X104320000Y-135819000I0J-75000D01*
G01*
G37*
G04 #@! TD.AperFunction*
G04 #@! TA.AperFunction,SMDPad,CuDef*
G36*
G01*
X104320000Y-136319000D02*
X104320000Y-136469000D01*
G75*
G02*
X104245000Y-136544000I-75000J0D01*
G01*
X102845000Y-136544000D01*
G75*
G02*
X102770000Y-136469000I0J75000D01*
G01*
X102770000Y-136319000D01*
G75*
G02*
X102845000Y-136244000I75000J0D01*
G01*
X104245000Y-136244000D01*
G75*
G02*
X104320000Y-136319000I0J-75000D01*
G01*
G37*
G04 #@! TD.AperFunction*
G04 #@! TA.AperFunction,SMDPad,CuDef*
G36*
G01*
X104320000Y-136819000D02*
X104320000Y-136969000D01*
G75*
G02*
X104245000Y-137044000I-75000J0D01*
G01*
X102845000Y-137044000D01*
G75*
G02*
X102770000Y-136969000I0J75000D01*
G01*
X102770000Y-136819000D01*
G75*
G02*
X102845000Y-136744000I75000J0D01*
G01*
X104245000Y-136744000D01*
G75*
G02*
X104320000Y-136819000I0J-75000D01*
G01*
G37*
G04 #@! TD.AperFunction*
G04 #@! TA.AperFunction,SMDPad,CuDef*
G36*
G01*
X104320000Y-137319000D02*
X104320000Y-137469000D01*
G75*
G02*
X104245000Y-137544000I-75000J0D01*
G01*
X102845000Y-137544000D01*
G75*
G02*
X102770000Y-137469000I0J75000D01*
G01*
X102770000Y-137319000D01*
G75*
G02*
X102845000Y-137244000I75000J0D01*
G01*
X104245000Y-137244000D01*
G75*
G02*
X104320000Y-137319000I0J-75000D01*
G01*
G37*
G04 #@! TD.AperFunction*
G04 #@! TA.AperFunction,SMDPad,CuDef*
G36*
G01*
X104320000Y-137819000D02*
X104320000Y-137969000D01*
G75*
G02*
X104245000Y-138044000I-75000J0D01*
G01*
X102845000Y-138044000D01*
G75*
G02*
X102770000Y-137969000I0J75000D01*
G01*
X102770000Y-137819000D01*
G75*
G02*
X102845000Y-137744000I75000J0D01*
G01*
X104245000Y-137744000D01*
G75*
G02*
X104320000Y-137819000I0J-75000D01*
G01*
G37*
G04 #@! TD.AperFunction*
G04 #@! TA.AperFunction,SMDPad,CuDef*
G36*
G01*
X104320000Y-138319000D02*
X104320000Y-138469000D01*
G75*
G02*
X104245000Y-138544000I-75000J0D01*
G01*
X102845000Y-138544000D01*
G75*
G02*
X102770000Y-138469000I0J75000D01*
G01*
X102770000Y-138319000D01*
G75*
G02*
X102845000Y-138244000I75000J0D01*
G01*
X104245000Y-138244000D01*
G75*
G02*
X104320000Y-138319000I0J-75000D01*
G01*
G37*
G04 #@! TD.AperFunction*
G04 #@! TA.AperFunction,SMDPad,CuDef*
G36*
G01*
X104320000Y-138819000D02*
X104320000Y-138969000D01*
G75*
G02*
X104245000Y-139044000I-75000J0D01*
G01*
X102845000Y-139044000D01*
G75*
G02*
X102770000Y-138969000I0J75000D01*
G01*
X102770000Y-138819000D01*
G75*
G02*
X102845000Y-138744000I75000J0D01*
G01*
X104245000Y-138744000D01*
G75*
G02*
X104320000Y-138819000I0J-75000D01*
G01*
G37*
G04 #@! TD.AperFunction*
G04 #@! TA.AperFunction,SMDPad,CuDef*
G36*
G01*
X104320000Y-139319000D02*
X104320000Y-139469000D01*
G75*
G02*
X104245000Y-139544000I-75000J0D01*
G01*
X102845000Y-139544000D01*
G75*
G02*
X102770000Y-139469000I0J75000D01*
G01*
X102770000Y-139319000D01*
G75*
G02*
X102845000Y-139244000I75000J0D01*
G01*
X104245000Y-139244000D01*
G75*
G02*
X104320000Y-139319000I0J-75000D01*
G01*
G37*
G04 #@! TD.AperFunction*
G04 #@! TA.AperFunction,SMDPad,CuDef*
G36*
G01*
X104320000Y-139819000D02*
X104320000Y-139969000D01*
G75*
G02*
X104245000Y-140044000I-75000J0D01*
G01*
X102845000Y-140044000D01*
G75*
G02*
X102770000Y-139969000I0J75000D01*
G01*
X102770000Y-139819000D01*
G75*
G02*
X102845000Y-139744000I75000J0D01*
G01*
X104245000Y-139744000D01*
G75*
G02*
X104320000Y-139819000I0J-75000D01*
G01*
G37*
G04 #@! TD.AperFunction*
G04 #@! TA.AperFunction,SMDPad,CuDef*
G36*
G01*
X105620000Y-141119000D02*
X105620000Y-142519000D01*
G75*
G02*
X105545000Y-142594000I-75000J0D01*
G01*
X105395000Y-142594000D01*
G75*
G02*
X105320000Y-142519000I0J75000D01*
G01*
X105320000Y-141119000D01*
G75*
G02*
X105395000Y-141044000I75000J0D01*
G01*
X105545000Y-141044000D01*
G75*
G02*
X105620000Y-141119000I0J-75000D01*
G01*
G37*
G04 #@! TD.AperFunction*
G04 #@! TA.AperFunction,SMDPad,CuDef*
G36*
G01*
X106120000Y-141119000D02*
X106120000Y-142519000D01*
G75*
G02*
X106045000Y-142594000I-75000J0D01*
G01*
X105895000Y-142594000D01*
G75*
G02*
X105820000Y-142519000I0J75000D01*
G01*
X105820000Y-141119000D01*
G75*
G02*
X105895000Y-141044000I75000J0D01*
G01*
X106045000Y-141044000D01*
G75*
G02*
X106120000Y-141119000I0J-75000D01*
G01*
G37*
G04 #@! TD.AperFunction*
G04 #@! TA.AperFunction,SMDPad,CuDef*
G36*
G01*
X106620000Y-141119000D02*
X106620000Y-142519000D01*
G75*
G02*
X106545000Y-142594000I-75000J0D01*
G01*
X106395000Y-142594000D01*
G75*
G02*
X106320000Y-142519000I0J75000D01*
G01*
X106320000Y-141119000D01*
G75*
G02*
X106395000Y-141044000I75000J0D01*
G01*
X106545000Y-141044000D01*
G75*
G02*
X106620000Y-141119000I0J-75000D01*
G01*
G37*
G04 #@! TD.AperFunction*
G04 #@! TA.AperFunction,SMDPad,CuDef*
G36*
G01*
X107120000Y-141119000D02*
X107120000Y-142519000D01*
G75*
G02*
X107045000Y-142594000I-75000J0D01*
G01*
X106895000Y-142594000D01*
G75*
G02*
X106820000Y-142519000I0J75000D01*
G01*
X106820000Y-141119000D01*
G75*
G02*
X106895000Y-141044000I75000J0D01*
G01*
X107045000Y-141044000D01*
G75*
G02*
X107120000Y-141119000I0J-75000D01*
G01*
G37*
G04 #@! TD.AperFunction*
G04 #@! TA.AperFunction,SMDPad,CuDef*
G36*
G01*
X107620000Y-141119000D02*
X107620000Y-142519000D01*
G75*
G02*
X107545000Y-142594000I-75000J0D01*
G01*
X107395000Y-142594000D01*
G75*
G02*
X107320000Y-142519000I0J75000D01*
G01*
X107320000Y-141119000D01*
G75*
G02*
X107395000Y-141044000I75000J0D01*
G01*
X107545000Y-141044000D01*
G75*
G02*
X107620000Y-141119000I0J-75000D01*
G01*
G37*
G04 #@! TD.AperFunction*
G04 #@! TA.AperFunction,SMDPad,CuDef*
G36*
G01*
X108120000Y-141119000D02*
X108120000Y-142519000D01*
G75*
G02*
X108045000Y-142594000I-75000J0D01*
G01*
X107895000Y-142594000D01*
G75*
G02*
X107820000Y-142519000I0J75000D01*
G01*
X107820000Y-141119000D01*
G75*
G02*
X107895000Y-141044000I75000J0D01*
G01*
X108045000Y-141044000D01*
G75*
G02*
X108120000Y-141119000I0J-75000D01*
G01*
G37*
G04 #@! TD.AperFunction*
G04 #@! TA.AperFunction,SMDPad,CuDef*
G36*
G01*
X108620000Y-141119000D02*
X108620000Y-142519000D01*
G75*
G02*
X108545000Y-142594000I-75000J0D01*
G01*
X108395000Y-142594000D01*
G75*
G02*
X108320000Y-142519000I0J75000D01*
G01*
X108320000Y-141119000D01*
G75*
G02*
X108395000Y-141044000I75000J0D01*
G01*
X108545000Y-141044000D01*
G75*
G02*
X108620000Y-141119000I0J-75000D01*
G01*
G37*
G04 #@! TD.AperFunction*
G04 #@! TA.AperFunction,SMDPad,CuDef*
G36*
G01*
X109120000Y-141119000D02*
X109120000Y-142519000D01*
G75*
G02*
X109045000Y-142594000I-75000J0D01*
G01*
X108895000Y-142594000D01*
G75*
G02*
X108820000Y-142519000I0J75000D01*
G01*
X108820000Y-141119000D01*
G75*
G02*
X108895000Y-141044000I75000J0D01*
G01*
X109045000Y-141044000D01*
G75*
G02*
X109120000Y-141119000I0J-75000D01*
G01*
G37*
G04 #@! TD.AperFunction*
G04 #@! TA.AperFunction,SMDPad,CuDef*
G36*
G01*
X109620000Y-141119000D02*
X109620000Y-142519000D01*
G75*
G02*
X109545000Y-142594000I-75000J0D01*
G01*
X109395000Y-142594000D01*
G75*
G02*
X109320000Y-142519000I0J75000D01*
G01*
X109320000Y-141119000D01*
G75*
G02*
X109395000Y-141044000I75000J0D01*
G01*
X109545000Y-141044000D01*
G75*
G02*
X109620000Y-141119000I0J-75000D01*
G01*
G37*
G04 #@! TD.AperFunction*
G04 #@! TA.AperFunction,SMDPad,CuDef*
G36*
G01*
X110120000Y-141119000D02*
X110120000Y-142519000D01*
G75*
G02*
X110045000Y-142594000I-75000J0D01*
G01*
X109895000Y-142594000D01*
G75*
G02*
X109820000Y-142519000I0J75000D01*
G01*
X109820000Y-141119000D01*
G75*
G02*
X109895000Y-141044000I75000J0D01*
G01*
X110045000Y-141044000D01*
G75*
G02*
X110120000Y-141119000I0J-75000D01*
G01*
G37*
G04 #@! TD.AperFunction*
G04 #@! TA.AperFunction,SMDPad,CuDef*
G36*
G01*
X110620000Y-141119000D02*
X110620000Y-142519000D01*
G75*
G02*
X110545000Y-142594000I-75000J0D01*
G01*
X110395000Y-142594000D01*
G75*
G02*
X110320000Y-142519000I0J75000D01*
G01*
X110320000Y-141119000D01*
G75*
G02*
X110395000Y-141044000I75000J0D01*
G01*
X110545000Y-141044000D01*
G75*
G02*
X110620000Y-141119000I0J-75000D01*
G01*
G37*
G04 #@! TD.AperFunction*
G04 #@! TA.AperFunction,SMDPad,CuDef*
G36*
G01*
X111120000Y-141119000D02*
X111120000Y-142519000D01*
G75*
G02*
X111045000Y-142594000I-75000J0D01*
G01*
X110895000Y-142594000D01*
G75*
G02*
X110820000Y-142519000I0J75000D01*
G01*
X110820000Y-141119000D01*
G75*
G02*
X110895000Y-141044000I75000J0D01*
G01*
X111045000Y-141044000D01*
G75*
G02*
X111120000Y-141119000I0J-75000D01*
G01*
G37*
G04 #@! TD.AperFunction*
G04 #@! TA.AperFunction,SMDPad,CuDef*
G36*
G01*
X111620000Y-141119000D02*
X111620000Y-142519000D01*
G75*
G02*
X111545000Y-142594000I-75000J0D01*
G01*
X111395000Y-142594000D01*
G75*
G02*
X111320000Y-142519000I0J75000D01*
G01*
X111320000Y-141119000D01*
G75*
G02*
X111395000Y-141044000I75000J0D01*
G01*
X111545000Y-141044000D01*
G75*
G02*
X111620000Y-141119000I0J-75000D01*
G01*
G37*
G04 #@! TD.AperFunction*
G04 #@! TA.AperFunction,SMDPad,CuDef*
G36*
G01*
X112120000Y-141119000D02*
X112120000Y-142519000D01*
G75*
G02*
X112045000Y-142594000I-75000J0D01*
G01*
X111895000Y-142594000D01*
G75*
G02*
X111820000Y-142519000I0J75000D01*
G01*
X111820000Y-141119000D01*
G75*
G02*
X111895000Y-141044000I75000J0D01*
G01*
X112045000Y-141044000D01*
G75*
G02*
X112120000Y-141119000I0J-75000D01*
G01*
G37*
G04 #@! TD.AperFunction*
G04 #@! TA.AperFunction,SMDPad,CuDef*
G36*
G01*
X112620000Y-141119000D02*
X112620000Y-142519000D01*
G75*
G02*
X112545000Y-142594000I-75000J0D01*
G01*
X112395000Y-142594000D01*
G75*
G02*
X112320000Y-142519000I0J75000D01*
G01*
X112320000Y-141119000D01*
G75*
G02*
X112395000Y-141044000I75000J0D01*
G01*
X112545000Y-141044000D01*
G75*
G02*
X112620000Y-141119000I0J-75000D01*
G01*
G37*
G04 #@! TD.AperFunction*
G04 #@! TA.AperFunction,SMDPad,CuDef*
G36*
G01*
X113120000Y-141119000D02*
X113120000Y-142519000D01*
G75*
G02*
X113045000Y-142594000I-75000J0D01*
G01*
X112895000Y-142594000D01*
G75*
G02*
X112820000Y-142519000I0J75000D01*
G01*
X112820000Y-141119000D01*
G75*
G02*
X112895000Y-141044000I75000J0D01*
G01*
X113045000Y-141044000D01*
G75*
G02*
X113120000Y-141119000I0J-75000D01*
G01*
G37*
G04 #@! TD.AperFunction*
D15*
X99314000Y-102464000D03*
D16*
X99314000Y-96164000D03*
X97014000Y-96164000D03*
X101614000Y-96164000D03*
D17*
X109916000Y-91948000D03*
X108966000Y-91948000D03*
X108016000Y-91948000D03*
X108016000Y-94148000D03*
X109916000Y-94148000D03*
G04 #@! TA.AperFunction,SMDPad,CuDef*
G36*
G01*
X122913000Y-120502000D02*
X123213000Y-120502000D01*
G75*
G02*
X123363000Y-120652000I0J-150000D01*
G01*
X123363000Y-122002000D01*
G75*
G02*
X123213000Y-122152000I-150000J0D01*
G01*
X122913000Y-122152000D01*
G75*
G02*
X122763000Y-122002000I0J150000D01*
G01*
X122763000Y-120652000D01*
G75*
G02*
X122913000Y-120502000I150000J0D01*
G01*
G37*
G04 #@! TD.AperFunction*
G04 #@! TA.AperFunction,SMDPad,CuDef*
G36*
G01*
X121643000Y-120502000D02*
X121943000Y-120502000D01*
G75*
G02*
X122093000Y-120652000I0J-150000D01*
G01*
X122093000Y-122002000D01*
G75*
G02*
X121943000Y-122152000I-150000J0D01*
G01*
X121643000Y-122152000D01*
G75*
G02*
X121493000Y-122002000I0J150000D01*
G01*
X121493000Y-120652000D01*
G75*
G02*
X121643000Y-120502000I150000J0D01*
G01*
G37*
G04 #@! TD.AperFunction*
G04 #@! TA.AperFunction,SMDPad,CuDef*
G36*
G01*
X120373000Y-120502000D02*
X120673000Y-120502000D01*
G75*
G02*
X120823000Y-120652000I0J-150000D01*
G01*
X120823000Y-122002000D01*
G75*
G02*
X120673000Y-122152000I-150000J0D01*
G01*
X120373000Y-122152000D01*
G75*
G02*
X120223000Y-122002000I0J150000D01*
G01*
X120223000Y-120652000D01*
G75*
G02*
X120373000Y-120502000I150000J0D01*
G01*
G37*
G04 #@! TD.AperFunction*
G04 #@! TA.AperFunction,SMDPad,CuDef*
G36*
G01*
X119103000Y-120502000D02*
X119403000Y-120502000D01*
G75*
G02*
X119553000Y-120652000I0J-150000D01*
G01*
X119553000Y-122002000D01*
G75*
G02*
X119403000Y-122152000I-150000J0D01*
G01*
X119103000Y-122152000D01*
G75*
G02*
X118953000Y-122002000I0J150000D01*
G01*
X118953000Y-120652000D01*
G75*
G02*
X119103000Y-120502000I150000J0D01*
G01*
G37*
G04 #@! TD.AperFunction*
G04 #@! TA.AperFunction,SMDPad,CuDef*
G36*
G01*
X119103000Y-125752000D02*
X119403000Y-125752000D01*
G75*
G02*
X119553000Y-125902000I0J-150000D01*
G01*
X119553000Y-127252000D01*
G75*
G02*
X119403000Y-127402000I-150000J0D01*
G01*
X119103000Y-127402000D01*
G75*
G02*
X118953000Y-127252000I0J150000D01*
G01*
X118953000Y-125902000D01*
G75*
G02*
X119103000Y-125752000I150000J0D01*
G01*
G37*
G04 #@! TD.AperFunction*
G04 #@! TA.AperFunction,SMDPad,CuDef*
G36*
G01*
X120373000Y-125752000D02*
X120673000Y-125752000D01*
G75*
G02*
X120823000Y-125902000I0J-150000D01*
G01*
X120823000Y-127252000D01*
G75*
G02*
X120673000Y-127402000I-150000J0D01*
G01*
X120373000Y-127402000D01*
G75*
G02*
X120223000Y-127252000I0J150000D01*
G01*
X120223000Y-125902000D01*
G75*
G02*
X120373000Y-125752000I150000J0D01*
G01*
G37*
G04 #@! TD.AperFunction*
G04 #@! TA.AperFunction,SMDPad,CuDef*
G36*
G01*
X121643000Y-125752000D02*
X121943000Y-125752000D01*
G75*
G02*
X122093000Y-125902000I0J-150000D01*
G01*
X122093000Y-127252000D01*
G75*
G02*
X121943000Y-127402000I-150000J0D01*
G01*
X121643000Y-127402000D01*
G75*
G02*
X121493000Y-127252000I0J150000D01*
G01*
X121493000Y-125902000D01*
G75*
G02*
X121643000Y-125752000I150000J0D01*
G01*
G37*
G04 #@! TD.AperFunction*
G04 #@! TA.AperFunction,SMDPad,CuDef*
G36*
G01*
X122913000Y-125752000D02*
X123213000Y-125752000D01*
G75*
G02*
X123363000Y-125902000I0J-150000D01*
G01*
X123363000Y-127252000D01*
G75*
G02*
X123213000Y-127402000I-150000J0D01*
G01*
X122913000Y-127402000D01*
G75*
G02*
X122763000Y-127252000I0J150000D01*
G01*
X122763000Y-125902000D01*
G75*
G02*
X122913000Y-125752000I150000J0D01*
G01*
G37*
G04 #@! TD.AperFunction*
D18*
X105220000Y-109284000D03*
X105220000Y-110084000D03*
X105220000Y-110884000D03*
X105220000Y-111684000D03*
X105220000Y-112484000D03*
X105220000Y-113284000D03*
X105220000Y-114084000D03*
X105220000Y-114884000D03*
X105220000Y-115684000D03*
X105220000Y-116484000D03*
X105220000Y-117284000D03*
X106020000Y-109284000D03*
X106020000Y-110084000D03*
X106020000Y-110884000D03*
X106020000Y-111684000D03*
X106020000Y-112484000D03*
X106020000Y-113284000D03*
X106020000Y-114084000D03*
X106020000Y-114884000D03*
X106020000Y-115684000D03*
X106020000Y-116484000D03*
X106020000Y-117284000D03*
X106820000Y-109284000D03*
X106820000Y-110084000D03*
X106820000Y-110884000D03*
X106820000Y-111684000D03*
X106820000Y-112484000D03*
X106820000Y-113284000D03*
X106820000Y-114084000D03*
X106820000Y-114884000D03*
X106820000Y-115684000D03*
X106820000Y-116484000D03*
X106820000Y-117284000D03*
X107620000Y-109284000D03*
X107620000Y-110084000D03*
X107620000Y-110884000D03*
X107620000Y-111684000D03*
X107620000Y-112484000D03*
X107620000Y-113284000D03*
X107620000Y-114084000D03*
X107620000Y-114884000D03*
X107620000Y-115684000D03*
X107620000Y-116484000D03*
X107620000Y-117284000D03*
X108420000Y-109284000D03*
X108420000Y-110084000D03*
X108420000Y-110884000D03*
X108420000Y-111684000D03*
X108420000Y-112484000D03*
X108420000Y-113284000D03*
X108420000Y-114084000D03*
X108420000Y-114884000D03*
X108420000Y-115684000D03*
X108420000Y-116484000D03*
X108420000Y-117284000D03*
X109220000Y-109284000D03*
X109220000Y-110084000D03*
X109220000Y-110884000D03*
X109220000Y-111684000D03*
X109220000Y-112484000D03*
X109220000Y-113284000D03*
X109220000Y-114084000D03*
X109220000Y-114884000D03*
X109220000Y-115684000D03*
X109220000Y-116484000D03*
X109220000Y-117284000D03*
X110020000Y-109284000D03*
X110020000Y-110084000D03*
X110020000Y-110884000D03*
X110020000Y-111684000D03*
X110020000Y-112484000D03*
X110020000Y-113284000D03*
X110020000Y-114084000D03*
X110020000Y-114884000D03*
X110020000Y-115684000D03*
X110020000Y-116484000D03*
X110020000Y-117284000D03*
X110820000Y-109284000D03*
X110820000Y-110084000D03*
X110820000Y-110884000D03*
X110820000Y-111684000D03*
X110820000Y-112484000D03*
X110820000Y-113284000D03*
X110820000Y-114084000D03*
X110820000Y-114884000D03*
X110820000Y-115684000D03*
X110820000Y-116484000D03*
X110820000Y-117284000D03*
X111620000Y-109284000D03*
X111620000Y-110084000D03*
X111620000Y-110884000D03*
X111620000Y-111684000D03*
X111620000Y-112484000D03*
X111620000Y-113284000D03*
X111620000Y-114084000D03*
X111620000Y-114884000D03*
X111620000Y-115684000D03*
X111620000Y-116484000D03*
X111620000Y-117284000D03*
X112420000Y-109284000D03*
X112420000Y-110084000D03*
X112420000Y-110884000D03*
X112420000Y-111684000D03*
X112420000Y-112484000D03*
X112420000Y-113284000D03*
X112420000Y-114084000D03*
X112420000Y-114884000D03*
X112420000Y-115684000D03*
X112420000Y-116484000D03*
X112420000Y-117284000D03*
X113220000Y-109284000D03*
X113220000Y-110084000D03*
X113220000Y-110884000D03*
X113220000Y-111684000D03*
X113220000Y-112484000D03*
X113220000Y-113284000D03*
X113220000Y-114084000D03*
X113220000Y-114884000D03*
X113220000Y-115684000D03*
X113220000Y-116484000D03*
X113220000Y-117284000D03*
D19*
X108330000Y-125036000D03*
X108330000Y-122936000D03*
X106680000Y-122936000D03*
X106680000Y-125036000D03*
D20*
X112742000Y-145225000D03*
X114842000Y-145225000D03*
X114842000Y-146875000D03*
X112742000Y-146875000D03*
G04 #@! TA.AperFunction,SMDPad,CuDef*
G36*
G01*
X99819750Y-138526000D02*
X100332250Y-138526000D01*
G75*
G02*
X100551000Y-138744750I0J-218750D01*
G01*
X100551000Y-139182250D01*
G75*
G02*
X100332250Y-139401000I-218750J0D01*
G01*
X99819750Y-139401000D01*
G75*
G02*
X99601000Y-139182250I0J218750D01*
G01*
X99601000Y-138744750D01*
G75*
G02*
X99819750Y-138526000I218750J0D01*
G01*
G37*
G04 #@! TD.AperFunction*
G04 #@! TA.AperFunction,SMDPad,CuDef*
G36*
G01*
X99819750Y-136951000D02*
X100332250Y-136951000D01*
G75*
G02*
X100551000Y-137169750I0J-218750D01*
G01*
X100551000Y-137607250D01*
G75*
G02*
X100332250Y-137826000I-218750J0D01*
G01*
X99819750Y-137826000D01*
G75*
G02*
X99601000Y-137607250I0J218750D01*
G01*
X99601000Y-137169750D01*
G75*
G02*
X99819750Y-136951000I218750J0D01*
G01*
G37*
G04 #@! TD.AperFunction*
G04 #@! TA.AperFunction,SMDPad,CuDef*
G36*
G01*
X107030000Y-128018250D02*
X107030000Y-127505750D01*
G75*
G02*
X107248750Y-127287000I218750J0D01*
G01*
X107686250Y-127287000D01*
G75*
G02*
X107905000Y-127505750I0J-218750D01*
G01*
X107905000Y-128018250D01*
G75*
G02*
X107686250Y-128237000I-218750J0D01*
G01*
X107248750Y-128237000D01*
G75*
G02*
X107030000Y-128018250I0J218750D01*
G01*
G37*
G04 #@! TD.AperFunction*
G04 #@! TA.AperFunction,SMDPad,CuDef*
G36*
G01*
X105455000Y-128018250D02*
X105455000Y-127505750D01*
G75*
G02*
X105673750Y-127287000I218750J0D01*
G01*
X106111250Y-127287000D01*
G75*
G02*
X106330000Y-127505750I0J-218750D01*
G01*
X106330000Y-128018250D01*
G75*
G02*
X106111250Y-128237000I-218750J0D01*
G01*
X105673750Y-128237000D01*
G75*
G02*
X105455000Y-128018250I0J218750D01*
G01*
G37*
G04 #@! TD.AperFunction*
G04 #@! TA.AperFunction,SMDPad,CuDef*
G36*
G01*
X105201000Y-144274250D02*
X105201000Y-143761750D01*
G75*
G02*
X105419750Y-143543000I218750J0D01*
G01*
X105857250Y-143543000D01*
G75*
G02*
X106076000Y-143761750I0J-218750D01*
G01*
X106076000Y-144274250D01*
G75*
G02*
X105857250Y-144493000I-218750J0D01*
G01*
X105419750Y-144493000D01*
G75*
G02*
X105201000Y-144274250I0J218750D01*
G01*
G37*
G04 #@! TD.AperFunction*
G04 #@! TA.AperFunction,SMDPad,CuDef*
G36*
G01*
X106776000Y-144274250D02*
X106776000Y-143761750D01*
G75*
G02*
X106994750Y-143543000I218750J0D01*
G01*
X107432250Y-143543000D01*
G75*
G02*
X107651000Y-143761750I0J-218750D01*
G01*
X107651000Y-144274250D01*
G75*
G02*
X107432250Y-144493000I-218750J0D01*
G01*
X106994750Y-144493000D01*
G75*
G02*
X106776000Y-144274250I0J218750D01*
G01*
G37*
G04 #@! TD.AperFunction*
G04 #@! TA.AperFunction,SMDPad,CuDef*
G36*
G01*
X97948000Y-142999750D02*
X97948000Y-143512250D01*
G75*
G02*
X97729250Y-143731000I-218750J0D01*
G01*
X97291750Y-143731000D01*
G75*
G02*
X97073000Y-143512250I0J218750D01*
G01*
X97073000Y-142999750D01*
G75*
G02*
X97291750Y-142781000I218750J0D01*
G01*
X97729250Y-142781000D01*
G75*
G02*
X97948000Y-142999750I0J-218750D01*
G01*
G37*
G04 #@! TD.AperFunction*
G04 #@! TA.AperFunction,SMDPad,CuDef*
G36*
G01*
X99523000Y-142999750D02*
X99523000Y-143512250D01*
G75*
G02*
X99304250Y-143731000I-218750J0D01*
G01*
X98866750Y-143731000D01*
G75*
G02*
X98648000Y-143512250I0J218750D01*
G01*
X98648000Y-142999750D01*
G75*
G02*
X98866750Y-142781000I218750J0D01*
G01*
X99304250Y-142781000D01*
G75*
G02*
X99523000Y-142999750I0J-218750D01*
G01*
G37*
G04 #@! TD.AperFunction*
G04 #@! TA.AperFunction,SMDPad,CuDef*
G36*
G01*
X118366250Y-150323000D02*
X117853750Y-150323000D01*
G75*
G02*
X117635000Y-150104250I0J218750D01*
G01*
X117635000Y-149666750D01*
G75*
G02*
X117853750Y-149448000I218750J0D01*
G01*
X118366250Y-149448000D01*
G75*
G02*
X118585000Y-149666750I0J-218750D01*
G01*
X118585000Y-150104250D01*
G75*
G02*
X118366250Y-150323000I-218750J0D01*
G01*
G37*
G04 #@! TD.AperFunction*
G04 #@! TA.AperFunction,SMDPad,CuDef*
G36*
G01*
X118366250Y-148748000D02*
X117853750Y-148748000D01*
G75*
G02*
X117635000Y-148529250I0J218750D01*
G01*
X117635000Y-148091750D01*
G75*
G02*
X117853750Y-147873000I218750J0D01*
G01*
X118366250Y-147873000D01*
G75*
G02*
X118585000Y-148091750I0J-218750D01*
G01*
X118585000Y-148529250D01*
G75*
G02*
X118366250Y-148748000I-218750J0D01*
G01*
G37*
G04 #@! TD.AperFunction*
G04 #@! TA.AperFunction,SMDPad,CuDef*
G36*
G01*
X124970250Y-133254000D02*
X124457750Y-133254000D01*
G75*
G02*
X124239000Y-133035250I0J218750D01*
G01*
X124239000Y-132597750D01*
G75*
G02*
X124457750Y-132379000I218750J0D01*
G01*
X124970250Y-132379000D01*
G75*
G02*
X125189000Y-132597750I0J-218750D01*
G01*
X125189000Y-133035250D01*
G75*
G02*
X124970250Y-133254000I-218750J0D01*
G01*
G37*
G04 #@! TD.AperFunction*
G04 #@! TA.AperFunction,SMDPad,CuDef*
G36*
G01*
X124970250Y-134829000D02*
X124457750Y-134829000D01*
G75*
G02*
X124239000Y-134610250I0J218750D01*
G01*
X124239000Y-134172750D01*
G75*
G02*
X124457750Y-133954000I218750J0D01*
G01*
X124970250Y-133954000D01*
G75*
G02*
X125189000Y-134172750I0J-218750D01*
G01*
X125189000Y-134610250D01*
G75*
G02*
X124970250Y-134829000I-218750J0D01*
G01*
G37*
G04 #@! TD.AperFunction*
G04 #@! TA.AperFunction,SMDPad,CuDef*
G36*
G01*
X100332250Y-131781000D02*
X99819750Y-131781000D01*
G75*
G02*
X99601000Y-131562250I0J218750D01*
G01*
X99601000Y-131124750D01*
G75*
G02*
X99819750Y-130906000I218750J0D01*
G01*
X100332250Y-130906000D01*
G75*
G02*
X100551000Y-131124750I0J-218750D01*
G01*
X100551000Y-131562250D01*
G75*
G02*
X100332250Y-131781000I-218750J0D01*
G01*
G37*
G04 #@! TD.AperFunction*
G04 #@! TA.AperFunction,SMDPad,CuDef*
G36*
G01*
X100332250Y-130206000D02*
X99819750Y-130206000D01*
G75*
G02*
X99601000Y-129987250I0J218750D01*
G01*
X99601000Y-129549750D01*
G75*
G02*
X99819750Y-129331000I218750J0D01*
G01*
X100332250Y-129331000D01*
G75*
G02*
X100551000Y-129549750I0J-218750D01*
G01*
X100551000Y-129987250D01*
G75*
G02*
X100332250Y-130206000I-218750J0D01*
G01*
G37*
G04 #@! TD.AperFunction*
G04 #@! TA.AperFunction,SMDPad,CuDef*
G36*
G01*
X117853750Y-145384000D02*
X118366250Y-145384000D01*
G75*
G02*
X118585000Y-145602750I0J-218750D01*
G01*
X118585000Y-146040250D01*
G75*
G02*
X118366250Y-146259000I-218750J0D01*
G01*
X117853750Y-146259000D01*
G75*
G02*
X117635000Y-146040250I0J218750D01*
G01*
X117635000Y-145602750D01*
G75*
G02*
X117853750Y-145384000I218750J0D01*
G01*
G37*
G04 #@! TD.AperFunction*
G04 #@! TA.AperFunction,SMDPad,CuDef*
G36*
G01*
X117853750Y-143809000D02*
X118366250Y-143809000D01*
G75*
G02*
X118585000Y-144027750I0J-218750D01*
G01*
X118585000Y-144465250D01*
G75*
G02*
X118366250Y-144684000I-218750J0D01*
G01*
X117853750Y-144684000D01*
G75*
G02*
X117635000Y-144465250I0J218750D01*
G01*
X117635000Y-144027750D01*
G75*
G02*
X117853750Y-143809000I218750J0D01*
G01*
G37*
G04 #@! TD.AperFunction*
G04 #@! TA.AperFunction,SMDPad,CuDef*
G36*
G01*
X118366250Y-142449000D02*
X117853750Y-142449000D01*
G75*
G02*
X117635000Y-142230250I0J218750D01*
G01*
X117635000Y-141792750D01*
G75*
G02*
X117853750Y-141574000I218750J0D01*
G01*
X118366250Y-141574000D01*
G75*
G02*
X118585000Y-141792750I0J-218750D01*
G01*
X118585000Y-142230250D01*
G75*
G02*
X118366250Y-142449000I-218750J0D01*
G01*
G37*
G04 #@! TD.AperFunction*
G04 #@! TA.AperFunction,SMDPad,CuDef*
G36*
G01*
X118366250Y-140874000D02*
X117853750Y-140874000D01*
G75*
G02*
X117635000Y-140655250I0J218750D01*
G01*
X117635000Y-140217750D01*
G75*
G02*
X117853750Y-139999000I218750J0D01*
G01*
X118366250Y-139999000D01*
G75*
G02*
X118585000Y-140217750I0J-218750D01*
G01*
X118585000Y-140655250D01*
G75*
G02*
X118366250Y-140874000I-218750J0D01*
G01*
G37*
G04 #@! TD.AperFunction*
G04 #@! TA.AperFunction,SMDPad,CuDef*
G36*
G01*
X125219750Y-124302000D02*
X125732250Y-124302000D01*
G75*
G02*
X125951000Y-124520750I0J-218750D01*
G01*
X125951000Y-124958250D01*
G75*
G02*
X125732250Y-125177000I-218750J0D01*
G01*
X125219750Y-125177000D01*
G75*
G02*
X125001000Y-124958250I0J218750D01*
G01*
X125001000Y-124520750D01*
G75*
G02*
X125219750Y-124302000I218750J0D01*
G01*
G37*
G04 #@! TD.AperFunction*
G04 #@! TA.AperFunction,SMDPad,CuDef*
G36*
G01*
X125219750Y-122727000D02*
X125732250Y-122727000D01*
G75*
G02*
X125951000Y-122945750I0J-218750D01*
G01*
X125951000Y-123383250D01*
G75*
G02*
X125732250Y-123602000I-218750J0D01*
G01*
X125219750Y-123602000D01*
G75*
G02*
X125001000Y-123383250I0J218750D01*
G01*
X125001000Y-122945750D01*
G75*
G02*
X125219750Y-122727000I218750J0D01*
G01*
G37*
G04 #@! TD.AperFunction*
G04 #@! TA.AperFunction,SMDPad,CuDef*
G36*
G01*
X118776000Y-113027750D02*
X118776000Y-113540250D01*
G75*
G02*
X118557250Y-113759000I-218750J0D01*
G01*
X118119750Y-113759000D01*
G75*
G02*
X117901000Y-113540250I0J218750D01*
G01*
X117901000Y-113027750D01*
G75*
G02*
X118119750Y-112809000I218750J0D01*
G01*
X118557250Y-112809000D01*
G75*
G02*
X118776000Y-113027750I0J-218750D01*
G01*
G37*
G04 #@! TD.AperFunction*
G04 #@! TA.AperFunction,SMDPad,CuDef*
G36*
G01*
X120351000Y-113027750D02*
X120351000Y-113540250D01*
G75*
G02*
X120132250Y-113759000I-218750J0D01*
G01*
X119694750Y-113759000D01*
G75*
G02*
X119476000Y-113540250I0J218750D01*
G01*
X119476000Y-113027750D01*
G75*
G02*
X119694750Y-112809000I218750J0D01*
G01*
X120132250Y-112809000D01*
G75*
G02*
X120351000Y-113027750I0J-218750D01*
G01*
G37*
G04 #@! TD.AperFunction*
G04 #@! TA.AperFunction,SMDPad,CuDef*
G36*
G01*
X118366250Y-133254000D02*
X117853750Y-133254000D01*
G75*
G02*
X117635000Y-133035250I0J218750D01*
G01*
X117635000Y-132597750D01*
G75*
G02*
X117853750Y-132379000I218750J0D01*
G01*
X118366250Y-132379000D01*
G75*
G02*
X118585000Y-132597750I0J-218750D01*
G01*
X118585000Y-133035250D01*
G75*
G02*
X118366250Y-133254000I-218750J0D01*
G01*
G37*
G04 #@! TD.AperFunction*
G04 #@! TA.AperFunction,SMDPad,CuDef*
G36*
G01*
X118366250Y-134829000D02*
X117853750Y-134829000D01*
G75*
G02*
X117635000Y-134610250I0J218750D01*
G01*
X117635000Y-134172750D01*
G75*
G02*
X117853750Y-133954000I218750J0D01*
G01*
X118366250Y-133954000D01*
G75*
G02*
X118585000Y-134172750I0J-218750D01*
G01*
X118585000Y-134610250D01*
G75*
G02*
X118366250Y-134829000I-218750J0D01*
G01*
G37*
G04 #@! TD.AperFunction*
G04 #@! TA.AperFunction,SMDPad,CuDef*
G36*
G01*
X117853750Y-136189000D02*
X118366250Y-136189000D01*
G75*
G02*
X118585000Y-136407750I0J-218750D01*
G01*
X118585000Y-136845250D01*
G75*
G02*
X118366250Y-137064000I-218750J0D01*
G01*
X117853750Y-137064000D01*
G75*
G02*
X117635000Y-136845250I0J218750D01*
G01*
X117635000Y-136407750D01*
G75*
G02*
X117853750Y-136189000I218750J0D01*
G01*
G37*
G04 #@! TD.AperFunction*
G04 #@! TA.AperFunction,SMDPad,CuDef*
G36*
G01*
X117853750Y-137764000D02*
X118366250Y-137764000D01*
G75*
G02*
X118585000Y-137982750I0J-218750D01*
G01*
X118585000Y-138420250D01*
G75*
G02*
X118366250Y-138639000I-218750J0D01*
G01*
X117853750Y-138639000D01*
G75*
G02*
X117635000Y-138420250I0J218750D01*
G01*
X117635000Y-137982750D01*
G75*
G02*
X117853750Y-137764000I218750J0D01*
G01*
G37*
G04 #@! TD.AperFunction*
G04 #@! TA.AperFunction,SMDPad,CuDef*
G36*
G01*
X97284250Y-92385500D02*
X96771750Y-92385500D01*
G75*
G02*
X96553000Y-92166750I0J218750D01*
G01*
X96553000Y-91729250D01*
G75*
G02*
X96771750Y-91510500I218750J0D01*
G01*
X97284250Y-91510500D01*
G75*
G02*
X97503000Y-91729250I0J-218750D01*
G01*
X97503000Y-92166750D01*
G75*
G02*
X97284250Y-92385500I-218750J0D01*
G01*
G37*
G04 #@! TD.AperFunction*
G04 #@! TA.AperFunction,SMDPad,CuDef*
G36*
G01*
X97284250Y-93960500D02*
X96771750Y-93960500D01*
G75*
G02*
X96553000Y-93741750I0J218750D01*
G01*
X96553000Y-93304250D01*
G75*
G02*
X96771750Y-93085500I218750J0D01*
G01*
X97284250Y-93085500D01*
G75*
G02*
X97503000Y-93304250I0J-218750D01*
G01*
X97503000Y-93741750D01*
G75*
G02*
X97284250Y-93960500I-218750J0D01*
G01*
G37*
G04 #@! TD.AperFunction*
G04 #@! TA.AperFunction,SMDPad,CuDef*
G36*
G01*
X104899750Y-91510500D02*
X105412250Y-91510500D01*
G75*
G02*
X105631000Y-91729250I0J-218750D01*
G01*
X105631000Y-92166750D01*
G75*
G02*
X105412250Y-92385500I-218750J0D01*
G01*
X104899750Y-92385500D01*
G75*
G02*
X104681000Y-92166750I0J218750D01*
G01*
X104681000Y-91729250D01*
G75*
G02*
X104899750Y-91510500I218750J0D01*
G01*
G37*
G04 #@! TD.AperFunction*
G04 #@! TA.AperFunction,SMDPad,CuDef*
G36*
G01*
X104899750Y-93085500D02*
X105412250Y-93085500D01*
G75*
G02*
X105631000Y-93304250I0J-218750D01*
G01*
X105631000Y-93741750D01*
G75*
G02*
X105412250Y-93960500I-218750J0D01*
G01*
X104899750Y-93960500D01*
G75*
G02*
X104681000Y-93741750I0J218750D01*
G01*
X104681000Y-93304250D01*
G75*
G02*
X104899750Y-93085500I218750J0D01*
G01*
G37*
G04 #@! TD.AperFunction*
G04 #@! TA.AperFunction,SMDPad,CuDef*
G36*
G01*
X101343750Y-91510500D02*
X101856250Y-91510500D01*
G75*
G02*
X102075000Y-91729250I0J-218750D01*
G01*
X102075000Y-92166750D01*
G75*
G02*
X101856250Y-92385500I-218750J0D01*
G01*
X101343750Y-92385500D01*
G75*
G02*
X101125000Y-92166750I0J218750D01*
G01*
X101125000Y-91729250D01*
G75*
G02*
X101343750Y-91510500I218750J0D01*
G01*
G37*
G04 #@! TD.AperFunction*
G04 #@! TA.AperFunction,SMDPad,CuDef*
G36*
G01*
X101343750Y-93085500D02*
X101856250Y-93085500D01*
G75*
G02*
X102075000Y-93304250I0J-218750D01*
G01*
X102075000Y-93741750D01*
G75*
G02*
X101856250Y-93960500I-218750J0D01*
G01*
X101343750Y-93960500D01*
G75*
G02*
X101125000Y-93741750I0J218750D01*
G01*
X101125000Y-93304250D01*
G75*
G02*
X101343750Y-93085500I218750J0D01*
G01*
G37*
G04 #@! TD.AperFunction*
G04 #@! TA.AperFunction,SMDPad,CuDef*
G36*
G01*
X113032250Y-93960500D02*
X112519750Y-93960500D01*
G75*
G02*
X112301000Y-93741750I0J218750D01*
G01*
X112301000Y-93304250D01*
G75*
G02*
X112519750Y-93085500I218750J0D01*
G01*
X113032250Y-93085500D01*
G75*
G02*
X113251000Y-93304250I0J-218750D01*
G01*
X113251000Y-93741750D01*
G75*
G02*
X113032250Y-93960500I-218750J0D01*
G01*
G37*
G04 #@! TD.AperFunction*
G04 #@! TA.AperFunction,SMDPad,CuDef*
G36*
G01*
X113032250Y-92385500D02*
X112519750Y-92385500D01*
G75*
G02*
X112301000Y-92166750I0J218750D01*
G01*
X112301000Y-91729250D01*
G75*
G02*
X112519750Y-91510500I218750J0D01*
G01*
X113032250Y-91510500D01*
G75*
G02*
X113251000Y-91729250I0J-218750D01*
G01*
X113251000Y-92166750D01*
G75*
G02*
X113032250Y-92385500I-218750J0D01*
G01*
G37*
G04 #@! TD.AperFunction*
G04 #@! TA.AperFunction,SMDPad,CuDef*
G36*
G01*
X99664000Y-125478250D02*
X99664000Y-124965750D01*
G75*
G02*
X99882750Y-124747000I218750J0D01*
G01*
X100320250Y-124747000D01*
G75*
G02*
X100539000Y-124965750I0J-218750D01*
G01*
X100539000Y-125478250D01*
G75*
G02*
X100320250Y-125697000I-218750J0D01*
G01*
X99882750Y-125697000D01*
G75*
G02*
X99664000Y-125478250I0J218750D01*
G01*
G37*
G04 #@! TD.AperFunction*
G04 #@! TA.AperFunction,SMDPad,CuDef*
G36*
G01*
X98089000Y-125478250D02*
X98089000Y-124965750D01*
G75*
G02*
X98307750Y-124747000I218750J0D01*
G01*
X98745250Y-124747000D01*
G75*
G02*
X98964000Y-124965750I0J-218750D01*
G01*
X98964000Y-125478250D01*
G75*
G02*
X98745250Y-125697000I-218750J0D01*
G01*
X98307750Y-125697000D01*
G75*
G02*
X98089000Y-125478250I0J218750D01*
G01*
G37*
G04 #@! TD.AperFunction*
G04 #@! TA.AperFunction,SMDPad,CuDef*
G36*
G01*
X113747000Y-96009750D02*
X113747000Y-96522250D01*
G75*
G02*
X113528250Y-96741000I-218750J0D01*
G01*
X113090750Y-96741000D01*
G75*
G02*
X112872000Y-96522250I0J218750D01*
G01*
X112872000Y-96009750D01*
G75*
G02*
X113090750Y-95791000I218750J0D01*
G01*
X113528250Y-95791000D01*
G75*
G02*
X113747000Y-96009750I0J-218750D01*
G01*
G37*
G04 #@! TD.AperFunction*
G04 #@! TA.AperFunction,SMDPad,CuDef*
G36*
G01*
X112172000Y-96009750D02*
X112172000Y-96522250D01*
G75*
G02*
X111953250Y-96741000I-218750J0D01*
G01*
X111515750Y-96741000D01*
G75*
G02*
X111297000Y-96522250I0J218750D01*
G01*
X111297000Y-96009750D01*
G75*
G02*
X111515750Y-95791000I218750J0D01*
G01*
X111953250Y-95791000D01*
G75*
G02*
X112172000Y-96009750I0J-218750D01*
G01*
G37*
G04 #@! TD.AperFunction*
G04 #@! TA.AperFunction,SMDPad,CuDef*
G36*
G01*
X99664000Y-122938250D02*
X99664000Y-122425750D01*
G75*
G02*
X99882750Y-122207000I218750J0D01*
G01*
X100320250Y-122207000D01*
G75*
G02*
X100539000Y-122425750I0J-218750D01*
G01*
X100539000Y-122938250D01*
G75*
G02*
X100320250Y-123157000I-218750J0D01*
G01*
X99882750Y-123157000D01*
G75*
G02*
X99664000Y-122938250I0J218750D01*
G01*
G37*
G04 #@! TD.AperFunction*
G04 #@! TA.AperFunction,SMDPad,CuDef*
G36*
G01*
X98089000Y-122938250D02*
X98089000Y-122425750D01*
G75*
G02*
X98307750Y-122207000I218750J0D01*
G01*
X98745250Y-122207000D01*
G75*
G02*
X98964000Y-122425750I0J-218750D01*
G01*
X98964000Y-122938250D01*
G75*
G02*
X98745250Y-123157000I-218750J0D01*
G01*
X98307750Y-123157000D01*
G75*
G02*
X98089000Y-122938250I0J218750D01*
G01*
G37*
G04 #@! TD.AperFunction*
G04 #@! TA.AperFunction,SMDPad,CuDef*
G36*
G01*
X113747000Y-98295750D02*
X113747000Y-98808250D01*
G75*
G02*
X113528250Y-99027000I-218750J0D01*
G01*
X113090750Y-99027000D01*
G75*
G02*
X112872000Y-98808250I0J218750D01*
G01*
X112872000Y-98295750D01*
G75*
G02*
X113090750Y-98077000I218750J0D01*
G01*
X113528250Y-98077000D01*
G75*
G02*
X113747000Y-98295750I0J-218750D01*
G01*
G37*
G04 #@! TD.AperFunction*
G04 #@! TA.AperFunction,SMDPad,CuDef*
G36*
G01*
X112172000Y-98295750D02*
X112172000Y-98808250D01*
G75*
G02*
X111953250Y-99027000I-218750J0D01*
G01*
X111515750Y-99027000D01*
G75*
G02*
X111297000Y-98808250I0J218750D01*
G01*
X111297000Y-98295750D01*
G75*
G02*
X111515750Y-98077000I218750J0D01*
G01*
X111953250Y-98077000D01*
G75*
G02*
X112172000Y-98295750I0J-218750D01*
G01*
G37*
G04 #@! TD.AperFunction*
G04 #@! TA.AperFunction,SMDPad,CuDef*
G36*
G01*
X103888250Y-107117500D02*
X103375750Y-107117500D01*
G75*
G02*
X103157000Y-106898750I0J218750D01*
G01*
X103157000Y-106461250D01*
G75*
G02*
X103375750Y-106242500I218750J0D01*
G01*
X103888250Y-106242500D01*
G75*
G02*
X104107000Y-106461250I0J-218750D01*
G01*
X104107000Y-106898750D01*
G75*
G02*
X103888250Y-107117500I-218750J0D01*
G01*
G37*
G04 #@! TD.AperFunction*
G04 #@! TA.AperFunction,SMDPad,CuDef*
G36*
G01*
X103888250Y-105542500D02*
X103375750Y-105542500D01*
G75*
G02*
X103157000Y-105323750I0J218750D01*
G01*
X103157000Y-104886250D01*
G75*
G02*
X103375750Y-104667500I218750J0D01*
G01*
X103888250Y-104667500D01*
G75*
G02*
X104107000Y-104886250I0J-218750D01*
G01*
X104107000Y-105323750D01*
G75*
G02*
X103888250Y-105542500I-218750J0D01*
G01*
G37*
G04 #@! TD.AperFunction*
G04 #@! TA.AperFunction,SMDPad,CuDef*
G36*
G01*
X115318250Y-104374500D02*
X114805750Y-104374500D01*
G75*
G02*
X114587000Y-104155750I0J218750D01*
G01*
X114587000Y-103718250D01*
G75*
G02*
X114805750Y-103499500I218750J0D01*
G01*
X115318250Y-103499500D01*
G75*
G02*
X115537000Y-103718250I0J-218750D01*
G01*
X115537000Y-104155750D01*
G75*
G02*
X115318250Y-104374500I-218750J0D01*
G01*
G37*
G04 #@! TD.AperFunction*
G04 #@! TA.AperFunction,SMDPad,CuDef*
G36*
G01*
X115318250Y-102799500D02*
X114805750Y-102799500D01*
G75*
G02*
X114587000Y-102580750I0J218750D01*
G01*
X114587000Y-102143250D01*
G75*
G02*
X114805750Y-101924500I218750J0D01*
G01*
X115318250Y-101924500D01*
G75*
G02*
X115537000Y-102143250I0J-218750D01*
G01*
X115537000Y-102580750D01*
G75*
G02*
X115318250Y-102799500I-218750J0D01*
G01*
G37*
G04 #@! TD.AperFunction*
G04 #@! TA.AperFunction,SMDPad,CuDef*
G36*
G01*
X99057750Y-106268000D02*
X99570250Y-106268000D01*
G75*
G02*
X99789000Y-106486750I0J-218750D01*
G01*
X99789000Y-106924250D01*
G75*
G02*
X99570250Y-107143000I-218750J0D01*
G01*
X99057750Y-107143000D01*
G75*
G02*
X98839000Y-106924250I0J218750D01*
G01*
X98839000Y-106486750D01*
G75*
G02*
X99057750Y-106268000I218750J0D01*
G01*
G37*
G04 #@! TD.AperFunction*
G04 #@! TA.AperFunction,SMDPad,CuDef*
G36*
G01*
X99057750Y-104693000D02*
X99570250Y-104693000D01*
G75*
G02*
X99789000Y-104911750I0J-218750D01*
G01*
X99789000Y-105349250D01*
G75*
G02*
X99570250Y-105568000I-218750J0D01*
G01*
X99057750Y-105568000D01*
G75*
G02*
X98839000Y-105349250I0J218750D01*
G01*
X98839000Y-104911750D01*
G75*
G02*
X99057750Y-104693000I218750J0D01*
G01*
G37*
G04 #@! TD.AperFunction*
G04 #@! TA.AperFunction,SMDPad,CuDef*
G36*
G01*
X98089000Y-113540250D02*
X98089000Y-113027750D01*
G75*
G02*
X98307750Y-112809000I218750J0D01*
G01*
X98745250Y-112809000D01*
G75*
G02*
X98964000Y-113027750I0J-218750D01*
G01*
X98964000Y-113540250D01*
G75*
G02*
X98745250Y-113759000I-218750J0D01*
G01*
X98307750Y-113759000D01*
G75*
G02*
X98089000Y-113540250I0J218750D01*
G01*
G37*
G04 #@! TD.AperFunction*
G04 #@! TA.AperFunction,SMDPad,CuDef*
G36*
G01*
X99664000Y-113540250D02*
X99664000Y-113027750D01*
G75*
G02*
X99882750Y-112809000I218750J0D01*
G01*
X100320250Y-112809000D01*
G75*
G02*
X100539000Y-113027750I0J-218750D01*
G01*
X100539000Y-113540250D01*
G75*
G02*
X100320250Y-113759000I-218750J0D01*
G01*
X99882750Y-113759000D01*
G75*
G02*
X99664000Y-113540250I0J218750D01*
G01*
G37*
G04 #@! TD.AperFunction*
G04 #@! TA.AperFunction,SMDPad,CuDef*
G36*
G01*
X107995000Y-146306250D02*
X107995000Y-145793750D01*
G75*
G02*
X108213750Y-145575000I218750J0D01*
G01*
X108651250Y-145575000D01*
G75*
G02*
X108870000Y-145793750I0J-218750D01*
G01*
X108870000Y-146306250D01*
G75*
G02*
X108651250Y-146525000I-218750J0D01*
G01*
X108213750Y-146525000D01*
G75*
G02*
X107995000Y-146306250I0J218750D01*
G01*
G37*
G04 #@! TD.AperFunction*
G04 #@! TA.AperFunction,SMDPad,CuDef*
G36*
G01*
X109570000Y-146306250D02*
X109570000Y-145793750D01*
G75*
G02*
X109788750Y-145575000I218750J0D01*
G01*
X110226250Y-145575000D01*
G75*
G02*
X110445000Y-145793750I0J-218750D01*
G01*
X110445000Y-146306250D01*
G75*
G02*
X110226250Y-146525000I-218750J0D01*
G01*
X109788750Y-146525000D01*
G75*
G02*
X109570000Y-146306250I0J218750D01*
G01*
G37*
G04 #@! TD.AperFunction*
G04 #@! TA.AperFunction,SMDPad,CuDef*
G36*
G01*
X108714250Y-149510000D02*
X108201750Y-149510000D01*
G75*
G02*
X107983000Y-149291250I0J218750D01*
G01*
X107983000Y-148853750D01*
G75*
G02*
X108201750Y-148635000I218750J0D01*
G01*
X108714250Y-148635000D01*
G75*
G02*
X108933000Y-148853750I0J-218750D01*
G01*
X108933000Y-149291250D01*
G75*
G02*
X108714250Y-149510000I-218750J0D01*
G01*
G37*
G04 #@! TD.AperFunction*
G04 #@! TA.AperFunction,SMDPad,CuDef*
G36*
G01*
X108714250Y-151085000D02*
X108201750Y-151085000D01*
G75*
G02*
X107983000Y-150866250I0J218750D01*
G01*
X107983000Y-150428750D01*
G75*
G02*
X108201750Y-150210000I218750J0D01*
G01*
X108714250Y-150210000D01*
G75*
G02*
X108933000Y-150428750I0J-218750D01*
G01*
X108933000Y-150866250D01*
G75*
G02*
X108714250Y-151085000I-218750J0D01*
G01*
G37*
G04 #@! TD.AperFunction*
G04 #@! TA.AperFunction,SMDPad,CuDef*
G36*
G01*
X116123000Y-130304250D02*
X116123000Y-129791750D01*
G75*
G02*
X116341750Y-129573000I218750J0D01*
G01*
X116779250Y-129573000D01*
G75*
G02*
X116998000Y-129791750I0J-218750D01*
G01*
X116998000Y-130304250D01*
G75*
G02*
X116779250Y-130523000I-218750J0D01*
G01*
X116341750Y-130523000D01*
G75*
G02*
X116123000Y-130304250I0J218750D01*
G01*
G37*
G04 #@! TD.AperFunction*
G04 #@! TA.AperFunction,SMDPad,CuDef*
G36*
G01*
X117698000Y-130304250D02*
X117698000Y-129791750D01*
G75*
G02*
X117916750Y-129573000I218750J0D01*
G01*
X118354250Y-129573000D01*
G75*
G02*
X118573000Y-129791750I0J-218750D01*
G01*
X118573000Y-130304250D01*
G75*
G02*
X118354250Y-130523000I-218750J0D01*
G01*
X117916750Y-130523000D01*
G75*
G02*
X117698000Y-130304250I0J218750D01*
G01*
G37*
G04 #@! TD.AperFunction*
G04 #@! TA.AperFunction,SMDPad,CuDef*
G36*
G01*
X103333000Y-142999750D02*
X103333000Y-143512250D01*
G75*
G02*
X103114250Y-143731000I-218750J0D01*
G01*
X102676750Y-143731000D01*
G75*
G02*
X102458000Y-143512250I0J218750D01*
G01*
X102458000Y-142999750D01*
G75*
G02*
X102676750Y-142781000I218750J0D01*
G01*
X103114250Y-142781000D01*
G75*
G02*
X103333000Y-142999750I0J-218750D01*
G01*
G37*
G04 #@! TD.AperFunction*
G04 #@! TA.AperFunction,SMDPad,CuDef*
G36*
G01*
X101758000Y-142999750D02*
X101758000Y-143512250D01*
G75*
G02*
X101539250Y-143731000I-218750J0D01*
G01*
X101101750Y-143731000D01*
G75*
G02*
X100883000Y-143512250I0J218750D01*
G01*
X100883000Y-142999750D01*
G75*
G02*
X101101750Y-142781000I218750J0D01*
G01*
X101539250Y-142781000D01*
G75*
G02*
X101758000Y-142999750I0J-218750D01*
G01*
G37*
G04 #@! TD.AperFunction*
G04 #@! TA.AperFunction,SMDPad,CuDef*
G36*
G01*
X113634000Y-150624250D02*
X113634000Y-150111750D01*
G75*
G02*
X113852750Y-149893000I218750J0D01*
G01*
X114290250Y-149893000D01*
G75*
G02*
X114509000Y-150111750I0J-218750D01*
G01*
X114509000Y-150624250D01*
G75*
G02*
X114290250Y-150843000I-218750J0D01*
G01*
X113852750Y-150843000D01*
G75*
G02*
X113634000Y-150624250I0J218750D01*
G01*
G37*
G04 #@! TD.AperFunction*
G04 #@! TA.AperFunction,SMDPad,CuDef*
G36*
G01*
X112059000Y-150624250D02*
X112059000Y-150111750D01*
G75*
G02*
X112277750Y-149893000I218750J0D01*
G01*
X112715250Y-149893000D01*
G75*
G02*
X112934000Y-150111750I0J-218750D01*
G01*
X112934000Y-150624250D01*
G75*
G02*
X112715250Y-150843000I-218750J0D01*
G01*
X112277750Y-150843000D01*
G75*
G02*
X112059000Y-150624250I0J218750D01*
G01*
G37*
G04 #@! TD.AperFunction*
G04 #@! TA.AperFunction,SMDPad,CuDef*
G36*
G01*
X115064250Y-126650000D02*
X114551750Y-126650000D01*
G75*
G02*
X114333000Y-126431250I0J218750D01*
G01*
X114333000Y-125993750D01*
G75*
G02*
X114551750Y-125775000I218750J0D01*
G01*
X115064250Y-125775000D01*
G75*
G02*
X115283000Y-125993750I0J-218750D01*
G01*
X115283000Y-126431250D01*
G75*
G02*
X115064250Y-126650000I-218750J0D01*
G01*
G37*
G04 #@! TD.AperFunction*
G04 #@! TA.AperFunction,SMDPad,CuDef*
G36*
G01*
X115064250Y-128225000D02*
X114551750Y-128225000D01*
G75*
G02*
X114333000Y-128006250I0J218750D01*
G01*
X114333000Y-127568750D01*
G75*
G02*
X114551750Y-127350000I218750J0D01*
G01*
X115064250Y-127350000D01*
G75*
G02*
X115283000Y-127568750I0J-218750D01*
G01*
X115283000Y-128006250D01*
G75*
G02*
X115064250Y-128225000I-218750J0D01*
G01*
G37*
G04 #@! TD.AperFunction*
G04 #@! TA.AperFunction,SMDPad,CuDef*
G36*
G01*
X87627750Y-125089500D02*
X88140250Y-125089500D01*
G75*
G02*
X88359000Y-125308250I0J-218750D01*
G01*
X88359000Y-125745750D01*
G75*
G02*
X88140250Y-125964500I-218750J0D01*
G01*
X87627750Y-125964500D01*
G75*
G02*
X87409000Y-125745750I0J218750D01*
G01*
X87409000Y-125308250D01*
G75*
G02*
X87627750Y-125089500I218750J0D01*
G01*
G37*
G04 #@! TD.AperFunction*
G04 #@! TA.AperFunction,SMDPad,CuDef*
G36*
G01*
X87627750Y-123514500D02*
X88140250Y-123514500D01*
G75*
G02*
X88359000Y-123733250I0J-218750D01*
G01*
X88359000Y-124170750D01*
G75*
G02*
X88140250Y-124389500I-218750J0D01*
G01*
X87627750Y-124389500D01*
G75*
G02*
X87409000Y-124170750I0J218750D01*
G01*
X87409000Y-123733250D01*
G75*
G02*
X87627750Y-123514500I218750J0D01*
G01*
G37*
G04 #@! TD.AperFunction*
G04 #@! TA.AperFunction,SMDPad,CuDef*
G36*
G01*
X90167750Y-123514500D02*
X90680250Y-123514500D01*
G75*
G02*
X90899000Y-123733250I0J-218750D01*
G01*
X90899000Y-124170750D01*
G75*
G02*
X90680250Y-124389500I-218750J0D01*
G01*
X90167750Y-124389500D01*
G75*
G02*
X89949000Y-124170750I0J218750D01*
G01*
X89949000Y-123733250D01*
G75*
G02*
X90167750Y-123514500I218750J0D01*
G01*
G37*
G04 #@! TD.AperFunction*
G04 #@! TA.AperFunction,SMDPad,CuDef*
G36*
G01*
X90167750Y-125089500D02*
X90680250Y-125089500D01*
G75*
G02*
X90899000Y-125308250I0J-218750D01*
G01*
X90899000Y-125745750D01*
G75*
G02*
X90680250Y-125964500I-218750J0D01*
G01*
X90167750Y-125964500D01*
G75*
G02*
X89949000Y-125745750I0J218750D01*
G01*
X89949000Y-125308250D01*
G75*
G02*
X90167750Y-125089500I218750J0D01*
G01*
G37*
G04 #@! TD.AperFunction*
G04 #@! TA.AperFunction,SMDPad,CuDef*
G36*
G01*
X123032000Y-130304250D02*
X123032000Y-129791750D01*
G75*
G02*
X123250750Y-129573000I218750J0D01*
G01*
X123688250Y-129573000D01*
G75*
G02*
X123907000Y-129791750I0J-218750D01*
G01*
X123907000Y-130304250D01*
G75*
G02*
X123688250Y-130523000I-218750J0D01*
G01*
X123250750Y-130523000D01*
G75*
G02*
X123032000Y-130304250I0J218750D01*
G01*
G37*
G04 #@! TD.AperFunction*
G04 #@! TA.AperFunction,SMDPad,CuDef*
G36*
G01*
X121457000Y-130304250D02*
X121457000Y-129791750D01*
G75*
G02*
X121675750Y-129573000I218750J0D01*
G01*
X122113250Y-129573000D01*
G75*
G02*
X122332000Y-129791750I0J-218750D01*
G01*
X122332000Y-130304250D01*
G75*
G02*
X122113250Y-130523000I-218750J0D01*
G01*
X121675750Y-130523000D01*
G75*
G02*
X121457000Y-130304250I0J218750D01*
G01*
G37*
G04 #@! TD.AperFunction*
G04 #@! TA.AperFunction,SMDPad,CuDef*
G36*
G01*
X120187000Y-118620250D02*
X120187000Y-118107750D01*
G75*
G02*
X120405750Y-117889000I218750J0D01*
G01*
X120843250Y-117889000D01*
G75*
G02*
X121062000Y-118107750I0J-218750D01*
G01*
X121062000Y-118620250D01*
G75*
G02*
X120843250Y-118839000I-218750J0D01*
G01*
X120405750Y-118839000D01*
G75*
G02*
X120187000Y-118620250I0J218750D01*
G01*
G37*
G04 #@! TD.AperFunction*
G04 #@! TA.AperFunction,SMDPad,CuDef*
G36*
G01*
X121762000Y-118620250D02*
X121762000Y-118107750D01*
G75*
G02*
X121980750Y-117889000I218750J0D01*
G01*
X122418250Y-117889000D01*
G75*
G02*
X122637000Y-118107750I0J-218750D01*
G01*
X122637000Y-118620250D01*
G75*
G02*
X122418250Y-118839000I-218750J0D01*
G01*
X121980750Y-118839000D01*
G75*
G02*
X121762000Y-118620250I0J218750D01*
G01*
G37*
G04 #@! TD.AperFunction*
G04 #@! TA.AperFunction,SMDPad,CuDef*
G36*
G01*
X125732250Y-120351000D02*
X125219750Y-120351000D01*
G75*
G02*
X125001000Y-120132250I0J218750D01*
G01*
X125001000Y-119694750D01*
G75*
G02*
X125219750Y-119476000I218750J0D01*
G01*
X125732250Y-119476000D01*
G75*
G02*
X125951000Y-119694750I0J-218750D01*
G01*
X125951000Y-120132250D01*
G75*
G02*
X125732250Y-120351000I-218750J0D01*
G01*
G37*
G04 #@! TD.AperFunction*
G04 #@! TA.AperFunction,SMDPad,CuDef*
G36*
G01*
X125732250Y-118776000D02*
X125219750Y-118776000D01*
G75*
G02*
X125001000Y-118557250I0J218750D01*
G01*
X125001000Y-118119750D01*
G75*
G02*
X125219750Y-117901000I218750J0D01*
G01*
X125732250Y-117901000D01*
G75*
G02*
X125951000Y-118119750I0J-218750D01*
G01*
X125951000Y-118557250D01*
G75*
G02*
X125732250Y-118776000I-218750J0D01*
G01*
G37*
G04 #@! TD.AperFunction*
G04 #@! TA.AperFunction,SMDPad,CuDef*
G36*
G01*
X98089000Y-120652250D02*
X98089000Y-120139750D01*
G75*
G02*
X98307750Y-119921000I218750J0D01*
G01*
X98745250Y-119921000D01*
G75*
G02*
X98964000Y-120139750I0J-218750D01*
G01*
X98964000Y-120652250D01*
G75*
G02*
X98745250Y-120871000I-218750J0D01*
G01*
X98307750Y-120871000D01*
G75*
G02*
X98089000Y-120652250I0J218750D01*
G01*
G37*
G04 #@! TD.AperFunction*
G04 #@! TA.AperFunction,SMDPad,CuDef*
G36*
G01*
X99664000Y-120652250D02*
X99664000Y-120139750D01*
G75*
G02*
X99882750Y-119921000I218750J0D01*
G01*
X100320250Y-119921000D01*
G75*
G02*
X100539000Y-120139750I0J-218750D01*
G01*
X100539000Y-120652250D01*
G75*
G02*
X100320250Y-120871000I-218750J0D01*
G01*
X99882750Y-120871000D01*
G75*
G02*
X99664000Y-120652250I0J218750D01*
G01*
G37*
G04 #@! TD.AperFunction*
G04 #@! TA.AperFunction,SMDPad,CuDef*
G36*
G01*
X112872000Y-101094250D02*
X112872000Y-100581750D01*
G75*
G02*
X113090750Y-100363000I218750J0D01*
G01*
X113528250Y-100363000D01*
G75*
G02*
X113747000Y-100581750I0J-218750D01*
G01*
X113747000Y-101094250D01*
G75*
G02*
X113528250Y-101313000I-218750J0D01*
G01*
X113090750Y-101313000D01*
G75*
G02*
X112872000Y-101094250I0J218750D01*
G01*
G37*
G04 #@! TD.AperFunction*
G04 #@! TA.AperFunction,SMDPad,CuDef*
G36*
G01*
X111297000Y-101094250D02*
X111297000Y-100581750D01*
G75*
G02*
X111515750Y-100363000I218750J0D01*
G01*
X111953250Y-100363000D01*
G75*
G02*
X112172000Y-100581750I0J-218750D01*
G01*
X112172000Y-101094250D01*
G75*
G02*
X111953250Y-101313000I-218750J0D01*
G01*
X111515750Y-101313000D01*
G75*
G02*
X111297000Y-101094250I0J218750D01*
G01*
G37*
G04 #@! TD.AperFunction*
G04 #@! TA.AperFunction,SMDPad,CuDef*
G36*
G01*
X115064250Y-122586000D02*
X114551750Y-122586000D01*
G75*
G02*
X114333000Y-122367250I0J218750D01*
G01*
X114333000Y-121929750D01*
G75*
G02*
X114551750Y-121711000I218750J0D01*
G01*
X115064250Y-121711000D01*
G75*
G02*
X115283000Y-121929750I0J-218750D01*
G01*
X115283000Y-122367250D01*
G75*
G02*
X115064250Y-122586000I-218750J0D01*
G01*
G37*
G04 #@! TD.AperFunction*
G04 #@! TA.AperFunction,SMDPad,CuDef*
G36*
G01*
X115064250Y-124161000D02*
X114551750Y-124161000D01*
G75*
G02*
X114333000Y-123942250I0J218750D01*
G01*
X114333000Y-123504750D01*
G75*
G02*
X114551750Y-123286000I218750J0D01*
G01*
X115064250Y-123286000D01*
G75*
G02*
X115283000Y-123504750I0J-218750D01*
G01*
X115283000Y-123942250D01*
G75*
G02*
X115064250Y-124161000I-218750J0D01*
G01*
G37*
G04 #@! TD.AperFunction*
G04 #@! TA.AperFunction,SMDPad,CuDef*
G36*
G01*
X111762250Y-124161000D02*
X111249750Y-124161000D01*
G75*
G02*
X111031000Y-123942250I0J218750D01*
G01*
X111031000Y-123504750D01*
G75*
G02*
X111249750Y-123286000I218750J0D01*
G01*
X111762250Y-123286000D01*
G75*
G02*
X111981000Y-123504750I0J-218750D01*
G01*
X111981000Y-123942250D01*
G75*
G02*
X111762250Y-124161000I-218750J0D01*
G01*
G37*
G04 #@! TD.AperFunction*
G04 #@! TA.AperFunction,SMDPad,CuDef*
G36*
G01*
X111762250Y-122586000D02*
X111249750Y-122586000D01*
G75*
G02*
X111031000Y-122367250I0J218750D01*
G01*
X111031000Y-121929750D01*
G75*
G02*
X111249750Y-121711000I218750J0D01*
G01*
X111762250Y-121711000D01*
G75*
G02*
X111981000Y-121929750I0J-218750D01*
G01*
X111981000Y-122367250D01*
G75*
G02*
X111762250Y-122586000I-218750J0D01*
G01*
G37*
G04 #@! TD.AperFunction*
G04 #@! TA.AperFunction,SMDPad,CuDef*
G36*
G01*
X141226250Y-131222000D02*
X140713750Y-131222000D01*
G75*
G02*
X140495000Y-131003250I0J218750D01*
G01*
X140495000Y-130565750D01*
G75*
G02*
X140713750Y-130347000I218750J0D01*
G01*
X141226250Y-130347000D01*
G75*
G02*
X141445000Y-130565750I0J-218750D01*
G01*
X141445000Y-131003250D01*
G75*
G02*
X141226250Y-131222000I-218750J0D01*
G01*
G37*
G04 #@! TD.AperFunction*
G04 #@! TA.AperFunction,SMDPad,CuDef*
G36*
G01*
X141226250Y-132797000D02*
X140713750Y-132797000D01*
G75*
G02*
X140495000Y-132578250I0J218750D01*
G01*
X140495000Y-132140750D01*
G75*
G02*
X140713750Y-131922000I218750J0D01*
G01*
X141226250Y-131922000D01*
G75*
G02*
X141445000Y-132140750I0J-218750D01*
G01*
X141445000Y-132578250D01*
G75*
G02*
X141226250Y-132797000I-218750J0D01*
G01*
G37*
G04 #@! TD.AperFunction*
G04 #@! TA.AperFunction,SMDPad,CuDef*
G36*
G01*
X138940250Y-132797000D02*
X138427750Y-132797000D01*
G75*
G02*
X138209000Y-132578250I0J218750D01*
G01*
X138209000Y-132140750D01*
G75*
G02*
X138427750Y-131922000I218750J0D01*
G01*
X138940250Y-131922000D01*
G75*
G02*
X139159000Y-132140750I0J-218750D01*
G01*
X139159000Y-132578250D01*
G75*
G02*
X138940250Y-132797000I-218750J0D01*
G01*
G37*
G04 #@! TD.AperFunction*
G04 #@! TA.AperFunction,SMDPad,CuDef*
G36*
G01*
X138940250Y-131222000D02*
X138427750Y-131222000D01*
G75*
G02*
X138209000Y-131003250I0J218750D01*
G01*
X138209000Y-130565750D01*
G75*
G02*
X138427750Y-130347000I218750J0D01*
G01*
X138940250Y-130347000D01*
G75*
G02*
X139159000Y-130565750I0J-218750D01*
G01*
X139159000Y-131003250D01*
G75*
G02*
X138940250Y-131222000I-218750J0D01*
G01*
G37*
G04 #@! TD.AperFunction*
G04 #@! TA.AperFunction,SMDPad,CuDef*
G36*
G01*
X136654250Y-131222000D02*
X136141750Y-131222000D01*
G75*
G02*
X135923000Y-131003250I0J218750D01*
G01*
X135923000Y-130565750D01*
G75*
G02*
X136141750Y-130347000I218750J0D01*
G01*
X136654250Y-130347000D01*
G75*
G02*
X136873000Y-130565750I0J-218750D01*
G01*
X136873000Y-131003250D01*
G75*
G02*
X136654250Y-131222000I-218750J0D01*
G01*
G37*
G04 #@! TD.AperFunction*
G04 #@! TA.AperFunction,SMDPad,CuDef*
G36*
G01*
X136654250Y-132797000D02*
X136141750Y-132797000D01*
G75*
G02*
X135923000Y-132578250I0J218750D01*
G01*
X135923000Y-132140750D01*
G75*
G02*
X136141750Y-131922000I218750J0D01*
G01*
X136654250Y-131922000D01*
G75*
G02*
X136873000Y-132140750I0J-218750D01*
G01*
X136873000Y-132578250D01*
G75*
G02*
X136654250Y-132797000I-218750J0D01*
G01*
G37*
G04 #@! TD.AperFunction*
G04 #@! TA.AperFunction,SMDPad,CuDef*
G36*
G01*
X90680250Y-132517500D02*
X90167750Y-132517500D01*
G75*
G02*
X89949000Y-132298750I0J218750D01*
G01*
X89949000Y-131861250D01*
G75*
G02*
X90167750Y-131642500I218750J0D01*
G01*
X90680250Y-131642500D01*
G75*
G02*
X90899000Y-131861250I0J-218750D01*
G01*
X90899000Y-132298750D01*
G75*
G02*
X90680250Y-132517500I-218750J0D01*
G01*
G37*
G04 #@! TD.AperFunction*
G04 #@! TA.AperFunction,SMDPad,CuDef*
G36*
G01*
X90680250Y-134092500D02*
X90167750Y-134092500D01*
G75*
G02*
X89949000Y-133873750I0J218750D01*
G01*
X89949000Y-133436250D01*
G75*
G02*
X90167750Y-133217500I218750J0D01*
G01*
X90680250Y-133217500D01*
G75*
G02*
X90899000Y-133436250I0J-218750D01*
G01*
X90899000Y-133873750D01*
G75*
G02*
X90680250Y-134092500I-218750J0D01*
G01*
G37*
G04 #@! TD.AperFunction*
G04 #@! TA.AperFunction,SMDPad,CuDef*
G36*
G01*
X88140250Y-134092500D02*
X87627750Y-134092500D01*
G75*
G02*
X87409000Y-133873750I0J218750D01*
G01*
X87409000Y-133436250D01*
G75*
G02*
X87627750Y-133217500I218750J0D01*
G01*
X88140250Y-133217500D01*
G75*
G02*
X88359000Y-133436250I0J-218750D01*
G01*
X88359000Y-133873750D01*
G75*
G02*
X88140250Y-134092500I-218750J0D01*
G01*
G37*
G04 #@! TD.AperFunction*
G04 #@! TA.AperFunction,SMDPad,CuDef*
G36*
G01*
X88140250Y-132517500D02*
X87627750Y-132517500D01*
G75*
G02*
X87409000Y-132298750I0J218750D01*
G01*
X87409000Y-131861250D01*
G75*
G02*
X87627750Y-131642500I218750J0D01*
G01*
X88140250Y-131642500D01*
G75*
G02*
X88359000Y-131861250I0J-218750D01*
G01*
X88359000Y-132298750D01*
G75*
G02*
X88140250Y-132517500I-218750J0D01*
G01*
G37*
G04 #@! TD.AperFunction*
G04 #@! TA.AperFunction,SMDPad,CuDef*
G36*
G01*
X93220250Y-132517500D02*
X92707750Y-132517500D01*
G75*
G02*
X92489000Y-132298750I0J218750D01*
G01*
X92489000Y-131861250D01*
G75*
G02*
X92707750Y-131642500I218750J0D01*
G01*
X93220250Y-131642500D01*
G75*
G02*
X93439000Y-131861250I0J-218750D01*
G01*
X93439000Y-132298750D01*
G75*
G02*
X93220250Y-132517500I-218750J0D01*
G01*
G37*
G04 #@! TD.AperFunction*
G04 #@! TA.AperFunction,SMDPad,CuDef*
G36*
G01*
X93220250Y-134092500D02*
X92707750Y-134092500D01*
G75*
G02*
X92489000Y-133873750I0J218750D01*
G01*
X92489000Y-133436250D01*
G75*
G02*
X92707750Y-133217500I218750J0D01*
G01*
X93220250Y-133217500D01*
G75*
G02*
X93439000Y-133436250I0J-218750D01*
G01*
X93439000Y-133873750D01*
G75*
G02*
X93220250Y-134092500I-218750J0D01*
G01*
G37*
G04 #@! TD.AperFunction*
G04 #@! TA.AperFunction,SMDPad,CuDef*
G36*
G01*
X92707750Y-123514500D02*
X93220250Y-123514500D01*
G75*
G02*
X93439000Y-123733250I0J-218750D01*
G01*
X93439000Y-124170750D01*
G75*
G02*
X93220250Y-124389500I-218750J0D01*
G01*
X92707750Y-124389500D01*
G75*
G02*
X92489000Y-124170750I0J218750D01*
G01*
X92489000Y-123733250D01*
G75*
G02*
X92707750Y-123514500I218750J0D01*
G01*
G37*
G04 #@! TD.AperFunction*
G04 #@! TA.AperFunction,SMDPad,CuDef*
G36*
G01*
X92707750Y-125089500D02*
X93220250Y-125089500D01*
G75*
G02*
X93439000Y-125308250I0J-218750D01*
G01*
X93439000Y-125745750D01*
G75*
G02*
X93220250Y-125964500I-218750J0D01*
G01*
X92707750Y-125964500D01*
G75*
G02*
X92489000Y-125745750I0J218750D01*
G01*
X92489000Y-125308250D01*
G75*
G02*
X92707750Y-125089500I218750J0D01*
G01*
G37*
G04 #@! TD.AperFunction*
D21*
X80518000Y-132644000D03*
D22*
X80518000Y-136144000D03*
D23*
X149147000Y-140716000D03*
X124157000Y-140716000D03*
D24*
X131822000Y-143256000D03*
X134112000Y-143256000D03*
X136402000Y-143256000D03*
X138692000Y-143256000D03*
X140982000Y-143256000D03*
X132967000Y-140716000D03*
X135257000Y-140716000D03*
X137547000Y-140716000D03*
X139837000Y-140716000D03*
X142127000Y-140716000D03*
X131822000Y-138176000D03*
X134112000Y-138176000D03*
X136402000Y-138176000D03*
X138692000Y-138176000D03*
D25*
X140982000Y-138176000D03*
D14*
X131572000Y-98552000D03*
X127072000Y-98552000D03*
X131572000Y-92052000D03*
X127072000Y-92052000D03*
G04 #@! TA.AperFunction,SMDPad,CuDef*
G36*
G01*
X105050000Y-150091000D02*
X105050000Y-150391000D01*
G75*
G02*
X104900000Y-150541000I-150000J0D01*
G01*
X103250000Y-150541000D01*
G75*
G02*
X103100000Y-150391000I0J150000D01*
G01*
X103100000Y-150091000D01*
G75*
G02*
X103250000Y-149941000I150000J0D01*
G01*
X104900000Y-149941000D01*
G75*
G02*
X105050000Y-150091000I0J-150000D01*
G01*
G37*
G04 #@! TD.AperFunction*
G04 #@! TA.AperFunction,SMDPad,CuDef*
G36*
G01*
X105050000Y-148821000D02*
X105050000Y-149121000D01*
G75*
G02*
X104900000Y-149271000I-150000J0D01*
G01*
X103250000Y-149271000D01*
G75*
G02*
X103100000Y-149121000I0J150000D01*
G01*
X103100000Y-148821000D01*
G75*
G02*
X103250000Y-148671000I150000J0D01*
G01*
X104900000Y-148671000D01*
G75*
G02*
X105050000Y-148821000I0J-150000D01*
G01*
G37*
G04 #@! TD.AperFunction*
G04 #@! TA.AperFunction,SMDPad,CuDef*
G36*
G01*
X105050000Y-147551000D02*
X105050000Y-147851000D01*
G75*
G02*
X104900000Y-148001000I-150000J0D01*
G01*
X103250000Y-148001000D01*
G75*
G02*
X103100000Y-147851000I0J150000D01*
G01*
X103100000Y-147551000D01*
G75*
G02*
X103250000Y-147401000I150000J0D01*
G01*
X104900000Y-147401000D01*
G75*
G02*
X105050000Y-147551000I0J-150000D01*
G01*
G37*
G04 #@! TD.AperFunction*
G04 #@! TA.AperFunction,SMDPad,CuDef*
G36*
G01*
X105050000Y-146281000D02*
X105050000Y-146581000D01*
G75*
G02*
X104900000Y-146731000I-150000J0D01*
G01*
X103250000Y-146731000D01*
G75*
G02*
X103100000Y-146581000I0J150000D01*
G01*
X103100000Y-146281000D01*
G75*
G02*
X103250000Y-146131000I150000J0D01*
G01*
X104900000Y-146131000D01*
G75*
G02*
X105050000Y-146281000I0J-150000D01*
G01*
G37*
G04 #@! TD.AperFunction*
G04 #@! TA.AperFunction,SMDPad,CuDef*
G36*
G01*
X100100000Y-146281000D02*
X100100000Y-146581000D01*
G75*
G02*
X99950000Y-146731000I-150000J0D01*
G01*
X98300000Y-146731000D01*
G75*
G02*
X98150000Y-146581000I0J150000D01*
G01*
X98150000Y-146281000D01*
G75*
G02*
X98300000Y-146131000I150000J0D01*
G01*
X99950000Y-146131000D01*
G75*
G02*
X100100000Y-146281000I0J-150000D01*
G01*
G37*
G04 #@! TD.AperFunction*
G04 #@! TA.AperFunction,SMDPad,CuDef*
G36*
G01*
X100100000Y-147551000D02*
X100100000Y-147851000D01*
G75*
G02*
X99950000Y-148001000I-150000J0D01*
G01*
X98300000Y-148001000D01*
G75*
G02*
X98150000Y-147851000I0J150000D01*
G01*
X98150000Y-147551000D01*
G75*
G02*
X98300000Y-147401000I150000J0D01*
G01*
X99950000Y-147401000D01*
G75*
G02*
X100100000Y-147551000I0J-150000D01*
G01*
G37*
G04 #@! TD.AperFunction*
G04 #@! TA.AperFunction,SMDPad,CuDef*
G36*
G01*
X100100000Y-148821000D02*
X100100000Y-149121000D01*
G75*
G02*
X99950000Y-149271000I-150000J0D01*
G01*
X98300000Y-149271000D01*
G75*
G02*
X98150000Y-149121000I0J150000D01*
G01*
X98150000Y-148821000D01*
G75*
G02*
X98300000Y-148671000I150000J0D01*
G01*
X99950000Y-148671000D01*
G75*
G02*
X100100000Y-148821000I0J-150000D01*
G01*
G37*
G04 #@! TD.AperFunction*
G04 #@! TA.AperFunction,SMDPad,CuDef*
G36*
G01*
X100100000Y-150091000D02*
X100100000Y-150391000D01*
G75*
G02*
X99950000Y-150541000I-150000J0D01*
G01*
X98300000Y-150541000D01*
G75*
G02*
X98150000Y-150391000I0J150000D01*
G01*
X98150000Y-150091000D01*
G75*
G02*
X98300000Y-149941000I150000J0D01*
G01*
X99950000Y-149941000D01*
G75*
G02*
X100100000Y-150091000I0J-150000D01*
G01*
G37*
G04 #@! TD.AperFunction*
D26*
X107442000Y-126492000D03*
X106934000Y-140462000D03*
X117056500Y-146875000D03*
X106820000Y-133394000D03*
X116586000Y-137414000D03*
X122428000Y-124714000D03*
X108813600Y-113665000D03*
X109626400Y-112877600D03*
X108813600Y-112877600D03*
X109626400Y-113690400D03*
X101285683Y-113223683D03*
X98465192Y-106218559D03*
X94488000Y-133604000D03*
D27*
X97028000Y-90424000D03*
X103378000Y-93472000D03*
D26*
X97028000Y-146050000D03*
X117154317Y-112969683D03*
X108330000Y-121540000D03*
X111506000Y-128524000D03*
X105918000Y-132080000D03*
X109220000Y-140462000D03*
X105156000Y-139851914D03*
X112742000Y-149318000D03*
X118618000Y-135636000D03*
X123672500Y-124739500D03*
X113284000Y-135382000D03*
X118110000Y-143002000D03*
X113792000Y-118110000D03*
D28*
X99314000Y-104140000D03*
D26*
X91694000Y-123952000D03*
X108026848Y-114477152D03*
X108026848Y-112090848D03*
X110413152Y-112090848D03*
X110413152Y-114477152D03*
X97282000Y-113284000D03*
D27*
X99314000Y-93759000D03*
X103378000Y-91948000D03*
D26*
X115062000Y-104902000D03*
X121182212Y-113342327D03*
X112020001Y-111297817D03*
X108204000Y-105918000D03*
X94996000Y-120396000D03*
X107213400Y-106680000D03*
X113284000Y-137160000D03*
X113284000Y-136398000D03*
X116586000Y-136144000D03*
X116586000Y-131318000D03*
X110490000Y-140462000D03*
X103886000Y-142240000D03*
X113538000Y-133350000D03*
X113284000Y-128778000D03*
X113284000Y-125222000D03*
X122428000Y-122682000D03*
X112522000Y-124460000D03*
X112522000Y-121158000D03*
X115570000Y-121158000D03*
X111206184Y-116884000D03*
X109982000Y-128524000D03*
X109982000Y-124460000D03*
X97282000Y-137922000D03*
X108458000Y-140462000D03*
X97282000Y-138684000D03*
X107696000Y-140462000D03*
X116586000Y-126492000D03*
X119761010Y-123316990D03*
X105156000Y-119126000D03*
X102616000Y-121666000D03*
X102108000Y-122174000D03*
X105156000Y-118490987D03*
X111233817Y-116084000D03*
X112020000Y-115297817D03*
X112020000Y-112097816D03*
X140970000Y-125730000D03*
X112020001Y-112897817D03*
X138684000Y-125730000D03*
X112020001Y-113697816D03*
X136398000Y-125730000D03*
D27*
X97014000Y-100330000D03*
D26*
X93472000Y-98552000D03*
X101853999Y-105917999D03*
X102363310Y-107213510D03*
X93472000Y-97282000D03*
X110433816Y-110484000D03*
X110744000Y-106934000D03*
X111233816Y-110483999D03*
X111506000Y-106426000D03*
X118364000Y-117856000D03*
X127762000Y-117856000D03*
X133858000Y-98552000D03*
X128016000Y-141478000D03*
X110744000Y-143256000D03*
X126365000Y-131572000D03*
D29*
X118135500Y-132791000D02*
X118110000Y-132816500D01*
X118135500Y-130048000D02*
X118135500Y-132791000D01*
X118110000Y-132816500D02*
X121412000Y-132816500D01*
X121412000Y-132816500D02*
X124714000Y-132816500D01*
X118110000Y-140436500D02*
X118110000Y-138201500D01*
X117056500Y-146875000D02*
X118110000Y-145821500D01*
X114842000Y-146875000D02*
X117056500Y-146875000D01*
X118110000Y-147928500D02*
X117056500Y-146875000D01*
X118110000Y-148310500D02*
X118110000Y-147928500D01*
X108970000Y-129694000D02*
X107467500Y-128191500D01*
X107467500Y-128191500D02*
X107467500Y-127762000D01*
X108970000Y-130469000D02*
X108970000Y-129694000D01*
X97028000Y-143738500D02*
X97510500Y-143256000D01*
X97510500Y-143256000D02*
X97510500Y-139725500D01*
X98272500Y-138963500D02*
X100076000Y-138963500D01*
X97510500Y-139725500D02*
X98272500Y-138963500D01*
X100506500Y-139394000D02*
X100076000Y-138963500D01*
X103545000Y-139394000D02*
X100506500Y-139394000D01*
X101117500Y-133578500D02*
X100076000Y-133578500D01*
X101600000Y-130302000D02*
X101600000Y-133096000D01*
X101066500Y-129768500D02*
X101600000Y-130302000D01*
X101600000Y-133096000D02*
X101117500Y-133578500D01*
X100076000Y-129768500D02*
X101066500Y-129768500D01*
X101898000Y-133394000D02*
X103545000Y-133394000D01*
X101600000Y-133096000D02*
X101898000Y-133394000D01*
X106820000Y-133394000D02*
X108970000Y-131244000D01*
X103545000Y-133394000D02*
X106820000Y-133394000D01*
X108970000Y-131244000D02*
X108970000Y-130469000D01*
X107213500Y-144018000D02*
X107213500Y-143543000D01*
X107213500Y-143543000D02*
X106470000Y-142799500D01*
X106470000Y-142799500D02*
X106470000Y-141819000D01*
X107467500Y-126517500D02*
X107442000Y-126492000D01*
X107467500Y-127762000D02*
X107467500Y-126517500D01*
X106470000Y-140926000D02*
X106934000Y-140462000D01*
X106470000Y-141819000D02*
X106470000Y-140926000D01*
X114120000Y-137894000D02*
X114895000Y-137894000D01*
X114895000Y-139894000D02*
X114120000Y-139894000D01*
X115924010Y-133148010D02*
X115670000Y-132894000D01*
X115924010Y-133639990D02*
X115924010Y-133148010D01*
X115670000Y-132894000D02*
X114895000Y-132894000D01*
X115670000Y-133894000D02*
X115924010Y-133639990D01*
X114895000Y-133894000D02*
X115670000Y-133894000D01*
X117778490Y-133148010D02*
X118110000Y-132816500D01*
X115924010Y-133148010D02*
X117778490Y-133148010D01*
X114895000Y-134894000D02*
X114895000Y-135215000D01*
X114895000Y-135215000D02*
X114895000Y-135394000D01*
X114895000Y-137894000D02*
X116106000Y-137894000D01*
X116106000Y-137894000D02*
X116586000Y-137414000D01*
X116586000Y-137414000D02*
X117094002Y-136905998D01*
X116408844Y-135215000D02*
X114895000Y-135215000D01*
X117094002Y-136905998D02*
X117094002Y-135900158D01*
X117094002Y-135900158D02*
X116408844Y-135215000D01*
X114842998Y-132841998D02*
X110567998Y-132841998D01*
X114895000Y-132894000D02*
X114842998Y-132841998D01*
X110567998Y-132841998D02*
X108970000Y-131244000D01*
X108420000Y-112484000D02*
X110020000Y-112484000D01*
X110020000Y-112484000D02*
X110020000Y-114084000D01*
X110020000Y-114084000D02*
X108420000Y-114084000D01*
X108420000Y-114084000D02*
X108420000Y-112484000D01*
X109220000Y-112484000D02*
X109220000Y-113284000D01*
X108420000Y-113284000D02*
X110020000Y-113284000D01*
X109220000Y-113284000D02*
X109220000Y-114084000D01*
X120142000Y-124714000D02*
X122428000Y-124714000D01*
X123977500Y-123164500D02*
X125476000Y-123164500D01*
X122428000Y-124714000D02*
X123977500Y-123164500D01*
D30*
X108420000Y-114058600D02*
X108813600Y-113665000D01*
X108420000Y-114084000D02*
X108420000Y-114058600D01*
X110020000Y-112484000D02*
X109626400Y-112877600D01*
D29*
X108594999Y-114709001D02*
X108594999Y-114258999D01*
X108420000Y-114884000D02*
X108594999Y-114709001D01*
X108594999Y-114258999D02*
X108420000Y-114084000D01*
D30*
X108420000Y-112484000D02*
X108813600Y-112877600D01*
X110020000Y-114084000D02*
X109626400Y-113690400D01*
D29*
X100101500Y-113284000D02*
X101225366Y-113284000D01*
X101225366Y-113284000D02*
X101285683Y-113223683D01*
X99314000Y-106705500D02*
X98952133Y-106705500D01*
X98952133Y-106705500D02*
X98465192Y-106218559D01*
X94437000Y-133655000D02*
X94488000Y-133604000D01*
X92964000Y-133655000D02*
X94437000Y-133655000D01*
D31*
X101600000Y-96150000D02*
X101614000Y-96164000D01*
X101600000Y-93523000D02*
X101600000Y-96150000D01*
X97028000Y-91948000D02*
X97028000Y-90424000D01*
X103429000Y-93523000D02*
X103378000Y-93472000D01*
X103378000Y-93472000D02*
X105156000Y-93523000D01*
X101600000Y-93523000D02*
X103429000Y-93523000D01*
D29*
X108966000Y-92732000D02*
X108966000Y-91948000D01*
X108334001Y-93363999D02*
X108966000Y-92732000D01*
X105315001Y-93363999D02*
X108334001Y-93363999D01*
X105156000Y-93523000D02*
X105315001Y-93363999D01*
X108966000Y-92732000D02*
X112429500Y-92732000D01*
X112429500Y-92732000D02*
X112776000Y-92385500D01*
X112776000Y-92385500D02*
X112776000Y-91948000D01*
D31*
X103334000Y-97884000D02*
X101614000Y-96164000D01*
X106934000Y-97884000D02*
X103334000Y-97884000D01*
D29*
X99314000Y-106705500D02*
X103606500Y-106705500D01*
X103606500Y-106705500D02*
X103632000Y-106680000D01*
X97409000Y-146431000D02*
X99125000Y-146431000D01*
X97028000Y-143738500D02*
X97028000Y-146050000D01*
X97409000Y-146431000D02*
X97028000Y-146050000D01*
X114895000Y-139894000D02*
X113986000Y-139894000D01*
X113986000Y-139894000D02*
X113538000Y-139446000D01*
X113538000Y-139446000D02*
X113538000Y-138303000D01*
X113947000Y-137894000D02*
X114895000Y-137894000D01*
X113538000Y-138303000D02*
X113947000Y-137894000D01*
X120142000Y-124714000D02*
X119253000Y-123825000D01*
X119253000Y-123825000D02*
X119253000Y-121327000D01*
X116586000Y-98552000D02*
X118872000Y-98552000D01*
X115062000Y-100076000D02*
X116586000Y-98552000D01*
X115062000Y-102362000D02*
X115062000Y-100076000D01*
X112880000Y-92052000D02*
X112776000Y-91948000D01*
X118872000Y-92052000D02*
X112880000Y-92052000D01*
X117373500Y-138201500D02*
X116586000Y-137414000D01*
X118110000Y-138201500D02*
X117373500Y-138201500D01*
X118338500Y-113284000D02*
X117468634Y-113284000D01*
X117468634Y-113284000D02*
X117154317Y-112969683D01*
X124714000Y-132816500D02*
X124714000Y-130048000D01*
X125993000Y-128769000D02*
X128016000Y-128769000D01*
X124714000Y-130048000D02*
X125993000Y-128769000D01*
X108330000Y-121540000D02*
X108330000Y-122936000D01*
X123063000Y-129641500D02*
X123469500Y-130048000D01*
X123063000Y-126577000D02*
X123063000Y-125349000D01*
X123672500Y-124739500D02*
X125476000Y-124739500D01*
X122225000Y-118338500D02*
X122199500Y-118364000D01*
X125476000Y-118338500D02*
X122225000Y-118338500D01*
X117627500Y-150368000D02*
X118110000Y-149885500D01*
X114071500Y-150368000D02*
X117627500Y-150368000D01*
X114071500Y-150368000D02*
X113792000Y-150368000D01*
X112742000Y-149318000D02*
X112742000Y-146875000D01*
X113792000Y-150368000D02*
X112742000Y-149318000D01*
X105970000Y-127839500D02*
X105892500Y-127762000D01*
X105970000Y-130469000D02*
X105970000Y-127839500D01*
X105892500Y-125823500D02*
X106680000Y-125036000D01*
X105892500Y-127762000D02*
X105892500Y-125823500D01*
X106680000Y-125036000D02*
X108330000Y-125036000D01*
X110193500Y-125036000D02*
X111506000Y-123723500D01*
X108330000Y-125036000D02*
X110193500Y-125036000D01*
X111506000Y-123723500D02*
X114808000Y-123723500D01*
X114808000Y-126212500D02*
X114808000Y-123723500D01*
X99085500Y-143256000D02*
X99314000Y-143256000D01*
X99314000Y-143256000D02*
X100076000Y-144018000D01*
X100838000Y-143256000D02*
X101320500Y-143256000D01*
X100076000Y-144018000D02*
X100838000Y-143256000D01*
X100076000Y-137388500D02*
X101371500Y-137388500D01*
X101866000Y-136894000D02*
X103545000Y-136894000D01*
X101371500Y-137388500D02*
X101866000Y-136894000D01*
X111917000Y-146050000D02*
X112742000Y-145225000D01*
X110007500Y-146050000D02*
X111917000Y-146050000D01*
X111917000Y-146050000D02*
X112742000Y-146875000D01*
X117380990Y-140104990D02*
X117380990Y-141282490D01*
X115670000Y-138394000D02*
X117380990Y-140104990D01*
X117380990Y-141282490D02*
X118110000Y-142011500D01*
X114895000Y-138394000D02*
X115670000Y-138394000D01*
X118618000Y-135636000D02*
X118110000Y-136144000D01*
X118110000Y-136144000D02*
X118110000Y-136626500D01*
X123469500Y-135636000D02*
X118618000Y-135636000D01*
X124714000Y-134391500D02*
X123469500Y-135636000D01*
X118618000Y-135636000D02*
X118110000Y-135128000D01*
X118110000Y-135128000D02*
X118110000Y-134391500D01*
X106798924Y-144747010D02*
X107628076Y-144747010D01*
X105970000Y-143205914D02*
X106521990Y-143757904D01*
X106521990Y-143757904D02*
X106521990Y-144470076D01*
X105970000Y-141819000D02*
X105970000Y-143205914D01*
X107628076Y-144747010D02*
X108970000Y-143405086D01*
X108970000Y-143405086D02*
X108970000Y-141819000D01*
X106521990Y-144470076D02*
X106798924Y-144747010D01*
X104320000Y-136894000D02*
X103545000Y-136894000D01*
X105156000Y-137730000D02*
X104320000Y-136894000D01*
X101751914Y-143256000D02*
X105156000Y-139851914D01*
X105156000Y-139851914D02*
X105156000Y-137730000D01*
X101320500Y-143256000D02*
X101751914Y-143256000D01*
X118839010Y-144975510D02*
X118110000Y-144246500D01*
X118839010Y-149156490D02*
X118839010Y-144975510D01*
X118110000Y-149885500D02*
X118839010Y-149156490D01*
X111470000Y-128560000D02*
X111506000Y-128524000D01*
X111470000Y-130469000D02*
X111470000Y-128560000D01*
X105970000Y-132028000D02*
X105918000Y-132080000D01*
X105970000Y-130469000D02*
X105970000Y-132028000D01*
X108970000Y-140712000D02*
X109220000Y-140462000D01*
X108970000Y-141819000D02*
X108970000Y-140712000D01*
X123063000Y-128397000D02*
X123063000Y-125349000D01*
X123063000Y-125349000D02*
X123672500Y-124739500D01*
X123063000Y-126577000D02*
X123063000Y-128397000D01*
X123063000Y-128397000D02*
X123063000Y-129641500D01*
X113796000Y-135894000D02*
X113284000Y-135382000D01*
X114895000Y-135894000D02*
X113796000Y-135894000D01*
X118110000Y-144246500D02*
X118110000Y-143002000D01*
X118110000Y-143002000D02*
X118110000Y-142011500D01*
X113220000Y-117538000D02*
X113792000Y-118110000D01*
X113220000Y-117284000D02*
X113220000Y-117538000D01*
X125476000Y-118338500D02*
X126466500Y-118338500D01*
X126466500Y-118338500D02*
X127254000Y-119126000D01*
X127254000Y-119126000D02*
X127254000Y-123952000D01*
X126466500Y-124739500D02*
X125476000Y-124739500D01*
X127254000Y-123952000D02*
X126466500Y-124739500D01*
D32*
X99314000Y-105130500D02*
X99314000Y-104140000D01*
X99314000Y-104140000D02*
X99314000Y-102464000D01*
D30*
X108854499Y-112049501D02*
X109220000Y-111684000D01*
X109585501Y-112049501D02*
X110454499Y-112049501D01*
X109220000Y-111684000D02*
X109585501Y-112049501D01*
X110454499Y-112918499D02*
X110454499Y-112049501D01*
X110820000Y-113284000D02*
X110454499Y-112918499D01*
X109585501Y-114518499D02*
X110454499Y-114518499D01*
X109220000Y-114884000D02*
X109585501Y-114518499D01*
X110454499Y-113649501D02*
X110454499Y-114518499D01*
X110820000Y-113284000D02*
X110454499Y-113649501D01*
X112420000Y-110884000D02*
X112054499Y-111249501D01*
D29*
X87884000Y-123952000D02*
X91694000Y-123952000D01*
X91694000Y-123952000D02*
X92964000Y-123952000D01*
D30*
X107633696Y-114084000D02*
X108026848Y-114477152D01*
X107620000Y-114084000D02*
X107633696Y-114084000D01*
X107633696Y-112484000D02*
X108026848Y-112090848D01*
X107620000Y-112484000D02*
X107633696Y-112484000D01*
X108813152Y-112090848D02*
X108854499Y-112049501D01*
X108026848Y-112090848D02*
X108813152Y-112090848D01*
X110454499Y-112049501D02*
X110413152Y-112090848D01*
X110454499Y-114518499D02*
X110413152Y-114477152D01*
D29*
X98526500Y-113284000D02*
X97282000Y-113284000D01*
D31*
X101125000Y-91948000D02*
X101600000Y-91948000D01*
X99314000Y-93759000D02*
X101125000Y-91948000D01*
X99314000Y-96164000D02*
X99314000Y-93759000D01*
X101600000Y-91948000D02*
X103378000Y-91948000D01*
X103378000Y-91948000D02*
X105156000Y-91948000D01*
D29*
X105156000Y-91948000D02*
X108016000Y-91948000D01*
X108016000Y-91164000D02*
X108248000Y-90932000D01*
X108016000Y-91948000D02*
X108016000Y-91164000D01*
X109916000Y-91164000D02*
X109916000Y-91948000D01*
X109684000Y-90932000D02*
X109916000Y-91164000D01*
X108248000Y-90932000D02*
X109684000Y-90932000D01*
X115062000Y-103937000D02*
X115062000Y-104902000D01*
X121123885Y-113284000D02*
X121182212Y-113342327D01*
X119913500Y-113284000D02*
X121123885Y-113284000D01*
X103606500Y-105130500D02*
X103632000Y-105105000D01*
X99314000Y-105130500D02*
X103606500Y-105130500D01*
X97917000Y-147701000D02*
X99125000Y-147701000D01*
X97155000Y-148463000D02*
X97917000Y-147701000D01*
X97155000Y-149606000D02*
X97155000Y-148463000D01*
X97790000Y-150241000D02*
X97155000Y-149606000D01*
X99125000Y-150241000D02*
X97790000Y-150241000D01*
X100711000Y-145796000D02*
X100076000Y-145161000D01*
X100711000Y-147193000D02*
X100711000Y-145796000D01*
X100076000Y-145161000D02*
X100076000Y-144018000D01*
X100203000Y-147701000D02*
X100711000Y-147193000D01*
X99125000Y-147701000D02*
X100203000Y-147701000D01*
D30*
X112054499Y-111249501D02*
X112054499Y-111263319D01*
X112054499Y-111263319D02*
X112020001Y-111297817D01*
X107985501Y-113718499D02*
X107985501Y-112849501D01*
X107985501Y-112849501D02*
X107620000Y-112484000D01*
X107620000Y-114084000D02*
X107985501Y-113718499D01*
D29*
X114895000Y-134394000D02*
X116558000Y-134394000D01*
X120720490Y-133699990D02*
X121412000Y-134391500D01*
X117252010Y-133699990D02*
X120720490Y-133699990D01*
X116558000Y-134394000D02*
X117252010Y-133699990D01*
X99346990Y-134424490D02*
X100076000Y-135153500D01*
X99346990Y-132072510D02*
X99346990Y-134424490D01*
X100076000Y-131343500D02*
X99346990Y-132072510D01*
X112970000Y-141044000D02*
X111880000Y-139954000D01*
X112970000Y-141819000D02*
X112970000Y-141044000D01*
X105470000Y-141044000D02*
X105470000Y-141819000D01*
X106560000Y-139954000D02*
X105470000Y-141044000D01*
X104320000Y-134394000D02*
X105918000Y-135992000D01*
X103545000Y-134394000D02*
X104320000Y-134394000D01*
X111880000Y-139954000D02*
X106560000Y-139954000D01*
X105918000Y-139312000D02*
X106560000Y-139954000D01*
X105918000Y-135992000D02*
X105918000Y-139312000D01*
X105320000Y-141969000D02*
X105470000Y-141819000D01*
X105638500Y-144018000D02*
X105320000Y-143699500D01*
X105320000Y-143699500D02*
X105320000Y-141969000D01*
X114895000Y-134394000D02*
X113520156Y-134394000D01*
X112522000Y-135392156D02*
X112522000Y-139312000D01*
X113520156Y-134394000D02*
X112522000Y-135392156D01*
X112522000Y-139312000D02*
X111880000Y-139954000D01*
X100076000Y-135153500D02*
X100835500Y-134394000D01*
X100835500Y-134394000D02*
X103545000Y-134394000D01*
X108178500Y-105943500D02*
X108204000Y-105918000D01*
X94996000Y-120396000D02*
X98526500Y-120396000D01*
X112776000Y-93523000D02*
X110541000Y-93523000D01*
X110541000Y-93523000D02*
X109916000Y-94148000D01*
X109916000Y-94148000D02*
X109916000Y-98232000D01*
X111734500Y-100050500D02*
X111734500Y-100838000D01*
X109916000Y-98232000D02*
X111734500Y-100050500D01*
X111734500Y-102387500D02*
X108204000Y-105918000D01*
X111734500Y-100838000D02*
X111734500Y-102387500D01*
D30*
X107620000Y-114884000D02*
X107213400Y-114477400D01*
X107213400Y-112090600D02*
X107620000Y-111684000D01*
X107213400Y-114477400D02*
X107213400Y-112090600D01*
X110413400Y-111277400D02*
X110820000Y-111684000D01*
X108026600Y-111277400D02*
X110413400Y-111277400D01*
X107620000Y-111684000D02*
X108026600Y-111277400D01*
X107620000Y-114884000D02*
X108026600Y-115290600D01*
X110413400Y-115290600D02*
X110820000Y-114884000D01*
X108026600Y-115290600D02*
X110413400Y-115290600D01*
X107213400Y-111277400D02*
X107620000Y-111684000D01*
X107213400Y-106680000D02*
X107213400Y-111277400D01*
D29*
X113550000Y-136894000D02*
X114895000Y-136894000D01*
X113284000Y-137160000D02*
X113550000Y-136894000D01*
X113288000Y-136394000D02*
X113284000Y-136398000D01*
X114895000Y-136394000D02*
X113288000Y-136394000D01*
X108178500Y-149072500D02*
X108458000Y-149072500D01*
X107696000Y-146812000D02*
X107696000Y-148590000D01*
X108432500Y-146075500D02*
X107696000Y-146812000D01*
X107696000Y-148590000D02*
X108178500Y-149072500D01*
X108432500Y-146050000D02*
X108432500Y-146075500D01*
X107315000Y-146431000D02*
X107696000Y-146812000D01*
X107315000Y-146431000D02*
X104075000Y-146431000D01*
X106553000Y-147701000D02*
X106934000Y-148082000D01*
X106934000Y-148082000D02*
X106934000Y-150114000D01*
X107467500Y-150647500D02*
X108458000Y-150647500D01*
X106934000Y-150114000D02*
X107467500Y-150647500D01*
X106553000Y-147701000D02*
X104075000Y-147701000D01*
X104075000Y-147701000D02*
X102743000Y-147701000D01*
X102362000Y-147320000D02*
X102362000Y-146050000D01*
X102362000Y-146050000D02*
X102616000Y-145796000D01*
X111470000Y-143281844D02*
X111470000Y-141819000D01*
X102616000Y-145796000D02*
X107117916Y-145796000D01*
X102743000Y-147701000D02*
X102362000Y-147320000D01*
X107117916Y-145796000D02*
X109149914Y-143764002D01*
X110987842Y-143764002D02*
X111470000Y-143281844D01*
X109149914Y-143764002D02*
X110987842Y-143764002D01*
X116586000Y-136478000D02*
X116586000Y-136144000D01*
X115670000Y-137394000D02*
X116586000Y-136478000D01*
X114895000Y-137394000D02*
X115670000Y-137394000D01*
X116586000Y-130073500D02*
X116560500Y-130048000D01*
X116586000Y-131318000D02*
X116586000Y-130073500D01*
X110490000Y-140462000D02*
X111388000Y-140462000D01*
X111388000Y-140462000D02*
X111970000Y-141044000D01*
X111970000Y-141044000D02*
X111970000Y-141819000D01*
X102895500Y-143256000D02*
X102895500Y-143230500D01*
X102895500Y-143230500D02*
X103886000Y-142240000D01*
X104075000Y-148971000D02*
X102489000Y-148971000D01*
X102489000Y-148971000D02*
X101600000Y-148082000D01*
X101600000Y-148082000D02*
X101600000Y-145542000D01*
X102895500Y-144246500D02*
X102895500Y-143256000D01*
X101600000Y-145542000D02*
X102895500Y-144246500D01*
X107143010Y-151339010D02*
X110534990Y-151339010D01*
X106045000Y-150241000D02*
X107143010Y-151339010D01*
X111506000Y-150368000D02*
X112496500Y-150368000D01*
X110534990Y-151339010D02*
X111506000Y-150368000D01*
X111760000Y-144272000D02*
X112470000Y-143562000D01*
X109728000Y-144272000D02*
X111760000Y-144272000D01*
X112470000Y-143562000D02*
X112470000Y-141819000D01*
X109315990Y-144684010D02*
X109728000Y-144272000D01*
X109315990Y-148177990D02*
X109315990Y-144684010D01*
X111506000Y-150368000D02*
X109315990Y-148177990D01*
X106045000Y-150241000D02*
X104075000Y-150241000D01*
X114895000Y-133394000D02*
X113582000Y-133394000D01*
X113582000Y-133394000D02*
X113538000Y-133350000D01*
X114274500Y-127787500D02*
X113284000Y-128778000D01*
X114808000Y-127787500D02*
X114274500Y-127787500D01*
X87884000Y-125527000D02*
X87884000Y-132080000D01*
X90424000Y-125527000D02*
X90424000Y-132080000D01*
X121793000Y-129946500D02*
X121894500Y-130048000D01*
X121793000Y-126577000D02*
X121793000Y-129946500D01*
X125476000Y-119913500D02*
X123672500Y-119913500D01*
X123063000Y-120523000D02*
X123063000Y-121327000D01*
X123672500Y-119913500D02*
X123063000Y-120523000D01*
X110970000Y-130469000D02*
X110970000Y-127536000D01*
X110970000Y-127536000D02*
X112014000Y-126492000D01*
X112014000Y-126492000D02*
X113284000Y-125222000D01*
X123063000Y-122047000D02*
X123063000Y-121327000D01*
X122428000Y-122682000D02*
X123063000Y-122047000D01*
D30*
X120015000Y-117602000D02*
X121158000Y-117602000D01*
X121158000Y-117602000D02*
X121412000Y-117856000D01*
X119761000Y-117856020D02*
X120015000Y-117602000D01*
X112420000Y-116484000D02*
X112679058Y-116484000D01*
X119761000Y-118872000D02*
X119761000Y-117856020D01*
X115570000Y-119126000D02*
X119507000Y-119126000D01*
X119507000Y-119126000D02*
X119761000Y-118872000D01*
X112679058Y-116484000D02*
X113113557Y-116918499D01*
X113395441Y-116918499D02*
X115570000Y-119126000D01*
X113113557Y-116918499D02*
X113395441Y-116918499D01*
X123063000Y-120502000D02*
X123063000Y-121327000D01*
X121412000Y-118851000D02*
X123063000Y-120502000D01*
X121412000Y-117856000D02*
X121412000Y-118851000D01*
X111620000Y-117284000D02*
X111620000Y-118986000D01*
X111620000Y-118986000D02*
X112014000Y-119380000D01*
X112014000Y-119380000D02*
X112014000Y-120650000D01*
D29*
X109470000Y-130469000D02*
X109470000Y-127512000D01*
X109470000Y-127512000D02*
X110744000Y-126238000D01*
X110744000Y-126238000D02*
X112522000Y-124460000D01*
X114808000Y-122148500D02*
X114808000Y-121666000D01*
X114300000Y-121158000D02*
X112522000Y-121158000D01*
X114808000Y-121666000D02*
X114300000Y-121158000D01*
D30*
X112522000Y-121158000D02*
X112014000Y-120650000D01*
D29*
X114808000Y-121920000D02*
X115570000Y-121158000D01*
X114808000Y-122148500D02*
X114808000Y-121920000D01*
D30*
X111606184Y-117284000D02*
X111206184Y-116884000D01*
X111620000Y-117284000D02*
X111606184Y-117284000D01*
D29*
X123372000Y-98552000D02*
X123372000Y-92052000D01*
D30*
X123372000Y-92052000D02*
X125254000Y-90170000D01*
X125254000Y-90170000D02*
X148590000Y-90170000D01*
D29*
X109970000Y-128536000D02*
X109982000Y-128524000D01*
X109970000Y-130469000D02*
X109970000Y-128536000D01*
X109982000Y-123672500D02*
X111506000Y-122148500D01*
X109982000Y-124460000D02*
X109982000Y-123672500D01*
D30*
X111252000Y-121457000D02*
X111506000Y-121711000D01*
X110454499Y-116849501D02*
X110454499Y-117459441D01*
X111506000Y-121711000D02*
X111506000Y-122148500D01*
X110820000Y-116484000D02*
X110454499Y-116849501D01*
X110454499Y-117459441D02*
X111252000Y-118256942D01*
X111252000Y-118256942D02*
X111252000Y-121457000D01*
D29*
X90678000Y-134874000D02*
X90424000Y-134620000D01*
X97282000Y-137922000D02*
X96266000Y-137922000D01*
X95758000Y-136144000D02*
X94488000Y-134874000D01*
X94488000Y-134874000D02*
X90678000Y-134874000D01*
X95758000Y-137414000D02*
X95758000Y-136144000D01*
X96266000Y-137922000D02*
X95758000Y-137414000D01*
X108458000Y-141807000D02*
X108470000Y-141819000D01*
X108458000Y-140462000D02*
X108458000Y-141807000D01*
X90424000Y-134620000D02*
X90424000Y-133655000D01*
X87884000Y-135128000D02*
X88392000Y-135636000D01*
X88392000Y-135636000D02*
X94234000Y-135636000D01*
X94234000Y-135636000D02*
X94996000Y-136398000D01*
X94996000Y-136398000D02*
X94996000Y-137668000D01*
X94996000Y-137668000D02*
X96012000Y-138684000D01*
X96012000Y-138684000D02*
X97282000Y-138684000D01*
X107970000Y-140736000D02*
X107970000Y-141819000D01*
X107696000Y-140462000D02*
X107970000Y-140736000D01*
X87884000Y-135128000D02*
X87884000Y-133655000D01*
X117856000Y-128778000D02*
X119147000Y-128778000D01*
X117443990Y-131211852D02*
X117443990Y-129190010D01*
X117443990Y-129190010D02*
X117856000Y-128778000D01*
X119147000Y-128778000D02*
X120523000Y-127402000D01*
X116261842Y-132394000D02*
X117443990Y-131211852D01*
X114895000Y-132394000D02*
X116261842Y-132394000D01*
X120523000Y-127402000D02*
X120523000Y-126577000D01*
D30*
X112420000Y-117284000D02*
X112420000Y-118262000D01*
X112420000Y-118262000D02*
X113030000Y-118872000D01*
X113030000Y-118872000D02*
X113030000Y-119888000D01*
X113030000Y-119888000D02*
X113284000Y-120142000D01*
X113284000Y-120142000D02*
X116332000Y-120142000D01*
X116332000Y-120142000D02*
X117602000Y-120142000D01*
X117602000Y-120142000D02*
X118110000Y-120650000D01*
X120523000Y-125752000D02*
X118110000Y-123339000D01*
X120523000Y-126577000D02*
X120523000Y-125752000D01*
X118110000Y-123339000D02*
X118110000Y-122428000D01*
X118110000Y-120650000D02*
X118110000Y-122428000D01*
D29*
X114120010Y-129318990D02*
X115791010Y-129318990D01*
X112970000Y-130469000D02*
X114120010Y-129318990D01*
X115791010Y-129318990D02*
X117094000Y-128016000D01*
X117094000Y-128016000D02*
X118618000Y-128016000D01*
X119253000Y-127381000D02*
X119253000Y-126577000D01*
X118618000Y-128016000D02*
X119253000Y-127381000D01*
D30*
X112522000Y-120396000D02*
X112776000Y-120650000D01*
X111985501Y-118618000D02*
X112522000Y-119126000D01*
X112522000Y-119126000D02*
X112522000Y-120396000D01*
X111620000Y-116639952D02*
X111985501Y-117005453D01*
X111985501Y-117005453D02*
X111985501Y-118618000D01*
X112776000Y-120650000D02*
X117094000Y-120650000D01*
X111620000Y-116484000D02*
X111620000Y-116639952D01*
X117094000Y-120650000D02*
X117602000Y-121158000D01*
X117602000Y-121158000D02*
X117602000Y-123571000D01*
X119253000Y-125222000D02*
X119253000Y-126577000D01*
X117602000Y-123571000D02*
X119253000Y-125222000D01*
D29*
X112470000Y-130469000D02*
X112470000Y-128322000D01*
X112470000Y-128322000D02*
X112470000Y-127814000D01*
X113188010Y-127095990D02*
X115982010Y-127095990D01*
X112470000Y-127814000D02*
X113188010Y-127095990D01*
X115982010Y-127095990D02*
X116586000Y-126492000D01*
X120396000Y-122682000D02*
X121412000Y-122682000D01*
X121412000Y-122682000D02*
X121793000Y-122301000D01*
X121793000Y-122301000D02*
X121793000Y-121327000D01*
X120396000Y-122682000D02*
X119761010Y-123316990D01*
D30*
X119888000Y-122174000D02*
X120396000Y-122682000D01*
X119888000Y-120142000D02*
X119888000Y-122174000D01*
X112785501Y-117865501D02*
X114554011Y-119634011D01*
X112785501Y-117108559D02*
X112785501Y-117865501D01*
X112526443Y-116849501D02*
X112785501Y-117108559D01*
X114554011Y-119634011D02*
X119380000Y-119634000D01*
X112244559Y-116849501D02*
X112526443Y-116849501D01*
X119380000Y-119634000D02*
X119888000Y-120142000D01*
X112054499Y-116659441D02*
X112244559Y-116849501D01*
X112054499Y-116118499D02*
X112054499Y-116659441D01*
X111620000Y-115684000D02*
X112054499Y-116118499D01*
X105778000Y-119126000D02*
X107620000Y-117284000D01*
X105156000Y-119126000D02*
X105778000Y-119126000D01*
D29*
X100528076Y-135845010D02*
X101479086Y-134894000D01*
X97999010Y-135845010D02*
X100528076Y-135845010D01*
X96774000Y-134620000D02*
X97999010Y-135845010D01*
X98044000Y-128270000D02*
X96774000Y-129794000D01*
X101479086Y-134894000D02*
X103545000Y-134894000D01*
X96774000Y-129794000D02*
X96774000Y-134620000D01*
X101092000Y-128270000D02*
X98044000Y-128270000D01*
X102616000Y-126746000D02*
X101092000Y-128270000D01*
X102616000Y-121666000D02*
X102616000Y-126746000D01*
D30*
X106820000Y-117284000D02*
X105613013Y-118490987D01*
X105613013Y-118490987D02*
X105156000Y-118490987D01*
D29*
X101842000Y-135394000D02*
X103545000Y-135394000D01*
X97790000Y-136398000D02*
X100838000Y-136398000D01*
X96266000Y-134874000D02*
X97790000Y-136398000D01*
X96266000Y-129540000D02*
X96266000Y-134874000D01*
X100838000Y-136398000D02*
X101842000Y-135394000D01*
X102108000Y-122174000D02*
X102108000Y-126492000D01*
X97790000Y-127762000D02*
X96266000Y-129540000D01*
X102108000Y-126492000D02*
X100838000Y-127762000D01*
X100838000Y-127762000D02*
X97790000Y-127762000D01*
X116332000Y-140056000D02*
X115670000Y-139394000D01*
X116332000Y-143764000D02*
X116332000Y-140056000D01*
X114871000Y-145225000D02*
X116332000Y-143764000D01*
X115670000Y-139394000D02*
X114895000Y-139394000D01*
X114842000Y-145225000D02*
X114871000Y-145225000D01*
X98526500Y-125222000D02*
X98526500Y-122682000D01*
X98526500Y-121971000D02*
X100101500Y-120396000D01*
X98526500Y-122682000D02*
X98526500Y-121971000D01*
D30*
X108788200Y-116115800D02*
X109220000Y-115684000D01*
X105994200Y-120396000D02*
X108788200Y-117602000D01*
X108788200Y-117602000D02*
X108788200Y-116115800D01*
X100101500Y-120396000D02*
X105994200Y-120396000D01*
D29*
X100101500Y-125222000D02*
X100101500Y-122682000D01*
D30*
X100101500Y-122682000D02*
X100101500Y-122207000D01*
X106101476Y-120650011D02*
X109220000Y-117531487D01*
X100101500Y-122207000D02*
X101658489Y-120650011D01*
X101658489Y-120650011D02*
X106101476Y-120650011D01*
X109220000Y-117531487D02*
X109220000Y-117284000D01*
D29*
X111734500Y-96266000D02*
X111734500Y-98552000D01*
D30*
X112362510Y-99180010D02*
X111734500Y-98552000D01*
X108420000Y-110884000D02*
X108420000Y-110636513D01*
X108420000Y-110636513D02*
X108054499Y-110271012D01*
X108054499Y-110271012D02*
X108054499Y-106829501D01*
X108054499Y-106829501D02*
X112362510Y-102521490D01*
X112362510Y-102521490D02*
X112362510Y-99180010D01*
X108854499Y-110518499D02*
X109220000Y-110884000D01*
X108854499Y-108569501D02*
X108854499Y-110518499D01*
X109654499Y-107769501D02*
X108854499Y-108569501D01*
D29*
X113309500Y-96266000D02*
X113309500Y-100838000D01*
D30*
X109654499Y-107769501D02*
X109654499Y-105991501D01*
X113309500Y-102336500D02*
X113309500Y-100838000D01*
X109654499Y-105991501D02*
X113309500Y-102336500D01*
D29*
X140970000Y-138164000D02*
X140982000Y-138176000D01*
X140970000Y-132359500D02*
X140970000Y-138164000D01*
X138684000Y-138168000D02*
X138692000Y-138176000D01*
X138684000Y-132359500D02*
X138684000Y-138168000D01*
D30*
X110833817Y-115684000D02*
X111233817Y-116084000D01*
X110820000Y-115684000D02*
X110833817Y-115684000D01*
X111620000Y-114897817D02*
X112020000Y-115297817D01*
X111620000Y-114884000D02*
X111620000Y-114897817D01*
X111620000Y-111697816D02*
X112020000Y-112097816D01*
X111620000Y-111684000D02*
X111620000Y-111697816D01*
X140970000Y-125730000D02*
X140970000Y-130784500D01*
X111620000Y-112497816D02*
X112020001Y-112897817D01*
X111620000Y-112484000D02*
X111620000Y-112497816D01*
X138684000Y-130784500D02*
X138684000Y-125730000D01*
X111620000Y-113297815D02*
X112020001Y-113697816D01*
X111620000Y-113284000D02*
X111620000Y-113297815D01*
X136398000Y-130784500D02*
X136398000Y-125730000D01*
D29*
X92964000Y-125527000D02*
X92964000Y-132080000D01*
D31*
X97014000Y-100330000D02*
X97014000Y-96164000D01*
X97014000Y-93537000D02*
X97028000Y-93523000D01*
X97014000Y-96164000D02*
X97014000Y-93537000D01*
X103980000Y-100330000D02*
X97014000Y-100330000D01*
X106934000Y-103284000D02*
X103980000Y-100330000D01*
D29*
X120523000Y-118465500D02*
X120624500Y-118364000D01*
X120523000Y-121327000D02*
X120523000Y-118465500D01*
X136398000Y-138172000D02*
X136402000Y-138176000D01*
X136398000Y-132359500D02*
X136398000Y-138172000D01*
D30*
X78740000Y-119380000D02*
X77470000Y-118110000D01*
X103076499Y-117649501D02*
X101092000Y-119634000D01*
X83058000Y-119634000D02*
X82804000Y-119380000D01*
X105654499Y-117649501D02*
X103076499Y-117649501D01*
X101092000Y-119634000D02*
X83058000Y-119634000D01*
X82804000Y-119380000D02*
X78740000Y-119380000D01*
X106020000Y-117284000D02*
X105654499Y-117649501D01*
X82804000Y-115570000D02*
X80010000Y-115570000D01*
X85344000Y-118110000D02*
X82804000Y-115570000D01*
X93156326Y-118110000D02*
X85344000Y-118110000D01*
X93156357Y-118109969D02*
X93156326Y-118110000D01*
X93787643Y-118109969D02*
X93156357Y-118109969D01*
X93787674Y-118110000D02*
X93787643Y-118109969D01*
X101092000Y-118110000D02*
X93787674Y-118110000D01*
X102718000Y-116484000D02*
X101092000Y-118110000D01*
X105220000Y-116484000D02*
X102718000Y-116484000D01*
X78740000Y-116840000D02*
X77470000Y-115570000D01*
X82804000Y-116840000D02*
X78740000Y-116840000D01*
X105654499Y-116849501D02*
X102860499Y-116849501D01*
X84582000Y-118618000D02*
X82804000Y-116840000D01*
X101092000Y-118618000D02*
X84582000Y-118618000D01*
X102860499Y-116849501D02*
X101092000Y-118618000D01*
X106020000Y-116484000D02*
X105654499Y-116849501D01*
X102934000Y-117284000D02*
X105220000Y-117284000D01*
X101092000Y-119126000D02*
X102934000Y-117284000D01*
X83820000Y-119126000D02*
X101092000Y-119126000D01*
X83820000Y-119126000D02*
X82804000Y-118110000D01*
X82804000Y-118110000D02*
X80010000Y-118110000D01*
X94488000Y-97028000D02*
X88900000Y-91440000D01*
X102791501Y-109649501D02*
X101092000Y-107950000D01*
X106020000Y-109284000D02*
X105654499Y-109649501D01*
X101092000Y-107950000D02*
X96774000Y-107950000D01*
X78740000Y-91440000D02*
X77470000Y-90170000D01*
X88900000Y-91440000D02*
X78740000Y-91440000D01*
X105654499Y-109649501D02*
X102791501Y-109649501D01*
X94488000Y-105664000D02*
X94488000Y-97028000D01*
X96774000Y-107950000D02*
X94488000Y-105664000D01*
X102934000Y-109284000D02*
X101092000Y-107442000D01*
X95504000Y-96774000D02*
X89408000Y-90678000D01*
X105220000Y-109284000D02*
X102934000Y-109284000D01*
X97536000Y-107442000D02*
X95504000Y-105410000D01*
X95504000Y-105410000D02*
X95504000Y-96774000D01*
X101092000Y-107442000D02*
X97536000Y-107442000D01*
X89408000Y-90678000D02*
X88900000Y-90170000D01*
X88900000Y-90170000D02*
X80010000Y-90170000D01*
X96012000Y-108458000D02*
X93472000Y-105918000D01*
X101092000Y-108458000D02*
X96012000Y-108458000D01*
X88900000Y-95250000D02*
X80010000Y-95250000D01*
X93472000Y-99822000D02*
X88900000Y-95250000D01*
X93472000Y-105918000D02*
X93472000Y-99822000D01*
X102718000Y-110084000D02*
X101092000Y-108458000D01*
X105220000Y-110084000D02*
X102718000Y-110084000D01*
X102359501Y-111249501D02*
X101092000Y-109982000D01*
X105654499Y-111249501D02*
X102359501Y-111249501D01*
X106020000Y-110884000D02*
X105654499Y-111249501D01*
X94234000Y-109982000D02*
X94190056Y-109982000D01*
X101092000Y-109982000D02*
X94234000Y-109982000D01*
X78740000Y-99060000D02*
X77470000Y-97790000D01*
X82804000Y-99060000D02*
X78740000Y-99060000D01*
X93726000Y-109982000D02*
X82804000Y-99060000D01*
X94234000Y-109982000D02*
X93726000Y-109982000D01*
X88900000Y-97790000D02*
X80010000Y-97790000D01*
X91440000Y-106426000D02*
X91440000Y-100330000D01*
X94488000Y-109474000D02*
X91440000Y-106426000D01*
X91440000Y-100330000D02*
X88900000Y-97790000D01*
X101092000Y-109474000D02*
X94488000Y-109474000D01*
X102502000Y-110884000D02*
X101092000Y-109474000D01*
X105220000Y-110884000D02*
X102502000Y-110884000D01*
X101092000Y-110998000D02*
X92202000Y-110998000D01*
X92202000Y-110998000D02*
X82804000Y-101600000D01*
X102143501Y-112049501D02*
X101092000Y-110998000D01*
X78740000Y-101600000D02*
X77470000Y-100330000D01*
X105654499Y-112049501D02*
X102143501Y-112049501D01*
X82804000Y-101600000D02*
X78740000Y-101600000D01*
X106020000Y-111684000D02*
X105654499Y-112049501D01*
X82804000Y-100330000D02*
X80010000Y-100330000D01*
X92964000Y-110490000D02*
X82804000Y-100330000D01*
X102286000Y-111684000D02*
X101092000Y-110490000D01*
X101092000Y-110490000D02*
X92964000Y-110490000D01*
X105220000Y-111684000D02*
X102286000Y-111684000D01*
X78740000Y-104140000D02*
X77470000Y-102870000D01*
X101092000Y-112014000D02*
X90678000Y-112014000D01*
X82804000Y-104140000D02*
X78740000Y-104140000D01*
X101927501Y-112849501D02*
X101092000Y-112014000D01*
X90678000Y-112014000D02*
X82804000Y-104140000D01*
X105654499Y-112849501D02*
X101927501Y-112849501D01*
X106020000Y-112484000D02*
X105654499Y-112849501D01*
X82804000Y-102870000D02*
X80010000Y-102870000D01*
X91440000Y-111506000D02*
X82804000Y-102870000D01*
X101092000Y-111506000D02*
X91440000Y-111506000D01*
X102070000Y-112484000D02*
X101092000Y-111506000D01*
X105220000Y-112484000D02*
X102070000Y-112484000D01*
X78740000Y-106680000D02*
X77470000Y-105410000D01*
X82804000Y-106680000D02*
X78740000Y-106680000D01*
X101092000Y-114554000D02*
X90678000Y-114554000D01*
X101996499Y-113649501D02*
X101092000Y-114554000D01*
X105654499Y-113649501D02*
X101996499Y-113649501D01*
X90678000Y-114554000D02*
X82804000Y-106680000D01*
X106020000Y-113284000D02*
X105654499Y-113649501D01*
X91440000Y-114046000D02*
X82804000Y-105410000D01*
X101092000Y-114046000D02*
X91440000Y-114046000D01*
X82804000Y-105410000D02*
X80010000Y-105410000D01*
X101854000Y-113284000D02*
X101092000Y-114046000D01*
X105220000Y-113284000D02*
X101854000Y-113284000D01*
X78740000Y-109220000D02*
X77470000Y-107950000D01*
X82804000Y-109220000D02*
X78740000Y-109220000D01*
X101092000Y-115570000D02*
X89154000Y-115570000D01*
X102212499Y-114449501D02*
X101092000Y-115570000D01*
X106020000Y-114084000D02*
X105654499Y-114449501D01*
X89154000Y-115570000D02*
X82804000Y-109220000D01*
X105654499Y-114449501D02*
X102212499Y-114449501D01*
X89916000Y-115062000D02*
X82804000Y-107950000D01*
X82804000Y-107950000D02*
X80010000Y-107950000D01*
X101092000Y-115062000D02*
X89916000Y-115062000D01*
X102070000Y-114084000D02*
X101092000Y-115062000D01*
X105220000Y-114084000D02*
X102070000Y-114084000D01*
X78740000Y-111760000D02*
X77470000Y-110490000D01*
X101092000Y-116586000D02*
X87630000Y-116586000D01*
X102428499Y-115249501D02*
X101092000Y-116586000D01*
X105654499Y-115249501D02*
X102428499Y-115249501D01*
X82804000Y-111760000D02*
X78740000Y-111760000D01*
X87630000Y-116586000D02*
X82804000Y-111760000D01*
X106020000Y-114884000D02*
X105654499Y-115249501D01*
X82804000Y-110490000D02*
X80010000Y-110490000D01*
X88392000Y-116078000D02*
X82804000Y-110490000D01*
X101092000Y-116078000D02*
X88392000Y-116078000D01*
X102286000Y-114884000D02*
X101092000Y-116078000D01*
X105220000Y-114884000D02*
X102286000Y-114884000D01*
X101092000Y-117602000D02*
X86106000Y-117602000D01*
X82804000Y-114300000D02*
X78740000Y-114300000D01*
X105654499Y-116049501D02*
X102644499Y-116049501D01*
X86106000Y-117602000D02*
X82804000Y-114300000D01*
X78740000Y-114300000D02*
X77470000Y-113030000D01*
X102644499Y-116049501D02*
X101092000Y-117602000D01*
X106020000Y-115684000D02*
X105654499Y-116049501D01*
X101092000Y-117094000D02*
X86868000Y-117094000D01*
X102502000Y-115684000D02*
X101092000Y-117094000D01*
X82804000Y-113030000D02*
X80010000Y-113030000D01*
X86868000Y-117094000D02*
X82804000Y-113030000D01*
X105220000Y-115684000D02*
X102502000Y-115684000D01*
X78740000Y-96520000D02*
X77470000Y-95250000D01*
X88900000Y-96520000D02*
X78740000Y-96520000D01*
X92456000Y-106172000D02*
X92456000Y-100076000D01*
X92456000Y-100076000D02*
X88900000Y-96520000D01*
X95250000Y-108966000D02*
X92456000Y-106172000D01*
X101092000Y-108966000D02*
X95250000Y-108966000D01*
X102575501Y-110449501D02*
X101092000Y-108966000D01*
X105654499Y-110449501D02*
X102575501Y-110449501D01*
X106020000Y-110084000D02*
X105654499Y-110449501D01*
X88900000Y-93980000D02*
X78740000Y-93980000D01*
X78740000Y-93980000D02*
X77470000Y-92710000D01*
X93472000Y-98552000D02*
X88900000Y-93980000D01*
X107620000Y-107391000D02*
X107620000Y-109284000D01*
X107620000Y-106959200D02*
X107620000Y-107391000D01*
X107772200Y-106807000D02*
X107620000Y-106959200D01*
X107772200Y-106299000D02*
X107772200Y-106807000D01*
X107391199Y-105917999D02*
X107772200Y-106299000D01*
X101853999Y-105917999D02*
X107391199Y-105917999D01*
X106820000Y-109284000D02*
X106820000Y-108852000D01*
X106820000Y-108852000D02*
X106172000Y-108204000D01*
X103353800Y-108204000D02*
X102363310Y-107213510D01*
X106172000Y-108204000D02*
X103353800Y-108204000D01*
X88900000Y-92710000D02*
X80010000Y-92710000D01*
X93472000Y-97282000D02*
X88900000Y-92710000D01*
X110020000Y-110884000D02*
X110414000Y-110490000D01*
X110427816Y-110490000D02*
X110433816Y-110484000D01*
X110414000Y-110490000D02*
X110427816Y-110490000D01*
X149860000Y-91440000D02*
X151130000Y-90170000D01*
X139700000Y-91440000D02*
X149860000Y-91440000D01*
X132762501Y-98377499D02*
X139700000Y-91440000D01*
X132762501Y-102187499D02*
X132762501Y-98377499D01*
X131826000Y-103124000D02*
X132762501Y-102187499D01*
X111760000Y-105410000D02*
X116078000Y-105410000D01*
X116078000Y-105410000D02*
X118364000Y-103124000D01*
X118364000Y-103124000D02*
X131826000Y-103124000D01*
X110744000Y-106426000D02*
X111760000Y-105410000D01*
X110744000Y-106934000D02*
X110744000Y-106426000D01*
X110833815Y-110884000D02*
X111233816Y-110483999D01*
X110820000Y-110884000D02*
X110833815Y-110884000D01*
X149860000Y-93980000D02*
X151130000Y-92710000D01*
X139700000Y-93980000D02*
X149860000Y-93980000D01*
X133604000Y-102616000D02*
X133604000Y-100076000D01*
X118364000Y-103632000D02*
X132588000Y-103632000D01*
X116078000Y-105918000D02*
X118364000Y-103632000D01*
X132588000Y-103632000D02*
X133604000Y-102616000D01*
X133604000Y-100076000D02*
X139700000Y-93980000D01*
X112014000Y-105918000D02*
X116078000Y-105918000D01*
X111506000Y-106426000D02*
X112014000Y-105918000D01*
X134620000Y-100330000D02*
X139700000Y-95250000D01*
X134620000Y-102870000D02*
X134620000Y-100330000D01*
X133350000Y-104140000D02*
X134620000Y-102870000D01*
X118364000Y-104140000D02*
X133350000Y-104140000D01*
X116078000Y-106426000D02*
X118364000Y-104140000D01*
X139700000Y-95250000D02*
X148590000Y-95250000D01*
X112268000Y-106426000D02*
X116078000Y-106426000D01*
X110020000Y-108674000D02*
X112268000Y-106426000D01*
X110020000Y-109284000D02*
X110020000Y-108674000D01*
X149860000Y-96520000D02*
X151130000Y-95250000D01*
X139700000Y-96520000D02*
X149860000Y-96520000D01*
X135636000Y-103124000D02*
X135636000Y-100584000D01*
X110385501Y-108816499D02*
X112268000Y-106934000D01*
X116078000Y-106934000D02*
X118364000Y-104648000D01*
X135636000Y-100584000D02*
X139700000Y-96520000D01*
X134112000Y-104648000D02*
X135636000Y-103124000D01*
X118364000Y-104648000D02*
X134112000Y-104648000D01*
X112268000Y-106934000D02*
X116078000Y-106934000D01*
X110385501Y-109718499D02*
X110385501Y-108816499D01*
X110020000Y-110084000D02*
X110385501Y-109718499D01*
X136652000Y-100838000D02*
X139700000Y-97790000D01*
X118364000Y-105156000D02*
X134874000Y-105156000D01*
X112268000Y-107442000D02*
X116078000Y-107442000D01*
X139700000Y-97790000D02*
X148590000Y-97790000D01*
X110820000Y-108890000D02*
X112268000Y-107442000D01*
X136652000Y-103378000D02*
X136652000Y-100838000D01*
X116078000Y-107442000D02*
X118364000Y-105156000D01*
X134874000Y-105156000D02*
X136652000Y-103378000D01*
X110820000Y-109284000D02*
X110820000Y-108890000D01*
X118364000Y-105664000D02*
X139192000Y-105664000D01*
X145796000Y-99060000D02*
X149860000Y-99060000D01*
X116078000Y-107950000D02*
X118364000Y-105664000D01*
X113816297Y-107902455D02*
X113863842Y-107950000D01*
X149860000Y-99060000D02*
X151130000Y-97790000D01*
X113863842Y-107950000D02*
X116078000Y-107950000D01*
X112315545Y-107902455D02*
X113816297Y-107902455D01*
X139192000Y-105664000D02*
X145796000Y-99060000D01*
X111185501Y-109032499D02*
X112315545Y-107902455D01*
X111185501Y-109718499D02*
X111185501Y-109032499D01*
X110820000Y-110084000D02*
X111185501Y-109718499D01*
X116078000Y-108458000D02*
X118364000Y-106172000D01*
X113711083Y-108156466D02*
X114012616Y-108458000D01*
X111620000Y-109036513D02*
X112500047Y-108156466D01*
X112500047Y-108156466D02*
X113711083Y-108156466D01*
X139954000Y-106172000D02*
X145796000Y-100330000D01*
X114012616Y-108458000D02*
X116078000Y-108458000D01*
X145796000Y-100330000D02*
X148590000Y-100330000D01*
X118364000Y-106172000D02*
X139954000Y-106172000D01*
X111620000Y-109284000D02*
X111620000Y-109036513D01*
X149860000Y-101600000D02*
X151130000Y-100330000D01*
X111620000Y-110084000D02*
X111620000Y-109836513D01*
X145796000Y-101600000D02*
X149860000Y-101600000D01*
X116078000Y-108966000D02*
X118364000Y-106680000D01*
X140716000Y-106680000D02*
X145796000Y-101600000D01*
X111620000Y-109836513D02*
X112054499Y-109402014D01*
X113605869Y-108410477D02*
X114161391Y-108966000D01*
X112054499Y-109108559D02*
X112752581Y-108410477D01*
X112054499Y-109402014D02*
X112054499Y-109108559D01*
X112752581Y-108410477D02*
X113605869Y-108410477D01*
X114161391Y-108966000D02*
X116078000Y-108966000D01*
X118364000Y-106680000D02*
X140716000Y-106680000D01*
X141478000Y-107188000D02*
X145796000Y-102870000D01*
X114310166Y-109474000D02*
X116078000Y-109474000D01*
X113500655Y-108664488D02*
X114310166Y-109474000D01*
X112939345Y-108664488D02*
X113500655Y-108664488D01*
X118364000Y-107188000D02*
X141478000Y-107188000D01*
X112420000Y-109183833D02*
X112939345Y-108664488D01*
X145796000Y-102870000D02*
X148590000Y-102870000D01*
X116078000Y-109474000D02*
X118364000Y-107188000D01*
X112420000Y-109284000D02*
X112420000Y-109183833D01*
X149860000Y-104140000D02*
X151130000Y-102870000D01*
X142240000Y-107696000D02*
X145796000Y-104140000D01*
X145796000Y-104140000D02*
X149860000Y-104140000D01*
X118364000Y-107696000D02*
X142240000Y-107696000D01*
X111620000Y-110884000D02*
X112054499Y-110449501D01*
X113044559Y-108918499D02*
X113395441Y-108918499D01*
X112054499Y-109908559D02*
X112244559Y-109718499D01*
X112526443Y-109718499D02*
X112785501Y-109459441D01*
X112785501Y-109177557D02*
X113044559Y-108918499D01*
X112785501Y-109459441D02*
X112785501Y-109177557D01*
X114331942Y-109855000D02*
X116205000Y-109855000D01*
X113395441Y-108918499D02*
X114331942Y-109855000D01*
X112054499Y-110449501D02*
X112054499Y-109908559D01*
X116205000Y-109855000D02*
X118364000Y-107696000D01*
X112244559Y-109718499D02*
X112526443Y-109718499D01*
X145796000Y-105410000D02*
X148590000Y-105410000D01*
X143002000Y-108204000D02*
X145796000Y-105410000D01*
X114299000Y-110363000D02*
X116205000Y-110363000D01*
X118364000Y-108204000D02*
X143002000Y-108204000D01*
X116205000Y-110363000D02*
X118364000Y-108204000D01*
X113220000Y-109284000D02*
X114299000Y-110363000D01*
X143764000Y-108712000D02*
X145796000Y-106680000D01*
X118364000Y-108712000D02*
X143764000Y-108712000D01*
X149860000Y-106680000D02*
X151130000Y-105410000D01*
X145796000Y-106680000D02*
X149860000Y-106680000D01*
X113880000Y-110744000D02*
X116332000Y-110744000D01*
X116332000Y-110744000D02*
X118364000Y-108712000D01*
X113220000Y-110084000D02*
X113880000Y-110744000D01*
X116408000Y-111684000D02*
X118364000Y-109728000D01*
X113220000Y-111684000D02*
X116408000Y-111684000D01*
X118364000Y-109728000D02*
X145288000Y-109728000D01*
X145288000Y-109728000D02*
X145796000Y-109220000D01*
X149860000Y-109220000D02*
X151130000Y-107950000D01*
X145796000Y-109220000D02*
X149860000Y-109220000D01*
X113220000Y-112484000D02*
X116624000Y-112484000D01*
X118364000Y-110744000D02*
X143764000Y-110744000D01*
X116624000Y-112484000D02*
X118364000Y-110744000D01*
X143764000Y-110744000D02*
X144780000Y-110744000D01*
X144780000Y-110744000D02*
X145796000Y-111760000D01*
X149860000Y-111760000D02*
X151130000Y-110490000D01*
X145796000Y-111760000D02*
X149860000Y-111760000D01*
X145796000Y-107950000D02*
X148590000Y-107950000D01*
X144526000Y-109220000D02*
X145796000Y-107950000D01*
X116332000Y-111252000D02*
X118364000Y-109220000D01*
X118364000Y-109220000D02*
X144526000Y-109220000D01*
X112852000Y-111252000D02*
X116332000Y-111252000D01*
X112420000Y-111684000D02*
X112852000Y-111252000D01*
X145796000Y-110490000D02*
X148590000Y-110490000D01*
X112785501Y-112118499D02*
X116481501Y-112118499D01*
X145542000Y-110236000D02*
X145796000Y-110490000D01*
X118364000Y-110236000D02*
X145542000Y-110236000D01*
X116481501Y-112118499D02*
X118364000Y-110236000D01*
X112420000Y-112484000D02*
X112785501Y-112118499D01*
X149860000Y-114300000D02*
X151130000Y-113030000D01*
X145288000Y-114808000D02*
X145796000Y-114300000D01*
X145796000Y-114300000D02*
X149860000Y-114300000D01*
X117856000Y-114808000D02*
X145288000Y-114808000D01*
X116332000Y-113284000D02*
X117856000Y-114808000D01*
X113220000Y-113284000D02*
X116332000Y-113284000D01*
X116116000Y-114084000D02*
X117856000Y-115824000D01*
X117856000Y-115824000D02*
X143764000Y-115824000D01*
X113220000Y-114084000D02*
X116116000Y-114084000D01*
X149860000Y-116840000D02*
X151130000Y-115570000D01*
X145796000Y-116840000D02*
X149860000Y-116840000D01*
X144780000Y-115824000D02*
X145796000Y-116840000D01*
X143764000Y-115824000D02*
X144780000Y-115824000D01*
X117856000Y-114300000D02*
X144526000Y-114300000D01*
X116474499Y-112918499D02*
X117856000Y-114300000D01*
X144526000Y-114300000D02*
X145796000Y-113030000D01*
X112785501Y-112918499D02*
X116474499Y-112918499D01*
X145796000Y-113030000D02*
X148590000Y-113030000D01*
X112420000Y-113284000D02*
X112785501Y-112918499D01*
X116258499Y-113718499D02*
X117856000Y-115316000D01*
X112420000Y-114084000D02*
X112785501Y-113718499D01*
X145542000Y-115316000D02*
X145796000Y-115570000D01*
X145796000Y-115570000D02*
X148590000Y-115570000D01*
X117856000Y-115316000D02*
X145542000Y-115316000D01*
X112785501Y-113718499D02*
X116258499Y-113718499D01*
X115684000Y-115684000D02*
X117856000Y-117856000D01*
X117856000Y-117856000D02*
X118364000Y-117856000D01*
X113220000Y-115684000D02*
X115684000Y-115684000D01*
X149860000Y-121920000D02*
X151130000Y-120650000D01*
X145796000Y-121920000D02*
X149860000Y-121920000D01*
X141732000Y-117856000D02*
X145796000Y-121920000D01*
X127762000Y-117856000D02*
X141732000Y-117856000D01*
X145796000Y-120650000D02*
X148590000Y-120650000D01*
X117856000Y-117348000D02*
X142494000Y-117348000D01*
X112420000Y-115684000D02*
X112788000Y-115316000D01*
X115824000Y-115316000D02*
X117856000Y-117348000D01*
X112788000Y-115316000D02*
X115824000Y-115316000D01*
X142494000Y-117348000D02*
X145796000Y-120650000D01*
X113220000Y-114884000D02*
X115900000Y-114884000D01*
X117856000Y-116840000D02*
X142240000Y-116840000D01*
X115900000Y-114884000D02*
X117856000Y-116840000D01*
X142240000Y-116840000D02*
X143256000Y-116840000D01*
X149860000Y-119380000D02*
X151130000Y-118110000D01*
X145796000Y-119380000D02*
X149860000Y-119380000D01*
X143256000Y-116840000D02*
X145796000Y-119380000D01*
X144018000Y-116332000D02*
X145796000Y-118110000D01*
X145796000Y-118110000D02*
X148590000Y-118110000D01*
X117856000Y-116332000D02*
X144018000Y-116332000D01*
X116042499Y-114518499D02*
X117856000Y-116332000D01*
X112785501Y-114518499D02*
X116042499Y-114518499D01*
X112420000Y-114884000D02*
X112785501Y-114518499D01*
X139700000Y-92710000D02*
X148590000Y-92710000D01*
X133858000Y-98552000D02*
X139700000Y-92710000D01*
X131826000Y-98806000D02*
X131572000Y-98552000D01*
X131826000Y-101600000D02*
X131826000Y-98806000D01*
X118364000Y-102616000D02*
X130810000Y-102616000D01*
X117856000Y-103124000D02*
X118364000Y-102616000D01*
X113284000Y-103124000D02*
X117856000Y-103124000D01*
X109585501Y-108600499D02*
X110236000Y-107950000D01*
X110236000Y-106172000D02*
X113284000Y-103124000D01*
X130810000Y-102616000D02*
X131826000Y-101600000D01*
X110236000Y-107950000D02*
X110236000Y-106172000D01*
X109585501Y-109718499D02*
X109585501Y-108600499D01*
X109220000Y-110084000D02*
X109585501Y-109718499D01*
D29*
X128016000Y-141478000D02*
X128016000Y-134429000D01*
X110470000Y-142982000D02*
X110744000Y-143256000D01*
X110470000Y-141819000D02*
X110470000Y-142982000D01*
X128016000Y-131191000D02*
X128016000Y-130419000D01*
X127635000Y-131572000D02*
X128016000Y-131191000D01*
X126365000Y-131572000D02*
X127635000Y-131572000D01*
X127635000Y-131572000D02*
X128016000Y-131953000D01*
X128016000Y-131953000D02*
X128016000Y-132779000D01*
D30*
X109626400Y-116890400D02*
X109220000Y-116484000D01*
X109626400Y-119100600D02*
X109626400Y-116890400D01*
X106680000Y-122047000D02*
X109626400Y-119100600D01*
X106680000Y-122936000D02*
X106680000Y-122047000D01*
M02*
