G04 #@! TF.GenerationSoftware,KiCad,Pcbnew,(5.1.9-0-10_14)*
G04 #@! TF.CreationDate,2021-04-14T19:06:18-04:00*
G04 #@! TF.ProjectId,delux pet on a chip,64656c75-7820-4706-9574-206f6e206120,rev?*
G04 #@! TF.SameCoordinates,Original*
G04 #@! TF.FileFunction,Soldermask,Top*
G04 #@! TF.FilePolarity,Negative*
%FSLAX46Y46*%
G04 Gerber Fmt 4.6, Leading zero omitted, Abs format (unit mm)*
G04 Created by KiCad (PCBNEW (5.1.9-0-10_14)) date 2021-04-14 19:06:18*
%MOMM*%
%LPD*%
G01*
G04 APERTURE LIST*
%ADD10O,1.800000X1.800000*%
%ADD11C,3.897300*%
%ADD12C,3.600000*%
%ADD13C,1.800000*%
%ADD14C,2.100000*%
%ADD15C,0.500000*%
%ADD16C,2.500000*%
%ADD17C,4.165999*%
%ADD18C,1.885000*%
G04 APERTURE END LIST*
G36*
G01*
X128316000Y-129219000D02*
X127716000Y-129219000D01*
G75*
G02*
X127491000Y-128994000I0J225000D01*
G01*
X127491000Y-128544000D01*
G75*
G02*
X127716000Y-128319000I225000J0D01*
G01*
X128316000Y-128319000D01*
G75*
G02*
X128541000Y-128544000I0J-225000D01*
G01*
X128541000Y-128994000D01*
G75*
G02*
X128316000Y-129219000I-225000J0D01*
G01*
G37*
G36*
G01*
X128316000Y-130869000D02*
X127716000Y-130869000D01*
G75*
G02*
X127491000Y-130644000I0J225000D01*
G01*
X127491000Y-130194000D01*
G75*
G02*
X127716000Y-129969000I225000J0D01*
G01*
X128316000Y-129969000D01*
G75*
G02*
X128541000Y-130194000I0J-225000D01*
G01*
X128541000Y-130644000D01*
G75*
G02*
X128316000Y-130869000I-225000J0D01*
G01*
G37*
G36*
G01*
X128316000Y-133229000D02*
X127716000Y-133229000D01*
G75*
G02*
X127491000Y-133004000I0J225000D01*
G01*
X127491000Y-132554000D01*
G75*
G02*
X127716000Y-132329000I225000J0D01*
G01*
X128316000Y-132329000D01*
G75*
G02*
X128541000Y-132554000I0J-225000D01*
G01*
X128541000Y-133004000D01*
G75*
G02*
X128316000Y-133229000I-225000J0D01*
G01*
G37*
G36*
G01*
X128316000Y-134879000D02*
X127716000Y-134879000D01*
G75*
G02*
X127491000Y-134654000I0J225000D01*
G01*
X127491000Y-134204000D01*
G75*
G02*
X127716000Y-133979000I225000J0D01*
G01*
X128316000Y-133979000D01*
G75*
G02*
X128541000Y-134204000I0J-225000D01*
G01*
X128541000Y-134654000D01*
G75*
G02*
X128316000Y-134879000I-225000J0D01*
G01*
G37*
G36*
G01*
X152030000Y-124880000D02*
X152030000Y-126580000D01*
G75*
G02*
X151980000Y-126630000I-50000J0D01*
G01*
X150280000Y-126630000D01*
G75*
G02*
X150230000Y-126580000I0J50000D01*
G01*
X150230000Y-124880000D01*
G75*
G02*
X150280000Y-124830000I50000J0D01*
G01*
X151980000Y-124830000D01*
G75*
G02*
X152030000Y-124880000I0J-50000D01*
G01*
G37*
D10*
X148590000Y-125730000D03*
X151130000Y-123190000D03*
X148590000Y-123190000D03*
X151130000Y-120650000D03*
X148590000Y-120650000D03*
X151130000Y-118110000D03*
X148590000Y-118110000D03*
X151130000Y-115570000D03*
X148590000Y-115570000D03*
X151130000Y-113030000D03*
X148590000Y-113030000D03*
X151130000Y-110490000D03*
X148590000Y-110490000D03*
X151130000Y-107950000D03*
X148590000Y-107950000D03*
X151130000Y-105410000D03*
X148590000Y-105410000D03*
X151130000Y-102870000D03*
X148590000Y-102870000D03*
X151130000Y-100330000D03*
X148590000Y-100330000D03*
X151130000Y-97790000D03*
X148590000Y-97790000D03*
X151130000Y-95250000D03*
X148590000Y-95250000D03*
X151130000Y-92710000D03*
X148590000Y-92710000D03*
X151130000Y-90170000D03*
X148590000Y-90170000D03*
X77470000Y-90170000D03*
X80010000Y-90170000D03*
X77470000Y-92710000D03*
X80010000Y-92710000D03*
X77470000Y-95250000D03*
X80010000Y-95250000D03*
X77470000Y-97790000D03*
X80010000Y-97790000D03*
X77470000Y-100330000D03*
X80010000Y-100330000D03*
X77470000Y-102870000D03*
X80010000Y-102870000D03*
X77470000Y-105410000D03*
X80010000Y-105410000D03*
X77470000Y-107950000D03*
X80010000Y-107950000D03*
X77470000Y-110490000D03*
X80010000Y-110490000D03*
X77470000Y-113030000D03*
X80010000Y-113030000D03*
X77470000Y-115570000D03*
X80010000Y-115570000D03*
X77470000Y-118110000D03*
X80010000Y-118110000D03*
X77470000Y-120650000D03*
X80010000Y-120650000D03*
X77470000Y-123190000D03*
X80010000Y-123190000D03*
X77470000Y-125730000D03*
G36*
G01*
X80910000Y-124880000D02*
X80910000Y-126580000D01*
G75*
G02*
X80860000Y-126630000I-50000J0D01*
G01*
X79160000Y-126630000D01*
G75*
G02*
X79110000Y-126580000I0J50000D01*
G01*
X79110000Y-124880000D01*
G75*
G02*
X79160000Y-124830000I50000J0D01*
G01*
X80860000Y-124830000D01*
G75*
G02*
X80910000Y-124880000I0J-50000D01*
G01*
G37*
G36*
G01*
X107518375Y-99684000D02*
X106349625Y-99684000D01*
G75*
G02*
X106084000Y-99418375I0J265625D01*
G01*
X106084000Y-96349625D01*
G75*
G02*
X106349625Y-96084000I265625J0D01*
G01*
X107518375Y-96084000D01*
G75*
G02*
X107784000Y-96349625I0J-265625D01*
G01*
X107784000Y-99418375D01*
G75*
G02*
X107518375Y-99684000I-265625J0D01*
G01*
G37*
G36*
G01*
X107518375Y-105084000D02*
X106349625Y-105084000D01*
G75*
G02*
X106084000Y-104818375I0J265625D01*
G01*
X106084000Y-101749625D01*
G75*
G02*
X106349625Y-101484000I265625J0D01*
G01*
X107518375Y-101484000D01*
G75*
G02*
X107784000Y-101749625I0J-265625D01*
G01*
X107784000Y-104818375D01*
G75*
G02*
X107518375Y-105084000I-265625J0D01*
G01*
G37*
G36*
G01*
X100357250Y-134066000D02*
X99794750Y-134066000D01*
G75*
G02*
X99551000Y-133822250I0J243750D01*
G01*
X99551000Y-133334750D01*
G75*
G02*
X99794750Y-133091000I243750J0D01*
G01*
X100357250Y-133091000D01*
G75*
G02*
X100601000Y-133334750I0J-243750D01*
G01*
X100601000Y-133822250D01*
G75*
G02*
X100357250Y-134066000I-243750J0D01*
G01*
G37*
G36*
G01*
X100357250Y-135641000D02*
X99794750Y-135641000D01*
G75*
G02*
X99551000Y-135397250I0J243750D01*
G01*
X99551000Y-134909750D01*
G75*
G02*
X99794750Y-134666000I243750J0D01*
G01*
X100357250Y-134666000D01*
G75*
G02*
X100601000Y-134909750I0J-243750D01*
G01*
X100601000Y-135397250D01*
G75*
G02*
X100357250Y-135641000I-243750J0D01*
G01*
G37*
D11*
X139700000Y-101600000D03*
X88900000Y-101600000D03*
G36*
G01*
X121693250Y-134879000D02*
X121130750Y-134879000D01*
G75*
G02*
X120887000Y-134635250I0J243750D01*
G01*
X120887000Y-134147750D01*
G75*
G02*
X121130750Y-133904000I243750J0D01*
G01*
X121693250Y-133904000D01*
G75*
G02*
X121937000Y-134147750I0J-243750D01*
G01*
X121937000Y-134635250D01*
G75*
G02*
X121693250Y-134879000I-243750J0D01*
G01*
G37*
G36*
G01*
X121693250Y-133304000D02*
X121130750Y-133304000D01*
G75*
G02*
X120887000Y-133060250I0J243750D01*
G01*
X120887000Y-132572750D01*
G75*
G02*
X121130750Y-132329000I243750J0D01*
G01*
X121693250Y-132329000D01*
G75*
G02*
X121937000Y-132572750I0J-243750D01*
G01*
X121937000Y-133060250D01*
G75*
G02*
X121693250Y-133304000I-243750J0D01*
G01*
G37*
D12*
X80995000Y-147864400D03*
X93035000Y-147864400D03*
D13*
X88265000Y-145154400D03*
X85765000Y-145154400D03*
X85765000Y-143154400D03*
G36*
G01*
X87415000Y-142254400D02*
X89115000Y-142254400D01*
G75*
G02*
X89165000Y-142304400I0J-50000D01*
G01*
X89165000Y-144004400D01*
G75*
G02*
X89115000Y-144054400I-50000J0D01*
G01*
X87415000Y-144054400D01*
G75*
G02*
X87365000Y-144004400I0J50000D01*
G01*
X87365000Y-142304400D01*
G75*
G02*
X87415000Y-142254400I50000J0D01*
G01*
G37*
D14*
X123372000Y-98552000D03*
X118872000Y-98552000D03*
X123372000Y-92052000D03*
X118872000Y-92052000D03*
G36*
G01*
X115720000Y-139794000D02*
X115720000Y-139994000D01*
G75*
G02*
X115620000Y-140094000I-100000J0D01*
G01*
X114170000Y-140094000D01*
G75*
G02*
X114070000Y-139994000I0J100000D01*
G01*
X114070000Y-139794000D01*
G75*
G02*
X114170000Y-139694000I100000J0D01*
G01*
X115620000Y-139694000D01*
G75*
G02*
X115720000Y-139794000I0J-100000D01*
G01*
G37*
G36*
G01*
X115720000Y-139294000D02*
X115720000Y-139494000D01*
G75*
G02*
X115620000Y-139594000I-100000J0D01*
G01*
X114170000Y-139594000D01*
G75*
G02*
X114070000Y-139494000I0J100000D01*
G01*
X114070000Y-139294000D01*
G75*
G02*
X114170000Y-139194000I100000J0D01*
G01*
X115620000Y-139194000D01*
G75*
G02*
X115720000Y-139294000I0J-100000D01*
G01*
G37*
G36*
G01*
X115720000Y-138794000D02*
X115720000Y-138994000D01*
G75*
G02*
X115620000Y-139094000I-100000J0D01*
G01*
X114170000Y-139094000D01*
G75*
G02*
X114070000Y-138994000I0J100000D01*
G01*
X114070000Y-138794000D01*
G75*
G02*
X114170000Y-138694000I100000J0D01*
G01*
X115620000Y-138694000D01*
G75*
G02*
X115720000Y-138794000I0J-100000D01*
G01*
G37*
G36*
G01*
X115720000Y-138294000D02*
X115720000Y-138494000D01*
G75*
G02*
X115620000Y-138594000I-100000J0D01*
G01*
X114170000Y-138594000D01*
G75*
G02*
X114070000Y-138494000I0J100000D01*
G01*
X114070000Y-138294000D01*
G75*
G02*
X114170000Y-138194000I100000J0D01*
G01*
X115620000Y-138194000D01*
G75*
G02*
X115720000Y-138294000I0J-100000D01*
G01*
G37*
G36*
G01*
X115720000Y-137794000D02*
X115720000Y-137994000D01*
G75*
G02*
X115620000Y-138094000I-100000J0D01*
G01*
X114170000Y-138094000D01*
G75*
G02*
X114070000Y-137994000I0J100000D01*
G01*
X114070000Y-137794000D01*
G75*
G02*
X114170000Y-137694000I100000J0D01*
G01*
X115620000Y-137694000D01*
G75*
G02*
X115720000Y-137794000I0J-100000D01*
G01*
G37*
G36*
G01*
X115720000Y-137294000D02*
X115720000Y-137494000D01*
G75*
G02*
X115620000Y-137594000I-100000J0D01*
G01*
X114170000Y-137594000D01*
G75*
G02*
X114070000Y-137494000I0J100000D01*
G01*
X114070000Y-137294000D01*
G75*
G02*
X114170000Y-137194000I100000J0D01*
G01*
X115620000Y-137194000D01*
G75*
G02*
X115720000Y-137294000I0J-100000D01*
G01*
G37*
G36*
G01*
X115720000Y-136794000D02*
X115720000Y-136994000D01*
G75*
G02*
X115620000Y-137094000I-100000J0D01*
G01*
X114170000Y-137094000D01*
G75*
G02*
X114070000Y-136994000I0J100000D01*
G01*
X114070000Y-136794000D01*
G75*
G02*
X114170000Y-136694000I100000J0D01*
G01*
X115620000Y-136694000D01*
G75*
G02*
X115720000Y-136794000I0J-100000D01*
G01*
G37*
G36*
G01*
X115720000Y-136294000D02*
X115720000Y-136494000D01*
G75*
G02*
X115620000Y-136594000I-100000J0D01*
G01*
X114170000Y-136594000D01*
G75*
G02*
X114070000Y-136494000I0J100000D01*
G01*
X114070000Y-136294000D01*
G75*
G02*
X114170000Y-136194000I100000J0D01*
G01*
X115620000Y-136194000D01*
G75*
G02*
X115720000Y-136294000I0J-100000D01*
G01*
G37*
G36*
G01*
X115720000Y-135794000D02*
X115720000Y-135994000D01*
G75*
G02*
X115620000Y-136094000I-100000J0D01*
G01*
X114170000Y-136094000D01*
G75*
G02*
X114070000Y-135994000I0J100000D01*
G01*
X114070000Y-135794000D01*
G75*
G02*
X114170000Y-135694000I100000J0D01*
G01*
X115620000Y-135694000D01*
G75*
G02*
X115720000Y-135794000I0J-100000D01*
G01*
G37*
G36*
G01*
X115720000Y-135294000D02*
X115720000Y-135494000D01*
G75*
G02*
X115620000Y-135594000I-100000J0D01*
G01*
X114170000Y-135594000D01*
G75*
G02*
X114070000Y-135494000I0J100000D01*
G01*
X114070000Y-135294000D01*
G75*
G02*
X114170000Y-135194000I100000J0D01*
G01*
X115620000Y-135194000D01*
G75*
G02*
X115720000Y-135294000I0J-100000D01*
G01*
G37*
G36*
G01*
X115720000Y-134794000D02*
X115720000Y-134994000D01*
G75*
G02*
X115620000Y-135094000I-100000J0D01*
G01*
X114170000Y-135094000D01*
G75*
G02*
X114070000Y-134994000I0J100000D01*
G01*
X114070000Y-134794000D01*
G75*
G02*
X114170000Y-134694000I100000J0D01*
G01*
X115620000Y-134694000D01*
G75*
G02*
X115720000Y-134794000I0J-100000D01*
G01*
G37*
G36*
G01*
X115720000Y-134294000D02*
X115720000Y-134494000D01*
G75*
G02*
X115620000Y-134594000I-100000J0D01*
G01*
X114170000Y-134594000D01*
G75*
G02*
X114070000Y-134494000I0J100000D01*
G01*
X114070000Y-134294000D01*
G75*
G02*
X114170000Y-134194000I100000J0D01*
G01*
X115620000Y-134194000D01*
G75*
G02*
X115720000Y-134294000I0J-100000D01*
G01*
G37*
G36*
G01*
X115720000Y-133794000D02*
X115720000Y-133994000D01*
G75*
G02*
X115620000Y-134094000I-100000J0D01*
G01*
X114170000Y-134094000D01*
G75*
G02*
X114070000Y-133994000I0J100000D01*
G01*
X114070000Y-133794000D01*
G75*
G02*
X114170000Y-133694000I100000J0D01*
G01*
X115620000Y-133694000D01*
G75*
G02*
X115720000Y-133794000I0J-100000D01*
G01*
G37*
G36*
G01*
X115720000Y-133294000D02*
X115720000Y-133494000D01*
G75*
G02*
X115620000Y-133594000I-100000J0D01*
G01*
X114170000Y-133594000D01*
G75*
G02*
X114070000Y-133494000I0J100000D01*
G01*
X114070000Y-133294000D01*
G75*
G02*
X114170000Y-133194000I100000J0D01*
G01*
X115620000Y-133194000D01*
G75*
G02*
X115720000Y-133294000I0J-100000D01*
G01*
G37*
G36*
G01*
X115720000Y-132794000D02*
X115720000Y-132994000D01*
G75*
G02*
X115620000Y-133094000I-100000J0D01*
G01*
X114170000Y-133094000D01*
G75*
G02*
X114070000Y-132994000I0J100000D01*
G01*
X114070000Y-132794000D01*
G75*
G02*
X114170000Y-132694000I100000J0D01*
G01*
X115620000Y-132694000D01*
G75*
G02*
X115720000Y-132794000I0J-100000D01*
G01*
G37*
G36*
G01*
X115720000Y-132294000D02*
X115720000Y-132494000D01*
G75*
G02*
X115620000Y-132594000I-100000J0D01*
G01*
X114170000Y-132594000D01*
G75*
G02*
X114070000Y-132494000I0J100000D01*
G01*
X114070000Y-132294000D01*
G75*
G02*
X114170000Y-132194000I100000J0D01*
G01*
X115620000Y-132194000D01*
G75*
G02*
X115720000Y-132294000I0J-100000D01*
G01*
G37*
G36*
G01*
X113170000Y-129744000D02*
X113170000Y-131194000D01*
G75*
G02*
X113070000Y-131294000I-100000J0D01*
G01*
X112870000Y-131294000D01*
G75*
G02*
X112770000Y-131194000I0J100000D01*
G01*
X112770000Y-129744000D01*
G75*
G02*
X112870000Y-129644000I100000J0D01*
G01*
X113070000Y-129644000D01*
G75*
G02*
X113170000Y-129744000I0J-100000D01*
G01*
G37*
G36*
G01*
X112670000Y-129744000D02*
X112670000Y-131194000D01*
G75*
G02*
X112570000Y-131294000I-100000J0D01*
G01*
X112370000Y-131294000D01*
G75*
G02*
X112270000Y-131194000I0J100000D01*
G01*
X112270000Y-129744000D01*
G75*
G02*
X112370000Y-129644000I100000J0D01*
G01*
X112570000Y-129644000D01*
G75*
G02*
X112670000Y-129744000I0J-100000D01*
G01*
G37*
G36*
G01*
X112170000Y-129744000D02*
X112170000Y-131194000D01*
G75*
G02*
X112070000Y-131294000I-100000J0D01*
G01*
X111870000Y-131294000D01*
G75*
G02*
X111770000Y-131194000I0J100000D01*
G01*
X111770000Y-129744000D01*
G75*
G02*
X111870000Y-129644000I100000J0D01*
G01*
X112070000Y-129644000D01*
G75*
G02*
X112170000Y-129744000I0J-100000D01*
G01*
G37*
G36*
G01*
X111670000Y-129744000D02*
X111670000Y-131194000D01*
G75*
G02*
X111570000Y-131294000I-100000J0D01*
G01*
X111370000Y-131294000D01*
G75*
G02*
X111270000Y-131194000I0J100000D01*
G01*
X111270000Y-129744000D01*
G75*
G02*
X111370000Y-129644000I100000J0D01*
G01*
X111570000Y-129644000D01*
G75*
G02*
X111670000Y-129744000I0J-100000D01*
G01*
G37*
G36*
G01*
X111170000Y-129744000D02*
X111170000Y-131194000D01*
G75*
G02*
X111070000Y-131294000I-100000J0D01*
G01*
X110870000Y-131294000D01*
G75*
G02*
X110770000Y-131194000I0J100000D01*
G01*
X110770000Y-129744000D01*
G75*
G02*
X110870000Y-129644000I100000J0D01*
G01*
X111070000Y-129644000D01*
G75*
G02*
X111170000Y-129744000I0J-100000D01*
G01*
G37*
G36*
G01*
X110670000Y-129744000D02*
X110670000Y-131194000D01*
G75*
G02*
X110570000Y-131294000I-100000J0D01*
G01*
X110370000Y-131294000D01*
G75*
G02*
X110270000Y-131194000I0J100000D01*
G01*
X110270000Y-129744000D01*
G75*
G02*
X110370000Y-129644000I100000J0D01*
G01*
X110570000Y-129644000D01*
G75*
G02*
X110670000Y-129744000I0J-100000D01*
G01*
G37*
G36*
G01*
X110170000Y-129744000D02*
X110170000Y-131194000D01*
G75*
G02*
X110070000Y-131294000I-100000J0D01*
G01*
X109870000Y-131294000D01*
G75*
G02*
X109770000Y-131194000I0J100000D01*
G01*
X109770000Y-129744000D01*
G75*
G02*
X109870000Y-129644000I100000J0D01*
G01*
X110070000Y-129644000D01*
G75*
G02*
X110170000Y-129744000I0J-100000D01*
G01*
G37*
G36*
G01*
X109670000Y-129744000D02*
X109670000Y-131194000D01*
G75*
G02*
X109570000Y-131294000I-100000J0D01*
G01*
X109370000Y-131294000D01*
G75*
G02*
X109270000Y-131194000I0J100000D01*
G01*
X109270000Y-129744000D01*
G75*
G02*
X109370000Y-129644000I100000J0D01*
G01*
X109570000Y-129644000D01*
G75*
G02*
X109670000Y-129744000I0J-100000D01*
G01*
G37*
G36*
G01*
X109170000Y-129744000D02*
X109170000Y-131194000D01*
G75*
G02*
X109070000Y-131294000I-100000J0D01*
G01*
X108870000Y-131294000D01*
G75*
G02*
X108770000Y-131194000I0J100000D01*
G01*
X108770000Y-129744000D01*
G75*
G02*
X108870000Y-129644000I100000J0D01*
G01*
X109070000Y-129644000D01*
G75*
G02*
X109170000Y-129744000I0J-100000D01*
G01*
G37*
G36*
G01*
X108670000Y-129744000D02*
X108670000Y-131194000D01*
G75*
G02*
X108570000Y-131294000I-100000J0D01*
G01*
X108370000Y-131294000D01*
G75*
G02*
X108270000Y-131194000I0J100000D01*
G01*
X108270000Y-129744000D01*
G75*
G02*
X108370000Y-129644000I100000J0D01*
G01*
X108570000Y-129644000D01*
G75*
G02*
X108670000Y-129744000I0J-100000D01*
G01*
G37*
G36*
G01*
X108170000Y-129744000D02*
X108170000Y-131194000D01*
G75*
G02*
X108070000Y-131294000I-100000J0D01*
G01*
X107870000Y-131294000D01*
G75*
G02*
X107770000Y-131194000I0J100000D01*
G01*
X107770000Y-129744000D01*
G75*
G02*
X107870000Y-129644000I100000J0D01*
G01*
X108070000Y-129644000D01*
G75*
G02*
X108170000Y-129744000I0J-100000D01*
G01*
G37*
G36*
G01*
X107670000Y-129744000D02*
X107670000Y-131194000D01*
G75*
G02*
X107570000Y-131294000I-100000J0D01*
G01*
X107370000Y-131294000D01*
G75*
G02*
X107270000Y-131194000I0J100000D01*
G01*
X107270000Y-129744000D01*
G75*
G02*
X107370000Y-129644000I100000J0D01*
G01*
X107570000Y-129644000D01*
G75*
G02*
X107670000Y-129744000I0J-100000D01*
G01*
G37*
G36*
G01*
X107170000Y-129744000D02*
X107170000Y-131194000D01*
G75*
G02*
X107070000Y-131294000I-100000J0D01*
G01*
X106870000Y-131294000D01*
G75*
G02*
X106770000Y-131194000I0J100000D01*
G01*
X106770000Y-129744000D01*
G75*
G02*
X106870000Y-129644000I100000J0D01*
G01*
X107070000Y-129644000D01*
G75*
G02*
X107170000Y-129744000I0J-100000D01*
G01*
G37*
G36*
G01*
X106670000Y-129744000D02*
X106670000Y-131194000D01*
G75*
G02*
X106570000Y-131294000I-100000J0D01*
G01*
X106370000Y-131294000D01*
G75*
G02*
X106270000Y-131194000I0J100000D01*
G01*
X106270000Y-129744000D01*
G75*
G02*
X106370000Y-129644000I100000J0D01*
G01*
X106570000Y-129644000D01*
G75*
G02*
X106670000Y-129744000I0J-100000D01*
G01*
G37*
G36*
G01*
X106170000Y-129744000D02*
X106170000Y-131194000D01*
G75*
G02*
X106070000Y-131294000I-100000J0D01*
G01*
X105870000Y-131294000D01*
G75*
G02*
X105770000Y-131194000I0J100000D01*
G01*
X105770000Y-129744000D01*
G75*
G02*
X105870000Y-129644000I100000J0D01*
G01*
X106070000Y-129644000D01*
G75*
G02*
X106170000Y-129744000I0J-100000D01*
G01*
G37*
G36*
G01*
X105670000Y-129744000D02*
X105670000Y-131194000D01*
G75*
G02*
X105570000Y-131294000I-100000J0D01*
G01*
X105370000Y-131294000D01*
G75*
G02*
X105270000Y-131194000I0J100000D01*
G01*
X105270000Y-129744000D01*
G75*
G02*
X105370000Y-129644000I100000J0D01*
G01*
X105570000Y-129644000D01*
G75*
G02*
X105670000Y-129744000I0J-100000D01*
G01*
G37*
G36*
G01*
X104370000Y-132294000D02*
X104370000Y-132494000D01*
G75*
G02*
X104270000Y-132594000I-100000J0D01*
G01*
X102820000Y-132594000D01*
G75*
G02*
X102720000Y-132494000I0J100000D01*
G01*
X102720000Y-132294000D01*
G75*
G02*
X102820000Y-132194000I100000J0D01*
G01*
X104270000Y-132194000D01*
G75*
G02*
X104370000Y-132294000I0J-100000D01*
G01*
G37*
G36*
G01*
X104370000Y-132794000D02*
X104370000Y-132994000D01*
G75*
G02*
X104270000Y-133094000I-100000J0D01*
G01*
X102820000Y-133094000D01*
G75*
G02*
X102720000Y-132994000I0J100000D01*
G01*
X102720000Y-132794000D01*
G75*
G02*
X102820000Y-132694000I100000J0D01*
G01*
X104270000Y-132694000D01*
G75*
G02*
X104370000Y-132794000I0J-100000D01*
G01*
G37*
G36*
G01*
X104370000Y-133294000D02*
X104370000Y-133494000D01*
G75*
G02*
X104270000Y-133594000I-100000J0D01*
G01*
X102820000Y-133594000D01*
G75*
G02*
X102720000Y-133494000I0J100000D01*
G01*
X102720000Y-133294000D01*
G75*
G02*
X102820000Y-133194000I100000J0D01*
G01*
X104270000Y-133194000D01*
G75*
G02*
X104370000Y-133294000I0J-100000D01*
G01*
G37*
G36*
G01*
X104370000Y-133794000D02*
X104370000Y-133994000D01*
G75*
G02*
X104270000Y-134094000I-100000J0D01*
G01*
X102820000Y-134094000D01*
G75*
G02*
X102720000Y-133994000I0J100000D01*
G01*
X102720000Y-133794000D01*
G75*
G02*
X102820000Y-133694000I100000J0D01*
G01*
X104270000Y-133694000D01*
G75*
G02*
X104370000Y-133794000I0J-100000D01*
G01*
G37*
G36*
G01*
X104370000Y-134294000D02*
X104370000Y-134494000D01*
G75*
G02*
X104270000Y-134594000I-100000J0D01*
G01*
X102820000Y-134594000D01*
G75*
G02*
X102720000Y-134494000I0J100000D01*
G01*
X102720000Y-134294000D01*
G75*
G02*
X102820000Y-134194000I100000J0D01*
G01*
X104270000Y-134194000D01*
G75*
G02*
X104370000Y-134294000I0J-100000D01*
G01*
G37*
G36*
G01*
X104370000Y-134794000D02*
X104370000Y-134994000D01*
G75*
G02*
X104270000Y-135094000I-100000J0D01*
G01*
X102820000Y-135094000D01*
G75*
G02*
X102720000Y-134994000I0J100000D01*
G01*
X102720000Y-134794000D01*
G75*
G02*
X102820000Y-134694000I100000J0D01*
G01*
X104270000Y-134694000D01*
G75*
G02*
X104370000Y-134794000I0J-100000D01*
G01*
G37*
G36*
G01*
X104370000Y-135294000D02*
X104370000Y-135494000D01*
G75*
G02*
X104270000Y-135594000I-100000J0D01*
G01*
X102820000Y-135594000D01*
G75*
G02*
X102720000Y-135494000I0J100000D01*
G01*
X102720000Y-135294000D01*
G75*
G02*
X102820000Y-135194000I100000J0D01*
G01*
X104270000Y-135194000D01*
G75*
G02*
X104370000Y-135294000I0J-100000D01*
G01*
G37*
G36*
G01*
X104370000Y-135794000D02*
X104370000Y-135994000D01*
G75*
G02*
X104270000Y-136094000I-100000J0D01*
G01*
X102820000Y-136094000D01*
G75*
G02*
X102720000Y-135994000I0J100000D01*
G01*
X102720000Y-135794000D01*
G75*
G02*
X102820000Y-135694000I100000J0D01*
G01*
X104270000Y-135694000D01*
G75*
G02*
X104370000Y-135794000I0J-100000D01*
G01*
G37*
G36*
G01*
X104370000Y-136294000D02*
X104370000Y-136494000D01*
G75*
G02*
X104270000Y-136594000I-100000J0D01*
G01*
X102820000Y-136594000D01*
G75*
G02*
X102720000Y-136494000I0J100000D01*
G01*
X102720000Y-136294000D01*
G75*
G02*
X102820000Y-136194000I100000J0D01*
G01*
X104270000Y-136194000D01*
G75*
G02*
X104370000Y-136294000I0J-100000D01*
G01*
G37*
G36*
G01*
X104370000Y-136794000D02*
X104370000Y-136994000D01*
G75*
G02*
X104270000Y-137094000I-100000J0D01*
G01*
X102820000Y-137094000D01*
G75*
G02*
X102720000Y-136994000I0J100000D01*
G01*
X102720000Y-136794000D01*
G75*
G02*
X102820000Y-136694000I100000J0D01*
G01*
X104270000Y-136694000D01*
G75*
G02*
X104370000Y-136794000I0J-100000D01*
G01*
G37*
G36*
G01*
X104370000Y-137294000D02*
X104370000Y-137494000D01*
G75*
G02*
X104270000Y-137594000I-100000J0D01*
G01*
X102820000Y-137594000D01*
G75*
G02*
X102720000Y-137494000I0J100000D01*
G01*
X102720000Y-137294000D01*
G75*
G02*
X102820000Y-137194000I100000J0D01*
G01*
X104270000Y-137194000D01*
G75*
G02*
X104370000Y-137294000I0J-100000D01*
G01*
G37*
G36*
G01*
X104370000Y-137794000D02*
X104370000Y-137994000D01*
G75*
G02*
X104270000Y-138094000I-100000J0D01*
G01*
X102820000Y-138094000D01*
G75*
G02*
X102720000Y-137994000I0J100000D01*
G01*
X102720000Y-137794000D01*
G75*
G02*
X102820000Y-137694000I100000J0D01*
G01*
X104270000Y-137694000D01*
G75*
G02*
X104370000Y-137794000I0J-100000D01*
G01*
G37*
G36*
G01*
X104370000Y-138294000D02*
X104370000Y-138494000D01*
G75*
G02*
X104270000Y-138594000I-100000J0D01*
G01*
X102820000Y-138594000D01*
G75*
G02*
X102720000Y-138494000I0J100000D01*
G01*
X102720000Y-138294000D01*
G75*
G02*
X102820000Y-138194000I100000J0D01*
G01*
X104270000Y-138194000D01*
G75*
G02*
X104370000Y-138294000I0J-100000D01*
G01*
G37*
G36*
G01*
X104370000Y-138794000D02*
X104370000Y-138994000D01*
G75*
G02*
X104270000Y-139094000I-100000J0D01*
G01*
X102820000Y-139094000D01*
G75*
G02*
X102720000Y-138994000I0J100000D01*
G01*
X102720000Y-138794000D01*
G75*
G02*
X102820000Y-138694000I100000J0D01*
G01*
X104270000Y-138694000D01*
G75*
G02*
X104370000Y-138794000I0J-100000D01*
G01*
G37*
G36*
G01*
X104370000Y-139294000D02*
X104370000Y-139494000D01*
G75*
G02*
X104270000Y-139594000I-100000J0D01*
G01*
X102820000Y-139594000D01*
G75*
G02*
X102720000Y-139494000I0J100000D01*
G01*
X102720000Y-139294000D01*
G75*
G02*
X102820000Y-139194000I100000J0D01*
G01*
X104270000Y-139194000D01*
G75*
G02*
X104370000Y-139294000I0J-100000D01*
G01*
G37*
G36*
G01*
X104370000Y-139794000D02*
X104370000Y-139994000D01*
G75*
G02*
X104270000Y-140094000I-100000J0D01*
G01*
X102820000Y-140094000D01*
G75*
G02*
X102720000Y-139994000I0J100000D01*
G01*
X102720000Y-139794000D01*
G75*
G02*
X102820000Y-139694000I100000J0D01*
G01*
X104270000Y-139694000D01*
G75*
G02*
X104370000Y-139794000I0J-100000D01*
G01*
G37*
G36*
G01*
X105670000Y-141094000D02*
X105670000Y-142544000D01*
G75*
G02*
X105570000Y-142644000I-100000J0D01*
G01*
X105370000Y-142644000D01*
G75*
G02*
X105270000Y-142544000I0J100000D01*
G01*
X105270000Y-141094000D01*
G75*
G02*
X105370000Y-140994000I100000J0D01*
G01*
X105570000Y-140994000D01*
G75*
G02*
X105670000Y-141094000I0J-100000D01*
G01*
G37*
G36*
G01*
X106170000Y-141094000D02*
X106170000Y-142544000D01*
G75*
G02*
X106070000Y-142644000I-100000J0D01*
G01*
X105870000Y-142644000D01*
G75*
G02*
X105770000Y-142544000I0J100000D01*
G01*
X105770000Y-141094000D01*
G75*
G02*
X105870000Y-140994000I100000J0D01*
G01*
X106070000Y-140994000D01*
G75*
G02*
X106170000Y-141094000I0J-100000D01*
G01*
G37*
G36*
G01*
X106670000Y-141094000D02*
X106670000Y-142544000D01*
G75*
G02*
X106570000Y-142644000I-100000J0D01*
G01*
X106370000Y-142644000D01*
G75*
G02*
X106270000Y-142544000I0J100000D01*
G01*
X106270000Y-141094000D01*
G75*
G02*
X106370000Y-140994000I100000J0D01*
G01*
X106570000Y-140994000D01*
G75*
G02*
X106670000Y-141094000I0J-100000D01*
G01*
G37*
G36*
G01*
X107170000Y-141094000D02*
X107170000Y-142544000D01*
G75*
G02*
X107070000Y-142644000I-100000J0D01*
G01*
X106870000Y-142644000D01*
G75*
G02*
X106770000Y-142544000I0J100000D01*
G01*
X106770000Y-141094000D01*
G75*
G02*
X106870000Y-140994000I100000J0D01*
G01*
X107070000Y-140994000D01*
G75*
G02*
X107170000Y-141094000I0J-100000D01*
G01*
G37*
G36*
G01*
X107670000Y-141094000D02*
X107670000Y-142544000D01*
G75*
G02*
X107570000Y-142644000I-100000J0D01*
G01*
X107370000Y-142644000D01*
G75*
G02*
X107270000Y-142544000I0J100000D01*
G01*
X107270000Y-141094000D01*
G75*
G02*
X107370000Y-140994000I100000J0D01*
G01*
X107570000Y-140994000D01*
G75*
G02*
X107670000Y-141094000I0J-100000D01*
G01*
G37*
G36*
G01*
X108170000Y-141094000D02*
X108170000Y-142544000D01*
G75*
G02*
X108070000Y-142644000I-100000J0D01*
G01*
X107870000Y-142644000D01*
G75*
G02*
X107770000Y-142544000I0J100000D01*
G01*
X107770000Y-141094000D01*
G75*
G02*
X107870000Y-140994000I100000J0D01*
G01*
X108070000Y-140994000D01*
G75*
G02*
X108170000Y-141094000I0J-100000D01*
G01*
G37*
G36*
G01*
X108670000Y-141094000D02*
X108670000Y-142544000D01*
G75*
G02*
X108570000Y-142644000I-100000J0D01*
G01*
X108370000Y-142644000D01*
G75*
G02*
X108270000Y-142544000I0J100000D01*
G01*
X108270000Y-141094000D01*
G75*
G02*
X108370000Y-140994000I100000J0D01*
G01*
X108570000Y-140994000D01*
G75*
G02*
X108670000Y-141094000I0J-100000D01*
G01*
G37*
G36*
G01*
X109170000Y-141094000D02*
X109170000Y-142544000D01*
G75*
G02*
X109070000Y-142644000I-100000J0D01*
G01*
X108870000Y-142644000D01*
G75*
G02*
X108770000Y-142544000I0J100000D01*
G01*
X108770000Y-141094000D01*
G75*
G02*
X108870000Y-140994000I100000J0D01*
G01*
X109070000Y-140994000D01*
G75*
G02*
X109170000Y-141094000I0J-100000D01*
G01*
G37*
G36*
G01*
X109670000Y-141094000D02*
X109670000Y-142544000D01*
G75*
G02*
X109570000Y-142644000I-100000J0D01*
G01*
X109370000Y-142644000D01*
G75*
G02*
X109270000Y-142544000I0J100000D01*
G01*
X109270000Y-141094000D01*
G75*
G02*
X109370000Y-140994000I100000J0D01*
G01*
X109570000Y-140994000D01*
G75*
G02*
X109670000Y-141094000I0J-100000D01*
G01*
G37*
G36*
G01*
X110170000Y-141094000D02*
X110170000Y-142544000D01*
G75*
G02*
X110070000Y-142644000I-100000J0D01*
G01*
X109870000Y-142644000D01*
G75*
G02*
X109770000Y-142544000I0J100000D01*
G01*
X109770000Y-141094000D01*
G75*
G02*
X109870000Y-140994000I100000J0D01*
G01*
X110070000Y-140994000D01*
G75*
G02*
X110170000Y-141094000I0J-100000D01*
G01*
G37*
G36*
G01*
X110670000Y-141094000D02*
X110670000Y-142544000D01*
G75*
G02*
X110570000Y-142644000I-100000J0D01*
G01*
X110370000Y-142644000D01*
G75*
G02*
X110270000Y-142544000I0J100000D01*
G01*
X110270000Y-141094000D01*
G75*
G02*
X110370000Y-140994000I100000J0D01*
G01*
X110570000Y-140994000D01*
G75*
G02*
X110670000Y-141094000I0J-100000D01*
G01*
G37*
G36*
G01*
X111170000Y-141094000D02*
X111170000Y-142544000D01*
G75*
G02*
X111070000Y-142644000I-100000J0D01*
G01*
X110870000Y-142644000D01*
G75*
G02*
X110770000Y-142544000I0J100000D01*
G01*
X110770000Y-141094000D01*
G75*
G02*
X110870000Y-140994000I100000J0D01*
G01*
X111070000Y-140994000D01*
G75*
G02*
X111170000Y-141094000I0J-100000D01*
G01*
G37*
G36*
G01*
X111670000Y-141094000D02*
X111670000Y-142544000D01*
G75*
G02*
X111570000Y-142644000I-100000J0D01*
G01*
X111370000Y-142644000D01*
G75*
G02*
X111270000Y-142544000I0J100000D01*
G01*
X111270000Y-141094000D01*
G75*
G02*
X111370000Y-140994000I100000J0D01*
G01*
X111570000Y-140994000D01*
G75*
G02*
X111670000Y-141094000I0J-100000D01*
G01*
G37*
G36*
G01*
X112170000Y-141094000D02*
X112170000Y-142544000D01*
G75*
G02*
X112070000Y-142644000I-100000J0D01*
G01*
X111870000Y-142644000D01*
G75*
G02*
X111770000Y-142544000I0J100000D01*
G01*
X111770000Y-141094000D01*
G75*
G02*
X111870000Y-140994000I100000J0D01*
G01*
X112070000Y-140994000D01*
G75*
G02*
X112170000Y-141094000I0J-100000D01*
G01*
G37*
G36*
G01*
X112670000Y-141094000D02*
X112670000Y-142544000D01*
G75*
G02*
X112570000Y-142644000I-100000J0D01*
G01*
X112370000Y-142644000D01*
G75*
G02*
X112270000Y-142544000I0J100000D01*
G01*
X112270000Y-141094000D01*
G75*
G02*
X112370000Y-140994000I100000J0D01*
G01*
X112570000Y-140994000D01*
G75*
G02*
X112670000Y-141094000I0J-100000D01*
G01*
G37*
G36*
G01*
X113170000Y-141094000D02*
X113170000Y-142544000D01*
G75*
G02*
X113070000Y-142644000I-100000J0D01*
G01*
X112870000Y-142644000D01*
G75*
G02*
X112770000Y-142544000I0J100000D01*
G01*
X112770000Y-141094000D01*
G75*
G02*
X112870000Y-140994000I100000J0D01*
G01*
X113070000Y-140994000D01*
G75*
G02*
X113170000Y-141094000I0J-100000D01*
G01*
G37*
G36*
G01*
X97414000Y-101414000D02*
X101214000Y-101414000D01*
G75*
G02*
X101264000Y-101464000I0J-50000D01*
G01*
X101264000Y-103464000D01*
G75*
G02*
X101214000Y-103514000I-50000J0D01*
G01*
X97414000Y-103514000D01*
G75*
G02*
X97364000Y-103464000I0J50000D01*
G01*
X97364000Y-101464000D01*
G75*
G02*
X97414000Y-101414000I50000J0D01*
G01*
G37*
G36*
G01*
X98564000Y-95114000D02*
X100064000Y-95114000D01*
G75*
G02*
X100114000Y-95164000I0J-50000D01*
G01*
X100114000Y-97164000D01*
G75*
G02*
X100064000Y-97214000I-50000J0D01*
G01*
X98564000Y-97214000D01*
G75*
G02*
X98514000Y-97164000I0J50000D01*
G01*
X98514000Y-95164000D01*
G75*
G02*
X98564000Y-95114000I50000J0D01*
G01*
G37*
G36*
G01*
X96264000Y-95114000D02*
X97764000Y-95114000D01*
G75*
G02*
X97814000Y-95164000I0J-50000D01*
G01*
X97814000Y-97164000D01*
G75*
G02*
X97764000Y-97214000I-50000J0D01*
G01*
X96264000Y-97214000D01*
G75*
G02*
X96214000Y-97164000I0J50000D01*
G01*
X96214000Y-95164000D01*
G75*
G02*
X96264000Y-95114000I50000J0D01*
G01*
G37*
G36*
G01*
X100864000Y-95114000D02*
X102364000Y-95114000D01*
G75*
G02*
X102414000Y-95164000I0J-50000D01*
G01*
X102414000Y-97164000D01*
G75*
G02*
X102364000Y-97214000I-50000J0D01*
G01*
X100864000Y-97214000D01*
G75*
G02*
X100814000Y-97164000I0J50000D01*
G01*
X100814000Y-95164000D01*
G75*
G02*
X100864000Y-95114000I50000J0D01*
G01*
G37*
G36*
G01*
X109591000Y-91368000D02*
X110241000Y-91368000D01*
G75*
G02*
X110291000Y-91418000I0J-50000D01*
G01*
X110291000Y-92478000D01*
G75*
G02*
X110241000Y-92528000I-50000J0D01*
G01*
X109591000Y-92528000D01*
G75*
G02*
X109541000Y-92478000I0J50000D01*
G01*
X109541000Y-91418000D01*
G75*
G02*
X109591000Y-91368000I50000J0D01*
G01*
G37*
G36*
G01*
X108641000Y-91368000D02*
X109291000Y-91368000D01*
G75*
G02*
X109341000Y-91418000I0J-50000D01*
G01*
X109341000Y-92478000D01*
G75*
G02*
X109291000Y-92528000I-50000J0D01*
G01*
X108641000Y-92528000D01*
G75*
G02*
X108591000Y-92478000I0J50000D01*
G01*
X108591000Y-91418000D01*
G75*
G02*
X108641000Y-91368000I50000J0D01*
G01*
G37*
G36*
G01*
X107691000Y-91368000D02*
X108341000Y-91368000D01*
G75*
G02*
X108391000Y-91418000I0J-50000D01*
G01*
X108391000Y-92478000D01*
G75*
G02*
X108341000Y-92528000I-50000J0D01*
G01*
X107691000Y-92528000D01*
G75*
G02*
X107641000Y-92478000I0J50000D01*
G01*
X107641000Y-91418000D01*
G75*
G02*
X107691000Y-91368000I50000J0D01*
G01*
G37*
G36*
G01*
X107691000Y-93568000D02*
X108341000Y-93568000D01*
G75*
G02*
X108391000Y-93618000I0J-50000D01*
G01*
X108391000Y-94678000D01*
G75*
G02*
X108341000Y-94728000I-50000J0D01*
G01*
X107691000Y-94728000D01*
G75*
G02*
X107641000Y-94678000I0J50000D01*
G01*
X107641000Y-93618000D01*
G75*
G02*
X107691000Y-93568000I50000J0D01*
G01*
G37*
G36*
G01*
X109591000Y-93568000D02*
X110241000Y-93568000D01*
G75*
G02*
X110291000Y-93618000I0J-50000D01*
G01*
X110291000Y-94678000D01*
G75*
G02*
X110241000Y-94728000I-50000J0D01*
G01*
X109591000Y-94728000D01*
G75*
G02*
X109541000Y-94678000I0J50000D01*
G01*
X109541000Y-93618000D01*
G75*
G02*
X109591000Y-93568000I50000J0D01*
G01*
G37*
G36*
G01*
X122888000Y-120452000D02*
X123238000Y-120452000D01*
G75*
G02*
X123413000Y-120627000I0J-175000D01*
G01*
X123413000Y-122027000D01*
G75*
G02*
X123238000Y-122202000I-175000J0D01*
G01*
X122888000Y-122202000D01*
G75*
G02*
X122713000Y-122027000I0J175000D01*
G01*
X122713000Y-120627000D01*
G75*
G02*
X122888000Y-120452000I175000J0D01*
G01*
G37*
G36*
G01*
X121618000Y-120452000D02*
X121968000Y-120452000D01*
G75*
G02*
X122143000Y-120627000I0J-175000D01*
G01*
X122143000Y-122027000D01*
G75*
G02*
X121968000Y-122202000I-175000J0D01*
G01*
X121618000Y-122202000D01*
G75*
G02*
X121443000Y-122027000I0J175000D01*
G01*
X121443000Y-120627000D01*
G75*
G02*
X121618000Y-120452000I175000J0D01*
G01*
G37*
G36*
G01*
X120348000Y-120452000D02*
X120698000Y-120452000D01*
G75*
G02*
X120873000Y-120627000I0J-175000D01*
G01*
X120873000Y-122027000D01*
G75*
G02*
X120698000Y-122202000I-175000J0D01*
G01*
X120348000Y-122202000D01*
G75*
G02*
X120173000Y-122027000I0J175000D01*
G01*
X120173000Y-120627000D01*
G75*
G02*
X120348000Y-120452000I175000J0D01*
G01*
G37*
G36*
G01*
X119078000Y-120452000D02*
X119428000Y-120452000D01*
G75*
G02*
X119603000Y-120627000I0J-175000D01*
G01*
X119603000Y-122027000D01*
G75*
G02*
X119428000Y-122202000I-175000J0D01*
G01*
X119078000Y-122202000D01*
G75*
G02*
X118903000Y-122027000I0J175000D01*
G01*
X118903000Y-120627000D01*
G75*
G02*
X119078000Y-120452000I175000J0D01*
G01*
G37*
G36*
G01*
X119078000Y-125702000D02*
X119428000Y-125702000D01*
G75*
G02*
X119603000Y-125877000I0J-175000D01*
G01*
X119603000Y-127277000D01*
G75*
G02*
X119428000Y-127452000I-175000J0D01*
G01*
X119078000Y-127452000D01*
G75*
G02*
X118903000Y-127277000I0J175000D01*
G01*
X118903000Y-125877000D01*
G75*
G02*
X119078000Y-125702000I175000J0D01*
G01*
G37*
G36*
G01*
X120348000Y-125702000D02*
X120698000Y-125702000D01*
G75*
G02*
X120873000Y-125877000I0J-175000D01*
G01*
X120873000Y-127277000D01*
G75*
G02*
X120698000Y-127452000I-175000J0D01*
G01*
X120348000Y-127452000D01*
G75*
G02*
X120173000Y-127277000I0J175000D01*
G01*
X120173000Y-125877000D01*
G75*
G02*
X120348000Y-125702000I175000J0D01*
G01*
G37*
G36*
G01*
X121618000Y-125702000D02*
X121968000Y-125702000D01*
G75*
G02*
X122143000Y-125877000I0J-175000D01*
G01*
X122143000Y-127277000D01*
G75*
G02*
X121968000Y-127452000I-175000J0D01*
G01*
X121618000Y-127452000D01*
G75*
G02*
X121443000Y-127277000I0J175000D01*
G01*
X121443000Y-125877000D01*
G75*
G02*
X121618000Y-125702000I175000J0D01*
G01*
G37*
G36*
G01*
X122888000Y-125702000D02*
X123238000Y-125702000D01*
G75*
G02*
X123413000Y-125877000I0J-175000D01*
G01*
X123413000Y-127277000D01*
G75*
G02*
X123238000Y-127452000I-175000J0D01*
G01*
X122888000Y-127452000D01*
G75*
G02*
X122713000Y-127277000I0J175000D01*
G01*
X122713000Y-125877000D01*
G75*
G02*
X122888000Y-125702000I175000J0D01*
G01*
G37*
D15*
X105220000Y-109284000D03*
X105220000Y-110084000D03*
X105220000Y-110884000D03*
X105220000Y-111684000D03*
X105220000Y-112484000D03*
X105220000Y-113284000D03*
X105220000Y-114084000D03*
X105220000Y-114884000D03*
X105220000Y-115684000D03*
X105220000Y-116484000D03*
X105220000Y-117284000D03*
X106020000Y-109284000D03*
X106020000Y-110084000D03*
X106020000Y-110884000D03*
X106020000Y-111684000D03*
X106020000Y-112484000D03*
X106020000Y-113284000D03*
X106020000Y-114084000D03*
X106020000Y-114884000D03*
X106020000Y-115684000D03*
X106020000Y-116484000D03*
X106020000Y-117284000D03*
X106820000Y-109284000D03*
X106820000Y-110084000D03*
X106820000Y-110884000D03*
X106820000Y-111684000D03*
X106820000Y-112484000D03*
X106820000Y-113284000D03*
X106820000Y-114084000D03*
X106820000Y-114884000D03*
X106820000Y-115684000D03*
X106820000Y-116484000D03*
X106820000Y-117284000D03*
X107620000Y-109284000D03*
X107620000Y-110084000D03*
X107620000Y-110884000D03*
X107620000Y-111684000D03*
X107620000Y-112484000D03*
X107620000Y-113284000D03*
X107620000Y-114084000D03*
X107620000Y-114884000D03*
X107620000Y-115684000D03*
X107620000Y-116484000D03*
X107620000Y-117284000D03*
X108420000Y-109284000D03*
X108420000Y-110084000D03*
X108420000Y-110884000D03*
X108420000Y-111684000D03*
X108420000Y-112484000D03*
X108420000Y-113284000D03*
X108420000Y-114084000D03*
X108420000Y-114884000D03*
X108420000Y-115684000D03*
X108420000Y-116484000D03*
X108420000Y-117284000D03*
X109220000Y-109284000D03*
X109220000Y-110084000D03*
X109220000Y-110884000D03*
X109220000Y-111684000D03*
X109220000Y-112484000D03*
X109220000Y-113284000D03*
X109220000Y-114084000D03*
X109220000Y-114884000D03*
X109220000Y-115684000D03*
X109220000Y-116484000D03*
X109220000Y-117284000D03*
X110020000Y-109284000D03*
X110020000Y-110084000D03*
X110020000Y-110884000D03*
X110020000Y-111684000D03*
X110020000Y-112484000D03*
X110020000Y-113284000D03*
X110020000Y-114084000D03*
X110020000Y-114884000D03*
X110020000Y-115684000D03*
X110020000Y-116484000D03*
X110020000Y-117284000D03*
X110820000Y-109284000D03*
X110820000Y-110084000D03*
X110820000Y-110884000D03*
X110820000Y-111684000D03*
X110820000Y-112484000D03*
X110820000Y-113284000D03*
X110820000Y-114084000D03*
X110820000Y-114884000D03*
X110820000Y-115684000D03*
X110820000Y-116484000D03*
X110820000Y-117284000D03*
X111620000Y-109284000D03*
X111620000Y-110084000D03*
X111620000Y-110884000D03*
X111620000Y-111684000D03*
X111620000Y-112484000D03*
X111620000Y-113284000D03*
X111620000Y-114084000D03*
X111620000Y-114884000D03*
X111620000Y-115684000D03*
X111620000Y-116484000D03*
X111620000Y-117284000D03*
X112420000Y-109284000D03*
X112420000Y-110084000D03*
X112420000Y-110884000D03*
X112420000Y-111684000D03*
X112420000Y-112484000D03*
X112420000Y-113284000D03*
X112420000Y-114084000D03*
X112420000Y-114884000D03*
X112420000Y-115684000D03*
X112420000Y-116484000D03*
X112420000Y-117284000D03*
X113220000Y-109284000D03*
X113220000Y-110084000D03*
X113220000Y-110884000D03*
X113220000Y-111684000D03*
X113220000Y-112484000D03*
X113220000Y-113284000D03*
X113220000Y-114084000D03*
X113220000Y-114884000D03*
X113220000Y-115684000D03*
X113220000Y-116484000D03*
X113220000Y-117284000D03*
G36*
G01*
X108880000Y-125736000D02*
X107780000Y-125736000D01*
G75*
G02*
X107730000Y-125686000I0J50000D01*
G01*
X107730000Y-124386000D01*
G75*
G02*
X107780000Y-124336000I50000J0D01*
G01*
X108880000Y-124336000D01*
G75*
G02*
X108930000Y-124386000I0J-50000D01*
G01*
X108930000Y-125686000D01*
G75*
G02*
X108880000Y-125736000I-50000J0D01*
G01*
G37*
G36*
G01*
X108880000Y-123636000D02*
X107780000Y-123636000D01*
G75*
G02*
X107730000Y-123586000I0J50000D01*
G01*
X107730000Y-122286000D01*
G75*
G02*
X107780000Y-122236000I50000J0D01*
G01*
X108880000Y-122236000D01*
G75*
G02*
X108930000Y-122286000I0J-50000D01*
G01*
X108930000Y-123586000D01*
G75*
G02*
X108880000Y-123636000I-50000J0D01*
G01*
G37*
G36*
G01*
X107230000Y-123636000D02*
X106130000Y-123636000D01*
G75*
G02*
X106080000Y-123586000I0J50000D01*
G01*
X106080000Y-122286000D01*
G75*
G02*
X106130000Y-122236000I50000J0D01*
G01*
X107230000Y-122236000D01*
G75*
G02*
X107280000Y-122286000I0J-50000D01*
G01*
X107280000Y-123586000D01*
G75*
G02*
X107230000Y-123636000I-50000J0D01*
G01*
G37*
G36*
G01*
X107230000Y-125736000D02*
X106130000Y-125736000D01*
G75*
G02*
X106080000Y-125686000I0J50000D01*
G01*
X106080000Y-124386000D01*
G75*
G02*
X106130000Y-124336000I50000J0D01*
G01*
X107230000Y-124336000D01*
G75*
G02*
X107280000Y-124386000I0J-50000D01*
G01*
X107280000Y-125686000D01*
G75*
G02*
X107230000Y-125736000I-50000J0D01*
G01*
G37*
G36*
G01*
X112042000Y-145775000D02*
X112042000Y-144675000D01*
G75*
G02*
X112092000Y-144625000I50000J0D01*
G01*
X113392000Y-144625000D01*
G75*
G02*
X113442000Y-144675000I0J-50000D01*
G01*
X113442000Y-145775000D01*
G75*
G02*
X113392000Y-145825000I-50000J0D01*
G01*
X112092000Y-145825000D01*
G75*
G02*
X112042000Y-145775000I0J50000D01*
G01*
G37*
G36*
G01*
X114142000Y-145775000D02*
X114142000Y-144675000D01*
G75*
G02*
X114192000Y-144625000I50000J0D01*
G01*
X115492000Y-144625000D01*
G75*
G02*
X115542000Y-144675000I0J-50000D01*
G01*
X115542000Y-145775000D01*
G75*
G02*
X115492000Y-145825000I-50000J0D01*
G01*
X114192000Y-145825000D01*
G75*
G02*
X114142000Y-145775000I0J50000D01*
G01*
G37*
G36*
G01*
X114142000Y-147425000D02*
X114142000Y-146325000D01*
G75*
G02*
X114192000Y-146275000I50000J0D01*
G01*
X115492000Y-146275000D01*
G75*
G02*
X115542000Y-146325000I0J-50000D01*
G01*
X115542000Y-147425000D01*
G75*
G02*
X115492000Y-147475000I-50000J0D01*
G01*
X114192000Y-147475000D01*
G75*
G02*
X114142000Y-147425000I0J50000D01*
G01*
G37*
G36*
G01*
X112042000Y-147425000D02*
X112042000Y-146325000D01*
G75*
G02*
X112092000Y-146275000I50000J0D01*
G01*
X113392000Y-146275000D01*
G75*
G02*
X113442000Y-146325000I0J-50000D01*
G01*
X113442000Y-147425000D01*
G75*
G02*
X113392000Y-147475000I-50000J0D01*
G01*
X112092000Y-147475000D01*
G75*
G02*
X112042000Y-147425000I0J50000D01*
G01*
G37*
G36*
G01*
X99794750Y-138476000D02*
X100357250Y-138476000D01*
G75*
G02*
X100601000Y-138719750I0J-243750D01*
G01*
X100601000Y-139207250D01*
G75*
G02*
X100357250Y-139451000I-243750J0D01*
G01*
X99794750Y-139451000D01*
G75*
G02*
X99551000Y-139207250I0J243750D01*
G01*
X99551000Y-138719750D01*
G75*
G02*
X99794750Y-138476000I243750J0D01*
G01*
G37*
G36*
G01*
X99794750Y-136901000D02*
X100357250Y-136901000D01*
G75*
G02*
X100601000Y-137144750I0J-243750D01*
G01*
X100601000Y-137632250D01*
G75*
G02*
X100357250Y-137876000I-243750J0D01*
G01*
X99794750Y-137876000D01*
G75*
G02*
X99551000Y-137632250I0J243750D01*
G01*
X99551000Y-137144750D01*
G75*
G02*
X99794750Y-136901000I243750J0D01*
G01*
G37*
G36*
G01*
X106980000Y-128043250D02*
X106980000Y-127480750D01*
G75*
G02*
X107223750Y-127237000I243750J0D01*
G01*
X107711250Y-127237000D01*
G75*
G02*
X107955000Y-127480750I0J-243750D01*
G01*
X107955000Y-128043250D01*
G75*
G02*
X107711250Y-128287000I-243750J0D01*
G01*
X107223750Y-128287000D01*
G75*
G02*
X106980000Y-128043250I0J243750D01*
G01*
G37*
G36*
G01*
X105405000Y-128043250D02*
X105405000Y-127480750D01*
G75*
G02*
X105648750Y-127237000I243750J0D01*
G01*
X106136250Y-127237000D01*
G75*
G02*
X106380000Y-127480750I0J-243750D01*
G01*
X106380000Y-128043250D01*
G75*
G02*
X106136250Y-128287000I-243750J0D01*
G01*
X105648750Y-128287000D01*
G75*
G02*
X105405000Y-128043250I0J243750D01*
G01*
G37*
G36*
G01*
X105151000Y-144299250D02*
X105151000Y-143736750D01*
G75*
G02*
X105394750Y-143493000I243750J0D01*
G01*
X105882250Y-143493000D01*
G75*
G02*
X106126000Y-143736750I0J-243750D01*
G01*
X106126000Y-144299250D01*
G75*
G02*
X105882250Y-144543000I-243750J0D01*
G01*
X105394750Y-144543000D01*
G75*
G02*
X105151000Y-144299250I0J243750D01*
G01*
G37*
G36*
G01*
X106726000Y-144299250D02*
X106726000Y-143736750D01*
G75*
G02*
X106969750Y-143493000I243750J0D01*
G01*
X107457250Y-143493000D01*
G75*
G02*
X107701000Y-143736750I0J-243750D01*
G01*
X107701000Y-144299250D01*
G75*
G02*
X107457250Y-144543000I-243750J0D01*
G01*
X106969750Y-144543000D01*
G75*
G02*
X106726000Y-144299250I0J243750D01*
G01*
G37*
G36*
G01*
X97998000Y-142974750D02*
X97998000Y-143537250D01*
G75*
G02*
X97754250Y-143781000I-243750J0D01*
G01*
X97266750Y-143781000D01*
G75*
G02*
X97023000Y-143537250I0J243750D01*
G01*
X97023000Y-142974750D01*
G75*
G02*
X97266750Y-142731000I243750J0D01*
G01*
X97754250Y-142731000D01*
G75*
G02*
X97998000Y-142974750I0J-243750D01*
G01*
G37*
G36*
G01*
X99573000Y-142974750D02*
X99573000Y-143537250D01*
G75*
G02*
X99329250Y-143781000I-243750J0D01*
G01*
X98841750Y-143781000D01*
G75*
G02*
X98598000Y-143537250I0J243750D01*
G01*
X98598000Y-142974750D01*
G75*
G02*
X98841750Y-142731000I243750J0D01*
G01*
X99329250Y-142731000D01*
G75*
G02*
X99573000Y-142974750I0J-243750D01*
G01*
G37*
G36*
G01*
X118391250Y-150373000D02*
X117828750Y-150373000D01*
G75*
G02*
X117585000Y-150129250I0J243750D01*
G01*
X117585000Y-149641750D01*
G75*
G02*
X117828750Y-149398000I243750J0D01*
G01*
X118391250Y-149398000D01*
G75*
G02*
X118635000Y-149641750I0J-243750D01*
G01*
X118635000Y-150129250D01*
G75*
G02*
X118391250Y-150373000I-243750J0D01*
G01*
G37*
G36*
G01*
X118391250Y-148798000D02*
X117828750Y-148798000D01*
G75*
G02*
X117585000Y-148554250I0J243750D01*
G01*
X117585000Y-148066750D01*
G75*
G02*
X117828750Y-147823000I243750J0D01*
G01*
X118391250Y-147823000D01*
G75*
G02*
X118635000Y-148066750I0J-243750D01*
G01*
X118635000Y-148554250D01*
G75*
G02*
X118391250Y-148798000I-243750J0D01*
G01*
G37*
G36*
G01*
X124995250Y-133304000D02*
X124432750Y-133304000D01*
G75*
G02*
X124189000Y-133060250I0J243750D01*
G01*
X124189000Y-132572750D01*
G75*
G02*
X124432750Y-132329000I243750J0D01*
G01*
X124995250Y-132329000D01*
G75*
G02*
X125239000Y-132572750I0J-243750D01*
G01*
X125239000Y-133060250D01*
G75*
G02*
X124995250Y-133304000I-243750J0D01*
G01*
G37*
G36*
G01*
X124995250Y-134879000D02*
X124432750Y-134879000D01*
G75*
G02*
X124189000Y-134635250I0J243750D01*
G01*
X124189000Y-134147750D01*
G75*
G02*
X124432750Y-133904000I243750J0D01*
G01*
X124995250Y-133904000D01*
G75*
G02*
X125239000Y-134147750I0J-243750D01*
G01*
X125239000Y-134635250D01*
G75*
G02*
X124995250Y-134879000I-243750J0D01*
G01*
G37*
G36*
G01*
X100357250Y-131831000D02*
X99794750Y-131831000D01*
G75*
G02*
X99551000Y-131587250I0J243750D01*
G01*
X99551000Y-131099750D01*
G75*
G02*
X99794750Y-130856000I243750J0D01*
G01*
X100357250Y-130856000D01*
G75*
G02*
X100601000Y-131099750I0J-243750D01*
G01*
X100601000Y-131587250D01*
G75*
G02*
X100357250Y-131831000I-243750J0D01*
G01*
G37*
G36*
G01*
X100357250Y-130256000D02*
X99794750Y-130256000D01*
G75*
G02*
X99551000Y-130012250I0J243750D01*
G01*
X99551000Y-129524750D01*
G75*
G02*
X99794750Y-129281000I243750J0D01*
G01*
X100357250Y-129281000D01*
G75*
G02*
X100601000Y-129524750I0J-243750D01*
G01*
X100601000Y-130012250D01*
G75*
G02*
X100357250Y-130256000I-243750J0D01*
G01*
G37*
G36*
G01*
X117828750Y-145334000D02*
X118391250Y-145334000D01*
G75*
G02*
X118635000Y-145577750I0J-243750D01*
G01*
X118635000Y-146065250D01*
G75*
G02*
X118391250Y-146309000I-243750J0D01*
G01*
X117828750Y-146309000D01*
G75*
G02*
X117585000Y-146065250I0J243750D01*
G01*
X117585000Y-145577750D01*
G75*
G02*
X117828750Y-145334000I243750J0D01*
G01*
G37*
G36*
G01*
X117828750Y-143759000D02*
X118391250Y-143759000D01*
G75*
G02*
X118635000Y-144002750I0J-243750D01*
G01*
X118635000Y-144490250D01*
G75*
G02*
X118391250Y-144734000I-243750J0D01*
G01*
X117828750Y-144734000D01*
G75*
G02*
X117585000Y-144490250I0J243750D01*
G01*
X117585000Y-144002750D01*
G75*
G02*
X117828750Y-143759000I243750J0D01*
G01*
G37*
G36*
G01*
X118391250Y-142499000D02*
X117828750Y-142499000D01*
G75*
G02*
X117585000Y-142255250I0J243750D01*
G01*
X117585000Y-141767750D01*
G75*
G02*
X117828750Y-141524000I243750J0D01*
G01*
X118391250Y-141524000D01*
G75*
G02*
X118635000Y-141767750I0J-243750D01*
G01*
X118635000Y-142255250D01*
G75*
G02*
X118391250Y-142499000I-243750J0D01*
G01*
G37*
G36*
G01*
X118391250Y-140924000D02*
X117828750Y-140924000D01*
G75*
G02*
X117585000Y-140680250I0J243750D01*
G01*
X117585000Y-140192750D01*
G75*
G02*
X117828750Y-139949000I243750J0D01*
G01*
X118391250Y-139949000D01*
G75*
G02*
X118635000Y-140192750I0J-243750D01*
G01*
X118635000Y-140680250D01*
G75*
G02*
X118391250Y-140924000I-243750J0D01*
G01*
G37*
G36*
G01*
X125194750Y-124252000D02*
X125757250Y-124252000D01*
G75*
G02*
X126001000Y-124495750I0J-243750D01*
G01*
X126001000Y-124983250D01*
G75*
G02*
X125757250Y-125227000I-243750J0D01*
G01*
X125194750Y-125227000D01*
G75*
G02*
X124951000Y-124983250I0J243750D01*
G01*
X124951000Y-124495750D01*
G75*
G02*
X125194750Y-124252000I243750J0D01*
G01*
G37*
G36*
G01*
X125194750Y-122677000D02*
X125757250Y-122677000D01*
G75*
G02*
X126001000Y-122920750I0J-243750D01*
G01*
X126001000Y-123408250D01*
G75*
G02*
X125757250Y-123652000I-243750J0D01*
G01*
X125194750Y-123652000D01*
G75*
G02*
X124951000Y-123408250I0J243750D01*
G01*
X124951000Y-122920750D01*
G75*
G02*
X125194750Y-122677000I243750J0D01*
G01*
G37*
G36*
G01*
X118826000Y-113002750D02*
X118826000Y-113565250D01*
G75*
G02*
X118582250Y-113809000I-243750J0D01*
G01*
X118094750Y-113809000D01*
G75*
G02*
X117851000Y-113565250I0J243750D01*
G01*
X117851000Y-113002750D01*
G75*
G02*
X118094750Y-112759000I243750J0D01*
G01*
X118582250Y-112759000D01*
G75*
G02*
X118826000Y-113002750I0J-243750D01*
G01*
G37*
G36*
G01*
X120401000Y-113002750D02*
X120401000Y-113565250D01*
G75*
G02*
X120157250Y-113809000I-243750J0D01*
G01*
X119669750Y-113809000D01*
G75*
G02*
X119426000Y-113565250I0J243750D01*
G01*
X119426000Y-113002750D01*
G75*
G02*
X119669750Y-112759000I243750J0D01*
G01*
X120157250Y-112759000D01*
G75*
G02*
X120401000Y-113002750I0J-243750D01*
G01*
G37*
G36*
G01*
X118391250Y-133304000D02*
X117828750Y-133304000D01*
G75*
G02*
X117585000Y-133060250I0J243750D01*
G01*
X117585000Y-132572750D01*
G75*
G02*
X117828750Y-132329000I243750J0D01*
G01*
X118391250Y-132329000D01*
G75*
G02*
X118635000Y-132572750I0J-243750D01*
G01*
X118635000Y-133060250D01*
G75*
G02*
X118391250Y-133304000I-243750J0D01*
G01*
G37*
G36*
G01*
X118391250Y-134879000D02*
X117828750Y-134879000D01*
G75*
G02*
X117585000Y-134635250I0J243750D01*
G01*
X117585000Y-134147750D01*
G75*
G02*
X117828750Y-133904000I243750J0D01*
G01*
X118391250Y-133904000D01*
G75*
G02*
X118635000Y-134147750I0J-243750D01*
G01*
X118635000Y-134635250D01*
G75*
G02*
X118391250Y-134879000I-243750J0D01*
G01*
G37*
G36*
G01*
X117828750Y-136139000D02*
X118391250Y-136139000D01*
G75*
G02*
X118635000Y-136382750I0J-243750D01*
G01*
X118635000Y-136870250D01*
G75*
G02*
X118391250Y-137114000I-243750J0D01*
G01*
X117828750Y-137114000D01*
G75*
G02*
X117585000Y-136870250I0J243750D01*
G01*
X117585000Y-136382750D01*
G75*
G02*
X117828750Y-136139000I243750J0D01*
G01*
G37*
G36*
G01*
X117828750Y-137714000D02*
X118391250Y-137714000D01*
G75*
G02*
X118635000Y-137957750I0J-243750D01*
G01*
X118635000Y-138445250D01*
G75*
G02*
X118391250Y-138689000I-243750J0D01*
G01*
X117828750Y-138689000D01*
G75*
G02*
X117585000Y-138445250I0J243750D01*
G01*
X117585000Y-137957750D01*
G75*
G02*
X117828750Y-137714000I243750J0D01*
G01*
G37*
G36*
G01*
X97309250Y-92435500D02*
X96746750Y-92435500D01*
G75*
G02*
X96503000Y-92191750I0J243750D01*
G01*
X96503000Y-91704250D01*
G75*
G02*
X96746750Y-91460500I243750J0D01*
G01*
X97309250Y-91460500D01*
G75*
G02*
X97553000Y-91704250I0J-243750D01*
G01*
X97553000Y-92191750D01*
G75*
G02*
X97309250Y-92435500I-243750J0D01*
G01*
G37*
G36*
G01*
X97309250Y-94010500D02*
X96746750Y-94010500D01*
G75*
G02*
X96503000Y-93766750I0J243750D01*
G01*
X96503000Y-93279250D01*
G75*
G02*
X96746750Y-93035500I243750J0D01*
G01*
X97309250Y-93035500D01*
G75*
G02*
X97553000Y-93279250I0J-243750D01*
G01*
X97553000Y-93766750D01*
G75*
G02*
X97309250Y-94010500I-243750J0D01*
G01*
G37*
G36*
G01*
X104874750Y-91460500D02*
X105437250Y-91460500D01*
G75*
G02*
X105681000Y-91704250I0J-243750D01*
G01*
X105681000Y-92191750D01*
G75*
G02*
X105437250Y-92435500I-243750J0D01*
G01*
X104874750Y-92435500D01*
G75*
G02*
X104631000Y-92191750I0J243750D01*
G01*
X104631000Y-91704250D01*
G75*
G02*
X104874750Y-91460500I243750J0D01*
G01*
G37*
G36*
G01*
X104874750Y-93035500D02*
X105437250Y-93035500D01*
G75*
G02*
X105681000Y-93279250I0J-243750D01*
G01*
X105681000Y-93766750D01*
G75*
G02*
X105437250Y-94010500I-243750J0D01*
G01*
X104874750Y-94010500D01*
G75*
G02*
X104631000Y-93766750I0J243750D01*
G01*
X104631000Y-93279250D01*
G75*
G02*
X104874750Y-93035500I243750J0D01*
G01*
G37*
G36*
G01*
X101318750Y-91460500D02*
X101881250Y-91460500D01*
G75*
G02*
X102125000Y-91704250I0J-243750D01*
G01*
X102125000Y-92191750D01*
G75*
G02*
X101881250Y-92435500I-243750J0D01*
G01*
X101318750Y-92435500D01*
G75*
G02*
X101075000Y-92191750I0J243750D01*
G01*
X101075000Y-91704250D01*
G75*
G02*
X101318750Y-91460500I243750J0D01*
G01*
G37*
G36*
G01*
X101318750Y-93035500D02*
X101881250Y-93035500D01*
G75*
G02*
X102125000Y-93279250I0J-243750D01*
G01*
X102125000Y-93766750D01*
G75*
G02*
X101881250Y-94010500I-243750J0D01*
G01*
X101318750Y-94010500D01*
G75*
G02*
X101075000Y-93766750I0J243750D01*
G01*
X101075000Y-93279250D01*
G75*
G02*
X101318750Y-93035500I243750J0D01*
G01*
G37*
G36*
G01*
X113057250Y-94010500D02*
X112494750Y-94010500D01*
G75*
G02*
X112251000Y-93766750I0J243750D01*
G01*
X112251000Y-93279250D01*
G75*
G02*
X112494750Y-93035500I243750J0D01*
G01*
X113057250Y-93035500D01*
G75*
G02*
X113301000Y-93279250I0J-243750D01*
G01*
X113301000Y-93766750D01*
G75*
G02*
X113057250Y-94010500I-243750J0D01*
G01*
G37*
G36*
G01*
X113057250Y-92435500D02*
X112494750Y-92435500D01*
G75*
G02*
X112251000Y-92191750I0J243750D01*
G01*
X112251000Y-91704250D01*
G75*
G02*
X112494750Y-91460500I243750J0D01*
G01*
X113057250Y-91460500D01*
G75*
G02*
X113301000Y-91704250I0J-243750D01*
G01*
X113301000Y-92191750D01*
G75*
G02*
X113057250Y-92435500I-243750J0D01*
G01*
G37*
G36*
G01*
X99614000Y-125503250D02*
X99614000Y-124940750D01*
G75*
G02*
X99857750Y-124697000I243750J0D01*
G01*
X100345250Y-124697000D01*
G75*
G02*
X100589000Y-124940750I0J-243750D01*
G01*
X100589000Y-125503250D01*
G75*
G02*
X100345250Y-125747000I-243750J0D01*
G01*
X99857750Y-125747000D01*
G75*
G02*
X99614000Y-125503250I0J243750D01*
G01*
G37*
G36*
G01*
X98039000Y-125503250D02*
X98039000Y-124940750D01*
G75*
G02*
X98282750Y-124697000I243750J0D01*
G01*
X98770250Y-124697000D01*
G75*
G02*
X99014000Y-124940750I0J-243750D01*
G01*
X99014000Y-125503250D01*
G75*
G02*
X98770250Y-125747000I-243750J0D01*
G01*
X98282750Y-125747000D01*
G75*
G02*
X98039000Y-125503250I0J243750D01*
G01*
G37*
G36*
G01*
X113797000Y-95984750D02*
X113797000Y-96547250D01*
G75*
G02*
X113553250Y-96791000I-243750J0D01*
G01*
X113065750Y-96791000D01*
G75*
G02*
X112822000Y-96547250I0J243750D01*
G01*
X112822000Y-95984750D01*
G75*
G02*
X113065750Y-95741000I243750J0D01*
G01*
X113553250Y-95741000D01*
G75*
G02*
X113797000Y-95984750I0J-243750D01*
G01*
G37*
G36*
G01*
X112222000Y-95984750D02*
X112222000Y-96547250D01*
G75*
G02*
X111978250Y-96791000I-243750J0D01*
G01*
X111490750Y-96791000D01*
G75*
G02*
X111247000Y-96547250I0J243750D01*
G01*
X111247000Y-95984750D01*
G75*
G02*
X111490750Y-95741000I243750J0D01*
G01*
X111978250Y-95741000D01*
G75*
G02*
X112222000Y-95984750I0J-243750D01*
G01*
G37*
G36*
G01*
X99614000Y-122963250D02*
X99614000Y-122400750D01*
G75*
G02*
X99857750Y-122157000I243750J0D01*
G01*
X100345250Y-122157000D01*
G75*
G02*
X100589000Y-122400750I0J-243750D01*
G01*
X100589000Y-122963250D01*
G75*
G02*
X100345250Y-123207000I-243750J0D01*
G01*
X99857750Y-123207000D01*
G75*
G02*
X99614000Y-122963250I0J243750D01*
G01*
G37*
G36*
G01*
X98039000Y-122963250D02*
X98039000Y-122400750D01*
G75*
G02*
X98282750Y-122157000I243750J0D01*
G01*
X98770250Y-122157000D01*
G75*
G02*
X99014000Y-122400750I0J-243750D01*
G01*
X99014000Y-122963250D01*
G75*
G02*
X98770250Y-123207000I-243750J0D01*
G01*
X98282750Y-123207000D01*
G75*
G02*
X98039000Y-122963250I0J243750D01*
G01*
G37*
G36*
G01*
X113797000Y-98270750D02*
X113797000Y-98833250D01*
G75*
G02*
X113553250Y-99077000I-243750J0D01*
G01*
X113065750Y-99077000D01*
G75*
G02*
X112822000Y-98833250I0J243750D01*
G01*
X112822000Y-98270750D01*
G75*
G02*
X113065750Y-98027000I243750J0D01*
G01*
X113553250Y-98027000D01*
G75*
G02*
X113797000Y-98270750I0J-243750D01*
G01*
G37*
G36*
G01*
X112222000Y-98270750D02*
X112222000Y-98833250D01*
G75*
G02*
X111978250Y-99077000I-243750J0D01*
G01*
X111490750Y-99077000D01*
G75*
G02*
X111247000Y-98833250I0J243750D01*
G01*
X111247000Y-98270750D01*
G75*
G02*
X111490750Y-98027000I243750J0D01*
G01*
X111978250Y-98027000D01*
G75*
G02*
X112222000Y-98270750I0J-243750D01*
G01*
G37*
G36*
G01*
X103913250Y-107167500D02*
X103350750Y-107167500D01*
G75*
G02*
X103107000Y-106923750I0J243750D01*
G01*
X103107000Y-106436250D01*
G75*
G02*
X103350750Y-106192500I243750J0D01*
G01*
X103913250Y-106192500D01*
G75*
G02*
X104157000Y-106436250I0J-243750D01*
G01*
X104157000Y-106923750D01*
G75*
G02*
X103913250Y-107167500I-243750J0D01*
G01*
G37*
G36*
G01*
X103913250Y-105592500D02*
X103350750Y-105592500D01*
G75*
G02*
X103107000Y-105348750I0J243750D01*
G01*
X103107000Y-104861250D01*
G75*
G02*
X103350750Y-104617500I243750J0D01*
G01*
X103913250Y-104617500D01*
G75*
G02*
X104157000Y-104861250I0J-243750D01*
G01*
X104157000Y-105348750D01*
G75*
G02*
X103913250Y-105592500I-243750J0D01*
G01*
G37*
G36*
G01*
X115343250Y-104424500D02*
X114780750Y-104424500D01*
G75*
G02*
X114537000Y-104180750I0J243750D01*
G01*
X114537000Y-103693250D01*
G75*
G02*
X114780750Y-103449500I243750J0D01*
G01*
X115343250Y-103449500D01*
G75*
G02*
X115587000Y-103693250I0J-243750D01*
G01*
X115587000Y-104180750D01*
G75*
G02*
X115343250Y-104424500I-243750J0D01*
G01*
G37*
G36*
G01*
X115343250Y-102849500D02*
X114780750Y-102849500D01*
G75*
G02*
X114537000Y-102605750I0J243750D01*
G01*
X114537000Y-102118250D01*
G75*
G02*
X114780750Y-101874500I243750J0D01*
G01*
X115343250Y-101874500D01*
G75*
G02*
X115587000Y-102118250I0J-243750D01*
G01*
X115587000Y-102605750D01*
G75*
G02*
X115343250Y-102849500I-243750J0D01*
G01*
G37*
G36*
G01*
X99032750Y-106218000D02*
X99595250Y-106218000D01*
G75*
G02*
X99839000Y-106461750I0J-243750D01*
G01*
X99839000Y-106949250D01*
G75*
G02*
X99595250Y-107193000I-243750J0D01*
G01*
X99032750Y-107193000D01*
G75*
G02*
X98789000Y-106949250I0J243750D01*
G01*
X98789000Y-106461750D01*
G75*
G02*
X99032750Y-106218000I243750J0D01*
G01*
G37*
G36*
G01*
X99032750Y-104643000D02*
X99595250Y-104643000D01*
G75*
G02*
X99839000Y-104886750I0J-243750D01*
G01*
X99839000Y-105374250D01*
G75*
G02*
X99595250Y-105618000I-243750J0D01*
G01*
X99032750Y-105618000D01*
G75*
G02*
X98789000Y-105374250I0J243750D01*
G01*
X98789000Y-104886750D01*
G75*
G02*
X99032750Y-104643000I243750J0D01*
G01*
G37*
G36*
G01*
X98039000Y-113565250D02*
X98039000Y-113002750D01*
G75*
G02*
X98282750Y-112759000I243750J0D01*
G01*
X98770250Y-112759000D01*
G75*
G02*
X99014000Y-113002750I0J-243750D01*
G01*
X99014000Y-113565250D01*
G75*
G02*
X98770250Y-113809000I-243750J0D01*
G01*
X98282750Y-113809000D01*
G75*
G02*
X98039000Y-113565250I0J243750D01*
G01*
G37*
G36*
G01*
X99614000Y-113565250D02*
X99614000Y-113002750D01*
G75*
G02*
X99857750Y-112759000I243750J0D01*
G01*
X100345250Y-112759000D01*
G75*
G02*
X100589000Y-113002750I0J-243750D01*
G01*
X100589000Y-113565250D01*
G75*
G02*
X100345250Y-113809000I-243750J0D01*
G01*
X99857750Y-113809000D01*
G75*
G02*
X99614000Y-113565250I0J243750D01*
G01*
G37*
G36*
G01*
X107945000Y-146331250D02*
X107945000Y-145768750D01*
G75*
G02*
X108188750Y-145525000I243750J0D01*
G01*
X108676250Y-145525000D01*
G75*
G02*
X108920000Y-145768750I0J-243750D01*
G01*
X108920000Y-146331250D01*
G75*
G02*
X108676250Y-146575000I-243750J0D01*
G01*
X108188750Y-146575000D01*
G75*
G02*
X107945000Y-146331250I0J243750D01*
G01*
G37*
G36*
G01*
X109520000Y-146331250D02*
X109520000Y-145768750D01*
G75*
G02*
X109763750Y-145525000I243750J0D01*
G01*
X110251250Y-145525000D01*
G75*
G02*
X110495000Y-145768750I0J-243750D01*
G01*
X110495000Y-146331250D01*
G75*
G02*
X110251250Y-146575000I-243750J0D01*
G01*
X109763750Y-146575000D01*
G75*
G02*
X109520000Y-146331250I0J243750D01*
G01*
G37*
G36*
G01*
X108739250Y-149560000D02*
X108176750Y-149560000D01*
G75*
G02*
X107933000Y-149316250I0J243750D01*
G01*
X107933000Y-148828750D01*
G75*
G02*
X108176750Y-148585000I243750J0D01*
G01*
X108739250Y-148585000D01*
G75*
G02*
X108983000Y-148828750I0J-243750D01*
G01*
X108983000Y-149316250D01*
G75*
G02*
X108739250Y-149560000I-243750J0D01*
G01*
G37*
G36*
G01*
X108739250Y-151135000D02*
X108176750Y-151135000D01*
G75*
G02*
X107933000Y-150891250I0J243750D01*
G01*
X107933000Y-150403750D01*
G75*
G02*
X108176750Y-150160000I243750J0D01*
G01*
X108739250Y-150160000D01*
G75*
G02*
X108983000Y-150403750I0J-243750D01*
G01*
X108983000Y-150891250D01*
G75*
G02*
X108739250Y-151135000I-243750J0D01*
G01*
G37*
G36*
G01*
X116073000Y-130329250D02*
X116073000Y-129766750D01*
G75*
G02*
X116316750Y-129523000I243750J0D01*
G01*
X116804250Y-129523000D01*
G75*
G02*
X117048000Y-129766750I0J-243750D01*
G01*
X117048000Y-130329250D01*
G75*
G02*
X116804250Y-130573000I-243750J0D01*
G01*
X116316750Y-130573000D01*
G75*
G02*
X116073000Y-130329250I0J243750D01*
G01*
G37*
G36*
G01*
X117648000Y-130329250D02*
X117648000Y-129766750D01*
G75*
G02*
X117891750Y-129523000I243750J0D01*
G01*
X118379250Y-129523000D01*
G75*
G02*
X118623000Y-129766750I0J-243750D01*
G01*
X118623000Y-130329250D01*
G75*
G02*
X118379250Y-130573000I-243750J0D01*
G01*
X117891750Y-130573000D01*
G75*
G02*
X117648000Y-130329250I0J243750D01*
G01*
G37*
G36*
G01*
X103383000Y-142974750D02*
X103383000Y-143537250D01*
G75*
G02*
X103139250Y-143781000I-243750J0D01*
G01*
X102651750Y-143781000D01*
G75*
G02*
X102408000Y-143537250I0J243750D01*
G01*
X102408000Y-142974750D01*
G75*
G02*
X102651750Y-142731000I243750J0D01*
G01*
X103139250Y-142731000D01*
G75*
G02*
X103383000Y-142974750I0J-243750D01*
G01*
G37*
G36*
G01*
X101808000Y-142974750D02*
X101808000Y-143537250D01*
G75*
G02*
X101564250Y-143781000I-243750J0D01*
G01*
X101076750Y-143781000D01*
G75*
G02*
X100833000Y-143537250I0J243750D01*
G01*
X100833000Y-142974750D01*
G75*
G02*
X101076750Y-142731000I243750J0D01*
G01*
X101564250Y-142731000D01*
G75*
G02*
X101808000Y-142974750I0J-243750D01*
G01*
G37*
G36*
G01*
X113584000Y-150649250D02*
X113584000Y-150086750D01*
G75*
G02*
X113827750Y-149843000I243750J0D01*
G01*
X114315250Y-149843000D01*
G75*
G02*
X114559000Y-150086750I0J-243750D01*
G01*
X114559000Y-150649250D01*
G75*
G02*
X114315250Y-150893000I-243750J0D01*
G01*
X113827750Y-150893000D01*
G75*
G02*
X113584000Y-150649250I0J243750D01*
G01*
G37*
G36*
G01*
X112009000Y-150649250D02*
X112009000Y-150086750D01*
G75*
G02*
X112252750Y-149843000I243750J0D01*
G01*
X112740250Y-149843000D01*
G75*
G02*
X112984000Y-150086750I0J-243750D01*
G01*
X112984000Y-150649250D01*
G75*
G02*
X112740250Y-150893000I-243750J0D01*
G01*
X112252750Y-150893000D01*
G75*
G02*
X112009000Y-150649250I0J243750D01*
G01*
G37*
G36*
G01*
X115089250Y-126700000D02*
X114526750Y-126700000D01*
G75*
G02*
X114283000Y-126456250I0J243750D01*
G01*
X114283000Y-125968750D01*
G75*
G02*
X114526750Y-125725000I243750J0D01*
G01*
X115089250Y-125725000D01*
G75*
G02*
X115333000Y-125968750I0J-243750D01*
G01*
X115333000Y-126456250D01*
G75*
G02*
X115089250Y-126700000I-243750J0D01*
G01*
G37*
G36*
G01*
X115089250Y-128275000D02*
X114526750Y-128275000D01*
G75*
G02*
X114283000Y-128031250I0J243750D01*
G01*
X114283000Y-127543750D01*
G75*
G02*
X114526750Y-127300000I243750J0D01*
G01*
X115089250Y-127300000D01*
G75*
G02*
X115333000Y-127543750I0J-243750D01*
G01*
X115333000Y-128031250D01*
G75*
G02*
X115089250Y-128275000I-243750J0D01*
G01*
G37*
G36*
G01*
X87602750Y-125039500D02*
X88165250Y-125039500D01*
G75*
G02*
X88409000Y-125283250I0J-243750D01*
G01*
X88409000Y-125770750D01*
G75*
G02*
X88165250Y-126014500I-243750J0D01*
G01*
X87602750Y-126014500D01*
G75*
G02*
X87359000Y-125770750I0J243750D01*
G01*
X87359000Y-125283250D01*
G75*
G02*
X87602750Y-125039500I243750J0D01*
G01*
G37*
G36*
G01*
X87602750Y-123464500D02*
X88165250Y-123464500D01*
G75*
G02*
X88409000Y-123708250I0J-243750D01*
G01*
X88409000Y-124195750D01*
G75*
G02*
X88165250Y-124439500I-243750J0D01*
G01*
X87602750Y-124439500D01*
G75*
G02*
X87359000Y-124195750I0J243750D01*
G01*
X87359000Y-123708250D01*
G75*
G02*
X87602750Y-123464500I243750J0D01*
G01*
G37*
G36*
G01*
X90142750Y-123464500D02*
X90705250Y-123464500D01*
G75*
G02*
X90949000Y-123708250I0J-243750D01*
G01*
X90949000Y-124195750D01*
G75*
G02*
X90705250Y-124439500I-243750J0D01*
G01*
X90142750Y-124439500D01*
G75*
G02*
X89899000Y-124195750I0J243750D01*
G01*
X89899000Y-123708250D01*
G75*
G02*
X90142750Y-123464500I243750J0D01*
G01*
G37*
G36*
G01*
X90142750Y-125039500D02*
X90705250Y-125039500D01*
G75*
G02*
X90949000Y-125283250I0J-243750D01*
G01*
X90949000Y-125770750D01*
G75*
G02*
X90705250Y-126014500I-243750J0D01*
G01*
X90142750Y-126014500D01*
G75*
G02*
X89899000Y-125770750I0J243750D01*
G01*
X89899000Y-125283250D01*
G75*
G02*
X90142750Y-125039500I243750J0D01*
G01*
G37*
G36*
G01*
X122982000Y-130329250D02*
X122982000Y-129766750D01*
G75*
G02*
X123225750Y-129523000I243750J0D01*
G01*
X123713250Y-129523000D01*
G75*
G02*
X123957000Y-129766750I0J-243750D01*
G01*
X123957000Y-130329250D01*
G75*
G02*
X123713250Y-130573000I-243750J0D01*
G01*
X123225750Y-130573000D01*
G75*
G02*
X122982000Y-130329250I0J243750D01*
G01*
G37*
G36*
G01*
X121407000Y-130329250D02*
X121407000Y-129766750D01*
G75*
G02*
X121650750Y-129523000I243750J0D01*
G01*
X122138250Y-129523000D01*
G75*
G02*
X122382000Y-129766750I0J-243750D01*
G01*
X122382000Y-130329250D01*
G75*
G02*
X122138250Y-130573000I-243750J0D01*
G01*
X121650750Y-130573000D01*
G75*
G02*
X121407000Y-130329250I0J243750D01*
G01*
G37*
G36*
G01*
X120137000Y-118645250D02*
X120137000Y-118082750D01*
G75*
G02*
X120380750Y-117839000I243750J0D01*
G01*
X120868250Y-117839000D01*
G75*
G02*
X121112000Y-118082750I0J-243750D01*
G01*
X121112000Y-118645250D01*
G75*
G02*
X120868250Y-118889000I-243750J0D01*
G01*
X120380750Y-118889000D01*
G75*
G02*
X120137000Y-118645250I0J243750D01*
G01*
G37*
G36*
G01*
X121712000Y-118645250D02*
X121712000Y-118082750D01*
G75*
G02*
X121955750Y-117839000I243750J0D01*
G01*
X122443250Y-117839000D01*
G75*
G02*
X122687000Y-118082750I0J-243750D01*
G01*
X122687000Y-118645250D01*
G75*
G02*
X122443250Y-118889000I-243750J0D01*
G01*
X121955750Y-118889000D01*
G75*
G02*
X121712000Y-118645250I0J243750D01*
G01*
G37*
G36*
G01*
X125757250Y-120401000D02*
X125194750Y-120401000D01*
G75*
G02*
X124951000Y-120157250I0J243750D01*
G01*
X124951000Y-119669750D01*
G75*
G02*
X125194750Y-119426000I243750J0D01*
G01*
X125757250Y-119426000D01*
G75*
G02*
X126001000Y-119669750I0J-243750D01*
G01*
X126001000Y-120157250D01*
G75*
G02*
X125757250Y-120401000I-243750J0D01*
G01*
G37*
G36*
G01*
X125757250Y-118826000D02*
X125194750Y-118826000D01*
G75*
G02*
X124951000Y-118582250I0J243750D01*
G01*
X124951000Y-118094750D01*
G75*
G02*
X125194750Y-117851000I243750J0D01*
G01*
X125757250Y-117851000D01*
G75*
G02*
X126001000Y-118094750I0J-243750D01*
G01*
X126001000Y-118582250D01*
G75*
G02*
X125757250Y-118826000I-243750J0D01*
G01*
G37*
G36*
G01*
X98039000Y-120677250D02*
X98039000Y-120114750D01*
G75*
G02*
X98282750Y-119871000I243750J0D01*
G01*
X98770250Y-119871000D01*
G75*
G02*
X99014000Y-120114750I0J-243750D01*
G01*
X99014000Y-120677250D01*
G75*
G02*
X98770250Y-120921000I-243750J0D01*
G01*
X98282750Y-120921000D01*
G75*
G02*
X98039000Y-120677250I0J243750D01*
G01*
G37*
G36*
G01*
X99614000Y-120677250D02*
X99614000Y-120114750D01*
G75*
G02*
X99857750Y-119871000I243750J0D01*
G01*
X100345250Y-119871000D01*
G75*
G02*
X100589000Y-120114750I0J-243750D01*
G01*
X100589000Y-120677250D01*
G75*
G02*
X100345250Y-120921000I-243750J0D01*
G01*
X99857750Y-120921000D01*
G75*
G02*
X99614000Y-120677250I0J243750D01*
G01*
G37*
G36*
G01*
X112822000Y-101119250D02*
X112822000Y-100556750D01*
G75*
G02*
X113065750Y-100313000I243750J0D01*
G01*
X113553250Y-100313000D01*
G75*
G02*
X113797000Y-100556750I0J-243750D01*
G01*
X113797000Y-101119250D01*
G75*
G02*
X113553250Y-101363000I-243750J0D01*
G01*
X113065750Y-101363000D01*
G75*
G02*
X112822000Y-101119250I0J243750D01*
G01*
G37*
G36*
G01*
X111247000Y-101119250D02*
X111247000Y-100556750D01*
G75*
G02*
X111490750Y-100313000I243750J0D01*
G01*
X111978250Y-100313000D01*
G75*
G02*
X112222000Y-100556750I0J-243750D01*
G01*
X112222000Y-101119250D01*
G75*
G02*
X111978250Y-101363000I-243750J0D01*
G01*
X111490750Y-101363000D01*
G75*
G02*
X111247000Y-101119250I0J243750D01*
G01*
G37*
G36*
G01*
X115089250Y-122636000D02*
X114526750Y-122636000D01*
G75*
G02*
X114283000Y-122392250I0J243750D01*
G01*
X114283000Y-121904750D01*
G75*
G02*
X114526750Y-121661000I243750J0D01*
G01*
X115089250Y-121661000D01*
G75*
G02*
X115333000Y-121904750I0J-243750D01*
G01*
X115333000Y-122392250D01*
G75*
G02*
X115089250Y-122636000I-243750J0D01*
G01*
G37*
G36*
G01*
X115089250Y-124211000D02*
X114526750Y-124211000D01*
G75*
G02*
X114283000Y-123967250I0J243750D01*
G01*
X114283000Y-123479750D01*
G75*
G02*
X114526750Y-123236000I243750J0D01*
G01*
X115089250Y-123236000D01*
G75*
G02*
X115333000Y-123479750I0J-243750D01*
G01*
X115333000Y-123967250D01*
G75*
G02*
X115089250Y-124211000I-243750J0D01*
G01*
G37*
G36*
G01*
X111787250Y-124211000D02*
X111224750Y-124211000D01*
G75*
G02*
X110981000Y-123967250I0J243750D01*
G01*
X110981000Y-123479750D01*
G75*
G02*
X111224750Y-123236000I243750J0D01*
G01*
X111787250Y-123236000D01*
G75*
G02*
X112031000Y-123479750I0J-243750D01*
G01*
X112031000Y-123967250D01*
G75*
G02*
X111787250Y-124211000I-243750J0D01*
G01*
G37*
G36*
G01*
X111787250Y-122636000D02*
X111224750Y-122636000D01*
G75*
G02*
X110981000Y-122392250I0J243750D01*
G01*
X110981000Y-121904750D01*
G75*
G02*
X111224750Y-121661000I243750J0D01*
G01*
X111787250Y-121661000D01*
G75*
G02*
X112031000Y-121904750I0J-243750D01*
G01*
X112031000Y-122392250D01*
G75*
G02*
X111787250Y-122636000I-243750J0D01*
G01*
G37*
G36*
G01*
X141251250Y-131272000D02*
X140688750Y-131272000D01*
G75*
G02*
X140445000Y-131028250I0J243750D01*
G01*
X140445000Y-130540750D01*
G75*
G02*
X140688750Y-130297000I243750J0D01*
G01*
X141251250Y-130297000D01*
G75*
G02*
X141495000Y-130540750I0J-243750D01*
G01*
X141495000Y-131028250D01*
G75*
G02*
X141251250Y-131272000I-243750J0D01*
G01*
G37*
G36*
G01*
X141251250Y-132847000D02*
X140688750Y-132847000D01*
G75*
G02*
X140445000Y-132603250I0J243750D01*
G01*
X140445000Y-132115750D01*
G75*
G02*
X140688750Y-131872000I243750J0D01*
G01*
X141251250Y-131872000D01*
G75*
G02*
X141495000Y-132115750I0J-243750D01*
G01*
X141495000Y-132603250D01*
G75*
G02*
X141251250Y-132847000I-243750J0D01*
G01*
G37*
G36*
G01*
X138965250Y-132847000D02*
X138402750Y-132847000D01*
G75*
G02*
X138159000Y-132603250I0J243750D01*
G01*
X138159000Y-132115750D01*
G75*
G02*
X138402750Y-131872000I243750J0D01*
G01*
X138965250Y-131872000D01*
G75*
G02*
X139209000Y-132115750I0J-243750D01*
G01*
X139209000Y-132603250D01*
G75*
G02*
X138965250Y-132847000I-243750J0D01*
G01*
G37*
G36*
G01*
X138965250Y-131272000D02*
X138402750Y-131272000D01*
G75*
G02*
X138159000Y-131028250I0J243750D01*
G01*
X138159000Y-130540750D01*
G75*
G02*
X138402750Y-130297000I243750J0D01*
G01*
X138965250Y-130297000D01*
G75*
G02*
X139209000Y-130540750I0J-243750D01*
G01*
X139209000Y-131028250D01*
G75*
G02*
X138965250Y-131272000I-243750J0D01*
G01*
G37*
G36*
G01*
X136679250Y-131272000D02*
X136116750Y-131272000D01*
G75*
G02*
X135873000Y-131028250I0J243750D01*
G01*
X135873000Y-130540750D01*
G75*
G02*
X136116750Y-130297000I243750J0D01*
G01*
X136679250Y-130297000D01*
G75*
G02*
X136923000Y-130540750I0J-243750D01*
G01*
X136923000Y-131028250D01*
G75*
G02*
X136679250Y-131272000I-243750J0D01*
G01*
G37*
G36*
G01*
X136679250Y-132847000D02*
X136116750Y-132847000D01*
G75*
G02*
X135873000Y-132603250I0J243750D01*
G01*
X135873000Y-132115750D01*
G75*
G02*
X136116750Y-131872000I243750J0D01*
G01*
X136679250Y-131872000D01*
G75*
G02*
X136923000Y-132115750I0J-243750D01*
G01*
X136923000Y-132603250D01*
G75*
G02*
X136679250Y-132847000I-243750J0D01*
G01*
G37*
G36*
G01*
X90705250Y-132567500D02*
X90142750Y-132567500D01*
G75*
G02*
X89899000Y-132323750I0J243750D01*
G01*
X89899000Y-131836250D01*
G75*
G02*
X90142750Y-131592500I243750J0D01*
G01*
X90705250Y-131592500D01*
G75*
G02*
X90949000Y-131836250I0J-243750D01*
G01*
X90949000Y-132323750D01*
G75*
G02*
X90705250Y-132567500I-243750J0D01*
G01*
G37*
G36*
G01*
X90705250Y-134142500D02*
X90142750Y-134142500D01*
G75*
G02*
X89899000Y-133898750I0J243750D01*
G01*
X89899000Y-133411250D01*
G75*
G02*
X90142750Y-133167500I243750J0D01*
G01*
X90705250Y-133167500D01*
G75*
G02*
X90949000Y-133411250I0J-243750D01*
G01*
X90949000Y-133898750D01*
G75*
G02*
X90705250Y-134142500I-243750J0D01*
G01*
G37*
G36*
G01*
X88165250Y-134142500D02*
X87602750Y-134142500D01*
G75*
G02*
X87359000Y-133898750I0J243750D01*
G01*
X87359000Y-133411250D01*
G75*
G02*
X87602750Y-133167500I243750J0D01*
G01*
X88165250Y-133167500D01*
G75*
G02*
X88409000Y-133411250I0J-243750D01*
G01*
X88409000Y-133898750D01*
G75*
G02*
X88165250Y-134142500I-243750J0D01*
G01*
G37*
G36*
G01*
X88165250Y-132567500D02*
X87602750Y-132567500D01*
G75*
G02*
X87359000Y-132323750I0J243750D01*
G01*
X87359000Y-131836250D01*
G75*
G02*
X87602750Y-131592500I243750J0D01*
G01*
X88165250Y-131592500D01*
G75*
G02*
X88409000Y-131836250I0J-243750D01*
G01*
X88409000Y-132323750D01*
G75*
G02*
X88165250Y-132567500I-243750J0D01*
G01*
G37*
G36*
G01*
X93245250Y-132567500D02*
X92682750Y-132567500D01*
G75*
G02*
X92439000Y-132323750I0J243750D01*
G01*
X92439000Y-131836250D01*
G75*
G02*
X92682750Y-131592500I243750J0D01*
G01*
X93245250Y-131592500D01*
G75*
G02*
X93489000Y-131836250I0J-243750D01*
G01*
X93489000Y-132323750D01*
G75*
G02*
X93245250Y-132567500I-243750J0D01*
G01*
G37*
G36*
G01*
X93245250Y-134142500D02*
X92682750Y-134142500D01*
G75*
G02*
X92439000Y-133898750I0J243750D01*
G01*
X92439000Y-133411250D01*
G75*
G02*
X92682750Y-133167500I243750J0D01*
G01*
X93245250Y-133167500D01*
G75*
G02*
X93489000Y-133411250I0J-243750D01*
G01*
X93489000Y-133898750D01*
G75*
G02*
X93245250Y-134142500I-243750J0D01*
G01*
G37*
G36*
G01*
X92682750Y-123464500D02*
X93245250Y-123464500D01*
G75*
G02*
X93489000Y-123708250I0J-243750D01*
G01*
X93489000Y-124195750D01*
G75*
G02*
X93245250Y-124439500I-243750J0D01*
G01*
X92682750Y-124439500D01*
G75*
G02*
X92439000Y-124195750I0J243750D01*
G01*
X92439000Y-123708250D01*
G75*
G02*
X92682750Y-123464500I243750J0D01*
G01*
G37*
G36*
G01*
X92682750Y-125039500D02*
X93245250Y-125039500D01*
G75*
G02*
X93489000Y-125283250I0J-243750D01*
G01*
X93489000Y-125770750D01*
G75*
G02*
X93245250Y-126014500I-243750J0D01*
G01*
X92682750Y-126014500D01*
G75*
G02*
X92439000Y-125770750I0J243750D01*
G01*
X92439000Y-125283250D01*
G75*
G02*
X92682750Y-125039500I243750J0D01*
G01*
G37*
G36*
G01*
X79318000Y-131394000D02*
X81718000Y-131394000D01*
G75*
G02*
X81768000Y-131444000I0J-50000D01*
G01*
X81768000Y-133844000D01*
G75*
G02*
X81718000Y-133894000I-50000J0D01*
G01*
X79318000Y-133894000D01*
G75*
G02*
X79268000Y-133844000I0J50000D01*
G01*
X79268000Y-131444000D01*
G75*
G02*
X79318000Y-131394000I50000J0D01*
G01*
G37*
D16*
X80518000Y-136144000D03*
D17*
X149147000Y-140716000D03*
X124157000Y-140716000D03*
D18*
X131822000Y-143256000D03*
X134112000Y-143256000D03*
X136402000Y-143256000D03*
X138692000Y-143256000D03*
X140982000Y-143256000D03*
X132967000Y-140716000D03*
X135257000Y-140716000D03*
X137547000Y-140716000D03*
X139837000Y-140716000D03*
X142127000Y-140716000D03*
X131822000Y-138176000D03*
X134112000Y-138176000D03*
X136402000Y-138176000D03*
X138692000Y-138176000D03*
G36*
G01*
X140039500Y-139068500D02*
X140039500Y-137283500D01*
G75*
G02*
X140089500Y-137233500I50000J0D01*
G01*
X141874500Y-137233500D01*
G75*
G02*
X141924500Y-137283500I0J-50000D01*
G01*
X141924500Y-139068500D01*
G75*
G02*
X141874500Y-139118500I-50000J0D01*
G01*
X140089500Y-139118500D01*
G75*
G02*
X140039500Y-139068500I0J50000D01*
G01*
G37*
D14*
X131572000Y-98552000D03*
X127072000Y-98552000D03*
X131572000Y-92052000D03*
X127072000Y-92052000D03*
G36*
G01*
X105100000Y-150066000D02*
X105100000Y-150416000D01*
G75*
G02*
X104925000Y-150591000I-175000J0D01*
G01*
X103225000Y-150591000D01*
G75*
G02*
X103050000Y-150416000I0J175000D01*
G01*
X103050000Y-150066000D01*
G75*
G02*
X103225000Y-149891000I175000J0D01*
G01*
X104925000Y-149891000D01*
G75*
G02*
X105100000Y-150066000I0J-175000D01*
G01*
G37*
G36*
G01*
X105100000Y-148796000D02*
X105100000Y-149146000D01*
G75*
G02*
X104925000Y-149321000I-175000J0D01*
G01*
X103225000Y-149321000D01*
G75*
G02*
X103050000Y-149146000I0J175000D01*
G01*
X103050000Y-148796000D01*
G75*
G02*
X103225000Y-148621000I175000J0D01*
G01*
X104925000Y-148621000D01*
G75*
G02*
X105100000Y-148796000I0J-175000D01*
G01*
G37*
G36*
G01*
X105100000Y-147526000D02*
X105100000Y-147876000D01*
G75*
G02*
X104925000Y-148051000I-175000J0D01*
G01*
X103225000Y-148051000D01*
G75*
G02*
X103050000Y-147876000I0J175000D01*
G01*
X103050000Y-147526000D01*
G75*
G02*
X103225000Y-147351000I175000J0D01*
G01*
X104925000Y-147351000D01*
G75*
G02*
X105100000Y-147526000I0J-175000D01*
G01*
G37*
G36*
G01*
X105100000Y-146256000D02*
X105100000Y-146606000D01*
G75*
G02*
X104925000Y-146781000I-175000J0D01*
G01*
X103225000Y-146781000D01*
G75*
G02*
X103050000Y-146606000I0J175000D01*
G01*
X103050000Y-146256000D01*
G75*
G02*
X103225000Y-146081000I175000J0D01*
G01*
X104925000Y-146081000D01*
G75*
G02*
X105100000Y-146256000I0J-175000D01*
G01*
G37*
G36*
G01*
X100150000Y-146256000D02*
X100150000Y-146606000D01*
G75*
G02*
X99975000Y-146781000I-175000J0D01*
G01*
X98275000Y-146781000D01*
G75*
G02*
X98100000Y-146606000I0J175000D01*
G01*
X98100000Y-146256000D01*
G75*
G02*
X98275000Y-146081000I175000J0D01*
G01*
X99975000Y-146081000D01*
G75*
G02*
X100150000Y-146256000I0J-175000D01*
G01*
G37*
G36*
G01*
X100150000Y-147526000D02*
X100150000Y-147876000D01*
G75*
G02*
X99975000Y-148051000I-175000J0D01*
G01*
X98275000Y-148051000D01*
G75*
G02*
X98100000Y-147876000I0J175000D01*
G01*
X98100000Y-147526000D01*
G75*
G02*
X98275000Y-147351000I175000J0D01*
G01*
X99975000Y-147351000D01*
G75*
G02*
X100150000Y-147526000I0J-175000D01*
G01*
G37*
G36*
G01*
X100150000Y-148796000D02*
X100150000Y-149146000D01*
G75*
G02*
X99975000Y-149321000I-175000J0D01*
G01*
X98275000Y-149321000D01*
G75*
G02*
X98100000Y-149146000I0J175000D01*
G01*
X98100000Y-148796000D01*
G75*
G02*
X98275000Y-148621000I175000J0D01*
G01*
X99975000Y-148621000D01*
G75*
G02*
X100150000Y-148796000I0J-175000D01*
G01*
G37*
G36*
G01*
X100150000Y-150066000D02*
X100150000Y-150416000D01*
G75*
G02*
X99975000Y-150591000I-175000J0D01*
G01*
X98275000Y-150591000D01*
G75*
G02*
X98100000Y-150416000I0J175000D01*
G01*
X98100000Y-150066000D01*
G75*
G02*
X98275000Y-149891000I175000J0D01*
G01*
X99975000Y-149891000D01*
G75*
G02*
X100150000Y-150066000I0J-175000D01*
G01*
G37*
M02*
