G04 #@! TF.GenerationSoftware,KiCad,Pcbnew,(5.1.9-0-10_14)*
G04 #@! TF.CreationDate,2021-04-14T19:06:18-04:00*
G04 #@! TF.ProjectId,delux pet on a chip,64656c75-7820-4706-9574-206f6e206120,rev?*
G04 #@! TF.SameCoordinates,Original*
G04 #@! TF.FileFunction,Copper,L3,Inr*
G04 #@! TF.FilePolarity,Positive*
%FSLAX46Y46*%
G04 Gerber Fmt 4.6, Leading zero omitted, Abs format (unit mm)*
G04 Created by KiCad (PCBNEW (5.1.9-0-10_14)) date 2021-04-14 19:06:18*
%MOMM*%
%LPD*%
G01*
G04 APERTURE LIST*
G04 #@! TA.AperFunction,ComponentPad*
%ADD10R,1.700000X1.700000*%
G04 #@! TD*
G04 #@! TA.AperFunction,ComponentPad*
%ADD11O,1.700000X1.700000*%
G04 #@! TD*
G04 #@! TA.AperFunction,ComponentPad*
%ADD12C,3.500000*%
G04 #@! TD*
G04 #@! TA.AperFunction,ComponentPad*
%ADD13C,1.700000*%
G04 #@! TD*
G04 #@! TA.AperFunction,ComponentPad*
%ADD14C,2.000000*%
G04 #@! TD*
G04 #@! TA.AperFunction,ComponentPad*
%ADD15R,2.400000X2.400000*%
G04 #@! TD*
G04 #@! TA.AperFunction,ComponentPad*
%ADD16C,2.400000*%
G04 #@! TD*
G04 #@! TA.AperFunction,ComponentPad*
%ADD17C,4.065999*%
G04 #@! TD*
G04 #@! TA.AperFunction,ComponentPad*
%ADD18C,1.785000*%
G04 #@! TD*
G04 #@! TA.AperFunction,ComponentPad*
%ADD19R,1.785000X1.785000*%
G04 #@! TD*
G04 #@! TA.AperFunction,ViaPad*
%ADD20C,0.508000*%
G04 #@! TD*
G04 #@! TA.AperFunction,ViaPad*
%ADD21C,1.143000*%
G04 #@! TD*
G04 #@! TA.AperFunction,ViaPad*
%ADD22C,0.762000*%
G04 #@! TD*
G04 #@! TA.AperFunction,Conductor*
%ADD23C,0.254000*%
G04 #@! TD*
G04 #@! TA.AperFunction,Conductor*
%ADD24C,0.100000*%
G04 #@! TD*
G04 APERTURE END LIST*
D10*
X151130000Y-125730000D03*
D11*
X148590000Y-125730000D03*
X151130000Y-123190000D03*
X148590000Y-123190000D03*
X151130000Y-120650000D03*
X148590000Y-120650000D03*
X151130000Y-118110000D03*
X148590000Y-118110000D03*
X151130000Y-115570000D03*
X148590000Y-115570000D03*
X151130000Y-113030000D03*
X148590000Y-113030000D03*
X151130000Y-110490000D03*
X148590000Y-110490000D03*
X151130000Y-107950000D03*
X148590000Y-107950000D03*
X151130000Y-105410000D03*
X148590000Y-105410000D03*
X151130000Y-102870000D03*
X148590000Y-102870000D03*
X151130000Y-100330000D03*
X148590000Y-100330000D03*
X151130000Y-97790000D03*
X148590000Y-97790000D03*
X151130000Y-95250000D03*
X148590000Y-95250000D03*
X151130000Y-92710000D03*
X148590000Y-92710000D03*
X151130000Y-90170000D03*
X148590000Y-90170000D03*
X77470000Y-90170000D03*
X80010000Y-90170000D03*
X77470000Y-92710000D03*
X80010000Y-92710000D03*
X77470000Y-95250000D03*
X80010000Y-95250000D03*
X77470000Y-97790000D03*
X80010000Y-97790000D03*
X77470000Y-100330000D03*
X80010000Y-100330000D03*
X77470000Y-102870000D03*
X80010000Y-102870000D03*
X77470000Y-105410000D03*
X80010000Y-105410000D03*
X77470000Y-107950000D03*
X80010000Y-107950000D03*
X77470000Y-110490000D03*
X80010000Y-110490000D03*
X77470000Y-113030000D03*
X80010000Y-113030000D03*
X77470000Y-115570000D03*
X80010000Y-115570000D03*
X77470000Y-118110000D03*
X80010000Y-118110000D03*
X77470000Y-120650000D03*
X80010000Y-120650000D03*
X77470000Y-123190000D03*
X80010000Y-123190000D03*
X77470000Y-125730000D03*
D10*
X80010000Y-125730000D03*
D12*
X80995000Y-147864400D03*
X93035000Y-147864400D03*
D13*
X88265000Y-145154400D03*
X85765000Y-145154400D03*
X85765000Y-143154400D03*
D10*
X88265000Y-143154400D03*
D14*
X123372000Y-98552000D03*
X118872000Y-98552000D03*
X123372000Y-92052000D03*
X118872000Y-92052000D03*
D15*
X80518000Y-132644000D03*
D16*
X80518000Y-136144000D03*
D17*
X149147000Y-140716000D03*
X124157000Y-140716000D03*
D18*
X131822000Y-143256000D03*
X134112000Y-143256000D03*
X136402000Y-143256000D03*
X138692000Y-143256000D03*
X140982000Y-143256000D03*
X132967000Y-140716000D03*
X135257000Y-140716000D03*
X137547000Y-140716000D03*
X139837000Y-140716000D03*
X142127000Y-140716000D03*
X131822000Y-138176000D03*
X134112000Y-138176000D03*
X136402000Y-138176000D03*
X138692000Y-138176000D03*
D19*
X140982000Y-138176000D03*
D14*
X131572000Y-98552000D03*
X127072000Y-98552000D03*
X131572000Y-92052000D03*
X127072000Y-92052000D03*
D20*
X107442000Y-126492000D03*
X106934000Y-140462000D03*
X117056500Y-146875000D03*
X106820000Y-133394000D03*
X116586000Y-137414000D03*
X122428000Y-124714000D03*
X108813600Y-113665000D03*
X109626400Y-112877600D03*
X108813600Y-112877600D03*
X109626400Y-113690400D03*
X101285683Y-113223683D03*
X98465192Y-106218559D03*
X94488000Y-133604000D03*
D21*
X97028000Y-90424000D03*
X103378000Y-93472000D03*
D20*
X97028000Y-146050000D03*
X117154317Y-112969683D03*
X108330000Y-121540000D03*
X111506000Y-128524000D03*
X105918000Y-132080000D03*
X109220000Y-140462000D03*
X105156000Y-139851914D03*
X112742000Y-149318000D03*
X118618000Y-135636000D03*
X123672500Y-124739500D03*
X113284000Y-135382000D03*
X118110000Y-143002000D03*
X113792000Y-118110000D03*
D22*
X99314000Y-104140000D03*
D20*
X91694000Y-123952000D03*
X108026848Y-114477152D03*
X108026848Y-112090848D03*
X110413152Y-112090848D03*
X110413152Y-114477152D03*
X97282000Y-113284000D03*
D21*
X99314000Y-93759000D03*
X103378000Y-91948000D03*
D20*
X115062000Y-104902000D03*
X121182212Y-113342327D03*
X112020001Y-111297817D03*
X108204000Y-105918000D03*
X94996000Y-120396000D03*
X107213400Y-106680000D03*
X113284000Y-137160000D03*
X113284000Y-136398000D03*
X116586000Y-136144000D03*
X116586000Y-131318000D03*
X110490000Y-140462000D03*
X103886000Y-142240000D03*
X113538000Y-133350000D03*
X113284000Y-128778000D03*
X113284000Y-125222000D03*
X122428000Y-122682000D03*
X112522000Y-124460000D03*
X112522000Y-121158000D03*
X115570000Y-121158000D03*
X111206184Y-116884000D03*
X109982000Y-128524000D03*
X109982000Y-124460000D03*
X97282000Y-137922000D03*
X108458000Y-140462000D03*
X97282000Y-138684000D03*
X107696000Y-140462000D03*
X116586000Y-126492000D03*
X119761010Y-123316990D03*
X105156000Y-119126000D03*
X102616000Y-121666000D03*
X102108000Y-122174000D03*
X105156000Y-118490987D03*
X111233817Y-116084000D03*
X112020000Y-115297817D03*
X112020000Y-112097816D03*
X140970000Y-125730000D03*
X112020001Y-112897817D03*
X138684000Y-125730000D03*
X112020001Y-113697816D03*
X136398000Y-125730000D03*
D21*
X97014000Y-100330000D03*
D20*
X93472000Y-98552000D03*
X101853999Y-105917999D03*
X102363310Y-107213510D03*
X93472000Y-97282000D03*
X110433816Y-110484000D03*
X110744000Y-106934000D03*
X111233816Y-110483999D03*
X111506000Y-106426000D03*
X118364000Y-117856000D03*
X127762000Y-117856000D03*
X133858000Y-98552000D03*
X128016000Y-141478000D03*
X110744000Y-143256000D03*
X126365000Y-131572000D03*
D23*
X96090850Y-89654901D02*
X95958813Y-89852508D01*
X95867865Y-90072077D01*
X95821500Y-90305170D01*
X95821500Y-90542830D01*
X95867865Y-90775923D01*
X95958813Y-90995492D01*
X96090850Y-91193099D01*
X96258901Y-91361150D01*
X96456508Y-91493187D01*
X96676077Y-91584135D01*
X96909170Y-91630500D01*
X97146830Y-91630500D01*
X97379923Y-91584135D01*
X97599492Y-91493187D01*
X97797099Y-91361150D01*
X97965150Y-91193099D01*
X98097187Y-90995492D01*
X98188135Y-90775923D01*
X98234500Y-90542830D01*
X98234500Y-90305170D01*
X98188135Y-90072077D01*
X98097187Y-89852508D01*
X97965150Y-89654901D01*
X97870249Y-89560000D01*
X147235318Y-89560000D01*
X147162068Y-89736842D01*
X147105000Y-90023740D01*
X147105000Y-90316260D01*
X147162068Y-90603158D01*
X147274010Y-90873411D01*
X147436525Y-91116632D01*
X147643368Y-91323475D01*
X147817760Y-91440000D01*
X147643368Y-91556525D01*
X147436525Y-91763368D01*
X147274010Y-92006589D01*
X147162068Y-92276842D01*
X147105000Y-92563740D01*
X147105000Y-92856260D01*
X147162068Y-93143158D01*
X147274010Y-93413411D01*
X147436525Y-93656632D01*
X147643368Y-93863475D01*
X147817760Y-93980000D01*
X147643368Y-94096525D01*
X147436525Y-94303368D01*
X147274010Y-94546589D01*
X147162068Y-94816842D01*
X147105000Y-95103740D01*
X147105000Y-95396260D01*
X147162068Y-95683158D01*
X147274010Y-95953411D01*
X147436525Y-96196632D01*
X147643368Y-96403475D01*
X147817760Y-96520000D01*
X147643368Y-96636525D01*
X147436525Y-96843368D01*
X147274010Y-97086589D01*
X147162068Y-97356842D01*
X147105000Y-97643740D01*
X147105000Y-97936260D01*
X147162068Y-98223158D01*
X147274010Y-98493411D01*
X147436525Y-98736632D01*
X147643368Y-98943475D01*
X147817760Y-99060000D01*
X147643368Y-99176525D01*
X147436525Y-99383368D01*
X147274010Y-99626589D01*
X147162068Y-99896842D01*
X147105000Y-100183740D01*
X147105000Y-100476260D01*
X147162068Y-100763158D01*
X147274010Y-101033411D01*
X147436525Y-101276632D01*
X147643368Y-101483475D01*
X147817760Y-101600000D01*
X147643368Y-101716525D01*
X147436525Y-101923368D01*
X147274010Y-102166589D01*
X147162068Y-102436842D01*
X147105000Y-102723740D01*
X147105000Y-103016260D01*
X147162068Y-103303158D01*
X147274010Y-103573411D01*
X147436525Y-103816632D01*
X147643368Y-104023475D01*
X147817760Y-104140000D01*
X147643368Y-104256525D01*
X147436525Y-104463368D01*
X147274010Y-104706589D01*
X147162068Y-104976842D01*
X147105000Y-105263740D01*
X147105000Y-105556260D01*
X147162068Y-105843158D01*
X147274010Y-106113411D01*
X147436525Y-106356632D01*
X147643368Y-106563475D01*
X147817760Y-106680000D01*
X147643368Y-106796525D01*
X147436525Y-107003368D01*
X147274010Y-107246589D01*
X147162068Y-107516842D01*
X147105000Y-107803740D01*
X147105000Y-108096260D01*
X147162068Y-108383158D01*
X147274010Y-108653411D01*
X147436525Y-108896632D01*
X147643368Y-109103475D01*
X147817760Y-109220000D01*
X147643368Y-109336525D01*
X147436525Y-109543368D01*
X147274010Y-109786589D01*
X147162068Y-110056842D01*
X147105000Y-110343740D01*
X147105000Y-110636260D01*
X147162068Y-110923158D01*
X147274010Y-111193411D01*
X147436525Y-111436632D01*
X147643368Y-111643475D01*
X147817760Y-111760000D01*
X147643368Y-111876525D01*
X147436525Y-112083368D01*
X147274010Y-112326589D01*
X147162068Y-112596842D01*
X147105000Y-112883740D01*
X147105000Y-113176260D01*
X147162068Y-113463158D01*
X147274010Y-113733411D01*
X147436525Y-113976632D01*
X147643368Y-114183475D01*
X147817760Y-114300000D01*
X147643368Y-114416525D01*
X147436525Y-114623368D01*
X147274010Y-114866589D01*
X147162068Y-115136842D01*
X147105000Y-115423740D01*
X147105000Y-115716260D01*
X147162068Y-116003158D01*
X147274010Y-116273411D01*
X147436525Y-116516632D01*
X147643368Y-116723475D01*
X147817760Y-116840000D01*
X147643368Y-116956525D01*
X147436525Y-117163368D01*
X147274010Y-117406589D01*
X147162068Y-117676842D01*
X147105000Y-117963740D01*
X147105000Y-118256260D01*
X147162068Y-118543158D01*
X147274010Y-118813411D01*
X147436525Y-119056632D01*
X147643368Y-119263475D01*
X147817760Y-119380000D01*
X147643368Y-119496525D01*
X147436525Y-119703368D01*
X147274010Y-119946589D01*
X147162068Y-120216842D01*
X147105000Y-120503740D01*
X147105000Y-120796260D01*
X147162068Y-121083158D01*
X147274010Y-121353411D01*
X147436525Y-121596632D01*
X147643368Y-121803475D01*
X147825534Y-121925195D01*
X147708645Y-121994822D01*
X147492412Y-122189731D01*
X147318359Y-122423080D01*
X147193175Y-122685901D01*
X147148524Y-122833110D01*
X147269845Y-123063000D01*
X148463000Y-123063000D01*
X148463000Y-123043000D01*
X148717000Y-123043000D01*
X148717000Y-123063000D01*
X151003000Y-123063000D01*
X151003000Y-123043000D01*
X151257000Y-123043000D01*
X151257000Y-123063000D01*
X151277000Y-123063000D01*
X151277000Y-123317000D01*
X151257000Y-123317000D01*
X151257000Y-123337000D01*
X151003000Y-123337000D01*
X151003000Y-123317000D01*
X148717000Y-123317000D01*
X148717000Y-123337000D01*
X148463000Y-123337000D01*
X148463000Y-123317000D01*
X147269845Y-123317000D01*
X147148524Y-123546890D01*
X147193175Y-123694099D01*
X147318359Y-123956920D01*
X147492412Y-124190269D01*
X147708645Y-124385178D01*
X147825534Y-124454805D01*
X147643368Y-124576525D01*
X147436525Y-124783368D01*
X147274010Y-125026589D01*
X147162068Y-125296842D01*
X147105000Y-125583740D01*
X147105000Y-125876260D01*
X147162068Y-126163158D01*
X147274010Y-126433411D01*
X147436525Y-126676632D01*
X147643368Y-126883475D01*
X147886589Y-127045990D01*
X148156842Y-127157932D01*
X148443740Y-127215000D01*
X148736260Y-127215000D01*
X149023158Y-127157932D01*
X149293411Y-127045990D01*
X149536632Y-126883475D01*
X149668487Y-126751620D01*
X149690498Y-126824180D01*
X149749463Y-126934494D01*
X149828815Y-127031185D01*
X149925506Y-127110537D01*
X150035820Y-127169502D01*
X150155518Y-127205812D01*
X150280000Y-127218072D01*
X151740000Y-127218072D01*
X151740000Y-140076181D01*
X151712469Y-139937773D01*
X151511350Y-139452229D01*
X151219370Y-139015250D01*
X150847750Y-138643630D01*
X150410771Y-138351650D01*
X149925227Y-138150531D01*
X149409775Y-138048001D01*
X148884225Y-138048001D01*
X148368773Y-138150531D01*
X147883229Y-138351650D01*
X147446250Y-138643630D01*
X147074630Y-139015250D01*
X146782650Y-139452229D01*
X146581531Y-139937773D01*
X146479001Y-140453225D01*
X146479001Y-140978775D01*
X146581531Y-141494227D01*
X146782650Y-141979771D01*
X147074630Y-142416750D01*
X147446250Y-142788370D01*
X147883229Y-143080350D01*
X148368773Y-143281469D01*
X148884225Y-143383999D01*
X149409775Y-143383999D01*
X149925227Y-143281469D01*
X150410771Y-143080350D01*
X150847750Y-142788370D01*
X151219370Y-142416750D01*
X151511350Y-141979771D01*
X151712469Y-141494227D01*
X151740000Y-141355819D01*
X151740000Y-151740000D01*
X76860000Y-151740000D01*
X76860000Y-147629498D01*
X78610000Y-147629498D01*
X78610000Y-148099302D01*
X78701654Y-148560079D01*
X78881440Y-148994121D01*
X79142450Y-149384749D01*
X79474651Y-149716950D01*
X79865279Y-149977960D01*
X80299321Y-150157746D01*
X80760098Y-150249400D01*
X81229902Y-150249400D01*
X81690679Y-150157746D01*
X82124721Y-149977960D01*
X82515349Y-149716950D01*
X82847550Y-149384749D01*
X83108560Y-148994121D01*
X83288346Y-148560079D01*
X83380000Y-148099302D01*
X83380000Y-147629498D01*
X90650000Y-147629498D01*
X90650000Y-148099302D01*
X90741654Y-148560079D01*
X90921440Y-148994121D01*
X91182450Y-149384749D01*
X91514651Y-149716950D01*
X91905279Y-149977960D01*
X92339321Y-150157746D01*
X92800098Y-150249400D01*
X93269902Y-150249400D01*
X93730679Y-150157746D01*
X94164721Y-149977960D01*
X94555349Y-149716950D01*
X94887550Y-149384749D01*
X95148560Y-148994121D01*
X95328346Y-148560079D01*
X95420000Y-148099302D01*
X95420000Y-147629498D01*
X95328346Y-147168721D01*
X95148560Y-146734679D01*
X94887550Y-146344051D01*
X94555349Y-146011850D01*
X94481404Y-145962441D01*
X96139000Y-145962441D01*
X96139000Y-146137559D01*
X96173164Y-146309312D01*
X96240179Y-146471099D01*
X96337469Y-146616704D01*
X96461296Y-146740531D01*
X96606901Y-146837821D01*
X96768688Y-146904836D01*
X96940441Y-146939000D01*
X97115559Y-146939000D01*
X97287312Y-146904836D01*
X97449099Y-146837821D01*
X97524498Y-146787441D01*
X116167500Y-146787441D01*
X116167500Y-146962559D01*
X116201664Y-147134312D01*
X116268679Y-147296099D01*
X116365969Y-147441704D01*
X116489796Y-147565531D01*
X116635401Y-147662821D01*
X116797188Y-147729836D01*
X116968941Y-147764000D01*
X117144059Y-147764000D01*
X117315812Y-147729836D01*
X117477599Y-147662821D01*
X117623204Y-147565531D01*
X117747031Y-147441704D01*
X117844321Y-147296099D01*
X117911336Y-147134312D01*
X117945500Y-146962559D01*
X117945500Y-146787441D01*
X117911336Y-146615688D01*
X117844321Y-146453901D01*
X117747031Y-146308296D01*
X117623204Y-146184469D01*
X117477599Y-146087179D01*
X117315812Y-146020164D01*
X117144059Y-145986000D01*
X116968941Y-145986000D01*
X116797188Y-146020164D01*
X116635401Y-146087179D01*
X116489796Y-146184469D01*
X116365969Y-146308296D01*
X116268679Y-146453901D01*
X116201664Y-146615688D01*
X116167500Y-146787441D01*
X97524498Y-146787441D01*
X97594704Y-146740531D01*
X97718531Y-146616704D01*
X97815821Y-146471099D01*
X97882836Y-146309312D01*
X97917000Y-146137559D01*
X97917000Y-145962441D01*
X97882836Y-145790688D01*
X97815821Y-145628901D01*
X97718531Y-145483296D01*
X97594704Y-145359469D01*
X97449099Y-145262179D01*
X97287312Y-145195164D01*
X97115559Y-145161000D01*
X96940441Y-145161000D01*
X96768688Y-145195164D01*
X96606901Y-145262179D01*
X96461296Y-145359469D01*
X96337469Y-145483296D01*
X96240179Y-145628901D01*
X96173164Y-145790688D01*
X96139000Y-145962441D01*
X94481404Y-145962441D01*
X94164721Y-145750840D01*
X93730679Y-145571054D01*
X93269902Y-145479400D01*
X92800098Y-145479400D01*
X92339321Y-145571054D01*
X91905279Y-145750840D01*
X91514651Y-146011850D01*
X91182450Y-146344051D01*
X90921440Y-146734679D01*
X90741654Y-147168721D01*
X90650000Y-147629498D01*
X83380000Y-147629498D01*
X83288346Y-147168721D01*
X83108560Y-146734679D01*
X82847550Y-146344051D01*
X82515349Y-146011850D01*
X82124721Y-145750840D01*
X81690679Y-145571054D01*
X81229902Y-145479400D01*
X80760098Y-145479400D01*
X80299321Y-145571054D01*
X79865279Y-145750840D01*
X79474651Y-146011850D01*
X79142450Y-146344051D01*
X78881440Y-146734679D01*
X78701654Y-147168721D01*
X78610000Y-147629498D01*
X76860000Y-147629498D01*
X76860000Y-143008140D01*
X84280000Y-143008140D01*
X84280000Y-143300660D01*
X84337068Y-143587558D01*
X84449010Y-143857811D01*
X84611525Y-144101032D01*
X84664893Y-144154400D01*
X84611525Y-144207768D01*
X84449010Y-144450989D01*
X84337068Y-144721242D01*
X84280000Y-145008140D01*
X84280000Y-145300660D01*
X84337068Y-145587558D01*
X84449010Y-145857811D01*
X84611525Y-146101032D01*
X84818368Y-146307875D01*
X85061589Y-146470390D01*
X85331842Y-146582332D01*
X85618740Y-146639400D01*
X85911260Y-146639400D01*
X86198158Y-146582332D01*
X86468411Y-146470390D01*
X86711632Y-146307875D01*
X86918475Y-146101032D01*
X87015000Y-145956572D01*
X87111525Y-146101032D01*
X87318368Y-146307875D01*
X87561589Y-146470390D01*
X87831842Y-146582332D01*
X88118740Y-146639400D01*
X88411260Y-146639400D01*
X88698158Y-146582332D01*
X88968411Y-146470390D01*
X89211632Y-146307875D01*
X89418475Y-146101032D01*
X89580990Y-145857811D01*
X89692932Y-145587558D01*
X89750000Y-145300660D01*
X89750000Y-145008140D01*
X89692932Y-144721242D01*
X89580990Y-144450989D01*
X89576038Y-144443578D01*
X89645537Y-144358894D01*
X89704502Y-144248580D01*
X89740812Y-144128882D01*
X89753072Y-144004400D01*
X89753072Y-143168441D01*
X109855000Y-143168441D01*
X109855000Y-143343559D01*
X109889164Y-143515312D01*
X109956179Y-143677099D01*
X110053469Y-143822704D01*
X110177296Y-143946531D01*
X110322901Y-144043821D01*
X110484688Y-144110836D01*
X110656441Y-144145000D01*
X110831559Y-144145000D01*
X111003312Y-144110836D01*
X111165099Y-144043821D01*
X111310704Y-143946531D01*
X111434531Y-143822704D01*
X111531821Y-143677099D01*
X111598836Y-143515312D01*
X111633000Y-143343559D01*
X111633000Y-143168441D01*
X111598836Y-142996688D01*
X111531821Y-142834901D01*
X111434531Y-142689296D01*
X111310704Y-142565469D01*
X111165099Y-142468179D01*
X111003312Y-142401164D01*
X110831559Y-142367000D01*
X110656441Y-142367000D01*
X110484688Y-142401164D01*
X110322901Y-142468179D01*
X110177296Y-142565469D01*
X110053469Y-142689296D01*
X109956179Y-142834901D01*
X109889164Y-142996688D01*
X109855000Y-143168441D01*
X89753072Y-143168441D01*
X89753072Y-142304400D01*
X89740812Y-142179918D01*
X89732477Y-142152441D01*
X102997000Y-142152441D01*
X102997000Y-142327559D01*
X103031164Y-142499312D01*
X103098179Y-142661099D01*
X103195469Y-142806704D01*
X103319296Y-142930531D01*
X103464901Y-143027821D01*
X103626688Y-143094836D01*
X103798441Y-143129000D01*
X103973559Y-143129000D01*
X104145312Y-143094836D01*
X104307099Y-143027821D01*
X104452704Y-142930531D01*
X104576531Y-142806704D01*
X104673821Y-142661099D01*
X104740836Y-142499312D01*
X104775000Y-142327559D01*
X104775000Y-142152441D01*
X104740836Y-141980688D01*
X104673821Y-141818901D01*
X104576531Y-141673296D01*
X104452704Y-141549469D01*
X104307099Y-141452179D01*
X104145312Y-141385164D01*
X103973559Y-141351000D01*
X103798441Y-141351000D01*
X103626688Y-141385164D01*
X103464901Y-141452179D01*
X103319296Y-141549469D01*
X103195469Y-141673296D01*
X103098179Y-141818901D01*
X103031164Y-141980688D01*
X102997000Y-142152441D01*
X89732477Y-142152441D01*
X89704502Y-142060220D01*
X89645537Y-141949906D01*
X89566185Y-141853215D01*
X89469494Y-141773863D01*
X89359180Y-141714898D01*
X89239482Y-141678588D01*
X89115000Y-141666328D01*
X87415000Y-141666328D01*
X87290518Y-141678588D01*
X87170820Y-141714898D01*
X87060506Y-141773863D01*
X86963815Y-141853215D01*
X86884463Y-141949906D01*
X86825498Y-142060220D01*
X86812797Y-142102090D01*
X86711632Y-142000925D01*
X86468411Y-141838410D01*
X86198158Y-141726468D01*
X85911260Y-141669400D01*
X85618740Y-141669400D01*
X85331842Y-141726468D01*
X85061589Y-141838410D01*
X84818368Y-142000925D01*
X84611525Y-142207768D01*
X84449010Y-142450989D01*
X84337068Y-142721242D01*
X84280000Y-143008140D01*
X76860000Y-143008140D01*
X76860000Y-140374441D01*
X106045000Y-140374441D01*
X106045000Y-140549559D01*
X106079164Y-140721312D01*
X106146179Y-140883099D01*
X106243469Y-141028704D01*
X106367296Y-141152531D01*
X106512901Y-141249821D01*
X106674688Y-141316836D01*
X106846441Y-141351000D01*
X107021559Y-141351000D01*
X107193312Y-141316836D01*
X107315000Y-141266431D01*
X107436688Y-141316836D01*
X107608441Y-141351000D01*
X107783559Y-141351000D01*
X107955312Y-141316836D01*
X108077000Y-141266431D01*
X108198688Y-141316836D01*
X108370441Y-141351000D01*
X108545559Y-141351000D01*
X108717312Y-141316836D01*
X108879099Y-141249821D01*
X109024704Y-141152531D01*
X109148531Y-141028704D01*
X109245821Y-140883099D01*
X109312836Y-140721312D01*
X109347000Y-140549559D01*
X109347000Y-140374441D01*
X109601000Y-140374441D01*
X109601000Y-140549559D01*
X109635164Y-140721312D01*
X109702179Y-140883099D01*
X109799469Y-141028704D01*
X109923296Y-141152531D01*
X110068901Y-141249821D01*
X110230688Y-141316836D01*
X110402441Y-141351000D01*
X110577559Y-141351000D01*
X110749312Y-141316836D01*
X110911099Y-141249821D01*
X111056704Y-141152531D01*
X111180531Y-141028704D01*
X111277821Y-140883099D01*
X111344836Y-140721312D01*
X111379000Y-140549559D01*
X111379000Y-140453225D01*
X121489001Y-140453225D01*
X121489001Y-140978775D01*
X121591531Y-141494227D01*
X121792650Y-141979771D01*
X122084630Y-142416750D01*
X122456250Y-142788370D01*
X122893229Y-143080350D01*
X123378773Y-143281469D01*
X123894225Y-143383999D01*
X124419775Y-143383999D01*
X124935227Y-143281469D01*
X125420771Y-143080350D01*
X125857750Y-142788370D01*
X126229370Y-142416750D01*
X126521350Y-141979771D01*
X126722469Y-141494227D01*
X126743113Y-141390441D01*
X127127000Y-141390441D01*
X127127000Y-141565559D01*
X127161164Y-141737312D01*
X127228179Y-141899099D01*
X127325469Y-142044704D01*
X127449296Y-142168531D01*
X127594901Y-142265821D01*
X127756688Y-142332836D01*
X127928441Y-142367000D01*
X128103559Y-142367000D01*
X128275312Y-142332836D01*
X128437099Y-142265821D01*
X128582704Y-142168531D01*
X128706531Y-142044704D01*
X128803821Y-141899099D01*
X128870836Y-141737312D01*
X128905000Y-141565559D01*
X128905000Y-141390441D01*
X128870836Y-141218688D01*
X128803821Y-141056901D01*
X128706531Y-140911296D01*
X128582704Y-140787469D01*
X128437099Y-140690179D01*
X128275312Y-140623164D01*
X128103559Y-140589000D01*
X127928441Y-140589000D01*
X127756688Y-140623164D01*
X127594901Y-140690179D01*
X127449296Y-140787469D01*
X127325469Y-140911296D01*
X127228179Y-141056901D01*
X127161164Y-141218688D01*
X127127000Y-141390441D01*
X126743113Y-141390441D01*
X126824999Y-140978775D01*
X126824999Y-140453225D01*
X126722469Y-139937773D01*
X126521350Y-139452229D01*
X126229370Y-139015250D01*
X125857750Y-138643630D01*
X125420771Y-138351650D01*
X124935227Y-138150531D01*
X124419775Y-138048001D01*
X123894225Y-138048001D01*
X123378773Y-138150531D01*
X122893229Y-138351650D01*
X122456250Y-138643630D01*
X122084630Y-139015250D01*
X121792650Y-139452229D01*
X121591531Y-139937773D01*
X121489001Y-140453225D01*
X111379000Y-140453225D01*
X111379000Y-140374441D01*
X111344836Y-140202688D01*
X111277821Y-140040901D01*
X111180531Y-139895296D01*
X111056704Y-139771469D01*
X110911099Y-139674179D01*
X110749312Y-139607164D01*
X110577559Y-139573000D01*
X110402441Y-139573000D01*
X110230688Y-139607164D01*
X110068901Y-139674179D01*
X109923296Y-139771469D01*
X109799469Y-139895296D01*
X109702179Y-140040901D01*
X109635164Y-140202688D01*
X109601000Y-140374441D01*
X109347000Y-140374441D01*
X109312836Y-140202688D01*
X109245821Y-140040901D01*
X109148531Y-139895296D01*
X109024704Y-139771469D01*
X108879099Y-139674179D01*
X108717312Y-139607164D01*
X108545559Y-139573000D01*
X108370441Y-139573000D01*
X108198688Y-139607164D01*
X108077000Y-139657569D01*
X107955312Y-139607164D01*
X107783559Y-139573000D01*
X107608441Y-139573000D01*
X107436688Y-139607164D01*
X107315000Y-139657569D01*
X107193312Y-139607164D01*
X107021559Y-139573000D01*
X106846441Y-139573000D01*
X106674688Y-139607164D01*
X106512901Y-139674179D01*
X106367296Y-139771469D01*
X106243469Y-139895296D01*
X106146179Y-140040901D01*
X106079164Y-140202688D01*
X106045000Y-140374441D01*
X76860000Y-140374441D01*
X76860000Y-131444000D01*
X78679928Y-131444000D01*
X78679928Y-133844000D01*
X78692188Y-133968482D01*
X78728498Y-134088180D01*
X78787463Y-134198494D01*
X78866815Y-134295185D01*
X78963506Y-134374537D01*
X79073820Y-134433502D01*
X79193518Y-134469812D01*
X79318000Y-134482072D01*
X79735162Y-134482072D01*
X79648801Y-134517844D01*
X79348256Y-134718662D01*
X79092662Y-134974256D01*
X78891844Y-135274801D01*
X78753518Y-135608750D01*
X78683000Y-135963268D01*
X78683000Y-136324732D01*
X78753518Y-136679250D01*
X78891844Y-137013199D01*
X79092662Y-137313744D01*
X79348256Y-137569338D01*
X79648801Y-137770156D01*
X79982750Y-137908482D01*
X80337268Y-137979000D01*
X80698732Y-137979000D01*
X81053250Y-137908482D01*
X81232001Y-137834441D01*
X96393000Y-137834441D01*
X96393000Y-138009559D01*
X96427164Y-138181312D01*
X96477569Y-138303000D01*
X96427164Y-138424688D01*
X96393000Y-138596441D01*
X96393000Y-138771559D01*
X96427164Y-138943312D01*
X96494179Y-139105099D01*
X96591469Y-139250704D01*
X96715296Y-139374531D01*
X96860901Y-139471821D01*
X97022688Y-139538836D01*
X97194441Y-139573000D01*
X97369559Y-139573000D01*
X97541312Y-139538836D01*
X97703099Y-139471821D01*
X97848704Y-139374531D01*
X97972531Y-139250704D01*
X98069821Y-139105099D01*
X98136836Y-138943312D01*
X98171000Y-138771559D01*
X98171000Y-138596441D01*
X98136836Y-138424688D01*
X98086431Y-138303000D01*
X98136836Y-138181312D01*
X98171000Y-138009559D01*
X98171000Y-137834441D01*
X98136836Y-137662688D01*
X98069821Y-137500901D01*
X97972531Y-137355296D01*
X97848704Y-137231469D01*
X97703099Y-137134179D01*
X97541312Y-137067164D01*
X97369559Y-137033000D01*
X97194441Y-137033000D01*
X97022688Y-137067164D01*
X96860901Y-137134179D01*
X96715296Y-137231469D01*
X96591469Y-137355296D01*
X96494179Y-137500901D01*
X96427164Y-137662688D01*
X96393000Y-137834441D01*
X81232001Y-137834441D01*
X81387199Y-137770156D01*
X81687744Y-137569338D01*
X81943338Y-137313744D01*
X82144156Y-137013199D01*
X82282482Y-136679250D01*
X82353000Y-136324732D01*
X82353000Y-136310441D01*
X112395000Y-136310441D01*
X112395000Y-136485559D01*
X112429164Y-136657312D01*
X112479569Y-136779000D01*
X112429164Y-136900688D01*
X112395000Y-137072441D01*
X112395000Y-137247559D01*
X112429164Y-137419312D01*
X112496179Y-137581099D01*
X112593469Y-137726704D01*
X112717296Y-137850531D01*
X112862901Y-137947821D01*
X113024688Y-138014836D01*
X113196441Y-138049000D01*
X113371559Y-138049000D01*
X113543312Y-138014836D01*
X113705099Y-137947821D01*
X113850704Y-137850531D01*
X113974531Y-137726704D01*
X114071821Y-137581099D01*
X114138836Y-137419312D01*
X114173000Y-137247559D01*
X114173000Y-137072441D01*
X114138836Y-136900688D01*
X114088431Y-136779000D01*
X114138836Y-136657312D01*
X114173000Y-136485559D01*
X114173000Y-136310441D01*
X114138836Y-136138688D01*
X114104768Y-136056441D01*
X115697000Y-136056441D01*
X115697000Y-136231559D01*
X115731164Y-136403312D01*
X115798179Y-136565099D01*
X115895469Y-136710704D01*
X115963765Y-136779000D01*
X115895469Y-136847296D01*
X115798179Y-136992901D01*
X115731164Y-137154688D01*
X115697000Y-137326441D01*
X115697000Y-137501559D01*
X115731164Y-137673312D01*
X115798179Y-137835099D01*
X115895469Y-137980704D01*
X116019296Y-138104531D01*
X116164901Y-138201821D01*
X116326688Y-138268836D01*
X116498441Y-138303000D01*
X116673559Y-138303000D01*
X116845312Y-138268836D01*
X117007099Y-138201821D01*
X117152704Y-138104531D01*
X117231681Y-138025554D01*
X130294500Y-138025554D01*
X130294500Y-138326446D01*
X130353201Y-138621555D01*
X130468347Y-138899543D01*
X130635513Y-139149725D01*
X130848275Y-139362487D01*
X131098457Y-139529653D01*
X131376445Y-139644799D01*
X131671554Y-139703500D01*
X131819288Y-139703500D01*
X131780513Y-139742275D01*
X131613347Y-139992457D01*
X131498201Y-140270445D01*
X131439500Y-140565554D01*
X131439500Y-140866446D01*
X131498201Y-141161555D01*
X131613347Y-141439543D01*
X131780513Y-141689725D01*
X131819288Y-141728500D01*
X131671554Y-141728500D01*
X131376445Y-141787201D01*
X131098457Y-141902347D01*
X130848275Y-142069513D01*
X130635513Y-142282275D01*
X130468347Y-142532457D01*
X130353201Y-142810445D01*
X130294500Y-143105554D01*
X130294500Y-143406446D01*
X130353201Y-143701555D01*
X130468347Y-143979543D01*
X130635513Y-144229725D01*
X130848275Y-144442487D01*
X131098457Y-144609653D01*
X131376445Y-144724799D01*
X131671554Y-144783500D01*
X131972446Y-144783500D01*
X132267555Y-144724799D01*
X132545543Y-144609653D01*
X132795725Y-144442487D01*
X132967000Y-144271212D01*
X133138275Y-144442487D01*
X133388457Y-144609653D01*
X133666445Y-144724799D01*
X133961554Y-144783500D01*
X134262446Y-144783500D01*
X134557555Y-144724799D01*
X134835543Y-144609653D01*
X135085725Y-144442487D01*
X135257000Y-144271212D01*
X135428275Y-144442487D01*
X135678457Y-144609653D01*
X135956445Y-144724799D01*
X136251554Y-144783500D01*
X136552446Y-144783500D01*
X136847555Y-144724799D01*
X137125543Y-144609653D01*
X137375725Y-144442487D01*
X137547000Y-144271212D01*
X137718275Y-144442487D01*
X137968457Y-144609653D01*
X138246445Y-144724799D01*
X138541554Y-144783500D01*
X138842446Y-144783500D01*
X139137555Y-144724799D01*
X139415543Y-144609653D01*
X139665725Y-144442487D01*
X139837000Y-144271212D01*
X140008275Y-144442487D01*
X140258457Y-144609653D01*
X140536445Y-144724799D01*
X140831554Y-144783500D01*
X141132446Y-144783500D01*
X141427555Y-144724799D01*
X141705543Y-144609653D01*
X141955725Y-144442487D01*
X142168487Y-144229725D01*
X142335653Y-143979543D01*
X142450799Y-143701555D01*
X142509500Y-143406446D01*
X142509500Y-143105554D01*
X142450799Y-142810445D01*
X142335653Y-142532457D01*
X142168487Y-142282275D01*
X142129712Y-142243500D01*
X142277446Y-142243500D01*
X142572555Y-142184799D01*
X142850543Y-142069653D01*
X143100725Y-141902487D01*
X143313487Y-141689725D01*
X143480653Y-141439543D01*
X143595799Y-141161555D01*
X143654500Y-140866446D01*
X143654500Y-140565554D01*
X143595799Y-140270445D01*
X143480653Y-139992457D01*
X143313487Y-139742275D01*
X143100725Y-139529513D01*
X142850543Y-139362347D01*
X142572555Y-139247201D01*
X142488912Y-139230563D01*
X142500312Y-139192982D01*
X142512572Y-139068500D01*
X142512572Y-137283500D01*
X142500312Y-137159018D01*
X142464002Y-137039320D01*
X142405037Y-136929006D01*
X142325685Y-136832315D01*
X142228994Y-136752963D01*
X142118680Y-136693998D01*
X141998982Y-136657688D01*
X141874500Y-136645428D01*
X140089500Y-136645428D01*
X139965018Y-136657688D01*
X139845320Y-136693998D01*
X139735006Y-136752963D01*
X139638315Y-136832315D01*
X139564703Y-136922012D01*
X139415543Y-136822347D01*
X139137555Y-136707201D01*
X138842446Y-136648500D01*
X138541554Y-136648500D01*
X138246445Y-136707201D01*
X137968457Y-136822347D01*
X137718275Y-136989513D01*
X137547000Y-137160788D01*
X137375725Y-136989513D01*
X137125543Y-136822347D01*
X136847555Y-136707201D01*
X136552446Y-136648500D01*
X136251554Y-136648500D01*
X135956445Y-136707201D01*
X135678457Y-136822347D01*
X135428275Y-136989513D01*
X135257000Y-137160788D01*
X135085725Y-136989513D01*
X134835543Y-136822347D01*
X134557555Y-136707201D01*
X134262446Y-136648500D01*
X133961554Y-136648500D01*
X133666445Y-136707201D01*
X133388457Y-136822347D01*
X133138275Y-136989513D01*
X132967000Y-137160788D01*
X132795725Y-136989513D01*
X132545543Y-136822347D01*
X132267555Y-136707201D01*
X131972446Y-136648500D01*
X131671554Y-136648500D01*
X131376445Y-136707201D01*
X131098457Y-136822347D01*
X130848275Y-136989513D01*
X130635513Y-137202275D01*
X130468347Y-137452457D01*
X130353201Y-137730445D01*
X130294500Y-138025554D01*
X117231681Y-138025554D01*
X117276531Y-137980704D01*
X117373821Y-137835099D01*
X117440836Y-137673312D01*
X117475000Y-137501559D01*
X117475000Y-137326441D01*
X117440836Y-137154688D01*
X117373821Y-136992901D01*
X117276531Y-136847296D01*
X117208235Y-136779000D01*
X117276531Y-136710704D01*
X117373821Y-136565099D01*
X117440836Y-136403312D01*
X117475000Y-136231559D01*
X117475000Y-136056441D01*
X117440836Y-135884688D01*
X117373821Y-135722901D01*
X117276531Y-135577296D01*
X117152704Y-135453469D01*
X117007099Y-135356179D01*
X116845312Y-135289164D01*
X116673559Y-135255000D01*
X116498441Y-135255000D01*
X116326688Y-135289164D01*
X116164901Y-135356179D01*
X116019296Y-135453469D01*
X115895469Y-135577296D01*
X115798179Y-135722901D01*
X115731164Y-135884688D01*
X115697000Y-136056441D01*
X114104768Y-136056441D01*
X114071821Y-135976901D01*
X113974531Y-135831296D01*
X113850704Y-135707469D01*
X113705099Y-135610179D01*
X113543312Y-135543164D01*
X113371559Y-135509000D01*
X113196441Y-135509000D01*
X113024688Y-135543164D01*
X112862901Y-135610179D01*
X112717296Y-135707469D01*
X112593469Y-135831296D01*
X112496179Y-135976901D01*
X112429164Y-136138688D01*
X112395000Y-136310441D01*
X82353000Y-136310441D01*
X82353000Y-135963268D01*
X82282482Y-135608750D01*
X82144156Y-135274801D01*
X81943338Y-134974256D01*
X81687744Y-134718662D01*
X81387199Y-134517844D01*
X81300838Y-134482072D01*
X81718000Y-134482072D01*
X81842482Y-134469812D01*
X81962180Y-134433502D01*
X82072494Y-134374537D01*
X82169185Y-134295185D01*
X82248537Y-134198494D01*
X82307502Y-134088180D01*
X82343812Y-133968482D01*
X82356072Y-133844000D01*
X82356072Y-133516441D01*
X93599000Y-133516441D01*
X93599000Y-133691559D01*
X93633164Y-133863312D01*
X93700179Y-134025099D01*
X93797469Y-134170704D01*
X93921296Y-134294531D01*
X94066901Y-134391821D01*
X94228688Y-134458836D01*
X94400441Y-134493000D01*
X94575559Y-134493000D01*
X94747312Y-134458836D01*
X94909099Y-134391821D01*
X95054704Y-134294531D01*
X95178531Y-134170704D01*
X95275821Y-134025099D01*
X95342836Y-133863312D01*
X95377000Y-133691559D01*
X95377000Y-133516441D01*
X95342836Y-133344688D01*
X95326994Y-133306441D01*
X105931000Y-133306441D01*
X105931000Y-133481559D01*
X105965164Y-133653312D01*
X106032179Y-133815099D01*
X106129469Y-133960704D01*
X106253296Y-134084531D01*
X106398901Y-134181821D01*
X106560688Y-134248836D01*
X106732441Y-134283000D01*
X106907559Y-134283000D01*
X107079312Y-134248836D01*
X107241099Y-134181821D01*
X107386704Y-134084531D01*
X107510531Y-133960704D01*
X107607821Y-133815099D01*
X107674836Y-133653312D01*
X107709000Y-133481559D01*
X107709000Y-133306441D01*
X107700248Y-133262441D01*
X112649000Y-133262441D01*
X112649000Y-133437559D01*
X112683164Y-133609312D01*
X112750179Y-133771099D01*
X112847469Y-133916704D01*
X112971296Y-134040531D01*
X113116901Y-134137821D01*
X113278688Y-134204836D01*
X113450441Y-134239000D01*
X113625559Y-134239000D01*
X113797312Y-134204836D01*
X113959099Y-134137821D01*
X114104704Y-134040531D01*
X114228531Y-133916704D01*
X114325821Y-133771099D01*
X114392836Y-133609312D01*
X114427000Y-133437559D01*
X114427000Y-133262441D01*
X114392836Y-133090688D01*
X114325821Y-132928901D01*
X114228531Y-132783296D01*
X114104704Y-132659469D01*
X113959099Y-132562179D01*
X113797312Y-132495164D01*
X113625559Y-132461000D01*
X113450441Y-132461000D01*
X113278688Y-132495164D01*
X113116901Y-132562179D01*
X112971296Y-132659469D01*
X112847469Y-132783296D01*
X112750179Y-132928901D01*
X112683164Y-133090688D01*
X112649000Y-133262441D01*
X107700248Y-133262441D01*
X107674836Y-133134688D01*
X107607821Y-132972901D01*
X107510531Y-132827296D01*
X107386704Y-132703469D01*
X107241099Y-132606179D01*
X107079312Y-132539164D01*
X106907559Y-132505000D01*
X106732441Y-132505000D01*
X106560688Y-132539164D01*
X106398901Y-132606179D01*
X106253296Y-132703469D01*
X106129469Y-132827296D01*
X106032179Y-132972901D01*
X105965164Y-133134688D01*
X105931000Y-133306441D01*
X95326994Y-133306441D01*
X95275821Y-133182901D01*
X95178531Y-133037296D01*
X95054704Y-132913469D01*
X94909099Y-132816179D01*
X94747312Y-132749164D01*
X94575559Y-132715000D01*
X94400441Y-132715000D01*
X94228688Y-132749164D01*
X94066901Y-132816179D01*
X93921296Y-132913469D01*
X93797469Y-133037296D01*
X93700179Y-133182901D01*
X93633164Y-133344688D01*
X93599000Y-133516441D01*
X82356072Y-133516441D01*
X82356072Y-131444000D01*
X82343812Y-131319518D01*
X82316791Y-131230441D01*
X115697000Y-131230441D01*
X115697000Y-131405559D01*
X115731164Y-131577312D01*
X115798179Y-131739099D01*
X115895469Y-131884704D01*
X116019296Y-132008531D01*
X116164901Y-132105821D01*
X116326688Y-132172836D01*
X116498441Y-132207000D01*
X116673559Y-132207000D01*
X116845312Y-132172836D01*
X117007099Y-132105821D01*
X117152704Y-132008531D01*
X117276531Y-131884704D01*
X117373821Y-131739099D01*
X117440836Y-131577312D01*
X117459309Y-131484441D01*
X125476000Y-131484441D01*
X125476000Y-131659559D01*
X125510164Y-131831312D01*
X125577179Y-131993099D01*
X125674469Y-132138704D01*
X125798296Y-132262531D01*
X125943901Y-132359821D01*
X126105688Y-132426836D01*
X126277441Y-132461000D01*
X126452559Y-132461000D01*
X126624312Y-132426836D01*
X126786099Y-132359821D01*
X126931704Y-132262531D01*
X127055531Y-132138704D01*
X127152821Y-131993099D01*
X127219836Y-131831312D01*
X127254000Y-131659559D01*
X127254000Y-131484441D01*
X127219836Y-131312688D01*
X127152821Y-131150901D01*
X127055531Y-131005296D01*
X126931704Y-130881469D01*
X126786099Y-130784179D01*
X126624312Y-130717164D01*
X126452559Y-130683000D01*
X126277441Y-130683000D01*
X126105688Y-130717164D01*
X125943901Y-130784179D01*
X125798296Y-130881469D01*
X125674469Y-131005296D01*
X125577179Y-131150901D01*
X125510164Y-131312688D01*
X125476000Y-131484441D01*
X117459309Y-131484441D01*
X117475000Y-131405559D01*
X117475000Y-131230441D01*
X117440836Y-131058688D01*
X117373821Y-130896901D01*
X117276531Y-130751296D01*
X117152704Y-130627469D01*
X117007099Y-130530179D01*
X116845312Y-130463164D01*
X116673559Y-130429000D01*
X116498441Y-130429000D01*
X116326688Y-130463164D01*
X116164901Y-130530179D01*
X116019296Y-130627469D01*
X115895469Y-130751296D01*
X115798179Y-130896901D01*
X115731164Y-131058688D01*
X115697000Y-131230441D01*
X82316791Y-131230441D01*
X82307502Y-131199820D01*
X82248537Y-131089506D01*
X82169185Y-130992815D01*
X82072494Y-130913463D01*
X81962180Y-130854498D01*
X81842482Y-130818188D01*
X81718000Y-130805928D01*
X79318000Y-130805928D01*
X79193518Y-130818188D01*
X79073820Y-130854498D01*
X78963506Y-130913463D01*
X78866815Y-130992815D01*
X78787463Y-131089506D01*
X78728498Y-131199820D01*
X78692188Y-131319518D01*
X78679928Y-131444000D01*
X76860000Y-131444000D01*
X76860000Y-128436441D01*
X109093000Y-128436441D01*
X109093000Y-128611559D01*
X109127164Y-128783312D01*
X109194179Y-128945099D01*
X109291469Y-129090704D01*
X109415296Y-129214531D01*
X109560901Y-129311821D01*
X109722688Y-129378836D01*
X109894441Y-129413000D01*
X110069559Y-129413000D01*
X110241312Y-129378836D01*
X110403099Y-129311821D01*
X110548704Y-129214531D01*
X110672531Y-129090704D01*
X110769821Y-128945099D01*
X110836836Y-128783312D01*
X110855309Y-128690441D01*
X112395000Y-128690441D01*
X112395000Y-128865559D01*
X112429164Y-129037312D01*
X112496179Y-129199099D01*
X112593469Y-129344704D01*
X112717296Y-129468531D01*
X112862901Y-129565821D01*
X113024688Y-129632836D01*
X113196441Y-129667000D01*
X113371559Y-129667000D01*
X113543312Y-129632836D01*
X113705099Y-129565821D01*
X113850704Y-129468531D01*
X113974531Y-129344704D01*
X114071821Y-129199099D01*
X114138836Y-129037312D01*
X114173000Y-128865559D01*
X114173000Y-128690441D01*
X114138836Y-128518688D01*
X114071821Y-128356901D01*
X113974531Y-128211296D01*
X113850704Y-128087469D01*
X113705099Y-127990179D01*
X113543312Y-127923164D01*
X113371559Y-127889000D01*
X113196441Y-127889000D01*
X113024688Y-127923164D01*
X112862901Y-127990179D01*
X112717296Y-128087469D01*
X112593469Y-128211296D01*
X112496179Y-128356901D01*
X112429164Y-128518688D01*
X112395000Y-128690441D01*
X110855309Y-128690441D01*
X110871000Y-128611559D01*
X110871000Y-128436441D01*
X110836836Y-128264688D01*
X110769821Y-128102901D01*
X110672531Y-127957296D01*
X110548704Y-127833469D01*
X110403099Y-127736179D01*
X110241312Y-127669164D01*
X110069559Y-127635000D01*
X109894441Y-127635000D01*
X109722688Y-127669164D01*
X109560901Y-127736179D01*
X109415296Y-127833469D01*
X109291469Y-127957296D01*
X109194179Y-128102901D01*
X109127164Y-128264688D01*
X109093000Y-128436441D01*
X76860000Y-128436441D01*
X76860000Y-127084682D01*
X77036842Y-127157932D01*
X77323740Y-127215000D01*
X77616260Y-127215000D01*
X77903158Y-127157932D01*
X78173411Y-127045990D01*
X78416632Y-126883475D01*
X78548487Y-126751620D01*
X78570498Y-126824180D01*
X78629463Y-126934494D01*
X78708815Y-127031185D01*
X78805506Y-127110537D01*
X78915820Y-127169502D01*
X79035518Y-127205812D01*
X79160000Y-127218072D01*
X80860000Y-127218072D01*
X80984482Y-127205812D01*
X81104180Y-127169502D01*
X81214494Y-127110537D01*
X81311185Y-127031185D01*
X81390537Y-126934494D01*
X81449502Y-126824180D01*
X81485812Y-126704482D01*
X81498072Y-126580000D01*
X81498072Y-126404441D01*
X106553000Y-126404441D01*
X106553000Y-126579559D01*
X106587164Y-126751312D01*
X106654179Y-126913099D01*
X106751469Y-127058704D01*
X106875296Y-127182531D01*
X107020901Y-127279821D01*
X107182688Y-127346836D01*
X107354441Y-127381000D01*
X107529559Y-127381000D01*
X107701312Y-127346836D01*
X107863099Y-127279821D01*
X108008704Y-127182531D01*
X108132531Y-127058704D01*
X108229821Y-126913099D01*
X108296836Y-126751312D01*
X108331000Y-126579559D01*
X108331000Y-126404441D01*
X115697000Y-126404441D01*
X115697000Y-126579559D01*
X115731164Y-126751312D01*
X115798179Y-126913099D01*
X115895469Y-127058704D01*
X116019296Y-127182531D01*
X116164901Y-127279821D01*
X116326688Y-127346836D01*
X116498441Y-127381000D01*
X116673559Y-127381000D01*
X116845312Y-127346836D01*
X117007099Y-127279821D01*
X117152704Y-127182531D01*
X117276531Y-127058704D01*
X117373821Y-126913099D01*
X117440836Y-126751312D01*
X117475000Y-126579559D01*
X117475000Y-126404441D01*
X117440836Y-126232688D01*
X117373821Y-126070901D01*
X117276531Y-125925296D01*
X117152704Y-125801469D01*
X117007099Y-125704179D01*
X116858052Y-125642441D01*
X135509000Y-125642441D01*
X135509000Y-125817559D01*
X135543164Y-125989312D01*
X135610179Y-126151099D01*
X135707469Y-126296704D01*
X135831296Y-126420531D01*
X135976901Y-126517821D01*
X136138688Y-126584836D01*
X136310441Y-126619000D01*
X136485559Y-126619000D01*
X136657312Y-126584836D01*
X136819099Y-126517821D01*
X136964704Y-126420531D01*
X137088531Y-126296704D01*
X137185821Y-126151099D01*
X137252836Y-125989312D01*
X137287000Y-125817559D01*
X137287000Y-125642441D01*
X137795000Y-125642441D01*
X137795000Y-125817559D01*
X137829164Y-125989312D01*
X137896179Y-126151099D01*
X137993469Y-126296704D01*
X138117296Y-126420531D01*
X138262901Y-126517821D01*
X138424688Y-126584836D01*
X138596441Y-126619000D01*
X138771559Y-126619000D01*
X138943312Y-126584836D01*
X139105099Y-126517821D01*
X139250704Y-126420531D01*
X139374531Y-126296704D01*
X139471821Y-126151099D01*
X139538836Y-125989312D01*
X139573000Y-125817559D01*
X139573000Y-125642441D01*
X140081000Y-125642441D01*
X140081000Y-125817559D01*
X140115164Y-125989312D01*
X140182179Y-126151099D01*
X140279469Y-126296704D01*
X140403296Y-126420531D01*
X140548901Y-126517821D01*
X140710688Y-126584836D01*
X140882441Y-126619000D01*
X141057559Y-126619000D01*
X141229312Y-126584836D01*
X141391099Y-126517821D01*
X141536704Y-126420531D01*
X141660531Y-126296704D01*
X141757821Y-126151099D01*
X141824836Y-125989312D01*
X141859000Y-125817559D01*
X141859000Y-125642441D01*
X141824836Y-125470688D01*
X141757821Y-125308901D01*
X141660531Y-125163296D01*
X141536704Y-125039469D01*
X141391099Y-124942179D01*
X141229312Y-124875164D01*
X141057559Y-124841000D01*
X140882441Y-124841000D01*
X140710688Y-124875164D01*
X140548901Y-124942179D01*
X140403296Y-125039469D01*
X140279469Y-125163296D01*
X140182179Y-125308901D01*
X140115164Y-125470688D01*
X140081000Y-125642441D01*
X139573000Y-125642441D01*
X139538836Y-125470688D01*
X139471821Y-125308901D01*
X139374531Y-125163296D01*
X139250704Y-125039469D01*
X139105099Y-124942179D01*
X138943312Y-124875164D01*
X138771559Y-124841000D01*
X138596441Y-124841000D01*
X138424688Y-124875164D01*
X138262901Y-124942179D01*
X138117296Y-125039469D01*
X137993469Y-125163296D01*
X137896179Y-125308901D01*
X137829164Y-125470688D01*
X137795000Y-125642441D01*
X137287000Y-125642441D01*
X137252836Y-125470688D01*
X137185821Y-125308901D01*
X137088531Y-125163296D01*
X136964704Y-125039469D01*
X136819099Y-124942179D01*
X136657312Y-124875164D01*
X136485559Y-124841000D01*
X136310441Y-124841000D01*
X136138688Y-124875164D01*
X135976901Y-124942179D01*
X135831296Y-125039469D01*
X135707469Y-125163296D01*
X135610179Y-125308901D01*
X135543164Y-125470688D01*
X135509000Y-125642441D01*
X116858052Y-125642441D01*
X116845312Y-125637164D01*
X116673559Y-125603000D01*
X116498441Y-125603000D01*
X116326688Y-125637164D01*
X116164901Y-125704179D01*
X116019296Y-125801469D01*
X115895469Y-125925296D01*
X115798179Y-126070901D01*
X115731164Y-126232688D01*
X115697000Y-126404441D01*
X108331000Y-126404441D01*
X108296836Y-126232688D01*
X108229821Y-126070901D01*
X108132531Y-125925296D01*
X108008704Y-125801469D01*
X107863099Y-125704179D01*
X107701312Y-125637164D01*
X107529559Y-125603000D01*
X107354441Y-125603000D01*
X107182688Y-125637164D01*
X107020901Y-125704179D01*
X106875296Y-125801469D01*
X106751469Y-125925296D01*
X106654179Y-126070901D01*
X106587164Y-126232688D01*
X106553000Y-126404441D01*
X81498072Y-126404441D01*
X81498072Y-124880000D01*
X81485812Y-124755518D01*
X81449502Y-124635820D01*
X81390537Y-124525506D01*
X81311185Y-124428815D01*
X81242493Y-124372441D01*
X109093000Y-124372441D01*
X109093000Y-124547559D01*
X109127164Y-124719312D01*
X109194179Y-124881099D01*
X109291469Y-125026704D01*
X109415296Y-125150531D01*
X109560901Y-125247821D01*
X109722688Y-125314836D01*
X109894441Y-125349000D01*
X110069559Y-125349000D01*
X110241312Y-125314836D01*
X110403099Y-125247821D01*
X110548704Y-125150531D01*
X110672531Y-125026704D01*
X110769821Y-124881099D01*
X110836836Y-124719312D01*
X110871000Y-124547559D01*
X110871000Y-124372441D01*
X111633000Y-124372441D01*
X111633000Y-124547559D01*
X111667164Y-124719312D01*
X111734179Y-124881099D01*
X111831469Y-125026704D01*
X111955296Y-125150531D01*
X112100901Y-125247821D01*
X112262688Y-125314836D01*
X112401544Y-125342456D01*
X112429164Y-125481312D01*
X112496179Y-125643099D01*
X112593469Y-125788704D01*
X112717296Y-125912531D01*
X112862901Y-126009821D01*
X113024688Y-126076836D01*
X113196441Y-126111000D01*
X113371559Y-126111000D01*
X113543312Y-126076836D01*
X113705099Y-126009821D01*
X113850704Y-125912531D01*
X113974531Y-125788704D01*
X114071821Y-125643099D01*
X114138836Y-125481312D01*
X114173000Y-125309559D01*
X114173000Y-125134441D01*
X114138836Y-124962688D01*
X114071821Y-124800901D01*
X113974531Y-124655296D01*
X113945676Y-124626441D01*
X121539000Y-124626441D01*
X121539000Y-124801559D01*
X121573164Y-124973312D01*
X121640179Y-125135099D01*
X121737469Y-125280704D01*
X121861296Y-125404531D01*
X122006901Y-125501821D01*
X122168688Y-125568836D01*
X122340441Y-125603000D01*
X122515559Y-125603000D01*
X122687312Y-125568836D01*
X122849099Y-125501821D01*
X122994704Y-125404531D01*
X123118531Y-125280704D01*
X123215821Y-125135099D01*
X123282836Y-124973312D01*
X123317000Y-124801559D01*
X123317000Y-124626441D01*
X123282836Y-124454688D01*
X123215821Y-124292901D01*
X123118531Y-124147296D01*
X122994704Y-124023469D01*
X122849099Y-123926179D01*
X122687312Y-123859164D01*
X122515559Y-123825000D01*
X122340441Y-123825000D01*
X122168688Y-123859164D01*
X122006901Y-123926179D01*
X121861296Y-124023469D01*
X121737469Y-124147296D01*
X121640179Y-124292901D01*
X121573164Y-124454688D01*
X121539000Y-124626441D01*
X113945676Y-124626441D01*
X113850704Y-124531469D01*
X113705099Y-124434179D01*
X113543312Y-124367164D01*
X113404456Y-124339544D01*
X113376836Y-124200688D01*
X113309821Y-124038901D01*
X113212531Y-123893296D01*
X113088704Y-123769469D01*
X112943099Y-123672179D01*
X112781312Y-123605164D01*
X112609559Y-123571000D01*
X112434441Y-123571000D01*
X112262688Y-123605164D01*
X112100901Y-123672179D01*
X111955296Y-123769469D01*
X111831469Y-123893296D01*
X111734179Y-124038901D01*
X111667164Y-124200688D01*
X111633000Y-124372441D01*
X110871000Y-124372441D01*
X110836836Y-124200688D01*
X110769821Y-124038901D01*
X110672531Y-123893296D01*
X110548704Y-123769469D01*
X110403099Y-123672179D01*
X110241312Y-123605164D01*
X110069559Y-123571000D01*
X109894441Y-123571000D01*
X109722688Y-123605164D01*
X109560901Y-123672179D01*
X109415296Y-123769469D01*
X109291469Y-123893296D01*
X109194179Y-124038901D01*
X109127164Y-124200688D01*
X109093000Y-124372441D01*
X81242493Y-124372441D01*
X81214494Y-124349463D01*
X81104180Y-124290498D01*
X81023534Y-124266034D01*
X81107588Y-124190269D01*
X81281641Y-123956920D01*
X81406825Y-123694099D01*
X81451476Y-123546890D01*
X81330155Y-123317000D01*
X80137000Y-123317000D01*
X80137000Y-123337000D01*
X79883000Y-123337000D01*
X79883000Y-123317000D01*
X77597000Y-123317000D01*
X77597000Y-123337000D01*
X77343000Y-123337000D01*
X77343000Y-123317000D01*
X77323000Y-123317000D01*
X77323000Y-123229431D01*
X118872010Y-123229431D01*
X118872010Y-123404549D01*
X118906174Y-123576302D01*
X118973189Y-123738089D01*
X119070479Y-123883694D01*
X119194306Y-124007521D01*
X119339911Y-124104811D01*
X119501698Y-124171826D01*
X119673451Y-124205990D01*
X119848569Y-124205990D01*
X120020322Y-124171826D01*
X120182109Y-124104811D01*
X120327714Y-124007521D01*
X120451541Y-123883694D01*
X120548831Y-123738089D01*
X120615846Y-123576302D01*
X120650010Y-123404549D01*
X120650010Y-123229431D01*
X120615846Y-123057678D01*
X120548831Y-122895891D01*
X120451541Y-122750286D01*
X120327714Y-122626459D01*
X120279796Y-122594441D01*
X121539000Y-122594441D01*
X121539000Y-122769559D01*
X121573164Y-122941312D01*
X121640179Y-123103099D01*
X121737469Y-123248704D01*
X121861296Y-123372531D01*
X122006901Y-123469821D01*
X122168688Y-123536836D01*
X122340441Y-123571000D01*
X122515559Y-123571000D01*
X122687312Y-123536836D01*
X122849099Y-123469821D01*
X122994704Y-123372531D01*
X123118531Y-123248704D01*
X123215821Y-123103099D01*
X123282836Y-122941312D01*
X123317000Y-122769559D01*
X123317000Y-122594441D01*
X123282836Y-122422688D01*
X123215821Y-122260901D01*
X123118531Y-122115296D01*
X122994704Y-121991469D01*
X122849099Y-121894179D01*
X122687312Y-121827164D01*
X122515559Y-121793000D01*
X122340441Y-121793000D01*
X122168688Y-121827164D01*
X122006901Y-121894179D01*
X121861296Y-121991469D01*
X121737469Y-122115296D01*
X121640179Y-122260901D01*
X121573164Y-122422688D01*
X121539000Y-122594441D01*
X120279796Y-122594441D01*
X120182109Y-122529169D01*
X120020322Y-122462154D01*
X119848569Y-122427990D01*
X119673451Y-122427990D01*
X119501698Y-122462154D01*
X119339911Y-122529169D01*
X119194306Y-122626459D01*
X119070479Y-122750286D01*
X118973189Y-122895891D01*
X118906174Y-123057678D01*
X118872010Y-123229431D01*
X77323000Y-123229431D01*
X77323000Y-123063000D01*
X77343000Y-123063000D01*
X77343000Y-123043000D01*
X77597000Y-123043000D01*
X77597000Y-123063000D01*
X79883000Y-123063000D01*
X79883000Y-123043000D01*
X80137000Y-123043000D01*
X80137000Y-123063000D01*
X81330155Y-123063000D01*
X81451476Y-122833110D01*
X81406825Y-122685901D01*
X81281641Y-122423080D01*
X81107588Y-122189731D01*
X80992998Y-122086441D01*
X101219000Y-122086441D01*
X101219000Y-122261559D01*
X101253164Y-122433312D01*
X101320179Y-122595099D01*
X101417469Y-122740704D01*
X101541296Y-122864531D01*
X101686901Y-122961821D01*
X101848688Y-123028836D01*
X102020441Y-123063000D01*
X102195559Y-123063000D01*
X102367312Y-123028836D01*
X102529099Y-122961821D01*
X102674704Y-122864531D01*
X102798531Y-122740704D01*
X102895821Y-122595099D01*
X102937201Y-122495201D01*
X103037099Y-122453821D01*
X103182704Y-122356531D01*
X103306531Y-122232704D01*
X103403821Y-122087099D01*
X103470836Y-121925312D01*
X103505000Y-121753559D01*
X103505000Y-121578441D01*
X103479937Y-121452441D01*
X107441000Y-121452441D01*
X107441000Y-121627559D01*
X107475164Y-121799312D01*
X107542179Y-121961099D01*
X107639469Y-122106704D01*
X107763296Y-122230531D01*
X107908901Y-122327821D01*
X108070688Y-122394836D01*
X108242441Y-122429000D01*
X108417559Y-122429000D01*
X108589312Y-122394836D01*
X108751099Y-122327821D01*
X108896704Y-122230531D01*
X109020531Y-122106704D01*
X109117821Y-121961099D01*
X109184836Y-121799312D01*
X109219000Y-121627559D01*
X109219000Y-121452441D01*
X109184836Y-121280688D01*
X109117821Y-121118901D01*
X109085442Y-121070441D01*
X111633000Y-121070441D01*
X111633000Y-121245559D01*
X111667164Y-121417312D01*
X111734179Y-121579099D01*
X111831469Y-121724704D01*
X111955296Y-121848531D01*
X112100901Y-121945821D01*
X112262688Y-122012836D01*
X112434441Y-122047000D01*
X112609559Y-122047000D01*
X112781312Y-122012836D01*
X112943099Y-121945821D01*
X113088704Y-121848531D01*
X113212531Y-121724704D01*
X113309821Y-121579099D01*
X113376836Y-121417312D01*
X113411000Y-121245559D01*
X113411000Y-121070441D01*
X114681000Y-121070441D01*
X114681000Y-121245559D01*
X114715164Y-121417312D01*
X114782179Y-121579099D01*
X114879469Y-121724704D01*
X115003296Y-121848531D01*
X115148901Y-121945821D01*
X115310688Y-122012836D01*
X115482441Y-122047000D01*
X115657559Y-122047000D01*
X115829312Y-122012836D01*
X115991099Y-121945821D01*
X116136704Y-121848531D01*
X116260531Y-121724704D01*
X116357821Y-121579099D01*
X116424836Y-121417312D01*
X116459000Y-121245559D01*
X116459000Y-121070441D01*
X116424836Y-120898688D01*
X116357821Y-120736901D01*
X116260531Y-120591296D01*
X116136704Y-120467469D01*
X115991099Y-120370179D01*
X115829312Y-120303164D01*
X115657559Y-120269000D01*
X115482441Y-120269000D01*
X115310688Y-120303164D01*
X115148901Y-120370179D01*
X115003296Y-120467469D01*
X114879469Y-120591296D01*
X114782179Y-120736901D01*
X114715164Y-120898688D01*
X114681000Y-121070441D01*
X113411000Y-121070441D01*
X113376836Y-120898688D01*
X113309821Y-120736901D01*
X113212531Y-120591296D01*
X113088704Y-120467469D01*
X112943099Y-120370179D01*
X112781312Y-120303164D01*
X112609559Y-120269000D01*
X112434441Y-120269000D01*
X112262688Y-120303164D01*
X112100901Y-120370179D01*
X111955296Y-120467469D01*
X111831469Y-120591296D01*
X111734179Y-120736901D01*
X111667164Y-120898688D01*
X111633000Y-121070441D01*
X109085442Y-121070441D01*
X109020531Y-120973296D01*
X108896704Y-120849469D01*
X108751099Y-120752179D01*
X108589312Y-120685164D01*
X108417559Y-120651000D01*
X108242441Y-120651000D01*
X108070688Y-120685164D01*
X107908901Y-120752179D01*
X107763296Y-120849469D01*
X107639469Y-120973296D01*
X107542179Y-121118901D01*
X107475164Y-121280688D01*
X107441000Y-121452441D01*
X103479937Y-121452441D01*
X103470836Y-121406688D01*
X103403821Y-121244901D01*
X103306531Y-121099296D01*
X103182704Y-120975469D01*
X103037099Y-120878179D01*
X102875312Y-120811164D01*
X102703559Y-120777000D01*
X102528441Y-120777000D01*
X102356688Y-120811164D01*
X102194901Y-120878179D01*
X102049296Y-120975469D01*
X101925469Y-121099296D01*
X101828179Y-121244901D01*
X101786799Y-121344799D01*
X101686901Y-121386179D01*
X101541296Y-121483469D01*
X101417469Y-121607296D01*
X101320179Y-121752901D01*
X101253164Y-121914688D01*
X101219000Y-122086441D01*
X80992998Y-122086441D01*
X80891355Y-121994822D01*
X80774466Y-121925195D01*
X80956632Y-121803475D01*
X81163475Y-121596632D01*
X81325990Y-121353411D01*
X81437932Y-121083158D01*
X81495000Y-120796260D01*
X81495000Y-120503740D01*
X81456153Y-120308441D01*
X94107000Y-120308441D01*
X94107000Y-120483559D01*
X94141164Y-120655312D01*
X94208179Y-120817099D01*
X94305469Y-120962704D01*
X94429296Y-121086531D01*
X94574901Y-121183821D01*
X94736688Y-121250836D01*
X94908441Y-121285000D01*
X95083559Y-121285000D01*
X95255312Y-121250836D01*
X95417099Y-121183821D01*
X95562704Y-121086531D01*
X95686531Y-120962704D01*
X95783821Y-120817099D01*
X95850836Y-120655312D01*
X95885000Y-120483559D01*
X95885000Y-120308441D01*
X95850836Y-120136688D01*
X95783821Y-119974901D01*
X95686531Y-119829296D01*
X95562704Y-119705469D01*
X95417099Y-119608179D01*
X95255312Y-119541164D01*
X95083559Y-119507000D01*
X94908441Y-119507000D01*
X94736688Y-119541164D01*
X94574901Y-119608179D01*
X94429296Y-119705469D01*
X94305469Y-119829296D01*
X94208179Y-119974901D01*
X94141164Y-120136688D01*
X94107000Y-120308441D01*
X81456153Y-120308441D01*
X81437932Y-120216842D01*
X81325990Y-119946589D01*
X81163475Y-119703368D01*
X80956632Y-119496525D01*
X80782240Y-119380000D01*
X80956632Y-119263475D01*
X81163475Y-119056632D01*
X81325990Y-118813411D01*
X81437932Y-118543158D01*
X81465726Y-118403428D01*
X104267000Y-118403428D01*
X104267000Y-118578546D01*
X104301164Y-118750299D01*
X104325269Y-118808494D01*
X104301164Y-118866688D01*
X104267000Y-119038441D01*
X104267000Y-119213559D01*
X104301164Y-119385312D01*
X104368179Y-119547099D01*
X104465469Y-119692704D01*
X104589296Y-119816531D01*
X104734901Y-119913821D01*
X104896688Y-119980836D01*
X105068441Y-120015000D01*
X105243559Y-120015000D01*
X105415312Y-119980836D01*
X105577099Y-119913821D01*
X105722704Y-119816531D01*
X105846531Y-119692704D01*
X105943821Y-119547099D01*
X106010836Y-119385312D01*
X106045000Y-119213559D01*
X106045000Y-119038441D01*
X106010836Y-118866688D01*
X105986731Y-118808494D01*
X106010836Y-118750299D01*
X106045000Y-118578546D01*
X106045000Y-118403428D01*
X106010836Y-118231675D01*
X105943821Y-118069888D01*
X105846531Y-117924283D01*
X105722704Y-117800456D01*
X105577099Y-117703166D01*
X105415312Y-117636151D01*
X105243559Y-117601987D01*
X105068441Y-117601987D01*
X104896688Y-117636151D01*
X104734901Y-117703166D01*
X104589296Y-117800456D01*
X104465469Y-117924283D01*
X104368179Y-118069888D01*
X104301164Y-118231675D01*
X104267000Y-118403428D01*
X81465726Y-118403428D01*
X81495000Y-118256260D01*
X81495000Y-117963740D01*
X81437932Y-117676842D01*
X81325990Y-117406589D01*
X81163475Y-117163368D01*
X80956632Y-116956525D01*
X80782240Y-116840000D01*
X80847430Y-116796441D01*
X110317184Y-116796441D01*
X110317184Y-116971559D01*
X110351348Y-117143312D01*
X110418363Y-117305099D01*
X110515653Y-117450704D01*
X110639480Y-117574531D01*
X110785085Y-117671821D01*
X110946872Y-117738836D01*
X111118625Y-117773000D01*
X111293743Y-117773000D01*
X111316662Y-117768441D01*
X117475000Y-117768441D01*
X117475000Y-117943559D01*
X117509164Y-118115312D01*
X117576179Y-118277099D01*
X117673469Y-118422704D01*
X117797296Y-118546531D01*
X117942901Y-118643821D01*
X118104688Y-118710836D01*
X118276441Y-118745000D01*
X118451559Y-118745000D01*
X118623312Y-118710836D01*
X118785099Y-118643821D01*
X118930704Y-118546531D01*
X119054531Y-118422704D01*
X119151821Y-118277099D01*
X119218836Y-118115312D01*
X119253000Y-117943559D01*
X119253000Y-117768441D01*
X126873000Y-117768441D01*
X126873000Y-117943559D01*
X126907164Y-118115312D01*
X126974179Y-118277099D01*
X127071469Y-118422704D01*
X127195296Y-118546531D01*
X127340901Y-118643821D01*
X127502688Y-118710836D01*
X127674441Y-118745000D01*
X127849559Y-118745000D01*
X128021312Y-118710836D01*
X128183099Y-118643821D01*
X128328704Y-118546531D01*
X128452531Y-118422704D01*
X128549821Y-118277099D01*
X128616836Y-118115312D01*
X128651000Y-117943559D01*
X128651000Y-117768441D01*
X128616836Y-117596688D01*
X128549821Y-117434901D01*
X128452531Y-117289296D01*
X128328704Y-117165469D01*
X128183099Y-117068179D01*
X128021312Y-117001164D01*
X127849559Y-116967000D01*
X127674441Y-116967000D01*
X127502688Y-117001164D01*
X127340901Y-117068179D01*
X127195296Y-117165469D01*
X127071469Y-117289296D01*
X126974179Y-117434901D01*
X126907164Y-117596688D01*
X126873000Y-117768441D01*
X119253000Y-117768441D01*
X119218836Y-117596688D01*
X119151821Y-117434901D01*
X119054531Y-117289296D01*
X118930704Y-117165469D01*
X118785099Y-117068179D01*
X118623312Y-117001164D01*
X118451559Y-116967000D01*
X118276441Y-116967000D01*
X118104688Y-117001164D01*
X117942901Y-117068179D01*
X117797296Y-117165469D01*
X117673469Y-117289296D01*
X117576179Y-117434901D01*
X117509164Y-117596688D01*
X117475000Y-117768441D01*
X111316662Y-117768441D01*
X111465496Y-117738836D01*
X111627283Y-117671821D01*
X111772888Y-117574531D01*
X111896715Y-117450704D01*
X111994005Y-117305099D01*
X112061020Y-117143312D01*
X112095184Y-116971559D01*
X112095184Y-116796441D01*
X112061020Y-116624688D01*
X112015370Y-116514480D01*
X112021638Y-116505099D01*
X112088653Y-116343312D01*
X112120286Y-116184286D01*
X112279312Y-116152653D01*
X112441099Y-116085638D01*
X112586704Y-115988348D01*
X112710531Y-115864521D01*
X112807821Y-115718916D01*
X112874836Y-115557129D01*
X112909000Y-115385376D01*
X112909000Y-115210258D01*
X112874836Y-115038505D01*
X112807821Y-114876718D01*
X112710531Y-114731113D01*
X112586704Y-114607286D01*
X112441099Y-114509996D01*
X112411696Y-114497817D01*
X112441100Y-114485637D01*
X112586705Y-114388347D01*
X112710532Y-114264520D01*
X112807822Y-114118915D01*
X112874837Y-113957128D01*
X112909001Y-113785375D01*
X112909001Y-113610257D01*
X112874837Y-113438504D01*
X112816562Y-113297816D01*
X112874837Y-113157129D01*
X112909001Y-112985376D01*
X112909001Y-112882124D01*
X116265317Y-112882124D01*
X116265317Y-113057242D01*
X116299481Y-113228995D01*
X116366496Y-113390782D01*
X116463786Y-113536387D01*
X116587613Y-113660214D01*
X116733218Y-113757504D01*
X116895005Y-113824519D01*
X117066758Y-113858683D01*
X117241876Y-113858683D01*
X117413629Y-113824519D01*
X117575416Y-113757504D01*
X117721021Y-113660214D01*
X117844848Y-113536387D01*
X117942138Y-113390782D01*
X118009153Y-113228995D01*
X118043317Y-113057242D01*
X118043317Y-112882124D01*
X118009153Y-112710371D01*
X117942138Y-112548584D01*
X117844848Y-112402979D01*
X117721021Y-112279152D01*
X117575416Y-112181862D01*
X117413629Y-112114847D01*
X117241876Y-112080683D01*
X117066758Y-112080683D01*
X116895005Y-112114847D01*
X116733218Y-112181862D01*
X116587613Y-112279152D01*
X116463786Y-112402979D01*
X116366496Y-112548584D01*
X116299481Y-112710371D01*
X116265317Y-112882124D01*
X112909001Y-112882124D01*
X112909001Y-112810258D01*
X112874837Y-112638505D01*
X112816561Y-112497815D01*
X112874836Y-112357128D01*
X112909000Y-112185375D01*
X112909000Y-112010257D01*
X112874836Y-111838504D01*
X112807821Y-111676717D01*
X112710531Y-111531112D01*
X112586704Y-111407285D01*
X112441099Y-111309995D01*
X112279312Y-111242980D01*
X112107559Y-111208816D01*
X111932441Y-111208816D01*
X111760688Y-111242980D01*
X111598901Y-111309995D01*
X111453296Y-111407285D01*
X111329469Y-111531112D01*
X111232179Y-111676717D01*
X111165164Y-111838504D01*
X111131000Y-112010257D01*
X111131000Y-112185375D01*
X111165164Y-112357128D01*
X111223440Y-112497818D01*
X111165165Y-112638505D01*
X111131001Y-112810258D01*
X111131001Y-112985376D01*
X111165165Y-113157129D01*
X111223440Y-113297816D01*
X111165165Y-113438504D01*
X111131001Y-113610257D01*
X111131001Y-113785375D01*
X111165165Y-113957128D01*
X111232180Y-114118915D01*
X111329470Y-114264520D01*
X111453297Y-114388347D01*
X111598902Y-114485637D01*
X111628305Y-114497816D01*
X111598901Y-114509996D01*
X111453296Y-114607286D01*
X111329469Y-114731113D01*
X111232179Y-114876718D01*
X111165164Y-115038505D01*
X111133531Y-115197531D01*
X110974505Y-115229164D01*
X110812718Y-115296179D01*
X110667113Y-115393469D01*
X110543286Y-115517296D01*
X110445996Y-115662901D01*
X110378981Y-115824688D01*
X110344817Y-115996441D01*
X110344817Y-116171559D01*
X110378981Y-116343312D01*
X110424631Y-116453520D01*
X110418363Y-116462901D01*
X110351348Y-116624688D01*
X110317184Y-116796441D01*
X80847430Y-116796441D01*
X80956632Y-116723475D01*
X81163475Y-116516632D01*
X81325990Y-116273411D01*
X81437932Y-116003158D01*
X81495000Y-115716260D01*
X81495000Y-115423740D01*
X81437932Y-115136842D01*
X81325990Y-114866589D01*
X81163475Y-114623368D01*
X80956632Y-114416525D01*
X80782240Y-114300000D01*
X80956632Y-114183475D01*
X81163475Y-113976632D01*
X81325990Y-113733411D01*
X81437932Y-113463158D01*
X81495000Y-113176260D01*
X81495000Y-113136124D01*
X100396683Y-113136124D01*
X100396683Y-113311242D01*
X100430847Y-113482995D01*
X100497862Y-113644782D01*
X100595152Y-113790387D01*
X100718979Y-113914214D01*
X100864584Y-114011504D01*
X101026371Y-114078519D01*
X101198124Y-114112683D01*
X101373242Y-114112683D01*
X101544995Y-114078519D01*
X101706782Y-114011504D01*
X101852387Y-113914214D01*
X101976214Y-113790387D01*
X102073504Y-113644782D01*
X102140519Y-113482995D01*
X102174683Y-113311242D01*
X102174683Y-113136124D01*
X102140519Y-112964371D01*
X102073504Y-112802584D01*
X102065124Y-112790041D01*
X107924600Y-112790041D01*
X107924600Y-112965159D01*
X107958764Y-113136912D01*
X108014430Y-113271300D01*
X107958764Y-113405688D01*
X107924600Y-113577441D01*
X107924600Y-113752559D01*
X107958764Y-113924312D01*
X108025779Y-114086099D01*
X108123069Y-114231704D01*
X108246896Y-114355531D01*
X108392501Y-114452821D01*
X108554288Y-114519836D01*
X108726041Y-114554000D01*
X108901159Y-114554000D01*
X109072912Y-114519836D01*
X109193085Y-114470058D01*
X109205301Y-114478221D01*
X109367088Y-114545236D01*
X109538841Y-114579400D01*
X109713959Y-114579400D01*
X109885712Y-114545236D01*
X110047499Y-114478221D01*
X110193104Y-114380931D01*
X110316931Y-114257104D01*
X110414221Y-114111499D01*
X110481236Y-113949712D01*
X110515400Y-113777959D01*
X110515400Y-113602841D01*
X110481236Y-113431088D01*
X110420310Y-113284000D01*
X110481236Y-113136912D01*
X110515400Y-112965159D01*
X110515400Y-112790041D01*
X110481236Y-112618288D01*
X110414221Y-112456501D01*
X110316931Y-112310896D01*
X110193104Y-112187069D01*
X110047499Y-112089779D01*
X109885712Y-112022764D01*
X109713959Y-111988600D01*
X109538841Y-111988600D01*
X109367088Y-112022764D01*
X109220000Y-112083690D01*
X109072912Y-112022764D01*
X108901159Y-111988600D01*
X108726041Y-111988600D01*
X108554288Y-112022764D01*
X108392501Y-112089779D01*
X108246896Y-112187069D01*
X108123069Y-112310896D01*
X108025779Y-112456501D01*
X107958764Y-112618288D01*
X107924600Y-112790041D01*
X102065124Y-112790041D01*
X101976214Y-112656979D01*
X101852387Y-112533152D01*
X101706782Y-112435862D01*
X101544995Y-112368847D01*
X101373242Y-112334683D01*
X101198124Y-112334683D01*
X101026371Y-112368847D01*
X100864584Y-112435862D01*
X100718979Y-112533152D01*
X100595152Y-112656979D01*
X100497862Y-112802584D01*
X100430847Y-112964371D01*
X100396683Y-113136124D01*
X81495000Y-113136124D01*
X81495000Y-112883740D01*
X81437932Y-112596842D01*
X81325990Y-112326589D01*
X81163475Y-112083368D01*
X80956632Y-111876525D01*
X80782240Y-111760000D01*
X80956632Y-111643475D01*
X81163475Y-111436632D01*
X81325990Y-111193411D01*
X81437932Y-110923158D01*
X81495000Y-110636260D01*
X81495000Y-110396441D01*
X109544816Y-110396441D01*
X109544816Y-110571559D01*
X109578980Y-110743312D01*
X109645995Y-110905099D01*
X109743285Y-111050704D01*
X109867112Y-111174531D01*
X110012717Y-111271821D01*
X110174504Y-111338836D01*
X110346257Y-111373000D01*
X110521375Y-111373000D01*
X110693128Y-111338836D01*
X110833817Y-111280560D01*
X110974504Y-111338835D01*
X111146257Y-111372999D01*
X111321375Y-111372999D01*
X111493128Y-111338835D01*
X111654915Y-111271820D01*
X111800520Y-111174530D01*
X111924347Y-111050703D01*
X112021637Y-110905098D01*
X112088652Y-110743311D01*
X112122816Y-110571558D01*
X112122816Y-110396440D01*
X112088652Y-110224687D01*
X112021637Y-110062900D01*
X111924347Y-109917295D01*
X111800520Y-109793468D01*
X111654915Y-109696178D01*
X111493128Y-109629163D01*
X111321375Y-109594999D01*
X111146257Y-109594999D01*
X110974504Y-109629163D01*
X110833815Y-109687439D01*
X110693128Y-109629164D01*
X110521375Y-109595000D01*
X110346257Y-109595000D01*
X110174504Y-109629164D01*
X110012717Y-109696179D01*
X109867112Y-109793469D01*
X109743285Y-109917296D01*
X109645995Y-110062901D01*
X109578980Y-110224688D01*
X109544816Y-110396441D01*
X81495000Y-110396441D01*
X81495000Y-110343740D01*
X81437932Y-110056842D01*
X81325990Y-109786589D01*
X81163475Y-109543368D01*
X80956632Y-109336525D01*
X80782240Y-109220000D01*
X80956632Y-109103475D01*
X81163475Y-108896632D01*
X81325990Y-108653411D01*
X81437932Y-108383158D01*
X81495000Y-108096260D01*
X81495000Y-107803740D01*
X81437932Y-107516842D01*
X81325990Y-107246589D01*
X81163475Y-107003368D01*
X80956632Y-106796525D01*
X80782240Y-106680000D01*
X80956632Y-106563475D01*
X81163475Y-106356632D01*
X81314237Y-106131000D01*
X97576192Y-106131000D01*
X97576192Y-106306118D01*
X97610356Y-106477871D01*
X97677371Y-106639658D01*
X97774661Y-106785263D01*
X97898488Y-106909090D01*
X98044093Y-107006380D01*
X98205880Y-107073395D01*
X98377633Y-107107559D01*
X98552751Y-107107559D01*
X98724504Y-107073395D01*
X98886291Y-107006380D01*
X99031896Y-106909090D01*
X99155723Y-106785263D01*
X99253013Y-106639658D01*
X99320028Y-106477871D01*
X99354192Y-106306118D01*
X99354192Y-106131000D01*
X99320028Y-105959247D01*
X99266674Y-105830440D01*
X100964999Y-105830440D01*
X100964999Y-106005558D01*
X100999163Y-106177311D01*
X101066178Y-106339098D01*
X101163468Y-106484703D01*
X101287295Y-106608530D01*
X101432900Y-106705820D01*
X101589895Y-106770850D01*
X101575489Y-106792411D01*
X101508474Y-106954198D01*
X101474310Y-107125951D01*
X101474310Y-107301069D01*
X101508474Y-107472822D01*
X101575489Y-107634609D01*
X101672779Y-107780214D01*
X101796606Y-107904041D01*
X101942211Y-108001331D01*
X102103998Y-108068346D01*
X102275751Y-108102510D01*
X102450869Y-108102510D01*
X102622622Y-108068346D01*
X102784409Y-108001331D01*
X102930014Y-107904041D01*
X103053841Y-107780214D01*
X103151131Y-107634609D01*
X103218146Y-107472822D01*
X103252310Y-107301069D01*
X103252310Y-107125951D01*
X103218146Y-106954198D01*
X103151131Y-106792411D01*
X103053841Y-106646806D01*
X102999476Y-106592441D01*
X106324400Y-106592441D01*
X106324400Y-106767559D01*
X106358564Y-106939312D01*
X106425579Y-107101099D01*
X106522869Y-107246704D01*
X106646696Y-107370531D01*
X106792301Y-107467821D01*
X106954088Y-107534836D01*
X107125841Y-107569000D01*
X107300959Y-107569000D01*
X107472712Y-107534836D01*
X107634499Y-107467821D01*
X107780104Y-107370531D01*
X107903931Y-107246704D01*
X108001221Y-107101099D01*
X108068236Y-106939312D01*
X108086709Y-106846441D01*
X109855000Y-106846441D01*
X109855000Y-107021559D01*
X109889164Y-107193312D01*
X109956179Y-107355099D01*
X110053469Y-107500704D01*
X110177296Y-107624531D01*
X110322901Y-107721821D01*
X110484688Y-107788836D01*
X110656441Y-107823000D01*
X110831559Y-107823000D01*
X111003312Y-107788836D01*
X111165099Y-107721821D01*
X111310704Y-107624531D01*
X111434531Y-107500704D01*
X111531821Y-107355099D01*
X111548431Y-107315000D01*
X111593559Y-107315000D01*
X111765312Y-107280836D01*
X111927099Y-107213821D01*
X112072704Y-107116531D01*
X112196531Y-106992704D01*
X112293821Y-106847099D01*
X112360836Y-106685312D01*
X112395000Y-106513559D01*
X112395000Y-106338441D01*
X112360836Y-106166688D01*
X112293821Y-106004901D01*
X112196531Y-105859296D01*
X112072704Y-105735469D01*
X111927099Y-105638179D01*
X111765312Y-105571164D01*
X111593559Y-105537000D01*
X111418441Y-105537000D01*
X111246688Y-105571164D01*
X111084901Y-105638179D01*
X110939296Y-105735469D01*
X110815469Y-105859296D01*
X110718179Y-106004901D01*
X110701569Y-106045000D01*
X110656441Y-106045000D01*
X110484688Y-106079164D01*
X110322901Y-106146179D01*
X110177296Y-106243469D01*
X110053469Y-106367296D01*
X109956179Y-106512901D01*
X109889164Y-106674688D01*
X109855000Y-106846441D01*
X108086709Y-106846441D01*
X108095388Y-106802812D01*
X108116441Y-106807000D01*
X108291559Y-106807000D01*
X108463312Y-106772836D01*
X108625099Y-106705821D01*
X108770704Y-106608531D01*
X108894531Y-106484704D01*
X108991821Y-106339099D01*
X109058836Y-106177312D01*
X109093000Y-106005559D01*
X109093000Y-105830441D01*
X109058836Y-105658688D01*
X108991821Y-105496901D01*
X108894531Y-105351296D01*
X108770704Y-105227469D01*
X108625099Y-105130179D01*
X108463312Y-105063164D01*
X108291559Y-105029000D01*
X108116441Y-105029000D01*
X107944688Y-105063164D01*
X107782901Y-105130179D01*
X107637296Y-105227469D01*
X107513469Y-105351296D01*
X107416179Y-105496901D01*
X107349164Y-105658688D01*
X107322012Y-105795188D01*
X107300959Y-105791000D01*
X107125841Y-105791000D01*
X106954088Y-105825164D01*
X106792301Y-105892179D01*
X106646696Y-105989469D01*
X106522869Y-106113296D01*
X106425579Y-106258901D01*
X106358564Y-106420688D01*
X106324400Y-106592441D01*
X102999476Y-106592441D01*
X102930014Y-106522979D01*
X102784409Y-106425689D01*
X102627414Y-106360659D01*
X102641820Y-106339098D01*
X102708835Y-106177311D01*
X102742999Y-106005558D01*
X102742999Y-105830440D01*
X102708835Y-105658687D01*
X102641820Y-105496900D01*
X102544530Y-105351295D01*
X102420703Y-105227468D01*
X102275098Y-105130178D01*
X102113311Y-105063163D01*
X101941558Y-105028999D01*
X101766440Y-105028999D01*
X101594687Y-105063163D01*
X101432900Y-105130178D01*
X101287295Y-105227468D01*
X101163468Y-105351295D01*
X101066178Y-105496900D01*
X100999163Y-105658687D01*
X100964999Y-105830440D01*
X99266674Y-105830440D01*
X99253013Y-105797460D01*
X99155723Y-105651855D01*
X99031896Y-105528028D01*
X98886291Y-105430738D01*
X98724504Y-105363723D01*
X98552751Y-105329559D01*
X98377633Y-105329559D01*
X98205880Y-105363723D01*
X98044093Y-105430738D01*
X97898488Y-105528028D01*
X97774661Y-105651855D01*
X97677371Y-105797460D01*
X97610356Y-105959247D01*
X97576192Y-106131000D01*
X81314237Y-106131000D01*
X81325990Y-106113411D01*
X81437932Y-105843158D01*
X81495000Y-105556260D01*
X81495000Y-105263740D01*
X81437932Y-104976842D01*
X81325990Y-104706589D01*
X81163475Y-104463368D01*
X80956632Y-104256525D01*
X80782240Y-104140000D01*
X80956632Y-104023475D01*
X81163475Y-103816632D01*
X81325990Y-103573411D01*
X81437932Y-103303158D01*
X81495000Y-103016260D01*
X81495000Y-102723740D01*
X81437932Y-102436842D01*
X81325990Y-102166589D01*
X81163475Y-101923368D01*
X80956632Y-101716525D01*
X80782240Y-101600000D01*
X80956632Y-101483475D01*
X81089650Y-101350457D01*
X86366350Y-101350457D01*
X86366350Y-101849543D01*
X86463717Y-102339038D01*
X86654709Y-102800133D01*
X86931986Y-103215108D01*
X87284892Y-103568014D01*
X87699867Y-103845291D01*
X88160962Y-104036283D01*
X88650457Y-104133650D01*
X89149543Y-104133650D01*
X89639038Y-104036283D01*
X90100133Y-103845291D01*
X90515108Y-103568014D01*
X90868014Y-103215108D01*
X91145291Y-102800133D01*
X91336283Y-102339038D01*
X91433650Y-101849543D01*
X91433650Y-101350457D01*
X91336283Y-100860962D01*
X91145291Y-100399867D01*
X91019208Y-100211170D01*
X95807500Y-100211170D01*
X95807500Y-100448830D01*
X95853865Y-100681923D01*
X95944813Y-100901492D01*
X96076850Y-101099099D01*
X96244901Y-101267150D01*
X96442508Y-101399187D01*
X96662077Y-101490135D01*
X96895170Y-101536500D01*
X97132830Y-101536500D01*
X97365923Y-101490135D01*
X97585492Y-101399187D01*
X97658421Y-101350457D01*
X137166350Y-101350457D01*
X137166350Y-101849543D01*
X137263717Y-102339038D01*
X137454709Y-102800133D01*
X137731986Y-103215108D01*
X138084892Y-103568014D01*
X138499867Y-103845291D01*
X138960962Y-104036283D01*
X139450457Y-104133650D01*
X139949543Y-104133650D01*
X140439038Y-104036283D01*
X140900133Y-103845291D01*
X141315108Y-103568014D01*
X141668014Y-103215108D01*
X141945291Y-102800133D01*
X142136283Y-102339038D01*
X142233650Y-101849543D01*
X142233650Y-101350457D01*
X142136283Y-100860962D01*
X141945291Y-100399867D01*
X141668014Y-99984892D01*
X141315108Y-99631986D01*
X140900133Y-99354709D01*
X140439038Y-99163717D01*
X139949543Y-99066350D01*
X139450457Y-99066350D01*
X138960962Y-99163717D01*
X138499867Y-99354709D01*
X138084892Y-99631986D01*
X137731986Y-99984892D01*
X137454709Y-100399867D01*
X137263717Y-100860962D01*
X137166350Y-101350457D01*
X97658421Y-101350457D01*
X97783099Y-101267150D01*
X97951150Y-101099099D01*
X98083187Y-100901492D01*
X98174135Y-100681923D01*
X98220500Y-100448830D01*
X98220500Y-100211170D01*
X98174135Y-99978077D01*
X98083187Y-99758508D01*
X97951150Y-99560901D01*
X97783099Y-99392850D01*
X97585492Y-99260813D01*
X97365923Y-99169865D01*
X97132830Y-99123500D01*
X96895170Y-99123500D01*
X96662077Y-99169865D01*
X96442508Y-99260813D01*
X96244901Y-99392850D01*
X96076850Y-99560901D01*
X95944813Y-99758508D01*
X95853865Y-99978077D01*
X95807500Y-100211170D01*
X91019208Y-100211170D01*
X90868014Y-99984892D01*
X90515108Y-99631986D01*
X90100133Y-99354709D01*
X89639038Y-99163717D01*
X89149543Y-99066350D01*
X88650457Y-99066350D01*
X88160962Y-99163717D01*
X87699867Y-99354709D01*
X87284892Y-99631986D01*
X86931986Y-99984892D01*
X86654709Y-100399867D01*
X86463717Y-100860962D01*
X86366350Y-101350457D01*
X81089650Y-101350457D01*
X81163475Y-101276632D01*
X81325990Y-101033411D01*
X81437932Y-100763158D01*
X81495000Y-100476260D01*
X81495000Y-100183740D01*
X81437932Y-99896842D01*
X81325990Y-99626589D01*
X81163475Y-99383368D01*
X80956632Y-99176525D01*
X80782240Y-99060000D01*
X80956632Y-98943475D01*
X81163475Y-98736632D01*
X81325990Y-98493411D01*
X81437932Y-98223158D01*
X81495000Y-97936260D01*
X81495000Y-97643740D01*
X81437932Y-97356842D01*
X81370664Y-97194441D01*
X92583000Y-97194441D01*
X92583000Y-97369559D01*
X92617164Y-97541312D01*
X92684179Y-97703099D01*
X92781469Y-97848704D01*
X92849765Y-97917000D01*
X92781469Y-97985296D01*
X92684179Y-98130901D01*
X92617164Y-98292688D01*
X92583000Y-98464441D01*
X92583000Y-98639559D01*
X92617164Y-98811312D01*
X92684179Y-98973099D01*
X92781469Y-99118704D01*
X92905296Y-99242531D01*
X93050901Y-99339821D01*
X93212688Y-99406836D01*
X93384441Y-99441000D01*
X93559559Y-99441000D01*
X93731312Y-99406836D01*
X93893099Y-99339821D01*
X94038704Y-99242531D01*
X94162531Y-99118704D01*
X94259821Y-98973099D01*
X94326836Y-98811312D01*
X94361000Y-98639559D01*
X94361000Y-98464441D01*
X94346386Y-98390967D01*
X117237000Y-98390967D01*
X117237000Y-98713033D01*
X117299832Y-99028912D01*
X117423082Y-99326463D01*
X117602013Y-99594252D01*
X117829748Y-99821987D01*
X118097537Y-100000918D01*
X118395088Y-100124168D01*
X118710967Y-100187000D01*
X119033033Y-100187000D01*
X119348912Y-100124168D01*
X119646463Y-100000918D01*
X119914252Y-99821987D01*
X120141987Y-99594252D01*
X120320918Y-99326463D01*
X120444168Y-99028912D01*
X120507000Y-98713033D01*
X120507000Y-98390967D01*
X121737000Y-98390967D01*
X121737000Y-98713033D01*
X121799832Y-99028912D01*
X121923082Y-99326463D01*
X122102013Y-99594252D01*
X122329748Y-99821987D01*
X122597537Y-100000918D01*
X122895088Y-100124168D01*
X123210967Y-100187000D01*
X123533033Y-100187000D01*
X123848912Y-100124168D01*
X124146463Y-100000918D01*
X124414252Y-99821987D01*
X124641987Y-99594252D01*
X124820918Y-99326463D01*
X124944168Y-99028912D01*
X125007000Y-98713033D01*
X125007000Y-98390967D01*
X125437000Y-98390967D01*
X125437000Y-98713033D01*
X125499832Y-99028912D01*
X125623082Y-99326463D01*
X125802013Y-99594252D01*
X126029748Y-99821987D01*
X126297537Y-100000918D01*
X126595088Y-100124168D01*
X126910967Y-100187000D01*
X127233033Y-100187000D01*
X127548912Y-100124168D01*
X127846463Y-100000918D01*
X128114252Y-99821987D01*
X128341987Y-99594252D01*
X128520918Y-99326463D01*
X128644168Y-99028912D01*
X128707000Y-98713033D01*
X128707000Y-98390967D01*
X129937000Y-98390967D01*
X129937000Y-98713033D01*
X129999832Y-99028912D01*
X130123082Y-99326463D01*
X130302013Y-99594252D01*
X130529748Y-99821987D01*
X130797537Y-100000918D01*
X131095088Y-100124168D01*
X131410967Y-100187000D01*
X131733033Y-100187000D01*
X132048912Y-100124168D01*
X132346463Y-100000918D01*
X132614252Y-99821987D01*
X132841987Y-99594252D01*
X133020918Y-99326463D01*
X133130125Y-99062815D01*
X133167469Y-99118704D01*
X133291296Y-99242531D01*
X133436901Y-99339821D01*
X133598688Y-99406836D01*
X133770441Y-99441000D01*
X133945559Y-99441000D01*
X134117312Y-99406836D01*
X134279099Y-99339821D01*
X134424704Y-99242531D01*
X134548531Y-99118704D01*
X134645821Y-98973099D01*
X134712836Y-98811312D01*
X134747000Y-98639559D01*
X134747000Y-98464441D01*
X134712836Y-98292688D01*
X134645821Y-98130901D01*
X134548531Y-97985296D01*
X134424704Y-97861469D01*
X134279099Y-97764179D01*
X134117312Y-97697164D01*
X133945559Y-97663000D01*
X133770441Y-97663000D01*
X133598688Y-97697164D01*
X133436901Y-97764179D01*
X133291296Y-97861469D01*
X133167469Y-97985296D01*
X133130125Y-98041185D01*
X133020918Y-97777537D01*
X132841987Y-97509748D01*
X132614252Y-97282013D01*
X132346463Y-97103082D01*
X132048912Y-96979832D01*
X131733033Y-96917000D01*
X131410967Y-96917000D01*
X131095088Y-96979832D01*
X130797537Y-97103082D01*
X130529748Y-97282013D01*
X130302013Y-97509748D01*
X130123082Y-97777537D01*
X129999832Y-98075088D01*
X129937000Y-98390967D01*
X128707000Y-98390967D01*
X128644168Y-98075088D01*
X128520918Y-97777537D01*
X128341987Y-97509748D01*
X128114252Y-97282013D01*
X127846463Y-97103082D01*
X127548912Y-96979832D01*
X127233033Y-96917000D01*
X126910967Y-96917000D01*
X126595088Y-96979832D01*
X126297537Y-97103082D01*
X126029748Y-97282013D01*
X125802013Y-97509748D01*
X125623082Y-97777537D01*
X125499832Y-98075088D01*
X125437000Y-98390967D01*
X125007000Y-98390967D01*
X124944168Y-98075088D01*
X124820918Y-97777537D01*
X124641987Y-97509748D01*
X124414252Y-97282013D01*
X124146463Y-97103082D01*
X123848912Y-96979832D01*
X123533033Y-96917000D01*
X123210967Y-96917000D01*
X122895088Y-96979832D01*
X122597537Y-97103082D01*
X122329748Y-97282013D01*
X122102013Y-97509748D01*
X121923082Y-97777537D01*
X121799832Y-98075088D01*
X121737000Y-98390967D01*
X120507000Y-98390967D01*
X120444168Y-98075088D01*
X120320918Y-97777537D01*
X120141987Y-97509748D01*
X119914252Y-97282013D01*
X119646463Y-97103082D01*
X119348912Y-96979832D01*
X119033033Y-96917000D01*
X118710967Y-96917000D01*
X118395088Y-96979832D01*
X118097537Y-97103082D01*
X117829748Y-97282013D01*
X117602013Y-97509748D01*
X117423082Y-97777537D01*
X117299832Y-98075088D01*
X117237000Y-98390967D01*
X94346386Y-98390967D01*
X94326836Y-98292688D01*
X94259821Y-98130901D01*
X94162531Y-97985296D01*
X94094235Y-97917000D01*
X94162531Y-97848704D01*
X94259821Y-97703099D01*
X94326836Y-97541312D01*
X94361000Y-97369559D01*
X94361000Y-97194441D01*
X94326836Y-97022688D01*
X94259821Y-96860901D01*
X94162531Y-96715296D01*
X94038704Y-96591469D01*
X93893099Y-96494179D01*
X93731312Y-96427164D01*
X93559559Y-96393000D01*
X93384441Y-96393000D01*
X93212688Y-96427164D01*
X93050901Y-96494179D01*
X92905296Y-96591469D01*
X92781469Y-96715296D01*
X92684179Y-96860901D01*
X92617164Y-97022688D01*
X92583000Y-97194441D01*
X81370664Y-97194441D01*
X81325990Y-97086589D01*
X81163475Y-96843368D01*
X80956632Y-96636525D01*
X80782240Y-96520000D01*
X80956632Y-96403475D01*
X81163475Y-96196632D01*
X81325990Y-95953411D01*
X81437932Y-95683158D01*
X81495000Y-95396260D01*
X81495000Y-95103740D01*
X81437932Y-94816842D01*
X81325990Y-94546589D01*
X81163475Y-94303368D01*
X80956632Y-94096525D01*
X80782240Y-93980000D01*
X80956632Y-93863475D01*
X81163475Y-93656632D01*
X81325990Y-93413411D01*
X81350942Y-93353170D01*
X102171500Y-93353170D01*
X102171500Y-93590830D01*
X102217865Y-93823923D01*
X102308813Y-94043492D01*
X102440850Y-94241099D01*
X102608901Y-94409150D01*
X102806508Y-94541187D01*
X103026077Y-94632135D01*
X103259170Y-94678500D01*
X103496830Y-94678500D01*
X103729923Y-94632135D01*
X103949492Y-94541187D01*
X104147099Y-94409150D01*
X104315150Y-94241099D01*
X104447187Y-94043492D01*
X104538135Y-93823923D01*
X104584500Y-93590830D01*
X104584500Y-93353170D01*
X104538135Y-93120077D01*
X104447187Y-92900508D01*
X104315150Y-92702901D01*
X104147099Y-92534850D01*
X103949492Y-92402813D01*
X103729923Y-92311865D01*
X103496830Y-92265500D01*
X103259170Y-92265500D01*
X103026077Y-92311865D01*
X102806508Y-92402813D01*
X102608901Y-92534850D01*
X102440850Y-92702901D01*
X102308813Y-92900508D01*
X102217865Y-93120077D01*
X102171500Y-93353170D01*
X81350942Y-93353170D01*
X81437932Y-93143158D01*
X81495000Y-92856260D01*
X81495000Y-92563740D01*
X81437932Y-92276842D01*
X81325990Y-92006589D01*
X81248734Y-91890967D01*
X117237000Y-91890967D01*
X117237000Y-92213033D01*
X117299832Y-92528912D01*
X117423082Y-92826463D01*
X117602013Y-93094252D01*
X117829748Y-93321987D01*
X118097537Y-93500918D01*
X118395088Y-93624168D01*
X118710967Y-93687000D01*
X119033033Y-93687000D01*
X119348912Y-93624168D01*
X119646463Y-93500918D01*
X119914252Y-93321987D01*
X120141987Y-93094252D01*
X120320918Y-92826463D01*
X120444168Y-92528912D01*
X120507000Y-92213033D01*
X120507000Y-91890967D01*
X121737000Y-91890967D01*
X121737000Y-92213033D01*
X121799832Y-92528912D01*
X121923082Y-92826463D01*
X122102013Y-93094252D01*
X122329748Y-93321987D01*
X122597537Y-93500918D01*
X122895088Y-93624168D01*
X123210967Y-93687000D01*
X123533033Y-93687000D01*
X123848912Y-93624168D01*
X124146463Y-93500918D01*
X124414252Y-93321987D01*
X124641987Y-93094252D01*
X124820918Y-92826463D01*
X124944168Y-92528912D01*
X125007000Y-92213033D01*
X125007000Y-91890967D01*
X125437000Y-91890967D01*
X125437000Y-92213033D01*
X125499832Y-92528912D01*
X125623082Y-92826463D01*
X125802013Y-93094252D01*
X126029748Y-93321987D01*
X126297537Y-93500918D01*
X126595088Y-93624168D01*
X126910967Y-93687000D01*
X127233033Y-93687000D01*
X127548912Y-93624168D01*
X127846463Y-93500918D01*
X128114252Y-93321987D01*
X128341987Y-93094252D01*
X128520918Y-92826463D01*
X128644168Y-92528912D01*
X128707000Y-92213033D01*
X128707000Y-91890967D01*
X129937000Y-91890967D01*
X129937000Y-92213033D01*
X129999832Y-92528912D01*
X130123082Y-92826463D01*
X130302013Y-93094252D01*
X130529748Y-93321987D01*
X130797537Y-93500918D01*
X131095088Y-93624168D01*
X131410967Y-93687000D01*
X131733033Y-93687000D01*
X132048912Y-93624168D01*
X132346463Y-93500918D01*
X132614252Y-93321987D01*
X132841987Y-93094252D01*
X133020918Y-92826463D01*
X133144168Y-92528912D01*
X133207000Y-92213033D01*
X133207000Y-91890967D01*
X133144168Y-91575088D01*
X133020918Y-91277537D01*
X132841987Y-91009748D01*
X132614252Y-90782013D01*
X132346463Y-90603082D01*
X132048912Y-90479832D01*
X131733033Y-90417000D01*
X131410967Y-90417000D01*
X131095088Y-90479832D01*
X130797537Y-90603082D01*
X130529748Y-90782013D01*
X130302013Y-91009748D01*
X130123082Y-91277537D01*
X129999832Y-91575088D01*
X129937000Y-91890967D01*
X128707000Y-91890967D01*
X128644168Y-91575088D01*
X128520918Y-91277537D01*
X128341987Y-91009748D01*
X128114252Y-90782013D01*
X127846463Y-90603082D01*
X127548912Y-90479832D01*
X127233033Y-90417000D01*
X126910967Y-90417000D01*
X126595088Y-90479832D01*
X126297537Y-90603082D01*
X126029748Y-90782013D01*
X125802013Y-91009748D01*
X125623082Y-91277537D01*
X125499832Y-91575088D01*
X125437000Y-91890967D01*
X125007000Y-91890967D01*
X124944168Y-91575088D01*
X124820918Y-91277537D01*
X124641987Y-91009748D01*
X124414252Y-90782013D01*
X124146463Y-90603082D01*
X123848912Y-90479832D01*
X123533033Y-90417000D01*
X123210967Y-90417000D01*
X122895088Y-90479832D01*
X122597537Y-90603082D01*
X122329748Y-90782013D01*
X122102013Y-91009748D01*
X121923082Y-91277537D01*
X121799832Y-91575088D01*
X121737000Y-91890967D01*
X120507000Y-91890967D01*
X120444168Y-91575088D01*
X120320918Y-91277537D01*
X120141987Y-91009748D01*
X119914252Y-90782013D01*
X119646463Y-90603082D01*
X119348912Y-90479832D01*
X119033033Y-90417000D01*
X118710967Y-90417000D01*
X118395088Y-90479832D01*
X118097537Y-90603082D01*
X117829748Y-90782013D01*
X117602013Y-91009748D01*
X117423082Y-91277537D01*
X117299832Y-91575088D01*
X117237000Y-91890967D01*
X81248734Y-91890967D01*
X81163475Y-91763368D01*
X80956632Y-91556525D01*
X80782240Y-91440000D01*
X80956632Y-91323475D01*
X81163475Y-91116632D01*
X81325990Y-90873411D01*
X81437932Y-90603158D01*
X81495000Y-90316260D01*
X81495000Y-90023740D01*
X81437932Y-89736842D01*
X81364682Y-89560000D01*
X96185751Y-89560000D01*
X96090850Y-89654901D01*
G04 #@! TA.AperFunction,Conductor*
D24*
G36*
X96090850Y-89654901D02*
G01*
X95958813Y-89852508D01*
X95867865Y-90072077D01*
X95821500Y-90305170D01*
X95821500Y-90542830D01*
X95867865Y-90775923D01*
X95958813Y-90995492D01*
X96090850Y-91193099D01*
X96258901Y-91361150D01*
X96456508Y-91493187D01*
X96676077Y-91584135D01*
X96909170Y-91630500D01*
X97146830Y-91630500D01*
X97379923Y-91584135D01*
X97599492Y-91493187D01*
X97797099Y-91361150D01*
X97965150Y-91193099D01*
X98097187Y-90995492D01*
X98188135Y-90775923D01*
X98234500Y-90542830D01*
X98234500Y-90305170D01*
X98188135Y-90072077D01*
X98097187Y-89852508D01*
X97965150Y-89654901D01*
X97870249Y-89560000D01*
X147235318Y-89560000D01*
X147162068Y-89736842D01*
X147105000Y-90023740D01*
X147105000Y-90316260D01*
X147162068Y-90603158D01*
X147274010Y-90873411D01*
X147436525Y-91116632D01*
X147643368Y-91323475D01*
X147817760Y-91440000D01*
X147643368Y-91556525D01*
X147436525Y-91763368D01*
X147274010Y-92006589D01*
X147162068Y-92276842D01*
X147105000Y-92563740D01*
X147105000Y-92856260D01*
X147162068Y-93143158D01*
X147274010Y-93413411D01*
X147436525Y-93656632D01*
X147643368Y-93863475D01*
X147817760Y-93980000D01*
X147643368Y-94096525D01*
X147436525Y-94303368D01*
X147274010Y-94546589D01*
X147162068Y-94816842D01*
X147105000Y-95103740D01*
X147105000Y-95396260D01*
X147162068Y-95683158D01*
X147274010Y-95953411D01*
X147436525Y-96196632D01*
X147643368Y-96403475D01*
X147817760Y-96520000D01*
X147643368Y-96636525D01*
X147436525Y-96843368D01*
X147274010Y-97086589D01*
X147162068Y-97356842D01*
X147105000Y-97643740D01*
X147105000Y-97936260D01*
X147162068Y-98223158D01*
X147274010Y-98493411D01*
X147436525Y-98736632D01*
X147643368Y-98943475D01*
X147817760Y-99060000D01*
X147643368Y-99176525D01*
X147436525Y-99383368D01*
X147274010Y-99626589D01*
X147162068Y-99896842D01*
X147105000Y-100183740D01*
X147105000Y-100476260D01*
X147162068Y-100763158D01*
X147274010Y-101033411D01*
X147436525Y-101276632D01*
X147643368Y-101483475D01*
X147817760Y-101600000D01*
X147643368Y-101716525D01*
X147436525Y-101923368D01*
X147274010Y-102166589D01*
X147162068Y-102436842D01*
X147105000Y-102723740D01*
X147105000Y-103016260D01*
X147162068Y-103303158D01*
X147274010Y-103573411D01*
X147436525Y-103816632D01*
X147643368Y-104023475D01*
X147817760Y-104140000D01*
X147643368Y-104256525D01*
X147436525Y-104463368D01*
X147274010Y-104706589D01*
X147162068Y-104976842D01*
X147105000Y-105263740D01*
X147105000Y-105556260D01*
X147162068Y-105843158D01*
X147274010Y-106113411D01*
X147436525Y-106356632D01*
X147643368Y-106563475D01*
X147817760Y-106680000D01*
X147643368Y-106796525D01*
X147436525Y-107003368D01*
X147274010Y-107246589D01*
X147162068Y-107516842D01*
X147105000Y-107803740D01*
X147105000Y-108096260D01*
X147162068Y-108383158D01*
X147274010Y-108653411D01*
X147436525Y-108896632D01*
X147643368Y-109103475D01*
X147817760Y-109220000D01*
X147643368Y-109336525D01*
X147436525Y-109543368D01*
X147274010Y-109786589D01*
X147162068Y-110056842D01*
X147105000Y-110343740D01*
X147105000Y-110636260D01*
X147162068Y-110923158D01*
X147274010Y-111193411D01*
X147436525Y-111436632D01*
X147643368Y-111643475D01*
X147817760Y-111760000D01*
X147643368Y-111876525D01*
X147436525Y-112083368D01*
X147274010Y-112326589D01*
X147162068Y-112596842D01*
X147105000Y-112883740D01*
X147105000Y-113176260D01*
X147162068Y-113463158D01*
X147274010Y-113733411D01*
X147436525Y-113976632D01*
X147643368Y-114183475D01*
X147817760Y-114300000D01*
X147643368Y-114416525D01*
X147436525Y-114623368D01*
X147274010Y-114866589D01*
X147162068Y-115136842D01*
X147105000Y-115423740D01*
X147105000Y-115716260D01*
X147162068Y-116003158D01*
X147274010Y-116273411D01*
X147436525Y-116516632D01*
X147643368Y-116723475D01*
X147817760Y-116840000D01*
X147643368Y-116956525D01*
X147436525Y-117163368D01*
X147274010Y-117406589D01*
X147162068Y-117676842D01*
X147105000Y-117963740D01*
X147105000Y-118256260D01*
X147162068Y-118543158D01*
X147274010Y-118813411D01*
X147436525Y-119056632D01*
X147643368Y-119263475D01*
X147817760Y-119380000D01*
X147643368Y-119496525D01*
X147436525Y-119703368D01*
X147274010Y-119946589D01*
X147162068Y-120216842D01*
X147105000Y-120503740D01*
X147105000Y-120796260D01*
X147162068Y-121083158D01*
X147274010Y-121353411D01*
X147436525Y-121596632D01*
X147643368Y-121803475D01*
X147825534Y-121925195D01*
X147708645Y-121994822D01*
X147492412Y-122189731D01*
X147318359Y-122423080D01*
X147193175Y-122685901D01*
X147148524Y-122833110D01*
X147269845Y-123063000D01*
X148463000Y-123063000D01*
X148463000Y-123043000D01*
X148717000Y-123043000D01*
X148717000Y-123063000D01*
X151003000Y-123063000D01*
X151003000Y-123043000D01*
X151257000Y-123043000D01*
X151257000Y-123063000D01*
X151277000Y-123063000D01*
X151277000Y-123317000D01*
X151257000Y-123317000D01*
X151257000Y-123337000D01*
X151003000Y-123337000D01*
X151003000Y-123317000D01*
X148717000Y-123317000D01*
X148717000Y-123337000D01*
X148463000Y-123337000D01*
X148463000Y-123317000D01*
X147269845Y-123317000D01*
X147148524Y-123546890D01*
X147193175Y-123694099D01*
X147318359Y-123956920D01*
X147492412Y-124190269D01*
X147708645Y-124385178D01*
X147825534Y-124454805D01*
X147643368Y-124576525D01*
X147436525Y-124783368D01*
X147274010Y-125026589D01*
X147162068Y-125296842D01*
X147105000Y-125583740D01*
X147105000Y-125876260D01*
X147162068Y-126163158D01*
X147274010Y-126433411D01*
X147436525Y-126676632D01*
X147643368Y-126883475D01*
X147886589Y-127045990D01*
X148156842Y-127157932D01*
X148443740Y-127215000D01*
X148736260Y-127215000D01*
X149023158Y-127157932D01*
X149293411Y-127045990D01*
X149536632Y-126883475D01*
X149668487Y-126751620D01*
X149690498Y-126824180D01*
X149749463Y-126934494D01*
X149828815Y-127031185D01*
X149925506Y-127110537D01*
X150035820Y-127169502D01*
X150155518Y-127205812D01*
X150280000Y-127218072D01*
X151740000Y-127218072D01*
X151740000Y-140076181D01*
X151712469Y-139937773D01*
X151511350Y-139452229D01*
X151219370Y-139015250D01*
X150847750Y-138643630D01*
X150410771Y-138351650D01*
X149925227Y-138150531D01*
X149409775Y-138048001D01*
X148884225Y-138048001D01*
X148368773Y-138150531D01*
X147883229Y-138351650D01*
X147446250Y-138643630D01*
X147074630Y-139015250D01*
X146782650Y-139452229D01*
X146581531Y-139937773D01*
X146479001Y-140453225D01*
X146479001Y-140978775D01*
X146581531Y-141494227D01*
X146782650Y-141979771D01*
X147074630Y-142416750D01*
X147446250Y-142788370D01*
X147883229Y-143080350D01*
X148368773Y-143281469D01*
X148884225Y-143383999D01*
X149409775Y-143383999D01*
X149925227Y-143281469D01*
X150410771Y-143080350D01*
X150847750Y-142788370D01*
X151219370Y-142416750D01*
X151511350Y-141979771D01*
X151712469Y-141494227D01*
X151740000Y-141355819D01*
X151740000Y-151740000D01*
X76860000Y-151740000D01*
X76860000Y-147629498D01*
X78610000Y-147629498D01*
X78610000Y-148099302D01*
X78701654Y-148560079D01*
X78881440Y-148994121D01*
X79142450Y-149384749D01*
X79474651Y-149716950D01*
X79865279Y-149977960D01*
X80299321Y-150157746D01*
X80760098Y-150249400D01*
X81229902Y-150249400D01*
X81690679Y-150157746D01*
X82124721Y-149977960D01*
X82515349Y-149716950D01*
X82847550Y-149384749D01*
X83108560Y-148994121D01*
X83288346Y-148560079D01*
X83380000Y-148099302D01*
X83380000Y-147629498D01*
X90650000Y-147629498D01*
X90650000Y-148099302D01*
X90741654Y-148560079D01*
X90921440Y-148994121D01*
X91182450Y-149384749D01*
X91514651Y-149716950D01*
X91905279Y-149977960D01*
X92339321Y-150157746D01*
X92800098Y-150249400D01*
X93269902Y-150249400D01*
X93730679Y-150157746D01*
X94164721Y-149977960D01*
X94555349Y-149716950D01*
X94887550Y-149384749D01*
X95148560Y-148994121D01*
X95328346Y-148560079D01*
X95420000Y-148099302D01*
X95420000Y-147629498D01*
X95328346Y-147168721D01*
X95148560Y-146734679D01*
X94887550Y-146344051D01*
X94555349Y-146011850D01*
X94481404Y-145962441D01*
X96139000Y-145962441D01*
X96139000Y-146137559D01*
X96173164Y-146309312D01*
X96240179Y-146471099D01*
X96337469Y-146616704D01*
X96461296Y-146740531D01*
X96606901Y-146837821D01*
X96768688Y-146904836D01*
X96940441Y-146939000D01*
X97115559Y-146939000D01*
X97287312Y-146904836D01*
X97449099Y-146837821D01*
X97524498Y-146787441D01*
X116167500Y-146787441D01*
X116167500Y-146962559D01*
X116201664Y-147134312D01*
X116268679Y-147296099D01*
X116365969Y-147441704D01*
X116489796Y-147565531D01*
X116635401Y-147662821D01*
X116797188Y-147729836D01*
X116968941Y-147764000D01*
X117144059Y-147764000D01*
X117315812Y-147729836D01*
X117477599Y-147662821D01*
X117623204Y-147565531D01*
X117747031Y-147441704D01*
X117844321Y-147296099D01*
X117911336Y-147134312D01*
X117945500Y-146962559D01*
X117945500Y-146787441D01*
X117911336Y-146615688D01*
X117844321Y-146453901D01*
X117747031Y-146308296D01*
X117623204Y-146184469D01*
X117477599Y-146087179D01*
X117315812Y-146020164D01*
X117144059Y-145986000D01*
X116968941Y-145986000D01*
X116797188Y-146020164D01*
X116635401Y-146087179D01*
X116489796Y-146184469D01*
X116365969Y-146308296D01*
X116268679Y-146453901D01*
X116201664Y-146615688D01*
X116167500Y-146787441D01*
X97524498Y-146787441D01*
X97594704Y-146740531D01*
X97718531Y-146616704D01*
X97815821Y-146471099D01*
X97882836Y-146309312D01*
X97917000Y-146137559D01*
X97917000Y-145962441D01*
X97882836Y-145790688D01*
X97815821Y-145628901D01*
X97718531Y-145483296D01*
X97594704Y-145359469D01*
X97449099Y-145262179D01*
X97287312Y-145195164D01*
X97115559Y-145161000D01*
X96940441Y-145161000D01*
X96768688Y-145195164D01*
X96606901Y-145262179D01*
X96461296Y-145359469D01*
X96337469Y-145483296D01*
X96240179Y-145628901D01*
X96173164Y-145790688D01*
X96139000Y-145962441D01*
X94481404Y-145962441D01*
X94164721Y-145750840D01*
X93730679Y-145571054D01*
X93269902Y-145479400D01*
X92800098Y-145479400D01*
X92339321Y-145571054D01*
X91905279Y-145750840D01*
X91514651Y-146011850D01*
X91182450Y-146344051D01*
X90921440Y-146734679D01*
X90741654Y-147168721D01*
X90650000Y-147629498D01*
X83380000Y-147629498D01*
X83288346Y-147168721D01*
X83108560Y-146734679D01*
X82847550Y-146344051D01*
X82515349Y-146011850D01*
X82124721Y-145750840D01*
X81690679Y-145571054D01*
X81229902Y-145479400D01*
X80760098Y-145479400D01*
X80299321Y-145571054D01*
X79865279Y-145750840D01*
X79474651Y-146011850D01*
X79142450Y-146344051D01*
X78881440Y-146734679D01*
X78701654Y-147168721D01*
X78610000Y-147629498D01*
X76860000Y-147629498D01*
X76860000Y-143008140D01*
X84280000Y-143008140D01*
X84280000Y-143300660D01*
X84337068Y-143587558D01*
X84449010Y-143857811D01*
X84611525Y-144101032D01*
X84664893Y-144154400D01*
X84611525Y-144207768D01*
X84449010Y-144450989D01*
X84337068Y-144721242D01*
X84280000Y-145008140D01*
X84280000Y-145300660D01*
X84337068Y-145587558D01*
X84449010Y-145857811D01*
X84611525Y-146101032D01*
X84818368Y-146307875D01*
X85061589Y-146470390D01*
X85331842Y-146582332D01*
X85618740Y-146639400D01*
X85911260Y-146639400D01*
X86198158Y-146582332D01*
X86468411Y-146470390D01*
X86711632Y-146307875D01*
X86918475Y-146101032D01*
X87015000Y-145956572D01*
X87111525Y-146101032D01*
X87318368Y-146307875D01*
X87561589Y-146470390D01*
X87831842Y-146582332D01*
X88118740Y-146639400D01*
X88411260Y-146639400D01*
X88698158Y-146582332D01*
X88968411Y-146470390D01*
X89211632Y-146307875D01*
X89418475Y-146101032D01*
X89580990Y-145857811D01*
X89692932Y-145587558D01*
X89750000Y-145300660D01*
X89750000Y-145008140D01*
X89692932Y-144721242D01*
X89580990Y-144450989D01*
X89576038Y-144443578D01*
X89645537Y-144358894D01*
X89704502Y-144248580D01*
X89740812Y-144128882D01*
X89753072Y-144004400D01*
X89753072Y-143168441D01*
X109855000Y-143168441D01*
X109855000Y-143343559D01*
X109889164Y-143515312D01*
X109956179Y-143677099D01*
X110053469Y-143822704D01*
X110177296Y-143946531D01*
X110322901Y-144043821D01*
X110484688Y-144110836D01*
X110656441Y-144145000D01*
X110831559Y-144145000D01*
X111003312Y-144110836D01*
X111165099Y-144043821D01*
X111310704Y-143946531D01*
X111434531Y-143822704D01*
X111531821Y-143677099D01*
X111598836Y-143515312D01*
X111633000Y-143343559D01*
X111633000Y-143168441D01*
X111598836Y-142996688D01*
X111531821Y-142834901D01*
X111434531Y-142689296D01*
X111310704Y-142565469D01*
X111165099Y-142468179D01*
X111003312Y-142401164D01*
X110831559Y-142367000D01*
X110656441Y-142367000D01*
X110484688Y-142401164D01*
X110322901Y-142468179D01*
X110177296Y-142565469D01*
X110053469Y-142689296D01*
X109956179Y-142834901D01*
X109889164Y-142996688D01*
X109855000Y-143168441D01*
X89753072Y-143168441D01*
X89753072Y-142304400D01*
X89740812Y-142179918D01*
X89732477Y-142152441D01*
X102997000Y-142152441D01*
X102997000Y-142327559D01*
X103031164Y-142499312D01*
X103098179Y-142661099D01*
X103195469Y-142806704D01*
X103319296Y-142930531D01*
X103464901Y-143027821D01*
X103626688Y-143094836D01*
X103798441Y-143129000D01*
X103973559Y-143129000D01*
X104145312Y-143094836D01*
X104307099Y-143027821D01*
X104452704Y-142930531D01*
X104576531Y-142806704D01*
X104673821Y-142661099D01*
X104740836Y-142499312D01*
X104775000Y-142327559D01*
X104775000Y-142152441D01*
X104740836Y-141980688D01*
X104673821Y-141818901D01*
X104576531Y-141673296D01*
X104452704Y-141549469D01*
X104307099Y-141452179D01*
X104145312Y-141385164D01*
X103973559Y-141351000D01*
X103798441Y-141351000D01*
X103626688Y-141385164D01*
X103464901Y-141452179D01*
X103319296Y-141549469D01*
X103195469Y-141673296D01*
X103098179Y-141818901D01*
X103031164Y-141980688D01*
X102997000Y-142152441D01*
X89732477Y-142152441D01*
X89704502Y-142060220D01*
X89645537Y-141949906D01*
X89566185Y-141853215D01*
X89469494Y-141773863D01*
X89359180Y-141714898D01*
X89239482Y-141678588D01*
X89115000Y-141666328D01*
X87415000Y-141666328D01*
X87290518Y-141678588D01*
X87170820Y-141714898D01*
X87060506Y-141773863D01*
X86963815Y-141853215D01*
X86884463Y-141949906D01*
X86825498Y-142060220D01*
X86812797Y-142102090D01*
X86711632Y-142000925D01*
X86468411Y-141838410D01*
X86198158Y-141726468D01*
X85911260Y-141669400D01*
X85618740Y-141669400D01*
X85331842Y-141726468D01*
X85061589Y-141838410D01*
X84818368Y-142000925D01*
X84611525Y-142207768D01*
X84449010Y-142450989D01*
X84337068Y-142721242D01*
X84280000Y-143008140D01*
X76860000Y-143008140D01*
X76860000Y-140374441D01*
X106045000Y-140374441D01*
X106045000Y-140549559D01*
X106079164Y-140721312D01*
X106146179Y-140883099D01*
X106243469Y-141028704D01*
X106367296Y-141152531D01*
X106512901Y-141249821D01*
X106674688Y-141316836D01*
X106846441Y-141351000D01*
X107021559Y-141351000D01*
X107193312Y-141316836D01*
X107315000Y-141266431D01*
X107436688Y-141316836D01*
X107608441Y-141351000D01*
X107783559Y-141351000D01*
X107955312Y-141316836D01*
X108077000Y-141266431D01*
X108198688Y-141316836D01*
X108370441Y-141351000D01*
X108545559Y-141351000D01*
X108717312Y-141316836D01*
X108879099Y-141249821D01*
X109024704Y-141152531D01*
X109148531Y-141028704D01*
X109245821Y-140883099D01*
X109312836Y-140721312D01*
X109347000Y-140549559D01*
X109347000Y-140374441D01*
X109601000Y-140374441D01*
X109601000Y-140549559D01*
X109635164Y-140721312D01*
X109702179Y-140883099D01*
X109799469Y-141028704D01*
X109923296Y-141152531D01*
X110068901Y-141249821D01*
X110230688Y-141316836D01*
X110402441Y-141351000D01*
X110577559Y-141351000D01*
X110749312Y-141316836D01*
X110911099Y-141249821D01*
X111056704Y-141152531D01*
X111180531Y-141028704D01*
X111277821Y-140883099D01*
X111344836Y-140721312D01*
X111379000Y-140549559D01*
X111379000Y-140453225D01*
X121489001Y-140453225D01*
X121489001Y-140978775D01*
X121591531Y-141494227D01*
X121792650Y-141979771D01*
X122084630Y-142416750D01*
X122456250Y-142788370D01*
X122893229Y-143080350D01*
X123378773Y-143281469D01*
X123894225Y-143383999D01*
X124419775Y-143383999D01*
X124935227Y-143281469D01*
X125420771Y-143080350D01*
X125857750Y-142788370D01*
X126229370Y-142416750D01*
X126521350Y-141979771D01*
X126722469Y-141494227D01*
X126743113Y-141390441D01*
X127127000Y-141390441D01*
X127127000Y-141565559D01*
X127161164Y-141737312D01*
X127228179Y-141899099D01*
X127325469Y-142044704D01*
X127449296Y-142168531D01*
X127594901Y-142265821D01*
X127756688Y-142332836D01*
X127928441Y-142367000D01*
X128103559Y-142367000D01*
X128275312Y-142332836D01*
X128437099Y-142265821D01*
X128582704Y-142168531D01*
X128706531Y-142044704D01*
X128803821Y-141899099D01*
X128870836Y-141737312D01*
X128905000Y-141565559D01*
X128905000Y-141390441D01*
X128870836Y-141218688D01*
X128803821Y-141056901D01*
X128706531Y-140911296D01*
X128582704Y-140787469D01*
X128437099Y-140690179D01*
X128275312Y-140623164D01*
X128103559Y-140589000D01*
X127928441Y-140589000D01*
X127756688Y-140623164D01*
X127594901Y-140690179D01*
X127449296Y-140787469D01*
X127325469Y-140911296D01*
X127228179Y-141056901D01*
X127161164Y-141218688D01*
X127127000Y-141390441D01*
X126743113Y-141390441D01*
X126824999Y-140978775D01*
X126824999Y-140453225D01*
X126722469Y-139937773D01*
X126521350Y-139452229D01*
X126229370Y-139015250D01*
X125857750Y-138643630D01*
X125420771Y-138351650D01*
X124935227Y-138150531D01*
X124419775Y-138048001D01*
X123894225Y-138048001D01*
X123378773Y-138150531D01*
X122893229Y-138351650D01*
X122456250Y-138643630D01*
X122084630Y-139015250D01*
X121792650Y-139452229D01*
X121591531Y-139937773D01*
X121489001Y-140453225D01*
X111379000Y-140453225D01*
X111379000Y-140374441D01*
X111344836Y-140202688D01*
X111277821Y-140040901D01*
X111180531Y-139895296D01*
X111056704Y-139771469D01*
X110911099Y-139674179D01*
X110749312Y-139607164D01*
X110577559Y-139573000D01*
X110402441Y-139573000D01*
X110230688Y-139607164D01*
X110068901Y-139674179D01*
X109923296Y-139771469D01*
X109799469Y-139895296D01*
X109702179Y-140040901D01*
X109635164Y-140202688D01*
X109601000Y-140374441D01*
X109347000Y-140374441D01*
X109312836Y-140202688D01*
X109245821Y-140040901D01*
X109148531Y-139895296D01*
X109024704Y-139771469D01*
X108879099Y-139674179D01*
X108717312Y-139607164D01*
X108545559Y-139573000D01*
X108370441Y-139573000D01*
X108198688Y-139607164D01*
X108077000Y-139657569D01*
X107955312Y-139607164D01*
X107783559Y-139573000D01*
X107608441Y-139573000D01*
X107436688Y-139607164D01*
X107315000Y-139657569D01*
X107193312Y-139607164D01*
X107021559Y-139573000D01*
X106846441Y-139573000D01*
X106674688Y-139607164D01*
X106512901Y-139674179D01*
X106367296Y-139771469D01*
X106243469Y-139895296D01*
X106146179Y-140040901D01*
X106079164Y-140202688D01*
X106045000Y-140374441D01*
X76860000Y-140374441D01*
X76860000Y-131444000D01*
X78679928Y-131444000D01*
X78679928Y-133844000D01*
X78692188Y-133968482D01*
X78728498Y-134088180D01*
X78787463Y-134198494D01*
X78866815Y-134295185D01*
X78963506Y-134374537D01*
X79073820Y-134433502D01*
X79193518Y-134469812D01*
X79318000Y-134482072D01*
X79735162Y-134482072D01*
X79648801Y-134517844D01*
X79348256Y-134718662D01*
X79092662Y-134974256D01*
X78891844Y-135274801D01*
X78753518Y-135608750D01*
X78683000Y-135963268D01*
X78683000Y-136324732D01*
X78753518Y-136679250D01*
X78891844Y-137013199D01*
X79092662Y-137313744D01*
X79348256Y-137569338D01*
X79648801Y-137770156D01*
X79982750Y-137908482D01*
X80337268Y-137979000D01*
X80698732Y-137979000D01*
X81053250Y-137908482D01*
X81232001Y-137834441D01*
X96393000Y-137834441D01*
X96393000Y-138009559D01*
X96427164Y-138181312D01*
X96477569Y-138303000D01*
X96427164Y-138424688D01*
X96393000Y-138596441D01*
X96393000Y-138771559D01*
X96427164Y-138943312D01*
X96494179Y-139105099D01*
X96591469Y-139250704D01*
X96715296Y-139374531D01*
X96860901Y-139471821D01*
X97022688Y-139538836D01*
X97194441Y-139573000D01*
X97369559Y-139573000D01*
X97541312Y-139538836D01*
X97703099Y-139471821D01*
X97848704Y-139374531D01*
X97972531Y-139250704D01*
X98069821Y-139105099D01*
X98136836Y-138943312D01*
X98171000Y-138771559D01*
X98171000Y-138596441D01*
X98136836Y-138424688D01*
X98086431Y-138303000D01*
X98136836Y-138181312D01*
X98171000Y-138009559D01*
X98171000Y-137834441D01*
X98136836Y-137662688D01*
X98069821Y-137500901D01*
X97972531Y-137355296D01*
X97848704Y-137231469D01*
X97703099Y-137134179D01*
X97541312Y-137067164D01*
X97369559Y-137033000D01*
X97194441Y-137033000D01*
X97022688Y-137067164D01*
X96860901Y-137134179D01*
X96715296Y-137231469D01*
X96591469Y-137355296D01*
X96494179Y-137500901D01*
X96427164Y-137662688D01*
X96393000Y-137834441D01*
X81232001Y-137834441D01*
X81387199Y-137770156D01*
X81687744Y-137569338D01*
X81943338Y-137313744D01*
X82144156Y-137013199D01*
X82282482Y-136679250D01*
X82353000Y-136324732D01*
X82353000Y-136310441D01*
X112395000Y-136310441D01*
X112395000Y-136485559D01*
X112429164Y-136657312D01*
X112479569Y-136779000D01*
X112429164Y-136900688D01*
X112395000Y-137072441D01*
X112395000Y-137247559D01*
X112429164Y-137419312D01*
X112496179Y-137581099D01*
X112593469Y-137726704D01*
X112717296Y-137850531D01*
X112862901Y-137947821D01*
X113024688Y-138014836D01*
X113196441Y-138049000D01*
X113371559Y-138049000D01*
X113543312Y-138014836D01*
X113705099Y-137947821D01*
X113850704Y-137850531D01*
X113974531Y-137726704D01*
X114071821Y-137581099D01*
X114138836Y-137419312D01*
X114173000Y-137247559D01*
X114173000Y-137072441D01*
X114138836Y-136900688D01*
X114088431Y-136779000D01*
X114138836Y-136657312D01*
X114173000Y-136485559D01*
X114173000Y-136310441D01*
X114138836Y-136138688D01*
X114104768Y-136056441D01*
X115697000Y-136056441D01*
X115697000Y-136231559D01*
X115731164Y-136403312D01*
X115798179Y-136565099D01*
X115895469Y-136710704D01*
X115963765Y-136779000D01*
X115895469Y-136847296D01*
X115798179Y-136992901D01*
X115731164Y-137154688D01*
X115697000Y-137326441D01*
X115697000Y-137501559D01*
X115731164Y-137673312D01*
X115798179Y-137835099D01*
X115895469Y-137980704D01*
X116019296Y-138104531D01*
X116164901Y-138201821D01*
X116326688Y-138268836D01*
X116498441Y-138303000D01*
X116673559Y-138303000D01*
X116845312Y-138268836D01*
X117007099Y-138201821D01*
X117152704Y-138104531D01*
X117231681Y-138025554D01*
X130294500Y-138025554D01*
X130294500Y-138326446D01*
X130353201Y-138621555D01*
X130468347Y-138899543D01*
X130635513Y-139149725D01*
X130848275Y-139362487D01*
X131098457Y-139529653D01*
X131376445Y-139644799D01*
X131671554Y-139703500D01*
X131819288Y-139703500D01*
X131780513Y-139742275D01*
X131613347Y-139992457D01*
X131498201Y-140270445D01*
X131439500Y-140565554D01*
X131439500Y-140866446D01*
X131498201Y-141161555D01*
X131613347Y-141439543D01*
X131780513Y-141689725D01*
X131819288Y-141728500D01*
X131671554Y-141728500D01*
X131376445Y-141787201D01*
X131098457Y-141902347D01*
X130848275Y-142069513D01*
X130635513Y-142282275D01*
X130468347Y-142532457D01*
X130353201Y-142810445D01*
X130294500Y-143105554D01*
X130294500Y-143406446D01*
X130353201Y-143701555D01*
X130468347Y-143979543D01*
X130635513Y-144229725D01*
X130848275Y-144442487D01*
X131098457Y-144609653D01*
X131376445Y-144724799D01*
X131671554Y-144783500D01*
X131972446Y-144783500D01*
X132267555Y-144724799D01*
X132545543Y-144609653D01*
X132795725Y-144442487D01*
X132967000Y-144271212D01*
X133138275Y-144442487D01*
X133388457Y-144609653D01*
X133666445Y-144724799D01*
X133961554Y-144783500D01*
X134262446Y-144783500D01*
X134557555Y-144724799D01*
X134835543Y-144609653D01*
X135085725Y-144442487D01*
X135257000Y-144271212D01*
X135428275Y-144442487D01*
X135678457Y-144609653D01*
X135956445Y-144724799D01*
X136251554Y-144783500D01*
X136552446Y-144783500D01*
X136847555Y-144724799D01*
X137125543Y-144609653D01*
X137375725Y-144442487D01*
X137547000Y-144271212D01*
X137718275Y-144442487D01*
X137968457Y-144609653D01*
X138246445Y-144724799D01*
X138541554Y-144783500D01*
X138842446Y-144783500D01*
X139137555Y-144724799D01*
X139415543Y-144609653D01*
X139665725Y-144442487D01*
X139837000Y-144271212D01*
X140008275Y-144442487D01*
X140258457Y-144609653D01*
X140536445Y-144724799D01*
X140831554Y-144783500D01*
X141132446Y-144783500D01*
X141427555Y-144724799D01*
X141705543Y-144609653D01*
X141955725Y-144442487D01*
X142168487Y-144229725D01*
X142335653Y-143979543D01*
X142450799Y-143701555D01*
X142509500Y-143406446D01*
X142509500Y-143105554D01*
X142450799Y-142810445D01*
X142335653Y-142532457D01*
X142168487Y-142282275D01*
X142129712Y-142243500D01*
X142277446Y-142243500D01*
X142572555Y-142184799D01*
X142850543Y-142069653D01*
X143100725Y-141902487D01*
X143313487Y-141689725D01*
X143480653Y-141439543D01*
X143595799Y-141161555D01*
X143654500Y-140866446D01*
X143654500Y-140565554D01*
X143595799Y-140270445D01*
X143480653Y-139992457D01*
X143313487Y-139742275D01*
X143100725Y-139529513D01*
X142850543Y-139362347D01*
X142572555Y-139247201D01*
X142488912Y-139230563D01*
X142500312Y-139192982D01*
X142512572Y-139068500D01*
X142512572Y-137283500D01*
X142500312Y-137159018D01*
X142464002Y-137039320D01*
X142405037Y-136929006D01*
X142325685Y-136832315D01*
X142228994Y-136752963D01*
X142118680Y-136693998D01*
X141998982Y-136657688D01*
X141874500Y-136645428D01*
X140089500Y-136645428D01*
X139965018Y-136657688D01*
X139845320Y-136693998D01*
X139735006Y-136752963D01*
X139638315Y-136832315D01*
X139564703Y-136922012D01*
X139415543Y-136822347D01*
X139137555Y-136707201D01*
X138842446Y-136648500D01*
X138541554Y-136648500D01*
X138246445Y-136707201D01*
X137968457Y-136822347D01*
X137718275Y-136989513D01*
X137547000Y-137160788D01*
X137375725Y-136989513D01*
X137125543Y-136822347D01*
X136847555Y-136707201D01*
X136552446Y-136648500D01*
X136251554Y-136648500D01*
X135956445Y-136707201D01*
X135678457Y-136822347D01*
X135428275Y-136989513D01*
X135257000Y-137160788D01*
X135085725Y-136989513D01*
X134835543Y-136822347D01*
X134557555Y-136707201D01*
X134262446Y-136648500D01*
X133961554Y-136648500D01*
X133666445Y-136707201D01*
X133388457Y-136822347D01*
X133138275Y-136989513D01*
X132967000Y-137160788D01*
X132795725Y-136989513D01*
X132545543Y-136822347D01*
X132267555Y-136707201D01*
X131972446Y-136648500D01*
X131671554Y-136648500D01*
X131376445Y-136707201D01*
X131098457Y-136822347D01*
X130848275Y-136989513D01*
X130635513Y-137202275D01*
X130468347Y-137452457D01*
X130353201Y-137730445D01*
X130294500Y-138025554D01*
X117231681Y-138025554D01*
X117276531Y-137980704D01*
X117373821Y-137835099D01*
X117440836Y-137673312D01*
X117475000Y-137501559D01*
X117475000Y-137326441D01*
X117440836Y-137154688D01*
X117373821Y-136992901D01*
X117276531Y-136847296D01*
X117208235Y-136779000D01*
X117276531Y-136710704D01*
X117373821Y-136565099D01*
X117440836Y-136403312D01*
X117475000Y-136231559D01*
X117475000Y-136056441D01*
X117440836Y-135884688D01*
X117373821Y-135722901D01*
X117276531Y-135577296D01*
X117152704Y-135453469D01*
X117007099Y-135356179D01*
X116845312Y-135289164D01*
X116673559Y-135255000D01*
X116498441Y-135255000D01*
X116326688Y-135289164D01*
X116164901Y-135356179D01*
X116019296Y-135453469D01*
X115895469Y-135577296D01*
X115798179Y-135722901D01*
X115731164Y-135884688D01*
X115697000Y-136056441D01*
X114104768Y-136056441D01*
X114071821Y-135976901D01*
X113974531Y-135831296D01*
X113850704Y-135707469D01*
X113705099Y-135610179D01*
X113543312Y-135543164D01*
X113371559Y-135509000D01*
X113196441Y-135509000D01*
X113024688Y-135543164D01*
X112862901Y-135610179D01*
X112717296Y-135707469D01*
X112593469Y-135831296D01*
X112496179Y-135976901D01*
X112429164Y-136138688D01*
X112395000Y-136310441D01*
X82353000Y-136310441D01*
X82353000Y-135963268D01*
X82282482Y-135608750D01*
X82144156Y-135274801D01*
X81943338Y-134974256D01*
X81687744Y-134718662D01*
X81387199Y-134517844D01*
X81300838Y-134482072D01*
X81718000Y-134482072D01*
X81842482Y-134469812D01*
X81962180Y-134433502D01*
X82072494Y-134374537D01*
X82169185Y-134295185D01*
X82248537Y-134198494D01*
X82307502Y-134088180D01*
X82343812Y-133968482D01*
X82356072Y-133844000D01*
X82356072Y-133516441D01*
X93599000Y-133516441D01*
X93599000Y-133691559D01*
X93633164Y-133863312D01*
X93700179Y-134025099D01*
X93797469Y-134170704D01*
X93921296Y-134294531D01*
X94066901Y-134391821D01*
X94228688Y-134458836D01*
X94400441Y-134493000D01*
X94575559Y-134493000D01*
X94747312Y-134458836D01*
X94909099Y-134391821D01*
X95054704Y-134294531D01*
X95178531Y-134170704D01*
X95275821Y-134025099D01*
X95342836Y-133863312D01*
X95377000Y-133691559D01*
X95377000Y-133516441D01*
X95342836Y-133344688D01*
X95326994Y-133306441D01*
X105931000Y-133306441D01*
X105931000Y-133481559D01*
X105965164Y-133653312D01*
X106032179Y-133815099D01*
X106129469Y-133960704D01*
X106253296Y-134084531D01*
X106398901Y-134181821D01*
X106560688Y-134248836D01*
X106732441Y-134283000D01*
X106907559Y-134283000D01*
X107079312Y-134248836D01*
X107241099Y-134181821D01*
X107386704Y-134084531D01*
X107510531Y-133960704D01*
X107607821Y-133815099D01*
X107674836Y-133653312D01*
X107709000Y-133481559D01*
X107709000Y-133306441D01*
X107700248Y-133262441D01*
X112649000Y-133262441D01*
X112649000Y-133437559D01*
X112683164Y-133609312D01*
X112750179Y-133771099D01*
X112847469Y-133916704D01*
X112971296Y-134040531D01*
X113116901Y-134137821D01*
X113278688Y-134204836D01*
X113450441Y-134239000D01*
X113625559Y-134239000D01*
X113797312Y-134204836D01*
X113959099Y-134137821D01*
X114104704Y-134040531D01*
X114228531Y-133916704D01*
X114325821Y-133771099D01*
X114392836Y-133609312D01*
X114427000Y-133437559D01*
X114427000Y-133262441D01*
X114392836Y-133090688D01*
X114325821Y-132928901D01*
X114228531Y-132783296D01*
X114104704Y-132659469D01*
X113959099Y-132562179D01*
X113797312Y-132495164D01*
X113625559Y-132461000D01*
X113450441Y-132461000D01*
X113278688Y-132495164D01*
X113116901Y-132562179D01*
X112971296Y-132659469D01*
X112847469Y-132783296D01*
X112750179Y-132928901D01*
X112683164Y-133090688D01*
X112649000Y-133262441D01*
X107700248Y-133262441D01*
X107674836Y-133134688D01*
X107607821Y-132972901D01*
X107510531Y-132827296D01*
X107386704Y-132703469D01*
X107241099Y-132606179D01*
X107079312Y-132539164D01*
X106907559Y-132505000D01*
X106732441Y-132505000D01*
X106560688Y-132539164D01*
X106398901Y-132606179D01*
X106253296Y-132703469D01*
X106129469Y-132827296D01*
X106032179Y-132972901D01*
X105965164Y-133134688D01*
X105931000Y-133306441D01*
X95326994Y-133306441D01*
X95275821Y-133182901D01*
X95178531Y-133037296D01*
X95054704Y-132913469D01*
X94909099Y-132816179D01*
X94747312Y-132749164D01*
X94575559Y-132715000D01*
X94400441Y-132715000D01*
X94228688Y-132749164D01*
X94066901Y-132816179D01*
X93921296Y-132913469D01*
X93797469Y-133037296D01*
X93700179Y-133182901D01*
X93633164Y-133344688D01*
X93599000Y-133516441D01*
X82356072Y-133516441D01*
X82356072Y-131444000D01*
X82343812Y-131319518D01*
X82316791Y-131230441D01*
X115697000Y-131230441D01*
X115697000Y-131405559D01*
X115731164Y-131577312D01*
X115798179Y-131739099D01*
X115895469Y-131884704D01*
X116019296Y-132008531D01*
X116164901Y-132105821D01*
X116326688Y-132172836D01*
X116498441Y-132207000D01*
X116673559Y-132207000D01*
X116845312Y-132172836D01*
X117007099Y-132105821D01*
X117152704Y-132008531D01*
X117276531Y-131884704D01*
X117373821Y-131739099D01*
X117440836Y-131577312D01*
X117459309Y-131484441D01*
X125476000Y-131484441D01*
X125476000Y-131659559D01*
X125510164Y-131831312D01*
X125577179Y-131993099D01*
X125674469Y-132138704D01*
X125798296Y-132262531D01*
X125943901Y-132359821D01*
X126105688Y-132426836D01*
X126277441Y-132461000D01*
X126452559Y-132461000D01*
X126624312Y-132426836D01*
X126786099Y-132359821D01*
X126931704Y-132262531D01*
X127055531Y-132138704D01*
X127152821Y-131993099D01*
X127219836Y-131831312D01*
X127254000Y-131659559D01*
X127254000Y-131484441D01*
X127219836Y-131312688D01*
X127152821Y-131150901D01*
X127055531Y-131005296D01*
X126931704Y-130881469D01*
X126786099Y-130784179D01*
X126624312Y-130717164D01*
X126452559Y-130683000D01*
X126277441Y-130683000D01*
X126105688Y-130717164D01*
X125943901Y-130784179D01*
X125798296Y-130881469D01*
X125674469Y-131005296D01*
X125577179Y-131150901D01*
X125510164Y-131312688D01*
X125476000Y-131484441D01*
X117459309Y-131484441D01*
X117475000Y-131405559D01*
X117475000Y-131230441D01*
X117440836Y-131058688D01*
X117373821Y-130896901D01*
X117276531Y-130751296D01*
X117152704Y-130627469D01*
X117007099Y-130530179D01*
X116845312Y-130463164D01*
X116673559Y-130429000D01*
X116498441Y-130429000D01*
X116326688Y-130463164D01*
X116164901Y-130530179D01*
X116019296Y-130627469D01*
X115895469Y-130751296D01*
X115798179Y-130896901D01*
X115731164Y-131058688D01*
X115697000Y-131230441D01*
X82316791Y-131230441D01*
X82307502Y-131199820D01*
X82248537Y-131089506D01*
X82169185Y-130992815D01*
X82072494Y-130913463D01*
X81962180Y-130854498D01*
X81842482Y-130818188D01*
X81718000Y-130805928D01*
X79318000Y-130805928D01*
X79193518Y-130818188D01*
X79073820Y-130854498D01*
X78963506Y-130913463D01*
X78866815Y-130992815D01*
X78787463Y-131089506D01*
X78728498Y-131199820D01*
X78692188Y-131319518D01*
X78679928Y-131444000D01*
X76860000Y-131444000D01*
X76860000Y-128436441D01*
X109093000Y-128436441D01*
X109093000Y-128611559D01*
X109127164Y-128783312D01*
X109194179Y-128945099D01*
X109291469Y-129090704D01*
X109415296Y-129214531D01*
X109560901Y-129311821D01*
X109722688Y-129378836D01*
X109894441Y-129413000D01*
X110069559Y-129413000D01*
X110241312Y-129378836D01*
X110403099Y-129311821D01*
X110548704Y-129214531D01*
X110672531Y-129090704D01*
X110769821Y-128945099D01*
X110836836Y-128783312D01*
X110855309Y-128690441D01*
X112395000Y-128690441D01*
X112395000Y-128865559D01*
X112429164Y-129037312D01*
X112496179Y-129199099D01*
X112593469Y-129344704D01*
X112717296Y-129468531D01*
X112862901Y-129565821D01*
X113024688Y-129632836D01*
X113196441Y-129667000D01*
X113371559Y-129667000D01*
X113543312Y-129632836D01*
X113705099Y-129565821D01*
X113850704Y-129468531D01*
X113974531Y-129344704D01*
X114071821Y-129199099D01*
X114138836Y-129037312D01*
X114173000Y-128865559D01*
X114173000Y-128690441D01*
X114138836Y-128518688D01*
X114071821Y-128356901D01*
X113974531Y-128211296D01*
X113850704Y-128087469D01*
X113705099Y-127990179D01*
X113543312Y-127923164D01*
X113371559Y-127889000D01*
X113196441Y-127889000D01*
X113024688Y-127923164D01*
X112862901Y-127990179D01*
X112717296Y-128087469D01*
X112593469Y-128211296D01*
X112496179Y-128356901D01*
X112429164Y-128518688D01*
X112395000Y-128690441D01*
X110855309Y-128690441D01*
X110871000Y-128611559D01*
X110871000Y-128436441D01*
X110836836Y-128264688D01*
X110769821Y-128102901D01*
X110672531Y-127957296D01*
X110548704Y-127833469D01*
X110403099Y-127736179D01*
X110241312Y-127669164D01*
X110069559Y-127635000D01*
X109894441Y-127635000D01*
X109722688Y-127669164D01*
X109560901Y-127736179D01*
X109415296Y-127833469D01*
X109291469Y-127957296D01*
X109194179Y-128102901D01*
X109127164Y-128264688D01*
X109093000Y-128436441D01*
X76860000Y-128436441D01*
X76860000Y-127084682D01*
X77036842Y-127157932D01*
X77323740Y-127215000D01*
X77616260Y-127215000D01*
X77903158Y-127157932D01*
X78173411Y-127045990D01*
X78416632Y-126883475D01*
X78548487Y-126751620D01*
X78570498Y-126824180D01*
X78629463Y-126934494D01*
X78708815Y-127031185D01*
X78805506Y-127110537D01*
X78915820Y-127169502D01*
X79035518Y-127205812D01*
X79160000Y-127218072D01*
X80860000Y-127218072D01*
X80984482Y-127205812D01*
X81104180Y-127169502D01*
X81214494Y-127110537D01*
X81311185Y-127031185D01*
X81390537Y-126934494D01*
X81449502Y-126824180D01*
X81485812Y-126704482D01*
X81498072Y-126580000D01*
X81498072Y-126404441D01*
X106553000Y-126404441D01*
X106553000Y-126579559D01*
X106587164Y-126751312D01*
X106654179Y-126913099D01*
X106751469Y-127058704D01*
X106875296Y-127182531D01*
X107020901Y-127279821D01*
X107182688Y-127346836D01*
X107354441Y-127381000D01*
X107529559Y-127381000D01*
X107701312Y-127346836D01*
X107863099Y-127279821D01*
X108008704Y-127182531D01*
X108132531Y-127058704D01*
X108229821Y-126913099D01*
X108296836Y-126751312D01*
X108331000Y-126579559D01*
X108331000Y-126404441D01*
X115697000Y-126404441D01*
X115697000Y-126579559D01*
X115731164Y-126751312D01*
X115798179Y-126913099D01*
X115895469Y-127058704D01*
X116019296Y-127182531D01*
X116164901Y-127279821D01*
X116326688Y-127346836D01*
X116498441Y-127381000D01*
X116673559Y-127381000D01*
X116845312Y-127346836D01*
X117007099Y-127279821D01*
X117152704Y-127182531D01*
X117276531Y-127058704D01*
X117373821Y-126913099D01*
X117440836Y-126751312D01*
X117475000Y-126579559D01*
X117475000Y-126404441D01*
X117440836Y-126232688D01*
X117373821Y-126070901D01*
X117276531Y-125925296D01*
X117152704Y-125801469D01*
X117007099Y-125704179D01*
X116858052Y-125642441D01*
X135509000Y-125642441D01*
X135509000Y-125817559D01*
X135543164Y-125989312D01*
X135610179Y-126151099D01*
X135707469Y-126296704D01*
X135831296Y-126420531D01*
X135976901Y-126517821D01*
X136138688Y-126584836D01*
X136310441Y-126619000D01*
X136485559Y-126619000D01*
X136657312Y-126584836D01*
X136819099Y-126517821D01*
X136964704Y-126420531D01*
X137088531Y-126296704D01*
X137185821Y-126151099D01*
X137252836Y-125989312D01*
X137287000Y-125817559D01*
X137287000Y-125642441D01*
X137795000Y-125642441D01*
X137795000Y-125817559D01*
X137829164Y-125989312D01*
X137896179Y-126151099D01*
X137993469Y-126296704D01*
X138117296Y-126420531D01*
X138262901Y-126517821D01*
X138424688Y-126584836D01*
X138596441Y-126619000D01*
X138771559Y-126619000D01*
X138943312Y-126584836D01*
X139105099Y-126517821D01*
X139250704Y-126420531D01*
X139374531Y-126296704D01*
X139471821Y-126151099D01*
X139538836Y-125989312D01*
X139573000Y-125817559D01*
X139573000Y-125642441D01*
X140081000Y-125642441D01*
X140081000Y-125817559D01*
X140115164Y-125989312D01*
X140182179Y-126151099D01*
X140279469Y-126296704D01*
X140403296Y-126420531D01*
X140548901Y-126517821D01*
X140710688Y-126584836D01*
X140882441Y-126619000D01*
X141057559Y-126619000D01*
X141229312Y-126584836D01*
X141391099Y-126517821D01*
X141536704Y-126420531D01*
X141660531Y-126296704D01*
X141757821Y-126151099D01*
X141824836Y-125989312D01*
X141859000Y-125817559D01*
X141859000Y-125642441D01*
X141824836Y-125470688D01*
X141757821Y-125308901D01*
X141660531Y-125163296D01*
X141536704Y-125039469D01*
X141391099Y-124942179D01*
X141229312Y-124875164D01*
X141057559Y-124841000D01*
X140882441Y-124841000D01*
X140710688Y-124875164D01*
X140548901Y-124942179D01*
X140403296Y-125039469D01*
X140279469Y-125163296D01*
X140182179Y-125308901D01*
X140115164Y-125470688D01*
X140081000Y-125642441D01*
X139573000Y-125642441D01*
X139538836Y-125470688D01*
X139471821Y-125308901D01*
X139374531Y-125163296D01*
X139250704Y-125039469D01*
X139105099Y-124942179D01*
X138943312Y-124875164D01*
X138771559Y-124841000D01*
X138596441Y-124841000D01*
X138424688Y-124875164D01*
X138262901Y-124942179D01*
X138117296Y-125039469D01*
X137993469Y-125163296D01*
X137896179Y-125308901D01*
X137829164Y-125470688D01*
X137795000Y-125642441D01*
X137287000Y-125642441D01*
X137252836Y-125470688D01*
X137185821Y-125308901D01*
X137088531Y-125163296D01*
X136964704Y-125039469D01*
X136819099Y-124942179D01*
X136657312Y-124875164D01*
X136485559Y-124841000D01*
X136310441Y-124841000D01*
X136138688Y-124875164D01*
X135976901Y-124942179D01*
X135831296Y-125039469D01*
X135707469Y-125163296D01*
X135610179Y-125308901D01*
X135543164Y-125470688D01*
X135509000Y-125642441D01*
X116858052Y-125642441D01*
X116845312Y-125637164D01*
X116673559Y-125603000D01*
X116498441Y-125603000D01*
X116326688Y-125637164D01*
X116164901Y-125704179D01*
X116019296Y-125801469D01*
X115895469Y-125925296D01*
X115798179Y-126070901D01*
X115731164Y-126232688D01*
X115697000Y-126404441D01*
X108331000Y-126404441D01*
X108296836Y-126232688D01*
X108229821Y-126070901D01*
X108132531Y-125925296D01*
X108008704Y-125801469D01*
X107863099Y-125704179D01*
X107701312Y-125637164D01*
X107529559Y-125603000D01*
X107354441Y-125603000D01*
X107182688Y-125637164D01*
X107020901Y-125704179D01*
X106875296Y-125801469D01*
X106751469Y-125925296D01*
X106654179Y-126070901D01*
X106587164Y-126232688D01*
X106553000Y-126404441D01*
X81498072Y-126404441D01*
X81498072Y-124880000D01*
X81485812Y-124755518D01*
X81449502Y-124635820D01*
X81390537Y-124525506D01*
X81311185Y-124428815D01*
X81242493Y-124372441D01*
X109093000Y-124372441D01*
X109093000Y-124547559D01*
X109127164Y-124719312D01*
X109194179Y-124881099D01*
X109291469Y-125026704D01*
X109415296Y-125150531D01*
X109560901Y-125247821D01*
X109722688Y-125314836D01*
X109894441Y-125349000D01*
X110069559Y-125349000D01*
X110241312Y-125314836D01*
X110403099Y-125247821D01*
X110548704Y-125150531D01*
X110672531Y-125026704D01*
X110769821Y-124881099D01*
X110836836Y-124719312D01*
X110871000Y-124547559D01*
X110871000Y-124372441D01*
X111633000Y-124372441D01*
X111633000Y-124547559D01*
X111667164Y-124719312D01*
X111734179Y-124881099D01*
X111831469Y-125026704D01*
X111955296Y-125150531D01*
X112100901Y-125247821D01*
X112262688Y-125314836D01*
X112401544Y-125342456D01*
X112429164Y-125481312D01*
X112496179Y-125643099D01*
X112593469Y-125788704D01*
X112717296Y-125912531D01*
X112862901Y-126009821D01*
X113024688Y-126076836D01*
X113196441Y-126111000D01*
X113371559Y-126111000D01*
X113543312Y-126076836D01*
X113705099Y-126009821D01*
X113850704Y-125912531D01*
X113974531Y-125788704D01*
X114071821Y-125643099D01*
X114138836Y-125481312D01*
X114173000Y-125309559D01*
X114173000Y-125134441D01*
X114138836Y-124962688D01*
X114071821Y-124800901D01*
X113974531Y-124655296D01*
X113945676Y-124626441D01*
X121539000Y-124626441D01*
X121539000Y-124801559D01*
X121573164Y-124973312D01*
X121640179Y-125135099D01*
X121737469Y-125280704D01*
X121861296Y-125404531D01*
X122006901Y-125501821D01*
X122168688Y-125568836D01*
X122340441Y-125603000D01*
X122515559Y-125603000D01*
X122687312Y-125568836D01*
X122849099Y-125501821D01*
X122994704Y-125404531D01*
X123118531Y-125280704D01*
X123215821Y-125135099D01*
X123282836Y-124973312D01*
X123317000Y-124801559D01*
X123317000Y-124626441D01*
X123282836Y-124454688D01*
X123215821Y-124292901D01*
X123118531Y-124147296D01*
X122994704Y-124023469D01*
X122849099Y-123926179D01*
X122687312Y-123859164D01*
X122515559Y-123825000D01*
X122340441Y-123825000D01*
X122168688Y-123859164D01*
X122006901Y-123926179D01*
X121861296Y-124023469D01*
X121737469Y-124147296D01*
X121640179Y-124292901D01*
X121573164Y-124454688D01*
X121539000Y-124626441D01*
X113945676Y-124626441D01*
X113850704Y-124531469D01*
X113705099Y-124434179D01*
X113543312Y-124367164D01*
X113404456Y-124339544D01*
X113376836Y-124200688D01*
X113309821Y-124038901D01*
X113212531Y-123893296D01*
X113088704Y-123769469D01*
X112943099Y-123672179D01*
X112781312Y-123605164D01*
X112609559Y-123571000D01*
X112434441Y-123571000D01*
X112262688Y-123605164D01*
X112100901Y-123672179D01*
X111955296Y-123769469D01*
X111831469Y-123893296D01*
X111734179Y-124038901D01*
X111667164Y-124200688D01*
X111633000Y-124372441D01*
X110871000Y-124372441D01*
X110836836Y-124200688D01*
X110769821Y-124038901D01*
X110672531Y-123893296D01*
X110548704Y-123769469D01*
X110403099Y-123672179D01*
X110241312Y-123605164D01*
X110069559Y-123571000D01*
X109894441Y-123571000D01*
X109722688Y-123605164D01*
X109560901Y-123672179D01*
X109415296Y-123769469D01*
X109291469Y-123893296D01*
X109194179Y-124038901D01*
X109127164Y-124200688D01*
X109093000Y-124372441D01*
X81242493Y-124372441D01*
X81214494Y-124349463D01*
X81104180Y-124290498D01*
X81023534Y-124266034D01*
X81107588Y-124190269D01*
X81281641Y-123956920D01*
X81406825Y-123694099D01*
X81451476Y-123546890D01*
X81330155Y-123317000D01*
X80137000Y-123317000D01*
X80137000Y-123337000D01*
X79883000Y-123337000D01*
X79883000Y-123317000D01*
X77597000Y-123317000D01*
X77597000Y-123337000D01*
X77343000Y-123337000D01*
X77343000Y-123317000D01*
X77323000Y-123317000D01*
X77323000Y-123229431D01*
X118872010Y-123229431D01*
X118872010Y-123404549D01*
X118906174Y-123576302D01*
X118973189Y-123738089D01*
X119070479Y-123883694D01*
X119194306Y-124007521D01*
X119339911Y-124104811D01*
X119501698Y-124171826D01*
X119673451Y-124205990D01*
X119848569Y-124205990D01*
X120020322Y-124171826D01*
X120182109Y-124104811D01*
X120327714Y-124007521D01*
X120451541Y-123883694D01*
X120548831Y-123738089D01*
X120615846Y-123576302D01*
X120650010Y-123404549D01*
X120650010Y-123229431D01*
X120615846Y-123057678D01*
X120548831Y-122895891D01*
X120451541Y-122750286D01*
X120327714Y-122626459D01*
X120279796Y-122594441D01*
X121539000Y-122594441D01*
X121539000Y-122769559D01*
X121573164Y-122941312D01*
X121640179Y-123103099D01*
X121737469Y-123248704D01*
X121861296Y-123372531D01*
X122006901Y-123469821D01*
X122168688Y-123536836D01*
X122340441Y-123571000D01*
X122515559Y-123571000D01*
X122687312Y-123536836D01*
X122849099Y-123469821D01*
X122994704Y-123372531D01*
X123118531Y-123248704D01*
X123215821Y-123103099D01*
X123282836Y-122941312D01*
X123317000Y-122769559D01*
X123317000Y-122594441D01*
X123282836Y-122422688D01*
X123215821Y-122260901D01*
X123118531Y-122115296D01*
X122994704Y-121991469D01*
X122849099Y-121894179D01*
X122687312Y-121827164D01*
X122515559Y-121793000D01*
X122340441Y-121793000D01*
X122168688Y-121827164D01*
X122006901Y-121894179D01*
X121861296Y-121991469D01*
X121737469Y-122115296D01*
X121640179Y-122260901D01*
X121573164Y-122422688D01*
X121539000Y-122594441D01*
X120279796Y-122594441D01*
X120182109Y-122529169D01*
X120020322Y-122462154D01*
X119848569Y-122427990D01*
X119673451Y-122427990D01*
X119501698Y-122462154D01*
X119339911Y-122529169D01*
X119194306Y-122626459D01*
X119070479Y-122750286D01*
X118973189Y-122895891D01*
X118906174Y-123057678D01*
X118872010Y-123229431D01*
X77323000Y-123229431D01*
X77323000Y-123063000D01*
X77343000Y-123063000D01*
X77343000Y-123043000D01*
X77597000Y-123043000D01*
X77597000Y-123063000D01*
X79883000Y-123063000D01*
X79883000Y-123043000D01*
X80137000Y-123043000D01*
X80137000Y-123063000D01*
X81330155Y-123063000D01*
X81451476Y-122833110D01*
X81406825Y-122685901D01*
X81281641Y-122423080D01*
X81107588Y-122189731D01*
X80992998Y-122086441D01*
X101219000Y-122086441D01*
X101219000Y-122261559D01*
X101253164Y-122433312D01*
X101320179Y-122595099D01*
X101417469Y-122740704D01*
X101541296Y-122864531D01*
X101686901Y-122961821D01*
X101848688Y-123028836D01*
X102020441Y-123063000D01*
X102195559Y-123063000D01*
X102367312Y-123028836D01*
X102529099Y-122961821D01*
X102674704Y-122864531D01*
X102798531Y-122740704D01*
X102895821Y-122595099D01*
X102937201Y-122495201D01*
X103037099Y-122453821D01*
X103182704Y-122356531D01*
X103306531Y-122232704D01*
X103403821Y-122087099D01*
X103470836Y-121925312D01*
X103505000Y-121753559D01*
X103505000Y-121578441D01*
X103479937Y-121452441D01*
X107441000Y-121452441D01*
X107441000Y-121627559D01*
X107475164Y-121799312D01*
X107542179Y-121961099D01*
X107639469Y-122106704D01*
X107763296Y-122230531D01*
X107908901Y-122327821D01*
X108070688Y-122394836D01*
X108242441Y-122429000D01*
X108417559Y-122429000D01*
X108589312Y-122394836D01*
X108751099Y-122327821D01*
X108896704Y-122230531D01*
X109020531Y-122106704D01*
X109117821Y-121961099D01*
X109184836Y-121799312D01*
X109219000Y-121627559D01*
X109219000Y-121452441D01*
X109184836Y-121280688D01*
X109117821Y-121118901D01*
X109085442Y-121070441D01*
X111633000Y-121070441D01*
X111633000Y-121245559D01*
X111667164Y-121417312D01*
X111734179Y-121579099D01*
X111831469Y-121724704D01*
X111955296Y-121848531D01*
X112100901Y-121945821D01*
X112262688Y-122012836D01*
X112434441Y-122047000D01*
X112609559Y-122047000D01*
X112781312Y-122012836D01*
X112943099Y-121945821D01*
X113088704Y-121848531D01*
X113212531Y-121724704D01*
X113309821Y-121579099D01*
X113376836Y-121417312D01*
X113411000Y-121245559D01*
X113411000Y-121070441D01*
X114681000Y-121070441D01*
X114681000Y-121245559D01*
X114715164Y-121417312D01*
X114782179Y-121579099D01*
X114879469Y-121724704D01*
X115003296Y-121848531D01*
X115148901Y-121945821D01*
X115310688Y-122012836D01*
X115482441Y-122047000D01*
X115657559Y-122047000D01*
X115829312Y-122012836D01*
X115991099Y-121945821D01*
X116136704Y-121848531D01*
X116260531Y-121724704D01*
X116357821Y-121579099D01*
X116424836Y-121417312D01*
X116459000Y-121245559D01*
X116459000Y-121070441D01*
X116424836Y-120898688D01*
X116357821Y-120736901D01*
X116260531Y-120591296D01*
X116136704Y-120467469D01*
X115991099Y-120370179D01*
X115829312Y-120303164D01*
X115657559Y-120269000D01*
X115482441Y-120269000D01*
X115310688Y-120303164D01*
X115148901Y-120370179D01*
X115003296Y-120467469D01*
X114879469Y-120591296D01*
X114782179Y-120736901D01*
X114715164Y-120898688D01*
X114681000Y-121070441D01*
X113411000Y-121070441D01*
X113376836Y-120898688D01*
X113309821Y-120736901D01*
X113212531Y-120591296D01*
X113088704Y-120467469D01*
X112943099Y-120370179D01*
X112781312Y-120303164D01*
X112609559Y-120269000D01*
X112434441Y-120269000D01*
X112262688Y-120303164D01*
X112100901Y-120370179D01*
X111955296Y-120467469D01*
X111831469Y-120591296D01*
X111734179Y-120736901D01*
X111667164Y-120898688D01*
X111633000Y-121070441D01*
X109085442Y-121070441D01*
X109020531Y-120973296D01*
X108896704Y-120849469D01*
X108751099Y-120752179D01*
X108589312Y-120685164D01*
X108417559Y-120651000D01*
X108242441Y-120651000D01*
X108070688Y-120685164D01*
X107908901Y-120752179D01*
X107763296Y-120849469D01*
X107639469Y-120973296D01*
X107542179Y-121118901D01*
X107475164Y-121280688D01*
X107441000Y-121452441D01*
X103479937Y-121452441D01*
X103470836Y-121406688D01*
X103403821Y-121244901D01*
X103306531Y-121099296D01*
X103182704Y-120975469D01*
X103037099Y-120878179D01*
X102875312Y-120811164D01*
X102703559Y-120777000D01*
X102528441Y-120777000D01*
X102356688Y-120811164D01*
X102194901Y-120878179D01*
X102049296Y-120975469D01*
X101925469Y-121099296D01*
X101828179Y-121244901D01*
X101786799Y-121344799D01*
X101686901Y-121386179D01*
X101541296Y-121483469D01*
X101417469Y-121607296D01*
X101320179Y-121752901D01*
X101253164Y-121914688D01*
X101219000Y-122086441D01*
X80992998Y-122086441D01*
X80891355Y-121994822D01*
X80774466Y-121925195D01*
X80956632Y-121803475D01*
X81163475Y-121596632D01*
X81325990Y-121353411D01*
X81437932Y-121083158D01*
X81495000Y-120796260D01*
X81495000Y-120503740D01*
X81456153Y-120308441D01*
X94107000Y-120308441D01*
X94107000Y-120483559D01*
X94141164Y-120655312D01*
X94208179Y-120817099D01*
X94305469Y-120962704D01*
X94429296Y-121086531D01*
X94574901Y-121183821D01*
X94736688Y-121250836D01*
X94908441Y-121285000D01*
X95083559Y-121285000D01*
X95255312Y-121250836D01*
X95417099Y-121183821D01*
X95562704Y-121086531D01*
X95686531Y-120962704D01*
X95783821Y-120817099D01*
X95850836Y-120655312D01*
X95885000Y-120483559D01*
X95885000Y-120308441D01*
X95850836Y-120136688D01*
X95783821Y-119974901D01*
X95686531Y-119829296D01*
X95562704Y-119705469D01*
X95417099Y-119608179D01*
X95255312Y-119541164D01*
X95083559Y-119507000D01*
X94908441Y-119507000D01*
X94736688Y-119541164D01*
X94574901Y-119608179D01*
X94429296Y-119705469D01*
X94305469Y-119829296D01*
X94208179Y-119974901D01*
X94141164Y-120136688D01*
X94107000Y-120308441D01*
X81456153Y-120308441D01*
X81437932Y-120216842D01*
X81325990Y-119946589D01*
X81163475Y-119703368D01*
X80956632Y-119496525D01*
X80782240Y-119380000D01*
X80956632Y-119263475D01*
X81163475Y-119056632D01*
X81325990Y-118813411D01*
X81437932Y-118543158D01*
X81465726Y-118403428D01*
X104267000Y-118403428D01*
X104267000Y-118578546D01*
X104301164Y-118750299D01*
X104325269Y-118808494D01*
X104301164Y-118866688D01*
X104267000Y-119038441D01*
X104267000Y-119213559D01*
X104301164Y-119385312D01*
X104368179Y-119547099D01*
X104465469Y-119692704D01*
X104589296Y-119816531D01*
X104734901Y-119913821D01*
X104896688Y-119980836D01*
X105068441Y-120015000D01*
X105243559Y-120015000D01*
X105415312Y-119980836D01*
X105577099Y-119913821D01*
X105722704Y-119816531D01*
X105846531Y-119692704D01*
X105943821Y-119547099D01*
X106010836Y-119385312D01*
X106045000Y-119213559D01*
X106045000Y-119038441D01*
X106010836Y-118866688D01*
X105986731Y-118808494D01*
X106010836Y-118750299D01*
X106045000Y-118578546D01*
X106045000Y-118403428D01*
X106010836Y-118231675D01*
X105943821Y-118069888D01*
X105846531Y-117924283D01*
X105722704Y-117800456D01*
X105577099Y-117703166D01*
X105415312Y-117636151D01*
X105243559Y-117601987D01*
X105068441Y-117601987D01*
X104896688Y-117636151D01*
X104734901Y-117703166D01*
X104589296Y-117800456D01*
X104465469Y-117924283D01*
X104368179Y-118069888D01*
X104301164Y-118231675D01*
X104267000Y-118403428D01*
X81465726Y-118403428D01*
X81495000Y-118256260D01*
X81495000Y-117963740D01*
X81437932Y-117676842D01*
X81325990Y-117406589D01*
X81163475Y-117163368D01*
X80956632Y-116956525D01*
X80782240Y-116840000D01*
X80847430Y-116796441D01*
X110317184Y-116796441D01*
X110317184Y-116971559D01*
X110351348Y-117143312D01*
X110418363Y-117305099D01*
X110515653Y-117450704D01*
X110639480Y-117574531D01*
X110785085Y-117671821D01*
X110946872Y-117738836D01*
X111118625Y-117773000D01*
X111293743Y-117773000D01*
X111316662Y-117768441D01*
X117475000Y-117768441D01*
X117475000Y-117943559D01*
X117509164Y-118115312D01*
X117576179Y-118277099D01*
X117673469Y-118422704D01*
X117797296Y-118546531D01*
X117942901Y-118643821D01*
X118104688Y-118710836D01*
X118276441Y-118745000D01*
X118451559Y-118745000D01*
X118623312Y-118710836D01*
X118785099Y-118643821D01*
X118930704Y-118546531D01*
X119054531Y-118422704D01*
X119151821Y-118277099D01*
X119218836Y-118115312D01*
X119253000Y-117943559D01*
X119253000Y-117768441D01*
X126873000Y-117768441D01*
X126873000Y-117943559D01*
X126907164Y-118115312D01*
X126974179Y-118277099D01*
X127071469Y-118422704D01*
X127195296Y-118546531D01*
X127340901Y-118643821D01*
X127502688Y-118710836D01*
X127674441Y-118745000D01*
X127849559Y-118745000D01*
X128021312Y-118710836D01*
X128183099Y-118643821D01*
X128328704Y-118546531D01*
X128452531Y-118422704D01*
X128549821Y-118277099D01*
X128616836Y-118115312D01*
X128651000Y-117943559D01*
X128651000Y-117768441D01*
X128616836Y-117596688D01*
X128549821Y-117434901D01*
X128452531Y-117289296D01*
X128328704Y-117165469D01*
X128183099Y-117068179D01*
X128021312Y-117001164D01*
X127849559Y-116967000D01*
X127674441Y-116967000D01*
X127502688Y-117001164D01*
X127340901Y-117068179D01*
X127195296Y-117165469D01*
X127071469Y-117289296D01*
X126974179Y-117434901D01*
X126907164Y-117596688D01*
X126873000Y-117768441D01*
X119253000Y-117768441D01*
X119218836Y-117596688D01*
X119151821Y-117434901D01*
X119054531Y-117289296D01*
X118930704Y-117165469D01*
X118785099Y-117068179D01*
X118623312Y-117001164D01*
X118451559Y-116967000D01*
X118276441Y-116967000D01*
X118104688Y-117001164D01*
X117942901Y-117068179D01*
X117797296Y-117165469D01*
X117673469Y-117289296D01*
X117576179Y-117434901D01*
X117509164Y-117596688D01*
X117475000Y-117768441D01*
X111316662Y-117768441D01*
X111465496Y-117738836D01*
X111627283Y-117671821D01*
X111772888Y-117574531D01*
X111896715Y-117450704D01*
X111994005Y-117305099D01*
X112061020Y-117143312D01*
X112095184Y-116971559D01*
X112095184Y-116796441D01*
X112061020Y-116624688D01*
X112015370Y-116514480D01*
X112021638Y-116505099D01*
X112088653Y-116343312D01*
X112120286Y-116184286D01*
X112279312Y-116152653D01*
X112441099Y-116085638D01*
X112586704Y-115988348D01*
X112710531Y-115864521D01*
X112807821Y-115718916D01*
X112874836Y-115557129D01*
X112909000Y-115385376D01*
X112909000Y-115210258D01*
X112874836Y-115038505D01*
X112807821Y-114876718D01*
X112710531Y-114731113D01*
X112586704Y-114607286D01*
X112441099Y-114509996D01*
X112411696Y-114497817D01*
X112441100Y-114485637D01*
X112586705Y-114388347D01*
X112710532Y-114264520D01*
X112807822Y-114118915D01*
X112874837Y-113957128D01*
X112909001Y-113785375D01*
X112909001Y-113610257D01*
X112874837Y-113438504D01*
X112816562Y-113297816D01*
X112874837Y-113157129D01*
X112909001Y-112985376D01*
X112909001Y-112882124D01*
X116265317Y-112882124D01*
X116265317Y-113057242D01*
X116299481Y-113228995D01*
X116366496Y-113390782D01*
X116463786Y-113536387D01*
X116587613Y-113660214D01*
X116733218Y-113757504D01*
X116895005Y-113824519D01*
X117066758Y-113858683D01*
X117241876Y-113858683D01*
X117413629Y-113824519D01*
X117575416Y-113757504D01*
X117721021Y-113660214D01*
X117844848Y-113536387D01*
X117942138Y-113390782D01*
X118009153Y-113228995D01*
X118043317Y-113057242D01*
X118043317Y-112882124D01*
X118009153Y-112710371D01*
X117942138Y-112548584D01*
X117844848Y-112402979D01*
X117721021Y-112279152D01*
X117575416Y-112181862D01*
X117413629Y-112114847D01*
X117241876Y-112080683D01*
X117066758Y-112080683D01*
X116895005Y-112114847D01*
X116733218Y-112181862D01*
X116587613Y-112279152D01*
X116463786Y-112402979D01*
X116366496Y-112548584D01*
X116299481Y-112710371D01*
X116265317Y-112882124D01*
X112909001Y-112882124D01*
X112909001Y-112810258D01*
X112874837Y-112638505D01*
X112816561Y-112497815D01*
X112874836Y-112357128D01*
X112909000Y-112185375D01*
X112909000Y-112010257D01*
X112874836Y-111838504D01*
X112807821Y-111676717D01*
X112710531Y-111531112D01*
X112586704Y-111407285D01*
X112441099Y-111309995D01*
X112279312Y-111242980D01*
X112107559Y-111208816D01*
X111932441Y-111208816D01*
X111760688Y-111242980D01*
X111598901Y-111309995D01*
X111453296Y-111407285D01*
X111329469Y-111531112D01*
X111232179Y-111676717D01*
X111165164Y-111838504D01*
X111131000Y-112010257D01*
X111131000Y-112185375D01*
X111165164Y-112357128D01*
X111223440Y-112497818D01*
X111165165Y-112638505D01*
X111131001Y-112810258D01*
X111131001Y-112985376D01*
X111165165Y-113157129D01*
X111223440Y-113297816D01*
X111165165Y-113438504D01*
X111131001Y-113610257D01*
X111131001Y-113785375D01*
X111165165Y-113957128D01*
X111232180Y-114118915D01*
X111329470Y-114264520D01*
X111453297Y-114388347D01*
X111598902Y-114485637D01*
X111628305Y-114497816D01*
X111598901Y-114509996D01*
X111453296Y-114607286D01*
X111329469Y-114731113D01*
X111232179Y-114876718D01*
X111165164Y-115038505D01*
X111133531Y-115197531D01*
X110974505Y-115229164D01*
X110812718Y-115296179D01*
X110667113Y-115393469D01*
X110543286Y-115517296D01*
X110445996Y-115662901D01*
X110378981Y-115824688D01*
X110344817Y-115996441D01*
X110344817Y-116171559D01*
X110378981Y-116343312D01*
X110424631Y-116453520D01*
X110418363Y-116462901D01*
X110351348Y-116624688D01*
X110317184Y-116796441D01*
X80847430Y-116796441D01*
X80956632Y-116723475D01*
X81163475Y-116516632D01*
X81325990Y-116273411D01*
X81437932Y-116003158D01*
X81495000Y-115716260D01*
X81495000Y-115423740D01*
X81437932Y-115136842D01*
X81325990Y-114866589D01*
X81163475Y-114623368D01*
X80956632Y-114416525D01*
X80782240Y-114300000D01*
X80956632Y-114183475D01*
X81163475Y-113976632D01*
X81325990Y-113733411D01*
X81437932Y-113463158D01*
X81495000Y-113176260D01*
X81495000Y-113136124D01*
X100396683Y-113136124D01*
X100396683Y-113311242D01*
X100430847Y-113482995D01*
X100497862Y-113644782D01*
X100595152Y-113790387D01*
X100718979Y-113914214D01*
X100864584Y-114011504D01*
X101026371Y-114078519D01*
X101198124Y-114112683D01*
X101373242Y-114112683D01*
X101544995Y-114078519D01*
X101706782Y-114011504D01*
X101852387Y-113914214D01*
X101976214Y-113790387D01*
X102073504Y-113644782D01*
X102140519Y-113482995D01*
X102174683Y-113311242D01*
X102174683Y-113136124D01*
X102140519Y-112964371D01*
X102073504Y-112802584D01*
X102065124Y-112790041D01*
X107924600Y-112790041D01*
X107924600Y-112965159D01*
X107958764Y-113136912D01*
X108014430Y-113271300D01*
X107958764Y-113405688D01*
X107924600Y-113577441D01*
X107924600Y-113752559D01*
X107958764Y-113924312D01*
X108025779Y-114086099D01*
X108123069Y-114231704D01*
X108246896Y-114355531D01*
X108392501Y-114452821D01*
X108554288Y-114519836D01*
X108726041Y-114554000D01*
X108901159Y-114554000D01*
X109072912Y-114519836D01*
X109193085Y-114470058D01*
X109205301Y-114478221D01*
X109367088Y-114545236D01*
X109538841Y-114579400D01*
X109713959Y-114579400D01*
X109885712Y-114545236D01*
X110047499Y-114478221D01*
X110193104Y-114380931D01*
X110316931Y-114257104D01*
X110414221Y-114111499D01*
X110481236Y-113949712D01*
X110515400Y-113777959D01*
X110515400Y-113602841D01*
X110481236Y-113431088D01*
X110420310Y-113284000D01*
X110481236Y-113136912D01*
X110515400Y-112965159D01*
X110515400Y-112790041D01*
X110481236Y-112618288D01*
X110414221Y-112456501D01*
X110316931Y-112310896D01*
X110193104Y-112187069D01*
X110047499Y-112089779D01*
X109885712Y-112022764D01*
X109713959Y-111988600D01*
X109538841Y-111988600D01*
X109367088Y-112022764D01*
X109220000Y-112083690D01*
X109072912Y-112022764D01*
X108901159Y-111988600D01*
X108726041Y-111988600D01*
X108554288Y-112022764D01*
X108392501Y-112089779D01*
X108246896Y-112187069D01*
X108123069Y-112310896D01*
X108025779Y-112456501D01*
X107958764Y-112618288D01*
X107924600Y-112790041D01*
X102065124Y-112790041D01*
X101976214Y-112656979D01*
X101852387Y-112533152D01*
X101706782Y-112435862D01*
X101544995Y-112368847D01*
X101373242Y-112334683D01*
X101198124Y-112334683D01*
X101026371Y-112368847D01*
X100864584Y-112435862D01*
X100718979Y-112533152D01*
X100595152Y-112656979D01*
X100497862Y-112802584D01*
X100430847Y-112964371D01*
X100396683Y-113136124D01*
X81495000Y-113136124D01*
X81495000Y-112883740D01*
X81437932Y-112596842D01*
X81325990Y-112326589D01*
X81163475Y-112083368D01*
X80956632Y-111876525D01*
X80782240Y-111760000D01*
X80956632Y-111643475D01*
X81163475Y-111436632D01*
X81325990Y-111193411D01*
X81437932Y-110923158D01*
X81495000Y-110636260D01*
X81495000Y-110396441D01*
X109544816Y-110396441D01*
X109544816Y-110571559D01*
X109578980Y-110743312D01*
X109645995Y-110905099D01*
X109743285Y-111050704D01*
X109867112Y-111174531D01*
X110012717Y-111271821D01*
X110174504Y-111338836D01*
X110346257Y-111373000D01*
X110521375Y-111373000D01*
X110693128Y-111338836D01*
X110833817Y-111280560D01*
X110974504Y-111338835D01*
X111146257Y-111372999D01*
X111321375Y-111372999D01*
X111493128Y-111338835D01*
X111654915Y-111271820D01*
X111800520Y-111174530D01*
X111924347Y-111050703D01*
X112021637Y-110905098D01*
X112088652Y-110743311D01*
X112122816Y-110571558D01*
X112122816Y-110396440D01*
X112088652Y-110224687D01*
X112021637Y-110062900D01*
X111924347Y-109917295D01*
X111800520Y-109793468D01*
X111654915Y-109696178D01*
X111493128Y-109629163D01*
X111321375Y-109594999D01*
X111146257Y-109594999D01*
X110974504Y-109629163D01*
X110833815Y-109687439D01*
X110693128Y-109629164D01*
X110521375Y-109595000D01*
X110346257Y-109595000D01*
X110174504Y-109629164D01*
X110012717Y-109696179D01*
X109867112Y-109793469D01*
X109743285Y-109917296D01*
X109645995Y-110062901D01*
X109578980Y-110224688D01*
X109544816Y-110396441D01*
X81495000Y-110396441D01*
X81495000Y-110343740D01*
X81437932Y-110056842D01*
X81325990Y-109786589D01*
X81163475Y-109543368D01*
X80956632Y-109336525D01*
X80782240Y-109220000D01*
X80956632Y-109103475D01*
X81163475Y-108896632D01*
X81325990Y-108653411D01*
X81437932Y-108383158D01*
X81495000Y-108096260D01*
X81495000Y-107803740D01*
X81437932Y-107516842D01*
X81325990Y-107246589D01*
X81163475Y-107003368D01*
X80956632Y-106796525D01*
X80782240Y-106680000D01*
X80956632Y-106563475D01*
X81163475Y-106356632D01*
X81314237Y-106131000D01*
X97576192Y-106131000D01*
X97576192Y-106306118D01*
X97610356Y-106477871D01*
X97677371Y-106639658D01*
X97774661Y-106785263D01*
X97898488Y-106909090D01*
X98044093Y-107006380D01*
X98205880Y-107073395D01*
X98377633Y-107107559D01*
X98552751Y-107107559D01*
X98724504Y-107073395D01*
X98886291Y-107006380D01*
X99031896Y-106909090D01*
X99155723Y-106785263D01*
X99253013Y-106639658D01*
X99320028Y-106477871D01*
X99354192Y-106306118D01*
X99354192Y-106131000D01*
X99320028Y-105959247D01*
X99266674Y-105830440D01*
X100964999Y-105830440D01*
X100964999Y-106005558D01*
X100999163Y-106177311D01*
X101066178Y-106339098D01*
X101163468Y-106484703D01*
X101287295Y-106608530D01*
X101432900Y-106705820D01*
X101589895Y-106770850D01*
X101575489Y-106792411D01*
X101508474Y-106954198D01*
X101474310Y-107125951D01*
X101474310Y-107301069D01*
X101508474Y-107472822D01*
X101575489Y-107634609D01*
X101672779Y-107780214D01*
X101796606Y-107904041D01*
X101942211Y-108001331D01*
X102103998Y-108068346D01*
X102275751Y-108102510D01*
X102450869Y-108102510D01*
X102622622Y-108068346D01*
X102784409Y-108001331D01*
X102930014Y-107904041D01*
X103053841Y-107780214D01*
X103151131Y-107634609D01*
X103218146Y-107472822D01*
X103252310Y-107301069D01*
X103252310Y-107125951D01*
X103218146Y-106954198D01*
X103151131Y-106792411D01*
X103053841Y-106646806D01*
X102999476Y-106592441D01*
X106324400Y-106592441D01*
X106324400Y-106767559D01*
X106358564Y-106939312D01*
X106425579Y-107101099D01*
X106522869Y-107246704D01*
X106646696Y-107370531D01*
X106792301Y-107467821D01*
X106954088Y-107534836D01*
X107125841Y-107569000D01*
X107300959Y-107569000D01*
X107472712Y-107534836D01*
X107634499Y-107467821D01*
X107780104Y-107370531D01*
X107903931Y-107246704D01*
X108001221Y-107101099D01*
X108068236Y-106939312D01*
X108086709Y-106846441D01*
X109855000Y-106846441D01*
X109855000Y-107021559D01*
X109889164Y-107193312D01*
X109956179Y-107355099D01*
X110053469Y-107500704D01*
X110177296Y-107624531D01*
X110322901Y-107721821D01*
X110484688Y-107788836D01*
X110656441Y-107823000D01*
X110831559Y-107823000D01*
X111003312Y-107788836D01*
X111165099Y-107721821D01*
X111310704Y-107624531D01*
X111434531Y-107500704D01*
X111531821Y-107355099D01*
X111548431Y-107315000D01*
X111593559Y-107315000D01*
X111765312Y-107280836D01*
X111927099Y-107213821D01*
X112072704Y-107116531D01*
X112196531Y-106992704D01*
X112293821Y-106847099D01*
X112360836Y-106685312D01*
X112395000Y-106513559D01*
X112395000Y-106338441D01*
X112360836Y-106166688D01*
X112293821Y-106004901D01*
X112196531Y-105859296D01*
X112072704Y-105735469D01*
X111927099Y-105638179D01*
X111765312Y-105571164D01*
X111593559Y-105537000D01*
X111418441Y-105537000D01*
X111246688Y-105571164D01*
X111084901Y-105638179D01*
X110939296Y-105735469D01*
X110815469Y-105859296D01*
X110718179Y-106004901D01*
X110701569Y-106045000D01*
X110656441Y-106045000D01*
X110484688Y-106079164D01*
X110322901Y-106146179D01*
X110177296Y-106243469D01*
X110053469Y-106367296D01*
X109956179Y-106512901D01*
X109889164Y-106674688D01*
X109855000Y-106846441D01*
X108086709Y-106846441D01*
X108095388Y-106802812D01*
X108116441Y-106807000D01*
X108291559Y-106807000D01*
X108463312Y-106772836D01*
X108625099Y-106705821D01*
X108770704Y-106608531D01*
X108894531Y-106484704D01*
X108991821Y-106339099D01*
X109058836Y-106177312D01*
X109093000Y-106005559D01*
X109093000Y-105830441D01*
X109058836Y-105658688D01*
X108991821Y-105496901D01*
X108894531Y-105351296D01*
X108770704Y-105227469D01*
X108625099Y-105130179D01*
X108463312Y-105063164D01*
X108291559Y-105029000D01*
X108116441Y-105029000D01*
X107944688Y-105063164D01*
X107782901Y-105130179D01*
X107637296Y-105227469D01*
X107513469Y-105351296D01*
X107416179Y-105496901D01*
X107349164Y-105658688D01*
X107322012Y-105795188D01*
X107300959Y-105791000D01*
X107125841Y-105791000D01*
X106954088Y-105825164D01*
X106792301Y-105892179D01*
X106646696Y-105989469D01*
X106522869Y-106113296D01*
X106425579Y-106258901D01*
X106358564Y-106420688D01*
X106324400Y-106592441D01*
X102999476Y-106592441D01*
X102930014Y-106522979D01*
X102784409Y-106425689D01*
X102627414Y-106360659D01*
X102641820Y-106339098D01*
X102708835Y-106177311D01*
X102742999Y-106005558D01*
X102742999Y-105830440D01*
X102708835Y-105658687D01*
X102641820Y-105496900D01*
X102544530Y-105351295D01*
X102420703Y-105227468D01*
X102275098Y-105130178D01*
X102113311Y-105063163D01*
X101941558Y-105028999D01*
X101766440Y-105028999D01*
X101594687Y-105063163D01*
X101432900Y-105130178D01*
X101287295Y-105227468D01*
X101163468Y-105351295D01*
X101066178Y-105496900D01*
X100999163Y-105658687D01*
X100964999Y-105830440D01*
X99266674Y-105830440D01*
X99253013Y-105797460D01*
X99155723Y-105651855D01*
X99031896Y-105528028D01*
X98886291Y-105430738D01*
X98724504Y-105363723D01*
X98552751Y-105329559D01*
X98377633Y-105329559D01*
X98205880Y-105363723D01*
X98044093Y-105430738D01*
X97898488Y-105528028D01*
X97774661Y-105651855D01*
X97677371Y-105797460D01*
X97610356Y-105959247D01*
X97576192Y-106131000D01*
X81314237Y-106131000D01*
X81325990Y-106113411D01*
X81437932Y-105843158D01*
X81495000Y-105556260D01*
X81495000Y-105263740D01*
X81437932Y-104976842D01*
X81325990Y-104706589D01*
X81163475Y-104463368D01*
X80956632Y-104256525D01*
X80782240Y-104140000D01*
X80956632Y-104023475D01*
X81163475Y-103816632D01*
X81325990Y-103573411D01*
X81437932Y-103303158D01*
X81495000Y-103016260D01*
X81495000Y-102723740D01*
X81437932Y-102436842D01*
X81325990Y-102166589D01*
X81163475Y-101923368D01*
X80956632Y-101716525D01*
X80782240Y-101600000D01*
X80956632Y-101483475D01*
X81089650Y-101350457D01*
X86366350Y-101350457D01*
X86366350Y-101849543D01*
X86463717Y-102339038D01*
X86654709Y-102800133D01*
X86931986Y-103215108D01*
X87284892Y-103568014D01*
X87699867Y-103845291D01*
X88160962Y-104036283D01*
X88650457Y-104133650D01*
X89149543Y-104133650D01*
X89639038Y-104036283D01*
X90100133Y-103845291D01*
X90515108Y-103568014D01*
X90868014Y-103215108D01*
X91145291Y-102800133D01*
X91336283Y-102339038D01*
X91433650Y-101849543D01*
X91433650Y-101350457D01*
X91336283Y-100860962D01*
X91145291Y-100399867D01*
X91019208Y-100211170D01*
X95807500Y-100211170D01*
X95807500Y-100448830D01*
X95853865Y-100681923D01*
X95944813Y-100901492D01*
X96076850Y-101099099D01*
X96244901Y-101267150D01*
X96442508Y-101399187D01*
X96662077Y-101490135D01*
X96895170Y-101536500D01*
X97132830Y-101536500D01*
X97365923Y-101490135D01*
X97585492Y-101399187D01*
X97658421Y-101350457D01*
X137166350Y-101350457D01*
X137166350Y-101849543D01*
X137263717Y-102339038D01*
X137454709Y-102800133D01*
X137731986Y-103215108D01*
X138084892Y-103568014D01*
X138499867Y-103845291D01*
X138960962Y-104036283D01*
X139450457Y-104133650D01*
X139949543Y-104133650D01*
X140439038Y-104036283D01*
X140900133Y-103845291D01*
X141315108Y-103568014D01*
X141668014Y-103215108D01*
X141945291Y-102800133D01*
X142136283Y-102339038D01*
X142233650Y-101849543D01*
X142233650Y-101350457D01*
X142136283Y-100860962D01*
X141945291Y-100399867D01*
X141668014Y-99984892D01*
X141315108Y-99631986D01*
X140900133Y-99354709D01*
X140439038Y-99163717D01*
X139949543Y-99066350D01*
X139450457Y-99066350D01*
X138960962Y-99163717D01*
X138499867Y-99354709D01*
X138084892Y-99631986D01*
X137731986Y-99984892D01*
X137454709Y-100399867D01*
X137263717Y-100860962D01*
X137166350Y-101350457D01*
X97658421Y-101350457D01*
X97783099Y-101267150D01*
X97951150Y-101099099D01*
X98083187Y-100901492D01*
X98174135Y-100681923D01*
X98220500Y-100448830D01*
X98220500Y-100211170D01*
X98174135Y-99978077D01*
X98083187Y-99758508D01*
X97951150Y-99560901D01*
X97783099Y-99392850D01*
X97585492Y-99260813D01*
X97365923Y-99169865D01*
X97132830Y-99123500D01*
X96895170Y-99123500D01*
X96662077Y-99169865D01*
X96442508Y-99260813D01*
X96244901Y-99392850D01*
X96076850Y-99560901D01*
X95944813Y-99758508D01*
X95853865Y-99978077D01*
X95807500Y-100211170D01*
X91019208Y-100211170D01*
X90868014Y-99984892D01*
X90515108Y-99631986D01*
X90100133Y-99354709D01*
X89639038Y-99163717D01*
X89149543Y-99066350D01*
X88650457Y-99066350D01*
X88160962Y-99163717D01*
X87699867Y-99354709D01*
X87284892Y-99631986D01*
X86931986Y-99984892D01*
X86654709Y-100399867D01*
X86463717Y-100860962D01*
X86366350Y-101350457D01*
X81089650Y-101350457D01*
X81163475Y-101276632D01*
X81325990Y-101033411D01*
X81437932Y-100763158D01*
X81495000Y-100476260D01*
X81495000Y-100183740D01*
X81437932Y-99896842D01*
X81325990Y-99626589D01*
X81163475Y-99383368D01*
X80956632Y-99176525D01*
X80782240Y-99060000D01*
X80956632Y-98943475D01*
X81163475Y-98736632D01*
X81325990Y-98493411D01*
X81437932Y-98223158D01*
X81495000Y-97936260D01*
X81495000Y-97643740D01*
X81437932Y-97356842D01*
X81370664Y-97194441D01*
X92583000Y-97194441D01*
X92583000Y-97369559D01*
X92617164Y-97541312D01*
X92684179Y-97703099D01*
X92781469Y-97848704D01*
X92849765Y-97917000D01*
X92781469Y-97985296D01*
X92684179Y-98130901D01*
X92617164Y-98292688D01*
X92583000Y-98464441D01*
X92583000Y-98639559D01*
X92617164Y-98811312D01*
X92684179Y-98973099D01*
X92781469Y-99118704D01*
X92905296Y-99242531D01*
X93050901Y-99339821D01*
X93212688Y-99406836D01*
X93384441Y-99441000D01*
X93559559Y-99441000D01*
X93731312Y-99406836D01*
X93893099Y-99339821D01*
X94038704Y-99242531D01*
X94162531Y-99118704D01*
X94259821Y-98973099D01*
X94326836Y-98811312D01*
X94361000Y-98639559D01*
X94361000Y-98464441D01*
X94346386Y-98390967D01*
X117237000Y-98390967D01*
X117237000Y-98713033D01*
X117299832Y-99028912D01*
X117423082Y-99326463D01*
X117602013Y-99594252D01*
X117829748Y-99821987D01*
X118097537Y-100000918D01*
X118395088Y-100124168D01*
X118710967Y-100187000D01*
X119033033Y-100187000D01*
X119348912Y-100124168D01*
X119646463Y-100000918D01*
X119914252Y-99821987D01*
X120141987Y-99594252D01*
X120320918Y-99326463D01*
X120444168Y-99028912D01*
X120507000Y-98713033D01*
X120507000Y-98390967D01*
X121737000Y-98390967D01*
X121737000Y-98713033D01*
X121799832Y-99028912D01*
X121923082Y-99326463D01*
X122102013Y-99594252D01*
X122329748Y-99821987D01*
X122597537Y-100000918D01*
X122895088Y-100124168D01*
X123210967Y-100187000D01*
X123533033Y-100187000D01*
X123848912Y-100124168D01*
X124146463Y-100000918D01*
X124414252Y-99821987D01*
X124641987Y-99594252D01*
X124820918Y-99326463D01*
X124944168Y-99028912D01*
X125007000Y-98713033D01*
X125007000Y-98390967D01*
X125437000Y-98390967D01*
X125437000Y-98713033D01*
X125499832Y-99028912D01*
X125623082Y-99326463D01*
X125802013Y-99594252D01*
X126029748Y-99821987D01*
X126297537Y-100000918D01*
X126595088Y-100124168D01*
X126910967Y-100187000D01*
X127233033Y-100187000D01*
X127548912Y-100124168D01*
X127846463Y-100000918D01*
X128114252Y-99821987D01*
X128341987Y-99594252D01*
X128520918Y-99326463D01*
X128644168Y-99028912D01*
X128707000Y-98713033D01*
X128707000Y-98390967D01*
X129937000Y-98390967D01*
X129937000Y-98713033D01*
X129999832Y-99028912D01*
X130123082Y-99326463D01*
X130302013Y-99594252D01*
X130529748Y-99821987D01*
X130797537Y-100000918D01*
X131095088Y-100124168D01*
X131410967Y-100187000D01*
X131733033Y-100187000D01*
X132048912Y-100124168D01*
X132346463Y-100000918D01*
X132614252Y-99821987D01*
X132841987Y-99594252D01*
X133020918Y-99326463D01*
X133130125Y-99062815D01*
X133167469Y-99118704D01*
X133291296Y-99242531D01*
X133436901Y-99339821D01*
X133598688Y-99406836D01*
X133770441Y-99441000D01*
X133945559Y-99441000D01*
X134117312Y-99406836D01*
X134279099Y-99339821D01*
X134424704Y-99242531D01*
X134548531Y-99118704D01*
X134645821Y-98973099D01*
X134712836Y-98811312D01*
X134747000Y-98639559D01*
X134747000Y-98464441D01*
X134712836Y-98292688D01*
X134645821Y-98130901D01*
X134548531Y-97985296D01*
X134424704Y-97861469D01*
X134279099Y-97764179D01*
X134117312Y-97697164D01*
X133945559Y-97663000D01*
X133770441Y-97663000D01*
X133598688Y-97697164D01*
X133436901Y-97764179D01*
X133291296Y-97861469D01*
X133167469Y-97985296D01*
X133130125Y-98041185D01*
X133020918Y-97777537D01*
X132841987Y-97509748D01*
X132614252Y-97282013D01*
X132346463Y-97103082D01*
X132048912Y-96979832D01*
X131733033Y-96917000D01*
X131410967Y-96917000D01*
X131095088Y-96979832D01*
X130797537Y-97103082D01*
X130529748Y-97282013D01*
X130302013Y-97509748D01*
X130123082Y-97777537D01*
X129999832Y-98075088D01*
X129937000Y-98390967D01*
X128707000Y-98390967D01*
X128644168Y-98075088D01*
X128520918Y-97777537D01*
X128341987Y-97509748D01*
X128114252Y-97282013D01*
X127846463Y-97103082D01*
X127548912Y-96979832D01*
X127233033Y-96917000D01*
X126910967Y-96917000D01*
X126595088Y-96979832D01*
X126297537Y-97103082D01*
X126029748Y-97282013D01*
X125802013Y-97509748D01*
X125623082Y-97777537D01*
X125499832Y-98075088D01*
X125437000Y-98390967D01*
X125007000Y-98390967D01*
X124944168Y-98075088D01*
X124820918Y-97777537D01*
X124641987Y-97509748D01*
X124414252Y-97282013D01*
X124146463Y-97103082D01*
X123848912Y-96979832D01*
X123533033Y-96917000D01*
X123210967Y-96917000D01*
X122895088Y-96979832D01*
X122597537Y-97103082D01*
X122329748Y-97282013D01*
X122102013Y-97509748D01*
X121923082Y-97777537D01*
X121799832Y-98075088D01*
X121737000Y-98390967D01*
X120507000Y-98390967D01*
X120444168Y-98075088D01*
X120320918Y-97777537D01*
X120141987Y-97509748D01*
X119914252Y-97282013D01*
X119646463Y-97103082D01*
X119348912Y-96979832D01*
X119033033Y-96917000D01*
X118710967Y-96917000D01*
X118395088Y-96979832D01*
X118097537Y-97103082D01*
X117829748Y-97282013D01*
X117602013Y-97509748D01*
X117423082Y-97777537D01*
X117299832Y-98075088D01*
X117237000Y-98390967D01*
X94346386Y-98390967D01*
X94326836Y-98292688D01*
X94259821Y-98130901D01*
X94162531Y-97985296D01*
X94094235Y-97917000D01*
X94162531Y-97848704D01*
X94259821Y-97703099D01*
X94326836Y-97541312D01*
X94361000Y-97369559D01*
X94361000Y-97194441D01*
X94326836Y-97022688D01*
X94259821Y-96860901D01*
X94162531Y-96715296D01*
X94038704Y-96591469D01*
X93893099Y-96494179D01*
X93731312Y-96427164D01*
X93559559Y-96393000D01*
X93384441Y-96393000D01*
X93212688Y-96427164D01*
X93050901Y-96494179D01*
X92905296Y-96591469D01*
X92781469Y-96715296D01*
X92684179Y-96860901D01*
X92617164Y-97022688D01*
X92583000Y-97194441D01*
X81370664Y-97194441D01*
X81325990Y-97086589D01*
X81163475Y-96843368D01*
X80956632Y-96636525D01*
X80782240Y-96520000D01*
X80956632Y-96403475D01*
X81163475Y-96196632D01*
X81325990Y-95953411D01*
X81437932Y-95683158D01*
X81495000Y-95396260D01*
X81495000Y-95103740D01*
X81437932Y-94816842D01*
X81325990Y-94546589D01*
X81163475Y-94303368D01*
X80956632Y-94096525D01*
X80782240Y-93980000D01*
X80956632Y-93863475D01*
X81163475Y-93656632D01*
X81325990Y-93413411D01*
X81350942Y-93353170D01*
X102171500Y-93353170D01*
X102171500Y-93590830D01*
X102217865Y-93823923D01*
X102308813Y-94043492D01*
X102440850Y-94241099D01*
X102608901Y-94409150D01*
X102806508Y-94541187D01*
X103026077Y-94632135D01*
X103259170Y-94678500D01*
X103496830Y-94678500D01*
X103729923Y-94632135D01*
X103949492Y-94541187D01*
X104147099Y-94409150D01*
X104315150Y-94241099D01*
X104447187Y-94043492D01*
X104538135Y-93823923D01*
X104584500Y-93590830D01*
X104584500Y-93353170D01*
X104538135Y-93120077D01*
X104447187Y-92900508D01*
X104315150Y-92702901D01*
X104147099Y-92534850D01*
X103949492Y-92402813D01*
X103729923Y-92311865D01*
X103496830Y-92265500D01*
X103259170Y-92265500D01*
X103026077Y-92311865D01*
X102806508Y-92402813D01*
X102608901Y-92534850D01*
X102440850Y-92702901D01*
X102308813Y-92900508D01*
X102217865Y-93120077D01*
X102171500Y-93353170D01*
X81350942Y-93353170D01*
X81437932Y-93143158D01*
X81495000Y-92856260D01*
X81495000Y-92563740D01*
X81437932Y-92276842D01*
X81325990Y-92006589D01*
X81248734Y-91890967D01*
X117237000Y-91890967D01*
X117237000Y-92213033D01*
X117299832Y-92528912D01*
X117423082Y-92826463D01*
X117602013Y-93094252D01*
X117829748Y-93321987D01*
X118097537Y-93500918D01*
X118395088Y-93624168D01*
X118710967Y-93687000D01*
X119033033Y-93687000D01*
X119348912Y-93624168D01*
X119646463Y-93500918D01*
X119914252Y-93321987D01*
X120141987Y-93094252D01*
X120320918Y-92826463D01*
X120444168Y-92528912D01*
X120507000Y-92213033D01*
X120507000Y-91890967D01*
X121737000Y-91890967D01*
X121737000Y-92213033D01*
X121799832Y-92528912D01*
X121923082Y-92826463D01*
X122102013Y-93094252D01*
X122329748Y-93321987D01*
X122597537Y-93500918D01*
X122895088Y-93624168D01*
X123210967Y-93687000D01*
X123533033Y-93687000D01*
X123848912Y-93624168D01*
X124146463Y-93500918D01*
X124414252Y-93321987D01*
X124641987Y-93094252D01*
X124820918Y-92826463D01*
X124944168Y-92528912D01*
X125007000Y-92213033D01*
X125007000Y-91890967D01*
X125437000Y-91890967D01*
X125437000Y-92213033D01*
X125499832Y-92528912D01*
X125623082Y-92826463D01*
X125802013Y-93094252D01*
X126029748Y-93321987D01*
X126297537Y-93500918D01*
X126595088Y-93624168D01*
X126910967Y-93687000D01*
X127233033Y-93687000D01*
X127548912Y-93624168D01*
X127846463Y-93500918D01*
X128114252Y-93321987D01*
X128341987Y-93094252D01*
X128520918Y-92826463D01*
X128644168Y-92528912D01*
X128707000Y-92213033D01*
X128707000Y-91890967D01*
X129937000Y-91890967D01*
X129937000Y-92213033D01*
X129999832Y-92528912D01*
X130123082Y-92826463D01*
X130302013Y-93094252D01*
X130529748Y-93321987D01*
X130797537Y-93500918D01*
X131095088Y-93624168D01*
X131410967Y-93687000D01*
X131733033Y-93687000D01*
X132048912Y-93624168D01*
X132346463Y-93500918D01*
X132614252Y-93321987D01*
X132841987Y-93094252D01*
X133020918Y-92826463D01*
X133144168Y-92528912D01*
X133207000Y-92213033D01*
X133207000Y-91890967D01*
X133144168Y-91575088D01*
X133020918Y-91277537D01*
X132841987Y-91009748D01*
X132614252Y-90782013D01*
X132346463Y-90603082D01*
X132048912Y-90479832D01*
X131733033Y-90417000D01*
X131410967Y-90417000D01*
X131095088Y-90479832D01*
X130797537Y-90603082D01*
X130529748Y-90782013D01*
X130302013Y-91009748D01*
X130123082Y-91277537D01*
X129999832Y-91575088D01*
X129937000Y-91890967D01*
X128707000Y-91890967D01*
X128644168Y-91575088D01*
X128520918Y-91277537D01*
X128341987Y-91009748D01*
X128114252Y-90782013D01*
X127846463Y-90603082D01*
X127548912Y-90479832D01*
X127233033Y-90417000D01*
X126910967Y-90417000D01*
X126595088Y-90479832D01*
X126297537Y-90603082D01*
X126029748Y-90782013D01*
X125802013Y-91009748D01*
X125623082Y-91277537D01*
X125499832Y-91575088D01*
X125437000Y-91890967D01*
X125007000Y-91890967D01*
X124944168Y-91575088D01*
X124820918Y-91277537D01*
X124641987Y-91009748D01*
X124414252Y-90782013D01*
X124146463Y-90603082D01*
X123848912Y-90479832D01*
X123533033Y-90417000D01*
X123210967Y-90417000D01*
X122895088Y-90479832D01*
X122597537Y-90603082D01*
X122329748Y-90782013D01*
X122102013Y-91009748D01*
X121923082Y-91277537D01*
X121799832Y-91575088D01*
X121737000Y-91890967D01*
X120507000Y-91890967D01*
X120444168Y-91575088D01*
X120320918Y-91277537D01*
X120141987Y-91009748D01*
X119914252Y-90782013D01*
X119646463Y-90603082D01*
X119348912Y-90479832D01*
X119033033Y-90417000D01*
X118710967Y-90417000D01*
X118395088Y-90479832D01*
X118097537Y-90603082D01*
X117829748Y-90782013D01*
X117602013Y-91009748D01*
X117423082Y-91277537D01*
X117299832Y-91575088D01*
X117237000Y-91890967D01*
X81248734Y-91890967D01*
X81163475Y-91763368D01*
X80956632Y-91556525D01*
X80782240Y-91440000D01*
X80956632Y-91323475D01*
X81163475Y-91116632D01*
X81325990Y-90873411D01*
X81437932Y-90603158D01*
X81495000Y-90316260D01*
X81495000Y-90023740D01*
X81437932Y-89736842D01*
X81364682Y-89560000D01*
X96185751Y-89560000D01*
X96090850Y-89654901D01*
G37*
G04 #@! TD.AperFunction*
M02*
