G04 #@! TF.GenerationSoftware,KiCad,Pcbnew,(5.1.9-0-10_14)*
G04 #@! TF.CreationDate,2021-04-14T19:06:18-04:00*
G04 #@! TF.ProjectId,delux pet on a chip,64656c75-7820-4706-9574-206f6e206120,rev?*
G04 #@! TF.SameCoordinates,Original*
G04 #@! TF.FileFunction,Copper,L2,Inr*
G04 #@! TF.FilePolarity,Positive*
%FSLAX46Y46*%
G04 Gerber Fmt 4.6, Leading zero omitted, Abs format (unit mm)*
G04 Created by KiCad (PCBNEW (5.1.9-0-10_14)) date 2021-04-14 19:06:18*
%MOMM*%
%LPD*%
G01*
G04 APERTURE LIST*
G04 #@! TA.AperFunction,ComponentPad*
%ADD10R,1.700000X1.700000*%
G04 #@! TD*
G04 #@! TA.AperFunction,ComponentPad*
%ADD11O,1.700000X1.700000*%
G04 #@! TD*
G04 #@! TA.AperFunction,ComponentPad*
%ADD12C,3.500000*%
G04 #@! TD*
G04 #@! TA.AperFunction,ComponentPad*
%ADD13C,1.700000*%
G04 #@! TD*
G04 #@! TA.AperFunction,ComponentPad*
%ADD14C,2.000000*%
G04 #@! TD*
G04 #@! TA.AperFunction,ComponentPad*
%ADD15R,2.400000X2.400000*%
G04 #@! TD*
G04 #@! TA.AperFunction,ComponentPad*
%ADD16C,2.400000*%
G04 #@! TD*
G04 #@! TA.AperFunction,ComponentPad*
%ADD17C,4.065999*%
G04 #@! TD*
G04 #@! TA.AperFunction,ComponentPad*
%ADD18C,1.785000*%
G04 #@! TD*
G04 #@! TA.AperFunction,ComponentPad*
%ADD19R,1.785000X1.785000*%
G04 #@! TD*
G04 #@! TA.AperFunction,ViaPad*
%ADD20C,0.508000*%
G04 #@! TD*
G04 #@! TA.AperFunction,ViaPad*
%ADD21C,1.143000*%
G04 #@! TD*
G04 #@! TA.AperFunction,ViaPad*
%ADD22C,0.762000*%
G04 #@! TD*
G04 #@! TA.AperFunction,Conductor*
%ADD23C,0.254000*%
G04 #@! TD*
G04 #@! TA.AperFunction,Conductor*
%ADD24C,0.100000*%
G04 #@! TD*
G04 APERTURE END LIST*
D10*
X151130000Y-125730000D03*
D11*
X148590000Y-125730000D03*
X151130000Y-123190000D03*
X148590000Y-123190000D03*
X151130000Y-120650000D03*
X148590000Y-120650000D03*
X151130000Y-118110000D03*
X148590000Y-118110000D03*
X151130000Y-115570000D03*
X148590000Y-115570000D03*
X151130000Y-113030000D03*
X148590000Y-113030000D03*
X151130000Y-110490000D03*
X148590000Y-110490000D03*
X151130000Y-107950000D03*
X148590000Y-107950000D03*
X151130000Y-105410000D03*
X148590000Y-105410000D03*
X151130000Y-102870000D03*
X148590000Y-102870000D03*
X151130000Y-100330000D03*
X148590000Y-100330000D03*
X151130000Y-97790000D03*
X148590000Y-97790000D03*
X151130000Y-95250000D03*
X148590000Y-95250000D03*
X151130000Y-92710000D03*
X148590000Y-92710000D03*
X151130000Y-90170000D03*
X148590000Y-90170000D03*
X77470000Y-90170000D03*
X80010000Y-90170000D03*
X77470000Y-92710000D03*
X80010000Y-92710000D03*
X77470000Y-95250000D03*
X80010000Y-95250000D03*
X77470000Y-97790000D03*
X80010000Y-97790000D03*
X77470000Y-100330000D03*
X80010000Y-100330000D03*
X77470000Y-102870000D03*
X80010000Y-102870000D03*
X77470000Y-105410000D03*
X80010000Y-105410000D03*
X77470000Y-107950000D03*
X80010000Y-107950000D03*
X77470000Y-110490000D03*
X80010000Y-110490000D03*
X77470000Y-113030000D03*
X80010000Y-113030000D03*
X77470000Y-115570000D03*
X80010000Y-115570000D03*
X77470000Y-118110000D03*
X80010000Y-118110000D03*
X77470000Y-120650000D03*
X80010000Y-120650000D03*
X77470000Y-123190000D03*
X80010000Y-123190000D03*
X77470000Y-125730000D03*
D10*
X80010000Y-125730000D03*
D12*
X80995000Y-147864400D03*
X93035000Y-147864400D03*
D13*
X88265000Y-145154400D03*
X85765000Y-145154400D03*
X85765000Y-143154400D03*
D10*
X88265000Y-143154400D03*
D14*
X123372000Y-98552000D03*
X118872000Y-98552000D03*
X123372000Y-92052000D03*
X118872000Y-92052000D03*
D15*
X80518000Y-132644000D03*
D16*
X80518000Y-136144000D03*
D17*
X149147000Y-140716000D03*
X124157000Y-140716000D03*
D18*
X131822000Y-143256000D03*
X134112000Y-143256000D03*
X136402000Y-143256000D03*
X138692000Y-143256000D03*
X140982000Y-143256000D03*
X132967000Y-140716000D03*
X135257000Y-140716000D03*
X137547000Y-140716000D03*
X139837000Y-140716000D03*
X142127000Y-140716000D03*
X131822000Y-138176000D03*
X134112000Y-138176000D03*
X136402000Y-138176000D03*
X138692000Y-138176000D03*
D19*
X140982000Y-138176000D03*
D14*
X131572000Y-98552000D03*
X127072000Y-98552000D03*
X131572000Y-92052000D03*
X127072000Y-92052000D03*
D20*
X107442000Y-126492000D03*
X106934000Y-140462000D03*
X117056500Y-146875000D03*
X106820000Y-133394000D03*
X116586000Y-137414000D03*
X122428000Y-124714000D03*
X108813600Y-113665000D03*
X109626400Y-112877600D03*
X108813600Y-112877600D03*
X109626400Y-113690400D03*
X101285683Y-113223683D03*
X98465192Y-106218559D03*
X94488000Y-133604000D03*
D21*
X97028000Y-90424000D03*
X103378000Y-93472000D03*
D20*
X97028000Y-146050000D03*
X117154317Y-112969683D03*
X108330000Y-121540000D03*
X111506000Y-128524000D03*
X105918000Y-132080000D03*
X109220000Y-140462000D03*
X105156000Y-139851914D03*
X112742000Y-149318000D03*
X118618000Y-135636000D03*
X123672500Y-124739500D03*
X113284000Y-135382000D03*
X118110000Y-143002000D03*
X113792000Y-118110000D03*
D22*
X99314000Y-104140000D03*
D20*
X91694000Y-123952000D03*
X108026848Y-114477152D03*
X108026848Y-112090848D03*
X110413152Y-112090848D03*
X110413152Y-114477152D03*
X97282000Y-113284000D03*
D21*
X99314000Y-93759000D03*
X103378000Y-91948000D03*
D20*
X115062000Y-104902000D03*
X121182212Y-113342327D03*
X112020001Y-111297817D03*
X108204000Y-105918000D03*
X94996000Y-120396000D03*
X107213400Y-106680000D03*
X113284000Y-137160000D03*
X113284000Y-136398000D03*
X116586000Y-136144000D03*
X116586000Y-131318000D03*
X110490000Y-140462000D03*
X103886000Y-142240000D03*
X113538000Y-133350000D03*
X113284000Y-128778000D03*
X113284000Y-125222000D03*
X122428000Y-122682000D03*
X112522000Y-124460000D03*
X112522000Y-121158000D03*
X115570000Y-121158000D03*
X111206184Y-116884000D03*
X109982000Y-128524000D03*
X109982000Y-124460000D03*
X97282000Y-137922000D03*
X108458000Y-140462000D03*
X97282000Y-138684000D03*
X107696000Y-140462000D03*
X116586000Y-126492000D03*
X119761010Y-123316990D03*
X105156000Y-119126000D03*
X102616000Y-121666000D03*
X102108000Y-122174000D03*
X105156000Y-118490987D03*
X111233817Y-116084000D03*
X112020000Y-115297817D03*
X112020000Y-112097816D03*
X140970000Y-125730000D03*
X112020001Y-112897817D03*
X138684000Y-125730000D03*
X112020001Y-113697816D03*
X136398000Y-125730000D03*
D21*
X97014000Y-100330000D03*
D20*
X93472000Y-98552000D03*
X101853999Y-105917999D03*
X102363310Y-107213510D03*
X93472000Y-97282000D03*
X110433816Y-110484000D03*
X110744000Y-106934000D03*
X111233816Y-110483999D03*
X111506000Y-106426000D03*
X118364000Y-117856000D03*
X127762000Y-117856000D03*
X133858000Y-98552000D03*
X128016000Y-141478000D03*
X110744000Y-143256000D03*
X126365000Y-131572000D03*
D23*
X147162068Y-89736842D02*
X147105000Y-90023740D01*
X147105000Y-90316260D01*
X147162068Y-90603158D01*
X147274010Y-90873411D01*
X147436525Y-91116632D01*
X147643368Y-91323475D01*
X147817760Y-91440000D01*
X147643368Y-91556525D01*
X147436525Y-91763368D01*
X147274010Y-92006589D01*
X147162068Y-92276842D01*
X147105000Y-92563740D01*
X147105000Y-92856260D01*
X147162068Y-93143158D01*
X147274010Y-93413411D01*
X147436525Y-93656632D01*
X147643368Y-93863475D01*
X147817760Y-93980000D01*
X147643368Y-94096525D01*
X147436525Y-94303368D01*
X147274010Y-94546589D01*
X147162068Y-94816842D01*
X147105000Y-95103740D01*
X147105000Y-95396260D01*
X147162068Y-95683158D01*
X147274010Y-95953411D01*
X147436525Y-96196632D01*
X147643368Y-96403475D01*
X147817760Y-96520000D01*
X147643368Y-96636525D01*
X147436525Y-96843368D01*
X147274010Y-97086589D01*
X147162068Y-97356842D01*
X147105000Y-97643740D01*
X147105000Y-97936260D01*
X147162068Y-98223158D01*
X147274010Y-98493411D01*
X147436525Y-98736632D01*
X147643368Y-98943475D01*
X147817760Y-99060000D01*
X147643368Y-99176525D01*
X147436525Y-99383368D01*
X147274010Y-99626589D01*
X147162068Y-99896842D01*
X147105000Y-100183740D01*
X147105000Y-100476260D01*
X147162068Y-100763158D01*
X147274010Y-101033411D01*
X147436525Y-101276632D01*
X147643368Y-101483475D01*
X147817760Y-101600000D01*
X147643368Y-101716525D01*
X147436525Y-101923368D01*
X147274010Y-102166589D01*
X147162068Y-102436842D01*
X147105000Y-102723740D01*
X147105000Y-103016260D01*
X147162068Y-103303158D01*
X147274010Y-103573411D01*
X147436525Y-103816632D01*
X147643368Y-104023475D01*
X147817760Y-104140000D01*
X147643368Y-104256525D01*
X147436525Y-104463368D01*
X147274010Y-104706589D01*
X147162068Y-104976842D01*
X147105000Y-105263740D01*
X147105000Y-105556260D01*
X147162068Y-105843158D01*
X147274010Y-106113411D01*
X147436525Y-106356632D01*
X147643368Y-106563475D01*
X147817760Y-106680000D01*
X147643368Y-106796525D01*
X147436525Y-107003368D01*
X147274010Y-107246589D01*
X147162068Y-107516842D01*
X147105000Y-107803740D01*
X147105000Y-108096260D01*
X147162068Y-108383158D01*
X147274010Y-108653411D01*
X147436525Y-108896632D01*
X147643368Y-109103475D01*
X147817760Y-109220000D01*
X147643368Y-109336525D01*
X147436525Y-109543368D01*
X147274010Y-109786589D01*
X147162068Y-110056842D01*
X147105000Y-110343740D01*
X147105000Y-110636260D01*
X147162068Y-110923158D01*
X147274010Y-111193411D01*
X147436525Y-111436632D01*
X147643368Y-111643475D01*
X147817760Y-111760000D01*
X147643368Y-111876525D01*
X147436525Y-112083368D01*
X147274010Y-112326589D01*
X147162068Y-112596842D01*
X147105000Y-112883740D01*
X147105000Y-113176260D01*
X147162068Y-113463158D01*
X147274010Y-113733411D01*
X147436525Y-113976632D01*
X147643368Y-114183475D01*
X147817760Y-114300000D01*
X147643368Y-114416525D01*
X147436525Y-114623368D01*
X147274010Y-114866589D01*
X147162068Y-115136842D01*
X147105000Y-115423740D01*
X147105000Y-115716260D01*
X147162068Y-116003158D01*
X147274010Y-116273411D01*
X147436525Y-116516632D01*
X147643368Y-116723475D01*
X147817760Y-116840000D01*
X147643368Y-116956525D01*
X147436525Y-117163368D01*
X147274010Y-117406589D01*
X147162068Y-117676842D01*
X147105000Y-117963740D01*
X147105000Y-118256260D01*
X147162068Y-118543158D01*
X147274010Y-118813411D01*
X147436525Y-119056632D01*
X147643368Y-119263475D01*
X147817760Y-119380000D01*
X147643368Y-119496525D01*
X147436525Y-119703368D01*
X147274010Y-119946589D01*
X147162068Y-120216842D01*
X147105000Y-120503740D01*
X147105000Y-120796260D01*
X147162068Y-121083158D01*
X147274010Y-121353411D01*
X147436525Y-121596632D01*
X147643368Y-121803475D01*
X147817760Y-121920000D01*
X147643368Y-122036525D01*
X147436525Y-122243368D01*
X147274010Y-122486589D01*
X147162068Y-122756842D01*
X147105000Y-123043740D01*
X147105000Y-123336260D01*
X147162068Y-123623158D01*
X147274010Y-123893411D01*
X147436525Y-124136632D01*
X147643368Y-124343475D01*
X147825534Y-124465195D01*
X147708645Y-124534822D01*
X147492412Y-124729731D01*
X147318359Y-124963080D01*
X147193175Y-125225901D01*
X147148524Y-125373110D01*
X147269845Y-125603000D01*
X148463000Y-125603000D01*
X148463000Y-125583000D01*
X148717000Y-125583000D01*
X148717000Y-125603000D01*
X151003000Y-125603000D01*
X151003000Y-125583000D01*
X151257000Y-125583000D01*
X151257000Y-125603000D01*
X151277000Y-125603000D01*
X151277000Y-125857000D01*
X151257000Y-125857000D01*
X151257000Y-127056250D01*
X151415750Y-127215000D01*
X151740000Y-127216765D01*
X151740000Y-140068969D01*
X151615423Y-139669983D01*
X151388113Y-139244717D01*
X151017976Y-139024630D01*
X149326605Y-140716000D01*
X151017976Y-142407370D01*
X151388113Y-142187283D01*
X151632084Y-141721794D01*
X151740000Y-141355355D01*
X151740000Y-151740000D01*
X76860000Y-151740000D01*
X76860000Y-149534009D01*
X79504997Y-149534009D01*
X79691073Y-149875166D01*
X80108409Y-150090913D01*
X80559815Y-150221096D01*
X81027946Y-150260713D01*
X81494811Y-150208242D01*
X81942468Y-150065697D01*
X82298927Y-149875166D01*
X82485003Y-149534009D01*
X91544997Y-149534009D01*
X91731073Y-149875166D01*
X92148409Y-150090913D01*
X92599815Y-150221096D01*
X93067946Y-150260713D01*
X93534811Y-150208242D01*
X93982468Y-150065697D01*
X94338927Y-149875166D01*
X94525003Y-149534009D01*
X93035000Y-148044005D01*
X91544997Y-149534009D01*
X82485003Y-149534009D01*
X80995000Y-148044005D01*
X79504997Y-149534009D01*
X76860000Y-149534009D01*
X76860000Y-147897346D01*
X78598687Y-147897346D01*
X78651158Y-148364211D01*
X78793703Y-148811868D01*
X78984234Y-149168327D01*
X79325391Y-149354403D01*
X80815395Y-147864400D01*
X81174605Y-147864400D01*
X82664609Y-149354403D01*
X83005766Y-149168327D01*
X83221513Y-148750991D01*
X83351696Y-148299585D01*
X83385736Y-147897346D01*
X90638687Y-147897346D01*
X90691158Y-148364211D01*
X90833703Y-148811868D01*
X91024234Y-149168327D01*
X91365391Y-149354403D01*
X92855395Y-147864400D01*
X93214605Y-147864400D01*
X94704609Y-149354403D01*
X94931884Y-149230441D01*
X111853000Y-149230441D01*
X111853000Y-149405559D01*
X111887164Y-149577312D01*
X111954179Y-149739099D01*
X112051469Y-149884704D01*
X112175296Y-150008531D01*
X112320901Y-150105821D01*
X112482688Y-150172836D01*
X112654441Y-150207000D01*
X112829559Y-150207000D01*
X113001312Y-150172836D01*
X113163099Y-150105821D01*
X113308704Y-150008531D01*
X113432531Y-149884704D01*
X113529821Y-149739099D01*
X113596836Y-149577312D01*
X113631000Y-149405559D01*
X113631000Y-149230441D01*
X113596836Y-149058688D01*
X113529821Y-148896901D01*
X113432531Y-148751296D01*
X113308704Y-148627469D01*
X113163099Y-148530179D01*
X113001312Y-148463164D01*
X112829559Y-148429000D01*
X112654441Y-148429000D01*
X112482688Y-148463164D01*
X112320901Y-148530179D01*
X112175296Y-148627469D01*
X112051469Y-148751296D01*
X111954179Y-148896901D01*
X111887164Y-149058688D01*
X111853000Y-149230441D01*
X94931884Y-149230441D01*
X95045766Y-149168327D01*
X95261513Y-148750991D01*
X95391696Y-148299585D01*
X95431313Y-147831454D01*
X95378842Y-147364589D01*
X95236297Y-146916932D01*
X95045766Y-146560473D01*
X94704609Y-146374397D01*
X93214605Y-147864400D01*
X92855395Y-147864400D01*
X91365391Y-146374397D01*
X91024234Y-146560473D01*
X90808487Y-146977809D01*
X90678304Y-147429215D01*
X90638687Y-147897346D01*
X83385736Y-147897346D01*
X83391313Y-147831454D01*
X83338842Y-147364589D01*
X83196297Y-146916932D01*
X83005766Y-146560473D01*
X82664609Y-146374397D01*
X81174605Y-147864400D01*
X80815395Y-147864400D01*
X79325391Y-146374397D01*
X78984234Y-146560473D01*
X78768487Y-146977809D01*
X78638304Y-147429215D01*
X78598687Y-147897346D01*
X76860000Y-147897346D01*
X76860000Y-146194791D01*
X79504997Y-146194791D01*
X80995000Y-147684795D01*
X82485003Y-146194791D01*
X82298927Y-145853634D01*
X81881591Y-145637887D01*
X81430185Y-145507704D01*
X80962054Y-145468087D01*
X80495189Y-145520558D01*
X80047532Y-145663103D01*
X79691073Y-145853634D01*
X79504997Y-146194791D01*
X76860000Y-146194791D01*
X76860000Y-143008140D01*
X84280000Y-143008140D01*
X84280000Y-143300660D01*
X84337068Y-143587558D01*
X84449010Y-143857811D01*
X84611525Y-144101032D01*
X84664893Y-144154400D01*
X84611525Y-144207768D01*
X84449010Y-144450989D01*
X84337068Y-144721242D01*
X84280000Y-145008140D01*
X84280000Y-145300660D01*
X84337068Y-145587558D01*
X84449010Y-145857811D01*
X84611525Y-146101032D01*
X84818368Y-146307875D01*
X85061589Y-146470390D01*
X85331842Y-146582332D01*
X85618740Y-146639400D01*
X85911260Y-146639400D01*
X86198158Y-146582332D01*
X86468411Y-146470390D01*
X86711632Y-146307875D01*
X86836710Y-146182797D01*
X87416208Y-146182797D01*
X87493843Y-146431872D01*
X87757883Y-146557771D01*
X88041411Y-146629739D01*
X88333531Y-146645011D01*
X88623019Y-146602999D01*
X88898747Y-146505319D01*
X89036157Y-146431872D01*
X89110053Y-146194791D01*
X91544997Y-146194791D01*
X93035000Y-147684795D01*
X94525003Y-146194791D01*
X94338927Y-145853634D01*
X93921591Y-145637887D01*
X93470185Y-145507704D01*
X93002054Y-145468087D01*
X92535189Y-145520558D01*
X92087532Y-145663103D01*
X91731073Y-145853634D01*
X91544997Y-146194791D01*
X89110053Y-146194791D01*
X89113792Y-146182797D01*
X88265000Y-145334005D01*
X87416208Y-146182797D01*
X86836710Y-146182797D01*
X86918475Y-146101032D01*
X87027416Y-145937990D01*
X87236603Y-146003192D01*
X88085395Y-145154400D01*
X88071253Y-145140258D01*
X88250858Y-144960653D01*
X88265000Y-144974795D01*
X88279143Y-144960653D01*
X88458748Y-145140258D01*
X88444605Y-145154400D01*
X89293397Y-146003192D01*
X89542472Y-145925557D01*
X89668371Y-145661517D01*
X89740339Y-145377989D01*
X89755611Y-145085869D01*
X89713599Y-144796381D01*
X89615919Y-144520653D01*
X89575241Y-144444550D01*
X89645537Y-144358894D01*
X89704502Y-144248580D01*
X89740812Y-144128882D01*
X89753072Y-144004400D01*
X89753072Y-143168441D01*
X109855000Y-143168441D01*
X109855000Y-143343559D01*
X109889164Y-143515312D01*
X109956179Y-143677099D01*
X110053469Y-143822704D01*
X110177296Y-143946531D01*
X110322901Y-144043821D01*
X110484688Y-144110836D01*
X110656441Y-144145000D01*
X110831559Y-144145000D01*
X111003312Y-144110836D01*
X111165099Y-144043821D01*
X111310704Y-143946531D01*
X111434531Y-143822704D01*
X111531821Y-143677099D01*
X111598836Y-143515312D01*
X111633000Y-143343559D01*
X111633000Y-143168441D01*
X111598836Y-142996688D01*
X111564768Y-142914441D01*
X117221000Y-142914441D01*
X117221000Y-143089559D01*
X117255164Y-143261312D01*
X117322179Y-143423099D01*
X117419469Y-143568704D01*
X117543296Y-143692531D01*
X117688901Y-143789821D01*
X117850688Y-143856836D01*
X118022441Y-143891000D01*
X118197559Y-143891000D01*
X118369312Y-143856836D01*
X118531099Y-143789821D01*
X118676704Y-143692531D01*
X118800531Y-143568704D01*
X118897821Y-143423099D01*
X118964836Y-143261312D01*
X118999000Y-143089559D01*
X118999000Y-142914441D01*
X118964836Y-142742688D01*
X118900338Y-142586976D01*
X122465630Y-142586976D01*
X122685717Y-142957113D01*
X123151206Y-143201084D01*
X123655349Y-143349554D01*
X124178769Y-143396819D01*
X124701352Y-143341060D01*
X125203017Y-143184423D01*
X125350570Y-143105554D01*
X130294500Y-143105554D01*
X130294500Y-143406446D01*
X130353201Y-143701555D01*
X130468347Y-143979543D01*
X130635513Y-144229725D01*
X130848275Y-144442487D01*
X131098457Y-144609653D01*
X131376445Y-144724799D01*
X131671554Y-144783500D01*
X131972446Y-144783500D01*
X132267555Y-144724799D01*
X132545543Y-144609653D01*
X132795725Y-144442487D01*
X132967000Y-144271212D01*
X133138275Y-144442487D01*
X133388457Y-144609653D01*
X133666445Y-144724799D01*
X133961554Y-144783500D01*
X134262446Y-144783500D01*
X134557555Y-144724799D01*
X134835543Y-144609653D01*
X135085725Y-144442487D01*
X135257000Y-144271212D01*
X135428275Y-144442487D01*
X135678457Y-144609653D01*
X135956445Y-144724799D01*
X136251554Y-144783500D01*
X136552446Y-144783500D01*
X136847555Y-144724799D01*
X137125543Y-144609653D01*
X137375725Y-144442487D01*
X137547000Y-144271212D01*
X137718275Y-144442487D01*
X137968457Y-144609653D01*
X138246445Y-144724799D01*
X138541554Y-144783500D01*
X138842446Y-144783500D01*
X139137555Y-144724799D01*
X139415543Y-144609653D01*
X139665725Y-144442487D01*
X139837000Y-144271212D01*
X140008275Y-144442487D01*
X140258457Y-144609653D01*
X140536445Y-144724799D01*
X140831554Y-144783500D01*
X141132446Y-144783500D01*
X141427555Y-144724799D01*
X141705543Y-144609653D01*
X141955725Y-144442487D01*
X142168487Y-144229725D01*
X142335653Y-143979543D01*
X142450799Y-143701555D01*
X142509500Y-143406446D01*
X142509500Y-143105554D01*
X142450799Y-142810445D01*
X142358236Y-142586976D01*
X147455630Y-142586976D01*
X147675717Y-142957113D01*
X148141206Y-143201084D01*
X148645349Y-143349554D01*
X149168769Y-143396819D01*
X149691352Y-143341060D01*
X150193017Y-143184423D01*
X150618283Y-142957113D01*
X150838370Y-142586976D01*
X149147000Y-140895605D01*
X147455630Y-142586976D01*
X142358236Y-142586976D01*
X142335653Y-142532457D01*
X142168487Y-142282275D01*
X142129712Y-142243500D01*
X142277446Y-142243500D01*
X142572555Y-142184799D01*
X142850543Y-142069653D01*
X143100725Y-141902487D01*
X143313487Y-141689725D01*
X143480653Y-141439543D01*
X143595799Y-141161555D01*
X143654500Y-140866446D01*
X143654500Y-140737769D01*
X146466181Y-140737769D01*
X146521940Y-141260352D01*
X146678577Y-141762017D01*
X146905887Y-142187283D01*
X147276024Y-142407370D01*
X148967395Y-140716000D01*
X147276024Y-139024630D01*
X146905887Y-139244717D01*
X146661916Y-139710206D01*
X146513446Y-140214349D01*
X146466181Y-140737769D01*
X143654500Y-140737769D01*
X143654500Y-140565554D01*
X143595799Y-140270445D01*
X143480653Y-139992457D01*
X143313487Y-139742275D01*
X143100725Y-139529513D01*
X142850543Y-139362347D01*
X142572555Y-139247201D01*
X142488912Y-139230563D01*
X142500312Y-139192982D01*
X142512572Y-139068500D01*
X142512572Y-138845024D01*
X147455630Y-138845024D01*
X149147000Y-140536395D01*
X150838370Y-138845024D01*
X150618283Y-138474887D01*
X150152794Y-138230916D01*
X149648651Y-138082446D01*
X149125231Y-138035181D01*
X148602648Y-138090940D01*
X148100983Y-138247577D01*
X147675717Y-138474887D01*
X147455630Y-138845024D01*
X142512572Y-138845024D01*
X142512572Y-137283500D01*
X142500312Y-137159018D01*
X142464002Y-137039320D01*
X142405037Y-136929006D01*
X142325685Y-136832315D01*
X142228994Y-136752963D01*
X142118680Y-136693998D01*
X141998982Y-136657688D01*
X141874500Y-136645428D01*
X140089500Y-136645428D01*
X139965018Y-136657688D01*
X139845320Y-136693998D01*
X139735006Y-136752963D01*
X139638315Y-136832315D01*
X139564703Y-136922012D01*
X139415543Y-136822347D01*
X139137555Y-136707201D01*
X138842446Y-136648500D01*
X138541554Y-136648500D01*
X138246445Y-136707201D01*
X137968457Y-136822347D01*
X137718275Y-136989513D01*
X137547000Y-137160788D01*
X137375725Y-136989513D01*
X137125543Y-136822347D01*
X136847555Y-136707201D01*
X136552446Y-136648500D01*
X136251554Y-136648500D01*
X135956445Y-136707201D01*
X135678457Y-136822347D01*
X135428275Y-136989513D01*
X135257000Y-137160788D01*
X135085725Y-136989513D01*
X134835543Y-136822347D01*
X134557555Y-136707201D01*
X134262446Y-136648500D01*
X133961554Y-136648500D01*
X133666445Y-136707201D01*
X133388457Y-136822347D01*
X133138275Y-136989513D01*
X132925513Y-137202275D01*
X132825198Y-137352407D01*
X132001605Y-138176000D01*
X132015748Y-138190143D01*
X131836143Y-138369748D01*
X131822000Y-138355605D01*
X130942877Y-139234728D01*
X131025652Y-139488144D01*
X131296941Y-139618291D01*
X131588407Y-139693012D01*
X131808181Y-139705025D01*
X131792299Y-139720907D01*
X131908270Y-139836878D01*
X131654856Y-139919652D01*
X131524709Y-140190941D01*
X131449988Y-140482407D01*
X131433565Y-140782849D01*
X131476071Y-141080723D01*
X131575873Y-141364580D01*
X131654856Y-141512348D01*
X131908270Y-141595122D01*
X131792299Y-141711093D01*
X131809706Y-141728500D01*
X131671554Y-141728500D01*
X131376445Y-141787201D01*
X131098457Y-141902347D01*
X130848275Y-142069513D01*
X130635513Y-142282275D01*
X130468347Y-142532457D01*
X130353201Y-142810445D01*
X130294500Y-143105554D01*
X125350570Y-143105554D01*
X125628283Y-142957113D01*
X125848370Y-142586976D01*
X124157000Y-140895605D01*
X122465630Y-142586976D01*
X118900338Y-142586976D01*
X118897821Y-142580901D01*
X118800531Y-142435296D01*
X118676704Y-142311469D01*
X118531099Y-142214179D01*
X118369312Y-142147164D01*
X118197559Y-142113000D01*
X118022441Y-142113000D01*
X117850688Y-142147164D01*
X117688901Y-142214179D01*
X117543296Y-142311469D01*
X117419469Y-142435296D01*
X117322179Y-142580901D01*
X117255164Y-142742688D01*
X117221000Y-142914441D01*
X111564768Y-142914441D01*
X111531821Y-142834901D01*
X111434531Y-142689296D01*
X111310704Y-142565469D01*
X111165099Y-142468179D01*
X111003312Y-142401164D01*
X110831559Y-142367000D01*
X110656441Y-142367000D01*
X110484688Y-142401164D01*
X110322901Y-142468179D01*
X110177296Y-142565469D01*
X110053469Y-142689296D01*
X109956179Y-142834901D01*
X109889164Y-142996688D01*
X109855000Y-143168441D01*
X89753072Y-143168441D01*
X89753072Y-142304400D01*
X89740812Y-142179918D01*
X89732477Y-142152441D01*
X102997000Y-142152441D01*
X102997000Y-142327559D01*
X103031164Y-142499312D01*
X103098179Y-142661099D01*
X103195469Y-142806704D01*
X103319296Y-142930531D01*
X103464901Y-143027821D01*
X103626688Y-143094836D01*
X103798441Y-143129000D01*
X103973559Y-143129000D01*
X104145312Y-143094836D01*
X104307099Y-143027821D01*
X104452704Y-142930531D01*
X104576531Y-142806704D01*
X104673821Y-142661099D01*
X104740836Y-142499312D01*
X104775000Y-142327559D01*
X104775000Y-142152441D01*
X104740836Y-141980688D01*
X104673821Y-141818901D01*
X104576531Y-141673296D01*
X104452704Y-141549469D01*
X104307099Y-141452179D01*
X104145312Y-141385164D01*
X103973559Y-141351000D01*
X103798441Y-141351000D01*
X103626688Y-141385164D01*
X103464901Y-141452179D01*
X103319296Y-141549469D01*
X103195469Y-141673296D01*
X103098179Y-141818901D01*
X103031164Y-141980688D01*
X102997000Y-142152441D01*
X89732477Y-142152441D01*
X89704502Y-142060220D01*
X89645537Y-141949906D01*
X89566185Y-141853215D01*
X89469494Y-141773863D01*
X89359180Y-141714898D01*
X89239482Y-141678588D01*
X89115000Y-141666328D01*
X87415000Y-141666328D01*
X87290518Y-141678588D01*
X87170820Y-141714898D01*
X87060506Y-141773863D01*
X86963815Y-141853215D01*
X86884463Y-141949906D01*
X86825498Y-142060220D01*
X86812797Y-142102090D01*
X86711632Y-142000925D01*
X86468411Y-141838410D01*
X86198158Y-141726468D01*
X85911260Y-141669400D01*
X85618740Y-141669400D01*
X85331842Y-141726468D01*
X85061589Y-141838410D01*
X84818368Y-142000925D01*
X84611525Y-142207768D01*
X84449010Y-142450989D01*
X84337068Y-142721242D01*
X84280000Y-143008140D01*
X76860000Y-143008140D01*
X76860000Y-139764355D01*
X104267000Y-139764355D01*
X104267000Y-139939473D01*
X104301164Y-140111226D01*
X104368179Y-140273013D01*
X104465469Y-140418618D01*
X104589296Y-140542445D01*
X104734901Y-140639735D01*
X104896688Y-140706750D01*
X105068441Y-140740914D01*
X105243559Y-140740914D01*
X105415312Y-140706750D01*
X105577099Y-140639735D01*
X105722704Y-140542445D01*
X105846531Y-140418618D01*
X105876049Y-140374441D01*
X106807000Y-140374441D01*
X106807000Y-140549559D01*
X106841164Y-140721312D01*
X106908179Y-140883099D01*
X107005469Y-141028704D01*
X107129296Y-141152531D01*
X107274901Y-141249821D01*
X107436688Y-141316836D01*
X107608441Y-141351000D01*
X107783559Y-141351000D01*
X107955312Y-141316836D01*
X108077000Y-141266431D01*
X108198688Y-141316836D01*
X108370441Y-141351000D01*
X108545559Y-141351000D01*
X108717312Y-141316836D01*
X108839000Y-141266431D01*
X108960688Y-141316836D01*
X109132441Y-141351000D01*
X109307559Y-141351000D01*
X109479312Y-141316836D01*
X109641099Y-141249821D01*
X109786704Y-141152531D01*
X109855000Y-141084235D01*
X109923296Y-141152531D01*
X110068901Y-141249821D01*
X110230688Y-141316836D01*
X110402441Y-141351000D01*
X110577559Y-141351000D01*
X110749312Y-141316836D01*
X110911099Y-141249821D01*
X111056704Y-141152531D01*
X111180531Y-141028704D01*
X111277821Y-140883099D01*
X111338019Y-140737769D01*
X121476181Y-140737769D01*
X121531940Y-141260352D01*
X121688577Y-141762017D01*
X121915887Y-142187283D01*
X122286024Y-142407370D01*
X123977395Y-140716000D01*
X124336605Y-140716000D01*
X126027976Y-142407370D01*
X126398113Y-142187283D01*
X126642084Y-141721794D01*
X126739667Y-141390441D01*
X127127000Y-141390441D01*
X127127000Y-141565559D01*
X127161164Y-141737312D01*
X127228179Y-141899099D01*
X127325469Y-142044704D01*
X127449296Y-142168531D01*
X127594901Y-142265821D01*
X127756688Y-142332836D01*
X127928441Y-142367000D01*
X128103559Y-142367000D01*
X128275312Y-142332836D01*
X128437099Y-142265821D01*
X128582704Y-142168531D01*
X128706531Y-142044704D01*
X128803821Y-141899099D01*
X128870836Y-141737312D01*
X128905000Y-141565559D01*
X128905000Y-141390441D01*
X128870836Y-141218688D01*
X128803821Y-141056901D01*
X128706531Y-140911296D01*
X128582704Y-140787469D01*
X128437099Y-140690179D01*
X128275312Y-140623164D01*
X128103559Y-140589000D01*
X127928441Y-140589000D01*
X127756688Y-140623164D01*
X127594901Y-140690179D01*
X127449296Y-140787469D01*
X127325469Y-140911296D01*
X127228179Y-141056901D01*
X127161164Y-141218688D01*
X127127000Y-141390441D01*
X126739667Y-141390441D01*
X126790554Y-141217651D01*
X126837819Y-140694231D01*
X126782060Y-140171648D01*
X126625423Y-139669983D01*
X126398113Y-139244717D01*
X126027976Y-139024630D01*
X124336605Y-140716000D01*
X123977395Y-140716000D01*
X122286024Y-139024630D01*
X121915887Y-139244717D01*
X121671916Y-139710206D01*
X121523446Y-140214349D01*
X121476181Y-140737769D01*
X111338019Y-140737769D01*
X111344836Y-140721312D01*
X111379000Y-140549559D01*
X111379000Y-140374441D01*
X111344836Y-140202688D01*
X111277821Y-140040901D01*
X111180531Y-139895296D01*
X111056704Y-139771469D01*
X110911099Y-139674179D01*
X110749312Y-139607164D01*
X110577559Y-139573000D01*
X110402441Y-139573000D01*
X110230688Y-139607164D01*
X110068901Y-139674179D01*
X109923296Y-139771469D01*
X109855000Y-139839765D01*
X109786704Y-139771469D01*
X109641099Y-139674179D01*
X109479312Y-139607164D01*
X109307559Y-139573000D01*
X109132441Y-139573000D01*
X108960688Y-139607164D01*
X108839000Y-139657569D01*
X108717312Y-139607164D01*
X108545559Y-139573000D01*
X108370441Y-139573000D01*
X108198688Y-139607164D01*
X108077000Y-139657569D01*
X107955312Y-139607164D01*
X107783559Y-139573000D01*
X107608441Y-139573000D01*
X107436688Y-139607164D01*
X107274901Y-139674179D01*
X107129296Y-139771469D01*
X107005469Y-139895296D01*
X106908179Y-140040901D01*
X106841164Y-140202688D01*
X106807000Y-140374441D01*
X105876049Y-140374441D01*
X105943821Y-140273013D01*
X106010836Y-140111226D01*
X106045000Y-139939473D01*
X106045000Y-139764355D01*
X106010836Y-139592602D01*
X105943821Y-139430815D01*
X105846531Y-139285210D01*
X105722704Y-139161383D01*
X105577099Y-139064093D01*
X105415312Y-138997078D01*
X105243559Y-138962914D01*
X105068441Y-138962914D01*
X104896688Y-138997078D01*
X104734901Y-139064093D01*
X104589296Y-139161383D01*
X104465469Y-139285210D01*
X104368179Y-139430815D01*
X104301164Y-139592602D01*
X104267000Y-139764355D01*
X76860000Y-139764355D01*
X76860000Y-133844000D01*
X78679928Y-133844000D01*
X78692188Y-133968482D01*
X78728498Y-134088180D01*
X78787463Y-134198494D01*
X78866815Y-134295185D01*
X78963506Y-134374537D01*
X79073820Y-134433502D01*
X79193518Y-134469812D01*
X79318000Y-134482072D01*
X79738574Y-134480659D01*
X79648801Y-134517844D01*
X79348256Y-134718662D01*
X79092662Y-134974256D01*
X78891844Y-135274801D01*
X78753518Y-135608750D01*
X78683000Y-135963268D01*
X78683000Y-136324732D01*
X78753518Y-136679250D01*
X78891844Y-137013199D01*
X79092662Y-137313744D01*
X79348256Y-137569338D01*
X79648801Y-137770156D01*
X79982750Y-137908482D01*
X80337268Y-137979000D01*
X80698732Y-137979000D01*
X81053250Y-137908482D01*
X81232001Y-137834441D01*
X96393000Y-137834441D01*
X96393000Y-138009559D01*
X96427164Y-138181312D01*
X96477569Y-138303000D01*
X96427164Y-138424688D01*
X96393000Y-138596441D01*
X96393000Y-138771559D01*
X96427164Y-138943312D01*
X96494179Y-139105099D01*
X96591469Y-139250704D01*
X96715296Y-139374531D01*
X96860901Y-139471821D01*
X97022688Y-139538836D01*
X97194441Y-139573000D01*
X97369559Y-139573000D01*
X97541312Y-139538836D01*
X97703099Y-139471821D01*
X97848704Y-139374531D01*
X97972531Y-139250704D01*
X98069821Y-139105099D01*
X98136836Y-138943312D01*
X98156386Y-138845024D01*
X122465630Y-138845024D01*
X124157000Y-140536395D01*
X125848370Y-138845024D01*
X125628283Y-138474887D01*
X125185562Y-138242849D01*
X130288565Y-138242849D01*
X130331071Y-138540723D01*
X130430873Y-138824580D01*
X130509856Y-138972348D01*
X130763272Y-139055123D01*
X131642395Y-138176000D01*
X130763272Y-137296877D01*
X130509856Y-137379652D01*
X130379709Y-137650941D01*
X130304988Y-137942407D01*
X130288565Y-138242849D01*
X125185562Y-138242849D01*
X125162794Y-138230916D01*
X124658651Y-138082446D01*
X124135231Y-138035181D01*
X123612648Y-138090940D01*
X123110983Y-138247577D01*
X122685717Y-138474887D01*
X122465630Y-138845024D01*
X98156386Y-138845024D01*
X98171000Y-138771559D01*
X98171000Y-138596441D01*
X98136836Y-138424688D01*
X98086431Y-138303000D01*
X98136836Y-138181312D01*
X98171000Y-138009559D01*
X98171000Y-137834441D01*
X98136836Y-137662688D01*
X98069821Y-137500901D01*
X97972531Y-137355296D01*
X97848704Y-137231469D01*
X97703099Y-137134179D01*
X97541312Y-137067164D01*
X97369559Y-137033000D01*
X97194441Y-137033000D01*
X97022688Y-137067164D01*
X96860901Y-137134179D01*
X96715296Y-137231469D01*
X96591469Y-137355296D01*
X96494179Y-137500901D01*
X96427164Y-137662688D01*
X96393000Y-137834441D01*
X81232001Y-137834441D01*
X81387199Y-137770156D01*
X81687744Y-137569338D01*
X81943338Y-137313744D01*
X82144156Y-137013199D01*
X82282482Y-136679250D01*
X82353000Y-136324732D01*
X82353000Y-135963268D01*
X82282482Y-135608750D01*
X82152292Y-135294441D01*
X112395000Y-135294441D01*
X112395000Y-135469559D01*
X112429164Y-135641312D01*
X112496179Y-135803099D01*
X112554244Y-135890000D01*
X112496179Y-135976901D01*
X112429164Y-136138688D01*
X112395000Y-136310441D01*
X112395000Y-136485559D01*
X112429164Y-136657312D01*
X112479569Y-136779000D01*
X112429164Y-136900688D01*
X112395000Y-137072441D01*
X112395000Y-137247559D01*
X112429164Y-137419312D01*
X112496179Y-137581099D01*
X112593469Y-137726704D01*
X112717296Y-137850531D01*
X112862901Y-137947821D01*
X113024688Y-138014836D01*
X113196441Y-138049000D01*
X113371559Y-138049000D01*
X113543312Y-138014836D01*
X113705099Y-137947821D01*
X113850704Y-137850531D01*
X113974531Y-137726704D01*
X114071821Y-137581099D01*
X114138836Y-137419312D01*
X114173000Y-137247559D01*
X114173000Y-137117272D01*
X130942877Y-137117272D01*
X131822000Y-137996395D01*
X132701123Y-137117272D01*
X132618348Y-136863856D01*
X132347059Y-136733709D01*
X132055593Y-136658988D01*
X131755151Y-136642565D01*
X131457277Y-136685071D01*
X131173420Y-136784873D01*
X131025652Y-136863856D01*
X130942877Y-137117272D01*
X114173000Y-137117272D01*
X114173000Y-137072441D01*
X114138836Y-136900688D01*
X114088431Y-136779000D01*
X114138836Y-136657312D01*
X114173000Y-136485559D01*
X114173000Y-136310441D01*
X114138836Y-136138688D01*
X114104768Y-136056441D01*
X115697000Y-136056441D01*
X115697000Y-136231559D01*
X115731164Y-136403312D01*
X115798179Y-136565099D01*
X115895469Y-136710704D01*
X116019296Y-136834531D01*
X116164901Y-136931821D01*
X116326688Y-136998836D01*
X116498441Y-137033000D01*
X116673559Y-137033000D01*
X116845312Y-136998836D01*
X117007099Y-136931821D01*
X117152704Y-136834531D01*
X117276531Y-136710704D01*
X117373821Y-136565099D01*
X117440836Y-136403312D01*
X117475000Y-136231559D01*
X117475000Y-136056441D01*
X117440836Y-135884688D01*
X117373821Y-135722901D01*
X117276531Y-135577296D01*
X117247676Y-135548441D01*
X117729000Y-135548441D01*
X117729000Y-135723559D01*
X117763164Y-135895312D01*
X117830179Y-136057099D01*
X117927469Y-136202704D01*
X118051296Y-136326531D01*
X118196901Y-136423821D01*
X118358688Y-136490836D01*
X118530441Y-136525000D01*
X118705559Y-136525000D01*
X118877312Y-136490836D01*
X119039099Y-136423821D01*
X119184704Y-136326531D01*
X119308531Y-136202704D01*
X119405821Y-136057099D01*
X119472836Y-135895312D01*
X119507000Y-135723559D01*
X119507000Y-135548441D01*
X119472836Y-135376688D01*
X119405821Y-135214901D01*
X119308531Y-135069296D01*
X119184704Y-134945469D01*
X119039099Y-134848179D01*
X118877312Y-134781164D01*
X118705559Y-134747000D01*
X118530441Y-134747000D01*
X118358688Y-134781164D01*
X118196901Y-134848179D01*
X118051296Y-134945469D01*
X117927469Y-135069296D01*
X117830179Y-135214901D01*
X117763164Y-135376688D01*
X117729000Y-135548441D01*
X117247676Y-135548441D01*
X117152704Y-135453469D01*
X117007099Y-135356179D01*
X116845312Y-135289164D01*
X116673559Y-135255000D01*
X116498441Y-135255000D01*
X116326688Y-135289164D01*
X116164901Y-135356179D01*
X116019296Y-135453469D01*
X115895469Y-135577296D01*
X115798179Y-135722901D01*
X115731164Y-135884688D01*
X115697000Y-136056441D01*
X114104768Y-136056441D01*
X114071821Y-135976901D01*
X114013756Y-135890000D01*
X114071821Y-135803099D01*
X114138836Y-135641312D01*
X114173000Y-135469559D01*
X114173000Y-135294441D01*
X114138836Y-135122688D01*
X114071821Y-134960901D01*
X113974531Y-134815296D01*
X113850704Y-134691469D01*
X113705099Y-134594179D01*
X113543312Y-134527164D01*
X113371559Y-134493000D01*
X113196441Y-134493000D01*
X113024688Y-134527164D01*
X112862901Y-134594179D01*
X112717296Y-134691469D01*
X112593469Y-134815296D01*
X112496179Y-134960901D01*
X112429164Y-135122688D01*
X112395000Y-135294441D01*
X82152292Y-135294441D01*
X82144156Y-135274801D01*
X81943338Y-134974256D01*
X81687744Y-134718662D01*
X81387199Y-134517844D01*
X81297426Y-134480659D01*
X81718000Y-134482072D01*
X81842482Y-134469812D01*
X81962180Y-134433502D01*
X82072494Y-134374537D01*
X82169185Y-134295185D01*
X82248537Y-134198494D01*
X82307502Y-134088180D01*
X82343812Y-133968482D01*
X82356072Y-133844000D01*
X82354118Y-133262441D01*
X112649000Y-133262441D01*
X112649000Y-133437559D01*
X112683164Y-133609312D01*
X112750179Y-133771099D01*
X112847469Y-133916704D01*
X112971296Y-134040531D01*
X113116901Y-134137821D01*
X113278688Y-134204836D01*
X113450441Y-134239000D01*
X113625559Y-134239000D01*
X113797312Y-134204836D01*
X113959099Y-134137821D01*
X114104704Y-134040531D01*
X114228531Y-133916704D01*
X114325821Y-133771099D01*
X114392836Y-133609312D01*
X114427000Y-133437559D01*
X114427000Y-133262441D01*
X114392836Y-133090688D01*
X114325821Y-132928901D01*
X114228531Y-132783296D01*
X114104704Y-132659469D01*
X113959099Y-132562179D01*
X113797312Y-132495164D01*
X113625559Y-132461000D01*
X113450441Y-132461000D01*
X113278688Y-132495164D01*
X113116901Y-132562179D01*
X112971296Y-132659469D01*
X112847469Y-132783296D01*
X112750179Y-132928901D01*
X112683164Y-133090688D01*
X112649000Y-133262441D01*
X82354118Y-133262441D01*
X82353000Y-132929750D01*
X82194250Y-132771000D01*
X80645000Y-132771000D01*
X80645000Y-132791000D01*
X80391000Y-132791000D01*
X80391000Y-132771000D01*
X78841750Y-132771000D01*
X78683000Y-132929750D01*
X78679928Y-133844000D01*
X76860000Y-133844000D01*
X76860000Y-131444000D01*
X78679928Y-131444000D01*
X78683000Y-132358250D01*
X78841750Y-132517000D01*
X80391000Y-132517000D01*
X80391000Y-130967750D01*
X80645000Y-130967750D01*
X80645000Y-132517000D01*
X82194250Y-132517000D01*
X82353000Y-132358250D01*
X82354229Y-131992441D01*
X105029000Y-131992441D01*
X105029000Y-132167559D01*
X105063164Y-132339312D01*
X105130179Y-132501099D01*
X105227469Y-132646704D01*
X105351296Y-132770531D01*
X105496901Y-132867821D01*
X105658688Y-132934836D01*
X105830441Y-132969000D01*
X106005559Y-132969000D01*
X106177312Y-132934836D01*
X106339099Y-132867821D01*
X106484704Y-132770531D01*
X106608531Y-132646704D01*
X106705821Y-132501099D01*
X106772836Y-132339312D01*
X106807000Y-132167559D01*
X106807000Y-131992441D01*
X106772836Y-131820688D01*
X106705821Y-131658901D01*
X106608531Y-131513296D01*
X106484704Y-131389469D01*
X106339099Y-131292179D01*
X106190052Y-131230441D01*
X115697000Y-131230441D01*
X115697000Y-131405559D01*
X115731164Y-131577312D01*
X115798179Y-131739099D01*
X115895469Y-131884704D01*
X116019296Y-132008531D01*
X116164901Y-132105821D01*
X116326688Y-132172836D01*
X116498441Y-132207000D01*
X116673559Y-132207000D01*
X116845312Y-132172836D01*
X117007099Y-132105821D01*
X117152704Y-132008531D01*
X117276531Y-131884704D01*
X117373821Y-131739099D01*
X117440836Y-131577312D01*
X117459309Y-131484441D01*
X125476000Y-131484441D01*
X125476000Y-131659559D01*
X125510164Y-131831312D01*
X125577179Y-131993099D01*
X125674469Y-132138704D01*
X125798296Y-132262531D01*
X125943901Y-132359821D01*
X126105688Y-132426836D01*
X126277441Y-132461000D01*
X126452559Y-132461000D01*
X126624312Y-132426836D01*
X126786099Y-132359821D01*
X126931704Y-132262531D01*
X127055531Y-132138704D01*
X127152821Y-131993099D01*
X127219836Y-131831312D01*
X127254000Y-131659559D01*
X127254000Y-131484441D01*
X127219836Y-131312688D01*
X127152821Y-131150901D01*
X127055531Y-131005296D01*
X126931704Y-130881469D01*
X126786099Y-130784179D01*
X126624312Y-130717164D01*
X126452559Y-130683000D01*
X126277441Y-130683000D01*
X126105688Y-130717164D01*
X125943901Y-130784179D01*
X125798296Y-130881469D01*
X125674469Y-131005296D01*
X125577179Y-131150901D01*
X125510164Y-131312688D01*
X125476000Y-131484441D01*
X117459309Y-131484441D01*
X117475000Y-131405559D01*
X117475000Y-131230441D01*
X117440836Y-131058688D01*
X117373821Y-130896901D01*
X117276531Y-130751296D01*
X117152704Y-130627469D01*
X117007099Y-130530179D01*
X116845312Y-130463164D01*
X116673559Y-130429000D01*
X116498441Y-130429000D01*
X116326688Y-130463164D01*
X116164901Y-130530179D01*
X116019296Y-130627469D01*
X115895469Y-130751296D01*
X115798179Y-130896901D01*
X115731164Y-131058688D01*
X115697000Y-131230441D01*
X106190052Y-131230441D01*
X106177312Y-131225164D01*
X106005559Y-131191000D01*
X105830441Y-131191000D01*
X105658688Y-131225164D01*
X105496901Y-131292179D01*
X105351296Y-131389469D01*
X105227469Y-131513296D01*
X105130179Y-131658901D01*
X105063164Y-131820688D01*
X105029000Y-131992441D01*
X82354229Y-131992441D01*
X82356072Y-131444000D01*
X82343812Y-131319518D01*
X82307502Y-131199820D01*
X82248537Y-131089506D01*
X82169185Y-130992815D01*
X82072494Y-130913463D01*
X81962180Y-130854498D01*
X81842482Y-130818188D01*
X81718000Y-130805928D01*
X80803750Y-130809000D01*
X80645000Y-130967750D01*
X80391000Y-130967750D01*
X80232250Y-130809000D01*
X79318000Y-130805928D01*
X79193518Y-130818188D01*
X79073820Y-130854498D01*
X78963506Y-130913463D01*
X78866815Y-130992815D01*
X78787463Y-131089506D01*
X78728498Y-131199820D01*
X78692188Y-131319518D01*
X78679928Y-131444000D01*
X76860000Y-131444000D01*
X76860000Y-128436441D01*
X109093000Y-128436441D01*
X109093000Y-128611559D01*
X109127164Y-128783312D01*
X109194179Y-128945099D01*
X109291469Y-129090704D01*
X109415296Y-129214531D01*
X109560901Y-129311821D01*
X109722688Y-129378836D01*
X109894441Y-129413000D01*
X110069559Y-129413000D01*
X110241312Y-129378836D01*
X110403099Y-129311821D01*
X110548704Y-129214531D01*
X110672531Y-129090704D01*
X110744000Y-128983743D01*
X110815469Y-129090704D01*
X110939296Y-129214531D01*
X111084901Y-129311821D01*
X111246688Y-129378836D01*
X111418441Y-129413000D01*
X111593559Y-129413000D01*
X111765312Y-129378836D01*
X111927099Y-129311821D01*
X112072704Y-129214531D01*
X112196531Y-129090704D01*
X112293821Y-128945099D01*
X112360836Y-128783312D01*
X112379309Y-128690441D01*
X112395000Y-128690441D01*
X112395000Y-128865559D01*
X112429164Y-129037312D01*
X112496179Y-129199099D01*
X112593469Y-129344704D01*
X112717296Y-129468531D01*
X112862901Y-129565821D01*
X113024688Y-129632836D01*
X113196441Y-129667000D01*
X113371559Y-129667000D01*
X113543312Y-129632836D01*
X113705099Y-129565821D01*
X113850704Y-129468531D01*
X113974531Y-129344704D01*
X114071821Y-129199099D01*
X114138836Y-129037312D01*
X114173000Y-128865559D01*
X114173000Y-128690441D01*
X114138836Y-128518688D01*
X114071821Y-128356901D01*
X113974531Y-128211296D01*
X113850704Y-128087469D01*
X113705099Y-127990179D01*
X113543312Y-127923164D01*
X113371559Y-127889000D01*
X113196441Y-127889000D01*
X113024688Y-127923164D01*
X112862901Y-127990179D01*
X112717296Y-128087469D01*
X112593469Y-128211296D01*
X112496179Y-128356901D01*
X112429164Y-128518688D01*
X112395000Y-128690441D01*
X112379309Y-128690441D01*
X112395000Y-128611559D01*
X112395000Y-128436441D01*
X112360836Y-128264688D01*
X112293821Y-128102901D01*
X112196531Y-127957296D01*
X112072704Y-127833469D01*
X111927099Y-127736179D01*
X111765312Y-127669164D01*
X111593559Y-127635000D01*
X111418441Y-127635000D01*
X111246688Y-127669164D01*
X111084901Y-127736179D01*
X110939296Y-127833469D01*
X110815469Y-127957296D01*
X110744000Y-128064257D01*
X110672531Y-127957296D01*
X110548704Y-127833469D01*
X110403099Y-127736179D01*
X110241312Y-127669164D01*
X110069559Y-127635000D01*
X109894441Y-127635000D01*
X109722688Y-127669164D01*
X109560901Y-127736179D01*
X109415296Y-127833469D01*
X109291469Y-127957296D01*
X109194179Y-128102901D01*
X109127164Y-128264688D01*
X109093000Y-128436441D01*
X76860000Y-128436441D01*
X76860000Y-127081696D01*
X77113109Y-127171481D01*
X77343000Y-127050814D01*
X77343000Y-125857000D01*
X77597000Y-125857000D01*
X77597000Y-127050814D01*
X77826891Y-127171481D01*
X78101252Y-127074157D01*
X78351355Y-126925178D01*
X78547502Y-126748374D01*
X78570498Y-126824180D01*
X78629463Y-126934494D01*
X78708815Y-127031185D01*
X78805506Y-127110537D01*
X78915820Y-127169502D01*
X79035518Y-127205812D01*
X79160000Y-127218072D01*
X79724250Y-127215000D01*
X79883000Y-127056250D01*
X79883000Y-125857000D01*
X80137000Y-125857000D01*
X80137000Y-127056250D01*
X80295750Y-127215000D01*
X80860000Y-127218072D01*
X80984482Y-127205812D01*
X81104180Y-127169502D01*
X81214494Y-127110537D01*
X81311185Y-127031185D01*
X81390537Y-126934494D01*
X81449502Y-126824180D01*
X81485812Y-126704482D01*
X81498072Y-126580000D01*
X81497117Y-126404441D01*
X115697000Y-126404441D01*
X115697000Y-126579559D01*
X115731164Y-126751312D01*
X115798179Y-126913099D01*
X115895469Y-127058704D01*
X116019296Y-127182531D01*
X116164901Y-127279821D01*
X116326688Y-127346836D01*
X116498441Y-127381000D01*
X116673559Y-127381000D01*
X116845312Y-127346836D01*
X117007099Y-127279821D01*
X117152704Y-127182531D01*
X117276531Y-127058704D01*
X117373821Y-126913099D01*
X117440836Y-126751312D01*
X117475000Y-126579559D01*
X117475000Y-126404441D01*
X117440836Y-126232688D01*
X117373821Y-126070901D01*
X117276531Y-125925296D01*
X117152704Y-125801469D01*
X117007099Y-125704179D01*
X116858052Y-125642441D01*
X135509000Y-125642441D01*
X135509000Y-125817559D01*
X135543164Y-125989312D01*
X135610179Y-126151099D01*
X135707469Y-126296704D01*
X135831296Y-126420531D01*
X135976901Y-126517821D01*
X136138688Y-126584836D01*
X136310441Y-126619000D01*
X136485559Y-126619000D01*
X136657312Y-126584836D01*
X136819099Y-126517821D01*
X136964704Y-126420531D01*
X137088531Y-126296704D01*
X137185821Y-126151099D01*
X137252836Y-125989312D01*
X137287000Y-125817559D01*
X137287000Y-125642441D01*
X137795000Y-125642441D01*
X137795000Y-125817559D01*
X137829164Y-125989312D01*
X137896179Y-126151099D01*
X137993469Y-126296704D01*
X138117296Y-126420531D01*
X138262901Y-126517821D01*
X138424688Y-126584836D01*
X138596441Y-126619000D01*
X138771559Y-126619000D01*
X138943312Y-126584836D01*
X139105099Y-126517821D01*
X139250704Y-126420531D01*
X139374531Y-126296704D01*
X139471821Y-126151099D01*
X139538836Y-125989312D01*
X139573000Y-125817559D01*
X139573000Y-125642441D01*
X140081000Y-125642441D01*
X140081000Y-125817559D01*
X140115164Y-125989312D01*
X140182179Y-126151099D01*
X140279469Y-126296704D01*
X140403296Y-126420531D01*
X140548901Y-126517821D01*
X140710688Y-126584836D01*
X140882441Y-126619000D01*
X141057559Y-126619000D01*
X141229312Y-126584836D01*
X141391099Y-126517821D01*
X141536704Y-126420531D01*
X141660531Y-126296704D01*
X141757821Y-126151099D01*
X141784417Y-126086890D01*
X147148524Y-126086890D01*
X147193175Y-126234099D01*
X147318359Y-126496920D01*
X147492412Y-126730269D01*
X147708645Y-126925178D01*
X147958748Y-127074157D01*
X148233109Y-127171481D01*
X148463000Y-127050814D01*
X148463000Y-125857000D01*
X148717000Y-125857000D01*
X148717000Y-127050814D01*
X148946891Y-127171481D01*
X149221252Y-127074157D01*
X149471355Y-126925178D01*
X149667502Y-126748374D01*
X149690498Y-126824180D01*
X149749463Y-126934494D01*
X149828815Y-127031185D01*
X149925506Y-127110537D01*
X150035820Y-127169502D01*
X150155518Y-127205812D01*
X150280000Y-127218072D01*
X150844250Y-127215000D01*
X151003000Y-127056250D01*
X151003000Y-125857000D01*
X148717000Y-125857000D01*
X148463000Y-125857000D01*
X147269845Y-125857000D01*
X147148524Y-126086890D01*
X141784417Y-126086890D01*
X141824836Y-125989312D01*
X141859000Y-125817559D01*
X141859000Y-125642441D01*
X141824836Y-125470688D01*
X141757821Y-125308901D01*
X141660531Y-125163296D01*
X141536704Y-125039469D01*
X141391099Y-124942179D01*
X141229312Y-124875164D01*
X141057559Y-124841000D01*
X140882441Y-124841000D01*
X140710688Y-124875164D01*
X140548901Y-124942179D01*
X140403296Y-125039469D01*
X140279469Y-125163296D01*
X140182179Y-125308901D01*
X140115164Y-125470688D01*
X140081000Y-125642441D01*
X139573000Y-125642441D01*
X139538836Y-125470688D01*
X139471821Y-125308901D01*
X139374531Y-125163296D01*
X139250704Y-125039469D01*
X139105099Y-124942179D01*
X138943312Y-124875164D01*
X138771559Y-124841000D01*
X138596441Y-124841000D01*
X138424688Y-124875164D01*
X138262901Y-124942179D01*
X138117296Y-125039469D01*
X137993469Y-125163296D01*
X137896179Y-125308901D01*
X137829164Y-125470688D01*
X137795000Y-125642441D01*
X137287000Y-125642441D01*
X137252836Y-125470688D01*
X137185821Y-125308901D01*
X137088531Y-125163296D01*
X136964704Y-125039469D01*
X136819099Y-124942179D01*
X136657312Y-124875164D01*
X136485559Y-124841000D01*
X136310441Y-124841000D01*
X136138688Y-124875164D01*
X135976901Y-124942179D01*
X135831296Y-125039469D01*
X135707469Y-125163296D01*
X135610179Y-125308901D01*
X135543164Y-125470688D01*
X135509000Y-125642441D01*
X116858052Y-125642441D01*
X116845312Y-125637164D01*
X116673559Y-125603000D01*
X116498441Y-125603000D01*
X116326688Y-125637164D01*
X116164901Y-125704179D01*
X116019296Y-125801469D01*
X115895469Y-125925296D01*
X115798179Y-126070901D01*
X115731164Y-126232688D01*
X115697000Y-126404441D01*
X81497117Y-126404441D01*
X81495000Y-126015750D01*
X81336250Y-125857000D01*
X80137000Y-125857000D01*
X79883000Y-125857000D01*
X77597000Y-125857000D01*
X77343000Y-125857000D01*
X77323000Y-125857000D01*
X77323000Y-125603000D01*
X77343000Y-125603000D01*
X77343000Y-125583000D01*
X77597000Y-125583000D01*
X77597000Y-125603000D01*
X79883000Y-125603000D01*
X79883000Y-125583000D01*
X80137000Y-125583000D01*
X80137000Y-125603000D01*
X81336250Y-125603000D01*
X81495000Y-125444250D01*
X81498072Y-124880000D01*
X81485812Y-124755518D01*
X81449502Y-124635820D01*
X81390537Y-124525506D01*
X81311185Y-124428815D01*
X81214494Y-124349463D01*
X81104180Y-124290498D01*
X81031620Y-124268487D01*
X81163475Y-124136632D01*
X81325990Y-123893411D01*
X81337989Y-123864441D01*
X90805000Y-123864441D01*
X90805000Y-124039559D01*
X90839164Y-124211312D01*
X90906179Y-124373099D01*
X91003469Y-124518704D01*
X91127296Y-124642531D01*
X91272901Y-124739821D01*
X91434688Y-124806836D01*
X91606441Y-124841000D01*
X91781559Y-124841000D01*
X91953312Y-124806836D01*
X92115099Y-124739821D01*
X92260704Y-124642531D01*
X92384531Y-124518704D01*
X92481821Y-124373099D01*
X92482093Y-124372441D01*
X109093000Y-124372441D01*
X109093000Y-124547559D01*
X109127164Y-124719312D01*
X109194179Y-124881099D01*
X109291469Y-125026704D01*
X109415296Y-125150531D01*
X109560901Y-125247821D01*
X109722688Y-125314836D01*
X109894441Y-125349000D01*
X110069559Y-125349000D01*
X110241312Y-125314836D01*
X110403099Y-125247821D01*
X110548704Y-125150531D01*
X110672531Y-125026704D01*
X110769821Y-124881099D01*
X110836836Y-124719312D01*
X110871000Y-124547559D01*
X110871000Y-124372441D01*
X111633000Y-124372441D01*
X111633000Y-124547559D01*
X111667164Y-124719312D01*
X111734179Y-124881099D01*
X111831469Y-125026704D01*
X111955296Y-125150531D01*
X112100901Y-125247821D01*
X112262688Y-125314836D01*
X112401544Y-125342456D01*
X112429164Y-125481312D01*
X112496179Y-125643099D01*
X112593469Y-125788704D01*
X112717296Y-125912531D01*
X112862901Y-126009821D01*
X113024688Y-126076836D01*
X113196441Y-126111000D01*
X113371559Y-126111000D01*
X113543312Y-126076836D01*
X113705099Y-126009821D01*
X113850704Y-125912531D01*
X113974531Y-125788704D01*
X114071821Y-125643099D01*
X114138836Y-125481312D01*
X114173000Y-125309559D01*
X114173000Y-125134441D01*
X114138836Y-124962688D01*
X114071821Y-124800901D01*
X113974531Y-124655296D01*
X113971176Y-124651941D01*
X122783500Y-124651941D01*
X122783500Y-124827059D01*
X122817664Y-124998812D01*
X122884679Y-125160599D01*
X122981969Y-125306204D01*
X123105796Y-125430031D01*
X123251401Y-125527321D01*
X123413188Y-125594336D01*
X123584941Y-125628500D01*
X123760059Y-125628500D01*
X123931812Y-125594336D01*
X124093599Y-125527321D01*
X124239204Y-125430031D01*
X124363031Y-125306204D01*
X124460321Y-125160599D01*
X124527336Y-124998812D01*
X124561500Y-124827059D01*
X124561500Y-124651941D01*
X124527336Y-124480188D01*
X124460321Y-124318401D01*
X124363031Y-124172796D01*
X124239204Y-124048969D01*
X124093599Y-123951679D01*
X123931812Y-123884664D01*
X123760059Y-123850500D01*
X123584941Y-123850500D01*
X123413188Y-123884664D01*
X123251401Y-123951679D01*
X123105796Y-124048969D01*
X122981969Y-124172796D01*
X122884679Y-124318401D01*
X122817664Y-124480188D01*
X122783500Y-124651941D01*
X113971176Y-124651941D01*
X113850704Y-124531469D01*
X113705099Y-124434179D01*
X113543312Y-124367164D01*
X113404456Y-124339544D01*
X113376836Y-124200688D01*
X113309821Y-124038901D01*
X113212531Y-123893296D01*
X113088704Y-123769469D01*
X112943099Y-123672179D01*
X112781312Y-123605164D01*
X112609559Y-123571000D01*
X112434441Y-123571000D01*
X112262688Y-123605164D01*
X112100901Y-123672179D01*
X111955296Y-123769469D01*
X111831469Y-123893296D01*
X111734179Y-124038901D01*
X111667164Y-124200688D01*
X111633000Y-124372441D01*
X110871000Y-124372441D01*
X110836836Y-124200688D01*
X110769821Y-124038901D01*
X110672531Y-123893296D01*
X110548704Y-123769469D01*
X110403099Y-123672179D01*
X110241312Y-123605164D01*
X110069559Y-123571000D01*
X109894441Y-123571000D01*
X109722688Y-123605164D01*
X109560901Y-123672179D01*
X109415296Y-123769469D01*
X109291469Y-123893296D01*
X109194179Y-124038901D01*
X109127164Y-124200688D01*
X109093000Y-124372441D01*
X92482093Y-124372441D01*
X92548836Y-124211312D01*
X92583000Y-124039559D01*
X92583000Y-123864441D01*
X92548836Y-123692688D01*
X92481821Y-123530901D01*
X92384531Y-123385296D01*
X92260704Y-123261469D01*
X92212756Y-123229431D01*
X118872010Y-123229431D01*
X118872010Y-123404549D01*
X118906174Y-123576302D01*
X118973189Y-123738089D01*
X119070479Y-123883694D01*
X119194306Y-124007521D01*
X119339911Y-124104811D01*
X119501698Y-124171826D01*
X119673451Y-124205990D01*
X119848569Y-124205990D01*
X120020322Y-124171826D01*
X120182109Y-124104811D01*
X120327714Y-124007521D01*
X120451541Y-123883694D01*
X120548831Y-123738089D01*
X120615846Y-123576302D01*
X120650010Y-123404549D01*
X120650010Y-123229431D01*
X120615846Y-123057678D01*
X120548831Y-122895891D01*
X120451541Y-122750286D01*
X120327714Y-122626459D01*
X120279796Y-122594441D01*
X121539000Y-122594441D01*
X121539000Y-122769559D01*
X121573164Y-122941312D01*
X121640179Y-123103099D01*
X121737469Y-123248704D01*
X121861296Y-123372531D01*
X122006901Y-123469821D01*
X122168688Y-123536836D01*
X122340441Y-123571000D01*
X122515559Y-123571000D01*
X122687312Y-123536836D01*
X122849099Y-123469821D01*
X122994704Y-123372531D01*
X123118531Y-123248704D01*
X123215821Y-123103099D01*
X123282836Y-122941312D01*
X123317000Y-122769559D01*
X123317000Y-122594441D01*
X123282836Y-122422688D01*
X123215821Y-122260901D01*
X123118531Y-122115296D01*
X122994704Y-121991469D01*
X122849099Y-121894179D01*
X122687312Y-121827164D01*
X122515559Y-121793000D01*
X122340441Y-121793000D01*
X122168688Y-121827164D01*
X122006901Y-121894179D01*
X121861296Y-121991469D01*
X121737469Y-122115296D01*
X121640179Y-122260901D01*
X121573164Y-122422688D01*
X121539000Y-122594441D01*
X120279796Y-122594441D01*
X120182109Y-122529169D01*
X120020322Y-122462154D01*
X119848569Y-122427990D01*
X119673451Y-122427990D01*
X119501698Y-122462154D01*
X119339911Y-122529169D01*
X119194306Y-122626459D01*
X119070479Y-122750286D01*
X118973189Y-122895891D01*
X118906174Y-123057678D01*
X118872010Y-123229431D01*
X92212756Y-123229431D01*
X92115099Y-123164179D01*
X91953312Y-123097164D01*
X91781559Y-123063000D01*
X91606441Y-123063000D01*
X91434688Y-123097164D01*
X91272901Y-123164179D01*
X91127296Y-123261469D01*
X91003469Y-123385296D01*
X90906179Y-123530901D01*
X90839164Y-123692688D01*
X90805000Y-123864441D01*
X81337989Y-123864441D01*
X81437932Y-123623158D01*
X81495000Y-123336260D01*
X81495000Y-123043740D01*
X81437932Y-122756842D01*
X81325990Y-122486589D01*
X81163475Y-122243368D01*
X81006548Y-122086441D01*
X101219000Y-122086441D01*
X101219000Y-122261559D01*
X101253164Y-122433312D01*
X101320179Y-122595099D01*
X101417469Y-122740704D01*
X101541296Y-122864531D01*
X101686901Y-122961821D01*
X101848688Y-123028836D01*
X102020441Y-123063000D01*
X102195559Y-123063000D01*
X102367312Y-123028836D01*
X102529099Y-122961821D01*
X102674704Y-122864531D01*
X102798531Y-122740704D01*
X102895821Y-122595099D01*
X102937201Y-122495201D01*
X103037099Y-122453821D01*
X103182704Y-122356531D01*
X103306531Y-122232704D01*
X103403821Y-122087099D01*
X103470836Y-121925312D01*
X103505000Y-121753559D01*
X103505000Y-121578441D01*
X103470836Y-121406688D01*
X103403821Y-121244901D01*
X103306531Y-121099296D01*
X103277676Y-121070441D01*
X111633000Y-121070441D01*
X111633000Y-121245559D01*
X111667164Y-121417312D01*
X111734179Y-121579099D01*
X111831469Y-121724704D01*
X111955296Y-121848531D01*
X112100901Y-121945821D01*
X112262688Y-122012836D01*
X112434441Y-122047000D01*
X112609559Y-122047000D01*
X112781312Y-122012836D01*
X112943099Y-121945821D01*
X113088704Y-121848531D01*
X113212531Y-121724704D01*
X113309821Y-121579099D01*
X113376836Y-121417312D01*
X113411000Y-121245559D01*
X113411000Y-121070441D01*
X114681000Y-121070441D01*
X114681000Y-121245559D01*
X114715164Y-121417312D01*
X114782179Y-121579099D01*
X114879469Y-121724704D01*
X115003296Y-121848531D01*
X115148901Y-121945821D01*
X115310688Y-122012836D01*
X115482441Y-122047000D01*
X115657559Y-122047000D01*
X115829312Y-122012836D01*
X115991099Y-121945821D01*
X116136704Y-121848531D01*
X116260531Y-121724704D01*
X116357821Y-121579099D01*
X116424836Y-121417312D01*
X116459000Y-121245559D01*
X116459000Y-121070441D01*
X116424836Y-120898688D01*
X116357821Y-120736901D01*
X116260531Y-120591296D01*
X116136704Y-120467469D01*
X115991099Y-120370179D01*
X115829312Y-120303164D01*
X115657559Y-120269000D01*
X115482441Y-120269000D01*
X115310688Y-120303164D01*
X115148901Y-120370179D01*
X115003296Y-120467469D01*
X114879469Y-120591296D01*
X114782179Y-120736901D01*
X114715164Y-120898688D01*
X114681000Y-121070441D01*
X113411000Y-121070441D01*
X113376836Y-120898688D01*
X113309821Y-120736901D01*
X113212531Y-120591296D01*
X113088704Y-120467469D01*
X112943099Y-120370179D01*
X112781312Y-120303164D01*
X112609559Y-120269000D01*
X112434441Y-120269000D01*
X112262688Y-120303164D01*
X112100901Y-120370179D01*
X111955296Y-120467469D01*
X111831469Y-120591296D01*
X111734179Y-120736901D01*
X111667164Y-120898688D01*
X111633000Y-121070441D01*
X103277676Y-121070441D01*
X103182704Y-120975469D01*
X103037099Y-120878179D01*
X102875312Y-120811164D01*
X102703559Y-120777000D01*
X102528441Y-120777000D01*
X102356688Y-120811164D01*
X102194901Y-120878179D01*
X102049296Y-120975469D01*
X101925469Y-121099296D01*
X101828179Y-121244901D01*
X101786799Y-121344799D01*
X101686901Y-121386179D01*
X101541296Y-121483469D01*
X101417469Y-121607296D01*
X101320179Y-121752901D01*
X101253164Y-121914688D01*
X101219000Y-122086441D01*
X81006548Y-122086441D01*
X80956632Y-122036525D01*
X80782240Y-121920000D01*
X80956632Y-121803475D01*
X81163475Y-121596632D01*
X81325990Y-121353411D01*
X81437932Y-121083158D01*
X81495000Y-120796260D01*
X81495000Y-120503740D01*
X81456153Y-120308441D01*
X94107000Y-120308441D01*
X94107000Y-120483559D01*
X94141164Y-120655312D01*
X94208179Y-120817099D01*
X94305469Y-120962704D01*
X94429296Y-121086531D01*
X94574901Y-121183821D01*
X94736688Y-121250836D01*
X94908441Y-121285000D01*
X95083559Y-121285000D01*
X95255312Y-121250836D01*
X95417099Y-121183821D01*
X95562704Y-121086531D01*
X95686531Y-120962704D01*
X95783821Y-120817099D01*
X95850836Y-120655312D01*
X95885000Y-120483559D01*
X95885000Y-120308441D01*
X95850836Y-120136688D01*
X95783821Y-119974901D01*
X95686531Y-119829296D01*
X95562704Y-119705469D01*
X95417099Y-119608179D01*
X95255312Y-119541164D01*
X95083559Y-119507000D01*
X94908441Y-119507000D01*
X94736688Y-119541164D01*
X94574901Y-119608179D01*
X94429296Y-119705469D01*
X94305469Y-119829296D01*
X94208179Y-119974901D01*
X94141164Y-120136688D01*
X94107000Y-120308441D01*
X81456153Y-120308441D01*
X81437932Y-120216842D01*
X81325990Y-119946589D01*
X81163475Y-119703368D01*
X80956632Y-119496525D01*
X80782240Y-119380000D01*
X80956632Y-119263475D01*
X81163475Y-119056632D01*
X81325990Y-118813411D01*
X81437932Y-118543158D01*
X81465726Y-118403428D01*
X104267000Y-118403428D01*
X104267000Y-118578546D01*
X104301164Y-118750299D01*
X104325269Y-118808494D01*
X104301164Y-118866688D01*
X104267000Y-119038441D01*
X104267000Y-119213559D01*
X104301164Y-119385312D01*
X104368179Y-119547099D01*
X104465469Y-119692704D01*
X104589296Y-119816531D01*
X104734901Y-119913821D01*
X104896688Y-119980836D01*
X105068441Y-120015000D01*
X105243559Y-120015000D01*
X105415312Y-119980836D01*
X105577099Y-119913821D01*
X105722704Y-119816531D01*
X105846531Y-119692704D01*
X105943821Y-119547099D01*
X106010836Y-119385312D01*
X106045000Y-119213559D01*
X106045000Y-119038441D01*
X106010836Y-118866688D01*
X105986731Y-118808494D01*
X106010836Y-118750299D01*
X106045000Y-118578546D01*
X106045000Y-118403428D01*
X106010836Y-118231675D01*
X105943821Y-118069888D01*
X105912118Y-118022441D01*
X112903000Y-118022441D01*
X112903000Y-118197559D01*
X112937164Y-118369312D01*
X113004179Y-118531099D01*
X113101469Y-118676704D01*
X113225296Y-118800531D01*
X113370901Y-118897821D01*
X113532688Y-118964836D01*
X113704441Y-118999000D01*
X113879559Y-118999000D01*
X114051312Y-118964836D01*
X114213099Y-118897821D01*
X114358704Y-118800531D01*
X114482531Y-118676704D01*
X114579821Y-118531099D01*
X114646836Y-118369312D01*
X114681000Y-118197559D01*
X114681000Y-118022441D01*
X114646836Y-117850688D01*
X114612768Y-117768441D01*
X117475000Y-117768441D01*
X117475000Y-117943559D01*
X117509164Y-118115312D01*
X117576179Y-118277099D01*
X117673469Y-118422704D01*
X117797296Y-118546531D01*
X117942901Y-118643821D01*
X118104688Y-118710836D01*
X118276441Y-118745000D01*
X118451559Y-118745000D01*
X118623312Y-118710836D01*
X118785099Y-118643821D01*
X118930704Y-118546531D01*
X119054531Y-118422704D01*
X119151821Y-118277099D01*
X119218836Y-118115312D01*
X119253000Y-117943559D01*
X119253000Y-117768441D01*
X126873000Y-117768441D01*
X126873000Y-117943559D01*
X126907164Y-118115312D01*
X126974179Y-118277099D01*
X127071469Y-118422704D01*
X127195296Y-118546531D01*
X127340901Y-118643821D01*
X127502688Y-118710836D01*
X127674441Y-118745000D01*
X127849559Y-118745000D01*
X128021312Y-118710836D01*
X128183099Y-118643821D01*
X128328704Y-118546531D01*
X128452531Y-118422704D01*
X128549821Y-118277099D01*
X128616836Y-118115312D01*
X128651000Y-117943559D01*
X128651000Y-117768441D01*
X128616836Y-117596688D01*
X128549821Y-117434901D01*
X128452531Y-117289296D01*
X128328704Y-117165469D01*
X128183099Y-117068179D01*
X128021312Y-117001164D01*
X127849559Y-116967000D01*
X127674441Y-116967000D01*
X127502688Y-117001164D01*
X127340901Y-117068179D01*
X127195296Y-117165469D01*
X127071469Y-117289296D01*
X126974179Y-117434901D01*
X126907164Y-117596688D01*
X126873000Y-117768441D01*
X119253000Y-117768441D01*
X119218836Y-117596688D01*
X119151821Y-117434901D01*
X119054531Y-117289296D01*
X118930704Y-117165469D01*
X118785099Y-117068179D01*
X118623312Y-117001164D01*
X118451559Y-116967000D01*
X118276441Y-116967000D01*
X118104688Y-117001164D01*
X117942901Y-117068179D01*
X117797296Y-117165469D01*
X117673469Y-117289296D01*
X117576179Y-117434901D01*
X117509164Y-117596688D01*
X117475000Y-117768441D01*
X114612768Y-117768441D01*
X114579821Y-117688901D01*
X114482531Y-117543296D01*
X114358704Y-117419469D01*
X114213099Y-117322179D01*
X114051312Y-117255164D01*
X113879559Y-117221000D01*
X113704441Y-117221000D01*
X113532688Y-117255164D01*
X113370901Y-117322179D01*
X113225296Y-117419469D01*
X113101469Y-117543296D01*
X113004179Y-117688901D01*
X112937164Y-117850688D01*
X112903000Y-118022441D01*
X105912118Y-118022441D01*
X105846531Y-117924283D01*
X105722704Y-117800456D01*
X105577099Y-117703166D01*
X105415312Y-117636151D01*
X105243559Y-117601987D01*
X105068441Y-117601987D01*
X104896688Y-117636151D01*
X104734901Y-117703166D01*
X104589296Y-117800456D01*
X104465469Y-117924283D01*
X104368179Y-118069888D01*
X104301164Y-118231675D01*
X104267000Y-118403428D01*
X81465726Y-118403428D01*
X81495000Y-118256260D01*
X81495000Y-117963740D01*
X81437932Y-117676842D01*
X81325990Y-117406589D01*
X81163475Y-117163368D01*
X80956632Y-116956525D01*
X80782240Y-116840000D01*
X80956632Y-116723475D01*
X81163475Y-116516632D01*
X81325990Y-116273411D01*
X81437932Y-116003158D01*
X81495000Y-115716260D01*
X81495000Y-115423740D01*
X81437932Y-115136842D01*
X81325990Y-114866589D01*
X81163475Y-114623368D01*
X80956632Y-114416525D01*
X80916326Y-114389593D01*
X107137848Y-114389593D01*
X107137848Y-114564711D01*
X107172012Y-114736464D01*
X107239027Y-114898251D01*
X107336317Y-115043856D01*
X107460144Y-115167683D01*
X107605749Y-115264973D01*
X107767536Y-115331988D01*
X107939289Y-115366152D01*
X108114407Y-115366152D01*
X108286160Y-115331988D01*
X108447947Y-115264973D01*
X108593552Y-115167683D01*
X108717379Y-115043856D01*
X108814669Y-114898251D01*
X108881684Y-114736464D01*
X108915848Y-114564711D01*
X108915848Y-114389593D01*
X109524152Y-114389593D01*
X109524152Y-114564711D01*
X109558316Y-114736464D01*
X109625331Y-114898251D01*
X109722621Y-115043856D01*
X109846448Y-115167683D01*
X109992053Y-115264973D01*
X110153840Y-115331988D01*
X110325593Y-115366152D01*
X110500711Y-115366152D01*
X110672464Y-115331988D01*
X110834251Y-115264973D01*
X110979856Y-115167683D01*
X111103683Y-115043856D01*
X111200973Y-114898251D01*
X111267988Y-114736464D01*
X111302152Y-114564711D01*
X111302152Y-114389593D01*
X111267988Y-114217840D01*
X111200973Y-114056053D01*
X111103683Y-113910448D01*
X110979856Y-113786621D01*
X110834251Y-113689331D01*
X110672464Y-113622316D01*
X110500711Y-113588152D01*
X110325593Y-113588152D01*
X110153840Y-113622316D01*
X109992053Y-113689331D01*
X109846448Y-113786621D01*
X109722621Y-113910448D01*
X109625331Y-114056053D01*
X109558316Y-114217840D01*
X109524152Y-114389593D01*
X108915848Y-114389593D01*
X108881684Y-114217840D01*
X108814669Y-114056053D01*
X108717379Y-113910448D01*
X108593552Y-113786621D01*
X108447947Y-113689331D01*
X108286160Y-113622316D01*
X108114407Y-113588152D01*
X107939289Y-113588152D01*
X107767536Y-113622316D01*
X107605749Y-113689331D01*
X107460144Y-113786621D01*
X107336317Y-113910448D01*
X107239027Y-114056053D01*
X107172012Y-114217840D01*
X107137848Y-114389593D01*
X80916326Y-114389593D01*
X80782240Y-114300000D01*
X80956632Y-114183475D01*
X81163475Y-113976632D01*
X81325990Y-113733411D01*
X81437932Y-113463158D01*
X81490985Y-113196441D01*
X96393000Y-113196441D01*
X96393000Y-113371559D01*
X96427164Y-113543312D01*
X96494179Y-113705099D01*
X96591469Y-113850704D01*
X96715296Y-113974531D01*
X96860901Y-114071821D01*
X97022688Y-114138836D01*
X97194441Y-114173000D01*
X97369559Y-114173000D01*
X97541312Y-114138836D01*
X97703099Y-114071821D01*
X97848704Y-113974531D01*
X97972531Y-113850704D01*
X98069821Y-113705099D01*
X98136836Y-113543312D01*
X98171000Y-113371559D01*
X98171000Y-113196441D01*
X98136836Y-113024688D01*
X98069821Y-112862901D01*
X97972531Y-112717296D01*
X97848704Y-112593469D01*
X97703099Y-112496179D01*
X97541312Y-112429164D01*
X97369559Y-112395000D01*
X97194441Y-112395000D01*
X97022688Y-112429164D01*
X96860901Y-112496179D01*
X96715296Y-112593469D01*
X96591469Y-112717296D01*
X96494179Y-112862901D01*
X96427164Y-113024688D01*
X96393000Y-113196441D01*
X81490985Y-113196441D01*
X81495000Y-113176260D01*
X81495000Y-112883740D01*
X81437932Y-112596842D01*
X81325990Y-112326589D01*
X81163475Y-112083368D01*
X81083396Y-112003289D01*
X107137848Y-112003289D01*
X107137848Y-112178407D01*
X107172012Y-112350160D01*
X107239027Y-112511947D01*
X107336317Y-112657552D01*
X107460144Y-112781379D01*
X107605749Y-112878669D01*
X107767536Y-112945684D01*
X107939289Y-112979848D01*
X108114407Y-112979848D01*
X108286160Y-112945684D01*
X108447947Y-112878669D01*
X108593552Y-112781379D01*
X108717379Y-112657552D01*
X108814669Y-112511947D01*
X108881684Y-112350160D01*
X108915848Y-112178407D01*
X108915848Y-112003289D01*
X109524152Y-112003289D01*
X109524152Y-112178407D01*
X109558316Y-112350160D01*
X109625331Y-112511947D01*
X109722621Y-112657552D01*
X109846448Y-112781379D01*
X109992053Y-112878669D01*
X110153840Y-112945684D01*
X110325593Y-112979848D01*
X110500711Y-112979848D01*
X110672464Y-112945684D01*
X110834251Y-112878669D01*
X110979856Y-112781379D01*
X111103683Y-112657552D01*
X111200973Y-112511947D01*
X111215133Y-112477762D01*
X111223440Y-112497818D01*
X111165165Y-112638505D01*
X111131001Y-112810258D01*
X111131001Y-112985376D01*
X111165165Y-113157129D01*
X111223440Y-113297816D01*
X111165165Y-113438504D01*
X111131001Y-113610257D01*
X111131001Y-113785375D01*
X111165165Y-113957128D01*
X111232180Y-114118915D01*
X111329470Y-114264520D01*
X111453297Y-114388347D01*
X111598902Y-114485637D01*
X111628305Y-114497816D01*
X111598901Y-114509996D01*
X111453296Y-114607286D01*
X111329469Y-114731113D01*
X111232179Y-114876718D01*
X111165164Y-115038505D01*
X111133531Y-115197531D01*
X110974505Y-115229164D01*
X110812718Y-115296179D01*
X110667113Y-115393469D01*
X110543286Y-115517296D01*
X110445996Y-115662901D01*
X110378981Y-115824688D01*
X110344817Y-115996441D01*
X110344817Y-116171559D01*
X110378981Y-116343312D01*
X110424631Y-116453520D01*
X110418363Y-116462901D01*
X110351348Y-116624688D01*
X110317184Y-116796441D01*
X110317184Y-116971559D01*
X110351348Y-117143312D01*
X110418363Y-117305099D01*
X110515653Y-117450704D01*
X110639480Y-117574531D01*
X110785085Y-117671821D01*
X110946872Y-117738836D01*
X111118625Y-117773000D01*
X111293743Y-117773000D01*
X111465496Y-117738836D01*
X111627283Y-117671821D01*
X111772888Y-117574531D01*
X111896715Y-117450704D01*
X111994005Y-117305099D01*
X112061020Y-117143312D01*
X112095184Y-116971559D01*
X112095184Y-116796441D01*
X112061020Y-116624688D01*
X112015370Y-116514480D01*
X112021638Y-116505099D01*
X112088653Y-116343312D01*
X112120286Y-116184286D01*
X112279312Y-116152653D01*
X112441099Y-116085638D01*
X112586704Y-115988348D01*
X112710531Y-115864521D01*
X112807821Y-115718916D01*
X112874836Y-115557129D01*
X112909000Y-115385376D01*
X112909000Y-115210258D01*
X112874836Y-115038505D01*
X112807821Y-114876718D01*
X112710531Y-114731113D01*
X112586704Y-114607286D01*
X112441099Y-114509996D01*
X112411696Y-114497817D01*
X112441100Y-114485637D01*
X112586705Y-114388347D01*
X112710532Y-114264520D01*
X112807822Y-114118915D01*
X112874837Y-113957128D01*
X112909001Y-113785375D01*
X112909001Y-113610257D01*
X112874837Y-113438504D01*
X112816562Y-113297816D01*
X112834393Y-113254768D01*
X120293212Y-113254768D01*
X120293212Y-113429886D01*
X120327376Y-113601639D01*
X120394391Y-113763426D01*
X120491681Y-113909031D01*
X120615508Y-114032858D01*
X120761113Y-114130148D01*
X120922900Y-114197163D01*
X121094653Y-114231327D01*
X121269771Y-114231327D01*
X121441524Y-114197163D01*
X121603311Y-114130148D01*
X121748916Y-114032858D01*
X121872743Y-113909031D01*
X121970033Y-113763426D01*
X122037048Y-113601639D01*
X122071212Y-113429886D01*
X122071212Y-113254768D01*
X122037048Y-113083015D01*
X121970033Y-112921228D01*
X121872743Y-112775623D01*
X121748916Y-112651796D01*
X121603311Y-112554506D01*
X121441524Y-112487491D01*
X121269771Y-112453327D01*
X121094653Y-112453327D01*
X120922900Y-112487491D01*
X120761113Y-112554506D01*
X120615508Y-112651796D01*
X120491681Y-112775623D01*
X120394391Y-112921228D01*
X120327376Y-113083015D01*
X120293212Y-113254768D01*
X112834393Y-113254768D01*
X112874837Y-113157129D01*
X112909001Y-112985376D01*
X112909001Y-112810258D01*
X112874837Y-112638505D01*
X112816561Y-112497815D01*
X112874836Y-112357128D01*
X112909000Y-112185375D01*
X112909000Y-112010257D01*
X112874836Y-111838504D01*
X112816561Y-111697818D01*
X112874837Y-111557129D01*
X112909001Y-111385376D01*
X112909001Y-111210258D01*
X112874837Y-111038505D01*
X112807822Y-110876718D01*
X112710532Y-110731113D01*
X112586705Y-110607286D01*
X112441100Y-110509996D01*
X112279313Y-110442981D01*
X112122816Y-110411852D01*
X112122816Y-110396440D01*
X112088652Y-110224687D01*
X112021637Y-110062900D01*
X111924347Y-109917295D01*
X111800520Y-109793468D01*
X111654915Y-109696178D01*
X111493128Y-109629163D01*
X111321375Y-109594999D01*
X111146257Y-109594999D01*
X110974504Y-109629163D01*
X110833815Y-109687439D01*
X110693128Y-109629164D01*
X110521375Y-109595000D01*
X110346257Y-109595000D01*
X110174504Y-109629164D01*
X110012717Y-109696179D01*
X109867112Y-109793469D01*
X109743285Y-109917296D01*
X109645995Y-110062901D01*
X109578980Y-110224688D01*
X109544816Y-110396441D01*
X109544816Y-110571559D01*
X109578980Y-110743312D01*
X109645995Y-110905099D01*
X109743285Y-111050704D01*
X109867112Y-111174531D01*
X110012717Y-111271821D01*
X110040054Y-111283144D01*
X109992053Y-111303027D01*
X109846448Y-111400317D01*
X109722621Y-111524144D01*
X109625331Y-111669749D01*
X109558316Y-111831536D01*
X109524152Y-112003289D01*
X108915848Y-112003289D01*
X108881684Y-111831536D01*
X108814669Y-111669749D01*
X108717379Y-111524144D01*
X108593552Y-111400317D01*
X108447947Y-111303027D01*
X108286160Y-111236012D01*
X108114407Y-111201848D01*
X107939289Y-111201848D01*
X107767536Y-111236012D01*
X107605749Y-111303027D01*
X107460144Y-111400317D01*
X107336317Y-111524144D01*
X107239027Y-111669749D01*
X107172012Y-111831536D01*
X107137848Y-112003289D01*
X81083396Y-112003289D01*
X80956632Y-111876525D01*
X80782240Y-111760000D01*
X80956632Y-111643475D01*
X81163475Y-111436632D01*
X81325990Y-111193411D01*
X81437932Y-110923158D01*
X81495000Y-110636260D01*
X81495000Y-110343740D01*
X81437932Y-110056842D01*
X81325990Y-109786589D01*
X81163475Y-109543368D01*
X80956632Y-109336525D01*
X80782240Y-109220000D01*
X80956632Y-109103475D01*
X81163475Y-108896632D01*
X81325990Y-108653411D01*
X81437932Y-108383158D01*
X81495000Y-108096260D01*
X81495000Y-107803740D01*
X81437932Y-107516842D01*
X81325990Y-107246589D01*
X81163475Y-107003368D01*
X80956632Y-106796525D01*
X80782240Y-106680000D01*
X80956632Y-106563475D01*
X81163475Y-106356632D01*
X81325990Y-106113411D01*
X81437932Y-105843158D01*
X81440461Y-105830440D01*
X100964999Y-105830440D01*
X100964999Y-106005558D01*
X100999163Y-106177311D01*
X101066178Y-106339098D01*
X101163468Y-106484703D01*
X101287295Y-106608530D01*
X101432900Y-106705820D01*
X101589895Y-106770850D01*
X101575489Y-106792411D01*
X101508474Y-106954198D01*
X101474310Y-107125951D01*
X101474310Y-107301069D01*
X101508474Y-107472822D01*
X101575489Y-107634609D01*
X101672779Y-107780214D01*
X101796606Y-107904041D01*
X101942211Y-108001331D01*
X102103998Y-108068346D01*
X102275751Y-108102510D01*
X102450869Y-108102510D01*
X102622622Y-108068346D01*
X102784409Y-108001331D01*
X102930014Y-107904041D01*
X103053841Y-107780214D01*
X103151131Y-107634609D01*
X103218146Y-107472822D01*
X103252310Y-107301069D01*
X103252310Y-107125951D01*
X103218146Y-106954198D01*
X103151131Y-106792411D01*
X103053841Y-106646806D01*
X102999476Y-106592441D01*
X106324400Y-106592441D01*
X106324400Y-106767559D01*
X106358564Y-106939312D01*
X106425579Y-107101099D01*
X106522869Y-107246704D01*
X106646696Y-107370531D01*
X106792301Y-107467821D01*
X106954088Y-107534836D01*
X107125841Y-107569000D01*
X107300959Y-107569000D01*
X107472712Y-107534836D01*
X107634499Y-107467821D01*
X107780104Y-107370531D01*
X107903931Y-107246704D01*
X108001221Y-107101099D01*
X108068236Y-106939312D01*
X108086709Y-106846441D01*
X109855000Y-106846441D01*
X109855000Y-107021559D01*
X109889164Y-107193312D01*
X109956179Y-107355099D01*
X110053469Y-107500704D01*
X110177296Y-107624531D01*
X110322901Y-107721821D01*
X110484688Y-107788836D01*
X110656441Y-107823000D01*
X110831559Y-107823000D01*
X111003312Y-107788836D01*
X111165099Y-107721821D01*
X111310704Y-107624531D01*
X111434531Y-107500704D01*
X111531821Y-107355099D01*
X111548431Y-107315000D01*
X111593559Y-107315000D01*
X111765312Y-107280836D01*
X111927099Y-107213821D01*
X112072704Y-107116531D01*
X112196531Y-106992704D01*
X112293821Y-106847099D01*
X112360836Y-106685312D01*
X112395000Y-106513559D01*
X112395000Y-106338441D01*
X112360836Y-106166688D01*
X112293821Y-106004901D01*
X112196531Y-105859296D01*
X112072704Y-105735469D01*
X111927099Y-105638179D01*
X111765312Y-105571164D01*
X111593559Y-105537000D01*
X111418441Y-105537000D01*
X111246688Y-105571164D01*
X111084901Y-105638179D01*
X110939296Y-105735469D01*
X110815469Y-105859296D01*
X110718179Y-106004901D01*
X110701569Y-106045000D01*
X110656441Y-106045000D01*
X110484688Y-106079164D01*
X110322901Y-106146179D01*
X110177296Y-106243469D01*
X110053469Y-106367296D01*
X109956179Y-106512901D01*
X109889164Y-106674688D01*
X109855000Y-106846441D01*
X108086709Y-106846441D01*
X108095388Y-106802812D01*
X108116441Y-106807000D01*
X108291559Y-106807000D01*
X108463312Y-106772836D01*
X108625099Y-106705821D01*
X108770704Y-106608531D01*
X108894531Y-106484704D01*
X108991821Y-106339099D01*
X109058836Y-106177312D01*
X109093000Y-106005559D01*
X109093000Y-105830441D01*
X109058836Y-105658688D01*
X108991821Y-105496901D01*
X108894531Y-105351296D01*
X108770704Y-105227469D01*
X108625099Y-105130179D01*
X108463312Y-105063164D01*
X108291559Y-105029000D01*
X108116441Y-105029000D01*
X107944688Y-105063164D01*
X107782901Y-105130179D01*
X107637296Y-105227469D01*
X107513469Y-105351296D01*
X107416179Y-105496901D01*
X107349164Y-105658688D01*
X107322012Y-105795188D01*
X107300959Y-105791000D01*
X107125841Y-105791000D01*
X106954088Y-105825164D01*
X106792301Y-105892179D01*
X106646696Y-105989469D01*
X106522869Y-106113296D01*
X106425579Y-106258901D01*
X106358564Y-106420688D01*
X106324400Y-106592441D01*
X102999476Y-106592441D01*
X102930014Y-106522979D01*
X102784409Y-106425689D01*
X102627414Y-106360659D01*
X102641820Y-106339098D01*
X102708835Y-106177311D01*
X102742999Y-106005558D01*
X102742999Y-105830440D01*
X102708835Y-105658687D01*
X102641820Y-105496900D01*
X102544530Y-105351295D01*
X102420703Y-105227468D01*
X102275098Y-105130178D01*
X102113311Y-105063163D01*
X101941558Y-105028999D01*
X101766440Y-105028999D01*
X101594687Y-105063163D01*
X101432900Y-105130178D01*
X101287295Y-105227468D01*
X101163468Y-105351295D01*
X101066178Y-105496900D01*
X100999163Y-105658687D01*
X100964999Y-105830440D01*
X81440461Y-105830440D01*
X81495000Y-105556260D01*
X81495000Y-105263740D01*
X81437932Y-104976842D01*
X81325990Y-104706589D01*
X81163475Y-104463368D01*
X80956632Y-104256525D01*
X80782240Y-104140000D01*
X80956632Y-104023475D01*
X81163475Y-103816632D01*
X81325990Y-103573411D01*
X81437932Y-103303158D01*
X81495000Y-103016260D01*
X81495000Y-102723740D01*
X81437932Y-102436842D01*
X81325990Y-102166589D01*
X81163475Y-101923368D01*
X80956632Y-101716525D01*
X80782240Y-101600000D01*
X80956632Y-101483475D01*
X81089650Y-101350457D01*
X86366350Y-101350457D01*
X86366350Y-101849543D01*
X86463717Y-102339038D01*
X86654709Y-102800133D01*
X86931986Y-103215108D01*
X87284892Y-103568014D01*
X87699867Y-103845291D01*
X88160962Y-104036283D01*
X88650457Y-104133650D01*
X89149543Y-104133650D01*
X89620688Y-104039933D01*
X98298000Y-104039933D01*
X98298000Y-104240067D01*
X98337044Y-104436356D01*
X98413632Y-104621256D01*
X98524821Y-104787662D01*
X98666338Y-104929179D01*
X98832744Y-105040368D01*
X99017644Y-105116956D01*
X99213933Y-105156000D01*
X99414067Y-105156000D01*
X99610356Y-105116956D01*
X99795256Y-105040368D01*
X99961662Y-104929179D01*
X100076400Y-104814441D01*
X114173000Y-104814441D01*
X114173000Y-104989559D01*
X114207164Y-105161312D01*
X114274179Y-105323099D01*
X114371469Y-105468704D01*
X114495296Y-105592531D01*
X114640901Y-105689821D01*
X114802688Y-105756836D01*
X114974441Y-105791000D01*
X115149559Y-105791000D01*
X115321312Y-105756836D01*
X115483099Y-105689821D01*
X115628704Y-105592531D01*
X115752531Y-105468704D01*
X115849821Y-105323099D01*
X115916836Y-105161312D01*
X115951000Y-104989559D01*
X115951000Y-104814441D01*
X115916836Y-104642688D01*
X115849821Y-104480901D01*
X115752531Y-104335296D01*
X115628704Y-104211469D01*
X115483099Y-104114179D01*
X115321312Y-104047164D01*
X115149559Y-104013000D01*
X114974441Y-104013000D01*
X114802688Y-104047164D01*
X114640901Y-104114179D01*
X114495296Y-104211469D01*
X114371469Y-104335296D01*
X114274179Y-104480901D01*
X114207164Y-104642688D01*
X114173000Y-104814441D01*
X100076400Y-104814441D01*
X100103179Y-104787662D01*
X100214368Y-104621256D01*
X100290956Y-104436356D01*
X100330000Y-104240067D01*
X100330000Y-104039933D01*
X100290956Y-103843644D01*
X100214368Y-103658744D01*
X100103179Y-103492338D01*
X99961662Y-103350821D01*
X99795256Y-103239632D01*
X99610356Y-103163044D01*
X99414067Y-103124000D01*
X99213933Y-103124000D01*
X99017644Y-103163044D01*
X98832744Y-103239632D01*
X98666338Y-103350821D01*
X98524821Y-103492338D01*
X98413632Y-103658744D01*
X98337044Y-103843644D01*
X98298000Y-104039933D01*
X89620688Y-104039933D01*
X89639038Y-104036283D01*
X90100133Y-103845291D01*
X90515108Y-103568014D01*
X90868014Y-103215108D01*
X91145291Y-102800133D01*
X91336283Y-102339038D01*
X91433650Y-101849543D01*
X91433650Y-101350457D01*
X91336283Y-100860962D01*
X91145291Y-100399867D01*
X91019208Y-100211170D01*
X95807500Y-100211170D01*
X95807500Y-100448830D01*
X95853865Y-100681923D01*
X95944813Y-100901492D01*
X96076850Y-101099099D01*
X96244901Y-101267150D01*
X96442508Y-101399187D01*
X96662077Y-101490135D01*
X96895170Y-101536500D01*
X97132830Y-101536500D01*
X97365923Y-101490135D01*
X97585492Y-101399187D01*
X97658421Y-101350457D01*
X137166350Y-101350457D01*
X137166350Y-101849543D01*
X137263717Y-102339038D01*
X137454709Y-102800133D01*
X137731986Y-103215108D01*
X138084892Y-103568014D01*
X138499867Y-103845291D01*
X138960962Y-104036283D01*
X139450457Y-104133650D01*
X139949543Y-104133650D01*
X140439038Y-104036283D01*
X140900133Y-103845291D01*
X141315108Y-103568014D01*
X141668014Y-103215108D01*
X141945291Y-102800133D01*
X142136283Y-102339038D01*
X142233650Y-101849543D01*
X142233650Y-101350457D01*
X142136283Y-100860962D01*
X141945291Y-100399867D01*
X141668014Y-99984892D01*
X141315108Y-99631986D01*
X140900133Y-99354709D01*
X140439038Y-99163717D01*
X139949543Y-99066350D01*
X139450457Y-99066350D01*
X138960962Y-99163717D01*
X138499867Y-99354709D01*
X138084892Y-99631986D01*
X137731986Y-99984892D01*
X137454709Y-100399867D01*
X137263717Y-100860962D01*
X137166350Y-101350457D01*
X97658421Y-101350457D01*
X97783099Y-101267150D01*
X97951150Y-101099099D01*
X98083187Y-100901492D01*
X98174135Y-100681923D01*
X98220500Y-100448830D01*
X98220500Y-100211170D01*
X98174135Y-99978077D01*
X98083187Y-99758508D01*
X98035683Y-99687413D01*
X117916192Y-99687413D01*
X118011956Y-99951814D01*
X118301571Y-100092704D01*
X118613108Y-100174384D01*
X118934595Y-100193718D01*
X119253675Y-100149961D01*
X119558088Y-100044795D01*
X119732044Y-99951814D01*
X119827808Y-99687413D01*
X118872000Y-98731605D01*
X117916192Y-99687413D01*
X98035683Y-99687413D01*
X97951150Y-99560901D01*
X97783099Y-99392850D01*
X97585492Y-99260813D01*
X97365923Y-99169865D01*
X97132830Y-99123500D01*
X96895170Y-99123500D01*
X96662077Y-99169865D01*
X96442508Y-99260813D01*
X96244901Y-99392850D01*
X96076850Y-99560901D01*
X95944813Y-99758508D01*
X95853865Y-99978077D01*
X95807500Y-100211170D01*
X91019208Y-100211170D01*
X90868014Y-99984892D01*
X90515108Y-99631986D01*
X90100133Y-99354709D01*
X89639038Y-99163717D01*
X89149543Y-99066350D01*
X88650457Y-99066350D01*
X88160962Y-99163717D01*
X87699867Y-99354709D01*
X87284892Y-99631986D01*
X86931986Y-99984892D01*
X86654709Y-100399867D01*
X86463717Y-100860962D01*
X86366350Y-101350457D01*
X81089650Y-101350457D01*
X81163475Y-101276632D01*
X81325990Y-101033411D01*
X81437932Y-100763158D01*
X81495000Y-100476260D01*
X81495000Y-100183740D01*
X81437932Y-99896842D01*
X81325990Y-99626589D01*
X81163475Y-99383368D01*
X80956632Y-99176525D01*
X80782240Y-99060000D01*
X80956632Y-98943475D01*
X81163475Y-98736632D01*
X81325990Y-98493411D01*
X81437932Y-98223158D01*
X81495000Y-97936260D01*
X81495000Y-97643740D01*
X81437932Y-97356842D01*
X81370664Y-97194441D01*
X92583000Y-97194441D01*
X92583000Y-97369559D01*
X92617164Y-97541312D01*
X92684179Y-97703099D01*
X92781469Y-97848704D01*
X92849765Y-97917000D01*
X92781469Y-97985296D01*
X92684179Y-98130901D01*
X92617164Y-98292688D01*
X92583000Y-98464441D01*
X92583000Y-98639559D01*
X92617164Y-98811312D01*
X92684179Y-98973099D01*
X92781469Y-99118704D01*
X92905296Y-99242531D01*
X93050901Y-99339821D01*
X93212688Y-99406836D01*
X93384441Y-99441000D01*
X93559559Y-99441000D01*
X93731312Y-99406836D01*
X93893099Y-99339821D01*
X94038704Y-99242531D01*
X94162531Y-99118704D01*
X94259821Y-98973099D01*
X94326836Y-98811312D01*
X94361000Y-98639559D01*
X94361000Y-98614595D01*
X117230282Y-98614595D01*
X117274039Y-98933675D01*
X117379205Y-99238088D01*
X117472186Y-99412044D01*
X117736587Y-99507808D01*
X118692395Y-98552000D01*
X119051605Y-98552000D01*
X120007413Y-99507808D01*
X120271814Y-99412044D01*
X120412704Y-99122429D01*
X120494384Y-98810892D01*
X120513718Y-98489405D01*
X120500219Y-98390967D01*
X121737000Y-98390967D01*
X121737000Y-98713033D01*
X121799832Y-99028912D01*
X121923082Y-99326463D01*
X122102013Y-99594252D01*
X122329748Y-99821987D01*
X122597537Y-100000918D01*
X122895088Y-100124168D01*
X123210967Y-100187000D01*
X123533033Y-100187000D01*
X123848912Y-100124168D01*
X124146463Y-100000918D01*
X124414252Y-99821987D01*
X124548826Y-99687413D01*
X126116192Y-99687413D01*
X126211956Y-99951814D01*
X126501571Y-100092704D01*
X126813108Y-100174384D01*
X127134595Y-100193718D01*
X127453675Y-100149961D01*
X127758088Y-100044795D01*
X127932044Y-99951814D01*
X128027808Y-99687413D01*
X127072000Y-98731605D01*
X126116192Y-99687413D01*
X124548826Y-99687413D01*
X124641987Y-99594252D01*
X124820918Y-99326463D01*
X124944168Y-99028912D01*
X125007000Y-98713033D01*
X125007000Y-98614595D01*
X125430282Y-98614595D01*
X125474039Y-98933675D01*
X125579205Y-99238088D01*
X125672186Y-99412044D01*
X125936587Y-99507808D01*
X126892395Y-98552000D01*
X127251605Y-98552000D01*
X128207413Y-99507808D01*
X128471814Y-99412044D01*
X128612704Y-99122429D01*
X128694384Y-98810892D01*
X128713718Y-98489405D01*
X128700219Y-98390967D01*
X129937000Y-98390967D01*
X129937000Y-98713033D01*
X129999832Y-99028912D01*
X130123082Y-99326463D01*
X130302013Y-99594252D01*
X130529748Y-99821987D01*
X130797537Y-100000918D01*
X131095088Y-100124168D01*
X131410967Y-100187000D01*
X131733033Y-100187000D01*
X132048912Y-100124168D01*
X132346463Y-100000918D01*
X132614252Y-99821987D01*
X132841987Y-99594252D01*
X133020918Y-99326463D01*
X133130125Y-99062815D01*
X133167469Y-99118704D01*
X133291296Y-99242531D01*
X133436901Y-99339821D01*
X133598688Y-99406836D01*
X133770441Y-99441000D01*
X133945559Y-99441000D01*
X134117312Y-99406836D01*
X134279099Y-99339821D01*
X134424704Y-99242531D01*
X134548531Y-99118704D01*
X134645821Y-98973099D01*
X134712836Y-98811312D01*
X134747000Y-98639559D01*
X134747000Y-98464441D01*
X134712836Y-98292688D01*
X134645821Y-98130901D01*
X134548531Y-97985296D01*
X134424704Y-97861469D01*
X134279099Y-97764179D01*
X134117312Y-97697164D01*
X133945559Y-97663000D01*
X133770441Y-97663000D01*
X133598688Y-97697164D01*
X133436901Y-97764179D01*
X133291296Y-97861469D01*
X133167469Y-97985296D01*
X133130125Y-98041185D01*
X133020918Y-97777537D01*
X132841987Y-97509748D01*
X132614252Y-97282013D01*
X132346463Y-97103082D01*
X132048912Y-96979832D01*
X131733033Y-96917000D01*
X131410967Y-96917000D01*
X131095088Y-96979832D01*
X130797537Y-97103082D01*
X130529748Y-97282013D01*
X130302013Y-97509748D01*
X130123082Y-97777537D01*
X129999832Y-98075088D01*
X129937000Y-98390967D01*
X128700219Y-98390967D01*
X128669961Y-98170325D01*
X128564795Y-97865912D01*
X128471814Y-97691956D01*
X128207413Y-97596192D01*
X127251605Y-98552000D01*
X126892395Y-98552000D01*
X125936587Y-97596192D01*
X125672186Y-97691956D01*
X125531296Y-97981571D01*
X125449616Y-98293108D01*
X125430282Y-98614595D01*
X125007000Y-98614595D01*
X125007000Y-98390967D01*
X124944168Y-98075088D01*
X124820918Y-97777537D01*
X124641987Y-97509748D01*
X124548826Y-97416587D01*
X126116192Y-97416587D01*
X127072000Y-98372395D01*
X128027808Y-97416587D01*
X127932044Y-97152186D01*
X127642429Y-97011296D01*
X127330892Y-96929616D01*
X127009405Y-96910282D01*
X126690325Y-96954039D01*
X126385912Y-97059205D01*
X126211956Y-97152186D01*
X126116192Y-97416587D01*
X124548826Y-97416587D01*
X124414252Y-97282013D01*
X124146463Y-97103082D01*
X123848912Y-96979832D01*
X123533033Y-96917000D01*
X123210967Y-96917000D01*
X122895088Y-96979832D01*
X122597537Y-97103082D01*
X122329748Y-97282013D01*
X122102013Y-97509748D01*
X121923082Y-97777537D01*
X121799832Y-98075088D01*
X121737000Y-98390967D01*
X120500219Y-98390967D01*
X120469961Y-98170325D01*
X120364795Y-97865912D01*
X120271814Y-97691956D01*
X120007413Y-97596192D01*
X119051605Y-98552000D01*
X118692395Y-98552000D01*
X117736587Y-97596192D01*
X117472186Y-97691956D01*
X117331296Y-97981571D01*
X117249616Y-98293108D01*
X117230282Y-98614595D01*
X94361000Y-98614595D01*
X94361000Y-98464441D01*
X94326836Y-98292688D01*
X94259821Y-98130901D01*
X94162531Y-97985296D01*
X94094235Y-97917000D01*
X94162531Y-97848704D01*
X94259821Y-97703099D01*
X94326836Y-97541312D01*
X94351645Y-97416587D01*
X117916192Y-97416587D01*
X118872000Y-98372395D01*
X119827808Y-97416587D01*
X119732044Y-97152186D01*
X119442429Y-97011296D01*
X119130892Y-96929616D01*
X118809405Y-96910282D01*
X118490325Y-96954039D01*
X118185912Y-97059205D01*
X118011956Y-97152186D01*
X117916192Y-97416587D01*
X94351645Y-97416587D01*
X94361000Y-97369559D01*
X94361000Y-97194441D01*
X94326836Y-97022688D01*
X94259821Y-96860901D01*
X94162531Y-96715296D01*
X94038704Y-96591469D01*
X93893099Y-96494179D01*
X93731312Y-96427164D01*
X93559559Y-96393000D01*
X93384441Y-96393000D01*
X93212688Y-96427164D01*
X93050901Y-96494179D01*
X92905296Y-96591469D01*
X92781469Y-96715296D01*
X92684179Y-96860901D01*
X92617164Y-97022688D01*
X92583000Y-97194441D01*
X81370664Y-97194441D01*
X81325990Y-97086589D01*
X81163475Y-96843368D01*
X80956632Y-96636525D01*
X80782240Y-96520000D01*
X80956632Y-96403475D01*
X81163475Y-96196632D01*
X81325990Y-95953411D01*
X81437932Y-95683158D01*
X81495000Y-95396260D01*
X81495000Y-95103740D01*
X81437932Y-94816842D01*
X81325990Y-94546589D01*
X81163475Y-94303368D01*
X80956632Y-94096525D01*
X80782240Y-93980000D01*
X80956632Y-93863475D01*
X81163475Y-93656632D01*
X81174474Y-93640170D01*
X98107500Y-93640170D01*
X98107500Y-93877830D01*
X98153865Y-94110923D01*
X98244813Y-94330492D01*
X98376850Y-94528099D01*
X98544901Y-94696150D01*
X98742508Y-94828187D01*
X98962077Y-94919135D01*
X99195170Y-94965500D01*
X99432830Y-94965500D01*
X99665923Y-94919135D01*
X99885492Y-94828187D01*
X100083099Y-94696150D01*
X100251150Y-94528099D01*
X100383187Y-94330492D01*
X100474135Y-94110923D01*
X100520500Y-93877830D01*
X100520500Y-93640170D01*
X100474135Y-93407077D01*
X100383187Y-93187508D01*
X100383124Y-93187413D01*
X117916192Y-93187413D01*
X118011956Y-93451814D01*
X118301571Y-93592704D01*
X118613108Y-93674384D01*
X118934595Y-93693718D01*
X119253675Y-93649961D01*
X119558088Y-93544795D01*
X119732044Y-93451814D01*
X119827808Y-93187413D01*
X118872000Y-92231605D01*
X117916192Y-93187413D01*
X100383124Y-93187413D01*
X100251150Y-92989901D01*
X100083099Y-92821850D01*
X99885492Y-92689813D01*
X99665923Y-92598865D01*
X99432830Y-92552500D01*
X99195170Y-92552500D01*
X98962077Y-92598865D01*
X98742508Y-92689813D01*
X98544901Y-92821850D01*
X98376850Y-92989901D01*
X98244813Y-93187508D01*
X98153865Y-93407077D01*
X98107500Y-93640170D01*
X81174474Y-93640170D01*
X81325990Y-93413411D01*
X81437932Y-93143158D01*
X81495000Y-92856260D01*
X81495000Y-92563740D01*
X81437932Y-92276842D01*
X81325990Y-92006589D01*
X81207443Y-91829170D01*
X102171500Y-91829170D01*
X102171500Y-92066830D01*
X102217865Y-92299923D01*
X102308813Y-92519492D01*
X102440850Y-92717099D01*
X102608901Y-92885150D01*
X102806508Y-93017187D01*
X103026077Y-93108135D01*
X103259170Y-93154500D01*
X103496830Y-93154500D01*
X103729923Y-93108135D01*
X103949492Y-93017187D01*
X104147099Y-92885150D01*
X104315150Y-92717099D01*
X104447187Y-92519492D01*
X104538135Y-92299923D01*
X104574998Y-92114595D01*
X117230282Y-92114595D01*
X117274039Y-92433675D01*
X117379205Y-92738088D01*
X117472186Y-92912044D01*
X117736587Y-93007808D01*
X118692395Y-92052000D01*
X119051605Y-92052000D01*
X120007413Y-93007808D01*
X120271814Y-92912044D01*
X120412704Y-92622429D01*
X120494384Y-92310892D01*
X120513718Y-91989405D01*
X120500219Y-91890967D01*
X121737000Y-91890967D01*
X121737000Y-92213033D01*
X121799832Y-92528912D01*
X121923082Y-92826463D01*
X122102013Y-93094252D01*
X122329748Y-93321987D01*
X122597537Y-93500918D01*
X122895088Y-93624168D01*
X123210967Y-93687000D01*
X123533033Y-93687000D01*
X123848912Y-93624168D01*
X124146463Y-93500918D01*
X124414252Y-93321987D01*
X124548826Y-93187413D01*
X126116192Y-93187413D01*
X126211956Y-93451814D01*
X126501571Y-93592704D01*
X126813108Y-93674384D01*
X127134595Y-93693718D01*
X127453675Y-93649961D01*
X127758088Y-93544795D01*
X127932044Y-93451814D01*
X128027808Y-93187413D01*
X127072000Y-92231605D01*
X126116192Y-93187413D01*
X124548826Y-93187413D01*
X124641987Y-93094252D01*
X124820918Y-92826463D01*
X124944168Y-92528912D01*
X125007000Y-92213033D01*
X125007000Y-92114595D01*
X125430282Y-92114595D01*
X125474039Y-92433675D01*
X125579205Y-92738088D01*
X125672186Y-92912044D01*
X125936587Y-93007808D01*
X126892395Y-92052000D01*
X127251605Y-92052000D01*
X128207413Y-93007808D01*
X128471814Y-92912044D01*
X128612704Y-92622429D01*
X128694384Y-92310892D01*
X128713718Y-91989405D01*
X128700219Y-91890967D01*
X129937000Y-91890967D01*
X129937000Y-92213033D01*
X129999832Y-92528912D01*
X130123082Y-92826463D01*
X130302013Y-93094252D01*
X130529748Y-93321987D01*
X130797537Y-93500918D01*
X131095088Y-93624168D01*
X131410967Y-93687000D01*
X131733033Y-93687000D01*
X132048912Y-93624168D01*
X132346463Y-93500918D01*
X132614252Y-93321987D01*
X132841987Y-93094252D01*
X133020918Y-92826463D01*
X133144168Y-92528912D01*
X133207000Y-92213033D01*
X133207000Y-91890967D01*
X133144168Y-91575088D01*
X133020918Y-91277537D01*
X132841987Y-91009748D01*
X132614252Y-90782013D01*
X132346463Y-90603082D01*
X132048912Y-90479832D01*
X131733033Y-90417000D01*
X131410967Y-90417000D01*
X131095088Y-90479832D01*
X130797537Y-90603082D01*
X130529748Y-90782013D01*
X130302013Y-91009748D01*
X130123082Y-91277537D01*
X129999832Y-91575088D01*
X129937000Y-91890967D01*
X128700219Y-91890967D01*
X128669961Y-91670325D01*
X128564795Y-91365912D01*
X128471814Y-91191956D01*
X128207413Y-91096192D01*
X127251605Y-92052000D01*
X126892395Y-92052000D01*
X125936587Y-91096192D01*
X125672186Y-91191956D01*
X125531296Y-91481571D01*
X125449616Y-91793108D01*
X125430282Y-92114595D01*
X125007000Y-92114595D01*
X125007000Y-91890967D01*
X124944168Y-91575088D01*
X124820918Y-91277537D01*
X124641987Y-91009748D01*
X124548826Y-90916587D01*
X126116192Y-90916587D01*
X127072000Y-91872395D01*
X128027808Y-90916587D01*
X127932044Y-90652186D01*
X127642429Y-90511296D01*
X127330892Y-90429616D01*
X127009405Y-90410282D01*
X126690325Y-90454039D01*
X126385912Y-90559205D01*
X126211956Y-90652186D01*
X126116192Y-90916587D01*
X124548826Y-90916587D01*
X124414252Y-90782013D01*
X124146463Y-90603082D01*
X123848912Y-90479832D01*
X123533033Y-90417000D01*
X123210967Y-90417000D01*
X122895088Y-90479832D01*
X122597537Y-90603082D01*
X122329748Y-90782013D01*
X122102013Y-91009748D01*
X121923082Y-91277537D01*
X121799832Y-91575088D01*
X121737000Y-91890967D01*
X120500219Y-91890967D01*
X120469961Y-91670325D01*
X120364795Y-91365912D01*
X120271814Y-91191956D01*
X120007413Y-91096192D01*
X119051605Y-92052000D01*
X118692395Y-92052000D01*
X117736587Y-91096192D01*
X117472186Y-91191956D01*
X117331296Y-91481571D01*
X117249616Y-91793108D01*
X117230282Y-92114595D01*
X104574998Y-92114595D01*
X104584500Y-92066830D01*
X104584500Y-91829170D01*
X104538135Y-91596077D01*
X104447187Y-91376508D01*
X104315150Y-91178901D01*
X104147099Y-91010850D01*
X104006025Y-90916587D01*
X117916192Y-90916587D01*
X118872000Y-91872395D01*
X119827808Y-90916587D01*
X119732044Y-90652186D01*
X119442429Y-90511296D01*
X119130892Y-90429616D01*
X118809405Y-90410282D01*
X118490325Y-90454039D01*
X118185912Y-90559205D01*
X118011956Y-90652186D01*
X117916192Y-90916587D01*
X104006025Y-90916587D01*
X103949492Y-90878813D01*
X103729923Y-90787865D01*
X103496830Y-90741500D01*
X103259170Y-90741500D01*
X103026077Y-90787865D01*
X102806508Y-90878813D01*
X102608901Y-91010850D01*
X102440850Y-91178901D01*
X102308813Y-91376508D01*
X102217865Y-91596077D01*
X102171500Y-91829170D01*
X81207443Y-91829170D01*
X81163475Y-91763368D01*
X80956632Y-91556525D01*
X80782240Y-91440000D01*
X80956632Y-91323475D01*
X81163475Y-91116632D01*
X81325990Y-90873411D01*
X81437932Y-90603158D01*
X81495000Y-90316260D01*
X81495000Y-90023740D01*
X81437932Y-89736842D01*
X81364682Y-89560000D01*
X147235318Y-89560000D01*
X147162068Y-89736842D01*
G04 #@! TA.AperFunction,Conductor*
D24*
G36*
X147162068Y-89736842D02*
G01*
X147105000Y-90023740D01*
X147105000Y-90316260D01*
X147162068Y-90603158D01*
X147274010Y-90873411D01*
X147436525Y-91116632D01*
X147643368Y-91323475D01*
X147817760Y-91440000D01*
X147643368Y-91556525D01*
X147436525Y-91763368D01*
X147274010Y-92006589D01*
X147162068Y-92276842D01*
X147105000Y-92563740D01*
X147105000Y-92856260D01*
X147162068Y-93143158D01*
X147274010Y-93413411D01*
X147436525Y-93656632D01*
X147643368Y-93863475D01*
X147817760Y-93980000D01*
X147643368Y-94096525D01*
X147436525Y-94303368D01*
X147274010Y-94546589D01*
X147162068Y-94816842D01*
X147105000Y-95103740D01*
X147105000Y-95396260D01*
X147162068Y-95683158D01*
X147274010Y-95953411D01*
X147436525Y-96196632D01*
X147643368Y-96403475D01*
X147817760Y-96520000D01*
X147643368Y-96636525D01*
X147436525Y-96843368D01*
X147274010Y-97086589D01*
X147162068Y-97356842D01*
X147105000Y-97643740D01*
X147105000Y-97936260D01*
X147162068Y-98223158D01*
X147274010Y-98493411D01*
X147436525Y-98736632D01*
X147643368Y-98943475D01*
X147817760Y-99060000D01*
X147643368Y-99176525D01*
X147436525Y-99383368D01*
X147274010Y-99626589D01*
X147162068Y-99896842D01*
X147105000Y-100183740D01*
X147105000Y-100476260D01*
X147162068Y-100763158D01*
X147274010Y-101033411D01*
X147436525Y-101276632D01*
X147643368Y-101483475D01*
X147817760Y-101600000D01*
X147643368Y-101716525D01*
X147436525Y-101923368D01*
X147274010Y-102166589D01*
X147162068Y-102436842D01*
X147105000Y-102723740D01*
X147105000Y-103016260D01*
X147162068Y-103303158D01*
X147274010Y-103573411D01*
X147436525Y-103816632D01*
X147643368Y-104023475D01*
X147817760Y-104140000D01*
X147643368Y-104256525D01*
X147436525Y-104463368D01*
X147274010Y-104706589D01*
X147162068Y-104976842D01*
X147105000Y-105263740D01*
X147105000Y-105556260D01*
X147162068Y-105843158D01*
X147274010Y-106113411D01*
X147436525Y-106356632D01*
X147643368Y-106563475D01*
X147817760Y-106680000D01*
X147643368Y-106796525D01*
X147436525Y-107003368D01*
X147274010Y-107246589D01*
X147162068Y-107516842D01*
X147105000Y-107803740D01*
X147105000Y-108096260D01*
X147162068Y-108383158D01*
X147274010Y-108653411D01*
X147436525Y-108896632D01*
X147643368Y-109103475D01*
X147817760Y-109220000D01*
X147643368Y-109336525D01*
X147436525Y-109543368D01*
X147274010Y-109786589D01*
X147162068Y-110056842D01*
X147105000Y-110343740D01*
X147105000Y-110636260D01*
X147162068Y-110923158D01*
X147274010Y-111193411D01*
X147436525Y-111436632D01*
X147643368Y-111643475D01*
X147817760Y-111760000D01*
X147643368Y-111876525D01*
X147436525Y-112083368D01*
X147274010Y-112326589D01*
X147162068Y-112596842D01*
X147105000Y-112883740D01*
X147105000Y-113176260D01*
X147162068Y-113463158D01*
X147274010Y-113733411D01*
X147436525Y-113976632D01*
X147643368Y-114183475D01*
X147817760Y-114300000D01*
X147643368Y-114416525D01*
X147436525Y-114623368D01*
X147274010Y-114866589D01*
X147162068Y-115136842D01*
X147105000Y-115423740D01*
X147105000Y-115716260D01*
X147162068Y-116003158D01*
X147274010Y-116273411D01*
X147436525Y-116516632D01*
X147643368Y-116723475D01*
X147817760Y-116840000D01*
X147643368Y-116956525D01*
X147436525Y-117163368D01*
X147274010Y-117406589D01*
X147162068Y-117676842D01*
X147105000Y-117963740D01*
X147105000Y-118256260D01*
X147162068Y-118543158D01*
X147274010Y-118813411D01*
X147436525Y-119056632D01*
X147643368Y-119263475D01*
X147817760Y-119380000D01*
X147643368Y-119496525D01*
X147436525Y-119703368D01*
X147274010Y-119946589D01*
X147162068Y-120216842D01*
X147105000Y-120503740D01*
X147105000Y-120796260D01*
X147162068Y-121083158D01*
X147274010Y-121353411D01*
X147436525Y-121596632D01*
X147643368Y-121803475D01*
X147817760Y-121920000D01*
X147643368Y-122036525D01*
X147436525Y-122243368D01*
X147274010Y-122486589D01*
X147162068Y-122756842D01*
X147105000Y-123043740D01*
X147105000Y-123336260D01*
X147162068Y-123623158D01*
X147274010Y-123893411D01*
X147436525Y-124136632D01*
X147643368Y-124343475D01*
X147825534Y-124465195D01*
X147708645Y-124534822D01*
X147492412Y-124729731D01*
X147318359Y-124963080D01*
X147193175Y-125225901D01*
X147148524Y-125373110D01*
X147269845Y-125603000D01*
X148463000Y-125603000D01*
X148463000Y-125583000D01*
X148717000Y-125583000D01*
X148717000Y-125603000D01*
X151003000Y-125603000D01*
X151003000Y-125583000D01*
X151257000Y-125583000D01*
X151257000Y-125603000D01*
X151277000Y-125603000D01*
X151277000Y-125857000D01*
X151257000Y-125857000D01*
X151257000Y-127056250D01*
X151415750Y-127215000D01*
X151740000Y-127216765D01*
X151740000Y-140068969D01*
X151615423Y-139669983D01*
X151388113Y-139244717D01*
X151017976Y-139024630D01*
X149326605Y-140716000D01*
X151017976Y-142407370D01*
X151388113Y-142187283D01*
X151632084Y-141721794D01*
X151740000Y-141355355D01*
X151740000Y-151740000D01*
X76860000Y-151740000D01*
X76860000Y-149534009D01*
X79504997Y-149534009D01*
X79691073Y-149875166D01*
X80108409Y-150090913D01*
X80559815Y-150221096D01*
X81027946Y-150260713D01*
X81494811Y-150208242D01*
X81942468Y-150065697D01*
X82298927Y-149875166D01*
X82485003Y-149534009D01*
X91544997Y-149534009D01*
X91731073Y-149875166D01*
X92148409Y-150090913D01*
X92599815Y-150221096D01*
X93067946Y-150260713D01*
X93534811Y-150208242D01*
X93982468Y-150065697D01*
X94338927Y-149875166D01*
X94525003Y-149534009D01*
X93035000Y-148044005D01*
X91544997Y-149534009D01*
X82485003Y-149534009D01*
X80995000Y-148044005D01*
X79504997Y-149534009D01*
X76860000Y-149534009D01*
X76860000Y-147897346D01*
X78598687Y-147897346D01*
X78651158Y-148364211D01*
X78793703Y-148811868D01*
X78984234Y-149168327D01*
X79325391Y-149354403D01*
X80815395Y-147864400D01*
X81174605Y-147864400D01*
X82664609Y-149354403D01*
X83005766Y-149168327D01*
X83221513Y-148750991D01*
X83351696Y-148299585D01*
X83385736Y-147897346D01*
X90638687Y-147897346D01*
X90691158Y-148364211D01*
X90833703Y-148811868D01*
X91024234Y-149168327D01*
X91365391Y-149354403D01*
X92855395Y-147864400D01*
X93214605Y-147864400D01*
X94704609Y-149354403D01*
X94931884Y-149230441D01*
X111853000Y-149230441D01*
X111853000Y-149405559D01*
X111887164Y-149577312D01*
X111954179Y-149739099D01*
X112051469Y-149884704D01*
X112175296Y-150008531D01*
X112320901Y-150105821D01*
X112482688Y-150172836D01*
X112654441Y-150207000D01*
X112829559Y-150207000D01*
X113001312Y-150172836D01*
X113163099Y-150105821D01*
X113308704Y-150008531D01*
X113432531Y-149884704D01*
X113529821Y-149739099D01*
X113596836Y-149577312D01*
X113631000Y-149405559D01*
X113631000Y-149230441D01*
X113596836Y-149058688D01*
X113529821Y-148896901D01*
X113432531Y-148751296D01*
X113308704Y-148627469D01*
X113163099Y-148530179D01*
X113001312Y-148463164D01*
X112829559Y-148429000D01*
X112654441Y-148429000D01*
X112482688Y-148463164D01*
X112320901Y-148530179D01*
X112175296Y-148627469D01*
X112051469Y-148751296D01*
X111954179Y-148896901D01*
X111887164Y-149058688D01*
X111853000Y-149230441D01*
X94931884Y-149230441D01*
X95045766Y-149168327D01*
X95261513Y-148750991D01*
X95391696Y-148299585D01*
X95431313Y-147831454D01*
X95378842Y-147364589D01*
X95236297Y-146916932D01*
X95045766Y-146560473D01*
X94704609Y-146374397D01*
X93214605Y-147864400D01*
X92855395Y-147864400D01*
X91365391Y-146374397D01*
X91024234Y-146560473D01*
X90808487Y-146977809D01*
X90678304Y-147429215D01*
X90638687Y-147897346D01*
X83385736Y-147897346D01*
X83391313Y-147831454D01*
X83338842Y-147364589D01*
X83196297Y-146916932D01*
X83005766Y-146560473D01*
X82664609Y-146374397D01*
X81174605Y-147864400D01*
X80815395Y-147864400D01*
X79325391Y-146374397D01*
X78984234Y-146560473D01*
X78768487Y-146977809D01*
X78638304Y-147429215D01*
X78598687Y-147897346D01*
X76860000Y-147897346D01*
X76860000Y-146194791D01*
X79504997Y-146194791D01*
X80995000Y-147684795D01*
X82485003Y-146194791D01*
X82298927Y-145853634D01*
X81881591Y-145637887D01*
X81430185Y-145507704D01*
X80962054Y-145468087D01*
X80495189Y-145520558D01*
X80047532Y-145663103D01*
X79691073Y-145853634D01*
X79504997Y-146194791D01*
X76860000Y-146194791D01*
X76860000Y-143008140D01*
X84280000Y-143008140D01*
X84280000Y-143300660D01*
X84337068Y-143587558D01*
X84449010Y-143857811D01*
X84611525Y-144101032D01*
X84664893Y-144154400D01*
X84611525Y-144207768D01*
X84449010Y-144450989D01*
X84337068Y-144721242D01*
X84280000Y-145008140D01*
X84280000Y-145300660D01*
X84337068Y-145587558D01*
X84449010Y-145857811D01*
X84611525Y-146101032D01*
X84818368Y-146307875D01*
X85061589Y-146470390D01*
X85331842Y-146582332D01*
X85618740Y-146639400D01*
X85911260Y-146639400D01*
X86198158Y-146582332D01*
X86468411Y-146470390D01*
X86711632Y-146307875D01*
X86836710Y-146182797D01*
X87416208Y-146182797D01*
X87493843Y-146431872D01*
X87757883Y-146557771D01*
X88041411Y-146629739D01*
X88333531Y-146645011D01*
X88623019Y-146602999D01*
X88898747Y-146505319D01*
X89036157Y-146431872D01*
X89110053Y-146194791D01*
X91544997Y-146194791D01*
X93035000Y-147684795D01*
X94525003Y-146194791D01*
X94338927Y-145853634D01*
X93921591Y-145637887D01*
X93470185Y-145507704D01*
X93002054Y-145468087D01*
X92535189Y-145520558D01*
X92087532Y-145663103D01*
X91731073Y-145853634D01*
X91544997Y-146194791D01*
X89110053Y-146194791D01*
X89113792Y-146182797D01*
X88265000Y-145334005D01*
X87416208Y-146182797D01*
X86836710Y-146182797D01*
X86918475Y-146101032D01*
X87027416Y-145937990D01*
X87236603Y-146003192D01*
X88085395Y-145154400D01*
X88071253Y-145140258D01*
X88250858Y-144960653D01*
X88265000Y-144974795D01*
X88279143Y-144960653D01*
X88458748Y-145140258D01*
X88444605Y-145154400D01*
X89293397Y-146003192D01*
X89542472Y-145925557D01*
X89668371Y-145661517D01*
X89740339Y-145377989D01*
X89755611Y-145085869D01*
X89713599Y-144796381D01*
X89615919Y-144520653D01*
X89575241Y-144444550D01*
X89645537Y-144358894D01*
X89704502Y-144248580D01*
X89740812Y-144128882D01*
X89753072Y-144004400D01*
X89753072Y-143168441D01*
X109855000Y-143168441D01*
X109855000Y-143343559D01*
X109889164Y-143515312D01*
X109956179Y-143677099D01*
X110053469Y-143822704D01*
X110177296Y-143946531D01*
X110322901Y-144043821D01*
X110484688Y-144110836D01*
X110656441Y-144145000D01*
X110831559Y-144145000D01*
X111003312Y-144110836D01*
X111165099Y-144043821D01*
X111310704Y-143946531D01*
X111434531Y-143822704D01*
X111531821Y-143677099D01*
X111598836Y-143515312D01*
X111633000Y-143343559D01*
X111633000Y-143168441D01*
X111598836Y-142996688D01*
X111564768Y-142914441D01*
X117221000Y-142914441D01*
X117221000Y-143089559D01*
X117255164Y-143261312D01*
X117322179Y-143423099D01*
X117419469Y-143568704D01*
X117543296Y-143692531D01*
X117688901Y-143789821D01*
X117850688Y-143856836D01*
X118022441Y-143891000D01*
X118197559Y-143891000D01*
X118369312Y-143856836D01*
X118531099Y-143789821D01*
X118676704Y-143692531D01*
X118800531Y-143568704D01*
X118897821Y-143423099D01*
X118964836Y-143261312D01*
X118999000Y-143089559D01*
X118999000Y-142914441D01*
X118964836Y-142742688D01*
X118900338Y-142586976D01*
X122465630Y-142586976D01*
X122685717Y-142957113D01*
X123151206Y-143201084D01*
X123655349Y-143349554D01*
X124178769Y-143396819D01*
X124701352Y-143341060D01*
X125203017Y-143184423D01*
X125350570Y-143105554D01*
X130294500Y-143105554D01*
X130294500Y-143406446D01*
X130353201Y-143701555D01*
X130468347Y-143979543D01*
X130635513Y-144229725D01*
X130848275Y-144442487D01*
X131098457Y-144609653D01*
X131376445Y-144724799D01*
X131671554Y-144783500D01*
X131972446Y-144783500D01*
X132267555Y-144724799D01*
X132545543Y-144609653D01*
X132795725Y-144442487D01*
X132967000Y-144271212D01*
X133138275Y-144442487D01*
X133388457Y-144609653D01*
X133666445Y-144724799D01*
X133961554Y-144783500D01*
X134262446Y-144783500D01*
X134557555Y-144724799D01*
X134835543Y-144609653D01*
X135085725Y-144442487D01*
X135257000Y-144271212D01*
X135428275Y-144442487D01*
X135678457Y-144609653D01*
X135956445Y-144724799D01*
X136251554Y-144783500D01*
X136552446Y-144783500D01*
X136847555Y-144724799D01*
X137125543Y-144609653D01*
X137375725Y-144442487D01*
X137547000Y-144271212D01*
X137718275Y-144442487D01*
X137968457Y-144609653D01*
X138246445Y-144724799D01*
X138541554Y-144783500D01*
X138842446Y-144783500D01*
X139137555Y-144724799D01*
X139415543Y-144609653D01*
X139665725Y-144442487D01*
X139837000Y-144271212D01*
X140008275Y-144442487D01*
X140258457Y-144609653D01*
X140536445Y-144724799D01*
X140831554Y-144783500D01*
X141132446Y-144783500D01*
X141427555Y-144724799D01*
X141705543Y-144609653D01*
X141955725Y-144442487D01*
X142168487Y-144229725D01*
X142335653Y-143979543D01*
X142450799Y-143701555D01*
X142509500Y-143406446D01*
X142509500Y-143105554D01*
X142450799Y-142810445D01*
X142358236Y-142586976D01*
X147455630Y-142586976D01*
X147675717Y-142957113D01*
X148141206Y-143201084D01*
X148645349Y-143349554D01*
X149168769Y-143396819D01*
X149691352Y-143341060D01*
X150193017Y-143184423D01*
X150618283Y-142957113D01*
X150838370Y-142586976D01*
X149147000Y-140895605D01*
X147455630Y-142586976D01*
X142358236Y-142586976D01*
X142335653Y-142532457D01*
X142168487Y-142282275D01*
X142129712Y-142243500D01*
X142277446Y-142243500D01*
X142572555Y-142184799D01*
X142850543Y-142069653D01*
X143100725Y-141902487D01*
X143313487Y-141689725D01*
X143480653Y-141439543D01*
X143595799Y-141161555D01*
X143654500Y-140866446D01*
X143654500Y-140737769D01*
X146466181Y-140737769D01*
X146521940Y-141260352D01*
X146678577Y-141762017D01*
X146905887Y-142187283D01*
X147276024Y-142407370D01*
X148967395Y-140716000D01*
X147276024Y-139024630D01*
X146905887Y-139244717D01*
X146661916Y-139710206D01*
X146513446Y-140214349D01*
X146466181Y-140737769D01*
X143654500Y-140737769D01*
X143654500Y-140565554D01*
X143595799Y-140270445D01*
X143480653Y-139992457D01*
X143313487Y-139742275D01*
X143100725Y-139529513D01*
X142850543Y-139362347D01*
X142572555Y-139247201D01*
X142488912Y-139230563D01*
X142500312Y-139192982D01*
X142512572Y-139068500D01*
X142512572Y-138845024D01*
X147455630Y-138845024D01*
X149147000Y-140536395D01*
X150838370Y-138845024D01*
X150618283Y-138474887D01*
X150152794Y-138230916D01*
X149648651Y-138082446D01*
X149125231Y-138035181D01*
X148602648Y-138090940D01*
X148100983Y-138247577D01*
X147675717Y-138474887D01*
X147455630Y-138845024D01*
X142512572Y-138845024D01*
X142512572Y-137283500D01*
X142500312Y-137159018D01*
X142464002Y-137039320D01*
X142405037Y-136929006D01*
X142325685Y-136832315D01*
X142228994Y-136752963D01*
X142118680Y-136693998D01*
X141998982Y-136657688D01*
X141874500Y-136645428D01*
X140089500Y-136645428D01*
X139965018Y-136657688D01*
X139845320Y-136693998D01*
X139735006Y-136752963D01*
X139638315Y-136832315D01*
X139564703Y-136922012D01*
X139415543Y-136822347D01*
X139137555Y-136707201D01*
X138842446Y-136648500D01*
X138541554Y-136648500D01*
X138246445Y-136707201D01*
X137968457Y-136822347D01*
X137718275Y-136989513D01*
X137547000Y-137160788D01*
X137375725Y-136989513D01*
X137125543Y-136822347D01*
X136847555Y-136707201D01*
X136552446Y-136648500D01*
X136251554Y-136648500D01*
X135956445Y-136707201D01*
X135678457Y-136822347D01*
X135428275Y-136989513D01*
X135257000Y-137160788D01*
X135085725Y-136989513D01*
X134835543Y-136822347D01*
X134557555Y-136707201D01*
X134262446Y-136648500D01*
X133961554Y-136648500D01*
X133666445Y-136707201D01*
X133388457Y-136822347D01*
X133138275Y-136989513D01*
X132925513Y-137202275D01*
X132825198Y-137352407D01*
X132001605Y-138176000D01*
X132015748Y-138190143D01*
X131836143Y-138369748D01*
X131822000Y-138355605D01*
X130942877Y-139234728D01*
X131025652Y-139488144D01*
X131296941Y-139618291D01*
X131588407Y-139693012D01*
X131808181Y-139705025D01*
X131792299Y-139720907D01*
X131908270Y-139836878D01*
X131654856Y-139919652D01*
X131524709Y-140190941D01*
X131449988Y-140482407D01*
X131433565Y-140782849D01*
X131476071Y-141080723D01*
X131575873Y-141364580D01*
X131654856Y-141512348D01*
X131908270Y-141595122D01*
X131792299Y-141711093D01*
X131809706Y-141728500D01*
X131671554Y-141728500D01*
X131376445Y-141787201D01*
X131098457Y-141902347D01*
X130848275Y-142069513D01*
X130635513Y-142282275D01*
X130468347Y-142532457D01*
X130353201Y-142810445D01*
X130294500Y-143105554D01*
X125350570Y-143105554D01*
X125628283Y-142957113D01*
X125848370Y-142586976D01*
X124157000Y-140895605D01*
X122465630Y-142586976D01*
X118900338Y-142586976D01*
X118897821Y-142580901D01*
X118800531Y-142435296D01*
X118676704Y-142311469D01*
X118531099Y-142214179D01*
X118369312Y-142147164D01*
X118197559Y-142113000D01*
X118022441Y-142113000D01*
X117850688Y-142147164D01*
X117688901Y-142214179D01*
X117543296Y-142311469D01*
X117419469Y-142435296D01*
X117322179Y-142580901D01*
X117255164Y-142742688D01*
X117221000Y-142914441D01*
X111564768Y-142914441D01*
X111531821Y-142834901D01*
X111434531Y-142689296D01*
X111310704Y-142565469D01*
X111165099Y-142468179D01*
X111003312Y-142401164D01*
X110831559Y-142367000D01*
X110656441Y-142367000D01*
X110484688Y-142401164D01*
X110322901Y-142468179D01*
X110177296Y-142565469D01*
X110053469Y-142689296D01*
X109956179Y-142834901D01*
X109889164Y-142996688D01*
X109855000Y-143168441D01*
X89753072Y-143168441D01*
X89753072Y-142304400D01*
X89740812Y-142179918D01*
X89732477Y-142152441D01*
X102997000Y-142152441D01*
X102997000Y-142327559D01*
X103031164Y-142499312D01*
X103098179Y-142661099D01*
X103195469Y-142806704D01*
X103319296Y-142930531D01*
X103464901Y-143027821D01*
X103626688Y-143094836D01*
X103798441Y-143129000D01*
X103973559Y-143129000D01*
X104145312Y-143094836D01*
X104307099Y-143027821D01*
X104452704Y-142930531D01*
X104576531Y-142806704D01*
X104673821Y-142661099D01*
X104740836Y-142499312D01*
X104775000Y-142327559D01*
X104775000Y-142152441D01*
X104740836Y-141980688D01*
X104673821Y-141818901D01*
X104576531Y-141673296D01*
X104452704Y-141549469D01*
X104307099Y-141452179D01*
X104145312Y-141385164D01*
X103973559Y-141351000D01*
X103798441Y-141351000D01*
X103626688Y-141385164D01*
X103464901Y-141452179D01*
X103319296Y-141549469D01*
X103195469Y-141673296D01*
X103098179Y-141818901D01*
X103031164Y-141980688D01*
X102997000Y-142152441D01*
X89732477Y-142152441D01*
X89704502Y-142060220D01*
X89645537Y-141949906D01*
X89566185Y-141853215D01*
X89469494Y-141773863D01*
X89359180Y-141714898D01*
X89239482Y-141678588D01*
X89115000Y-141666328D01*
X87415000Y-141666328D01*
X87290518Y-141678588D01*
X87170820Y-141714898D01*
X87060506Y-141773863D01*
X86963815Y-141853215D01*
X86884463Y-141949906D01*
X86825498Y-142060220D01*
X86812797Y-142102090D01*
X86711632Y-142000925D01*
X86468411Y-141838410D01*
X86198158Y-141726468D01*
X85911260Y-141669400D01*
X85618740Y-141669400D01*
X85331842Y-141726468D01*
X85061589Y-141838410D01*
X84818368Y-142000925D01*
X84611525Y-142207768D01*
X84449010Y-142450989D01*
X84337068Y-142721242D01*
X84280000Y-143008140D01*
X76860000Y-143008140D01*
X76860000Y-139764355D01*
X104267000Y-139764355D01*
X104267000Y-139939473D01*
X104301164Y-140111226D01*
X104368179Y-140273013D01*
X104465469Y-140418618D01*
X104589296Y-140542445D01*
X104734901Y-140639735D01*
X104896688Y-140706750D01*
X105068441Y-140740914D01*
X105243559Y-140740914D01*
X105415312Y-140706750D01*
X105577099Y-140639735D01*
X105722704Y-140542445D01*
X105846531Y-140418618D01*
X105876049Y-140374441D01*
X106807000Y-140374441D01*
X106807000Y-140549559D01*
X106841164Y-140721312D01*
X106908179Y-140883099D01*
X107005469Y-141028704D01*
X107129296Y-141152531D01*
X107274901Y-141249821D01*
X107436688Y-141316836D01*
X107608441Y-141351000D01*
X107783559Y-141351000D01*
X107955312Y-141316836D01*
X108077000Y-141266431D01*
X108198688Y-141316836D01*
X108370441Y-141351000D01*
X108545559Y-141351000D01*
X108717312Y-141316836D01*
X108839000Y-141266431D01*
X108960688Y-141316836D01*
X109132441Y-141351000D01*
X109307559Y-141351000D01*
X109479312Y-141316836D01*
X109641099Y-141249821D01*
X109786704Y-141152531D01*
X109855000Y-141084235D01*
X109923296Y-141152531D01*
X110068901Y-141249821D01*
X110230688Y-141316836D01*
X110402441Y-141351000D01*
X110577559Y-141351000D01*
X110749312Y-141316836D01*
X110911099Y-141249821D01*
X111056704Y-141152531D01*
X111180531Y-141028704D01*
X111277821Y-140883099D01*
X111338019Y-140737769D01*
X121476181Y-140737769D01*
X121531940Y-141260352D01*
X121688577Y-141762017D01*
X121915887Y-142187283D01*
X122286024Y-142407370D01*
X123977395Y-140716000D01*
X124336605Y-140716000D01*
X126027976Y-142407370D01*
X126398113Y-142187283D01*
X126642084Y-141721794D01*
X126739667Y-141390441D01*
X127127000Y-141390441D01*
X127127000Y-141565559D01*
X127161164Y-141737312D01*
X127228179Y-141899099D01*
X127325469Y-142044704D01*
X127449296Y-142168531D01*
X127594901Y-142265821D01*
X127756688Y-142332836D01*
X127928441Y-142367000D01*
X128103559Y-142367000D01*
X128275312Y-142332836D01*
X128437099Y-142265821D01*
X128582704Y-142168531D01*
X128706531Y-142044704D01*
X128803821Y-141899099D01*
X128870836Y-141737312D01*
X128905000Y-141565559D01*
X128905000Y-141390441D01*
X128870836Y-141218688D01*
X128803821Y-141056901D01*
X128706531Y-140911296D01*
X128582704Y-140787469D01*
X128437099Y-140690179D01*
X128275312Y-140623164D01*
X128103559Y-140589000D01*
X127928441Y-140589000D01*
X127756688Y-140623164D01*
X127594901Y-140690179D01*
X127449296Y-140787469D01*
X127325469Y-140911296D01*
X127228179Y-141056901D01*
X127161164Y-141218688D01*
X127127000Y-141390441D01*
X126739667Y-141390441D01*
X126790554Y-141217651D01*
X126837819Y-140694231D01*
X126782060Y-140171648D01*
X126625423Y-139669983D01*
X126398113Y-139244717D01*
X126027976Y-139024630D01*
X124336605Y-140716000D01*
X123977395Y-140716000D01*
X122286024Y-139024630D01*
X121915887Y-139244717D01*
X121671916Y-139710206D01*
X121523446Y-140214349D01*
X121476181Y-140737769D01*
X111338019Y-140737769D01*
X111344836Y-140721312D01*
X111379000Y-140549559D01*
X111379000Y-140374441D01*
X111344836Y-140202688D01*
X111277821Y-140040901D01*
X111180531Y-139895296D01*
X111056704Y-139771469D01*
X110911099Y-139674179D01*
X110749312Y-139607164D01*
X110577559Y-139573000D01*
X110402441Y-139573000D01*
X110230688Y-139607164D01*
X110068901Y-139674179D01*
X109923296Y-139771469D01*
X109855000Y-139839765D01*
X109786704Y-139771469D01*
X109641099Y-139674179D01*
X109479312Y-139607164D01*
X109307559Y-139573000D01*
X109132441Y-139573000D01*
X108960688Y-139607164D01*
X108839000Y-139657569D01*
X108717312Y-139607164D01*
X108545559Y-139573000D01*
X108370441Y-139573000D01*
X108198688Y-139607164D01*
X108077000Y-139657569D01*
X107955312Y-139607164D01*
X107783559Y-139573000D01*
X107608441Y-139573000D01*
X107436688Y-139607164D01*
X107274901Y-139674179D01*
X107129296Y-139771469D01*
X107005469Y-139895296D01*
X106908179Y-140040901D01*
X106841164Y-140202688D01*
X106807000Y-140374441D01*
X105876049Y-140374441D01*
X105943821Y-140273013D01*
X106010836Y-140111226D01*
X106045000Y-139939473D01*
X106045000Y-139764355D01*
X106010836Y-139592602D01*
X105943821Y-139430815D01*
X105846531Y-139285210D01*
X105722704Y-139161383D01*
X105577099Y-139064093D01*
X105415312Y-138997078D01*
X105243559Y-138962914D01*
X105068441Y-138962914D01*
X104896688Y-138997078D01*
X104734901Y-139064093D01*
X104589296Y-139161383D01*
X104465469Y-139285210D01*
X104368179Y-139430815D01*
X104301164Y-139592602D01*
X104267000Y-139764355D01*
X76860000Y-139764355D01*
X76860000Y-133844000D01*
X78679928Y-133844000D01*
X78692188Y-133968482D01*
X78728498Y-134088180D01*
X78787463Y-134198494D01*
X78866815Y-134295185D01*
X78963506Y-134374537D01*
X79073820Y-134433502D01*
X79193518Y-134469812D01*
X79318000Y-134482072D01*
X79738574Y-134480659D01*
X79648801Y-134517844D01*
X79348256Y-134718662D01*
X79092662Y-134974256D01*
X78891844Y-135274801D01*
X78753518Y-135608750D01*
X78683000Y-135963268D01*
X78683000Y-136324732D01*
X78753518Y-136679250D01*
X78891844Y-137013199D01*
X79092662Y-137313744D01*
X79348256Y-137569338D01*
X79648801Y-137770156D01*
X79982750Y-137908482D01*
X80337268Y-137979000D01*
X80698732Y-137979000D01*
X81053250Y-137908482D01*
X81232001Y-137834441D01*
X96393000Y-137834441D01*
X96393000Y-138009559D01*
X96427164Y-138181312D01*
X96477569Y-138303000D01*
X96427164Y-138424688D01*
X96393000Y-138596441D01*
X96393000Y-138771559D01*
X96427164Y-138943312D01*
X96494179Y-139105099D01*
X96591469Y-139250704D01*
X96715296Y-139374531D01*
X96860901Y-139471821D01*
X97022688Y-139538836D01*
X97194441Y-139573000D01*
X97369559Y-139573000D01*
X97541312Y-139538836D01*
X97703099Y-139471821D01*
X97848704Y-139374531D01*
X97972531Y-139250704D01*
X98069821Y-139105099D01*
X98136836Y-138943312D01*
X98156386Y-138845024D01*
X122465630Y-138845024D01*
X124157000Y-140536395D01*
X125848370Y-138845024D01*
X125628283Y-138474887D01*
X125185562Y-138242849D01*
X130288565Y-138242849D01*
X130331071Y-138540723D01*
X130430873Y-138824580D01*
X130509856Y-138972348D01*
X130763272Y-139055123D01*
X131642395Y-138176000D01*
X130763272Y-137296877D01*
X130509856Y-137379652D01*
X130379709Y-137650941D01*
X130304988Y-137942407D01*
X130288565Y-138242849D01*
X125185562Y-138242849D01*
X125162794Y-138230916D01*
X124658651Y-138082446D01*
X124135231Y-138035181D01*
X123612648Y-138090940D01*
X123110983Y-138247577D01*
X122685717Y-138474887D01*
X122465630Y-138845024D01*
X98156386Y-138845024D01*
X98171000Y-138771559D01*
X98171000Y-138596441D01*
X98136836Y-138424688D01*
X98086431Y-138303000D01*
X98136836Y-138181312D01*
X98171000Y-138009559D01*
X98171000Y-137834441D01*
X98136836Y-137662688D01*
X98069821Y-137500901D01*
X97972531Y-137355296D01*
X97848704Y-137231469D01*
X97703099Y-137134179D01*
X97541312Y-137067164D01*
X97369559Y-137033000D01*
X97194441Y-137033000D01*
X97022688Y-137067164D01*
X96860901Y-137134179D01*
X96715296Y-137231469D01*
X96591469Y-137355296D01*
X96494179Y-137500901D01*
X96427164Y-137662688D01*
X96393000Y-137834441D01*
X81232001Y-137834441D01*
X81387199Y-137770156D01*
X81687744Y-137569338D01*
X81943338Y-137313744D01*
X82144156Y-137013199D01*
X82282482Y-136679250D01*
X82353000Y-136324732D01*
X82353000Y-135963268D01*
X82282482Y-135608750D01*
X82152292Y-135294441D01*
X112395000Y-135294441D01*
X112395000Y-135469559D01*
X112429164Y-135641312D01*
X112496179Y-135803099D01*
X112554244Y-135890000D01*
X112496179Y-135976901D01*
X112429164Y-136138688D01*
X112395000Y-136310441D01*
X112395000Y-136485559D01*
X112429164Y-136657312D01*
X112479569Y-136779000D01*
X112429164Y-136900688D01*
X112395000Y-137072441D01*
X112395000Y-137247559D01*
X112429164Y-137419312D01*
X112496179Y-137581099D01*
X112593469Y-137726704D01*
X112717296Y-137850531D01*
X112862901Y-137947821D01*
X113024688Y-138014836D01*
X113196441Y-138049000D01*
X113371559Y-138049000D01*
X113543312Y-138014836D01*
X113705099Y-137947821D01*
X113850704Y-137850531D01*
X113974531Y-137726704D01*
X114071821Y-137581099D01*
X114138836Y-137419312D01*
X114173000Y-137247559D01*
X114173000Y-137117272D01*
X130942877Y-137117272D01*
X131822000Y-137996395D01*
X132701123Y-137117272D01*
X132618348Y-136863856D01*
X132347059Y-136733709D01*
X132055593Y-136658988D01*
X131755151Y-136642565D01*
X131457277Y-136685071D01*
X131173420Y-136784873D01*
X131025652Y-136863856D01*
X130942877Y-137117272D01*
X114173000Y-137117272D01*
X114173000Y-137072441D01*
X114138836Y-136900688D01*
X114088431Y-136779000D01*
X114138836Y-136657312D01*
X114173000Y-136485559D01*
X114173000Y-136310441D01*
X114138836Y-136138688D01*
X114104768Y-136056441D01*
X115697000Y-136056441D01*
X115697000Y-136231559D01*
X115731164Y-136403312D01*
X115798179Y-136565099D01*
X115895469Y-136710704D01*
X116019296Y-136834531D01*
X116164901Y-136931821D01*
X116326688Y-136998836D01*
X116498441Y-137033000D01*
X116673559Y-137033000D01*
X116845312Y-136998836D01*
X117007099Y-136931821D01*
X117152704Y-136834531D01*
X117276531Y-136710704D01*
X117373821Y-136565099D01*
X117440836Y-136403312D01*
X117475000Y-136231559D01*
X117475000Y-136056441D01*
X117440836Y-135884688D01*
X117373821Y-135722901D01*
X117276531Y-135577296D01*
X117247676Y-135548441D01*
X117729000Y-135548441D01*
X117729000Y-135723559D01*
X117763164Y-135895312D01*
X117830179Y-136057099D01*
X117927469Y-136202704D01*
X118051296Y-136326531D01*
X118196901Y-136423821D01*
X118358688Y-136490836D01*
X118530441Y-136525000D01*
X118705559Y-136525000D01*
X118877312Y-136490836D01*
X119039099Y-136423821D01*
X119184704Y-136326531D01*
X119308531Y-136202704D01*
X119405821Y-136057099D01*
X119472836Y-135895312D01*
X119507000Y-135723559D01*
X119507000Y-135548441D01*
X119472836Y-135376688D01*
X119405821Y-135214901D01*
X119308531Y-135069296D01*
X119184704Y-134945469D01*
X119039099Y-134848179D01*
X118877312Y-134781164D01*
X118705559Y-134747000D01*
X118530441Y-134747000D01*
X118358688Y-134781164D01*
X118196901Y-134848179D01*
X118051296Y-134945469D01*
X117927469Y-135069296D01*
X117830179Y-135214901D01*
X117763164Y-135376688D01*
X117729000Y-135548441D01*
X117247676Y-135548441D01*
X117152704Y-135453469D01*
X117007099Y-135356179D01*
X116845312Y-135289164D01*
X116673559Y-135255000D01*
X116498441Y-135255000D01*
X116326688Y-135289164D01*
X116164901Y-135356179D01*
X116019296Y-135453469D01*
X115895469Y-135577296D01*
X115798179Y-135722901D01*
X115731164Y-135884688D01*
X115697000Y-136056441D01*
X114104768Y-136056441D01*
X114071821Y-135976901D01*
X114013756Y-135890000D01*
X114071821Y-135803099D01*
X114138836Y-135641312D01*
X114173000Y-135469559D01*
X114173000Y-135294441D01*
X114138836Y-135122688D01*
X114071821Y-134960901D01*
X113974531Y-134815296D01*
X113850704Y-134691469D01*
X113705099Y-134594179D01*
X113543312Y-134527164D01*
X113371559Y-134493000D01*
X113196441Y-134493000D01*
X113024688Y-134527164D01*
X112862901Y-134594179D01*
X112717296Y-134691469D01*
X112593469Y-134815296D01*
X112496179Y-134960901D01*
X112429164Y-135122688D01*
X112395000Y-135294441D01*
X82152292Y-135294441D01*
X82144156Y-135274801D01*
X81943338Y-134974256D01*
X81687744Y-134718662D01*
X81387199Y-134517844D01*
X81297426Y-134480659D01*
X81718000Y-134482072D01*
X81842482Y-134469812D01*
X81962180Y-134433502D01*
X82072494Y-134374537D01*
X82169185Y-134295185D01*
X82248537Y-134198494D01*
X82307502Y-134088180D01*
X82343812Y-133968482D01*
X82356072Y-133844000D01*
X82354118Y-133262441D01*
X112649000Y-133262441D01*
X112649000Y-133437559D01*
X112683164Y-133609312D01*
X112750179Y-133771099D01*
X112847469Y-133916704D01*
X112971296Y-134040531D01*
X113116901Y-134137821D01*
X113278688Y-134204836D01*
X113450441Y-134239000D01*
X113625559Y-134239000D01*
X113797312Y-134204836D01*
X113959099Y-134137821D01*
X114104704Y-134040531D01*
X114228531Y-133916704D01*
X114325821Y-133771099D01*
X114392836Y-133609312D01*
X114427000Y-133437559D01*
X114427000Y-133262441D01*
X114392836Y-133090688D01*
X114325821Y-132928901D01*
X114228531Y-132783296D01*
X114104704Y-132659469D01*
X113959099Y-132562179D01*
X113797312Y-132495164D01*
X113625559Y-132461000D01*
X113450441Y-132461000D01*
X113278688Y-132495164D01*
X113116901Y-132562179D01*
X112971296Y-132659469D01*
X112847469Y-132783296D01*
X112750179Y-132928901D01*
X112683164Y-133090688D01*
X112649000Y-133262441D01*
X82354118Y-133262441D01*
X82353000Y-132929750D01*
X82194250Y-132771000D01*
X80645000Y-132771000D01*
X80645000Y-132791000D01*
X80391000Y-132791000D01*
X80391000Y-132771000D01*
X78841750Y-132771000D01*
X78683000Y-132929750D01*
X78679928Y-133844000D01*
X76860000Y-133844000D01*
X76860000Y-131444000D01*
X78679928Y-131444000D01*
X78683000Y-132358250D01*
X78841750Y-132517000D01*
X80391000Y-132517000D01*
X80391000Y-130967750D01*
X80645000Y-130967750D01*
X80645000Y-132517000D01*
X82194250Y-132517000D01*
X82353000Y-132358250D01*
X82354229Y-131992441D01*
X105029000Y-131992441D01*
X105029000Y-132167559D01*
X105063164Y-132339312D01*
X105130179Y-132501099D01*
X105227469Y-132646704D01*
X105351296Y-132770531D01*
X105496901Y-132867821D01*
X105658688Y-132934836D01*
X105830441Y-132969000D01*
X106005559Y-132969000D01*
X106177312Y-132934836D01*
X106339099Y-132867821D01*
X106484704Y-132770531D01*
X106608531Y-132646704D01*
X106705821Y-132501099D01*
X106772836Y-132339312D01*
X106807000Y-132167559D01*
X106807000Y-131992441D01*
X106772836Y-131820688D01*
X106705821Y-131658901D01*
X106608531Y-131513296D01*
X106484704Y-131389469D01*
X106339099Y-131292179D01*
X106190052Y-131230441D01*
X115697000Y-131230441D01*
X115697000Y-131405559D01*
X115731164Y-131577312D01*
X115798179Y-131739099D01*
X115895469Y-131884704D01*
X116019296Y-132008531D01*
X116164901Y-132105821D01*
X116326688Y-132172836D01*
X116498441Y-132207000D01*
X116673559Y-132207000D01*
X116845312Y-132172836D01*
X117007099Y-132105821D01*
X117152704Y-132008531D01*
X117276531Y-131884704D01*
X117373821Y-131739099D01*
X117440836Y-131577312D01*
X117459309Y-131484441D01*
X125476000Y-131484441D01*
X125476000Y-131659559D01*
X125510164Y-131831312D01*
X125577179Y-131993099D01*
X125674469Y-132138704D01*
X125798296Y-132262531D01*
X125943901Y-132359821D01*
X126105688Y-132426836D01*
X126277441Y-132461000D01*
X126452559Y-132461000D01*
X126624312Y-132426836D01*
X126786099Y-132359821D01*
X126931704Y-132262531D01*
X127055531Y-132138704D01*
X127152821Y-131993099D01*
X127219836Y-131831312D01*
X127254000Y-131659559D01*
X127254000Y-131484441D01*
X127219836Y-131312688D01*
X127152821Y-131150901D01*
X127055531Y-131005296D01*
X126931704Y-130881469D01*
X126786099Y-130784179D01*
X126624312Y-130717164D01*
X126452559Y-130683000D01*
X126277441Y-130683000D01*
X126105688Y-130717164D01*
X125943901Y-130784179D01*
X125798296Y-130881469D01*
X125674469Y-131005296D01*
X125577179Y-131150901D01*
X125510164Y-131312688D01*
X125476000Y-131484441D01*
X117459309Y-131484441D01*
X117475000Y-131405559D01*
X117475000Y-131230441D01*
X117440836Y-131058688D01*
X117373821Y-130896901D01*
X117276531Y-130751296D01*
X117152704Y-130627469D01*
X117007099Y-130530179D01*
X116845312Y-130463164D01*
X116673559Y-130429000D01*
X116498441Y-130429000D01*
X116326688Y-130463164D01*
X116164901Y-130530179D01*
X116019296Y-130627469D01*
X115895469Y-130751296D01*
X115798179Y-130896901D01*
X115731164Y-131058688D01*
X115697000Y-131230441D01*
X106190052Y-131230441D01*
X106177312Y-131225164D01*
X106005559Y-131191000D01*
X105830441Y-131191000D01*
X105658688Y-131225164D01*
X105496901Y-131292179D01*
X105351296Y-131389469D01*
X105227469Y-131513296D01*
X105130179Y-131658901D01*
X105063164Y-131820688D01*
X105029000Y-131992441D01*
X82354229Y-131992441D01*
X82356072Y-131444000D01*
X82343812Y-131319518D01*
X82307502Y-131199820D01*
X82248537Y-131089506D01*
X82169185Y-130992815D01*
X82072494Y-130913463D01*
X81962180Y-130854498D01*
X81842482Y-130818188D01*
X81718000Y-130805928D01*
X80803750Y-130809000D01*
X80645000Y-130967750D01*
X80391000Y-130967750D01*
X80232250Y-130809000D01*
X79318000Y-130805928D01*
X79193518Y-130818188D01*
X79073820Y-130854498D01*
X78963506Y-130913463D01*
X78866815Y-130992815D01*
X78787463Y-131089506D01*
X78728498Y-131199820D01*
X78692188Y-131319518D01*
X78679928Y-131444000D01*
X76860000Y-131444000D01*
X76860000Y-128436441D01*
X109093000Y-128436441D01*
X109093000Y-128611559D01*
X109127164Y-128783312D01*
X109194179Y-128945099D01*
X109291469Y-129090704D01*
X109415296Y-129214531D01*
X109560901Y-129311821D01*
X109722688Y-129378836D01*
X109894441Y-129413000D01*
X110069559Y-129413000D01*
X110241312Y-129378836D01*
X110403099Y-129311821D01*
X110548704Y-129214531D01*
X110672531Y-129090704D01*
X110744000Y-128983743D01*
X110815469Y-129090704D01*
X110939296Y-129214531D01*
X111084901Y-129311821D01*
X111246688Y-129378836D01*
X111418441Y-129413000D01*
X111593559Y-129413000D01*
X111765312Y-129378836D01*
X111927099Y-129311821D01*
X112072704Y-129214531D01*
X112196531Y-129090704D01*
X112293821Y-128945099D01*
X112360836Y-128783312D01*
X112379309Y-128690441D01*
X112395000Y-128690441D01*
X112395000Y-128865559D01*
X112429164Y-129037312D01*
X112496179Y-129199099D01*
X112593469Y-129344704D01*
X112717296Y-129468531D01*
X112862901Y-129565821D01*
X113024688Y-129632836D01*
X113196441Y-129667000D01*
X113371559Y-129667000D01*
X113543312Y-129632836D01*
X113705099Y-129565821D01*
X113850704Y-129468531D01*
X113974531Y-129344704D01*
X114071821Y-129199099D01*
X114138836Y-129037312D01*
X114173000Y-128865559D01*
X114173000Y-128690441D01*
X114138836Y-128518688D01*
X114071821Y-128356901D01*
X113974531Y-128211296D01*
X113850704Y-128087469D01*
X113705099Y-127990179D01*
X113543312Y-127923164D01*
X113371559Y-127889000D01*
X113196441Y-127889000D01*
X113024688Y-127923164D01*
X112862901Y-127990179D01*
X112717296Y-128087469D01*
X112593469Y-128211296D01*
X112496179Y-128356901D01*
X112429164Y-128518688D01*
X112395000Y-128690441D01*
X112379309Y-128690441D01*
X112395000Y-128611559D01*
X112395000Y-128436441D01*
X112360836Y-128264688D01*
X112293821Y-128102901D01*
X112196531Y-127957296D01*
X112072704Y-127833469D01*
X111927099Y-127736179D01*
X111765312Y-127669164D01*
X111593559Y-127635000D01*
X111418441Y-127635000D01*
X111246688Y-127669164D01*
X111084901Y-127736179D01*
X110939296Y-127833469D01*
X110815469Y-127957296D01*
X110744000Y-128064257D01*
X110672531Y-127957296D01*
X110548704Y-127833469D01*
X110403099Y-127736179D01*
X110241312Y-127669164D01*
X110069559Y-127635000D01*
X109894441Y-127635000D01*
X109722688Y-127669164D01*
X109560901Y-127736179D01*
X109415296Y-127833469D01*
X109291469Y-127957296D01*
X109194179Y-128102901D01*
X109127164Y-128264688D01*
X109093000Y-128436441D01*
X76860000Y-128436441D01*
X76860000Y-127081696D01*
X77113109Y-127171481D01*
X77343000Y-127050814D01*
X77343000Y-125857000D01*
X77597000Y-125857000D01*
X77597000Y-127050814D01*
X77826891Y-127171481D01*
X78101252Y-127074157D01*
X78351355Y-126925178D01*
X78547502Y-126748374D01*
X78570498Y-126824180D01*
X78629463Y-126934494D01*
X78708815Y-127031185D01*
X78805506Y-127110537D01*
X78915820Y-127169502D01*
X79035518Y-127205812D01*
X79160000Y-127218072D01*
X79724250Y-127215000D01*
X79883000Y-127056250D01*
X79883000Y-125857000D01*
X80137000Y-125857000D01*
X80137000Y-127056250D01*
X80295750Y-127215000D01*
X80860000Y-127218072D01*
X80984482Y-127205812D01*
X81104180Y-127169502D01*
X81214494Y-127110537D01*
X81311185Y-127031185D01*
X81390537Y-126934494D01*
X81449502Y-126824180D01*
X81485812Y-126704482D01*
X81498072Y-126580000D01*
X81497117Y-126404441D01*
X115697000Y-126404441D01*
X115697000Y-126579559D01*
X115731164Y-126751312D01*
X115798179Y-126913099D01*
X115895469Y-127058704D01*
X116019296Y-127182531D01*
X116164901Y-127279821D01*
X116326688Y-127346836D01*
X116498441Y-127381000D01*
X116673559Y-127381000D01*
X116845312Y-127346836D01*
X117007099Y-127279821D01*
X117152704Y-127182531D01*
X117276531Y-127058704D01*
X117373821Y-126913099D01*
X117440836Y-126751312D01*
X117475000Y-126579559D01*
X117475000Y-126404441D01*
X117440836Y-126232688D01*
X117373821Y-126070901D01*
X117276531Y-125925296D01*
X117152704Y-125801469D01*
X117007099Y-125704179D01*
X116858052Y-125642441D01*
X135509000Y-125642441D01*
X135509000Y-125817559D01*
X135543164Y-125989312D01*
X135610179Y-126151099D01*
X135707469Y-126296704D01*
X135831296Y-126420531D01*
X135976901Y-126517821D01*
X136138688Y-126584836D01*
X136310441Y-126619000D01*
X136485559Y-126619000D01*
X136657312Y-126584836D01*
X136819099Y-126517821D01*
X136964704Y-126420531D01*
X137088531Y-126296704D01*
X137185821Y-126151099D01*
X137252836Y-125989312D01*
X137287000Y-125817559D01*
X137287000Y-125642441D01*
X137795000Y-125642441D01*
X137795000Y-125817559D01*
X137829164Y-125989312D01*
X137896179Y-126151099D01*
X137993469Y-126296704D01*
X138117296Y-126420531D01*
X138262901Y-126517821D01*
X138424688Y-126584836D01*
X138596441Y-126619000D01*
X138771559Y-126619000D01*
X138943312Y-126584836D01*
X139105099Y-126517821D01*
X139250704Y-126420531D01*
X139374531Y-126296704D01*
X139471821Y-126151099D01*
X139538836Y-125989312D01*
X139573000Y-125817559D01*
X139573000Y-125642441D01*
X140081000Y-125642441D01*
X140081000Y-125817559D01*
X140115164Y-125989312D01*
X140182179Y-126151099D01*
X140279469Y-126296704D01*
X140403296Y-126420531D01*
X140548901Y-126517821D01*
X140710688Y-126584836D01*
X140882441Y-126619000D01*
X141057559Y-126619000D01*
X141229312Y-126584836D01*
X141391099Y-126517821D01*
X141536704Y-126420531D01*
X141660531Y-126296704D01*
X141757821Y-126151099D01*
X141784417Y-126086890D01*
X147148524Y-126086890D01*
X147193175Y-126234099D01*
X147318359Y-126496920D01*
X147492412Y-126730269D01*
X147708645Y-126925178D01*
X147958748Y-127074157D01*
X148233109Y-127171481D01*
X148463000Y-127050814D01*
X148463000Y-125857000D01*
X148717000Y-125857000D01*
X148717000Y-127050814D01*
X148946891Y-127171481D01*
X149221252Y-127074157D01*
X149471355Y-126925178D01*
X149667502Y-126748374D01*
X149690498Y-126824180D01*
X149749463Y-126934494D01*
X149828815Y-127031185D01*
X149925506Y-127110537D01*
X150035820Y-127169502D01*
X150155518Y-127205812D01*
X150280000Y-127218072D01*
X150844250Y-127215000D01*
X151003000Y-127056250D01*
X151003000Y-125857000D01*
X148717000Y-125857000D01*
X148463000Y-125857000D01*
X147269845Y-125857000D01*
X147148524Y-126086890D01*
X141784417Y-126086890D01*
X141824836Y-125989312D01*
X141859000Y-125817559D01*
X141859000Y-125642441D01*
X141824836Y-125470688D01*
X141757821Y-125308901D01*
X141660531Y-125163296D01*
X141536704Y-125039469D01*
X141391099Y-124942179D01*
X141229312Y-124875164D01*
X141057559Y-124841000D01*
X140882441Y-124841000D01*
X140710688Y-124875164D01*
X140548901Y-124942179D01*
X140403296Y-125039469D01*
X140279469Y-125163296D01*
X140182179Y-125308901D01*
X140115164Y-125470688D01*
X140081000Y-125642441D01*
X139573000Y-125642441D01*
X139538836Y-125470688D01*
X139471821Y-125308901D01*
X139374531Y-125163296D01*
X139250704Y-125039469D01*
X139105099Y-124942179D01*
X138943312Y-124875164D01*
X138771559Y-124841000D01*
X138596441Y-124841000D01*
X138424688Y-124875164D01*
X138262901Y-124942179D01*
X138117296Y-125039469D01*
X137993469Y-125163296D01*
X137896179Y-125308901D01*
X137829164Y-125470688D01*
X137795000Y-125642441D01*
X137287000Y-125642441D01*
X137252836Y-125470688D01*
X137185821Y-125308901D01*
X137088531Y-125163296D01*
X136964704Y-125039469D01*
X136819099Y-124942179D01*
X136657312Y-124875164D01*
X136485559Y-124841000D01*
X136310441Y-124841000D01*
X136138688Y-124875164D01*
X135976901Y-124942179D01*
X135831296Y-125039469D01*
X135707469Y-125163296D01*
X135610179Y-125308901D01*
X135543164Y-125470688D01*
X135509000Y-125642441D01*
X116858052Y-125642441D01*
X116845312Y-125637164D01*
X116673559Y-125603000D01*
X116498441Y-125603000D01*
X116326688Y-125637164D01*
X116164901Y-125704179D01*
X116019296Y-125801469D01*
X115895469Y-125925296D01*
X115798179Y-126070901D01*
X115731164Y-126232688D01*
X115697000Y-126404441D01*
X81497117Y-126404441D01*
X81495000Y-126015750D01*
X81336250Y-125857000D01*
X80137000Y-125857000D01*
X79883000Y-125857000D01*
X77597000Y-125857000D01*
X77343000Y-125857000D01*
X77323000Y-125857000D01*
X77323000Y-125603000D01*
X77343000Y-125603000D01*
X77343000Y-125583000D01*
X77597000Y-125583000D01*
X77597000Y-125603000D01*
X79883000Y-125603000D01*
X79883000Y-125583000D01*
X80137000Y-125583000D01*
X80137000Y-125603000D01*
X81336250Y-125603000D01*
X81495000Y-125444250D01*
X81498072Y-124880000D01*
X81485812Y-124755518D01*
X81449502Y-124635820D01*
X81390537Y-124525506D01*
X81311185Y-124428815D01*
X81214494Y-124349463D01*
X81104180Y-124290498D01*
X81031620Y-124268487D01*
X81163475Y-124136632D01*
X81325990Y-123893411D01*
X81337989Y-123864441D01*
X90805000Y-123864441D01*
X90805000Y-124039559D01*
X90839164Y-124211312D01*
X90906179Y-124373099D01*
X91003469Y-124518704D01*
X91127296Y-124642531D01*
X91272901Y-124739821D01*
X91434688Y-124806836D01*
X91606441Y-124841000D01*
X91781559Y-124841000D01*
X91953312Y-124806836D01*
X92115099Y-124739821D01*
X92260704Y-124642531D01*
X92384531Y-124518704D01*
X92481821Y-124373099D01*
X92482093Y-124372441D01*
X109093000Y-124372441D01*
X109093000Y-124547559D01*
X109127164Y-124719312D01*
X109194179Y-124881099D01*
X109291469Y-125026704D01*
X109415296Y-125150531D01*
X109560901Y-125247821D01*
X109722688Y-125314836D01*
X109894441Y-125349000D01*
X110069559Y-125349000D01*
X110241312Y-125314836D01*
X110403099Y-125247821D01*
X110548704Y-125150531D01*
X110672531Y-125026704D01*
X110769821Y-124881099D01*
X110836836Y-124719312D01*
X110871000Y-124547559D01*
X110871000Y-124372441D01*
X111633000Y-124372441D01*
X111633000Y-124547559D01*
X111667164Y-124719312D01*
X111734179Y-124881099D01*
X111831469Y-125026704D01*
X111955296Y-125150531D01*
X112100901Y-125247821D01*
X112262688Y-125314836D01*
X112401544Y-125342456D01*
X112429164Y-125481312D01*
X112496179Y-125643099D01*
X112593469Y-125788704D01*
X112717296Y-125912531D01*
X112862901Y-126009821D01*
X113024688Y-126076836D01*
X113196441Y-126111000D01*
X113371559Y-126111000D01*
X113543312Y-126076836D01*
X113705099Y-126009821D01*
X113850704Y-125912531D01*
X113974531Y-125788704D01*
X114071821Y-125643099D01*
X114138836Y-125481312D01*
X114173000Y-125309559D01*
X114173000Y-125134441D01*
X114138836Y-124962688D01*
X114071821Y-124800901D01*
X113974531Y-124655296D01*
X113971176Y-124651941D01*
X122783500Y-124651941D01*
X122783500Y-124827059D01*
X122817664Y-124998812D01*
X122884679Y-125160599D01*
X122981969Y-125306204D01*
X123105796Y-125430031D01*
X123251401Y-125527321D01*
X123413188Y-125594336D01*
X123584941Y-125628500D01*
X123760059Y-125628500D01*
X123931812Y-125594336D01*
X124093599Y-125527321D01*
X124239204Y-125430031D01*
X124363031Y-125306204D01*
X124460321Y-125160599D01*
X124527336Y-124998812D01*
X124561500Y-124827059D01*
X124561500Y-124651941D01*
X124527336Y-124480188D01*
X124460321Y-124318401D01*
X124363031Y-124172796D01*
X124239204Y-124048969D01*
X124093599Y-123951679D01*
X123931812Y-123884664D01*
X123760059Y-123850500D01*
X123584941Y-123850500D01*
X123413188Y-123884664D01*
X123251401Y-123951679D01*
X123105796Y-124048969D01*
X122981969Y-124172796D01*
X122884679Y-124318401D01*
X122817664Y-124480188D01*
X122783500Y-124651941D01*
X113971176Y-124651941D01*
X113850704Y-124531469D01*
X113705099Y-124434179D01*
X113543312Y-124367164D01*
X113404456Y-124339544D01*
X113376836Y-124200688D01*
X113309821Y-124038901D01*
X113212531Y-123893296D01*
X113088704Y-123769469D01*
X112943099Y-123672179D01*
X112781312Y-123605164D01*
X112609559Y-123571000D01*
X112434441Y-123571000D01*
X112262688Y-123605164D01*
X112100901Y-123672179D01*
X111955296Y-123769469D01*
X111831469Y-123893296D01*
X111734179Y-124038901D01*
X111667164Y-124200688D01*
X111633000Y-124372441D01*
X110871000Y-124372441D01*
X110836836Y-124200688D01*
X110769821Y-124038901D01*
X110672531Y-123893296D01*
X110548704Y-123769469D01*
X110403099Y-123672179D01*
X110241312Y-123605164D01*
X110069559Y-123571000D01*
X109894441Y-123571000D01*
X109722688Y-123605164D01*
X109560901Y-123672179D01*
X109415296Y-123769469D01*
X109291469Y-123893296D01*
X109194179Y-124038901D01*
X109127164Y-124200688D01*
X109093000Y-124372441D01*
X92482093Y-124372441D01*
X92548836Y-124211312D01*
X92583000Y-124039559D01*
X92583000Y-123864441D01*
X92548836Y-123692688D01*
X92481821Y-123530901D01*
X92384531Y-123385296D01*
X92260704Y-123261469D01*
X92212756Y-123229431D01*
X118872010Y-123229431D01*
X118872010Y-123404549D01*
X118906174Y-123576302D01*
X118973189Y-123738089D01*
X119070479Y-123883694D01*
X119194306Y-124007521D01*
X119339911Y-124104811D01*
X119501698Y-124171826D01*
X119673451Y-124205990D01*
X119848569Y-124205990D01*
X120020322Y-124171826D01*
X120182109Y-124104811D01*
X120327714Y-124007521D01*
X120451541Y-123883694D01*
X120548831Y-123738089D01*
X120615846Y-123576302D01*
X120650010Y-123404549D01*
X120650010Y-123229431D01*
X120615846Y-123057678D01*
X120548831Y-122895891D01*
X120451541Y-122750286D01*
X120327714Y-122626459D01*
X120279796Y-122594441D01*
X121539000Y-122594441D01*
X121539000Y-122769559D01*
X121573164Y-122941312D01*
X121640179Y-123103099D01*
X121737469Y-123248704D01*
X121861296Y-123372531D01*
X122006901Y-123469821D01*
X122168688Y-123536836D01*
X122340441Y-123571000D01*
X122515559Y-123571000D01*
X122687312Y-123536836D01*
X122849099Y-123469821D01*
X122994704Y-123372531D01*
X123118531Y-123248704D01*
X123215821Y-123103099D01*
X123282836Y-122941312D01*
X123317000Y-122769559D01*
X123317000Y-122594441D01*
X123282836Y-122422688D01*
X123215821Y-122260901D01*
X123118531Y-122115296D01*
X122994704Y-121991469D01*
X122849099Y-121894179D01*
X122687312Y-121827164D01*
X122515559Y-121793000D01*
X122340441Y-121793000D01*
X122168688Y-121827164D01*
X122006901Y-121894179D01*
X121861296Y-121991469D01*
X121737469Y-122115296D01*
X121640179Y-122260901D01*
X121573164Y-122422688D01*
X121539000Y-122594441D01*
X120279796Y-122594441D01*
X120182109Y-122529169D01*
X120020322Y-122462154D01*
X119848569Y-122427990D01*
X119673451Y-122427990D01*
X119501698Y-122462154D01*
X119339911Y-122529169D01*
X119194306Y-122626459D01*
X119070479Y-122750286D01*
X118973189Y-122895891D01*
X118906174Y-123057678D01*
X118872010Y-123229431D01*
X92212756Y-123229431D01*
X92115099Y-123164179D01*
X91953312Y-123097164D01*
X91781559Y-123063000D01*
X91606441Y-123063000D01*
X91434688Y-123097164D01*
X91272901Y-123164179D01*
X91127296Y-123261469D01*
X91003469Y-123385296D01*
X90906179Y-123530901D01*
X90839164Y-123692688D01*
X90805000Y-123864441D01*
X81337989Y-123864441D01*
X81437932Y-123623158D01*
X81495000Y-123336260D01*
X81495000Y-123043740D01*
X81437932Y-122756842D01*
X81325990Y-122486589D01*
X81163475Y-122243368D01*
X81006548Y-122086441D01*
X101219000Y-122086441D01*
X101219000Y-122261559D01*
X101253164Y-122433312D01*
X101320179Y-122595099D01*
X101417469Y-122740704D01*
X101541296Y-122864531D01*
X101686901Y-122961821D01*
X101848688Y-123028836D01*
X102020441Y-123063000D01*
X102195559Y-123063000D01*
X102367312Y-123028836D01*
X102529099Y-122961821D01*
X102674704Y-122864531D01*
X102798531Y-122740704D01*
X102895821Y-122595099D01*
X102937201Y-122495201D01*
X103037099Y-122453821D01*
X103182704Y-122356531D01*
X103306531Y-122232704D01*
X103403821Y-122087099D01*
X103470836Y-121925312D01*
X103505000Y-121753559D01*
X103505000Y-121578441D01*
X103470836Y-121406688D01*
X103403821Y-121244901D01*
X103306531Y-121099296D01*
X103277676Y-121070441D01*
X111633000Y-121070441D01*
X111633000Y-121245559D01*
X111667164Y-121417312D01*
X111734179Y-121579099D01*
X111831469Y-121724704D01*
X111955296Y-121848531D01*
X112100901Y-121945821D01*
X112262688Y-122012836D01*
X112434441Y-122047000D01*
X112609559Y-122047000D01*
X112781312Y-122012836D01*
X112943099Y-121945821D01*
X113088704Y-121848531D01*
X113212531Y-121724704D01*
X113309821Y-121579099D01*
X113376836Y-121417312D01*
X113411000Y-121245559D01*
X113411000Y-121070441D01*
X114681000Y-121070441D01*
X114681000Y-121245559D01*
X114715164Y-121417312D01*
X114782179Y-121579099D01*
X114879469Y-121724704D01*
X115003296Y-121848531D01*
X115148901Y-121945821D01*
X115310688Y-122012836D01*
X115482441Y-122047000D01*
X115657559Y-122047000D01*
X115829312Y-122012836D01*
X115991099Y-121945821D01*
X116136704Y-121848531D01*
X116260531Y-121724704D01*
X116357821Y-121579099D01*
X116424836Y-121417312D01*
X116459000Y-121245559D01*
X116459000Y-121070441D01*
X116424836Y-120898688D01*
X116357821Y-120736901D01*
X116260531Y-120591296D01*
X116136704Y-120467469D01*
X115991099Y-120370179D01*
X115829312Y-120303164D01*
X115657559Y-120269000D01*
X115482441Y-120269000D01*
X115310688Y-120303164D01*
X115148901Y-120370179D01*
X115003296Y-120467469D01*
X114879469Y-120591296D01*
X114782179Y-120736901D01*
X114715164Y-120898688D01*
X114681000Y-121070441D01*
X113411000Y-121070441D01*
X113376836Y-120898688D01*
X113309821Y-120736901D01*
X113212531Y-120591296D01*
X113088704Y-120467469D01*
X112943099Y-120370179D01*
X112781312Y-120303164D01*
X112609559Y-120269000D01*
X112434441Y-120269000D01*
X112262688Y-120303164D01*
X112100901Y-120370179D01*
X111955296Y-120467469D01*
X111831469Y-120591296D01*
X111734179Y-120736901D01*
X111667164Y-120898688D01*
X111633000Y-121070441D01*
X103277676Y-121070441D01*
X103182704Y-120975469D01*
X103037099Y-120878179D01*
X102875312Y-120811164D01*
X102703559Y-120777000D01*
X102528441Y-120777000D01*
X102356688Y-120811164D01*
X102194901Y-120878179D01*
X102049296Y-120975469D01*
X101925469Y-121099296D01*
X101828179Y-121244901D01*
X101786799Y-121344799D01*
X101686901Y-121386179D01*
X101541296Y-121483469D01*
X101417469Y-121607296D01*
X101320179Y-121752901D01*
X101253164Y-121914688D01*
X101219000Y-122086441D01*
X81006548Y-122086441D01*
X80956632Y-122036525D01*
X80782240Y-121920000D01*
X80956632Y-121803475D01*
X81163475Y-121596632D01*
X81325990Y-121353411D01*
X81437932Y-121083158D01*
X81495000Y-120796260D01*
X81495000Y-120503740D01*
X81456153Y-120308441D01*
X94107000Y-120308441D01*
X94107000Y-120483559D01*
X94141164Y-120655312D01*
X94208179Y-120817099D01*
X94305469Y-120962704D01*
X94429296Y-121086531D01*
X94574901Y-121183821D01*
X94736688Y-121250836D01*
X94908441Y-121285000D01*
X95083559Y-121285000D01*
X95255312Y-121250836D01*
X95417099Y-121183821D01*
X95562704Y-121086531D01*
X95686531Y-120962704D01*
X95783821Y-120817099D01*
X95850836Y-120655312D01*
X95885000Y-120483559D01*
X95885000Y-120308441D01*
X95850836Y-120136688D01*
X95783821Y-119974901D01*
X95686531Y-119829296D01*
X95562704Y-119705469D01*
X95417099Y-119608179D01*
X95255312Y-119541164D01*
X95083559Y-119507000D01*
X94908441Y-119507000D01*
X94736688Y-119541164D01*
X94574901Y-119608179D01*
X94429296Y-119705469D01*
X94305469Y-119829296D01*
X94208179Y-119974901D01*
X94141164Y-120136688D01*
X94107000Y-120308441D01*
X81456153Y-120308441D01*
X81437932Y-120216842D01*
X81325990Y-119946589D01*
X81163475Y-119703368D01*
X80956632Y-119496525D01*
X80782240Y-119380000D01*
X80956632Y-119263475D01*
X81163475Y-119056632D01*
X81325990Y-118813411D01*
X81437932Y-118543158D01*
X81465726Y-118403428D01*
X104267000Y-118403428D01*
X104267000Y-118578546D01*
X104301164Y-118750299D01*
X104325269Y-118808494D01*
X104301164Y-118866688D01*
X104267000Y-119038441D01*
X104267000Y-119213559D01*
X104301164Y-119385312D01*
X104368179Y-119547099D01*
X104465469Y-119692704D01*
X104589296Y-119816531D01*
X104734901Y-119913821D01*
X104896688Y-119980836D01*
X105068441Y-120015000D01*
X105243559Y-120015000D01*
X105415312Y-119980836D01*
X105577099Y-119913821D01*
X105722704Y-119816531D01*
X105846531Y-119692704D01*
X105943821Y-119547099D01*
X106010836Y-119385312D01*
X106045000Y-119213559D01*
X106045000Y-119038441D01*
X106010836Y-118866688D01*
X105986731Y-118808494D01*
X106010836Y-118750299D01*
X106045000Y-118578546D01*
X106045000Y-118403428D01*
X106010836Y-118231675D01*
X105943821Y-118069888D01*
X105912118Y-118022441D01*
X112903000Y-118022441D01*
X112903000Y-118197559D01*
X112937164Y-118369312D01*
X113004179Y-118531099D01*
X113101469Y-118676704D01*
X113225296Y-118800531D01*
X113370901Y-118897821D01*
X113532688Y-118964836D01*
X113704441Y-118999000D01*
X113879559Y-118999000D01*
X114051312Y-118964836D01*
X114213099Y-118897821D01*
X114358704Y-118800531D01*
X114482531Y-118676704D01*
X114579821Y-118531099D01*
X114646836Y-118369312D01*
X114681000Y-118197559D01*
X114681000Y-118022441D01*
X114646836Y-117850688D01*
X114612768Y-117768441D01*
X117475000Y-117768441D01*
X117475000Y-117943559D01*
X117509164Y-118115312D01*
X117576179Y-118277099D01*
X117673469Y-118422704D01*
X117797296Y-118546531D01*
X117942901Y-118643821D01*
X118104688Y-118710836D01*
X118276441Y-118745000D01*
X118451559Y-118745000D01*
X118623312Y-118710836D01*
X118785099Y-118643821D01*
X118930704Y-118546531D01*
X119054531Y-118422704D01*
X119151821Y-118277099D01*
X119218836Y-118115312D01*
X119253000Y-117943559D01*
X119253000Y-117768441D01*
X126873000Y-117768441D01*
X126873000Y-117943559D01*
X126907164Y-118115312D01*
X126974179Y-118277099D01*
X127071469Y-118422704D01*
X127195296Y-118546531D01*
X127340901Y-118643821D01*
X127502688Y-118710836D01*
X127674441Y-118745000D01*
X127849559Y-118745000D01*
X128021312Y-118710836D01*
X128183099Y-118643821D01*
X128328704Y-118546531D01*
X128452531Y-118422704D01*
X128549821Y-118277099D01*
X128616836Y-118115312D01*
X128651000Y-117943559D01*
X128651000Y-117768441D01*
X128616836Y-117596688D01*
X128549821Y-117434901D01*
X128452531Y-117289296D01*
X128328704Y-117165469D01*
X128183099Y-117068179D01*
X128021312Y-117001164D01*
X127849559Y-116967000D01*
X127674441Y-116967000D01*
X127502688Y-117001164D01*
X127340901Y-117068179D01*
X127195296Y-117165469D01*
X127071469Y-117289296D01*
X126974179Y-117434901D01*
X126907164Y-117596688D01*
X126873000Y-117768441D01*
X119253000Y-117768441D01*
X119218836Y-117596688D01*
X119151821Y-117434901D01*
X119054531Y-117289296D01*
X118930704Y-117165469D01*
X118785099Y-117068179D01*
X118623312Y-117001164D01*
X118451559Y-116967000D01*
X118276441Y-116967000D01*
X118104688Y-117001164D01*
X117942901Y-117068179D01*
X117797296Y-117165469D01*
X117673469Y-117289296D01*
X117576179Y-117434901D01*
X117509164Y-117596688D01*
X117475000Y-117768441D01*
X114612768Y-117768441D01*
X114579821Y-117688901D01*
X114482531Y-117543296D01*
X114358704Y-117419469D01*
X114213099Y-117322179D01*
X114051312Y-117255164D01*
X113879559Y-117221000D01*
X113704441Y-117221000D01*
X113532688Y-117255164D01*
X113370901Y-117322179D01*
X113225296Y-117419469D01*
X113101469Y-117543296D01*
X113004179Y-117688901D01*
X112937164Y-117850688D01*
X112903000Y-118022441D01*
X105912118Y-118022441D01*
X105846531Y-117924283D01*
X105722704Y-117800456D01*
X105577099Y-117703166D01*
X105415312Y-117636151D01*
X105243559Y-117601987D01*
X105068441Y-117601987D01*
X104896688Y-117636151D01*
X104734901Y-117703166D01*
X104589296Y-117800456D01*
X104465469Y-117924283D01*
X104368179Y-118069888D01*
X104301164Y-118231675D01*
X104267000Y-118403428D01*
X81465726Y-118403428D01*
X81495000Y-118256260D01*
X81495000Y-117963740D01*
X81437932Y-117676842D01*
X81325990Y-117406589D01*
X81163475Y-117163368D01*
X80956632Y-116956525D01*
X80782240Y-116840000D01*
X80956632Y-116723475D01*
X81163475Y-116516632D01*
X81325990Y-116273411D01*
X81437932Y-116003158D01*
X81495000Y-115716260D01*
X81495000Y-115423740D01*
X81437932Y-115136842D01*
X81325990Y-114866589D01*
X81163475Y-114623368D01*
X80956632Y-114416525D01*
X80916326Y-114389593D01*
X107137848Y-114389593D01*
X107137848Y-114564711D01*
X107172012Y-114736464D01*
X107239027Y-114898251D01*
X107336317Y-115043856D01*
X107460144Y-115167683D01*
X107605749Y-115264973D01*
X107767536Y-115331988D01*
X107939289Y-115366152D01*
X108114407Y-115366152D01*
X108286160Y-115331988D01*
X108447947Y-115264973D01*
X108593552Y-115167683D01*
X108717379Y-115043856D01*
X108814669Y-114898251D01*
X108881684Y-114736464D01*
X108915848Y-114564711D01*
X108915848Y-114389593D01*
X109524152Y-114389593D01*
X109524152Y-114564711D01*
X109558316Y-114736464D01*
X109625331Y-114898251D01*
X109722621Y-115043856D01*
X109846448Y-115167683D01*
X109992053Y-115264973D01*
X110153840Y-115331988D01*
X110325593Y-115366152D01*
X110500711Y-115366152D01*
X110672464Y-115331988D01*
X110834251Y-115264973D01*
X110979856Y-115167683D01*
X111103683Y-115043856D01*
X111200973Y-114898251D01*
X111267988Y-114736464D01*
X111302152Y-114564711D01*
X111302152Y-114389593D01*
X111267988Y-114217840D01*
X111200973Y-114056053D01*
X111103683Y-113910448D01*
X110979856Y-113786621D01*
X110834251Y-113689331D01*
X110672464Y-113622316D01*
X110500711Y-113588152D01*
X110325593Y-113588152D01*
X110153840Y-113622316D01*
X109992053Y-113689331D01*
X109846448Y-113786621D01*
X109722621Y-113910448D01*
X109625331Y-114056053D01*
X109558316Y-114217840D01*
X109524152Y-114389593D01*
X108915848Y-114389593D01*
X108881684Y-114217840D01*
X108814669Y-114056053D01*
X108717379Y-113910448D01*
X108593552Y-113786621D01*
X108447947Y-113689331D01*
X108286160Y-113622316D01*
X108114407Y-113588152D01*
X107939289Y-113588152D01*
X107767536Y-113622316D01*
X107605749Y-113689331D01*
X107460144Y-113786621D01*
X107336317Y-113910448D01*
X107239027Y-114056053D01*
X107172012Y-114217840D01*
X107137848Y-114389593D01*
X80916326Y-114389593D01*
X80782240Y-114300000D01*
X80956632Y-114183475D01*
X81163475Y-113976632D01*
X81325990Y-113733411D01*
X81437932Y-113463158D01*
X81490985Y-113196441D01*
X96393000Y-113196441D01*
X96393000Y-113371559D01*
X96427164Y-113543312D01*
X96494179Y-113705099D01*
X96591469Y-113850704D01*
X96715296Y-113974531D01*
X96860901Y-114071821D01*
X97022688Y-114138836D01*
X97194441Y-114173000D01*
X97369559Y-114173000D01*
X97541312Y-114138836D01*
X97703099Y-114071821D01*
X97848704Y-113974531D01*
X97972531Y-113850704D01*
X98069821Y-113705099D01*
X98136836Y-113543312D01*
X98171000Y-113371559D01*
X98171000Y-113196441D01*
X98136836Y-113024688D01*
X98069821Y-112862901D01*
X97972531Y-112717296D01*
X97848704Y-112593469D01*
X97703099Y-112496179D01*
X97541312Y-112429164D01*
X97369559Y-112395000D01*
X97194441Y-112395000D01*
X97022688Y-112429164D01*
X96860901Y-112496179D01*
X96715296Y-112593469D01*
X96591469Y-112717296D01*
X96494179Y-112862901D01*
X96427164Y-113024688D01*
X96393000Y-113196441D01*
X81490985Y-113196441D01*
X81495000Y-113176260D01*
X81495000Y-112883740D01*
X81437932Y-112596842D01*
X81325990Y-112326589D01*
X81163475Y-112083368D01*
X81083396Y-112003289D01*
X107137848Y-112003289D01*
X107137848Y-112178407D01*
X107172012Y-112350160D01*
X107239027Y-112511947D01*
X107336317Y-112657552D01*
X107460144Y-112781379D01*
X107605749Y-112878669D01*
X107767536Y-112945684D01*
X107939289Y-112979848D01*
X108114407Y-112979848D01*
X108286160Y-112945684D01*
X108447947Y-112878669D01*
X108593552Y-112781379D01*
X108717379Y-112657552D01*
X108814669Y-112511947D01*
X108881684Y-112350160D01*
X108915848Y-112178407D01*
X108915848Y-112003289D01*
X109524152Y-112003289D01*
X109524152Y-112178407D01*
X109558316Y-112350160D01*
X109625331Y-112511947D01*
X109722621Y-112657552D01*
X109846448Y-112781379D01*
X109992053Y-112878669D01*
X110153840Y-112945684D01*
X110325593Y-112979848D01*
X110500711Y-112979848D01*
X110672464Y-112945684D01*
X110834251Y-112878669D01*
X110979856Y-112781379D01*
X111103683Y-112657552D01*
X111200973Y-112511947D01*
X111215133Y-112477762D01*
X111223440Y-112497818D01*
X111165165Y-112638505D01*
X111131001Y-112810258D01*
X111131001Y-112985376D01*
X111165165Y-113157129D01*
X111223440Y-113297816D01*
X111165165Y-113438504D01*
X111131001Y-113610257D01*
X111131001Y-113785375D01*
X111165165Y-113957128D01*
X111232180Y-114118915D01*
X111329470Y-114264520D01*
X111453297Y-114388347D01*
X111598902Y-114485637D01*
X111628305Y-114497816D01*
X111598901Y-114509996D01*
X111453296Y-114607286D01*
X111329469Y-114731113D01*
X111232179Y-114876718D01*
X111165164Y-115038505D01*
X111133531Y-115197531D01*
X110974505Y-115229164D01*
X110812718Y-115296179D01*
X110667113Y-115393469D01*
X110543286Y-115517296D01*
X110445996Y-115662901D01*
X110378981Y-115824688D01*
X110344817Y-115996441D01*
X110344817Y-116171559D01*
X110378981Y-116343312D01*
X110424631Y-116453520D01*
X110418363Y-116462901D01*
X110351348Y-116624688D01*
X110317184Y-116796441D01*
X110317184Y-116971559D01*
X110351348Y-117143312D01*
X110418363Y-117305099D01*
X110515653Y-117450704D01*
X110639480Y-117574531D01*
X110785085Y-117671821D01*
X110946872Y-117738836D01*
X111118625Y-117773000D01*
X111293743Y-117773000D01*
X111465496Y-117738836D01*
X111627283Y-117671821D01*
X111772888Y-117574531D01*
X111896715Y-117450704D01*
X111994005Y-117305099D01*
X112061020Y-117143312D01*
X112095184Y-116971559D01*
X112095184Y-116796441D01*
X112061020Y-116624688D01*
X112015370Y-116514480D01*
X112021638Y-116505099D01*
X112088653Y-116343312D01*
X112120286Y-116184286D01*
X112279312Y-116152653D01*
X112441099Y-116085638D01*
X112586704Y-115988348D01*
X112710531Y-115864521D01*
X112807821Y-115718916D01*
X112874836Y-115557129D01*
X112909000Y-115385376D01*
X112909000Y-115210258D01*
X112874836Y-115038505D01*
X112807821Y-114876718D01*
X112710531Y-114731113D01*
X112586704Y-114607286D01*
X112441099Y-114509996D01*
X112411696Y-114497817D01*
X112441100Y-114485637D01*
X112586705Y-114388347D01*
X112710532Y-114264520D01*
X112807822Y-114118915D01*
X112874837Y-113957128D01*
X112909001Y-113785375D01*
X112909001Y-113610257D01*
X112874837Y-113438504D01*
X112816562Y-113297816D01*
X112834393Y-113254768D01*
X120293212Y-113254768D01*
X120293212Y-113429886D01*
X120327376Y-113601639D01*
X120394391Y-113763426D01*
X120491681Y-113909031D01*
X120615508Y-114032858D01*
X120761113Y-114130148D01*
X120922900Y-114197163D01*
X121094653Y-114231327D01*
X121269771Y-114231327D01*
X121441524Y-114197163D01*
X121603311Y-114130148D01*
X121748916Y-114032858D01*
X121872743Y-113909031D01*
X121970033Y-113763426D01*
X122037048Y-113601639D01*
X122071212Y-113429886D01*
X122071212Y-113254768D01*
X122037048Y-113083015D01*
X121970033Y-112921228D01*
X121872743Y-112775623D01*
X121748916Y-112651796D01*
X121603311Y-112554506D01*
X121441524Y-112487491D01*
X121269771Y-112453327D01*
X121094653Y-112453327D01*
X120922900Y-112487491D01*
X120761113Y-112554506D01*
X120615508Y-112651796D01*
X120491681Y-112775623D01*
X120394391Y-112921228D01*
X120327376Y-113083015D01*
X120293212Y-113254768D01*
X112834393Y-113254768D01*
X112874837Y-113157129D01*
X112909001Y-112985376D01*
X112909001Y-112810258D01*
X112874837Y-112638505D01*
X112816561Y-112497815D01*
X112874836Y-112357128D01*
X112909000Y-112185375D01*
X112909000Y-112010257D01*
X112874836Y-111838504D01*
X112816561Y-111697818D01*
X112874837Y-111557129D01*
X112909001Y-111385376D01*
X112909001Y-111210258D01*
X112874837Y-111038505D01*
X112807822Y-110876718D01*
X112710532Y-110731113D01*
X112586705Y-110607286D01*
X112441100Y-110509996D01*
X112279313Y-110442981D01*
X112122816Y-110411852D01*
X112122816Y-110396440D01*
X112088652Y-110224687D01*
X112021637Y-110062900D01*
X111924347Y-109917295D01*
X111800520Y-109793468D01*
X111654915Y-109696178D01*
X111493128Y-109629163D01*
X111321375Y-109594999D01*
X111146257Y-109594999D01*
X110974504Y-109629163D01*
X110833815Y-109687439D01*
X110693128Y-109629164D01*
X110521375Y-109595000D01*
X110346257Y-109595000D01*
X110174504Y-109629164D01*
X110012717Y-109696179D01*
X109867112Y-109793469D01*
X109743285Y-109917296D01*
X109645995Y-110062901D01*
X109578980Y-110224688D01*
X109544816Y-110396441D01*
X109544816Y-110571559D01*
X109578980Y-110743312D01*
X109645995Y-110905099D01*
X109743285Y-111050704D01*
X109867112Y-111174531D01*
X110012717Y-111271821D01*
X110040054Y-111283144D01*
X109992053Y-111303027D01*
X109846448Y-111400317D01*
X109722621Y-111524144D01*
X109625331Y-111669749D01*
X109558316Y-111831536D01*
X109524152Y-112003289D01*
X108915848Y-112003289D01*
X108881684Y-111831536D01*
X108814669Y-111669749D01*
X108717379Y-111524144D01*
X108593552Y-111400317D01*
X108447947Y-111303027D01*
X108286160Y-111236012D01*
X108114407Y-111201848D01*
X107939289Y-111201848D01*
X107767536Y-111236012D01*
X107605749Y-111303027D01*
X107460144Y-111400317D01*
X107336317Y-111524144D01*
X107239027Y-111669749D01*
X107172012Y-111831536D01*
X107137848Y-112003289D01*
X81083396Y-112003289D01*
X80956632Y-111876525D01*
X80782240Y-111760000D01*
X80956632Y-111643475D01*
X81163475Y-111436632D01*
X81325990Y-111193411D01*
X81437932Y-110923158D01*
X81495000Y-110636260D01*
X81495000Y-110343740D01*
X81437932Y-110056842D01*
X81325990Y-109786589D01*
X81163475Y-109543368D01*
X80956632Y-109336525D01*
X80782240Y-109220000D01*
X80956632Y-109103475D01*
X81163475Y-108896632D01*
X81325990Y-108653411D01*
X81437932Y-108383158D01*
X81495000Y-108096260D01*
X81495000Y-107803740D01*
X81437932Y-107516842D01*
X81325990Y-107246589D01*
X81163475Y-107003368D01*
X80956632Y-106796525D01*
X80782240Y-106680000D01*
X80956632Y-106563475D01*
X81163475Y-106356632D01*
X81325990Y-106113411D01*
X81437932Y-105843158D01*
X81440461Y-105830440D01*
X100964999Y-105830440D01*
X100964999Y-106005558D01*
X100999163Y-106177311D01*
X101066178Y-106339098D01*
X101163468Y-106484703D01*
X101287295Y-106608530D01*
X101432900Y-106705820D01*
X101589895Y-106770850D01*
X101575489Y-106792411D01*
X101508474Y-106954198D01*
X101474310Y-107125951D01*
X101474310Y-107301069D01*
X101508474Y-107472822D01*
X101575489Y-107634609D01*
X101672779Y-107780214D01*
X101796606Y-107904041D01*
X101942211Y-108001331D01*
X102103998Y-108068346D01*
X102275751Y-108102510D01*
X102450869Y-108102510D01*
X102622622Y-108068346D01*
X102784409Y-108001331D01*
X102930014Y-107904041D01*
X103053841Y-107780214D01*
X103151131Y-107634609D01*
X103218146Y-107472822D01*
X103252310Y-107301069D01*
X103252310Y-107125951D01*
X103218146Y-106954198D01*
X103151131Y-106792411D01*
X103053841Y-106646806D01*
X102999476Y-106592441D01*
X106324400Y-106592441D01*
X106324400Y-106767559D01*
X106358564Y-106939312D01*
X106425579Y-107101099D01*
X106522869Y-107246704D01*
X106646696Y-107370531D01*
X106792301Y-107467821D01*
X106954088Y-107534836D01*
X107125841Y-107569000D01*
X107300959Y-107569000D01*
X107472712Y-107534836D01*
X107634499Y-107467821D01*
X107780104Y-107370531D01*
X107903931Y-107246704D01*
X108001221Y-107101099D01*
X108068236Y-106939312D01*
X108086709Y-106846441D01*
X109855000Y-106846441D01*
X109855000Y-107021559D01*
X109889164Y-107193312D01*
X109956179Y-107355099D01*
X110053469Y-107500704D01*
X110177296Y-107624531D01*
X110322901Y-107721821D01*
X110484688Y-107788836D01*
X110656441Y-107823000D01*
X110831559Y-107823000D01*
X111003312Y-107788836D01*
X111165099Y-107721821D01*
X111310704Y-107624531D01*
X111434531Y-107500704D01*
X111531821Y-107355099D01*
X111548431Y-107315000D01*
X111593559Y-107315000D01*
X111765312Y-107280836D01*
X111927099Y-107213821D01*
X112072704Y-107116531D01*
X112196531Y-106992704D01*
X112293821Y-106847099D01*
X112360836Y-106685312D01*
X112395000Y-106513559D01*
X112395000Y-106338441D01*
X112360836Y-106166688D01*
X112293821Y-106004901D01*
X112196531Y-105859296D01*
X112072704Y-105735469D01*
X111927099Y-105638179D01*
X111765312Y-105571164D01*
X111593559Y-105537000D01*
X111418441Y-105537000D01*
X111246688Y-105571164D01*
X111084901Y-105638179D01*
X110939296Y-105735469D01*
X110815469Y-105859296D01*
X110718179Y-106004901D01*
X110701569Y-106045000D01*
X110656441Y-106045000D01*
X110484688Y-106079164D01*
X110322901Y-106146179D01*
X110177296Y-106243469D01*
X110053469Y-106367296D01*
X109956179Y-106512901D01*
X109889164Y-106674688D01*
X109855000Y-106846441D01*
X108086709Y-106846441D01*
X108095388Y-106802812D01*
X108116441Y-106807000D01*
X108291559Y-106807000D01*
X108463312Y-106772836D01*
X108625099Y-106705821D01*
X108770704Y-106608531D01*
X108894531Y-106484704D01*
X108991821Y-106339099D01*
X109058836Y-106177312D01*
X109093000Y-106005559D01*
X109093000Y-105830441D01*
X109058836Y-105658688D01*
X108991821Y-105496901D01*
X108894531Y-105351296D01*
X108770704Y-105227469D01*
X108625099Y-105130179D01*
X108463312Y-105063164D01*
X108291559Y-105029000D01*
X108116441Y-105029000D01*
X107944688Y-105063164D01*
X107782901Y-105130179D01*
X107637296Y-105227469D01*
X107513469Y-105351296D01*
X107416179Y-105496901D01*
X107349164Y-105658688D01*
X107322012Y-105795188D01*
X107300959Y-105791000D01*
X107125841Y-105791000D01*
X106954088Y-105825164D01*
X106792301Y-105892179D01*
X106646696Y-105989469D01*
X106522869Y-106113296D01*
X106425579Y-106258901D01*
X106358564Y-106420688D01*
X106324400Y-106592441D01*
X102999476Y-106592441D01*
X102930014Y-106522979D01*
X102784409Y-106425689D01*
X102627414Y-106360659D01*
X102641820Y-106339098D01*
X102708835Y-106177311D01*
X102742999Y-106005558D01*
X102742999Y-105830440D01*
X102708835Y-105658687D01*
X102641820Y-105496900D01*
X102544530Y-105351295D01*
X102420703Y-105227468D01*
X102275098Y-105130178D01*
X102113311Y-105063163D01*
X101941558Y-105028999D01*
X101766440Y-105028999D01*
X101594687Y-105063163D01*
X101432900Y-105130178D01*
X101287295Y-105227468D01*
X101163468Y-105351295D01*
X101066178Y-105496900D01*
X100999163Y-105658687D01*
X100964999Y-105830440D01*
X81440461Y-105830440D01*
X81495000Y-105556260D01*
X81495000Y-105263740D01*
X81437932Y-104976842D01*
X81325990Y-104706589D01*
X81163475Y-104463368D01*
X80956632Y-104256525D01*
X80782240Y-104140000D01*
X80956632Y-104023475D01*
X81163475Y-103816632D01*
X81325990Y-103573411D01*
X81437932Y-103303158D01*
X81495000Y-103016260D01*
X81495000Y-102723740D01*
X81437932Y-102436842D01*
X81325990Y-102166589D01*
X81163475Y-101923368D01*
X80956632Y-101716525D01*
X80782240Y-101600000D01*
X80956632Y-101483475D01*
X81089650Y-101350457D01*
X86366350Y-101350457D01*
X86366350Y-101849543D01*
X86463717Y-102339038D01*
X86654709Y-102800133D01*
X86931986Y-103215108D01*
X87284892Y-103568014D01*
X87699867Y-103845291D01*
X88160962Y-104036283D01*
X88650457Y-104133650D01*
X89149543Y-104133650D01*
X89620688Y-104039933D01*
X98298000Y-104039933D01*
X98298000Y-104240067D01*
X98337044Y-104436356D01*
X98413632Y-104621256D01*
X98524821Y-104787662D01*
X98666338Y-104929179D01*
X98832744Y-105040368D01*
X99017644Y-105116956D01*
X99213933Y-105156000D01*
X99414067Y-105156000D01*
X99610356Y-105116956D01*
X99795256Y-105040368D01*
X99961662Y-104929179D01*
X100076400Y-104814441D01*
X114173000Y-104814441D01*
X114173000Y-104989559D01*
X114207164Y-105161312D01*
X114274179Y-105323099D01*
X114371469Y-105468704D01*
X114495296Y-105592531D01*
X114640901Y-105689821D01*
X114802688Y-105756836D01*
X114974441Y-105791000D01*
X115149559Y-105791000D01*
X115321312Y-105756836D01*
X115483099Y-105689821D01*
X115628704Y-105592531D01*
X115752531Y-105468704D01*
X115849821Y-105323099D01*
X115916836Y-105161312D01*
X115951000Y-104989559D01*
X115951000Y-104814441D01*
X115916836Y-104642688D01*
X115849821Y-104480901D01*
X115752531Y-104335296D01*
X115628704Y-104211469D01*
X115483099Y-104114179D01*
X115321312Y-104047164D01*
X115149559Y-104013000D01*
X114974441Y-104013000D01*
X114802688Y-104047164D01*
X114640901Y-104114179D01*
X114495296Y-104211469D01*
X114371469Y-104335296D01*
X114274179Y-104480901D01*
X114207164Y-104642688D01*
X114173000Y-104814441D01*
X100076400Y-104814441D01*
X100103179Y-104787662D01*
X100214368Y-104621256D01*
X100290956Y-104436356D01*
X100330000Y-104240067D01*
X100330000Y-104039933D01*
X100290956Y-103843644D01*
X100214368Y-103658744D01*
X100103179Y-103492338D01*
X99961662Y-103350821D01*
X99795256Y-103239632D01*
X99610356Y-103163044D01*
X99414067Y-103124000D01*
X99213933Y-103124000D01*
X99017644Y-103163044D01*
X98832744Y-103239632D01*
X98666338Y-103350821D01*
X98524821Y-103492338D01*
X98413632Y-103658744D01*
X98337044Y-103843644D01*
X98298000Y-104039933D01*
X89620688Y-104039933D01*
X89639038Y-104036283D01*
X90100133Y-103845291D01*
X90515108Y-103568014D01*
X90868014Y-103215108D01*
X91145291Y-102800133D01*
X91336283Y-102339038D01*
X91433650Y-101849543D01*
X91433650Y-101350457D01*
X91336283Y-100860962D01*
X91145291Y-100399867D01*
X91019208Y-100211170D01*
X95807500Y-100211170D01*
X95807500Y-100448830D01*
X95853865Y-100681923D01*
X95944813Y-100901492D01*
X96076850Y-101099099D01*
X96244901Y-101267150D01*
X96442508Y-101399187D01*
X96662077Y-101490135D01*
X96895170Y-101536500D01*
X97132830Y-101536500D01*
X97365923Y-101490135D01*
X97585492Y-101399187D01*
X97658421Y-101350457D01*
X137166350Y-101350457D01*
X137166350Y-101849543D01*
X137263717Y-102339038D01*
X137454709Y-102800133D01*
X137731986Y-103215108D01*
X138084892Y-103568014D01*
X138499867Y-103845291D01*
X138960962Y-104036283D01*
X139450457Y-104133650D01*
X139949543Y-104133650D01*
X140439038Y-104036283D01*
X140900133Y-103845291D01*
X141315108Y-103568014D01*
X141668014Y-103215108D01*
X141945291Y-102800133D01*
X142136283Y-102339038D01*
X142233650Y-101849543D01*
X142233650Y-101350457D01*
X142136283Y-100860962D01*
X141945291Y-100399867D01*
X141668014Y-99984892D01*
X141315108Y-99631986D01*
X140900133Y-99354709D01*
X140439038Y-99163717D01*
X139949543Y-99066350D01*
X139450457Y-99066350D01*
X138960962Y-99163717D01*
X138499867Y-99354709D01*
X138084892Y-99631986D01*
X137731986Y-99984892D01*
X137454709Y-100399867D01*
X137263717Y-100860962D01*
X137166350Y-101350457D01*
X97658421Y-101350457D01*
X97783099Y-101267150D01*
X97951150Y-101099099D01*
X98083187Y-100901492D01*
X98174135Y-100681923D01*
X98220500Y-100448830D01*
X98220500Y-100211170D01*
X98174135Y-99978077D01*
X98083187Y-99758508D01*
X98035683Y-99687413D01*
X117916192Y-99687413D01*
X118011956Y-99951814D01*
X118301571Y-100092704D01*
X118613108Y-100174384D01*
X118934595Y-100193718D01*
X119253675Y-100149961D01*
X119558088Y-100044795D01*
X119732044Y-99951814D01*
X119827808Y-99687413D01*
X118872000Y-98731605D01*
X117916192Y-99687413D01*
X98035683Y-99687413D01*
X97951150Y-99560901D01*
X97783099Y-99392850D01*
X97585492Y-99260813D01*
X97365923Y-99169865D01*
X97132830Y-99123500D01*
X96895170Y-99123500D01*
X96662077Y-99169865D01*
X96442508Y-99260813D01*
X96244901Y-99392850D01*
X96076850Y-99560901D01*
X95944813Y-99758508D01*
X95853865Y-99978077D01*
X95807500Y-100211170D01*
X91019208Y-100211170D01*
X90868014Y-99984892D01*
X90515108Y-99631986D01*
X90100133Y-99354709D01*
X89639038Y-99163717D01*
X89149543Y-99066350D01*
X88650457Y-99066350D01*
X88160962Y-99163717D01*
X87699867Y-99354709D01*
X87284892Y-99631986D01*
X86931986Y-99984892D01*
X86654709Y-100399867D01*
X86463717Y-100860962D01*
X86366350Y-101350457D01*
X81089650Y-101350457D01*
X81163475Y-101276632D01*
X81325990Y-101033411D01*
X81437932Y-100763158D01*
X81495000Y-100476260D01*
X81495000Y-100183740D01*
X81437932Y-99896842D01*
X81325990Y-99626589D01*
X81163475Y-99383368D01*
X80956632Y-99176525D01*
X80782240Y-99060000D01*
X80956632Y-98943475D01*
X81163475Y-98736632D01*
X81325990Y-98493411D01*
X81437932Y-98223158D01*
X81495000Y-97936260D01*
X81495000Y-97643740D01*
X81437932Y-97356842D01*
X81370664Y-97194441D01*
X92583000Y-97194441D01*
X92583000Y-97369559D01*
X92617164Y-97541312D01*
X92684179Y-97703099D01*
X92781469Y-97848704D01*
X92849765Y-97917000D01*
X92781469Y-97985296D01*
X92684179Y-98130901D01*
X92617164Y-98292688D01*
X92583000Y-98464441D01*
X92583000Y-98639559D01*
X92617164Y-98811312D01*
X92684179Y-98973099D01*
X92781469Y-99118704D01*
X92905296Y-99242531D01*
X93050901Y-99339821D01*
X93212688Y-99406836D01*
X93384441Y-99441000D01*
X93559559Y-99441000D01*
X93731312Y-99406836D01*
X93893099Y-99339821D01*
X94038704Y-99242531D01*
X94162531Y-99118704D01*
X94259821Y-98973099D01*
X94326836Y-98811312D01*
X94361000Y-98639559D01*
X94361000Y-98614595D01*
X117230282Y-98614595D01*
X117274039Y-98933675D01*
X117379205Y-99238088D01*
X117472186Y-99412044D01*
X117736587Y-99507808D01*
X118692395Y-98552000D01*
X119051605Y-98552000D01*
X120007413Y-99507808D01*
X120271814Y-99412044D01*
X120412704Y-99122429D01*
X120494384Y-98810892D01*
X120513718Y-98489405D01*
X120500219Y-98390967D01*
X121737000Y-98390967D01*
X121737000Y-98713033D01*
X121799832Y-99028912D01*
X121923082Y-99326463D01*
X122102013Y-99594252D01*
X122329748Y-99821987D01*
X122597537Y-100000918D01*
X122895088Y-100124168D01*
X123210967Y-100187000D01*
X123533033Y-100187000D01*
X123848912Y-100124168D01*
X124146463Y-100000918D01*
X124414252Y-99821987D01*
X124548826Y-99687413D01*
X126116192Y-99687413D01*
X126211956Y-99951814D01*
X126501571Y-100092704D01*
X126813108Y-100174384D01*
X127134595Y-100193718D01*
X127453675Y-100149961D01*
X127758088Y-100044795D01*
X127932044Y-99951814D01*
X128027808Y-99687413D01*
X127072000Y-98731605D01*
X126116192Y-99687413D01*
X124548826Y-99687413D01*
X124641987Y-99594252D01*
X124820918Y-99326463D01*
X124944168Y-99028912D01*
X125007000Y-98713033D01*
X125007000Y-98614595D01*
X125430282Y-98614595D01*
X125474039Y-98933675D01*
X125579205Y-99238088D01*
X125672186Y-99412044D01*
X125936587Y-99507808D01*
X126892395Y-98552000D01*
X127251605Y-98552000D01*
X128207413Y-99507808D01*
X128471814Y-99412044D01*
X128612704Y-99122429D01*
X128694384Y-98810892D01*
X128713718Y-98489405D01*
X128700219Y-98390967D01*
X129937000Y-98390967D01*
X129937000Y-98713033D01*
X129999832Y-99028912D01*
X130123082Y-99326463D01*
X130302013Y-99594252D01*
X130529748Y-99821987D01*
X130797537Y-100000918D01*
X131095088Y-100124168D01*
X131410967Y-100187000D01*
X131733033Y-100187000D01*
X132048912Y-100124168D01*
X132346463Y-100000918D01*
X132614252Y-99821987D01*
X132841987Y-99594252D01*
X133020918Y-99326463D01*
X133130125Y-99062815D01*
X133167469Y-99118704D01*
X133291296Y-99242531D01*
X133436901Y-99339821D01*
X133598688Y-99406836D01*
X133770441Y-99441000D01*
X133945559Y-99441000D01*
X134117312Y-99406836D01*
X134279099Y-99339821D01*
X134424704Y-99242531D01*
X134548531Y-99118704D01*
X134645821Y-98973099D01*
X134712836Y-98811312D01*
X134747000Y-98639559D01*
X134747000Y-98464441D01*
X134712836Y-98292688D01*
X134645821Y-98130901D01*
X134548531Y-97985296D01*
X134424704Y-97861469D01*
X134279099Y-97764179D01*
X134117312Y-97697164D01*
X133945559Y-97663000D01*
X133770441Y-97663000D01*
X133598688Y-97697164D01*
X133436901Y-97764179D01*
X133291296Y-97861469D01*
X133167469Y-97985296D01*
X133130125Y-98041185D01*
X133020918Y-97777537D01*
X132841987Y-97509748D01*
X132614252Y-97282013D01*
X132346463Y-97103082D01*
X132048912Y-96979832D01*
X131733033Y-96917000D01*
X131410967Y-96917000D01*
X131095088Y-96979832D01*
X130797537Y-97103082D01*
X130529748Y-97282013D01*
X130302013Y-97509748D01*
X130123082Y-97777537D01*
X129999832Y-98075088D01*
X129937000Y-98390967D01*
X128700219Y-98390967D01*
X128669961Y-98170325D01*
X128564795Y-97865912D01*
X128471814Y-97691956D01*
X128207413Y-97596192D01*
X127251605Y-98552000D01*
X126892395Y-98552000D01*
X125936587Y-97596192D01*
X125672186Y-97691956D01*
X125531296Y-97981571D01*
X125449616Y-98293108D01*
X125430282Y-98614595D01*
X125007000Y-98614595D01*
X125007000Y-98390967D01*
X124944168Y-98075088D01*
X124820918Y-97777537D01*
X124641987Y-97509748D01*
X124548826Y-97416587D01*
X126116192Y-97416587D01*
X127072000Y-98372395D01*
X128027808Y-97416587D01*
X127932044Y-97152186D01*
X127642429Y-97011296D01*
X127330892Y-96929616D01*
X127009405Y-96910282D01*
X126690325Y-96954039D01*
X126385912Y-97059205D01*
X126211956Y-97152186D01*
X126116192Y-97416587D01*
X124548826Y-97416587D01*
X124414252Y-97282013D01*
X124146463Y-97103082D01*
X123848912Y-96979832D01*
X123533033Y-96917000D01*
X123210967Y-96917000D01*
X122895088Y-96979832D01*
X122597537Y-97103082D01*
X122329748Y-97282013D01*
X122102013Y-97509748D01*
X121923082Y-97777537D01*
X121799832Y-98075088D01*
X121737000Y-98390967D01*
X120500219Y-98390967D01*
X120469961Y-98170325D01*
X120364795Y-97865912D01*
X120271814Y-97691956D01*
X120007413Y-97596192D01*
X119051605Y-98552000D01*
X118692395Y-98552000D01*
X117736587Y-97596192D01*
X117472186Y-97691956D01*
X117331296Y-97981571D01*
X117249616Y-98293108D01*
X117230282Y-98614595D01*
X94361000Y-98614595D01*
X94361000Y-98464441D01*
X94326836Y-98292688D01*
X94259821Y-98130901D01*
X94162531Y-97985296D01*
X94094235Y-97917000D01*
X94162531Y-97848704D01*
X94259821Y-97703099D01*
X94326836Y-97541312D01*
X94351645Y-97416587D01*
X117916192Y-97416587D01*
X118872000Y-98372395D01*
X119827808Y-97416587D01*
X119732044Y-97152186D01*
X119442429Y-97011296D01*
X119130892Y-96929616D01*
X118809405Y-96910282D01*
X118490325Y-96954039D01*
X118185912Y-97059205D01*
X118011956Y-97152186D01*
X117916192Y-97416587D01*
X94351645Y-97416587D01*
X94361000Y-97369559D01*
X94361000Y-97194441D01*
X94326836Y-97022688D01*
X94259821Y-96860901D01*
X94162531Y-96715296D01*
X94038704Y-96591469D01*
X93893099Y-96494179D01*
X93731312Y-96427164D01*
X93559559Y-96393000D01*
X93384441Y-96393000D01*
X93212688Y-96427164D01*
X93050901Y-96494179D01*
X92905296Y-96591469D01*
X92781469Y-96715296D01*
X92684179Y-96860901D01*
X92617164Y-97022688D01*
X92583000Y-97194441D01*
X81370664Y-97194441D01*
X81325990Y-97086589D01*
X81163475Y-96843368D01*
X80956632Y-96636525D01*
X80782240Y-96520000D01*
X80956632Y-96403475D01*
X81163475Y-96196632D01*
X81325990Y-95953411D01*
X81437932Y-95683158D01*
X81495000Y-95396260D01*
X81495000Y-95103740D01*
X81437932Y-94816842D01*
X81325990Y-94546589D01*
X81163475Y-94303368D01*
X80956632Y-94096525D01*
X80782240Y-93980000D01*
X80956632Y-93863475D01*
X81163475Y-93656632D01*
X81174474Y-93640170D01*
X98107500Y-93640170D01*
X98107500Y-93877830D01*
X98153865Y-94110923D01*
X98244813Y-94330492D01*
X98376850Y-94528099D01*
X98544901Y-94696150D01*
X98742508Y-94828187D01*
X98962077Y-94919135D01*
X99195170Y-94965500D01*
X99432830Y-94965500D01*
X99665923Y-94919135D01*
X99885492Y-94828187D01*
X100083099Y-94696150D01*
X100251150Y-94528099D01*
X100383187Y-94330492D01*
X100474135Y-94110923D01*
X100520500Y-93877830D01*
X100520500Y-93640170D01*
X100474135Y-93407077D01*
X100383187Y-93187508D01*
X100383124Y-93187413D01*
X117916192Y-93187413D01*
X118011956Y-93451814D01*
X118301571Y-93592704D01*
X118613108Y-93674384D01*
X118934595Y-93693718D01*
X119253675Y-93649961D01*
X119558088Y-93544795D01*
X119732044Y-93451814D01*
X119827808Y-93187413D01*
X118872000Y-92231605D01*
X117916192Y-93187413D01*
X100383124Y-93187413D01*
X100251150Y-92989901D01*
X100083099Y-92821850D01*
X99885492Y-92689813D01*
X99665923Y-92598865D01*
X99432830Y-92552500D01*
X99195170Y-92552500D01*
X98962077Y-92598865D01*
X98742508Y-92689813D01*
X98544901Y-92821850D01*
X98376850Y-92989901D01*
X98244813Y-93187508D01*
X98153865Y-93407077D01*
X98107500Y-93640170D01*
X81174474Y-93640170D01*
X81325990Y-93413411D01*
X81437932Y-93143158D01*
X81495000Y-92856260D01*
X81495000Y-92563740D01*
X81437932Y-92276842D01*
X81325990Y-92006589D01*
X81207443Y-91829170D01*
X102171500Y-91829170D01*
X102171500Y-92066830D01*
X102217865Y-92299923D01*
X102308813Y-92519492D01*
X102440850Y-92717099D01*
X102608901Y-92885150D01*
X102806508Y-93017187D01*
X103026077Y-93108135D01*
X103259170Y-93154500D01*
X103496830Y-93154500D01*
X103729923Y-93108135D01*
X103949492Y-93017187D01*
X104147099Y-92885150D01*
X104315150Y-92717099D01*
X104447187Y-92519492D01*
X104538135Y-92299923D01*
X104574998Y-92114595D01*
X117230282Y-92114595D01*
X117274039Y-92433675D01*
X117379205Y-92738088D01*
X117472186Y-92912044D01*
X117736587Y-93007808D01*
X118692395Y-92052000D01*
X119051605Y-92052000D01*
X120007413Y-93007808D01*
X120271814Y-92912044D01*
X120412704Y-92622429D01*
X120494384Y-92310892D01*
X120513718Y-91989405D01*
X120500219Y-91890967D01*
X121737000Y-91890967D01*
X121737000Y-92213033D01*
X121799832Y-92528912D01*
X121923082Y-92826463D01*
X122102013Y-93094252D01*
X122329748Y-93321987D01*
X122597537Y-93500918D01*
X122895088Y-93624168D01*
X123210967Y-93687000D01*
X123533033Y-93687000D01*
X123848912Y-93624168D01*
X124146463Y-93500918D01*
X124414252Y-93321987D01*
X124548826Y-93187413D01*
X126116192Y-93187413D01*
X126211956Y-93451814D01*
X126501571Y-93592704D01*
X126813108Y-93674384D01*
X127134595Y-93693718D01*
X127453675Y-93649961D01*
X127758088Y-93544795D01*
X127932044Y-93451814D01*
X128027808Y-93187413D01*
X127072000Y-92231605D01*
X126116192Y-93187413D01*
X124548826Y-93187413D01*
X124641987Y-93094252D01*
X124820918Y-92826463D01*
X124944168Y-92528912D01*
X125007000Y-92213033D01*
X125007000Y-92114595D01*
X125430282Y-92114595D01*
X125474039Y-92433675D01*
X125579205Y-92738088D01*
X125672186Y-92912044D01*
X125936587Y-93007808D01*
X126892395Y-92052000D01*
X127251605Y-92052000D01*
X128207413Y-93007808D01*
X128471814Y-92912044D01*
X128612704Y-92622429D01*
X128694384Y-92310892D01*
X128713718Y-91989405D01*
X128700219Y-91890967D01*
X129937000Y-91890967D01*
X129937000Y-92213033D01*
X129999832Y-92528912D01*
X130123082Y-92826463D01*
X130302013Y-93094252D01*
X130529748Y-93321987D01*
X130797537Y-93500918D01*
X131095088Y-93624168D01*
X131410967Y-93687000D01*
X131733033Y-93687000D01*
X132048912Y-93624168D01*
X132346463Y-93500918D01*
X132614252Y-93321987D01*
X132841987Y-93094252D01*
X133020918Y-92826463D01*
X133144168Y-92528912D01*
X133207000Y-92213033D01*
X133207000Y-91890967D01*
X133144168Y-91575088D01*
X133020918Y-91277537D01*
X132841987Y-91009748D01*
X132614252Y-90782013D01*
X132346463Y-90603082D01*
X132048912Y-90479832D01*
X131733033Y-90417000D01*
X131410967Y-90417000D01*
X131095088Y-90479832D01*
X130797537Y-90603082D01*
X130529748Y-90782013D01*
X130302013Y-91009748D01*
X130123082Y-91277537D01*
X129999832Y-91575088D01*
X129937000Y-91890967D01*
X128700219Y-91890967D01*
X128669961Y-91670325D01*
X128564795Y-91365912D01*
X128471814Y-91191956D01*
X128207413Y-91096192D01*
X127251605Y-92052000D01*
X126892395Y-92052000D01*
X125936587Y-91096192D01*
X125672186Y-91191956D01*
X125531296Y-91481571D01*
X125449616Y-91793108D01*
X125430282Y-92114595D01*
X125007000Y-92114595D01*
X125007000Y-91890967D01*
X124944168Y-91575088D01*
X124820918Y-91277537D01*
X124641987Y-91009748D01*
X124548826Y-90916587D01*
X126116192Y-90916587D01*
X127072000Y-91872395D01*
X128027808Y-90916587D01*
X127932044Y-90652186D01*
X127642429Y-90511296D01*
X127330892Y-90429616D01*
X127009405Y-90410282D01*
X126690325Y-90454039D01*
X126385912Y-90559205D01*
X126211956Y-90652186D01*
X126116192Y-90916587D01*
X124548826Y-90916587D01*
X124414252Y-90782013D01*
X124146463Y-90603082D01*
X123848912Y-90479832D01*
X123533033Y-90417000D01*
X123210967Y-90417000D01*
X122895088Y-90479832D01*
X122597537Y-90603082D01*
X122329748Y-90782013D01*
X122102013Y-91009748D01*
X121923082Y-91277537D01*
X121799832Y-91575088D01*
X121737000Y-91890967D01*
X120500219Y-91890967D01*
X120469961Y-91670325D01*
X120364795Y-91365912D01*
X120271814Y-91191956D01*
X120007413Y-91096192D01*
X119051605Y-92052000D01*
X118692395Y-92052000D01*
X117736587Y-91096192D01*
X117472186Y-91191956D01*
X117331296Y-91481571D01*
X117249616Y-91793108D01*
X117230282Y-92114595D01*
X104574998Y-92114595D01*
X104584500Y-92066830D01*
X104584500Y-91829170D01*
X104538135Y-91596077D01*
X104447187Y-91376508D01*
X104315150Y-91178901D01*
X104147099Y-91010850D01*
X104006025Y-90916587D01*
X117916192Y-90916587D01*
X118872000Y-91872395D01*
X119827808Y-90916587D01*
X119732044Y-90652186D01*
X119442429Y-90511296D01*
X119130892Y-90429616D01*
X118809405Y-90410282D01*
X118490325Y-90454039D01*
X118185912Y-90559205D01*
X118011956Y-90652186D01*
X117916192Y-90916587D01*
X104006025Y-90916587D01*
X103949492Y-90878813D01*
X103729923Y-90787865D01*
X103496830Y-90741500D01*
X103259170Y-90741500D01*
X103026077Y-90787865D01*
X102806508Y-90878813D01*
X102608901Y-91010850D01*
X102440850Y-91178901D01*
X102308813Y-91376508D01*
X102217865Y-91596077D01*
X102171500Y-91829170D01*
X81207443Y-91829170D01*
X81163475Y-91763368D01*
X80956632Y-91556525D01*
X80782240Y-91440000D01*
X80956632Y-91323475D01*
X81163475Y-91116632D01*
X81325990Y-90873411D01*
X81437932Y-90603158D01*
X81495000Y-90316260D01*
X81495000Y-90023740D01*
X81437932Y-89736842D01*
X81364682Y-89560000D01*
X147235318Y-89560000D01*
X147162068Y-89736842D01*
G37*
G04 #@! TD.AperFunction*
D23*
X133160748Y-140701858D02*
X133146605Y-140716000D01*
X133160748Y-140730143D01*
X132981143Y-140909748D01*
X132967000Y-140895605D01*
X132952858Y-140909748D01*
X132773253Y-140730143D01*
X132787395Y-140716000D01*
X132773253Y-140701858D01*
X132952858Y-140522253D01*
X132967000Y-140536395D01*
X132981143Y-140522253D01*
X133160748Y-140701858D01*
G04 #@! TA.AperFunction,Conductor*
D24*
G36*
X133160748Y-140701858D02*
G01*
X133146605Y-140716000D01*
X133160748Y-140730143D01*
X132981143Y-140909748D01*
X132967000Y-140895605D01*
X132952858Y-140909748D01*
X132773253Y-140730143D01*
X132787395Y-140716000D01*
X132773253Y-140701858D01*
X132952858Y-140522253D01*
X132967000Y-140536395D01*
X132981143Y-140522253D01*
X133160748Y-140701858D01*
G37*
G04 #@! TD.AperFunction*
M02*
