G04 #@! TF.GenerationSoftware,KiCad,Pcbnew,(5.1.9-0-10_14)*
G04 #@! TF.CreationDate,2021-04-14T19:06:18-04:00*
G04 #@! TF.ProjectId,delux pet on a chip,64656c75-7820-4706-9574-206f6e206120,rev?*
G04 #@! TF.SameCoordinates,Original*
G04 #@! TF.FileFunction,Legend,Top*
G04 #@! TF.FilePolarity,Positive*
%FSLAX46Y46*%
G04 Gerber Fmt 4.6, Leading zero omitted, Abs format (unit mm)*
G04 Created by KiCad (PCBNEW (5.1.9-0-10_14)) date 2021-04-14 19:06:18*
%MOMM*%
%LPD*%
G01*
G04 APERTURE LIST*
%ADD10C,0.150000*%
%ADD11C,0.152400*%
%ADD12C,0.300000*%
%ADD13C,0.120000*%
%ADD14C,0.200000*%
%ADD15C,0.127000*%
G04 APERTURE END LIST*
D10*
X92511619Y-127444666D02*
X93511619Y-127444666D01*
X93511619Y-127825619D01*
X93464000Y-127920857D01*
X93416380Y-127968476D01*
X93321142Y-128016095D01*
X93178285Y-128016095D01*
X93083047Y-127968476D01*
X93035428Y-127920857D01*
X92987809Y-127825619D01*
X92987809Y-127444666D01*
X93511619Y-128349428D02*
X92511619Y-128587523D01*
X93225904Y-128778000D01*
X92511619Y-128968476D01*
X93511619Y-129206571D01*
X92511619Y-130158952D02*
X92987809Y-129825619D01*
X92511619Y-129587523D02*
X93511619Y-129587523D01*
X93511619Y-129968476D01*
X93464000Y-130063714D01*
X93416380Y-130111333D01*
X93321142Y-130158952D01*
X93178285Y-130158952D01*
X93083047Y-130111333D01*
X93035428Y-130063714D01*
X92987809Y-129968476D01*
X92987809Y-129587523D01*
X88431619Y-128016095D02*
X88431619Y-128587523D01*
X87431619Y-128301809D02*
X88431619Y-128301809D01*
X88431619Y-128825619D02*
X87431619Y-129492285D01*
X88431619Y-129492285D02*
X87431619Y-128825619D01*
X89971619Y-128611333D02*
X90447809Y-128278000D01*
X89971619Y-128039904D02*
X90971619Y-128039904D01*
X90971619Y-128420857D01*
X90924000Y-128516095D01*
X90876380Y-128563714D01*
X90781142Y-128611333D01*
X90638285Y-128611333D01*
X90543047Y-128563714D01*
X90495428Y-128516095D01*
X90447809Y-128420857D01*
X90447809Y-128039904D01*
X90971619Y-128944666D02*
X89971619Y-129611333D01*
X90971619Y-129611333D02*
X89971619Y-128944666D01*
X127071714Y-101750761D02*
X127214571Y-101798380D01*
X127452666Y-101798380D01*
X127547904Y-101750761D01*
X127595523Y-101703142D01*
X127643142Y-101607904D01*
X127643142Y-101512666D01*
X127595523Y-101417428D01*
X127547904Y-101369809D01*
X127452666Y-101322190D01*
X127262190Y-101274571D01*
X127166952Y-101226952D01*
X127119333Y-101179333D01*
X127071714Y-101084095D01*
X127071714Y-100988857D01*
X127119333Y-100893619D01*
X127166952Y-100846000D01*
X127262190Y-100798380D01*
X127500285Y-100798380D01*
X127643142Y-100846000D01*
X127976476Y-100798380D02*
X128214571Y-101798380D01*
X128405047Y-101084095D01*
X128595523Y-101798380D01*
X128833619Y-100798380D01*
X130309809Y-101274571D02*
X130452666Y-101322190D01*
X130500285Y-101369809D01*
X130547904Y-101465047D01*
X130547904Y-101607904D01*
X130500285Y-101703142D01*
X130452666Y-101750761D01*
X130357428Y-101798380D01*
X129976476Y-101798380D01*
X129976476Y-100798380D01*
X130309809Y-100798380D01*
X130405047Y-100846000D01*
X130452666Y-100893619D01*
X130500285Y-100988857D01*
X130500285Y-101084095D01*
X130452666Y-101179333D01*
X130405047Y-101226952D01*
X130309809Y-101274571D01*
X129976476Y-101274571D01*
X131405047Y-100798380D02*
X131214571Y-100798380D01*
X131119333Y-100846000D01*
X131071714Y-100893619D01*
X130976476Y-101036476D01*
X130928857Y-101226952D01*
X130928857Y-101607904D01*
X130976476Y-101703142D01*
X131024095Y-101750761D01*
X131119333Y-101798380D01*
X131309809Y-101798380D01*
X131405047Y-101750761D01*
X131452666Y-101703142D01*
X131500285Y-101607904D01*
X131500285Y-101369809D01*
X131452666Y-101274571D01*
X131405047Y-101226952D01*
X131309809Y-101179333D01*
X131119333Y-101179333D01*
X131024095Y-101226952D01*
X130976476Y-101274571D01*
X130928857Y-101369809D01*
X119205619Y-101703142D02*
X119158000Y-101750761D01*
X119015142Y-101798380D01*
X118919904Y-101798380D01*
X118777047Y-101750761D01*
X118681809Y-101655523D01*
X118634190Y-101560285D01*
X118586571Y-101369809D01*
X118586571Y-101226952D01*
X118634190Y-101036476D01*
X118681809Y-100941238D01*
X118777047Y-100846000D01*
X118919904Y-100798380D01*
X119015142Y-100798380D01*
X119158000Y-100846000D01*
X119205619Y-100893619D01*
X120205619Y-101798380D02*
X119872285Y-101322190D01*
X119634190Y-101798380D02*
X119634190Y-100798380D01*
X120015142Y-100798380D01*
X120110380Y-100846000D01*
X120158000Y-100893619D01*
X120205619Y-100988857D01*
X120205619Y-101131714D01*
X120158000Y-101226952D01*
X120110380Y-101274571D01*
X120015142Y-101322190D01*
X119634190Y-101322190D01*
X120634190Y-101274571D02*
X120967523Y-101274571D01*
X121110380Y-101798380D02*
X120634190Y-101798380D01*
X120634190Y-100798380D01*
X121110380Y-100798380D01*
X121491333Y-101750761D02*
X121634190Y-101798380D01*
X121872285Y-101798380D01*
X121967523Y-101750761D01*
X122015142Y-101703142D01*
X122062761Y-101607904D01*
X122062761Y-101512666D01*
X122015142Y-101417428D01*
X121967523Y-101369809D01*
X121872285Y-101322190D01*
X121681809Y-101274571D01*
X121586571Y-101226952D01*
X121538952Y-101179333D01*
X121491333Y-101084095D01*
X121491333Y-100988857D01*
X121538952Y-100893619D01*
X121586571Y-100846000D01*
X121681809Y-100798380D01*
X121919904Y-100798380D01*
X122062761Y-100846000D01*
X122491333Y-101274571D02*
X122824666Y-101274571D01*
X122967523Y-101798380D02*
X122491333Y-101798380D01*
X122491333Y-100798380D01*
X122967523Y-100798380D01*
X123253238Y-100798380D02*
X123824666Y-100798380D01*
X123538952Y-101798380D02*
X123538952Y-100798380D01*
X89299023Y-139644380D02*
X88965690Y-139168190D01*
X88727595Y-139644380D02*
X88727595Y-138644380D01*
X89108547Y-138644380D01*
X89203785Y-138692000D01*
X89251404Y-138739619D01*
X89299023Y-138834857D01*
X89299023Y-138977714D01*
X89251404Y-139072952D01*
X89203785Y-139120571D01*
X89108547Y-139168190D01*
X88727595Y-139168190D01*
X89632357Y-138644380D02*
X90299023Y-139644380D01*
X90299023Y-138644380D02*
X89632357Y-139644380D01*
X90679976Y-139549142D02*
X90727595Y-139596761D01*
X90679976Y-139644380D01*
X90632357Y-139596761D01*
X90679976Y-139549142D01*
X90679976Y-139644380D01*
X90679976Y-139025333D02*
X90727595Y-139072952D01*
X90679976Y-139120571D01*
X90632357Y-139072952D01*
X90679976Y-139025333D01*
X90679976Y-139120571D01*
X92394261Y-139644380D02*
X91918071Y-139644380D01*
X91918071Y-138644380D01*
X93156166Y-138977714D02*
X93156166Y-139644380D01*
X92918071Y-138596761D02*
X92679976Y-139311047D01*
X93299023Y-139311047D01*
X88584738Y-136866380D02*
X89156166Y-136866380D01*
X88870452Y-137866380D02*
X88870452Y-136866380D01*
X89394261Y-136866380D02*
X90060928Y-137866380D01*
X90060928Y-136866380D02*
X89394261Y-137866380D01*
X90441880Y-137771142D02*
X90489500Y-137818761D01*
X90441880Y-137866380D01*
X90394261Y-137818761D01*
X90441880Y-137771142D01*
X90441880Y-137866380D01*
X90441880Y-137247333D02*
X90489500Y-137294952D01*
X90441880Y-137342571D01*
X90394261Y-137294952D01*
X90441880Y-137247333D01*
X90441880Y-137342571D01*
X92156166Y-137866380D02*
X91679976Y-137866380D01*
X91679976Y-136866380D01*
X92394261Y-136866380D02*
X93013309Y-136866380D01*
X92679976Y-137247333D01*
X92822833Y-137247333D01*
X92918071Y-137294952D01*
X92965690Y-137342571D01*
X93013309Y-137437809D01*
X93013309Y-137675904D01*
X92965690Y-137771142D01*
X92918071Y-137818761D01*
X92822833Y-137866380D01*
X92537119Y-137866380D01*
X92441880Y-137818761D01*
X92394261Y-137771142D01*
X129954928Y-129468571D02*
X130097785Y-129516190D01*
X130145404Y-129563809D01*
X130193023Y-129659047D01*
X130193023Y-129801904D01*
X130145404Y-129897142D01*
X130097785Y-129944761D01*
X130002547Y-129992380D01*
X129621595Y-129992380D01*
X129621595Y-128992380D01*
X129954928Y-128992380D01*
X130050166Y-129040000D01*
X130097785Y-129087619D01*
X130145404Y-129182857D01*
X130145404Y-129278095D01*
X130097785Y-129373333D01*
X130050166Y-129420952D01*
X129954928Y-129468571D01*
X129621595Y-129468571D01*
X130621595Y-129897142D02*
X130669214Y-129944761D01*
X130621595Y-129992380D01*
X130573976Y-129944761D01*
X130621595Y-129897142D01*
X130621595Y-129992380D01*
X130621595Y-129373333D02*
X130669214Y-129420952D01*
X130621595Y-129468571D01*
X130573976Y-129420952D01*
X130621595Y-129373333D01*
X130621595Y-129468571D01*
X132193023Y-129468571D02*
X131859690Y-129468571D01*
X131859690Y-129992380D02*
X131859690Y-128992380D01*
X132335880Y-128992380D01*
X132764452Y-129992380D02*
X132954928Y-129992380D01*
X133050166Y-129944761D01*
X133097785Y-129897142D01*
X133193023Y-129754285D01*
X133240642Y-129563809D01*
X133240642Y-129182857D01*
X133193023Y-129087619D01*
X133145404Y-129040000D01*
X133050166Y-128992380D01*
X132859690Y-128992380D01*
X132764452Y-129040000D01*
X132716833Y-129087619D01*
X132669214Y-129182857D01*
X132669214Y-129420952D01*
X132716833Y-129516190D01*
X132764452Y-129563809D01*
X132859690Y-129611428D01*
X133050166Y-129611428D01*
X133145404Y-129563809D01*
X133193023Y-129516190D01*
X133240642Y-129420952D01*
X130145404Y-127262000D02*
X130050166Y-127214380D01*
X129907309Y-127214380D01*
X129764452Y-127262000D01*
X129669214Y-127357238D01*
X129621595Y-127452476D01*
X129573976Y-127642952D01*
X129573976Y-127785809D01*
X129621595Y-127976285D01*
X129669214Y-128071523D01*
X129764452Y-128166761D01*
X129907309Y-128214380D01*
X130002547Y-128214380D01*
X130145404Y-128166761D01*
X130193023Y-128119142D01*
X130193023Y-127785809D01*
X130002547Y-127785809D01*
X130621595Y-128119142D02*
X130669214Y-128166761D01*
X130621595Y-128214380D01*
X130573976Y-128166761D01*
X130621595Y-128119142D01*
X130621595Y-128214380D01*
X130621595Y-127595333D02*
X130669214Y-127642952D01*
X130621595Y-127690571D01*
X130573976Y-127642952D01*
X130621595Y-127595333D01*
X130621595Y-127690571D01*
X131859690Y-127690571D02*
X132193023Y-127690571D01*
X132335880Y-128214380D02*
X131859690Y-128214380D01*
X131859690Y-127214380D01*
X132335880Y-127214380D01*
X132812071Y-128214380D02*
X133002547Y-128214380D01*
X133097785Y-128166761D01*
X133145404Y-128119142D01*
X133240642Y-127976285D01*
X133288261Y-127785809D01*
X133288261Y-127404857D01*
X133240642Y-127309619D01*
X133193023Y-127262000D01*
X133097785Y-127214380D01*
X132907309Y-127214380D01*
X132812071Y-127262000D01*
X132764452Y-127309619D01*
X132716833Y-127404857D01*
X132716833Y-127642952D01*
X132764452Y-127738190D01*
X132812071Y-127785809D01*
X132907309Y-127833428D01*
X133097785Y-127833428D01*
X133193023Y-127785809D01*
X133240642Y-127738190D01*
X133288261Y-127642952D01*
X130193023Y-126436380D02*
X129859690Y-125960190D01*
X129621595Y-126436380D02*
X129621595Y-125436380D01*
X130002547Y-125436380D01*
X130097785Y-125484000D01*
X130145404Y-125531619D01*
X130193023Y-125626857D01*
X130193023Y-125769714D01*
X130145404Y-125864952D01*
X130097785Y-125912571D01*
X130002547Y-125960190D01*
X129621595Y-125960190D01*
X130621595Y-126341142D02*
X130669214Y-126388761D01*
X130621595Y-126436380D01*
X130573976Y-126388761D01*
X130621595Y-126341142D01*
X130621595Y-126436380D01*
X130621595Y-125817333D02*
X130669214Y-125864952D01*
X130621595Y-125912571D01*
X130573976Y-125864952D01*
X130621595Y-125817333D01*
X130621595Y-125912571D01*
X131859690Y-126436380D02*
X131859690Y-125436380D01*
X132097785Y-125436380D01*
X132240642Y-125484000D01*
X132335880Y-125579238D01*
X132383500Y-125674476D01*
X132431119Y-125864952D01*
X132431119Y-126007809D01*
X132383500Y-126198285D01*
X132335880Y-126293523D01*
X132240642Y-126388761D01*
X132097785Y-126436380D01*
X131859690Y-126436380D01*
X132907309Y-126436380D02*
X133097785Y-126436380D01*
X133193023Y-126388761D01*
X133240642Y-126341142D01*
X133335880Y-126198285D01*
X133383500Y-126007809D01*
X133383500Y-125626857D01*
X133335880Y-125531619D01*
X133288261Y-125484000D01*
X133193023Y-125436380D01*
X133002547Y-125436380D01*
X132907309Y-125484000D01*
X132859690Y-125531619D01*
X132812071Y-125626857D01*
X132812071Y-125864952D01*
X132859690Y-125960190D01*
X132907309Y-126007809D01*
X133002547Y-126055428D01*
X133193023Y-126055428D01*
X133288261Y-126007809D01*
X133335880Y-125960190D01*
X133383500Y-125864952D01*
X129526357Y-123737714D02*
X129764452Y-124404380D01*
X130002547Y-123737714D01*
X130335880Y-124356761D02*
X130431119Y-124404380D01*
X130621595Y-124404380D01*
X130716833Y-124356761D01*
X130764452Y-124261523D01*
X130764452Y-124213904D01*
X130716833Y-124118666D01*
X130621595Y-124071047D01*
X130478738Y-124071047D01*
X130383500Y-124023428D01*
X130335880Y-123928190D01*
X130335880Y-123880571D01*
X130383500Y-123785333D01*
X130478738Y-123737714D01*
X130621595Y-123737714D01*
X130716833Y-123785333D01*
X131097785Y-123737714D02*
X131335880Y-124404380D01*
X131573976Y-123737714D02*
X131335880Y-124404380D01*
X131240642Y-124642476D01*
X131193023Y-124690095D01*
X131097785Y-124737714D01*
X131954928Y-123737714D02*
X131954928Y-124404380D01*
X131954928Y-123832952D02*
X132002547Y-123785333D01*
X132097785Y-123737714D01*
X132240642Y-123737714D01*
X132335880Y-123785333D01*
X132383500Y-123880571D01*
X132383500Y-124404380D01*
X133288261Y-124356761D02*
X133193023Y-124404380D01*
X133002547Y-124404380D01*
X132907309Y-124356761D01*
X132859690Y-124309142D01*
X132812071Y-124213904D01*
X132812071Y-123928190D01*
X132859690Y-123832952D01*
X132907309Y-123785333D01*
X133002547Y-123737714D01*
X133193023Y-123737714D01*
X133288261Y-123785333D01*
X133716833Y-124309142D02*
X133764452Y-124356761D01*
X133716833Y-124404380D01*
X133669214Y-124356761D01*
X133716833Y-124309142D01*
X133716833Y-124404380D01*
X133716833Y-123785333D02*
X133764452Y-123832952D01*
X133716833Y-123880571D01*
X133669214Y-123832952D01*
X133716833Y-123785333D01*
X133716833Y-123880571D01*
X134954928Y-124404380D02*
X134954928Y-123404380D01*
X134954928Y-123880571D02*
X135526357Y-123880571D01*
X135526357Y-124404380D02*
X135526357Y-123404380D01*
X136050166Y-124404380D02*
X136240642Y-124404380D01*
X136335880Y-124356761D01*
X136383500Y-124309142D01*
X136478738Y-124166285D01*
X136526357Y-123975809D01*
X136526357Y-123594857D01*
X136478738Y-123499619D01*
X136431119Y-123452000D01*
X136335880Y-123404380D01*
X136145404Y-123404380D01*
X136050166Y-123452000D01*
X136002547Y-123499619D01*
X135954928Y-123594857D01*
X135954928Y-123832952D01*
X136002547Y-123928190D01*
X136050166Y-123975809D01*
X136145404Y-124023428D01*
X136335880Y-124023428D01*
X136431119Y-123975809D01*
X136478738Y-123928190D01*
X136526357Y-123832952D01*
X129621595Y-122626380D02*
X129621595Y-121626380D01*
X130050166Y-122626380D02*
X130050166Y-122102571D01*
X130002547Y-122007333D01*
X129907309Y-121959714D01*
X129764452Y-121959714D01*
X129669214Y-122007333D01*
X129621595Y-122054952D01*
X130478738Y-122578761D02*
X130573976Y-122626380D01*
X130764452Y-122626380D01*
X130859690Y-122578761D01*
X130907309Y-122483523D01*
X130907309Y-122435904D01*
X130859690Y-122340666D01*
X130764452Y-122293047D01*
X130621595Y-122293047D01*
X130526357Y-122245428D01*
X130478738Y-122150190D01*
X130478738Y-122102571D01*
X130526357Y-122007333D01*
X130621595Y-121959714D01*
X130764452Y-121959714D01*
X130859690Y-122007333D01*
X131240642Y-121959714D02*
X131478738Y-122626380D01*
X131716833Y-121959714D02*
X131478738Y-122626380D01*
X131383500Y-122864476D01*
X131335880Y-122912095D01*
X131240642Y-122959714D01*
X132097785Y-121959714D02*
X132097785Y-122626380D01*
X132097785Y-122054952D02*
X132145404Y-122007333D01*
X132240642Y-121959714D01*
X132383500Y-121959714D01*
X132478738Y-122007333D01*
X132526357Y-122102571D01*
X132526357Y-122626380D01*
X133431119Y-122578761D02*
X133335880Y-122626380D01*
X133145404Y-122626380D01*
X133050166Y-122578761D01*
X133002547Y-122531142D01*
X132954928Y-122435904D01*
X132954928Y-122150190D01*
X133002547Y-122054952D01*
X133050166Y-122007333D01*
X133145404Y-121959714D01*
X133335880Y-121959714D01*
X133431119Y-122007333D01*
X133859690Y-122531142D02*
X133907309Y-122578761D01*
X133859690Y-122626380D01*
X133812071Y-122578761D01*
X133859690Y-122531142D01*
X133859690Y-122626380D01*
X133859690Y-122007333D02*
X133907309Y-122054952D01*
X133859690Y-122102571D01*
X133812071Y-122054952D01*
X133859690Y-122007333D01*
X133859690Y-122102571D01*
X135383500Y-121626380D02*
X135383500Y-122340666D01*
X135335880Y-122483523D01*
X135240642Y-122578761D01*
X135097785Y-122626380D01*
X135002547Y-122626380D01*
X136002547Y-122054952D02*
X135907309Y-122007333D01*
X135859690Y-121959714D01*
X135812071Y-121864476D01*
X135812071Y-121816857D01*
X135859690Y-121721619D01*
X135907309Y-121674000D01*
X136002547Y-121626380D01*
X136193023Y-121626380D01*
X136288261Y-121674000D01*
X136335880Y-121721619D01*
X136383500Y-121816857D01*
X136383500Y-121864476D01*
X136335880Y-121959714D01*
X136288261Y-122007333D01*
X136193023Y-122054952D01*
X136002547Y-122054952D01*
X135907309Y-122102571D01*
X135859690Y-122150190D01*
X135812071Y-122245428D01*
X135812071Y-122435904D01*
X135859690Y-122531142D01*
X135907309Y-122578761D01*
X136002547Y-122626380D01*
X136193023Y-122626380D01*
X136288261Y-122578761D01*
X136335880Y-122531142D01*
X136383500Y-122435904D01*
X136383500Y-122245428D01*
X136335880Y-122150190D01*
X136288261Y-122102571D01*
X136193023Y-122054952D01*
D11*
X85598000Y-131683155D02*
X85646380Y-131586393D01*
X85646380Y-131441250D01*
X85598000Y-131296107D01*
X85501238Y-131199345D01*
X85404476Y-131150964D01*
X85210952Y-131102583D01*
X85065809Y-131102583D01*
X84872285Y-131150964D01*
X84775523Y-131199345D01*
X84678761Y-131296107D01*
X84630380Y-131441250D01*
X84630380Y-131538012D01*
X84678761Y-131683155D01*
X84727142Y-131731536D01*
X85065809Y-131731536D01*
X85065809Y-131538012D01*
X84630380Y-132166964D02*
X85646380Y-132166964D01*
X84630380Y-132747536D01*
X85646380Y-132747536D01*
X84630380Y-133231345D02*
X85646380Y-133231345D01*
X85646380Y-133473250D01*
X85598000Y-133618393D01*
X85501238Y-133715155D01*
X85404476Y-133763536D01*
X85210952Y-133811917D01*
X85065809Y-133811917D01*
X84872285Y-133763536D01*
X84775523Y-133715155D01*
X84678761Y-133618393D01*
X84630380Y-133473250D01*
X84630380Y-133231345D01*
X85646380Y-135831821D02*
X84630380Y-136170488D01*
X85646380Y-136509155D01*
X84630380Y-136847821D02*
X85307714Y-136847821D01*
X85646380Y-136847821D02*
X85598000Y-136799440D01*
X85549619Y-136847821D01*
X85598000Y-136896202D01*
X85646380Y-136847821D01*
X85549619Y-136847821D01*
X85307714Y-137331631D02*
X84630380Y-137331631D01*
X85210952Y-137331631D02*
X85259333Y-137380012D01*
X85307714Y-137476774D01*
X85307714Y-137621917D01*
X85259333Y-137718679D01*
X85162571Y-137767060D01*
X84630380Y-137767060D01*
X144390654Y-125222000D02*
X144293892Y-125173619D01*
X144148749Y-125173619D01*
X144003606Y-125222000D01*
X143906844Y-125318761D01*
X143858463Y-125415523D01*
X143810082Y-125609047D01*
X143810082Y-125754190D01*
X143858463Y-125947714D01*
X143906844Y-126044476D01*
X144003606Y-126141238D01*
X144148749Y-126189619D01*
X144245511Y-126189619D01*
X144390654Y-126141238D01*
X144439035Y-126092857D01*
X144439035Y-125754190D01*
X144245511Y-125754190D01*
X144874463Y-126189619D02*
X144874463Y-125173619D01*
X145455035Y-126189619D01*
X145455035Y-125173619D01*
X145938844Y-126189619D02*
X145938844Y-125173619D01*
X146180749Y-125173619D01*
X146325892Y-125222000D01*
X146422654Y-125318761D01*
X146471035Y-125415523D01*
X146519416Y-125609047D01*
X146519416Y-125754190D01*
X146471035Y-125947714D01*
X146422654Y-126044476D01*
X146325892Y-126141238D01*
X146180749Y-126189619D01*
X145938844Y-126189619D01*
X143568178Y-122633619D02*
X144197130Y-122633619D01*
X143858463Y-123020666D01*
X144003606Y-123020666D01*
X144100368Y-123069047D01*
X144148749Y-123117428D01*
X144197130Y-123214190D01*
X144197130Y-123456095D01*
X144148749Y-123552857D01*
X144100368Y-123601238D01*
X144003606Y-123649619D01*
X143713320Y-123649619D01*
X143616559Y-123601238D01*
X143568178Y-123552857D01*
X144632559Y-123552857D02*
X144680940Y-123601238D01*
X144632559Y-123649619D01*
X144584178Y-123601238D01*
X144632559Y-123552857D01*
X144632559Y-123649619D01*
X145019606Y-122633619D02*
X145648559Y-122633619D01*
X145309892Y-123020666D01*
X145455035Y-123020666D01*
X145551797Y-123069047D01*
X145600178Y-123117428D01*
X145648559Y-123214190D01*
X145648559Y-123456095D01*
X145600178Y-123552857D01*
X145551797Y-123601238D01*
X145455035Y-123649619D01*
X145164749Y-123649619D01*
X145067987Y-123601238D01*
X145019606Y-123552857D01*
X145938844Y-122633619D02*
X146277511Y-123649619D01*
X146616178Y-122633619D01*
X141052368Y-120093619D02*
X141052368Y-120819333D01*
X141003987Y-120964476D01*
X140907225Y-121061238D01*
X140762082Y-121109619D01*
X140665320Y-121109619D01*
X142068368Y-121109619D02*
X141487797Y-121109619D01*
X141778082Y-121109619D02*
X141778082Y-120093619D01*
X141681320Y-120238761D01*
X141584559Y-120335523D01*
X141487797Y-120383904D01*
X142697320Y-120093619D02*
X142794082Y-120093619D01*
X142890844Y-120142000D01*
X142939225Y-120190380D01*
X142987606Y-120287142D01*
X143035987Y-120480666D01*
X143035987Y-120722571D01*
X142987606Y-120916095D01*
X142939225Y-121012857D01*
X142890844Y-121061238D01*
X142794082Y-121109619D01*
X142697320Y-121109619D01*
X142600559Y-121061238D01*
X142552178Y-121012857D01*
X142503797Y-120916095D01*
X142455416Y-120722571D01*
X142455416Y-120480666D01*
X142503797Y-120287142D01*
X142552178Y-120190380D01*
X142600559Y-120142000D01*
X142697320Y-120093619D01*
X144535797Y-120093619D02*
X144535797Y-120819333D01*
X144487416Y-120964476D01*
X144390654Y-121061238D01*
X144245511Y-121109619D01*
X144148749Y-121109619D01*
X145551797Y-121109619D02*
X144971225Y-121109619D01*
X145261511Y-121109619D02*
X145261511Y-120093619D01*
X145164749Y-120238761D01*
X145067987Y-120335523D01*
X144971225Y-120383904D01*
X146519416Y-121109619D02*
X145938844Y-121109619D01*
X146229130Y-121109619D02*
X146229130Y-120093619D01*
X146132368Y-120238761D01*
X146035606Y-120335523D01*
X145938844Y-120383904D01*
X140181511Y-118569619D02*
X140181511Y-117553619D01*
X140181511Y-118037428D02*
X140762082Y-118037428D01*
X140762082Y-118569619D02*
X140762082Y-117553619D01*
X141778082Y-118569619D02*
X141197511Y-118569619D01*
X141487797Y-118569619D02*
X141487797Y-117553619D01*
X141391035Y-117698761D01*
X141294273Y-117795523D01*
X141197511Y-117843904D01*
X142407035Y-117553619D02*
X142503797Y-117553619D01*
X142600559Y-117602000D01*
X142648940Y-117650380D01*
X142697320Y-117747142D01*
X142745701Y-117940666D01*
X142745701Y-118182571D01*
X142697320Y-118376095D01*
X142648940Y-118472857D01*
X142600559Y-118521238D01*
X142503797Y-118569619D01*
X142407035Y-118569619D01*
X142310273Y-118521238D01*
X142261892Y-118472857D01*
X142213511Y-118376095D01*
X142165130Y-118182571D01*
X142165130Y-117940666D01*
X142213511Y-117747142D01*
X142261892Y-117650380D01*
X142310273Y-117602000D01*
X142407035Y-117553619D01*
X143955225Y-118569619D02*
X143955225Y-117553619D01*
X143955225Y-118037428D02*
X144535797Y-118037428D01*
X144535797Y-118569619D02*
X144535797Y-117553619D01*
X145551797Y-118569619D02*
X144971225Y-118569619D01*
X145261511Y-118569619D02*
X145261511Y-117553619D01*
X145164749Y-117698761D01*
X145067987Y-117795523D01*
X144971225Y-117843904D01*
X146519416Y-118569619D02*
X145938844Y-118569619D01*
X146229130Y-118569619D02*
X146229130Y-117553619D01*
X146132368Y-117698761D01*
X146035606Y-117795523D01*
X145938844Y-117843904D01*
X140375035Y-105579333D02*
X140858844Y-105579333D01*
X140278273Y-105869619D02*
X140616940Y-104853619D01*
X140955606Y-105869619D01*
X141826463Y-105869619D02*
X141245892Y-105869619D01*
X141536178Y-105869619D02*
X141536178Y-104853619D01*
X141439416Y-104998761D01*
X141342654Y-105095523D01*
X141245892Y-105143904D01*
X142794082Y-105869619D02*
X142213511Y-105869619D01*
X142503797Y-105869619D02*
X142503797Y-104853619D01*
X142407035Y-104998761D01*
X142310273Y-105095523D01*
X142213511Y-105143904D01*
X144342273Y-105337428D02*
X144487416Y-105385809D01*
X144535797Y-105434190D01*
X144584178Y-105530952D01*
X144584178Y-105676095D01*
X144535797Y-105772857D01*
X144487416Y-105821238D01*
X144390654Y-105869619D01*
X144003606Y-105869619D01*
X144003606Y-104853619D01*
X144342273Y-104853619D01*
X144439035Y-104902000D01*
X144487416Y-104950380D01*
X144535797Y-105047142D01*
X144535797Y-105143904D01*
X144487416Y-105240666D01*
X144439035Y-105289047D01*
X144342273Y-105337428D01*
X144003606Y-105337428D01*
X145551797Y-105869619D02*
X144971225Y-105869619D01*
X145261511Y-105869619D02*
X145261511Y-104853619D01*
X145164749Y-104998761D01*
X145067987Y-105095523D01*
X144971225Y-105143904D01*
X146519416Y-105869619D02*
X145938844Y-105869619D01*
X146229130Y-105869619D02*
X146229130Y-104853619D01*
X146132368Y-104998761D01*
X146035606Y-105095523D01*
X145938844Y-105143904D01*
X140810463Y-115062000D02*
X140713701Y-115013619D01*
X140568559Y-115013619D01*
X140423416Y-115062000D01*
X140326654Y-115158761D01*
X140278273Y-115255523D01*
X140229892Y-115449047D01*
X140229892Y-115594190D01*
X140278273Y-115787714D01*
X140326654Y-115884476D01*
X140423416Y-115981238D01*
X140568559Y-116029619D01*
X140665320Y-116029619D01*
X140810463Y-115981238D01*
X140858844Y-115932857D01*
X140858844Y-115594190D01*
X140665320Y-115594190D01*
X141826463Y-116029619D02*
X141245892Y-116029619D01*
X141536178Y-116029619D02*
X141536178Y-115013619D01*
X141439416Y-115158761D01*
X141342654Y-115255523D01*
X141245892Y-115303904D01*
X142455416Y-115013619D02*
X142552178Y-115013619D01*
X142648940Y-115062000D01*
X142697320Y-115110380D01*
X142745701Y-115207142D01*
X142794082Y-115400666D01*
X142794082Y-115642571D01*
X142745701Y-115836095D01*
X142697320Y-115932857D01*
X142648940Y-115981238D01*
X142552178Y-116029619D01*
X142455416Y-116029619D01*
X142358654Y-115981238D01*
X142310273Y-115932857D01*
X142261892Y-115836095D01*
X142213511Y-115642571D01*
X142213511Y-115400666D01*
X142261892Y-115207142D01*
X142310273Y-115110380D01*
X142358654Y-115062000D01*
X142455416Y-115013619D01*
X144535797Y-115062000D02*
X144439035Y-115013619D01*
X144293892Y-115013619D01*
X144148749Y-115062000D01*
X144051987Y-115158761D01*
X144003606Y-115255523D01*
X143955225Y-115449047D01*
X143955225Y-115594190D01*
X144003606Y-115787714D01*
X144051987Y-115884476D01*
X144148749Y-115981238D01*
X144293892Y-116029619D01*
X144390654Y-116029619D01*
X144535797Y-115981238D01*
X144584178Y-115932857D01*
X144584178Y-115594190D01*
X144390654Y-115594190D01*
X145551797Y-116029619D02*
X144971225Y-116029619D01*
X145261511Y-116029619D02*
X145261511Y-115013619D01*
X145164749Y-115158761D01*
X145067987Y-115255523D01*
X144971225Y-115303904D01*
X146519416Y-116029619D02*
X145938844Y-116029619D01*
X146229130Y-116029619D02*
X146229130Y-115013619D01*
X146132368Y-115158761D01*
X146035606Y-115255523D01*
X145938844Y-115303904D01*
X140907225Y-112957428D02*
X140568559Y-112957428D01*
X140568559Y-113489619D02*
X140568559Y-112473619D01*
X141052368Y-112473619D01*
X141971606Y-113489619D02*
X141391035Y-113489619D01*
X141681320Y-113489619D02*
X141681320Y-112473619D01*
X141584559Y-112618761D01*
X141487797Y-112715523D01*
X141391035Y-112763904D01*
X142600559Y-112473619D02*
X142697320Y-112473619D01*
X142794082Y-112522000D01*
X142842463Y-112570380D01*
X142890844Y-112667142D01*
X142939225Y-112860666D01*
X142939225Y-113102571D01*
X142890844Y-113296095D01*
X142842463Y-113392857D01*
X142794082Y-113441238D01*
X142697320Y-113489619D01*
X142600559Y-113489619D01*
X142503797Y-113441238D01*
X142455416Y-113392857D01*
X142407035Y-113296095D01*
X142358654Y-113102571D01*
X142358654Y-112860666D01*
X142407035Y-112667142D01*
X142455416Y-112570380D01*
X142503797Y-112522000D01*
X142600559Y-112473619D01*
X144487416Y-112957428D02*
X144148749Y-112957428D01*
X144148749Y-113489619D02*
X144148749Y-112473619D01*
X144632559Y-112473619D01*
X145551797Y-113489619D02*
X144971225Y-113489619D01*
X145261511Y-113489619D02*
X145261511Y-112473619D01*
X145164749Y-112618761D01*
X145067987Y-112715523D01*
X144971225Y-112763904D01*
X146519416Y-113489619D02*
X145938844Y-113489619D01*
X146229130Y-113489619D02*
X146229130Y-112473619D01*
X146132368Y-112618761D01*
X146035606Y-112715523D01*
X145938844Y-112763904D01*
X140471797Y-110417428D02*
X140810463Y-110417428D01*
X140955606Y-110949619D02*
X140471797Y-110949619D01*
X140471797Y-109933619D01*
X140955606Y-109933619D01*
X141923225Y-110949619D02*
X141342654Y-110949619D01*
X141632940Y-110949619D02*
X141632940Y-109933619D01*
X141536178Y-110078761D01*
X141439416Y-110175523D01*
X141342654Y-110223904D01*
X142552178Y-109933619D02*
X142648940Y-109933619D01*
X142745701Y-109982000D01*
X142794082Y-110030380D01*
X142842463Y-110127142D01*
X142890844Y-110320666D01*
X142890844Y-110562571D01*
X142842463Y-110756095D01*
X142794082Y-110852857D01*
X142745701Y-110901238D01*
X142648940Y-110949619D01*
X142552178Y-110949619D01*
X142455416Y-110901238D01*
X142407035Y-110852857D01*
X142358654Y-110756095D01*
X142310273Y-110562571D01*
X142310273Y-110320666D01*
X142358654Y-110127142D01*
X142407035Y-110030380D01*
X142455416Y-109982000D01*
X142552178Y-109933619D01*
X144100368Y-110417428D02*
X144439035Y-110417428D01*
X144584178Y-110949619D02*
X144100368Y-110949619D01*
X144100368Y-109933619D01*
X144584178Y-109933619D01*
X145551797Y-110949619D02*
X144971225Y-110949619D01*
X145261511Y-110949619D02*
X145261511Y-109933619D01*
X145164749Y-110078761D01*
X145067987Y-110175523D01*
X144971225Y-110223904D01*
X146519416Y-110949619D02*
X145938844Y-110949619D01*
X146229130Y-110949619D02*
X146229130Y-109933619D01*
X146132368Y-110078761D01*
X146035606Y-110175523D01*
X145938844Y-110223904D01*
X140278273Y-108409619D02*
X140278273Y-107393619D01*
X140520178Y-107393619D01*
X140665320Y-107442000D01*
X140762082Y-107538761D01*
X140810463Y-107635523D01*
X140858844Y-107829047D01*
X140858844Y-107974190D01*
X140810463Y-108167714D01*
X140762082Y-108264476D01*
X140665320Y-108361238D01*
X140520178Y-108409619D01*
X140278273Y-108409619D01*
X141826463Y-108409619D02*
X141245892Y-108409619D01*
X141536178Y-108409619D02*
X141536178Y-107393619D01*
X141439416Y-107538761D01*
X141342654Y-107635523D01*
X141245892Y-107683904D01*
X142455416Y-107393619D02*
X142552178Y-107393619D01*
X142648940Y-107442000D01*
X142697320Y-107490380D01*
X142745701Y-107587142D01*
X142794082Y-107780666D01*
X142794082Y-108022571D01*
X142745701Y-108216095D01*
X142697320Y-108312857D01*
X142648940Y-108361238D01*
X142552178Y-108409619D01*
X142455416Y-108409619D01*
X142358654Y-108361238D01*
X142310273Y-108312857D01*
X142261892Y-108216095D01*
X142213511Y-108022571D01*
X142213511Y-107780666D01*
X142261892Y-107587142D01*
X142310273Y-107490380D01*
X142358654Y-107442000D01*
X142455416Y-107393619D01*
X144003606Y-108409619D02*
X144003606Y-107393619D01*
X144245511Y-107393619D01*
X144390654Y-107442000D01*
X144487416Y-107538761D01*
X144535797Y-107635523D01*
X144584178Y-107829047D01*
X144584178Y-107974190D01*
X144535797Y-108167714D01*
X144487416Y-108264476D01*
X144390654Y-108361238D01*
X144245511Y-108409619D01*
X144003606Y-108409619D01*
X145551797Y-108409619D02*
X144971225Y-108409619D01*
X145261511Y-108409619D02*
X145261511Y-107393619D01*
X145164749Y-107538761D01*
X145067987Y-107635523D01*
X144971225Y-107683904D01*
X146519416Y-108409619D02*
X145938844Y-108409619D01*
X146229130Y-108409619D02*
X146229130Y-107393619D01*
X146132368Y-107538761D01*
X146035606Y-107635523D01*
X145938844Y-107683904D01*
X141342654Y-103039333D02*
X141826463Y-103039333D01*
X141245892Y-103329619D02*
X141584559Y-102313619D01*
X141923225Y-103329619D01*
X142794082Y-103329619D02*
X142213511Y-103329619D01*
X142503797Y-103329619D02*
X142503797Y-102313619D01*
X142407035Y-102458761D01*
X142310273Y-102555523D01*
X142213511Y-102603904D01*
X143423035Y-102313619D02*
X143519797Y-102313619D01*
X143616559Y-102362000D01*
X143664940Y-102410380D01*
X143713320Y-102507142D01*
X143761701Y-102700666D01*
X143761701Y-102942571D01*
X143713320Y-103136095D01*
X143664940Y-103232857D01*
X143616559Y-103281238D01*
X143519797Y-103329619D01*
X143423035Y-103329619D01*
X143326273Y-103281238D01*
X143277892Y-103232857D01*
X143229511Y-103136095D01*
X143181130Y-102942571D01*
X143181130Y-102700666D01*
X143229511Y-102507142D01*
X143277892Y-102410380D01*
X143326273Y-102362000D01*
X143423035Y-102313619D01*
X145551797Y-103232857D02*
X145503416Y-103281238D01*
X145358273Y-103329619D01*
X145261511Y-103329619D01*
X145116368Y-103281238D01*
X145019606Y-103184476D01*
X144971225Y-103087714D01*
X144922844Y-102894190D01*
X144922844Y-102749047D01*
X144971225Y-102555523D01*
X145019606Y-102458761D01*
X145116368Y-102362000D01*
X145261511Y-102313619D01*
X145358273Y-102313619D01*
X145503416Y-102362000D01*
X145551797Y-102410380D01*
X146035606Y-103329619D02*
X146229130Y-103329619D01*
X146325892Y-103281238D01*
X146374273Y-103232857D01*
X146471035Y-103087714D01*
X146519416Y-102894190D01*
X146519416Y-102507142D01*
X146471035Y-102410380D01*
X146422654Y-102362000D01*
X146325892Y-102313619D01*
X146132368Y-102313619D01*
X146035606Y-102362000D01*
X145987225Y-102410380D01*
X145938844Y-102507142D01*
X145938844Y-102749047D01*
X145987225Y-102845809D01*
X146035606Y-102894190D01*
X146132368Y-102942571D01*
X146325892Y-102942571D01*
X146422654Y-102894190D01*
X146471035Y-102845809D01*
X146519416Y-102749047D01*
X142310273Y-100499333D02*
X142794082Y-100499333D01*
X142213511Y-100789619D02*
X142552178Y-99773619D01*
X142890844Y-100789619D01*
X143277892Y-100789619D02*
X143471416Y-100789619D01*
X143568178Y-100741238D01*
X143616559Y-100692857D01*
X143713320Y-100547714D01*
X143761701Y-100354190D01*
X143761701Y-99967142D01*
X143713320Y-99870380D01*
X143664940Y-99822000D01*
X143568178Y-99773619D01*
X143374654Y-99773619D01*
X143277892Y-99822000D01*
X143229511Y-99870380D01*
X143181130Y-99967142D01*
X143181130Y-100209047D01*
X143229511Y-100305809D01*
X143277892Y-100354190D01*
X143374654Y-100402571D01*
X143568178Y-100402571D01*
X143664940Y-100354190D01*
X143713320Y-100305809D01*
X143761701Y-100209047D01*
X145309892Y-100257428D02*
X145455035Y-100305809D01*
X145503416Y-100354190D01*
X145551797Y-100450952D01*
X145551797Y-100596095D01*
X145503416Y-100692857D01*
X145455035Y-100741238D01*
X145358273Y-100789619D01*
X144971225Y-100789619D01*
X144971225Y-99773619D01*
X145309892Y-99773619D01*
X145406654Y-99822000D01*
X145455035Y-99870380D01*
X145503416Y-99967142D01*
X145503416Y-100063904D01*
X145455035Y-100160666D01*
X145406654Y-100209047D01*
X145309892Y-100257428D01*
X144971225Y-100257428D01*
X146035606Y-100789619D02*
X146229130Y-100789619D01*
X146325892Y-100741238D01*
X146374273Y-100692857D01*
X146471035Y-100547714D01*
X146519416Y-100354190D01*
X146519416Y-99967142D01*
X146471035Y-99870380D01*
X146422654Y-99822000D01*
X146325892Y-99773619D01*
X146132368Y-99773619D01*
X146035606Y-99822000D01*
X145987225Y-99870380D01*
X145938844Y-99967142D01*
X145938844Y-100209047D01*
X145987225Y-100305809D01*
X146035606Y-100354190D01*
X146132368Y-100402571D01*
X146325892Y-100402571D01*
X146422654Y-100354190D01*
X146471035Y-100305809D01*
X146519416Y-100209047D01*
X142310273Y-97959333D02*
X142794082Y-97959333D01*
X142213511Y-98249619D02*
X142552178Y-97233619D01*
X142890844Y-98249619D01*
X143374654Y-97669047D02*
X143277892Y-97620666D01*
X143229511Y-97572285D01*
X143181130Y-97475523D01*
X143181130Y-97427142D01*
X143229511Y-97330380D01*
X143277892Y-97282000D01*
X143374654Y-97233619D01*
X143568178Y-97233619D01*
X143664940Y-97282000D01*
X143713320Y-97330380D01*
X143761701Y-97427142D01*
X143761701Y-97475523D01*
X143713320Y-97572285D01*
X143664940Y-97620666D01*
X143568178Y-97669047D01*
X143374654Y-97669047D01*
X143277892Y-97717428D01*
X143229511Y-97765809D01*
X143181130Y-97862571D01*
X143181130Y-98056095D01*
X143229511Y-98152857D01*
X143277892Y-98201238D01*
X143374654Y-98249619D01*
X143568178Y-98249619D01*
X143664940Y-98201238D01*
X143713320Y-98152857D01*
X143761701Y-98056095D01*
X143761701Y-97862571D01*
X143713320Y-97765809D01*
X143664940Y-97717428D01*
X143568178Y-97669047D01*
X145309892Y-97717428D02*
X145455035Y-97765809D01*
X145503416Y-97814190D01*
X145551797Y-97910952D01*
X145551797Y-98056095D01*
X145503416Y-98152857D01*
X145455035Y-98201238D01*
X145358273Y-98249619D01*
X144971225Y-98249619D01*
X144971225Y-97233619D01*
X145309892Y-97233619D01*
X145406654Y-97282000D01*
X145455035Y-97330380D01*
X145503416Y-97427142D01*
X145503416Y-97523904D01*
X145455035Y-97620666D01*
X145406654Y-97669047D01*
X145309892Y-97717428D01*
X144971225Y-97717428D01*
X146132368Y-97669047D02*
X146035606Y-97620666D01*
X145987225Y-97572285D01*
X145938844Y-97475523D01*
X145938844Y-97427142D01*
X145987225Y-97330380D01*
X146035606Y-97282000D01*
X146132368Y-97233619D01*
X146325892Y-97233619D01*
X146422654Y-97282000D01*
X146471035Y-97330380D01*
X146519416Y-97427142D01*
X146519416Y-97475523D01*
X146471035Y-97572285D01*
X146422654Y-97620666D01*
X146325892Y-97669047D01*
X146132368Y-97669047D01*
X146035606Y-97717428D01*
X145987225Y-97765809D01*
X145938844Y-97862571D01*
X145938844Y-98056095D01*
X145987225Y-98152857D01*
X146035606Y-98201238D01*
X146132368Y-98249619D01*
X146325892Y-98249619D01*
X146422654Y-98201238D01*
X146471035Y-98152857D01*
X146519416Y-98056095D01*
X146519416Y-97862571D01*
X146471035Y-97765809D01*
X146422654Y-97717428D01*
X146325892Y-97669047D01*
X142310273Y-95419333D02*
X142794082Y-95419333D01*
X142213511Y-95709619D02*
X142552178Y-94693619D01*
X142890844Y-95709619D01*
X143132749Y-94693619D02*
X143810082Y-94693619D01*
X143374654Y-95709619D01*
X145309892Y-95177428D02*
X145455035Y-95225809D01*
X145503416Y-95274190D01*
X145551797Y-95370952D01*
X145551797Y-95516095D01*
X145503416Y-95612857D01*
X145455035Y-95661238D01*
X145358273Y-95709619D01*
X144971225Y-95709619D01*
X144971225Y-94693619D01*
X145309892Y-94693619D01*
X145406654Y-94742000D01*
X145455035Y-94790380D01*
X145503416Y-94887142D01*
X145503416Y-94983904D01*
X145455035Y-95080666D01*
X145406654Y-95129047D01*
X145309892Y-95177428D01*
X144971225Y-95177428D01*
X145890463Y-94693619D02*
X146567797Y-94693619D01*
X146132368Y-95709619D01*
X142552178Y-92637428D02*
X142697320Y-92685809D01*
X142745701Y-92734190D01*
X142794082Y-92830952D01*
X142794082Y-92976095D01*
X142745701Y-93072857D01*
X142697320Y-93121238D01*
X142600559Y-93169619D01*
X142213511Y-93169619D01*
X142213511Y-92153619D01*
X142552178Y-92153619D01*
X142648940Y-92202000D01*
X142697320Y-92250380D01*
X142745701Y-92347142D01*
X142745701Y-92443904D01*
X142697320Y-92540666D01*
X142648940Y-92589047D01*
X142552178Y-92637428D01*
X142213511Y-92637428D01*
X143664940Y-92153619D02*
X143471416Y-92153619D01*
X143374654Y-92202000D01*
X143326273Y-92250380D01*
X143229511Y-92395523D01*
X143181130Y-92589047D01*
X143181130Y-92976095D01*
X143229511Y-93072857D01*
X143277892Y-93121238D01*
X143374654Y-93169619D01*
X143568178Y-93169619D01*
X143664940Y-93121238D01*
X143713320Y-93072857D01*
X143761701Y-92976095D01*
X143761701Y-92734190D01*
X143713320Y-92637428D01*
X143664940Y-92589047D01*
X143568178Y-92540666D01*
X143374654Y-92540666D01*
X143277892Y-92589047D01*
X143229511Y-92637428D01*
X143181130Y-92734190D01*
X145551797Y-93072857D02*
X145503416Y-93121238D01*
X145358273Y-93169619D01*
X145261511Y-93169619D01*
X145116368Y-93121238D01*
X145019606Y-93024476D01*
X144971225Y-92927714D01*
X144922844Y-92734190D01*
X144922844Y-92589047D01*
X144971225Y-92395523D01*
X145019606Y-92298761D01*
X145116368Y-92202000D01*
X145261511Y-92153619D01*
X145358273Y-92153619D01*
X145503416Y-92202000D01*
X145551797Y-92250380D01*
X146132368Y-92589047D02*
X146035606Y-92540666D01*
X145987225Y-92492285D01*
X145938844Y-92395523D01*
X145938844Y-92347142D01*
X145987225Y-92250380D01*
X146035606Y-92202000D01*
X146132368Y-92153619D01*
X146325892Y-92153619D01*
X146422654Y-92202000D01*
X146471035Y-92250380D01*
X146519416Y-92347142D01*
X146519416Y-92395523D01*
X146471035Y-92492285D01*
X146422654Y-92540666D01*
X146325892Y-92589047D01*
X146132368Y-92589047D01*
X146035606Y-92637428D01*
X145987225Y-92685809D01*
X145938844Y-92782571D01*
X145938844Y-92976095D01*
X145987225Y-93072857D01*
X146035606Y-93121238D01*
X146132368Y-93169619D01*
X146325892Y-93169619D01*
X146422654Y-93121238D01*
X146471035Y-93072857D01*
X146519416Y-92976095D01*
X146519416Y-92782571D01*
X146471035Y-92685809D01*
X146422654Y-92637428D01*
X146325892Y-92589047D01*
X139165511Y-90532857D02*
X139117130Y-90581238D01*
X138971987Y-90629619D01*
X138875225Y-90629619D01*
X138730082Y-90581238D01*
X138633320Y-90484476D01*
X138584940Y-90387714D01*
X138536559Y-90194190D01*
X138536559Y-90049047D01*
X138584940Y-89855523D01*
X138633320Y-89758761D01*
X138730082Y-89662000D01*
X138875225Y-89613619D01*
X138971987Y-89613619D01*
X139117130Y-89662000D01*
X139165511Y-89710380D01*
X140181511Y-90629619D02*
X139842844Y-90145809D01*
X139600940Y-90629619D02*
X139600940Y-89613619D01*
X139987987Y-89613619D01*
X140084749Y-89662000D01*
X140133130Y-89710380D01*
X140181511Y-89807142D01*
X140181511Y-89952285D01*
X140133130Y-90049047D01*
X140084749Y-90097428D01*
X139987987Y-90145809D01*
X139600940Y-90145809D01*
X140616940Y-90097428D02*
X140955606Y-90097428D01*
X141100749Y-90629619D02*
X140616940Y-90629619D01*
X140616940Y-89613619D01*
X141100749Y-89613619D01*
X141487797Y-90581238D02*
X141632940Y-90629619D01*
X141874844Y-90629619D01*
X141971606Y-90581238D01*
X142019987Y-90532857D01*
X142068368Y-90436095D01*
X142068368Y-90339333D01*
X142019987Y-90242571D01*
X141971606Y-90194190D01*
X141874844Y-90145809D01*
X141681320Y-90097428D01*
X141584559Y-90049047D01*
X141536178Y-90000666D01*
X141487797Y-89903904D01*
X141487797Y-89807142D01*
X141536178Y-89710380D01*
X141584559Y-89662000D01*
X141681320Y-89613619D01*
X141923225Y-89613619D01*
X142068368Y-89662000D01*
X142503797Y-90097428D02*
X142842463Y-90097428D01*
X142987606Y-90629619D02*
X142503797Y-90629619D01*
X142503797Y-89613619D01*
X142987606Y-89613619D01*
X143277892Y-89613619D02*
X143858463Y-89613619D01*
X143568178Y-90629619D02*
X143568178Y-89613619D01*
X145551797Y-90532857D02*
X145503416Y-90581238D01*
X145358273Y-90629619D01*
X145261511Y-90629619D01*
X145116368Y-90581238D01*
X145019606Y-90484476D01*
X144971225Y-90387714D01*
X144922844Y-90194190D01*
X144922844Y-90049047D01*
X144971225Y-89855523D01*
X145019606Y-89758761D01*
X145116368Y-89662000D01*
X145261511Y-89613619D01*
X145358273Y-89613619D01*
X145503416Y-89662000D01*
X145551797Y-89710380D01*
X145890463Y-89613619D02*
X146567797Y-89613619D01*
X146132368Y-90629619D01*
X82661155Y-125222000D02*
X82564393Y-125173619D01*
X82419250Y-125173619D01*
X82274107Y-125222000D01*
X82177345Y-125318761D01*
X82128964Y-125415523D01*
X82080583Y-125609047D01*
X82080583Y-125754190D01*
X82128964Y-125947714D01*
X82177345Y-126044476D01*
X82274107Y-126141238D01*
X82419250Y-126189619D01*
X82516012Y-126189619D01*
X82661155Y-126141238D01*
X82709536Y-126092857D01*
X82709536Y-125754190D01*
X82516012Y-125754190D01*
X83144964Y-126189619D02*
X83144964Y-125173619D01*
X83725536Y-126189619D01*
X83725536Y-125173619D01*
X84209345Y-126189619D02*
X84209345Y-125173619D01*
X84451250Y-125173619D01*
X84596393Y-125222000D01*
X84693155Y-125318761D01*
X84741536Y-125415523D01*
X84789917Y-125609047D01*
X84789917Y-125754190D01*
X84741536Y-125947714D01*
X84693155Y-126044476D01*
X84596393Y-126141238D01*
X84451250Y-126189619D01*
X84209345Y-126189619D01*
X82286202Y-122633619D02*
X82915155Y-122633619D01*
X82576488Y-123020666D01*
X82721631Y-123020666D01*
X82818393Y-123069047D01*
X82866774Y-123117428D01*
X82915155Y-123214190D01*
X82915155Y-123456095D01*
X82866774Y-123552857D01*
X82818393Y-123601238D01*
X82721631Y-123649619D01*
X82431345Y-123649619D01*
X82334583Y-123601238D01*
X82286202Y-123552857D01*
X83350583Y-123552857D02*
X83398964Y-123601238D01*
X83350583Y-123649619D01*
X83302202Y-123601238D01*
X83350583Y-123552857D01*
X83350583Y-123649619D01*
X83737631Y-122633619D02*
X84366583Y-122633619D01*
X84027917Y-123020666D01*
X84173060Y-123020666D01*
X84269821Y-123069047D01*
X84318202Y-123117428D01*
X84366583Y-123214190D01*
X84366583Y-123456095D01*
X84318202Y-123552857D01*
X84269821Y-123601238D01*
X84173060Y-123649619D01*
X83882774Y-123649619D01*
X83786012Y-123601238D01*
X83737631Y-123552857D01*
X84656869Y-122633619D02*
X84995536Y-123649619D01*
X85334202Y-122633619D01*
X82237821Y-120093619D02*
X82576488Y-121109619D01*
X82915155Y-120093619D01*
X83253821Y-121109619D02*
X83253821Y-120432285D01*
X83253821Y-120093619D02*
X83205440Y-120142000D01*
X83253821Y-120190380D01*
X83302202Y-120142000D01*
X83253821Y-120093619D01*
X83253821Y-120190380D01*
X83737631Y-120432285D02*
X83737631Y-121109619D01*
X83737631Y-120529047D02*
X83786012Y-120480666D01*
X83882774Y-120432285D01*
X84027917Y-120432285D01*
X84124679Y-120480666D01*
X84173060Y-120577428D01*
X84173060Y-121109619D01*
X82612774Y-118569619D02*
X82128964Y-118569619D01*
X82128964Y-117553619D01*
X82903060Y-117650380D02*
X82951440Y-117602000D01*
X83048202Y-117553619D01*
X83290107Y-117553619D01*
X83386869Y-117602000D01*
X83435250Y-117650380D01*
X83483631Y-117747142D01*
X83483631Y-117843904D01*
X83435250Y-117989047D01*
X82854679Y-118569619D01*
X83483631Y-118569619D01*
X85176964Y-118569619D02*
X84693155Y-118569619D01*
X84693155Y-117553619D01*
X86047821Y-118569619D02*
X85467250Y-118569619D01*
X85757536Y-118569619D02*
X85757536Y-117553619D01*
X85660774Y-117698761D01*
X85564012Y-117795523D01*
X85467250Y-117843904D01*
X82128964Y-116029619D02*
X82128964Y-115013619D01*
X82709536Y-116029619D02*
X82274107Y-115449047D01*
X82709536Y-115013619D02*
X82128964Y-115594190D01*
X83096583Y-115110380D02*
X83144964Y-115062000D01*
X83241726Y-115013619D01*
X83483631Y-115013619D01*
X83580393Y-115062000D01*
X83628774Y-115110380D01*
X83677155Y-115207142D01*
X83677155Y-115303904D01*
X83628774Y-115449047D01*
X83048202Y-116029619D01*
X83677155Y-116029619D01*
X84886679Y-116029619D02*
X84886679Y-115013619D01*
X85467250Y-116029619D02*
X85031821Y-115449047D01*
X85467250Y-115013619D02*
X84886679Y-115594190D01*
X86434869Y-116029619D02*
X85854298Y-116029619D01*
X86144583Y-116029619D02*
X86144583Y-115013619D01*
X86047821Y-115158761D01*
X85951060Y-115255523D01*
X85854298Y-115303904D01*
X82419250Y-112473619D02*
X82419250Y-113199333D01*
X82370869Y-113344476D01*
X82274107Y-113441238D01*
X82128964Y-113489619D01*
X82032202Y-113489619D01*
X82854679Y-112570380D02*
X82903060Y-112522000D01*
X82999821Y-112473619D01*
X83241726Y-112473619D01*
X83338488Y-112522000D01*
X83386869Y-112570380D01*
X83435250Y-112667142D01*
X83435250Y-112763904D01*
X83386869Y-112909047D01*
X82806298Y-113489619D01*
X83435250Y-113489619D01*
X84935060Y-112473619D02*
X84935060Y-113199333D01*
X84886679Y-113344476D01*
X84789917Y-113441238D01*
X84644774Y-113489619D01*
X84548012Y-113489619D01*
X85951060Y-113489619D02*
X85370488Y-113489619D01*
X85660774Y-113489619D02*
X85660774Y-112473619D01*
X85564012Y-112618761D01*
X85467250Y-112715523D01*
X85370488Y-112763904D01*
X82128964Y-110949619D02*
X82128964Y-109933619D01*
X82128964Y-110417428D02*
X82709536Y-110417428D01*
X82709536Y-110949619D02*
X82709536Y-109933619D01*
X83144964Y-110030380D02*
X83193345Y-109982000D01*
X83290107Y-109933619D01*
X83532012Y-109933619D01*
X83628774Y-109982000D01*
X83677155Y-110030380D01*
X83725536Y-110127142D01*
X83725536Y-110223904D01*
X83677155Y-110369047D01*
X83096583Y-110949619D01*
X83725536Y-110949619D01*
X84935060Y-110949619D02*
X84935060Y-109933619D01*
X84935060Y-110417428D02*
X85515631Y-110417428D01*
X85515631Y-110949619D02*
X85515631Y-109933619D01*
X86531631Y-110949619D02*
X85951060Y-110949619D01*
X86241345Y-110949619D02*
X86241345Y-109933619D01*
X86144583Y-110078761D01*
X86047821Y-110175523D01*
X85951060Y-110223904D01*
X82661155Y-107442000D02*
X82564393Y-107393619D01*
X82419250Y-107393619D01*
X82274107Y-107442000D01*
X82177345Y-107538761D01*
X82128964Y-107635523D01*
X82080583Y-107829047D01*
X82080583Y-107974190D01*
X82128964Y-108167714D01*
X82177345Y-108264476D01*
X82274107Y-108361238D01*
X82419250Y-108409619D01*
X82516012Y-108409619D01*
X82661155Y-108361238D01*
X82709536Y-108312857D01*
X82709536Y-107974190D01*
X82516012Y-107974190D01*
X83096583Y-107490380D02*
X83144964Y-107442000D01*
X83241726Y-107393619D01*
X83483631Y-107393619D01*
X83580393Y-107442000D01*
X83628774Y-107490380D01*
X83677155Y-107587142D01*
X83677155Y-107683904D01*
X83628774Y-107829047D01*
X83048202Y-108409619D01*
X83677155Y-108409619D01*
X85418869Y-107442000D02*
X85322107Y-107393619D01*
X85176964Y-107393619D01*
X85031821Y-107442000D01*
X84935060Y-107538761D01*
X84886679Y-107635523D01*
X84838298Y-107829047D01*
X84838298Y-107974190D01*
X84886679Y-108167714D01*
X84935060Y-108264476D01*
X85031821Y-108361238D01*
X85176964Y-108409619D01*
X85273726Y-108409619D01*
X85418869Y-108361238D01*
X85467250Y-108312857D01*
X85467250Y-107974190D01*
X85273726Y-107974190D01*
X86434869Y-108409619D02*
X85854298Y-108409619D01*
X86144583Y-108409619D02*
X86144583Y-107393619D01*
X86047821Y-107538761D01*
X85951060Y-107635523D01*
X85854298Y-107683904D01*
X82467631Y-105337428D02*
X82128964Y-105337428D01*
X82128964Y-105869619D02*
X82128964Y-104853619D01*
X82612774Y-104853619D01*
X82951440Y-104950380D02*
X82999821Y-104902000D01*
X83096583Y-104853619D01*
X83338488Y-104853619D01*
X83435250Y-104902000D01*
X83483631Y-104950380D01*
X83532012Y-105047142D01*
X83532012Y-105143904D01*
X83483631Y-105289047D01*
X82903060Y-105869619D01*
X83532012Y-105869619D01*
X85080202Y-105337428D02*
X84741536Y-105337428D01*
X84741536Y-105869619D02*
X84741536Y-104853619D01*
X85225345Y-104853619D01*
X86144583Y-105869619D02*
X85564012Y-105869619D01*
X85854298Y-105869619D02*
X85854298Y-104853619D01*
X85757536Y-104998761D01*
X85660774Y-105095523D01*
X85564012Y-105143904D01*
X82128964Y-102797428D02*
X82467631Y-102797428D01*
X82612774Y-103329619D02*
X82128964Y-103329619D01*
X82128964Y-102313619D01*
X82612774Y-102313619D01*
X82999821Y-102410380D02*
X83048202Y-102362000D01*
X83144964Y-102313619D01*
X83386869Y-102313619D01*
X83483631Y-102362000D01*
X83532012Y-102410380D01*
X83580393Y-102507142D01*
X83580393Y-102603904D01*
X83532012Y-102749047D01*
X82951440Y-103329619D01*
X83580393Y-103329619D01*
X84789917Y-102797428D02*
X85128583Y-102797428D01*
X85273726Y-103329619D02*
X84789917Y-103329619D01*
X84789917Y-102313619D01*
X85273726Y-102313619D01*
X86241345Y-103329619D02*
X85660774Y-103329619D01*
X85951060Y-103329619D02*
X85951060Y-102313619D01*
X85854298Y-102458761D01*
X85757536Y-102555523D01*
X85660774Y-102603904D01*
X82128964Y-100789619D02*
X82128964Y-99773619D01*
X82370869Y-99773619D01*
X82516012Y-99822000D01*
X82612774Y-99918761D01*
X82661155Y-100015523D01*
X82709536Y-100209047D01*
X82709536Y-100354190D01*
X82661155Y-100547714D01*
X82612774Y-100644476D01*
X82516012Y-100741238D01*
X82370869Y-100789619D01*
X82128964Y-100789619D01*
X83096583Y-99870380D02*
X83144964Y-99822000D01*
X83241726Y-99773619D01*
X83483631Y-99773619D01*
X83580393Y-99822000D01*
X83628774Y-99870380D01*
X83677155Y-99967142D01*
X83677155Y-100063904D01*
X83628774Y-100209047D01*
X83048202Y-100789619D01*
X83677155Y-100789619D01*
X84886679Y-100789619D02*
X84886679Y-99773619D01*
X85128583Y-99773619D01*
X85273726Y-99822000D01*
X85370488Y-99918761D01*
X85418869Y-100015523D01*
X85467250Y-100209047D01*
X85467250Y-100354190D01*
X85418869Y-100547714D01*
X85370488Y-100644476D01*
X85273726Y-100741238D01*
X85128583Y-100789619D01*
X84886679Y-100789619D01*
X86434869Y-100789619D02*
X85854298Y-100789619D01*
X86144583Y-100789619D02*
X86144583Y-99773619D01*
X86047821Y-99918761D01*
X85951060Y-100015523D01*
X85854298Y-100063904D01*
X82709536Y-98152857D02*
X82661155Y-98201238D01*
X82516012Y-98249619D01*
X82419250Y-98249619D01*
X82274107Y-98201238D01*
X82177345Y-98104476D01*
X82128964Y-98007714D01*
X82080583Y-97814190D01*
X82080583Y-97669047D01*
X82128964Y-97475523D01*
X82177345Y-97378761D01*
X82274107Y-97282000D01*
X82419250Y-97233619D01*
X82516012Y-97233619D01*
X82661155Y-97282000D01*
X82709536Y-97330380D01*
X83096583Y-97330380D02*
X83144964Y-97282000D01*
X83241726Y-97233619D01*
X83483631Y-97233619D01*
X83580393Y-97282000D01*
X83628774Y-97330380D01*
X83677155Y-97427142D01*
X83677155Y-97523904D01*
X83628774Y-97669047D01*
X83048202Y-98249619D01*
X83677155Y-98249619D01*
X85467250Y-98152857D02*
X85418869Y-98201238D01*
X85273726Y-98249619D01*
X85176964Y-98249619D01*
X85031821Y-98201238D01*
X84935060Y-98104476D01*
X84886679Y-98007714D01*
X84838298Y-97814190D01*
X84838298Y-97669047D01*
X84886679Y-97475523D01*
X84935060Y-97378761D01*
X85031821Y-97282000D01*
X85176964Y-97233619D01*
X85273726Y-97233619D01*
X85418869Y-97282000D01*
X85467250Y-97330380D01*
X86434869Y-98249619D02*
X85854298Y-98249619D01*
X86144583Y-98249619D02*
X86144583Y-97233619D01*
X86047821Y-97378761D01*
X85951060Y-97475523D01*
X85854298Y-97523904D01*
X82467631Y-95177428D02*
X82612774Y-95225809D01*
X82661155Y-95274190D01*
X82709536Y-95370952D01*
X82709536Y-95516095D01*
X82661155Y-95612857D01*
X82612774Y-95661238D01*
X82516012Y-95709619D01*
X82128964Y-95709619D01*
X82128964Y-94693619D01*
X82467631Y-94693619D01*
X82564393Y-94742000D01*
X82612774Y-94790380D01*
X82661155Y-94887142D01*
X82661155Y-94983904D01*
X82612774Y-95080666D01*
X82564393Y-95129047D01*
X82467631Y-95177428D01*
X82128964Y-95177428D01*
X83096583Y-94790380D02*
X83144964Y-94742000D01*
X83241726Y-94693619D01*
X83483631Y-94693619D01*
X83580393Y-94742000D01*
X83628774Y-94790380D01*
X83677155Y-94887142D01*
X83677155Y-94983904D01*
X83628774Y-95129047D01*
X83048202Y-95709619D01*
X83677155Y-95709619D01*
X85225345Y-95177428D02*
X85370488Y-95225809D01*
X85418869Y-95274190D01*
X85467250Y-95370952D01*
X85467250Y-95516095D01*
X85418869Y-95612857D01*
X85370488Y-95661238D01*
X85273726Y-95709619D01*
X84886679Y-95709619D01*
X84886679Y-94693619D01*
X85225345Y-94693619D01*
X85322107Y-94742000D01*
X85370488Y-94790380D01*
X85418869Y-94887142D01*
X85418869Y-94983904D01*
X85370488Y-95080666D01*
X85322107Y-95129047D01*
X85225345Y-95177428D01*
X84886679Y-95177428D01*
X86434869Y-95709619D02*
X85854298Y-95709619D01*
X86144583Y-95709619D02*
X86144583Y-94693619D01*
X86047821Y-94838761D01*
X85951060Y-94935523D01*
X85854298Y-94983904D01*
X82080583Y-92879333D02*
X82564393Y-92879333D01*
X81983821Y-93169619D02*
X82322488Y-92153619D01*
X82661155Y-93169619D01*
X83435250Y-92492285D02*
X83435250Y-93169619D01*
X83193345Y-92105238D02*
X82951440Y-92830952D01*
X83580393Y-92830952D01*
X84693155Y-92879333D02*
X85176964Y-92879333D01*
X84596393Y-93169619D02*
X84935060Y-92153619D01*
X85273726Y-93169619D01*
X85515631Y-92153619D02*
X86144583Y-92153619D01*
X85805917Y-92540666D01*
X85951060Y-92540666D01*
X86047821Y-92589047D01*
X86096202Y-92637428D01*
X86144583Y-92734190D01*
X86144583Y-92976095D01*
X86096202Y-93072857D01*
X86047821Y-93121238D01*
X85951060Y-93169619D01*
X85660774Y-93169619D01*
X85564012Y-93121238D01*
X85515631Y-93072857D01*
X82042000Y-90339333D02*
X82525809Y-90339333D01*
X81945238Y-90629619D02*
X82283904Y-89613619D01*
X82622571Y-90629619D01*
X82912857Y-89710380D02*
X82961238Y-89662000D01*
X83058000Y-89613619D01*
X83299904Y-89613619D01*
X83396666Y-89662000D01*
X83445047Y-89710380D01*
X83493428Y-89807142D01*
X83493428Y-89903904D01*
X83445047Y-90049047D01*
X82864476Y-90629619D01*
X83493428Y-90629619D01*
X84654571Y-90339333D02*
X85138380Y-90339333D01*
X84557809Y-90629619D02*
X84896476Y-89613619D01*
X85235142Y-90629619D01*
X86106000Y-90629619D02*
X85525428Y-90629619D01*
X85815714Y-90629619D02*
X85815714Y-89613619D01*
X85718952Y-89758761D01*
X85622190Y-89855523D01*
X85525428Y-89903904D01*
D12*
X122552000Y-113454571D02*
X122552000Y-111954571D01*
X123123428Y-111954571D01*
X123266285Y-112026000D01*
X123337714Y-112097428D01*
X123409142Y-112240285D01*
X123409142Y-112454571D01*
X123337714Y-112597428D01*
X123266285Y-112668857D01*
X123123428Y-112740285D01*
X122552000Y-112740285D01*
X124623428Y-113383142D02*
X124480571Y-113454571D01*
X124194857Y-113454571D01*
X124052000Y-113383142D01*
X123980571Y-113240285D01*
X123980571Y-112668857D01*
X124052000Y-112526000D01*
X124194857Y-112454571D01*
X124480571Y-112454571D01*
X124623428Y-112526000D01*
X124694857Y-112668857D01*
X124694857Y-112811714D01*
X123980571Y-112954571D01*
X125123428Y-112454571D02*
X125694857Y-112454571D01*
X125337714Y-111954571D02*
X125337714Y-113240285D01*
X125409142Y-113383142D01*
X125552000Y-113454571D01*
X125694857Y-113454571D01*
X127623428Y-111954571D02*
X127909142Y-111954571D01*
X128052000Y-112026000D01*
X128194857Y-112168857D01*
X128266285Y-112454571D01*
X128266285Y-112954571D01*
X128194857Y-113240285D01*
X128052000Y-113383142D01*
X127909142Y-113454571D01*
X127623428Y-113454571D01*
X127480571Y-113383142D01*
X127337714Y-113240285D01*
X127266285Y-112954571D01*
X127266285Y-112454571D01*
X127337714Y-112168857D01*
X127480571Y-112026000D01*
X127623428Y-111954571D01*
X128909142Y-112454571D02*
X128909142Y-113454571D01*
X128909142Y-112597428D02*
X128980571Y-112526000D01*
X129123428Y-112454571D01*
X129337714Y-112454571D01*
X129480571Y-112526000D01*
X129552000Y-112668857D01*
X129552000Y-113454571D01*
X131337714Y-113026000D02*
X132052000Y-113026000D01*
X131194857Y-113454571D02*
X131694857Y-111954571D01*
X132194857Y-113454571D01*
X134694857Y-113311714D02*
X134623428Y-113383142D01*
X134409142Y-113454571D01*
X134266285Y-113454571D01*
X134052000Y-113383142D01*
X133909142Y-113240285D01*
X133837714Y-113097428D01*
X133766285Y-112811714D01*
X133766285Y-112597428D01*
X133837714Y-112311714D01*
X133909142Y-112168857D01*
X134052000Y-112026000D01*
X134266285Y-111954571D01*
X134409142Y-111954571D01*
X134623428Y-112026000D01*
X134694857Y-112097428D01*
X135337714Y-113454571D02*
X135337714Y-111954571D01*
X135980571Y-113454571D02*
X135980571Y-112668857D01*
X135909142Y-112526000D01*
X135766285Y-112454571D01*
X135552000Y-112454571D01*
X135409142Y-112526000D01*
X135337714Y-112597428D01*
X136694857Y-113454571D02*
X136694857Y-112454571D01*
X136694857Y-111954571D02*
X136623428Y-112026000D01*
X136694857Y-112097428D01*
X136766285Y-112026000D01*
X136694857Y-111954571D01*
X136694857Y-112097428D01*
X137409142Y-112454571D02*
X137409142Y-113954571D01*
X137409142Y-112526000D02*
X137552000Y-112454571D01*
X137837714Y-112454571D01*
X137980571Y-112526000D01*
X138052000Y-112597428D01*
X138123428Y-112740285D01*
X138123428Y-113168857D01*
X138052000Y-113311714D01*
X137980571Y-113383142D01*
X137837714Y-113454571D01*
X137552000Y-113454571D01*
X137409142Y-113383142D01*
D13*
X128538500Y-129831258D02*
X128538500Y-129356742D01*
X127493500Y-129831258D02*
X127493500Y-129356742D01*
X128538500Y-133841258D02*
X128538500Y-133366742D01*
X127493500Y-133841258D02*
X127493500Y-133366742D01*
X152460000Y-127060000D02*
X151130000Y-127060000D01*
X152460000Y-125730000D02*
X152460000Y-127060000D01*
X149860000Y-127060000D02*
X147260000Y-127060000D01*
X149860000Y-124460000D02*
X149860000Y-127060000D01*
X152460000Y-124460000D02*
X149860000Y-124460000D01*
X147260000Y-127060000D02*
X147260000Y-88840000D01*
X152460000Y-124460000D02*
X152460000Y-88840000D01*
X152460000Y-88840000D02*
X147260000Y-88840000D01*
X81340000Y-88840000D02*
X76140000Y-88840000D01*
X81340000Y-124460000D02*
X81340000Y-88840000D01*
X76140000Y-127060000D02*
X76140000Y-88840000D01*
X81340000Y-124460000D02*
X78740000Y-124460000D01*
X78740000Y-124460000D02*
X78740000Y-127060000D01*
X78740000Y-127060000D02*
X76140000Y-127060000D01*
X81340000Y-125730000D02*
X81340000Y-127060000D01*
X81340000Y-127060000D02*
X80010000Y-127060000D01*
X104692750Y-104627750D02*
X105480250Y-104627750D01*
X105086500Y-105021500D02*
X105086500Y-104234000D01*
X109279563Y-103994000D02*
X110344000Y-102929563D01*
X104588437Y-103994000D02*
X103524000Y-102929563D01*
X104588437Y-103994000D02*
X105874000Y-103994000D01*
X109279563Y-103994000D02*
X107994000Y-103994000D01*
X110344000Y-102929563D02*
X110344000Y-97174000D01*
X103524000Y-102929563D02*
X103524000Y-97174000D01*
X103524000Y-97174000D02*
X105874000Y-97174000D01*
X110344000Y-97174000D02*
X107994000Y-97174000D01*
X99566000Y-134528779D02*
X99566000Y-134203221D01*
X100586000Y-134528779D02*
X100586000Y-134203221D01*
X120902000Y-133766779D02*
X120902000Y-133441221D01*
X121922000Y-133766779D02*
X121922000Y-133441221D01*
X87765000Y-140834400D02*
X88265000Y-141334400D01*
X88765000Y-140834400D02*
X87765000Y-140834400D01*
X88265000Y-141334400D02*
X88765000Y-140834400D01*
X80855000Y-158274400D02*
X80855000Y-149914400D01*
X93175000Y-158274400D02*
X80855000Y-158274400D01*
X93175000Y-149914400D02*
X93175000Y-158274400D01*
X80855000Y-141554400D02*
X80855000Y-145814400D01*
X93175000Y-141554400D02*
X80855000Y-141554400D01*
X93175000Y-145814400D02*
X93175000Y-141554400D01*
X124372000Y-97552000D02*
X124372000Y-93052000D01*
X120372000Y-98802000D02*
X121872000Y-98802000D01*
X117872000Y-93052000D02*
X117872000Y-97552000D01*
X121872000Y-91802000D02*
X120372000Y-91802000D01*
X105060000Y-131034000D02*
X104110000Y-131034000D01*
X104110000Y-131034000D02*
X104110000Y-131984000D01*
X113380000Y-131034000D02*
X114330000Y-131034000D01*
X114330000Y-131034000D02*
X114330000Y-131984000D01*
X105060000Y-141254000D02*
X104110000Y-141254000D01*
X104110000Y-141254000D02*
X104110000Y-140304000D01*
X113380000Y-141254000D02*
X114330000Y-141254000D01*
X114330000Y-141254000D02*
X114330000Y-140304000D01*
X114330000Y-140304000D02*
X115670000Y-140304000D01*
X95904000Y-101224000D02*
X97164000Y-101224000D01*
X102724000Y-101224000D02*
X101464000Y-101224000D01*
X95904000Y-97464000D02*
X95904000Y-101224000D01*
X102724000Y-95214000D02*
X102724000Y-101224000D01*
X107356000Y-92148000D02*
X107356000Y-93948000D01*
X110576000Y-93948000D02*
X110576000Y-91498000D01*
X118598000Y-123952000D02*
X118598000Y-125902000D01*
X118598000Y-123952000D02*
X118598000Y-122002000D01*
X123718000Y-123952000D02*
X123718000Y-125902000D01*
X123718000Y-123952000D02*
X123718000Y-120502000D01*
X104595000Y-109759000D02*
X104595000Y-117909000D01*
X104595000Y-117909000D02*
X113845000Y-117909000D01*
X113845000Y-108659000D02*
X113845000Y-117909000D01*
X105695000Y-108659000D02*
X113845000Y-108659000D01*
X105930000Y-125886000D02*
X109080000Y-125886000D01*
X109080000Y-125886000D02*
X109080000Y-122086000D01*
X111892000Y-147625000D02*
X115692000Y-147625000D01*
X111892000Y-144475000D02*
X111892000Y-147625000D01*
X100586000Y-138013221D02*
X100586000Y-138338779D01*
X99566000Y-138013221D02*
X99566000Y-138338779D01*
X106517221Y-127252000D02*
X106842779Y-127252000D01*
X106517221Y-128272000D02*
X106842779Y-128272000D01*
X106263221Y-144528000D02*
X106588779Y-144528000D01*
X106263221Y-143508000D02*
X106588779Y-143508000D01*
X98460779Y-143766000D02*
X98135221Y-143766000D01*
X98460779Y-142746000D02*
X98135221Y-142746000D01*
X118620000Y-149260779D02*
X118620000Y-148935221D01*
X117600000Y-149260779D02*
X117600000Y-148935221D01*
X124204000Y-133766779D02*
X124204000Y-133441221D01*
X125224000Y-133766779D02*
X125224000Y-133441221D01*
X100586000Y-130718779D02*
X100586000Y-130393221D01*
X99566000Y-130718779D02*
X99566000Y-130393221D01*
X118620000Y-144871221D02*
X118620000Y-145196779D01*
X117600000Y-144871221D02*
X117600000Y-145196779D01*
X118620000Y-141386779D02*
X118620000Y-141061221D01*
X117600000Y-141386779D02*
X117600000Y-141061221D01*
X125986000Y-123789221D02*
X125986000Y-124114779D01*
X124966000Y-123789221D02*
X124966000Y-124114779D01*
X119288779Y-113794000D02*
X118963221Y-113794000D01*
X119288779Y-112774000D02*
X118963221Y-112774000D01*
X117600000Y-133766779D02*
X117600000Y-133441221D01*
X118620000Y-133766779D02*
X118620000Y-133441221D01*
X117600000Y-137251221D02*
X117600000Y-137576779D01*
X118620000Y-137251221D02*
X118620000Y-137576779D01*
X96518000Y-92898279D02*
X96518000Y-92572721D01*
X97538000Y-92898279D02*
X97538000Y-92572721D01*
X104646000Y-92572721D02*
X104646000Y-92898279D01*
X105666000Y-92572721D02*
X105666000Y-92898279D01*
X101090000Y-92572721D02*
X101090000Y-92898279D01*
X102110000Y-92572721D02*
X102110000Y-92898279D01*
X113286000Y-92898279D02*
X113286000Y-92572721D01*
X112266000Y-92898279D02*
X112266000Y-92572721D01*
X99151221Y-124712000D02*
X99476779Y-124712000D01*
X99151221Y-125732000D02*
X99476779Y-125732000D01*
X112684779Y-95756000D02*
X112359221Y-95756000D01*
X112684779Y-96776000D02*
X112359221Y-96776000D01*
X99151221Y-122172000D02*
X99476779Y-122172000D01*
X99151221Y-123192000D02*
X99476779Y-123192000D01*
X112684779Y-98042000D02*
X112359221Y-98042000D01*
X112684779Y-99062000D02*
X112359221Y-99062000D01*
X104142000Y-106055279D02*
X104142000Y-105729721D01*
X103122000Y-106055279D02*
X103122000Y-105729721D01*
X115572000Y-103312279D02*
X115572000Y-102986721D01*
X114552000Y-103312279D02*
X114552000Y-102986721D01*
X99824000Y-105755221D02*
X99824000Y-106080779D01*
X98804000Y-105755221D02*
X98804000Y-106080779D01*
X99151221Y-113794000D02*
X99476779Y-113794000D01*
X99151221Y-112774000D02*
X99476779Y-112774000D01*
X109057221Y-146560000D02*
X109382779Y-146560000D01*
X109057221Y-145540000D02*
X109382779Y-145540000D01*
X107948000Y-150022779D02*
X107948000Y-149697221D01*
X108968000Y-150022779D02*
X108968000Y-149697221D01*
X117185221Y-130558000D02*
X117510779Y-130558000D01*
X117185221Y-129538000D02*
X117510779Y-129538000D01*
X102270779Y-142746000D02*
X101945221Y-142746000D01*
X102270779Y-143766000D02*
X101945221Y-143766000D01*
X113121221Y-149858000D02*
X113446779Y-149858000D01*
X113121221Y-150878000D02*
X113446779Y-150878000D01*
X114298000Y-127162779D02*
X114298000Y-126837221D01*
X115318000Y-127162779D02*
X115318000Y-126837221D01*
X88394000Y-124576721D02*
X88394000Y-124902279D01*
X87374000Y-124576721D02*
X87374000Y-124902279D01*
X89914000Y-124576721D02*
X89914000Y-124902279D01*
X90934000Y-124576721D02*
X90934000Y-124902279D01*
X122519221Y-129538000D02*
X122844779Y-129538000D01*
X122519221Y-130558000D02*
X122844779Y-130558000D01*
X121249221Y-118874000D02*
X121574779Y-118874000D01*
X121249221Y-117854000D02*
X121574779Y-117854000D01*
X125986000Y-119288779D02*
X125986000Y-118963221D01*
X124966000Y-119288779D02*
X124966000Y-118963221D01*
X99151221Y-120906000D02*
X99476779Y-120906000D01*
X99151221Y-119886000D02*
X99476779Y-119886000D01*
X112359221Y-100328000D02*
X112684779Y-100328000D01*
X112359221Y-101348000D02*
X112684779Y-101348000D01*
X114298000Y-123098779D02*
X114298000Y-122773221D01*
X115318000Y-123098779D02*
X115318000Y-122773221D01*
X112016000Y-123098779D02*
X112016000Y-122773221D01*
X110996000Y-123098779D02*
X110996000Y-122773221D01*
X140460000Y-131734779D02*
X140460000Y-131409221D01*
X141480000Y-131734779D02*
X141480000Y-131409221D01*
X139194000Y-131734779D02*
X139194000Y-131409221D01*
X138174000Y-131734779D02*
X138174000Y-131409221D01*
X135888000Y-131734779D02*
X135888000Y-131409221D01*
X136908000Y-131734779D02*
X136908000Y-131409221D01*
X89914000Y-133030279D02*
X89914000Y-132704721D01*
X90934000Y-133030279D02*
X90934000Y-132704721D01*
X88394000Y-133030279D02*
X88394000Y-132704721D01*
X87374000Y-133030279D02*
X87374000Y-132704721D01*
X92454000Y-133030279D02*
X92454000Y-132704721D01*
X93474000Y-133030279D02*
X93474000Y-132704721D01*
X92454000Y-124576721D02*
X92454000Y-124902279D01*
X93474000Y-124576721D02*
X93474000Y-124902279D01*
X82073000Y-136144000D02*
G75*
G03*
X82073000Y-136144000I-1555000J0D01*
G01*
X78418000Y-130484000D02*
X78418000Y-138304000D01*
X83978000Y-130484000D02*
X83978000Y-138304000D01*
X76858000Y-130484000D02*
X76858000Y-138304000D01*
X83978000Y-130484000D02*
X76858000Y-130484000D01*
X83978000Y-138304000D02*
X76858000Y-138304000D01*
X78358000Y-130244000D02*
X76618000Y-130244000D01*
X76618000Y-130244000D02*
X76618000Y-131744000D01*
X79086615Y-133251587D02*
G75*
G02*
X78963000Y-132644000I1431385J607587D01*
G01*
X81125742Y-134076109D02*
G75*
G02*
X79910000Y-134076000I-607742J1432109D01*
G01*
X81950109Y-132036258D02*
G75*
G02*
X81950000Y-133252000I-1432109J-607742D01*
G01*
X79910258Y-131211891D02*
G75*
G02*
X81126000Y-131212000I607742J-1432109D01*
G01*
X78962508Y-132671011D02*
G75*
G02*
X79086000Y-132036000I1555492J27011D01*
G01*
D14*
X141212000Y-134926000D02*
G75*
G03*
X141212000Y-134926000I-100000J0D01*
G01*
D15*
X121232000Y-152146000D02*
X152072000Y-152146000D01*
X152072000Y-152146000D02*
X152072000Y-135926000D01*
X152072000Y-135926000D02*
X121232000Y-135926000D01*
X121232000Y-135926000D02*
X121232000Y-152146000D01*
D13*
X132572000Y-97552000D02*
X132572000Y-93052000D01*
X128572000Y-98802000D02*
X130072000Y-98802000D01*
X126072000Y-93052000D02*
X126072000Y-97552000D01*
X130072000Y-91802000D02*
X128572000Y-91802000D01*
X101600000Y-145776000D02*
X99650000Y-145776000D01*
X101600000Y-145776000D02*
X103550000Y-145776000D01*
X101600000Y-150896000D02*
X99650000Y-150896000D01*
X101600000Y-150896000D02*
X105050000Y-150896000D01*
D10*
X127038380Y-130236857D02*
X126562190Y-130570190D01*
X127038380Y-130808285D02*
X126038380Y-130808285D01*
X126038380Y-130427333D01*
X126086000Y-130332095D01*
X126133619Y-130284476D01*
X126228857Y-130236857D01*
X126371714Y-130236857D01*
X126466952Y-130284476D01*
X126514571Y-130332095D01*
X126562190Y-130427333D01*
X126562190Y-130808285D01*
X126133619Y-129855904D02*
X126086000Y-129808285D01*
X126038380Y-129713047D01*
X126038380Y-129474952D01*
X126086000Y-129379714D01*
X126133619Y-129332095D01*
X126228857Y-129284476D01*
X126324095Y-129284476D01*
X126466952Y-129332095D01*
X127038380Y-129903523D01*
X127038380Y-129284476D01*
X127038380Y-128332095D02*
X127038380Y-128903523D01*
X127038380Y-128617809D02*
X126038380Y-128617809D01*
X126181238Y-128713047D01*
X126276476Y-128808285D01*
X126324095Y-128903523D01*
X130246380Y-134246857D02*
X129770190Y-134580190D01*
X130246380Y-134818285D02*
X129246380Y-134818285D01*
X129246380Y-134437333D01*
X129294000Y-134342095D01*
X129341619Y-134294476D01*
X129436857Y-134246857D01*
X129579714Y-134246857D01*
X129674952Y-134294476D01*
X129722571Y-134342095D01*
X129770190Y-134437333D01*
X129770190Y-134818285D01*
X129341619Y-133865904D02*
X129294000Y-133818285D01*
X129246380Y-133723047D01*
X129246380Y-133484952D01*
X129294000Y-133389714D01*
X129341619Y-133342095D01*
X129436857Y-133294476D01*
X129532095Y-133294476D01*
X129674952Y-133342095D01*
X130246380Y-133913523D01*
X130246380Y-133294476D01*
X129246380Y-132675428D02*
X129246380Y-132580190D01*
X129294000Y-132484952D01*
X129341619Y-132437333D01*
X129436857Y-132389714D01*
X129627333Y-132342095D01*
X129865428Y-132342095D01*
X130055904Y-132389714D01*
X130151142Y-132437333D01*
X130198761Y-132484952D01*
X130246380Y-132580190D01*
X130246380Y-132675428D01*
X130198761Y-132770666D01*
X130151142Y-132818285D01*
X130055904Y-132865904D01*
X129865428Y-132913523D01*
X129627333Y-132913523D01*
X129436857Y-132865904D01*
X129341619Y-132818285D01*
X129294000Y-132770666D01*
X129246380Y-132675428D01*
X149526666Y-127722380D02*
X149526666Y-128436666D01*
X149479047Y-128579523D01*
X149383809Y-128674761D01*
X149240952Y-128722380D01*
X149145714Y-128722380D01*
X150431428Y-128055714D02*
X150431428Y-128722380D01*
X150193333Y-127674761D02*
X149955238Y-128389047D01*
X150574285Y-128389047D01*
X78406666Y-127722380D02*
X78406666Y-128436666D01*
X78359047Y-128579523D01*
X78263809Y-128674761D01*
X78120952Y-128722380D01*
X78025714Y-128722380D01*
X78787619Y-127722380D02*
X79406666Y-127722380D01*
X79073333Y-128103333D01*
X79216190Y-128103333D01*
X79311428Y-128150952D01*
X79359047Y-128198571D01*
X79406666Y-128293809D01*
X79406666Y-128531904D01*
X79359047Y-128627142D01*
X79311428Y-128674761D01*
X79216190Y-128722380D01*
X78930476Y-128722380D01*
X78835238Y-128674761D01*
X78787619Y-128627142D01*
X103751142Y-96623142D02*
X103703523Y-96670761D01*
X103560666Y-96718380D01*
X103465428Y-96718380D01*
X103322571Y-96670761D01*
X103227333Y-96575523D01*
X103179714Y-96480285D01*
X103132095Y-96289809D01*
X103132095Y-96146952D01*
X103179714Y-95956476D01*
X103227333Y-95861238D01*
X103322571Y-95766000D01*
X103465428Y-95718380D01*
X103560666Y-95718380D01*
X103703523Y-95766000D01*
X103751142Y-95813619D01*
X104132095Y-95813619D02*
X104179714Y-95766000D01*
X104274952Y-95718380D01*
X104513047Y-95718380D01*
X104608285Y-95766000D01*
X104655904Y-95813619D01*
X104703523Y-95908857D01*
X104703523Y-96004095D01*
X104655904Y-96146952D01*
X104084476Y-96718380D01*
X104703523Y-96718380D01*
X105274952Y-96146952D02*
X105179714Y-96099333D01*
X105132095Y-96051714D01*
X105084476Y-95956476D01*
X105084476Y-95908857D01*
X105132095Y-95813619D01*
X105179714Y-95766000D01*
X105274952Y-95718380D01*
X105465428Y-95718380D01*
X105560666Y-95766000D01*
X105608285Y-95813619D01*
X105655904Y-95908857D01*
X105655904Y-95956476D01*
X105608285Y-96051714D01*
X105560666Y-96099333D01*
X105465428Y-96146952D01*
X105274952Y-96146952D01*
X105179714Y-96194571D01*
X105132095Y-96242190D01*
X105084476Y-96337428D01*
X105084476Y-96527904D01*
X105132095Y-96623142D01*
X105179714Y-96670761D01*
X105274952Y-96718380D01*
X105465428Y-96718380D01*
X105560666Y-96670761D01*
X105608285Y-96623142D01*
X105655904Y-96527904D01*
X105655904Y-96337428D01*
X105608285Y-96242190D01*
X105560666Y-96194571D01*
X105465428Y-96146952D01*
X99003142Y-134532666D02*
X99050761Y-134580285D01*
X99098380Y-134723142D01*
X99098380Y-134818380D01*
X99050761Y-134961238D01*
X98955523Y-135056476D01*
X98860285Y-135104095D01*
X98669809Y-135151714D01*
X98526952Y-135151714D01*
X98336476Y-135104095D01*
X98241238Y-135056476D01*
X98146000Y-134961238D01*
X98098380Y-134818380D01*
X98098380Y-134723142D01*
X98146000Y-134580285D01*
X98193619Y-134532666D01*
X98193619Y-134151714D02*
X98146000Y-134104095D01*
X98098380Y-134008857D01*
X98098380Y-133770761D01*
X98146000Y-133675523D01*
X98193619Y-133627904D01*
X98288857Y-133580285D01*
X98384095Y-133580285D01*
X98526952Y-133627904D01*
X99098380Y-134199333D01*
X99098380Y-133580285D01*
X123293142Y-133770666D02*
X123340761Y-133818285D01*
X123388380Y-133961142D01*
X123388380Y-134056380D01*
X123340761Y-134199238D01*
X123245523Y-134294476D01*
X123150285Y-134342095D01*
X122959809Y-134389714D01*
X122816952Y-134389714D01*
X122626476Y-134342095D01*
X122531238Y-134294476D01*
X122436000Y-134199238D01*
X122388380Y-134056380D01*
X122388380Y-133961142D01*
X122436000Y-133818285D01*
X122483619Y-133770666D01*
X122388380Y-133437333D02*
X122388380Y-132770666D01*
X123388380Y-133199238D01*
X94154666Y-142454380D02*
X94154666Y-143168666D01*
X94107047Y-143311523D01*
X94011809Y-143406761D01*
X93868952Y-143454380D01*
X93773714Y-143454380D01*
X95154666Y-143454380D02*
X94583238Y-143454380D01*
X94868952Y-143454380D02*
X94868952Y-142454380D01*
X94773714Y-142597238D01*
X94678476Y-142692476D01*
X94583238Y-142740095D01*
X113792095Y-141946380D02*
X113792095Y-142755904D01*
X113839714Y-142851142D01*
X113887333Y-142898761D01*
X113982571Y-142946380D01*
X114173047Y-142946380D01*
X114268285Y-142898761D01*
X114315904Y-142851142D01*
X114363523Y-142755904D01*
X114363523Y-141946380D01*
X114792095Y-142041619D02*
X114839714Y-141994000D01*
X114934952Y-141946380D01*
X115173047Y-141946380D01*
X115268285Y-141994000D01*
X115315904Y-142041619D01*
X115363523Y-142136857D01*
X115363523Y-142232095D01*
X115315904Y-142374952D01*
X114744476Y-142946380D01*
X115363523Y-142946380D01*
X94488095Y-104100380D02*
X94488095Y-104909904D01*
X94535714Y-105005142D01*
X94583333Y-105052761D01*
X94678571Y-105100380D01*
X94869047Y-105100380D01*
X94964285Y-105052761D01*
X95011904Y-105005142D01*
X95059523Y-104909904D01*
X95059523Y-104100380D01*
X95440476Y-104100380D02*
X96059523Y-104100380D01*
X95726190Y-104481333D01*
X95869047Y-104481333D01*
X95964285Y-104528952D01*
X96011904Y-104576571D01*
X96059523Y-104671809D01*
X96059523Y-104909904D01*
X96011904Y-105005142D01*
X95964285Y-105052761D01*
X95869047Y-105100380D01*
X95583333Y-105100380D01*
X95488095Y-105052761D01*
X95440476Y-105005142D01*
X108204095Y-95294380D02*
X108204095Y-96103904D01*
X108251714Y-96199142D01*
X108299333Y-96246761D01*
X108394571Y-96294380D01*
X108585047Y-96294380D01*
X108680285Y-96246761D01*
X108727904Y-96199142D01*
X108775523Y-96103904D01*
X108775523Y-95294380D01*
X109680285Y-95627714D02*
X109680285Y-96294380D01*
X109442190Y-95246761D02*
X109204095Y-95961047D01*
X109823142Y-95961047D01*
X117054380Y-124713904D02*
X117863904Y-124713904D01*
X117959142Y-124666285D01*
X118006761Y-124618666D01*
X118054380Y-124523428D01*
X118054380Y-124332952D01*
X118006761Y-124237714D01*
X117959142Y-124190095D01*
X117863904Y-124142476D01*
X117054380Y-124142476D01*
X117054380Y-123190095D02*
X117054380Y-123666285D01*
X117530571Y-123713904D01*
X117482952Y-123666285D01*
X117435333Y-123571047D01*
X117435333Y-123332952D01*
X117482952Y-123237714D01*
X117530571Y-123190095D01*
X117625809Y-123142476D01*
X117863904Y-123142476D01*
X117959142Y-123190095D01*
X118006761Y-123237714D01*
X118054380Y-123332952D01*
X118054380Y-123571047D01*
X118006761Y-123666285D01*
X117959142Y-123713904D01*
X108458095Y-107336380D02*
X108458095Y-108145904D01*
X108505714Y-108241142D01*
X108553333Y-108288761D01*
X108648571Y-108336380D01*
X108839047Y-108336380D01*
X108934285Y-108288761D01*
X108981904Y-108241142D01*
X109029523Y-108145904D01*
X109029523Y-107336380D01*
X109934285Y-107336380D02*
X109743809Y-107336380D01*
X109648571Y-107384000D01*
X109600952Y-107431619D01*
X109505714Y-107574476D01*
X109458095Y-107764952D01*
X109458095Y-108145904D01*
X109505714Y-108241142D01*
X109553333Y-108288761D01*
X109648571Y-108336380D01*
X109839047Y-108336380D01*
X109934285Y-108288761D01*
X109981904Y-108241142D01*
X110029523Y-108145904D01*
X110029523Y-107907809D01*
X109981904Y-107812571D01*
X109934285Y-107764952D01*
X109839047Y-107717333D01*
X109648571Y-107717333D01*
X109553333Y-107764952D01*
X109505714Y-107812571D01*
X109458095Y-107907809D01*
X104507380Y-124795523D02*
X105507380Y-124128857D01*
X104507380Y-124128857D02*
X105507380Y-124795523D01*
X104602619Y-123795523D02*
X104555000Y-123747904D01*
X104507380Y-123652666D01*
X104507380Y-123414571D01*
X104555000Y-123319333D01*
X104602619Y-123271714D01*
X104697857Y-123224095D01*
X104793095Y-123224095D01*
X104935952Y-123271714D01*
X105507380Y-123843142D01*
X105507380Y-123224095D01*
X112982476Y-148042380D02*
X113649142Y-149042380D01*
X113649142Y-148042380D02*
X112982476Y-149042380D01*
X114553904Y-149042380D02*
X113982476Y-149042380D01*
X114268190Y-149042380D02*
X114268190Y-148042380D01*
X114172952Y-148185238D01*
X114077714Y-148280476D01*
X113982476Y-148328095D01*
X98909142Y-138342666D02*
X98956761Y-138390285D01*
X99004380Y-138533142D01*
X99004380Y-138628380D01*
X98956761Y-138771238D01*
X98861523Y-138866476D01*
X98766285Y-138914095D01*
X98575809Y-138961714D01*
X98432952Y-138961714D01*
X98242476Y-138914095D01*
X98147238Y-138866476D01*
X98052000Y-138771238D01*
X98004380Y-138628380D01*
X98004380Y-138533142D01*
X98052000Y-138390285D01*
X98099619Y-138342666D01*
X99004380Y-137390285D02*
X99004380Y-137961714D01*
X99004380Y-137676000D02*
X98004380Y-137676000D01*
X98147238Y-137771238D01*
X98242476Y-137866476D01*
X98290095Y-137961714D01*
X103973333Y-128119142D02*
X103925714Y-128166761D01*
X103782857Y-128214380D01*
X103687619Y-128214380D01*
X103544761Y-128166761D01*
X103449523Y-128071523D01*
X103401904Y-127976285D01*
X103354285Y-127785809D01*
X103354285Y-127642952D01*
X103401904Y-127452476D01*
X103449523Y-127357238D01*
X103544761Y-127262000D01*
X103687619Y-127214380D01*
X103782857Y-127214380D01*
X103925714Y-127262000D01*
X103973333Y-127309619D01*
X104306666Y-127214380D02*
X104925714Y-127214380D01*
X104592380Y-127595333D01*
X104735238Y-127595333D01*
X104830476Y-127642952D01*
X104878095Y-127690571D01*
X104925714Y-127785809D01*
X104925714Y-128023904D01*
X104878095Y-128119142D01*
X104830476Y-128166761D01*
X104735238Y-128214380D01*
X104449523Y-128214380D01*
X104354285Y-128166761D01*
X104306666Y-128119142D01*
X108799333Y-144375142D02*
X108751714Y-144422761D01*
X108608857Y-144470380D01*
X108513619Y-144470380D01*
X108370761Y-144422761D01*
X108275523Y-144327523D01*
X108227904Y-144232285D01*
X108180285Y-144041809D01*
X108180285Y-143898952D01*
X108227904Y-143708476D01*
X108275523Y-143613238D01*
X108370761Y-143518000D01*
X108513619Y-143470380D01*
X108608857Y-143470380D01*
X108751714Y-143518000D01*
X108799333Y-143565619D01*
X109656476Y-143803714D02*
X109656476Y-144470380D01*
X109418380Y-143422761D02*
X109180285Y-144137047D01*
X109799333Y-144137047D01*
X98131333Y-142089142D02*
X98083714Y-142136761D01*
X97940857Y-142184380D01*
X97845619Y-142184380D01*
X97702761Y-142136761D01*
X97607523Y-142041523D01*
X97559904Y-141946285D01*
X97512285Y-141755809D01*
X97512285Y-141612952D01*
X97559904Y-141422476D01*
X97607523Y-141327238D01*
X97702761Y-141232000D01*
X97845619Y-141184380D01*
X97940857Y-141184380D01*
X98083714Y-141232000D01*
X98131333Y-141279619D01*
X99036095Y-141184380D02*
X98559904Y-141184380D01*
X98512285Y-141660571D01*
X98559904Y-141612952D01*
X98655142Y-141565333D01*
X98893238Y-141565333D01*
X98988476Y-141612952D01*
X99036095Y-141660571D01*
X99083714Y-141755809D01*
X99083714Y-141993904D01*
X99036095Y-142089142D01*
X98988476Y-142136761D01*
X98893238Y-142184380D01*
X98655142Y-142184380D01*
X98559904Y-142136761D01*
X98512285Y-142089142D01*
X119991142Y-149264666D02*
X120038761Y-149312285D01*
X120086380Y-149455142D01*
X120086380Y-149550380D01*
X120038761Y-149693238D01*
X119943523Y-149788476D01*
X119848285Y-149836095D01*
X119657809Y-149883714D01*
X119514952Y-149883714D01*
X119324476Y-149836095D01*
X119229238Y-149788476D01*
X119134000Y-149693238D01*
X119086380Y-149550380D01*
X119086380Y-149455142D01*
X119134000Y-149312285D01*
X119181619Y-149264666D01*
X119086380Y-148407523D02*
X119086380Y-148598000D01*
X119134000Y-148693238D01*
X119181619Y-148740857D01*
X119324476Y-148836095D01*
X119514952Y-148883714D01*
X119895904Y-148883714D01*
X119991142Y-148836095D01*
X120038761Y-148788476D01*
X120086380Y-148693238D01*
X120086380Y-148502761D01*
X120038761Y-148407523D01*
X119991142Y-148359904D01*
X119895904Y-148312285D01*
X119657809Y-148312285D01*
X119562571Y-148359904D01*
X119514952Y-148407523D01*
X119467333Y-148502761D01*
X119467333Y-148693238D01*
X119514952Y-148788476D01*
X119562571Y-148836095D01*
X119657809Y-148883714D01*
X126595142Y-133770666D02*
X126642761Y-133818285D01*
X126690380Y-133961142D01*
X126690380Y-134056380D01*
X126642761Y-134199238D01*
X126547523Y-134294476D01*
X126452285Y-134342095D01*
X126261809Y-134389714D01*
X126118952Y-134389714D01*
X125928476Y-134342095D01*
X125833238Y-134294476D01*
X125738000Y-134199238D01*
X125690380Y-134056380D01*
X125690380Y-133961142D01*
X125738000Y-133818285D01*
X125785619Y-133770666D01*
X126118952Y-133199238D02*
X126071333Y-133294476D01*
X126023714Y-133342095D01*
X125928476Y-133389714D01*
X125880857Y-133389714D01*
X125785619Y-133342095D01*
X125738000Y-133294476D01*
X125690380Y-133199238D01*
X125690380Y-133008761D01*
X125738000Y-132913523D01*
X125785619Y-132865904D01*
X125880857Y-132818285D01*
X125928476Y-132818285D01*
X126023714Y-132865904D01*
X126071333Y-132913523D01*
X126118952Y-133008761D01*
X126118952Y-133199238D01*
X126166571Y-133294476D01*
X126214190Y-133342095D01*
X126309428Y-133389714D01*
X126499904Y-133389714D01*
X126595142Y-133342095D01*
X126642761Y-133294476D01*
X126690380Y-133199238D01*
X126690380Y-133008761D01*
X126642761Y-132913523D01*
X126595142Y-132865904D01*
X126499904Y-132818285D01*
X126309428Y-132818285D01*
X126214190Y-132865904D01*
X126166571Y-132913523D01*
X126118952Y-133008761D01*
X99003142Y-130722666D02*
X99050761Y-130770285D01*
X99098380Y-130913142D01*
X99098380Y-131008380D01*
X99050761Y-131151238D01*
X98955523Y-131246476D01*
X98860285Y-131294095D01*
X98669809Y-131341714D01*
X98526952Y-131341714D01*
X98336476Y-131294095D01*
X98241238Y-131246476D01*
X98146000Y-131151238D01*
X98098380Y-131008380D01*
X98098380Y-130913142D01*
X98146000Y-130770285D01*
X98193619Y-130722666D01*
X99098380Y-130246476D02*
X99098380Y-130056000D01*
X99050761Y-129960761D01*
X99003142Y-129913142D01*
X98860285Y-129817904D01*
X98669809Y-129770285D01*
X98288857Y-129770285D01*
X98193619Y-129817904D01*
X98146000Y-129865523D01*
X98098380Y-129960761D01*
X98098380Y-130151238D01*
X98146000Y-130246476D01*
X98193619Y-130294095D01*
X98288857Y-130341714D01*
X98526952Y-130341714D01*
X98622190Y-130294095D01*
X98669809Y-130246476D01*
X98717428Y-130151238D01*
X98717428Y-129960761D01*
X98669809Y-129865523D01*
X98622190Y-129817904D01*
X98526952Y-129770285D01*
X119991142Y-145676857D02*
X120038761Y-145724476D01*
X120086380Y-145867333D01*
X120086380Y-145962571D01*
X120038761Y-146105428D01*
X119943523Y-146200666D01*
X119848285Y-146248285D01*
X119657809Y-146295904D01*
X119514952Y-146295904D01*
X119324476Y-146248285D01*
X119229238Y-146200666D01*
X119134000Y-146105428D01*
X119086380Y-145962571D01*
X119086380Y-145867333D01*
X119134000Y-145724476D01*
X119181619Y-145676857D01*
X120086380Y-144724476D02*
X120086380Y-145295904D01*
X120086380Y-145010190D02*
X119086380Y-145010190D01*
X119229238Y-145105428D01*
X119324476Y-145200666D01*
X119372095Y-145295904D01*
X119086380Y-144105428D02*
X119086380Y-144010190D01*
X119134000Y-143914952D01*
X119181619Y-143867333D01*
X119276857Y-143819714D01*
X119467333Y-143772095D01*
X119705428Y-143772095D01*
X119895904Y-143819714D01*
X119991142Y-143867333D01*
X120038761Y-143914952D01*
X120086380Y-144010190D01*
X120086380Y-144105428D01*
X120038761Y-144200666D01*
X119991142Y-144248285D01*
X119895904Y-144295904D01*
X119705428Y-144343523D01*
X119467333Y-144343523D01*
X119276857Y-144295904D01*
X119181619Y-144248285D01*
X119134000Y-144200666D01*
X119086380Y-144105428D01*
X119991142Y-141866857D02*
X120038761Y-141914476D01*
X120086380Y-142057333D01*
X120086380Y-142152571D01*
X120038761Y-142295428D01*
X119943523Y-142390666D01*
X119848285Y-142438285D01*
X119657809Y-142485904D01*
X119514952Y-142485904D01*
X119324476Y-142438285D01*
X119229238Y-142390666D01*
X119134000Y-142295428D01*
X119086380Y-142152571D01*
X119086380Y-142057333D01*
X119134000Y-141914476D01*
X119181619Y-141866857D01*
X120086380Y-140914476D02*
X120086380Y-141485904D01*
X120086380Y-141200190D02*
X119086380Y-141200190D01*
X119229238Y-141295428D01*
X119324476Y-141390666D01*
X119372095Y-141485904D01*
X120086380Y-139962095D02*
X120086380Y-140533523D01*
X120086380Y-140247809D02*
X119086380Y-140247809D01*
X119229238Y-140343047D01*
X119324476Y-140438285D01*
X119372095Y-140533523D01*
X127263142Y-124594857D02*
X127310761Y-124642476D01*
X127358380Y-124785333D01*
X127358380Y-124880571D01*
X127310761Y-125023428D01*
X127215523Y-125118666D01*
X127120285Y-125166285D01*
X126929809Y-125213904D01*
X126786952Y-125213904D01*
X126596476Y-125166285D01*
X126501238Y-125118666D01*
X126406000Y-125023428D01*
X126358380Y-124880571D01*
X126358380Y-124785333D01*
X126406000Y-124642476D01*
X126453619Y-124594857D01*
X127358380Y-123642476D02*
X127358380Y-124213904D01*
X127358380Y-123928190D02*
X126358380Y-123928190D01*
X126501238Y-124023428D01*
X126596476Y-124118666D01*
X126644095Y-124213904D01*
X126786952Y-123071047D02*
X126739333Y-123166285D01*
X126691714Y-123213904D01*
X126596476Y-123261523D01*
X126548857Y-123261523D01*
X126453619Y-123213904D01*
X126406000Y-123166285D01*
X126358380Y-123071047D01*
X126358380Y-122880571D01*
X126406000Y-122785333D01*
X126453619Y-122737714D01*
X126548857Y-122690095D01*
X126596476Y-122690095D01*
X126691714Y-122737714D01*
X126739333Y-122785333D01*
X126786952Y-122880571D01*
X126786952Y-123071047D01*
X126834571Y-123166285D01*
X126882190Y-123213904D01*
X126977428Y-123261523D01*
X127167904Y-123261523D01*
X127263142Y-123213904D01*
X127310761Y-123166285D01*
X127358380Y-123071047D01*
X127358380Y-122880571D01*
X127310761Y-122785333D01*
X127263142Y-122737714D01*
X127167904Y-122690095D01*
X126977428Y-122690095D01*
X126882190Y-122737714D01*
X126834571Y-122785333D01*
X126786952Y-122880571D01*
X118483142Y-115071142D02*
X118435523Y-115118761D01*
X118292666Y-115166380D01*
X118197428Y-115166380D01*
X118054571Y-115118761D01*
X117959333Y-115023523D01*
X117911714Y-114928285D01*
X117864095Y-114737809D01*
X117864095Y-114594952D01*
X117911714Y-114404476D01*
X117959333Y-114309238D01*
X118054571Y-114214000D01*
X118197428Y-114166380D01*
X118292666Y-114166380D01*
X118435523Y-114214000D01*
X118483142Y-114261619D01*
X119435523Y-115166380D02*
X118864095Y-115166380D01*
X119149809Y-115166380D02*
X119149809Y-114166380D01*
X119054571Y-114309238D01*
X118959333Y-114404476D01*
X118864095Y-114452095D01*
X119911714Y-115166380D02*
X120102190Y-115166380D01*
X120197428Y-115118761D01*
X120245047Y-115071142D01*
X120340285Y-114928285D01*
X120387904Y-114737809D01*
X120387904Y-114356857D01*
X120340285Y-114261619D01*
X120292666Y-114214000D01*
X120197428Y-114166380D01*
X120006952Y-114166380D01*
X119911714Y-114214000D01*
X119864095Y-114261619D01*
X119816476Y-114356857D01*
X119816476Y-114594952D01*
X119864095Y-114690190D01*
X119911714Y-114737809D01*
X120006952Y-114785428D01*
X120197428Y-114785428D01*
X120292666Y-114737809D01*
X120340285Y-114690190D01*
X120387904Y-114594952D01*
X119991142Y-134246857D02*
X120038761Y-134294476D01*
X120086380Y-134437333D01*
X120086380Y-134532571D01*
X120038761Y-134675428D01*
X119943523Y-134770666D01*
X119848285Y-134818285D01*
X119657809Y-134865904D01*
X119514952Y-134865904D01*
X119324476Y-134818285D01*
X119229238Y-134770666D01*
X119134000Y-134675428D01*
X119086380Y-134532571D01*
X119086380Y-134437333D01*
X119134000Y-134294476D01*
X119181619Y-134246857D01*
X120086380Y-133294476D02*
X120086380Y-133865904D01*
X120086380Y-133580190D02*
X119086380Y-133580190D01*
X119229238Y-133675428D01*
X119324476Y-133770666D01*
X119372095Y-133865904D01*
X119181619Y-132913523D02*
X119134000Y-132865904D01*
X119086380Y-132770666D01*
X119086380Y-132532571D01*
X119134000Y-132437333D01*
X119181619Y-132389714D01*
X119276857Y-132342095D01*
X119372095Y-132342095D01*
X119514952Y-132389714D01*
X120086380Y-132961142D01*
X120086380Y-132342095D01*
X119991142Y-138056857D02*
X120038761Y-138104476D01*
X120086380Y-138247333D01*
X120086380Y-138342571D01*
X120038761Y-138485428D01*
X119943523Y-138580666D01*
X119848285Y-138628285D01*
X119657809Y-138675904D01*
X119514952Y-138675904D01*
X119324476Y-138628285D01*
X119229238Y-138580666D01*
X119134000Y-138485428D01*
X119086380Y-138342571D01*
X119086380Y-138247333D01*
X119134000Y-138104476D01*
X119181619Y-138056857D01*
X120086380Y-137104476D02*
X120086380Y-137675904D01*
X120086380Y-137390190D02*
X119086380Y-137390190D01*
X119229238Y-137485428D01*
X119324476Y-137580666D01*
X119372095Y-137675904D01*
X119086380Y-136771142D02*
X119086380Y-136152095D01*
X119467333Y-136485428D01*
X119467333Y-136342571D01*
X119514952Y-136247333D01*
X119562571Y-136199714D01*
X119657809Y-136152095D01*
X119895904Y-136152095D01*
X119991142Y-136199714D01*
X120038761Y-136247333D01*
X120086380Y-136342571D01*
X120086380Y-136628285D01*
X120038761Y-136723523D01*
X119991142Y-136771142D01*
X95955142Y-93378357D02*
X96002761Y-93425976D01*
X96050380Y-93568833D01*
X96050380Y-93664071D01*
X96002761Y-93806928D01*
X95907523Y-93902166D01*
X95812285Y-93949785D01*
X95621809Y-93997404D01*
X95478952Y-93997404D01*
X95288476Y-93949785D01*
X95193238Y-93902166D01*
X95098000Y-93806928D01*
X95050380Y-93664071D01*
X95050380Y-93568833D01*
X95098000Y-93425976D01*
X95145619Y-93378357D01*
X96050380Y-92425976D02*
X96050380Y-92997404D01*
X96050380Y-92711690D02*
X95050380Y-92711690D01*
X95193238Y-92806928D01*
X95288476Y-92902166D01*
X95336095Y-92997404D01*
X95383714Y-91568833D02*
X96050380Y-91568833D01*
X95002761Y-91806928D02*
X95717047Y-92045023D01*
X95717047Y-91425976D01*
X103989142Y-93378357D02*
X104036761Y-93425976D01*
X104084380Y-93568833D01*
X104084380Y-93664071D01*
X104036761Y-93806928D01*
X103941523Y-93902166D01*
X103846285Y-93949785D01*
X103655809Y-93997404D01*
X103512952Y-93997404D01*
X103322476Y-93949785D01*
X103227238Y-93902166D01*
X103132000Y-93806928D01*
X103084380Y-93664071D01*
X103084380Y-93568833D01*
X103132000Y-93425976D01*
X103179619Y-93378357D01*
X104084380Y-92425976D02*
X104084380Y-92997404D01*
X104084380Y-92711690D02*
X103084380Y-92711690D01*
X103227238Y-92806928D01*
X103322476Y-92902166D01*
X103370095Y-92997404D01*
X103084380Y-91521214D02*
X103084380Y-91997404D01*
X103560571Y-92045023D01*
X103512952Y-91997404D01*
X103465333Y-91902166D01*
X103465333Y-91664071D01*
X103512952Y-91568833D01*
X103560571Y-91521214D01*
X103655809Y-91473595D01*
X103893904Y-91473595D01*
X103989142Y-91521214D01*
X104036761Y-91568833D01*
X104084380Y-91664071D01*
X104084380Y-91902166D01*
X104036761Y-91997404D01*
X103989142Y-92045023D01*
X100433142Y-93378357D02*
X100480761Y-93425976D01*
X100528380Y-93568833D01*
X100528380Y-93664071D01*
X100480761Y-93806928D01*
X100385523Y-93902166D01*
X100290285Y-93949785D01*
X100099809Y-93997404D01*
X99956952Y-93997404D01*
X99766476Y-93949785D01*
X99671238Y-93902166D01*
X99576000Y-93806928D01*
X99528380Y-93664071D01*
X99528380Y-93568833D01*
X99576000Y-93425976D01*
X99623619Y-93378357D01*
X100528380Y-92425976D02*
X100528380Y-92997404D01*
X100528380Y-92711690D02*
X99528380Y-92711690D01*
X99671238Y-92806928D01*
X99766476Y-92902166D01*
X99814095Y-92997404D01*
X99528380Y-91568833D02*
X99528380Y-91759309D01*
X99576000Y-91854547D01*
X99623619Y-91902166D01*
X99766476Y-91997404D01*
X99956952Y-92045023D01*
X100337904Y-92045023D01*
X100433142Y-91997404D01*
X100480761Y-91949785D01*
X100528380Y-91854547D01*
X100528380Y-91664071D01*
X100480761Y-91568833D01*
X100433142Y-91521214D01*
X100337904Y-91473595D01*
X100099809Y-91473595D01*
X100004571Y-91521214D01*
X99956952Y-91568833D01*
X99909333Y-91664071D01*
X99909333Y-91854547D01*
X99956952Y-91949785D01*
X100004571Y-91997404D01*
X100099809Y-92045023D01*
X114657142Y-93378357D02*
X114704761Y-93425976D01*
X114752380Y-93568833D01*
X114752380Y-93664071D01*
X114704761Y-93806928D01*
X114609523Y-93902166D01*
X114514285Y-93949785D01*
X114323809Y-93997404D01*
X114180952Y-93997404D01*
X113990476Y-93949785D01*
X113895238Y-93902166D01*
X113800000Y-93806928D01*
X113752380Y-93664071D01*
X113752380Y-93568833D01*
X113800000Y-93425976D01*
X113847619Y-93378357D01*
X114752380Y-92425976D02*
X114752380Y-92997404D01*
X114752380Y-92711690D02*
X113752380Y-92711690D01*
X113895238Y-92806928D01*
X113990476Y-92902166D01*
X114038095Y-92997404D01*
X113752380Y-92092642D02*
X113752380Y-91425976D01*
X114752380Y-91854547D01*
X95369142Y-125833142D02*
X95321523Y-125880761D01*
X95178666Y-125928380D01*
X95083428Y-125928380D01*
X94940571Y-125880761D01*
X94845333Y-125785523D01*
X94797714Y-125690285D01*
X94750095Y-125499809D01*
X94750095Y-125356952D01*
X94797714Y-125166476D01*
X94845333Y-125071238D01*
X94940571Y-124976000D01*
X95083428Y-124928380D01*
X95178666Y-124928380D01*
X95321523Y-124976000D01*
X95369142Y-125023619D01*
X95750095Y-125023619D02*
X95797714Y-124976000D01*
X95892952Y-124928380D01*
X96131047Y-124928380D01*
X96226285Y-124976000D01*
X96273904Y-125023619D01*
X96321523Y-125118857D01*
X96321523Y-125214095D01*
X96273904Y-125356952D01*
X95702476Y-125928380D01*
X96321523Y-125928380D01*
X96940571Y-124928380D02*
X97035809Y-124928380D01*
X97131047Y-124976000D01*
X97178666Y-125023619D01*
X97226285Y-125118857D01*
X97273904Y-125309333D01*
X97273904Y-125547428D01*
X97226285Y-125737904D01*
X97178666Y-125833142D01*
X97131047Y-125880761D01*
X97035809Y-125928380D01*
X96940571Y-125928380D01*
X96845333Y-125880761D01*
X96797714Y-125833142D01*
X96750095Y-125737904D01*
X96702476Y-125547428D01*
X96702476Y-125309333D01*
X96750095Y-125118857D01*
X96797714Y-125023619D01*
X96845333Y-124976000D01*
X96940571Y-124928380D01*
X114927142Y-96623142D02*
X114879523Y-96670761D01*
X114736666Y-96718380D01*
X114641428Y-96718380D01*
X114498571Y-96670761D01*
X114403333Y-96575523D01*
X114355714Y-96480285D01*
X114308095Y-96289809D01*
X114308095Y-96146952D01*
X114355714Y-95956476D01*
X114403333Y-95861238D01*
X114498571Y-95766000D01*
X114641428Y-95718380D01*
X114736666Y-95718380D01*
X114879523Y-95766000D01*
X114927142Y-95813619D01*
X115308095Y-95813619D02*
X115355714Y-95766000D01*
X115450952Y-95718380D01*
X115689047Y-95718380D01*
X115784285Y-95766000D01*
X115831904Y-95813619D01*
X115879523Y-95908857D01*
X115879523Y-96004095D01*
X115831904Y-96146952D01*
X115260476Y-96718380D01*
X115879523Y-96718380D01*
X116831904Y-96718380D02*
X116260476Y-96718380D01*
X116546190Y-96718380D02*
X116546190Y-95718380D01*
X116450952Y-95861238D01*
X116355714Y-95956476D01*
X116260476Y-96004095D01*
X95369142Y-123039142D02*
X95321523Y-123086761D01*
X95178666Y-123134380D01*
X95083428Y-123134380D01*
X94940571Y-123086761D01*
X94845333Y-122991523D01*
X94797714Y-122896285D01*
X94750095Y-122705809D01*
X94750095Y-122562952D01*
X94797714Y-122372476D01*
X94845333Y-122277238D01*
X94940571Y-122182000D01*
X95083428Y-122134380D01*
X95178666Y-122134380D01*
X95321523Y-122182000D01*
X95369142Y-122229619D01*
X95750095Y-122229619D02*
X95797714Y-122182000D01*
X95892952Y-122134380D01*
X96131047Y-122134380D01*
X96226285Y-122182000D01*
X96273904Y-122229619D01*
X96321523Y-122324857D01*
X96321523Y-122420095D01*
X96273904Y-122562952D01*
X95702476Y-123134380D01*
X96321523Y-123134380D01*
X96702476Y-122229619D02*
X96750095Y-122182000D01*
X96845333Y-122134380D01*
X97083428Y-122134380D01*
X97178666Y-122182000D01*
X97226285Y-122229619D01*
X97273904Y-122324857D01*
X97273904Y-122420095D01*
X97226285Y-122562952D01*
X96654857Y-123134380D01*
X97273904Y-123134380D01*
X114927142Y-98909142D02*
X114879523Y-98956761D01*
X114736666Y-99004380D01*
X114641428Y-99004380D01*
X114498571Y-98956761D01*
X114403333Y-98861523D01*
X114355714Y-98766285D01*
X114308095Y-98575809D01*
X114308095Y-98432952D01*
X114355714Y-98242476D01*
X114403333Y-98147238D01*
X114498571Y-98052000D01*
X114641428Y-98004380D01*
X114736666Y-98004380D01*
X114879523Y-98052000D01*
X114927142Y-98099619D01*
X115308095Y-98099619D02*
X115355714Y-98052000D01*
X115450952Y-98004380D01*
X115689047Y-98004380D01*
X115784285Y-98052000D01*
X115831904Y-98099619D01*
X115879523Y-98194857D01*
X115879523Y-98290095D01*
X115831904Y-98432952D01*
X115260476Y-99004380D01*
X115879523Y-99004380D01*
X116212857Y-98004380D02*
X116831904Y-98004380D01*
X116498571Y-98385333D01*
X116641428Y-98385333D01*
X116736666Y-98432952D01*
X116784285Y-98480571D01*
X116831904Y-98575809D01*
X116831904Y-98813904D01*
X116784285Y-98909142D01*
X116736666Y-98956761D01*
X116641428Y-99004380D01*
X116355714Y-99004380D01*
X116260476Y-98956761D01*
X116212857Y-98909142D01*
X102465142Y-106560857D02*
X102512761Y-106608476D01*
X102560380Y-106751333D01*
X102560380Y-106846571D01*
X102512761Y-106989428D01*
X102417523Y-107084666D01*
X102322285Y-107132285D01*
X102131809Y-107179904D01*
X101988952Y-107179904D01*
X101798476Y-107132285D01*
X101703238Y-107084666D01*
X101608000Y-106989428D01*
X101560380Y-106846571D01*
X101560380Y-106751333D01*
X101608000Y-106608476D01*
X101655619Y-106560857D01*
X101655619Y-106179904D02*
X101608000Y-106132285D01*
X101560380Y-106037047D01*
X101560380Y-105798952D01*
X101608000Y-105703714D01*
X101655619Y-105656095D01*
X101750857Y-105608476D01*
X101846095Y-105608476D01*
X101988952Y-105656095D01*
X102560380Y-106227523D01*
X102560380Y-105608476D01*
X101560380Y-104703714D02*
X101560380Y-105179904D01*
X102036571Y-105227523D01*
X101988952Y-105179904D01*
X101941333Y-105084666D01*
X101941333Y-104846571D01*
X101988952Y-104751333D01*
X102036571Y-104703714D01*
X102131809Y-104656095D01*
X102369904Y-104656095D01*
X102465142Y-104703714D01*
X102512761Y-104751333D01*
X102560380Y-104846571D01*
X102560380Y-105084666D01*
X102512761Y-105179904D01*
X102465142Y-105227523D01*
X116943142Y-104071857D02*
X116990761Y-104119476D01*
X117038380Y-104262333D01*
X117038380Y-104357571D01*
X116990761Y-104500428D01*
X116895523Y-104595666D01*
X116800285Y-104643285D01*
X116609809Y-104690904D01*
X116466952Y-104690904D01*
X116276476Y-104643285D01*
X116181238Y-104595666D01*
X116086000Y-104500428D01*
X116038380Y-104357571D01*
X116038380Y-104262333D01*
X116086000Y-104119476D01*
X116133619Y-104071857D01*
X116133619Y-103690904D02*
X116086000Y-103643285D01*
X116038380Y-103548047D01*
X116038380Y-103309952D01*
X116086000Y-103214714D01*
X116133619Y-103167095D01*
X116228857Y-103119476D01*
X116324095Y-103119476D01*
X116466952Y-103167095D01*
X117038380Y-103738523D01*
X117038380Y-103119476D01*
X116371714Y-102262333D02*
X117038380Y-102262333D01*
X115990761Y-102500428D02*
X116705047Y-102738523D01*
X116705047Y-102119476D01*
X98147142Y-106560857D02*
X98194761Y-106608476D01*
X98242380Y-106751333D01*
X98242380Y-106846571D01*
X98194761Y-106989428D01*
X98099523Y-107084666D01*
X98004285Y-107132285D01*
X97813809Y-107179904D01*
X97670952Y-107179904D01*
X97480476Y-107132285D01*
X97385238Y-107084666D01*
X97290000Y-106989428D01*
X97242380Y-106846571D01*
X97242380Y-106751333D01*
X97290000Y-106608476D01*
X97337619Y-106560857D01*
X97337619Y-106179904D02*
X97290000Y-106132285D01*
X97242380Y-106037047D01*
X97242380Y-105798952D01*
X97290000Y-105703714D01*
X97337619Y-105656095D01*
X97432857Y-105608476D01*
X97528095Y-105608476D01*
X97670952Y-105656095D01*
X98242380Y-106227523D01*
X98242380Y-105608476D01*
X97242380Y-104751333D02*
X97242380Y-104941809D01*
X97290000Y-105037047D01*
X97337619Y-105084666D01*
X97480476Y-105179904D01*
X97670952Y-105227523D01*
X98051904Y-105227523D01*
X98147142Y-105179904D01*
X98194761Y-105132285D01*
X98242380Y-105037047D01*
X98242380Y-104846571D01*
X98194761Y-104751333D01*
X98147142Y-104703714D01*
X98051904Y-104656095D01*
X97813809Y-104656095D01*
X97718571Y-104703714D01*
X97670952Y-104751333D01*
X97623333Y-104846571D01*
X97623333Y-105037047D01*
X97670952Y-105132285D01*
X97718571Y-105179904D01*
X97813809Y-105227523D01*
X98671142Y-115165142D02*
X98623523Y-115212761D01*
X98480666Y-115260380D01*
X98385428Y-115260380D01*
X98242571Y-115212761D01*
X98147333Y-115117523D01*
X98099714Y-115022285D01*
X98052095Y-114831809D01*
X98052095Y-114688952D01*
X98099714Y-114498476D01*
X98147333Y-114403238D01*
X98242571Y-114308000D01*
X98385428Y-114260380D01*
X98480666Y-114260380D01*
X98623523Y-114308000D01*
X98671142Y-114355619D01*
X99052095Y-114355619D02*
X99099714Y-114308000D01*
X99194952Y-114260380D01*
X99433047Y-114260380D01*
X99528285Y-114308000D01*
X99575904Y-114355619D01*
X99623523Y-114450857D01*
X99623523Y-114546095D01*
X99575904Y-114688952D01*
X99004476Y-115260380D01*
X99623523Y-115260380D01*
X99956857Y-114260380D02*
X100623523Y-114260380D01*
X100194952Y-115260380D01*
X109053333Y-148026380D02*
X108720000Y-147550190D01*
X108481904Y-148026380D02*
X108481904Y-147026380D01*
X108862857Y-147026380D01*
X108958095Y-147074000D01*
X109005714Y-147121619D01*
X109053333Y-147216857D01*
X109053333Y-147359714D01*
X109005714Y-147454952D01*
X108958095Y-147502571D01*
X108862857Y-147550190D01*
X108481904Y-147550190D01*
X110005714Y-148026380D02*
X109434285Y-148026380D01*
X109720000Y-148026380D02*
X109720000Y-147026380D01*
X109624761Y-147169238D01*
X109529523Y-147264476D01*
X109434285Y-147312095D01*
X110434380Y-150026666D02*
X109958190Y-150360000D01*
X110434380Y-150598095D02*
X109434380Y-150598095D01*
X109434380Y-150217142D01*
X109482000Y-150121904D01*
X109529619Y-150074285D01*
X109624857Y-150026666D01*
X109767714Y-150026666D01*
X109862952Y-150074285D01*
X109910571Y-150121904D01*
X109958190Y-150217142D01*
X109958190Y-150598095D01*
X109529619Y-149645714D02*
X109482000Y-149598095D01*
X109434380Y-149502857D01*
X109434380Y-149264761D01*
X109482000Y-149169523D01*
X109529619Y-149121904D01*
X109624857Y-149074285D01*
X109720095Y-149074285D01*
X109862952Y-149121904D01*
X110434380Y-149693333D01*
X110434380Y-149074285D01*
X117181333Y-128976380D02*
X116848000Y-128500190D01*
X116609904Y-128976380D02*
X116609904Y-127976380D01*
X116990857Y-127976380D01*
X117086095Y-128024000D01*
X117133714Y-128071619D01*
X117181333Y-128166857D01*
X117181333Y-128309714D01*
X117133714Y-128404952D01*
X117086095Y-128452571D01*
X116990857Y-128500190D01*
X116609904Y-128500190D01*
X117514666Y-127976380D02*
X118133714Y-127976380D01*
X117800380Y-128357333D01*
X117943238Y-128357333D01*
X118038476Y-128404952D01*
X118086095Y-128452571D01*
X118133714Y-128547809D01*
X118133714Y-128785904D01*
X118086095Y-128881142D01*
X118038476Y-128928761D01*
X117943238Y-128976380D01*
X117657523Y-128976380D01*
X117562285Y-128928761D01*
X117514666Y-128881142D01*
X101941333Y-142184380D02*
X101608000Y-141708190D01*
X101369904Y-142184380D02*
X101369904Y-141184380D01*
X101750857Y-141184380D01*
X101846095Y-141232000D01*
X101893714Y-141279619D01*
X101941333Y-141374857D01*
X101941333Y-141517714D01*
X101893714Y-141612952D01*
X101846095Y-141660571D01*
X101750857Y-141708190D01*
X101369904Y-141708190D01*
X102798476Y-141517714D02*
X102798476Y-142184380D01*
X102560380Y-141136761D02*
X102322285Y-141851047D01*
X102941333Y-141851047D01*
X115911333Y-150820380D02*
X115578000Y-150344190D01*
X115339904Y-150820380D02*
X115339904Y-149820380D01*
X115720857Y-149820380D01*
X115816095Y-149868000D01*
X115863714Y-149915619D01*
X115911333Y-150010857D01*
X115911333Y-150153714D01*
X115863714Y-150248952D01*
X115816095Y-150296571D01*
X115720857Y-150344190D01*
X115339904Y-150344190D01*
X116816095Y-149820380D02*
X116339904Y-149820380D01*
X116292285Y-150296571D01*
X116339904Y-150248952D01*
X116435142Y-150201333D01*
X116673238Y-150201333D01*
X116768476Y-150248952D01*
X116816095Y-150296571D01*
X116863714Y-150391809D01*
X116863714Y-150629904D01*
X116816095Y-150725142D01*
X116768476Y-150772761D01*
X116673238Y-150820380D01*
X116435142Y-150820380D01*
X116339904Y-150772761D01*
X116292285Y-150725142D01*
X113830380Y-127166666D02*
X113354190Y-127500000D01*
X113830380Y-127738095D02*
X112830380Y-127738095D01*
X112830380Y-127357142D01*
X112878000Y-127261904D01*
X112925619Y-127214285D01*
X113020857Y-127166666D01*
X113163714Y-127166666D01*
X113258952Y-127214285D01*
X113306571Y-127261904D01*
X113354190Y-127357142D01*
X113354190Y-127738095D01*
X112830380Y-126309523D02*
X112830380Y-126500000D01*
X112878000Y-126595238D01*
X112925619Y-126642857D01*
X113068476Y-126738095D01*
X113258952Y-126785714D01*
X113639904Y-126785714D01*
X113735142Y-126738095D01*
X113782761Y-126690476D01*
X113830380Y-126595238D01*
X113830380Y-126404761D01*
X113782761Y-126309523D01*
X113735142Y-126261904D01*
X113639904Y-126214285D01*
X113401809Y-126214285D01*
X113306571Y-126261904D01*
X113258952Y-126309523D01*
X113211333Y-126404761D01*
X113211333Y-126595238D01*
X113258952Y-126690476D01*
X113306571Y-126738095D01*
X113401809Y-126785714D01*
X87431619Y-121753333D02*
X87907809Y-121420000D01*
X87431619Y-121181904D02*
X88431619Y-121181904D01*
X88431619Y-121562857D01*
X88384000Y-121658095D01*
X88336380Y-121705714D01*
X88241142Y-121753333D01*
X88098285Y-121753333D01*
X88003047Y-121705714D01*
X87955428Y-121658095D01*
X87907809Y-121562857D01*
X87907809Y-121181904D01*
X88431619Y-122086666D02*
X88431619Y-122753333D01*
X87431619Y-122324761D01*
X89971619Y-121778833D02*
X90447809Y-121445500D01*
X89971619Y-121207404D02*
X90971619Y-121207404D01*
X90971619Y-121588357D01*
X90924000Y-121683595D01*
X90876380Y-121731214D01*
X90781142Y-121778833D01*
X90638285Y-121778833D01*
X90543047Y-121731214D01*
X90495428Y-121683595D01*
X90447809Y-121588357D01*
X90447809Y-121207404D01*
X90543047Y-122350261D02*
X90590666Y-122255023D01*
X90638285Y-122207404D01*
X90733523Y-122159785D01*
X90781142Y-122159785D01*
X90876380Y-122207404D01*
X90924000Y-122255023D01*
X90971619Y-122350261D01*
X90971619Y-122540738D01*
X90924000Y-122635976D01*
X90876380Y-122683595D01*
X90781142Y-122731214D01*
X90733523Y-122731214D01*
X90638285Y-122683595D01*
X90590666Y-122635976D01*
X90543047Y-122540738D01*
X90543047Y-122350261D01*
X90495428Y-122255023D01*
X90447809Y-122207404D01*
X90352571Y-122159785D01*
X90162095Y-122159785D01*
X90066857Y-122207404D01*
X90019238Y-122255023D01*
X89971619Y-122350261D01*
X89971619Y-122540738D01*
X90019238Y-122635976D01*
X90066857Y-122683595D01*
X90162095Y-122731214D01*
X90352571Y-122731214D01*
X90447809Y-122683595D01*
X90495428Y-122635976D01*
X90543047Y-122540738D01*
X122039142Y-129070380D02*
X121705809Y-128594190D01*
X121467714Y-129070380D02*
X121467714Y-128070380D01*
X121848666Y-128070380D01*
X121943904Y-128118000D01*
X121991523Y-128165619D01*
X122039142Y-128260857D01*
X122039142Y-128403714D01*
X121991523Y-128498952D01*
X121943904Y-128546571D01*
X121848666Y-128594190D01*
X121467714Y-128594190D01*
X122991523Y-129070380D02*
X122420095Y-129070380D01*
X122705809Y-129070380D02*
X122705809Y-128070380D01*
X122610571Y-128213238D01*
X122515333Y-128308476D01*
X122420095Y-128356095D01*
X123610571Y-128070380D02*
X123705809Y-128070380D01*
X123801047Y-128118000D01*
X123848666Y-128165619D01*
X123896285Y-128260857D01*
X123943904Y-128451333D01*
X123943904Y-128689428D01*
X123896285Y-128879904D01*
X123848666Y-128975142D01*
X123801047Y-129022761D01*
X123705809Y-129070380D01*
X123610571Y-129070380D01*
X123515333Y-129022761D01*
X123467714Y-128975142D01*
X123420095Y-128879904D01*
X123372476Y-128689428D01*
X123372476Y-128451333D01*
X123420095Y-128260857D01*
X123467714Y-128165619D01*
X123515333Y-128118000D01*
X123610571Y-128070380D01*
X120769142Y-117386380D02*
X120435809Y-116910190D01*
X120197714Y-117386380D02*
X120197714Y-116386380D01*
X120578666Y-116386380D01*
X120673904Y-116434000D01*
X120721523Y-116481619D01*
X120769142Y-116576857D01*
X120769142Y-116719714D01*
X120721523Y-116814952D01*
X120673904Y-116862571D01*
X120578666Y-116910190D01*
X120197714Y-116910190D01*
X121721523Y-117386380D02*
X121150095Y-117386380D01*
X121435809Y-117386380D02*
X121435809Y-116386380D01*
X121340571Y-116529238D01*
X121245333Y-116624476D01*
X121150095Y-116672095D01*
X122673904Y-117386380D02*
X122102476Y-117386380D01*
X122388190Y-117386380D02*
X122388190Y-116386380D01*
X122292952Y-116529238D01*
X122197714Y-116624476D01*
X122102476Y-116672095D01*
X124498380Y-119768857D02*
X124022190Y-120102190D01*
X124498380Y-120340285D02*
X123498380Y-120340285D01*
X123498380Y-119959333D01*
X123546000Y-119864095D01*
X123593619Y-119816476D01*
X123688857Y-119768857D01*
X123831714Y-119768857D01*
X123926952Y-119816476D01*
X123974571Y-119864095D01*
X124022190Y-119959333D01*
X124022190Y-120340285D01*
X124498380Y-118816476D02*
X124498380Y-119387904D01*
X124498380Y-119102190D02*
X123498380Y-119102190D01*
X123641238Y-119197428D01*
X123736476Y-119292666D01*
X123784095Y-119387904D01*
X123593619Y-118435523D02*
X123546000Y-118387904D01*
X123498380Y-118292666D01*
X123498380Y-118054571D01*
X123546000Y-117959333D01*
X123593619Y-117911714D01*
X123688857Y-117864095D01*
X123784095Y-117864095D01*
X123926952Y-117911714D01*
X124498380Y-118483142D01*
X124498380Y-117864095D01*
X95369142Y-120848380D02*
X95035809Y-120372190D01*
X94797714Y-120848380D02*
X94797714Y-119848380D01*
X95178666Y-119848380D01*
X95273904Y-119896000D01*
X95321523Y-119943619D01*
X95369142Y-120038857D01*
X95369142Y-120181714D01*
X95321523Y-120276952D01*
X95273904Y-120324571D01*
X95178666Y-120372190D01*
X94797714Y-120372190D01*
X96321523Y-120848380D02*
X95750095Y-120848380D01*
X96035809Y-120848380D02*
X96035809Y-119848380D01*
X95940571Y-119991238D01*
X95845333Y-120086476D01*
X95750095Y-120134095D01*
X96654857Y-119848380D02*
X97273904Y-119848380D01*
X96940571Y-120229333D01*
X97083428Y-120229333D01*
X97178666Y-120276952D01*
X97226285Y-120324571D01*
X97273904Y-120419809D01*
X97273904Y-120657904D01*
X97226285Y-120753142D01*
X97178666Y-120800761D01*
X97083428Y-120848380D01*
X96797714Y-120848380D01*
X96702476Y-120800761D01*
X96654857Y-120753142D01*
X114927142Y-101290380D02*
X114593809Y-100814190D01*
X114355714Y-101290380D02*
X114355714Y-100290380D01*
X114736666Y-100290380D01*
X114831904Y-100338000D01*
X114879523Y-100385619D01*
X114927142Y-100480857D01*
X114927142Y-100623714D01*
X114879523Y-100718952D01*
X114831904Y-100766571D01*
X114736666Y-100814190D01*
X114355714Y-100814190D01*
X115879523Y-101290380D02*
X115308095Y-101290380D01*
X115593809Y-101290380D02*
X115593809Y-100290380D01*
X115498571Y-100433238D01*
X115403333Y-100528476D01*
X115308095Y-100576095D01*
X116736666Y-100623714D02*
X116736666Y-101290380D01*
X116498571Y-100242761D02*
X116260476Y-100957047D01*
X116879523Y-100957047D01*
X113830380Y-123578857D02*
X113354190Y-123912190D01*
X113830380Y-124150285D02*
X112830380Y-124150285D01*
X112830380Y-123769333D01*
X112878000Y-123674095D01*
X112925619Y-123626476D01*
X113020857Y-123578857D01*
X113163714Y-123578857D01*
X113258952Y-123626476D01*
X113306571Y-123674095D01*
X113354190Y-123769333D01*
X113354190Y-124150285D01*
X113830380Y-122626476D02*
X113830380Y-123197904D01*
X113830380Y-122912190D02*
X112830380Y-122912190D01*
X112973238Y-123007428D01*
X113068476Y-123102666D01*
X113116095Y-123197904D01*
X112830380Y-121721714D02*
X112830380Y-122197904D01*
X113306571Y-122245523D01*
X113258952Y-122197904D01*
X113211333Y-122102666D01*
X113211333Y-121864571D01*
X113258952Y-121769333D01*
X113306571Y-121721714D01*
X113401809Y-121674095D01*
X113639904Y-121674095D01*
X113735142Y-121721714D01*
X113782761Y-121769333D01*
X113830380Y-121864571D01*
X113830380Y-122102666D01*
X113782761Y-122197904D01*
X113735142Y-122245523D01*
X110528380Y-123578857D02*
X110052190Y-123912190D01*
X110528380Y-124150285D02*
X109528380Y-124150285D01*
X109528380Y-123769333D01*
X109576000Y-123674095D01*
X109623619Y-123626476D01*
X109718857Y-123578857D01*
X109861714Y-123578857D01*
X109956952Y-123626476D01*
X110004571Y-123674095D01*
X110052190Y-123769333D01*
X110052190Y-124150285D01*
X110528380Y-122626476D02*
X110528380Y-123197904D01*
X110528380Y-122912190D02*
X109528380Y-122912190D01*
X109671238Y-123007428D01*
X109766476Y-123102666D01*
X109814095Y-123197904D01*
X109528380Y-121769333D02*
X109528380Y-121959809D01*
X109576000Y-122055047D01*
X109623619Y-122102666D01*
X109766476Y-122197904D01*
X109956952Y-122245523D01*
X110337904Y-122245523D01*
X110433142Y-122197904D01*
X110480761Y-122150285D01*
X110528380Y-122055047D01*
X110528380Y-121864571D01*
X110480761Y-121769333D01*
X110433142Y-121721714D01*
X110337904Y-121674095D01*
X110099809Y-121674095D01*
X110004571Y-121721714D01*
X109956952Y-121769333D01*
X109909333Y-121864571D01*
X109909333Y-122055047D01*
X109956952Y-122150285D01*
X110004571Y-122197904D01*
X110099809Y-122245523D01*
X141422380Y-128912857D02*
X140946190Y-129246190D01*
X141422380Y-129484285D02*
X140422380Y-129484285D01*
X140422380Y-129103333D01*
X140470000Y-129008095D01*
X140517619Y-128960476D01*
X140612857Y-128912857D01*
X140755714Y-128912857D01*
X140850952Y-128960476D01*
X140898571Y-129008095D01*
X140946190Y-129103333D01*
X140946190Y-129484285D01*
X141422380Y-127960476D02*
X141422380Y-128531904D01*
X141422380Y-128246190D02*
X140422380Y-128246190D01*
X140565238Y-128341428D01*
X140660476Y-128436666D01*
X140708095Y-128531904D01*
X140422380Y-127627142D02*
X140422380Y-126960476D01*
X141422380Y-127389047D01*
X139136380Y-128912857D02*
X138660190Y-129246190D01*
X139136380Y-129484285D02*
X138136380Y-129484285D01*
X138136380Y-129103333D01*
X138184000Y-129008095D01*
X138231619Y-128960476D01*
X138326857Y-128912857D01*
X138469714Y-128912857D01*
X138564952Y-128960476D01*
X138612571Y-129008095D01*
X138660190Y-129103333D01*
X138660190Y-129484285D01*
X139136380Y-127960476D02*
X139136380Y-128531904D01*
X139136380Y-128246190D02*
X138136380Y-128246190D01*
X138279238Y-128341428D01*
X138374476Y-128436666D01*
X138422095Y-128531904D01*
X138564952Y-127389047D02*
X138517333Y-127484285D01*
X138469714Y-127531904D01*
X138374476Y-127579523D01*
X138326857Y-127579523D01*
X138231619Y-127531904D01*
X138184000Y-127484285D01*
X138136380Y-127389047D01*
X138136380Y-127198571D01*
X138184000Y-127103333D01*
X138231619Y-127055714D01*
X138326857Y-127008095D01*
X138374476Y-127008095D01*
X138469714Y-127055714D01*
X138517333Y-127103333D01*
X138564952Y-127198571D01*
X138564952Y-127389047D01*
X138612571Y-127484285D01*
X138660190Y-127531904D01*
X138755428Y-127579523D01*
X138945904Y-127579523D01*
X139041142Y-127531904D01*
X139088761Y-127484285D01*
X139136380Y-127389047D01*
X139136380Y-127198571D01*
X139088761Y-127103333D01*
X139041142Y-127055714D01*
X138945904Y-127008095D01*
X138755428Y-127008095D01*
X138660190Y-127055714D01*
X138612571Y-127103333D01*
X138564952Y-127198571D01*
X136850380Y-128912857D02*
X136374190Y-129246190D01*
X136850380Y-129484285D02*
X135850380Y-129484285D01*
X135850380Y-129103333D01*
X135898000Y-129008095D01*
X135945619Y-128960476D01*
X136040857Y-128912857D01*
X136183714Y-128912857D01*
X136278952Y-128960476D01*
X136326571Y-129008095D01*
X136374190Y-129103333D01*
X136374190Y-129484285D01*
X136850380Y-127960476D02*
X136850380Y-128531904D01*
X136850380Y-128246190D02*
X135850380Y-128246190D01*
X135993238Y-128341428D01*
X136088476Y-128436666D01*
X136136095Y-128531904D01*
X136850380Y-127484285D02*
X136850380Y-127293809D01*
X136802761Y-127198571D01*
X136755142Y-127150952D01*
X136612285Y-127055714D01*
X136421809Y-127008095D01*
X136040857Y-127008095D01*
X135945619Y-127055714D01*
X135898000Y-127103333D01*
X135850380Y-127198571D01*
X135850380Y-127389047D01*
X135898000Y-127484285D01*
X135945619Y-127531904D01*
X136040857Y-127579523D01*
X136278952Y-127579523D01*
X136374190Y-127531904D01*
X136421809Y-127484285D01*
X136469428Y-127389047D01*
X136469428Y-127198571D01*
X136421809Y-127103333D01*
X136374190Y-127055714D01*
X136278952Y-127008095D01*
X92511619Y-121753333D02*
X92987809Y-121420000D01*
X92511619Y-121181904D02*
X93511619Y-121181904D01*
X93511619Y-121562857D01*
X93464000Y-121658095D01*
X93416380Y-121705714D01*
X93321142Y-121753333D01*
X93178285Y-121753333D01*
X93083047Y-121705714D01*
X93035428Y-121658095D01*
X92987809Y-121562857D01*
X92987809Y-121181904D01*
X92511619Y-122229523D02*
X92511619Y-122420000D01*
X92559238Y-122515238D01*
X92606857Y-122562857D01*
X92749714Y-122658095D01*
X92940190Y-122705714D01*
X93321142Y-122705714D01*
X93416380Y-122658095D01*
X93464000Y-122610476D01*
X93511619Y-122515238D01*
X93511619Y-122324761D01*
X93464000Y-122229523D01*
X93416380Y-122181904D01*
X93321142Y-122134285D01*
X93083047Y-122134285D01*
X92987809Y-122181904D01*
X92940190Y-122229523D01*
X92892571Y-122324761D01*
X92892571Y-122515238D01*
X92940190Y-122610476D01*
X92987809Y-122658095D01*
X93083047Y-122705714D01*
X77898666Y-139152380D02*
X77898666Y-139866666D01*
X77851047Y-140009523D01*
X77755809Y-140104761D01*
X77612952Y-140152380D01*
X77517714Y-140152380D01*
X78327238Y-139247619D02*
X78374857Y-139200000D01*
X78470095Y-139152380D01*
X78708190Y-139152380D01*
X78803428Y-139200000D01*
X78851047Y-139247619D01*
X78898666Y-139342857D01*
X78898666Y-139438095D01*
X78851047Y-139580952D01*
X78279619Y-140152380D01*
X78898666Y-140152380D01*
X146304095Y-134072380D02*
X146304095Y-134881904D01*
X146351714Y-134977142D01*
X146399333Y-135024761D01*
X146494571Y-135072380D01*
X146685047Y-135072380D01*
X146780285Y-135024761D01*
X146827904Y-134977142D01*
X146875523Y-134881904D01*
X146875523Y-134072380D01*
X147256476Y-134072380D02*
X147923142Y-134072380D01*
X147494571Y-135072380D01*
X96012095Y-150328380D02*
X96012095Y-151137904D01*
X96059714Y-151233142D01*
X96107333Y-151280761D01*
X96202571Y-151328380D01*
X96393047Y-151328380D01*
X96488285Y-151280761D01*
X96535904Y-151233142D01*
X96583523Y-151137904D01*
X96583523Y-150328380D01*
X97583523Y-151328380D02*
X97012095Y-151328380D01*
X97297809Y-151328380D02*
X97297809Y-150328380D01*
X97202571Y-150471238D01*
X97107333Y-150566476D01*
X97012095Y-150614095D01*
M02*
