M48
; DRILL file {KiCad (5.1.9-0-10_14)} date Wednesday, April 14, 2021 at 07:06:21 PM
; FORMAT={-:-/ absolute / inch / decimal}
; #@! TF.CreationDate,2021-04-14T19:06:21-04:00
; #@! TF.GenerationSoftware,Kicad,Pcbnew,(5.1.9-0-10_14)
; #@! TF.FileFunction,Plated,1,4,PTH
FMAT,2
INCH
T1C0.0100
T2C0.0150
T3C0.0200
T4C0.0362
T5C0.0394
T6C0.0433
T7C0.0469
T8C0.0472
T9C0.0917
T10C0.1201
%
G90
G05
T1
X3.61Y-4.88
X3.68Y-3.83
X3.68Y-3.88
X3.72Y-5.26
X3.74Y-4.74
X3.82Y-5.75
X3.83Y-4.46
X3.83Y-5.43
X3.83Y-5.46
X3.8766Y-4.1818
X3.9876Y-4.4576
X4.01Y-4.17
X4.02Y-4.81
X4.0301Y-4.221
X4.04Y-4.79
X4.09Y-5.6
X4.14Y-4.665
X4.14Y-4.69
X4.14Y-5.506
X4.17Y-5.2
X4.2055Y-5.2517
X4.21Y-5.53
X4.221Y-4.2
X4.23Y-4.98
X4.24Y-5.53
X4.253Y-4.413
X4.253Y-4.507
X4.26Y-4.17
X4.265Y-4.785
X4.27Y-5.53
X4.284Y-4.444
X4.284Y-4.475
X4.3Y-5.53
X4.316Y-4.444
X4.316Y-4.476
X4.33Y-4.9
X4.33Y-5.06
X4.347Y-4.413
X4.347Y-4.507
X4.3478Y-4.3498
X4.35Y-5.53
X4.36Y-4.21
X4.36Y-5.64
X4.3782Y-4.6017
X4.3793Y-4.3498
X4.3793Y-4.5702
X4.39Y-4.19
X4.39Y-5.06
X4.4102Y-4.4133
X4.4102Y-4.5393
X4.4102Y-4.3818
X4.4102Y-4.4448
X4.4102Y-4.4763
X4.43Y-4.77
X4.43Y-4.9
X4.4387Y-5.8787
X4.46Y-4.93
X4.46Y-5.07
X4.46Y-5.33
X4.46Y-5.37
X4.46Y-5.4
X4.47Y-5.25
X4.48Y-4.65
X4.53Y-4.13
X4.55Y-4.77
X4.59Y-4.98
X4.59Y-5.17
X4.59Y-5.36
X4.59Y-5.41
X4.6085Y-5.7825
X4.6124Y-4.4476
X4.65Y-5.63
X4.66Y-4.64
X4.67Y-5.34
X4.715Y-4.855
X4.771Y-4.4623
X4.82Y-4.83
X4.82Y-4.91
X4.869Y-4.911
X4.975Y-5.18
X5.03Y-4.64
X5.04Y-5.57
X5.27Y-3.88
X5.37Y-4.95
X5.46Y-4.95
X5.55Y-4.95
T2
X3.91Y-4.1
T3
X3.8194Y-3.95
X3.82Y-3.56
X3.91Y-3.6913
X4.07Y-3.62
X4.07Y-3.68
T4
X3.3766Y-5.636
X3.3766Y-5.7147
X3.475Y-5.636
X3.475Y-5.7147
T5
X3.05Y-3.55
X3.05Y-3.65
X3.05Y-3.75
X3.05Y-3.85
X3.05Y-3.95
X3.05Y-4.05
X3.05Y-4.15
X3.05Y-4.25
X3.05Y-4.35
X3.05Y-4.45
X3.05Y-4.55
X3.05Y-4.65
X3.05Y-4.75
X3.05Y-4.85
X3.05Y-4.95
X3.15Y-3.55
X3.15Y-3.65
X3.15Y-3.75
X3.15Y-3.85
X3.15Y-3.95
X3.15Y-4.05
X3.15Y-4.15
X3.15Y-4.25
X3.15Y-4.35
X3.15Y-4.45
X3.15Y-4.55
X3.15Y-4.65
X3.15Y-4.75
X3.15Y-4.85
X3.15Y-4.95
X5.85Y-3.55
X5.85Y-3.65
X5.85Y-3.75
X5.85Y-3.85
X5.85Y-3.95
X5.85Y-4.05
X5.85Y-4.15
X5.85Y-4.25
X5.85Y-4.35
X5.85Y-4.45
X5.85Y-4.55
X5.85Y-4.65
X5.85Y-4.75
X5.85Y-4.85
X5.85Y-4.95
X5.95Y-3.55
X5.95Y-3.65
X5.95Y-3.75
X5.95Y-3.85
X5.95Y-3.95
X5.95Y-4.05
X5.95Y-4.15
X5.95Y-4.25
X5.95Y-4.35
X5.95Y-4.45
X5.95Y-4.55
X5.95Y-4.65
X5.95Y-4.75
X5.95Y-4.85
X5.95Y-4.95
T6
X4.68Y-3.6241
X4.68Y-3.88
X4.8572Y-3.6241
X4.8572Y-3.88
X5.0028Y-3.6241
X5.0028Y-3.88
X5.18Y-3.6241
X5.18Y-3.88
T7
X5.1898Y-5.44
X5.1898Y-5.64
X5.2349Y-5.54
X5.28Y-5.44
X5.28Y-5.64
X5.3251Y-5.54
X5.3702Y-5.44
X5.3702Y-5.64
X5.4152Y-5.54
X5.4603Y-5.44
X5.4603Y-5.64
X5.5054Y-5.54
X5.5505Y-5.44
X5.5505Y-5.64
X5.5956Y-5.54
T8
X3.17Y-5.2222
X3.17Y-5.36
T9
X3.1888Y-5.8214
X3.6628Y-5.8214
T10
X4.8881Y-5.54
X5.8719Y-5.54
T0
M30
